G75*
%MOIN*%
%OFA0B0*%
%FSLAX25Y25*%
%IPPOS*%
%LPD*%
%AMOC8*
5,1,8,0,0,1.08239X$1,22.5*
%
%ADD10C,0.00000*%
%ADD11C,0.00300*%
%ADD12C,0.00400*%
%ADD13C,0.00600*%
%ADD14C,0.00500*%
%ADD15R,0.03400X0.02400*%
%ADD16C,0.00800*%
D10*
X0016800Y0001800D02*
X0016800Y0219261D01*
X0358001Y0219261D01*
X0358001Y0001800D01*
X0016800Y0001800D01*
X0030501Y0024300D02*
X0030503Y0024458D01*
X0030509Y0024616D01*
X0030519Y0024774D01*
X0030533Y0024932D01*
X0030551Y0025089D01*
X0030572Y0025246D01*
X0030598Y0025402D01*
X0030628Y0025558D01*
X0030661Y0025713D01*
X0030699Y0025866D01*
X0030740Y0026019D01*
X0030785Y0026171D01*
X0030834Y0026322D01*
X0030887Y0026471D01*
X0030943Y0026619D01*
X0031003Y0026765D01*
X0031067Y0026910D01*
X0031135Y0027053D01*
X0031206Y0027195D01*
X0031280Y0027335D01*
X0031358Y0027472D01*
X0031440Y0027608D01*
X0031524Y0027742D01*
X0031613Y0027873D01*
X0031704Y0028002D01*
X0031799Y0028129D01*
X0031896Y0028254D01*
X0031997Y0028376D01*
X0032101Y0028495D01*
X0032208Y0028612D01*
X0032318Y0028726D01*
X0032431Y0028837D01*
X0032546Y0028946D01*
X0032664Y0029051D01*
X0032785Y0029153D01*
X0032908Y0029253D01*
X0033034Y0029349D01*
X0033162Y0029442D01*
X0033292Y0029532D01*
X0033425Y0029618D01*
X0033560Y0029702D01*
X0033696Y0029781D01*
X0033835Y0029858D01*
X0033976Y0029930D01*
X0034118Y0030000D01*
X0034262Y0030065D01*
X0034408Y0030127D01*
X0034555Y0030185D01*
X0034704Y0030240D01*
X0034854Y0030291D01*
X0035005Y0030338D01*
X0035157Y0030381D01*
X0035310Y0030420D01*
X0035465Y0030456D01*
X0035620Y0030487D01*
X0035776Y0030515D01*
X0035932Y0030539D01*
X0036089Y0030559D01*
X0036247Y0030575D01*
X0036404Y0030587D01*
X0036563Y0030595D01*
X0036721Y0030599D01*
X0036879Y0030599D01*
X0037037Y0030595D01*
X0037196Y0030587D01*
X0037353Y0030575D01*
X0037511Y0030559D01*
X0037668Y0030539D01*
X0037824Y0030515D01*
X0037980Y0030487D01*
X0038135Y0030456D01*
X0038290Y0030420D01*
X0038443Y0030381D01*
X0038595Y0030338D01*
X0038746Y0030291D01*
X0038896Y0030240D01*
X0039045Y0030185D01*
X0039192Y0030127D01*
X0039338Y0030065D01*
X0039482Y0030000D01*
X0039624Y0029930D01*
X0039765Y0029858D01*
X0039904Y0029781D01*
X0040040Y0029702D01*
X0040175Y0029618D01*
X0040308Y0029532D01*
X0040438Y0029442D01*
X0040566Y0029349D01*
X0040692Y0029253D01*
X0040815Y0029153D01*
X0040936Y0029051D01*
X0041054Y0028946D01*
X0041169Y0028837D01*
X0041282Y0028726D01*
X0041392Y0028612D01*
X0041499Y0028495D01*
X0041603Y0028376D01*
X0041704Y0028254D01*
X0041801Y0028129D01*
X0041896Y0028002D01*
X0041987Y0027873D01*
X0042076Y0027742D01*
X0042160Y0027608D01*
X0042242Y0027472D01*
X0042320Y0027335D01*
X0042394Y0027195D01*
X0042465Y0027053D01*
X0042533Y0026910D01*
X0042597Y0026765D01*
X0042657Y0026619D01*
X0042713Y0026471D01*
X0042766Y0026322D01*
X0042815Y0026171D01*
X0042860Y0026019D01*
X0042901Y0025866D01*
X0042939Y0025713D01*
X0042972Y0025558D01*
X0043002Y0025402D01*
X0043028Y0025246D01*
X0043049Y0025089D01*
X0043067Y0024932D01*
X0043081Y0024774D01*
X0043091Y0024616D01*
X0043097Y0024458D01*
X0043099Y0024300D01*
X0043097Y0024142D01*
X0043091Y0023984D01*
X0043081Y0023826D01*
X0043067Y0023668D01*
X0043049Y0023511D01*
X0043028Y0023354D01*
X0043002Y0023198D01*
X0042972Y0023042D01*
X0042939Y0022887D01*
X0042901Y0022734D01*
X0042860Y0022581D01*
X0042815Y0022429D01*
X0042766Y0022278D01*
X0042713Y0022129D01*
X0042657Y0021981D01*
X0042597Y0021835D01*
X0042533Y0021690D01*
X0042465Y0021547D01*
X0042394Y0021405D01*
X0042320Y0021265D01*
X0042242Y0021128D01*
X0042160Y0020992D01*
X0042076Y0020858D01*
X0041987Y0020727D01*
X0041896Y0020598D01*
X0041801Y0020471D01*
X0041704Y0020346D01*
X0041603Y0020224D01*
X0041499Y0020105D01*
X0041392Y0019988D01*
X0041282Y0019874D01*
X0041169Y0019763D01*
X0041054Y0019654D01*
X0040936Y0019549D01*
X0040815Y0019447D01*
X0040692Y0019347D01*
X0040566Y0019251D01*
X0040438Y0019158D01*
X0040308Y0019068D01*
X0040175Y0018982D01*
X0040040Y0018898D01*
X0039904Y0018819D01*
X0039765Y0018742D01*
X0039624Y0018670D01*
X0039482Y0018600D01*
X0039338Y0018535D01*
X0039192Y0018473D01*
X0039045Y0018415D01*
X0038896Y0018360D01*
X0038746Y0018309D01*
X0038595Y0018262D01*
X0038443Y0018219D01*
X0038290Y0018180D01*
X0038135Y0018144D01*
X0037980Y0018113D01*
X0037824Y0018085D01*
X0037668Y0018061D01*
X0037511Y0018041D01*
X0037353Y0018025D01*
X0037196Y0018013D01*
X0037037Y0018005D01*
X0036879Y0018001D01*
X0036721Y0018001D01*
X0036563Y0018005D01*
X0036404Y0018013D01*
X0036247Y0018025D01*
X0036089Y0018041D01*
X0035932Y0018061D01*
X0035776Y0018085D01*
X0035620Y0018113D01*
X0035465Y0018144D01*
X0035310Y0018180D01*
X0035157Y0018219D01*
X0035005Y0018262D01*
X0034854Y0018309D01*
X0034704Y0018360D01*
X0034555Y0018415D01*
X0034408Y0018473D01*
X0034262Y0018535D01*
X0034118Y0018600D01*
X0033976Y0018670D01*
X0033835Y0018742D01*
X0033696Y0018819D01*
X0033560Y0018898D01*
X0033425Y0018982D01*
X0033292Y0019068D01*
X0033162Y0019158D01*
X0033034Y0019251D01*
X0032908Y0019347D01*
X0032785Y0019447D01*
X0032664Y0019549D01*
X0032546Y0019654D01*
X0032431Y0019763D01*
X0032318Y0019874D01*
X0032208Y0019988D01*
X0032101Y0020105D01*
X0031997Y0020224D01*
X0031896Y0020346D01*
X0031799Y0020471D01*
X0031704Y0020598D01*
X0031613Y0020727D01*
X0031524Y0020858D01*
X0031440Y0020992D01*
X0031358Y0021128D01*
X0031280Y0021265D01*
X0031206Y0021405D01*
X0031135Y0021547D01*
X0031067Y0021690D01*
X0031003Y0021835D01*
X0030943Y0021981D01*
X0030887Y0022129D01*
X0030834Y0022278D01*
X0030785Y0022429D01*
X0030740Y0022581D01*
X0030699Y0022734D01*
X0030661Y0022887D01*
X0030628Y0023042D01*
X0030598Y0023198D01*
X0030572Y0023354D01*
X0030551Y0023511D01*
X0030533Y0023668D01*
X0030519Y0023826D01*
X0030509Y0023984D01*
X0030503Y0024142D01*
X0030501Y0024300D01*
X0030501Y0199300D02*
X0030503Y0199458D01*
X0030509Y0199616D01*
X0030519Y0199774D01*
X0030533Y0199932D01*
X0030551Y0200089D01*
X0030572Y0200246D01*
X0030598Y0200402D01*
X0030628Y0200558D01*
X0030661Y0200713D01*
X0030699Y0200866D01*
X0030740Y0201019D01*
X0030785Y0201171D01*
X0030834Y0201322D01*
X0030887Y0201471D01*
X0030943Y0201619D01*
X0031003Y0201765D01*
X0031067Y0201910D01*
X0031135Y0202053D01*
X0031206Y0202195D01*
X0031280Y0202335D01*
X0031358Y0202472D01*
X0031440Y0202608D01*
X0031524Y0202742D01*
X0031613Y0202873D01*
X0031704Y0203002D01*
X0031799Y0203129D01*
X0031896Y0203254D01*
X0031997Y0203376D01*
X0032101Y0203495D01*
X0032208Y0203612D01*
X0032318Y0203726D01*
X0032431Y0203837D01*
X0032546Y0203946D01*
X0032664Y0204051D01*
X0032785Y0204153D01*
X0032908Y0204253D01*
X0033034Y0204349D01*
X0033162Y0204442D01*
X0033292Y0204532D01*
X0033425Y0204618D01*
X0033560Y0204702D01*
X0033696Y0204781D01*
X0033835Y0204858D01*
X0033976Y0204930D01*
X0034118Y0205000D01*
X0034262Y0205065D01*
X0034408Y0205127D01*
X0034555Y0205185D01*
X0034704Y0205240D01*
X0034854Y0205291D01*
X0035005Y0205338D01*
X0035157Y0205381D01*
X0035310Y0205420D01*
X0035465Y0205456D01*
X0035620Y0205487D01*
X0035776Y0205515D01*
X0035932Y0205539D01*
X0036089Y0205559D01*
X0036247Y0205575D01*
X0036404Y0205587D01*
X0036563Y0205595D01*
X0036721Y0205599D01*
X0036879Y0205599D01*
X0037037Y0205595D01*
X0037196Y0205587D01*
X0037353Y0205575D01*
X0037511Y0205559D01*
X0037668Y0205539D01*
X0037824Y0205515D01*
X0037980Y0205487D01*
X0038135Y0205456D01*
X0038290Y0205420D01*
X0038443Y0205381D01*
X0038595Y0205338D01*
X0038746Y0205291D01*
X0038896Y0205240D01*
X0039045Y0205185D01*
X0039192Y0205127D01*
X0039338Y0205065D01*
X0039482Y0205000D01*
X0039624Y0204930D01*
X0039765Y0204858D01*
X0039904Y0204781D01*
X0040040Y0204702D01*
X0040175Y0204618D01*
X0040308Y0204532D01*
X0040438Y0204442D01*
X0040566Y0204349D01*
X0040692Y0204253D01*
X0040815Y0204153D01*
X0040936Y0204051D01*
X0041054Y0203946D01*
X0041169Y0203837D01*
X0041282Y0203726D01*
X0041392Y0203612D01*
X0041499Y0203495D01*
X0041603Y0203376D01*
X0041704Y0203254D01*
X0041801Y0203129D01*
X0041896Y0203002D01*
X0041987Y0202873D01*
X0042076Y0202742D01*
X0042160Y0202608D01*
X0042242Y0202472D01*
X0042320Y0202335D01*
X0042394Y0202195D01*
X0042465Y0202053D01*
X0042533Y0201910D01*
X0042597Y0201765D01*
X0042657Y0201619D01*
X0042713Y0201471D01*
X0042766Y0201322D01*
X0042815Y0201171D01*
X0042860Y0201019D01*
X0042901Y0200866D01*
X0042939Y0200713D01*
X0042972Y0200558D01*
X0043002Y0200402D01*
X0043028Y0200246D01*
X0043049Y0200089D01*
X0043067Y0199932D01*
X0043081Y0199774D01*
X0043091Y0199616D01*
X0043097Y0199458D01*
X0043099Y0199300D01*
X0043097Y0199142D01*
X0043091Y0198984D01*
X0043081Y0198826D01*
X0043067Y0198668D01*
X0043049Y0198511D01*
X0043028Y0198354D01*
X0043002Y0198198D01*
X0042972Y0198042D01*
X0042939Y0197887D01*
X0042901Y0197734D01*
X0042860Y0197581D01*
X0042815Y0197429D01*
X0042766Y0197278D01*
X0042713Y0197129D01*
X0042657Y0196981D01*
X0042597Y0196835D01*
X0042533Y0196690D01*
X0042465Y0196547D01*
X0042394Y0196405D01*
X0042320Y0196265D01*
X0042242Y0196128D01*
X0042160Y0195992D01*
X0042076Y0195858D01*
X0041987Y0195727D01*
X0041896Y0195598D01*
X0041801Y0195471D01*
X0041704Y0195346D01*
X0041603Y0195224D01*
X0041499Y0195105D01*
X0041392Y0194988D01*
X0041282Y0194874D01*
X0041169Y0194763D01*
X0041054Y0194654D01*
X0040936Y0194549D01*
X0040815Y0194447D01*
X0040692Y0194347D01*
X0040566Y0194251D01*
X0040438Y0194158D01*
X0040308Y0194068D01*
X0040175Y0193982D01*
X0040040Y0193898D01*
X0039904Y0193819D01*
X0039765Y0193742D01*
X0039624Y0193670D01*
X0039482Y0193600D01*
X0039338Y0193535D01*
X0039192Y0193473D01*
X0039045Y0193415D01*
X0038896Y0193360D01*
X0038746Y0193309D01*
X0038595Y0193262D01*
X0038443Y0193219D01*
X0038290Y0193180D01*
X0038135Y0193144D01*
X0037980Y0193113D01*
X0037824Y0193085D01*
X0037668Y0193061D01*
X0037511Y0193041D01*
X0037353Y0193025D01*
X0037196Y0193013D01*
X0037037Y0193005D01*
X0036879Y0193001D01*
X0036721Y0193001D01*
X0036563Y0193005D01*
X0036404Y0193013D01*
X0036247Y0193025D01*
X0036089Y0193041D01*
X0035932Y0193061D01*
X0035776Y0193085D01*
X0035620Y0193113D01*
X0035465Y0193144D01*
X0035310Y0193180D01*
X0035157Y0193219D01*
X0035005Y0193262D01*
X0034854Y0193309D01*
X0034704Y0193360D01*
X0034555Y0193415D01*
X0034408Y0193473D01*
X0034262Y0193535D01*
X0034118Y0193600D01*
X0033976Y0193670D01*
X0033835Y0193742D01*
X0033696Y0193819D01*
X0033560Y0193898D01*
X0033425Y0193982D01*
X0033292Y0194068D01*
X0033162Y0194158D01*
X0033034Y0194251D01*
X0032908Y0194347D01*
X0032785Y0194447D01*
X0032664Y0194549D01*
X0032546Y0194654D01*
X0032431Y0194763D01*
X0032318Y0194874D01*
X0032208Y0194988D01*
X0032101Y0195105D01*
X0031997Y0195224D01*
X0031896Y0195346D01*
X0031799Y0195471D01*
X0031704Y0195598D01*
X0031613Y0195727D01*
X0031524Y0195858D01*
X0031440Y0195992D01*
X0031358Y0196128D01*
X0031280Y0196265D01*
X0031206Y0196405D01*
X0031135Y0196547D01*
X0031067Y0196690D01*
X0031003Y0196835D01*
X0030943Y0196981D01*
X0030887Y0197129D01*
X0030834Y0197278D01*
X0030785Y0197429D01*
X0030740Y0197581D01*
X0030699Y0197734D01*
X0030661Y0197887D01*
X0030628Y0198042D01*
X0030598Y0198198D01*
X0030572Y0198354D01*
X0030551Y0198511D01*
X0030533Y0198668D01*
X0030519Y0198826D01*
X0030509Y0198984D01*
X0030503Y0199142D01*
X0030501Y0199300D01*
X0330501Y0199300D02*
X0330503Y0199458D01*
X0330509Y0199616D01*
X0330519Y0199774D01*
X0330533Y0199932D01*
X0330551Y0200089D01*
X0330572Y0200246D01*
X0330598Y0200402D01*
X0330628Y0200558D01*
X0330661Y0200713D01*
X0330699Y0200866D01*
X0330740Y0201019D01*
X0330785Y0201171D01*
X0330834Y0201322D01*
X0330887Y0201471D01*
X0330943Y0201619D01*
X0331003Y0201765D01*
X0331067Y0201910D01*
X0331135Y0202053D01*
X0331206Y0202195D01*
X0331280Y0202335D01*
X0331358Y0202472D01*
X0331440Y0202608D01*
X0331524Y0202742D01*
X0331613Y0202873D01*
X0331704Y0203002D01*
X0331799Y0203129D01*
X0331896Y0203254D01*
X0331997Y0203376D01*
X0332101Y0203495D01*
X0332208Y0203612D01*
X0332318Y0203726D01*
X0332431Y0203837D01*
X0332546Y0203946D01*
X0332664Y0204051D01*
X0332785Y0204153D01*
X0332908Y0204253D01*
X0333034Y0204349D01*
X0333162Y0204442D01*
X0333292Y0204532D01*
X0333425Y0204618D01*
X0333560Y0204702D01*
X0333696Y0204781D01*
X0333835Y0204858D01*
X0333976Y0204930D01*
X0334118Y0205000D01*
X0334262Y0205065D01*
X0334408Y0205127D01*
X0334555Y0205185D01*
X0334704Y0205240D01*
X0334854Y0205291D01*
X0335005Y0205338D01*
X0335157Y0205381D01*
X0335310Y0205420D01*
X0335465Y0205456D01*
X0335620Y0205487D01*
X0335776Y0205515D01*
X0335932Y0205539D01*
X0336089Y0205559D01*
X0336247Y0205575D01*
X0336404Y0205587D01*
X0336563Y0205595D01*
X0336721Y0205599D01*
X0336879Y0205599D01*
X0337037Y0205595D01*
X0337196Y0205587D01*
X0337353Y0205575D01*
X0337511Y0205559D01*
X0337668Y0205539D01*
X0337824Y0205515D01*
X0337980Y0205487D01*
X0338135Y0205456D01*
X0338290Y0205420D01*
X0338443Y0205381D01*
X0338595Y0205338D01*
X0338746Y0205291D01*
X0338896Y0205240D01*
X0339045Y0205185D01*
X0339192Y0205127D01*
X0339338Y0205065D01*
X0339482Y0205000D01*
X0339624Y0204930D01*
X0339765Y0204858D01*
X0339904Y0204781D01*
X0340040Y0204702D01*
X0340175Y0204618D01*
X0340308Y0204532D01*
X0340438Y0204442D01*
X0340566Y0204349D01*
X0340692Y0204253D01*
X0340815Y0204153D01*
X0340936Y0204051D01*
X0341054Y0203946D01*
X0341169Y0203837D01*
X0341282Y0203726D01*
X0341392Y0203612D01*
X0341499Y0203495D01*
X0341603Y0203376D01*
X0341704Y0203254D01*
X0341801Y0203129D01*
X0341896Y0203002D01*
X0341987Y0202873D01*
X0342076Y0202742D01*
X0342160Y0202608D01*
X0342242Y0202472D01*
X0342320Y0202335D01*
X0342394Y0202195D01*
X0342465Y0202053D01*
X0342533Y0201910D01*
X0342597Y0201765D01*
X0342657Y0201619D01*
X0342713Y0201471D01*
X0342766Y0201322D01*
X0342815Y0201171D01*
X0342860Y0201019D01*
X0342901Y0200866D01*
X0342939Y0200713D01*
X0342972Y0200558D01*
X0343002Y0200402D01*
X0343028Y0200246D01*
X0343049Y0200089D01*
X0343067Y0199932D01*
X0343081Y0199774D01*
X0343091Y0199616D01*
X0343097Y0199458D01*
X0343099Y0199300D01*
X0343097Y0199142D01*
X0343091Y0198984D01*
X0343081Y0198826D01*
X0343067Y0198668D01*
X0343049Y0198511D01*
X0343028Y0198354D01*
X0343002Y0198198D01*
X0342972Y0198042D01*
X0342939Y0197887D01*
X0342901Y0197734D01*
X0342860Y0197581D01*
X0342815Y0197429D01*
X0342766Y0197278D01*
X0342713Y0197129D01*
X0342657Y0196981D01*
X0342597Y0196835D01*
X0342533Y0196690D01*
X0342465Y0196547D01*
X0342394Y0196405D01*
X0342320Y0196265D01*
X0342242Y0196128D01*
X0342160Y0195992D01*
X0342076Y0195858D01*
X0341987Y0195727D01*
X0341896Y0195598D01*
X0341801Y0195471D01*
X0341704Y0195346D01*
X0341603Y0195224D01*
X0341499Y0195105D01*
X0341392Y0194988D01*
X0341282Y0194874D01*
X0341169Y0194763D01*
X0341054Y0194654D01*
X0340936Y0194549D01*
X0340815Y0194447D01*
X0340692Y0194347D01*
X0340566Y0194251D01*
X0340438Y0194158D01*
X0340308Y0194068D01*
X0340175Y0193982D01*
X0340040Y0193898D01*
X0339904Y0193819D01*
X0339765Y0193742D01*
X0339624Y0193670D01*
X0339482Y0193600D01*
X0339338Y0193535D01*
X0339192Y0193473D01*
X0339045Y0193415D01*
X0338896Y0193360D01*
X0338746Y0193309D01*
X0338595Y0193262D01*
X0338443Y0193219D01*
X0338290Y0193180D01*
X0338135Y0193144D01*
X0337980Y0193113D01*
X0337824Y0193085D01*
X0337668Y0193061D01*
X0337511Y0193041D01*
X0337353Y0193025D01*
X0337196Y0193013D01*
X0337037Y0193005D01*
X0336879Y0193001D01*
X0336721Y0193001D01*
X0336563Y0193005D01*
X0336404Y0193013D01*
X0336247Y0193025D01*
X0336089Y0193041D01*
X0335932Y0193061D01*
X0335776Y0193085D01*
X0335620Y0193113D01*
X0335465Y0193144D01*
X0335310Y0193180D01*
X0335157Y0193219D01*
X0335005Y0193262D01*
X0334854Y0193309D01*
X0334704Y0193360D01*
X0334555Y0193415D01*
X0334408Y0193473D01*
X0334262Y0193535D01*
X0334118Y0193600D01*
X0333976Y0193670D01*
X0333835Y0193742D01*
X0333696Y0193819D01*
X0333560Y0193898D01*
X0333425Y0193982D01*
X0333292Y0194068D01*
X0333162Y0194158D01*
X0333034Y0194251D01*
X0332908Y0194347D01*
X0332785Y0194447D01*
X0332664Y0194549D01*
X0332546Y0194654D01*
X0332431Y0194763D01*
X0332318Y0194874D01*
X0332208Y0194988D01*
X0332101Y0195105D01*
X0331997Y0195224D01*
X0331896Y0195346D01*
X0331799Y0195471D01*
X0331704Y0195598D01*
X0331613Y0195727D01*
X0331524Y0195858D01*
X0331440Y0195992D01*
X0331358Y0196128D01*
X0331280Y0196265D01*
X0331206Y0196405D01*
X0331135Y0196547D01*
X0331067Y0196690D01*
X0331003Y0196835D01*
X0330943Y0196981D01*
X0330887Y0197129D01*
X0330834Y0197278D01*
X0330785Y0197429D01*
X0330740Y0197581D01*
X0330699Y0197734D01*
X0330661Y0197887D01*
X0330628Y0198042D01*
X0330598Y0198198D01*
X0330572Y0198354D01*
X0330551Y0198511D01*
X0330533Y0198668D01*
X0330519Y0198826D01*
X0330509Y0198984D01*
X0330503Y0199142D01*
X0330501Y0199300D01*
X0330501Y0024300D02*
X0330503Y0024458D01*
X0330509Y0024616D01*
X0330519Y0024774D01*
X0330533Y0024932D01*
X0330551Y0025089D01*
X0330572Y0025246D01*
X0330598Y0025402D01*
X0330628Y0025558D01*
X0330661Y0025713D01*
X0330699Y0025866D01*
X0330740Y0026019D01*
X0330785Y0026171D01*
X0330834Y0026322D01*
X0330887Y0026471D01*
X0330943Y0026619D01*
X0331003Y0026765D01*
X0331067Y0026910D01*
X0331135Y0027053D01*
X0331206Y0027195D01*
X0331280Y0027335D01*
X0331358Y0027472D01*
X0331440Y0027608D01*
X0331524Y0027742D01*
X0331613Y0027873D01*
X0331704Y0028002D01*
X0331799Y0028129D01*
X0331896Y0028254D01*
X0331997Y0028376D01*
X0332101Y0028495D01*
X0332208Y0028612D01*
X0332318Y0028726D01*
X0332431Y0028837D01*
X0332546Y0028946D01*
X0332664Y0029051D01*
X0332785Y0029153D01*
X0332908Y0029253D01*
X0333034Y0029349D01*
X0333162Y0029442D01*
X0333292Y0029532D01*
X0333425Y0029618D01*
X0333560Y0029702D01*
X0333696Y0029781D01*
X0333835Y0029858D01*
X0333976Y0029930D01*
X0334118Y0030000D01*
X0334262Y0030065D01*
X0334408Y0030127D01*
X0334555Y0030185D01*
X0334704Y0030240D01*
X0334854Y0030291D01*
X0335005Y0030338D01*
X0335157Y0030381D01*
X0335310Y0030420D01*
X0335465Y0030456D01*
X0335620Y0030487D01*
X0335776Y0030515D01*
X0335932Y0030539D01*
X0336089Y0030559D01*
X0336247Y0030575D01*
X0336404Y0030587D01*
X0336563Y0030595D01*
X0336721Y0030599D01*
X0336879Y0030599D01*
X0337037Y0030595D01*
X0337196Y0030587D01*
X0337353Y0030575D01*
X0337511Y0030559D01*
X0337668Y0030539D01*
X0337824Y0030515D01*
X0337980Y0030487D01*
X0338135Y0030456D01*
X0338290Y0030420D01*
X0338443Y0030381D01*
X0338595Y0030338D01*
X0338746Y0030291D01*
X0338896Y0030240D01*
X0339045Y0030185D01*
X0339192Y0030127D01*
X0339338Y0030065D01*
X0339482Y0030000D01*
X0339624Y0029930D01*
X0339765Y0029858D01*
X0339904Y0029781D01*
X0340040Y0029702D01*
X0340175Y0029618D01*
X0340308Y0029532D01*
X0340438Y0029442D01*
X0340566Y0029349D01*
X0340692Y0029253D01*
X0340815Y0029153D01*
X0340936Y0029051D01*
X0341054Y0028946D01*
X0341169Y0028837D01*
X0341282Y0028726D01*
X0341392Y0028612D01*
X0341499Y0028495D01*
X0341603Y0028376D01*
X0341704Y0028254D01*
X0341801Y0028129D01*
X0341896Y0028002D01*
X0341987Y0027873D01*
X0342076Y0027742D01*
X0342160Y0027608D01*
X0342242Y0027472D01*
X0342320Y0027335D01*
X0342394Y0027195D01*
X0342465Y0027053D01*
X0342533Y0026910D01*
X0342597Y0026765D01*
X0342657Y0026619D01*
X0342713Y0026471D01*
X0342766Y0026322D01*
X0342815Y0026171D01*
X0342860Y0026019D01*
X0342901Y0025866D01*
X0342939Y0025713D01*
X0342972Y0025558D01*
X0343002Y0025402D01*
X0343028Y0025246D01*
X0343049Y0025089D01*
X0343067Y0024932D01*
X0343081Y0024774D01*
X0343091Y0024616D01*
X0343097Y0024458D01*
X0343099Y0024300D01*
X0343097Y0024142D01*
X0343091Y0023984D01*
X0343081Y0023826D01*
X0343067Y0023668D01*
X0343049Y0023511D01*
X0343028Y0023354D01*
X0343002Y0023198D01*
X0342972Y0023042D01*
X0342939Y0022887D01*
X0342901Y0022734D01*
X0342860Y0022581D01*
X0342815Y0022429D01*
X0342766Y0022278D01*
X0342713Y0022129D01*
X0342657Y0021981D01*
X0342597Y0021835D01*
X0342533Y0021690D01*
X0342465Y0021547D01*
X0342394Y0021405D01*
X0342320Y0021265D01*
X0342242Y0021128D01*
X0342160Y0020992D01*
X0342076Y0020858D01*
X0341987Y0020727D01*
X0341896Y0020598D01*
X0341801Y0020471D01*
X0341704Y0020346D01*
X0341603Y0020224D01*
X0341499Y0020105D01*
X0341392Y0019988D01*
X0341282Y0019874D01*
X0341169Y0019763D01*
X0341054Y0019654D01*
X0340936Y0019549D01*
X0340815Y0019447D01*
X0340692Y0019347D01*
X0340566Y0019251D01*
X0340438Y0019158D01*
X0340308Y0019068D01*
X0340175Y0018982D01*
X0340040Y0018898D01*
X0339904Y0018819D01*
X0339765Y0018742D01*
X0339624Y0018670D01*
X0339482Y0018600D01*
X0339338Y0018535D01*
X0339192Y0018473D01*
X0339045Y0018415D01*
X0338896Y0018360D01*
X0338746Y0018309D01*
X0338595Y0018262D01*
X0338443Y0018219D01*
X0338290Y0018180D01*
X0338135Y0018144D01*
X0337980Y0018113D01*
X0337824Y0018085D01*
X0337668Y0018061D01*
X0337511Y0018041D01*
X0337353Y0018025D01*
X0337196Y0018013D01*
X0337037Y0018005D01*
X0336879Y0018001D01*
X0336721Y0018001D01*
X0336563Y0018005D01*
X0336404Y0018013D01*
X0336247Y0018025D01*
X0336089Y0018041D01*
X0335932Y0018061D01*
X0335776Y0018085D01*
X0335620Y0018113D01*
X0335465Y0018144D01*
X0335310Y0018180D01*
X0335157Y0018219D01*
X0335005Y0018262D01*
X0334854Y0018309D01*
X0334704Y0018360D01*
X0334555Y0018415D01*
X0334408Y0018473D01*
X0334262Y0018535D01*
X0334118Y0018600D01*
X0333976Y0018670D01*
X0333835Y0018742D01*
X0333696Y0018819D01*
X0333560Y0018898D01*
X0333425Y0018982D01*
X0333292Y0019068D01*
X0333162Y0019158D01*
X0333034Y0019251D01*
X0332908Y0019347D01*
X0332785Y0019447D01*
X0332664Y0019549D01*
X0332546Y0019654D01*
X0332431Y0019763D01*
X0332318Y0019874D01*
X0332208Y0019988D01*
X0332101Y0020105D01*
X0331997Y0020224D01*
X0331896Y0020346D01*
X0331799Y0020471D01*
X0331704Y0020598D01*
X0331613Y0020727D01*
X0331524Y0020858D01*
X0331440Y0020992D01*
X0331358Y0021128D01*
X0331280Y0021265D01*
X0331206Y0021405D01*
X0331135Y0021547D01*
X0331067Y0021690D01*
X0331003Y0021835D01*
X0330943Y0021981D01*
X0330887Y0022129D01*
X0330834Y0022278D01*
X0330785Y0022429D01*
X0330740Y0022581D01*
X0330699Y0022734D01*
X0330661Y0022887D01*
X0330628Y0023042D01*
X0330598Y0023198D01*
X0330572Y0023354D01*
X0330551Y0023511D01*
X0330533Y0023668D01*
X0330519Y0023826D01*
X0330509Y0023984D01*
X0330503Y0024142D01*
X0330501Y0024300D01*
D11*
X0311651Y0042567D02*
X0311034Y0041950D01*
X0309800Y0041950D01*
X0309183Y0042567D01*
X0309183Y0045036D01*
X0309800Y0045653D01*
X0311034Y0045653D01*
X0311651Y0045036D01*
X0307968Y0045036D02*
X0307351Y0045653D01*
X0306117Y0045653D01*
X0305499Y0045036D01*
X0305499Y0042567D01*
X0306117Y0041950D01*
X0307351Y0041950D01*
X0307968Y0042567D01*
X0304285Y0043184D02*
X0303051Y0041950D01*
X0301816Y0043184D01*
X0301816Y0045653D01*
X0304285Y0045653D02*
X0304285Y0043184D01*
X0296919Y0043802D02*
X0294450Y0043802D01*
X0296302Y0045653D01*
X0296302Y0041950D01*
X0293236Y0042567D02*
X0292618Y0041950D01*
X0291384Y0041950D01*
X0290767Y0042567D01*
X0290767Y0045036D01*
X0291384Y0045653D01*
X0292618Y0045653D01*
X0293236Y0045036D01*
X0285869Y0045036D02*
X0285869Y0042567D01*
X0285252Y0041950D01*
X0283401Y0041950D01*
X0283401Y0045653D01*
X0285252Y0045653D01*
X0285869Y0045036D01*
X0282186Y0045653D02*
X0282186Y0041950D01*
X0279717Y0045653D01*
X0279717Y0041950D01*
X0278503Y0042567D02*
X0277886Y0041950D01*
X0276651Y0041950D01*
X0276034Y0042567D01*
X0276034Y0045036D01*
X0276651Y0045653D01*
X0277886Y0045653D01*
X0278503Y0045036D01*
X0278503Y0043802D02*
X0277269Y0043802D01*
X0278503Y0043802D02*
X0278503Y0042567D01*
X0266651Y0042567D02*
X0266034Y0041950D01*
X0264800Y0041950D01*
X0264183Y0042567D01*
X0264183Y0045036D01*
X0264800Y0045653D01*
X0266034Y0045653D01*
X0266651Y0045036D01*
X0262968Y0045036D02*
X0262351Y0045653D01*
X0261117Y0045653D01*
X0260499Y0045036D01*
X0260499Y0042567D01*
X0261117Y0041950D01*
X0262351Y0041950D01*
X0262968Y0042567D01*
X0259285Y0043184D02*
X0259285Y0045653D01*
X0259285Y0043184D02*
X0258051Y0041950D01*
X0256816Y0043184D01*
X0256816Y0045653D01*
X0251919Y0045036D02*
X0251919Y0044419D01*
X0251302Y0043802D01*
X0251919Y0043184D01*
X0251919Y0042567D01*
X0251302Y0041950D01*
X0250067Y0041950D01*
X0249450Y0042567D01*
X0248236Y0042567D02*
X0247618Y0041950D01*
X0246384Y0041950D01*
X0245767Y0042567D01*
X0245767Y0045036D01*
X0246384Y0045653D01*
X0247618Y0045653D01*
X0248236Y0045036D01*
X0249450Y0045036D02*
X0250067Y0045653D01*
X0251302Y0045653D01*
X0251919Y0045036D01*
X0251302Y0043802D02*
X0250684Y0043802D01*
X0240869Y0042567D02*
X0240869Y0045036D01*
X0240252Y0045653D01*
X0238401Y0045653D01*
X0238401Y0041950D01*
X0240252Y0041950D01*
X0240869Y0042567D01*
X0237186Y0041950D02*
X0237186Y0045653D01*
X0234717Y0045653D02*
X0237186Y0041950D01*
X0234717Y0041950D02*
X0234717Y0045653D01*
X0233503Y0045036D02*
X0232886Y0045653D01*
X0231651Y0045653D01*
X0231034Y0045036D01*
X0231034Y0042567D01*
X0231651Y0041950D01*
X0232886Y0041950D01*
X0233503Y0042567D01*
X0233503Y0043802D01*
X0232269Y0043802D01*
X0209369Y0013653D02*
X0209369Y0009950D01*
X0207518Y0009950D01*
X0206900Y0010567D01*
X0206900Y0011802D01*
X0207518Y0012419D01*
X0209369Y0012419D01*
X0210583Y0011802D02*
X0211201Y0012419D01*
X0212435Y0012419D01*
X0213052Y0011802D01*
X0213052Y0011184D01*
X0210583Y0011184D01*
X0210583Y0010567D02*
X0210583Y0011802D01*
X0210583Y0010567D02*
X0211201Y0009950D01*
X0212435Y0009950D01*
X0205676Y0009950D02*
X0205059Y0009950D01*
X0205059Y0010567D01*
X0205676Y0010567D01*
X0205676Y0009950D01*
X0203844Y0010567D02*
X0203844Y0011802D01*
X0203227Y0012419D01*
X0201993Y0012419D01*
X0201376Y0011802D01*
X0201376Y0010567D01*
X0201993Y0009950D01*
X0203227Y0009950D01*
X0203844Y0010567D01*
X0200161Y0010567D02*
X0200161Y0011802D01*
X0199544Y0012419D01*
X0198310Y0012419D01*
X0197692Y0011802D01*
X0197692Y0010567D01*
X0198310Y0009950D01*
X0199544Y0009950D01*
X0200161Y0010567D01*
X0196478Y0009950D02*
X0194009Y0009950D01*
X0196478Y0012419D01*
X0194009Y0012419D01*
X0192795Y0012419D02*
X0190943Y0012419D01*
X0190326Y0011802D01*
X0190326Y0010567D01*
X0190943Y0009950D01*
X0192795Y0009950D01*
X0192795Y0013653D01*
X0189112Y0011802D02*
X0189112Y0009950D01*
X0189112Y0011802D02*
X0188495Y0012419D01*
X0186643Y0012419D01*
X0186643Y0009950D01*
X0185422Y0009950D02*
X0184188Y0009950D01*
X0184805Y0009950D02*
X0184805Y0012419D01*
X0184188Y0012419D01*
X0182973Y0011802D02*
X0182973Y0009950D01*
X0181739Y0009950D02*
X0181739Y0011802D01*
X0182356Y0012419D01*
X0182973Y0011802D01*
X0181739Y0011802D02*
X0181122Y0012419D01*
X0180504Y0012419D01*
X0180504Y0009950D01*
X0179290Y0010567D02*
X0178673Y0009950D01*
X0177439Y0009950D01*
X0176821Y0010567D01*
X0176821Y0013036D01*
X0177439Y0013653D01*
X0178673Y0013653D01*
X0179290Y0013036D01*
X0179290Y0011802D01*
X0178673Y0011184D01*
X0178673Y0012419D01*
X0177439Y0012419D01*
X0177439Y0011184D01*
X0178673Y0011184D01*
X0175607Y0010567D02*
X0174990Y0011184D01*
X0173755Y0011184D01*
X0173138Y0011802D01*
X0173755Y0012419D01*
X0175607Y0012419D01*
X0175607Y0010567D02*
X0174990Y0009950D01*
X0173138Y0009950D01*
X0171924Y0009950D02*
X0170072Y0009950D01*
X0169455Y0010567D01*
X0169455Y0011802D01*
X0170072Y0012419D01*
X0171924Y0012419D01*
X0171924Y0009333D01*
X0171307Y0008716D01*
X0170689Y0008716D01*
X0168241Y0009950D02*
X0168241Y0012419D01*
X0168241Y0009950D02*
X0166389Y0009950D01*
X0165772Y0010567D01*
X0165772Y0012419D01*
X0164558Y0011802D02*
X0164558Y0010567D01*
X0163940Y0009950D01*
X0162706Y0009950D01*
X0162089Y0010567D01*
X0162089Y0011802D01*
X0162706Y0012419D01*
X0163940Y0012419D01*
X0164558Y0011802D01*
X0160868Y0012419D02*
X0160868Y0009333D01*
X0160251Y0008716D01*
X0159633Y0008716D01*
X0160868Y0013653D02*
X0160868Y0014270D01*
X0184805Y0014270D02*
X0184805Y0013653D01*
X0141651Y0042567D02*
X0141034Y0041950D01*
X0139800Y0041950D01*
X0139183Y0042567D01*
X0139183Y0045036D01*
X0139800Y0045653D01*
X0141034Y0045653D01*
X0141651Y0045036D01*
X0137968Y0045036D02*
X0137351Y0045653D01*
X0136117Y0045653D01*
X0135499Y0045036D01*
X0135499Y0042567D01*
X0136117Y0041950D01*
X0137351Y0041950D01*
X0137968Y0042567D01*
X0134285Y0043184D02*
X0133051Y0041950D01*
X0131816Y0043184D01*
X0131816Y0045653D01*
X0134285Y0045653D02*
X0134285Y0043184D01*
X0126919Y0041950D02*
X0124450Y0041950D01*
X0126919Y0044419D01*
X0126919Y0045036D01*
X0126302Y0045653D01*
X0125067Y0045653D01*
X0124450Y0045036D01*
X0123236Y0045036D02*
X0122618Y0045653D01*
X0121384Y0045653D01*
X0120767Y0045036D01*
X0120767Y0042567D01*
X0121384Y0041950D01*
X0122618Y0041950D01*
X0123236Y0042567D01*
X0115869Y0042567D02*
X0115252Y0041950D01*
X0113401Y0041950D01*
X0113401Y0045653D01*
X0115252Y0045653D01*
X0115869Y0045036D01*
X0115869Y0042567D01*
X0112186Y0041950D02*
X0112186Y0045653D01*
X0109717Y0045653D02*
X0112186Y0041950D01*
X0109717Y0041950D02*
X0109717Y0045653D01*
X0108503Y0045036D02*
X0107886Y0045653D01*
X0106651Y0045653D01*
X0106034Y0045036D01*
X0106034Y0042567D01*
X0106651Y0041950D01*
X0107886Y0041950D01*
X0108503Y0042567D01*
X0108503Y0043802D01*
X0107269Y0043802D01*
X0096651Y0045036D02*
X0096034Y0045653D01*
X0094800Y0045653D01*
X0094183Y0045036D01*
X0094183Y0042567D01*
X0094800Y0041950D01*
X0096034Y0041950D01*
X0096651Y0042567D01*
X0092968Y0042567D02*
X0092351Y0041950D01*
X0091117Y0041950D01*
X0090499Y0042567D01*
X0090499Y0045036D01*
X0091117Y0045653D01*
X0092351Y0045653D01*
X0092968Y0045036D01*
X0089285Y0045653D02*
X0089285Y0043184D01*
X0088051Y0041950D01*
X0086816Y0043184D01*
X0086816Y0045653D01*
X0080684Y0045653D02*
X0080684Y0041950D01*
X0079450Y0041950D02*
X0081919Y0041950D01*
X0078236Y0042567D02*
X0077618Y0041950D01*
X0076384Y0041950D01*
X0075767Y0042567D01*
X0075767Y0045036D01*
X0076384Y0045653D01*
X0077618Y0045653D01*
X0078236Y0045036D01*
X0079450Y0044419D02*
X0080684Y0045653D01*
X0070869Y0045036D02*
X0070869Y0042567D01*
X0070252Y0041950D01*
X0068401Y0041950D01*
X0068401Y0045653D01*
X0070252Y0045653D01*
X0070869Y0045036D01*
X0067186Y0045653D02*
X0067186Y0041950D01*
X0064717Y0045653D01*
X0064717Y0041950D01*
X0063503Y0042567D02*
X0063503Y0043802D01*
X0062269Y0043802D01*
X0063503Y0045036D02*
X0062886Y0045653D01*
X0061651Y0045653D01*
X0061034Y0045036D01*
X0061034Y0042567D01*
X0061651Y0041950D01*
X0062886Y0041950D01*
X0063503Y0042567D01*
X0062886Y0176950D02*
X0063503Y0177567D01*
X0063503Y0178802D01*
X0062269Y0178802D01*
X0063503Y0180036D02*
X0062886Y0180653D01*
X0061651Y0180653D01*
X0061034Y0180036D01*
X0061034Y0177567D01*
X0061651Y0176950D01*
X0062886Y0176950D01*
X0064717Y0176950D02*
X0064717Y0180653D01*
X0067186Y0176950D01*
X0067186Y0180653D01*
X0068401Y0180653D02*
X0068401Y0176950D01*
X0070252Y0176950D01*
X0070869Y0177567D01*
X0070869Y0180036D01*
X0070252Y0180653D01*
X0068401Y0180653D01*
X0086816Y0180653D02*
X0086816Y0178184D01*
X0088051Y0176950D01*
X0089285Y0178184D01*
X0089285Y0180653D01*
X0090499Y0180036D02*
X0090499Y0177567D01*
X0091117Y0176950D01*
X0092351Y0176950D01*
X0092968Y0177567D01*
X0094183Y0177567D02*
X0094183Y0180036D01*
X0094800Y0180653D01*
X0096034Y0180653D01*
X0096651Y0180036D01*
X0096651Y0177567D02*
X0096034Y0176950D01*
X0094800Y0176950D01*
X0094183Y0177567D01*
X0092968Y0180036D02*
X0092351Y0180653D01*
X0091117Y0180653D01*
X0090499Y0180036D01*
X0101034Y0180036D02*
X0101034Y0177567D01*
X0101651Y0176950D01*
X0102886Y0176950D01*
X0103503Y0177567D01*
X0103503Y0178802D01*
X0102269Y0178802D01*
X0103503Y0180036D02*
X0102886Y0180653D01*
X0101651Y0180653D01*
X0101034Y0180036D01*
X0104717Y0180653D02*
X0107186Y0176950D01*
X0107186Y0180653D01*
X0108401Y0180653D02*
X0108401Y0176950D01*
X0110252Y0176950D01*
X0110869Y0177567D01*
X0110869Y0180036D01*
X0110252Y0180653D01*
X0108401Y0180653D01*
X0104717Y0180653D02*
X0104717Y0176950D01*
X0126816Y0178184D02*
X0128051Y0176950D01*
X0129285Y0178184D01*
X0129285Y0180653D01*
X0130499Y0180036D02*
X0130499Y0177567D01*
X0131117Y0176950D01*
X0132351Y0176950D01*
X0132968Y0177567D01*
X0134183Y0177567D02*
X0134800Y0176950D01*
X0136034Y0176950D01*
X0136651Y0177567D01*
X0134183Y0177567D02*
X0134183Y0180036D01*
X0134800Y0180653D01*
X0136034Y0180653D01*
X0136651Y0180036D01*
X0132968Y0180036D02*
X0132351Y0180653D01*
X0131117Y0180653D01*
X0130499Y0180036D01*
X0126816Y0180653D02*
X0126816Y0178184D01*
X0141034Y0177567D02*
X0141651Y0176950D01*
X0142886Y0176950D01*
X0143503Y0177567D01*
X0143503Y0178802D01*
X0142269Y0178802D01*
X0143503Y0180036D02*
X0142886Y0180653D01*
X0141651Y0180653D01*
X0141034Y0180036D01*
X0141034Y0177567D01*
X0144717Y0176950D02*
X0144717Y0180653D01*
X0147186Y0176950D01*
X0147186Y0180653D01*
X0148401Y0180653D02*
X0148401Y0176950D01*
X0150252Y0176950D01*
X0150869Y0177567D01*
X0150869Y0180036D01*
X0150252Y0180653D01*
X0148401Y0180653D01*
X0166816Y0180653D02*
X0166816Y0178184D01*
X0168051Y0176950D01*
X0169285Y0178184D01*
X0169285Y0180653D01*
X0170499Y0180036D02*
X0170499Y0177567D01*
X0171117Y0176950D01*
X0172351Y0176950D01*
X0172968Y0177567D01*
X0174183Y0177567D02*
X0174800Y0176950D01*
X0176034Y0176950D01*
X0176651Y0177567D01*
X0174183Y0177567D02*
X0174183Y0180036D01*
X0174800Y0180653D01*
X0176034Y0180653D01*
X0176651Y0180036D01*
X0172968Y0180036D02*
X0172351Y0180653D01*
X0171117Y0180653D01*
X0170499Y0180036D01*
X0193401Y0180567D02*
X0194018Y0179950D01*
X0195252Y0179950D01*
X0195869Y0180567D01*
X0197084Y0179950D02*
X0197084Y0183653D01*
X0195869Y0183036D02*
X0195252Y0183653D01*
X0194018Y0183653D01*
X0193401Y0183036D01*
X0193401Y0180567D01*
X0197084Y0181802D02*
X0197701Y0182419D01*
X0198935Y0182419D01*
X0199552Y0181802D01*
X0199552Y0179950D01*
X0200767Y0181802D02*
X0203236Y0181802D01*
X0202618Y0183653D02*
X0202618Y0179950D01*
X0200767Y0181802D02*
X0202618Y0183653D01*
X0202618Y0189950D02*
X0201384Y0189950D01*
X0200767Y0190567D01*
X0199552Y0189950D02*
X0199552Y0191802D01*
X0198935Y0192419D01*
X0197701Y0192419D01*
X0197084Y0191802D01*
X0195869Y0193036D02*
X0195252Y0193653D01*
X0194018Y0193653D01*
X0193401Y0193036D01*
X0193401Y0190567D01*
X0194018Y0189950D01*
X0195252Y0189950D01*
X0195869Y0190567D01*
X0197084Y0189950D02*
X0197084Y0193653D01*
X0200767Y0193036D02*
X0201384Y0193653D01*
X0202618Y0193653D01*
X0203236Y0193036D01*
X0203236Y0192419D01*
X0202618Y0191802D01*
X0203236Y0191184D01*
X0203236Y0190567D01*
X0202618Y0189950D01*
X0202618Y0191802D02*
X0202001Y0191802D01*
X0200767Y0199950D02*
X0203236Y0202419D01*
X0203236Y0203036D01*
X0202618Y0203653D01*
X0201384Y0203653D01*
X0200767Y0203036D01*
X0199552Y0201802D02*
X0199552Y0199950D01*
X0200767Y0199950D02*
X0203236Y0199950D01*
X0199552Y0201802D02*
X0198935Y0202419D01*
X0197701Y0202419D01*
X0197084Y0201802D01*
X0195869Y0203036D02*
X0195252Y0203653D01*
X0194018Y0203653D01*
X0193401Y0203036D01*
X0193401Y0200567D01*
X0194018Y0199950D01*
X0195252Y0199950D01*
X0195869Y0200567D01*
X0197084Y0199950D02*
X0197084Y0203653D01*
X0197084Y0209950D02*
X0197084Y0213653D01*
X0195869Y0213036D02*
X0195252Y0213653D01*
X0194018Y0213653D01*
X0193401Y0213036D01*
X0193401Y0210567D01*
X0194018Y0209950D01*
X0195252Y0209950D01*
X0195869Y0210567D01*
X0197084Y0211802D02*
X0197701Y0212419D01*
X0198935Y0212419D01*
X0199552Y0211802D01*
X0199552Y0209950D01*
X0200767Y0209950D02*
X0203236Y0209950D01*
X0202001Y0209950D02*
X0202001Y0213653D01*
X0200767Y0212419D01*
X0228181Y0208623D02*
X0228181Y0206772D01*
X0230650Y0206772D01*
X0230033Y0205557D02*
X0228181Y0205557D01*
X0230033Y0205557D02*
X0230650Y0204940D01*
X0230033Y0204323D01*
X0230650Y0203706D01*
X0230033Y0203089D01*
X0228181Y0203089D01*
X0228798Y0201874D02*
X0228181Y0201257D01*
X0228181Y0200023D01*
X0228798Y0199405D01*
X0230033Y0199405D01*
X0230650Y0200023D01*
X0230650Y0201257D01*
X0230033Y0201874D01*
X0228798Y0201874D01*
X0232947Y0201864D02*
X0236650Y0201864D01*
X0236650Y0201247D02*
X0236650Y0202481D01*
X0236033Y0203702D02*
X0234798Y0203702D01*
X0234181Y0204320D01*
X0234181Y0205554D01*
X0234798Y0206171D01*
X0235416Y0206171D01*
X0235416Y0203702D01*
X0236033Y0203702D02*
X0236650Y0204320D01*
X0236650Y0205554D01*
X0232947Y0201864D02*
X0232947Y0201247D01*
X0234181Y0199415D02*
X0234181Y0197564D01*
X0232947Y0197564D02*
X0236650Y0197564D01*
X0236650Y0199415D01*
X0236033Y0200033D01*
X0234798Y0200033D01*
X0234181Y0199415D01*
X0230650Y0198191D02*
X0230650Y0196339D01*
X0230033Y0195722D01*
X0228798Y0195722D01*
X0228181Y0196339D01*
X0228181Y0198191D01*
X0226947Y0198191D02*
X0230650Y0198191D01*
X0234181Y0195732D02*
X0234798Y0196349D01*
X0236650Y0196349D01*
X0236650Y0194498D01*
X0236033Y0193881D01*
X0235416Y0194498D01*
X0235416Y0196349D01*
X0234181Y0195732D02*
X0234181Y0194498D01*
X0234798Y0192666D02*
X0236650Y0192666D01*
X0234798Y0192666D02*
X0234181Y0192049D01*
X0234181Y0190198D01*
X0236650Y0190198D01*
X0235416Y0188983D02*
X0235416Y0186514D01*
X0236033Y0186514D02*
X0234798Y0186514D01*
X0234181Y0187132D01*
X0234181Y0188366D01*
X0234798Y0188983D01*
X0235416Y0188983D01*
X0236650Y0188366D02*
X0236650Y0187132D01*
X0236033Y0186514D01*
X0230650Y0187745D02*
X0230650Y0189597D01*
X0228181Y0189597D01*
X0226947Y0190811D02*
X0226947Y0191429D01*
X0230650Y0191429D01*
X0230650Y0192046D02*
X0230650Y0190811D01*
X0230650Y0193267D02*
X0230650Y0194501D01*
X0230650Y0193884D02*
X0226947Y0193884D01*
X0226947Y0193267D01*
X0228181Y0187128D02*
X0230033Y0187128D01*
X0230650Y0187745D01*
X0228798Y0185914D02*
X0229416Y0185297D01*
X0229416Y0183445D01*
X0230650Y0183445D02*
X0226947Y0183445D01*
X0226947Y0185297D01*
X0227564Y0185914D01*
X0228798Y0185914D01*
X0228181Y0208623D02*
X0228798Y0209240D01*
X0230650Y0209240D01*
X0321950Y0180653D02*
X0321950Y0176950D01*
X0321950Y0178184D02*
X0323802Y0178184D01*
X0324419Y0178802D01*
X0324419Y0180036D01*
X0323802Y0180653D01*
X0321950Y0180653D01*
X0323184Y0178184D02*
X0324419Y0176950D01*
X0325633Y0176950D02*
X0328102Y0176950D01*
X0326868Y0176950D02*
X0326868Y0180653D01*
X0325633Y0179419D01*
X0329316Y0178802D02*
X0331785Y0178802D01*
X0332999Y0178184D02*
X0334851Y0178184D01*
X0335468Y0178802D01*
X0335468Y0180036D01*
X0334851Y0180653D01*
X0332999Y0180653D01*
X0332999Y0176950D01*
X0334234Y0178184D02*
X0335468Y0176950D01*
X0336683Y0178802D02*
X0339151Y0178802D01*
X0340366Y0178802D02*
X0340366Y0179419D01*
X0340983Y0179419D01*
X0340983Y0178802D01*
X0340366Y0178802D01*
X0340366Y0177567D02*
X0340366Y0176950D01*
X0340983Y0176950D01*
X0340983Y0177567D01*
X0340366Y0177567D01*
X0338534Y0176950D02*
X0338534Y0180653D01*
X0336683Y0178802D01*
X0345890Y0179419D02*
X0347125Y0180653D01*
X0347125Y0176950D01*
X0348359Y0176950D02*
X0345890Y0176950D01*
X0349574Y0177567D02*
X0349574Y0180036D01*
X0350191Y0180653D01*
X0351425Y0180653D01*
X0352042Y0180036D01*
X0349574Y0177567D01*
X0350191Y0176950D01*
X0351425Y0176950D01*
X0352042Y0177567D01*
X0352042Y0180036D01*
X0353257Y0180653D02*
X0353257Y0176950D01*
X0353257Y0178184D02*
X0355108Y0179419D01*
X0353257Y0178184D02*
X0355108Y0176950D01*
D12*
X0330639Y0164104D02*
X0329104Y0164104D01*
X0329871Y0164104D02*
X0329871Y0159500D01*
X0329104Y0159500D02*
X0330639Y0159500D01*
X0332173Y0159500D02*
X0332173Y0162569D01*
X0334475Y0162569D01*
X0335242Y0161802D01*
X0335242Y0159500D01*
X0327569Y0161802D02*
X0324500Y0161802D01*
X0326035Y0163337D02*
X0326035Y0160267D01*
X0326802Y0149104D02*
X0324500Y0149104D01*
X0324500Y0144500D01*
X0324500Y0146035D02*
X0326802Y0146035D01*
X0327569Y0146802D01*
X0327569Y0148337D01*
X0326802Y0149104D01*
X0329104Y0149104D02*
X0329104Y0144500D01*
X0330639Y0146035D01*
X0332173Y0144500D01*
X0332173Y0149104D01*
X0333708Y0149104D02*
X0335242Y0147569D01*
X0336777Y0149104D01*
X0336777Y0144500D01*
X0333708Y0144500D02*
X0333708Y0149104D01*
X0330960Y0131604D02*
X0330193Y0131604D01*
X0330960Y0131604D02*
X0330960Y0127000D01*
X0330193Y0127000D02*
X0331727Y0127000D01*
X0328658Y0127000D02*
X0327124Y0127000D01*
X0327891Y0127000D02*
X0327891Y0131604D01*
X0327124Y0131604D01*
X0325589Y0129302D02*
X0325589Y0128535D01*
X0322520Y0128535D01*
X0322520Y0129302D02*
X0323287Y0130069D01*
X0324822Y0130069D01*
X0325589Y0129302D01*
X0324822Y0127000D02*
X0323287Y0127000D01*
X0322520Y0127767D01*
X0322520Y0129302D01*
X0320985Y0130069D02*
X0320985Y0127767D01*
X0320218Y0127000D01*
X0319450Y0127767D01*
X0318683Y0127000D01*
X0317916Y0127767D01*
X0317916Y0130069D01*
X0316381Y0129302D02*
X0316381Y0127000D01*
X0316381Y0129302D02*
X0315614Y0130069D01*
X0313312Y0130069D01*
X0313312Y0127000D01*
X0311777Y0127000D02*
X0311777Y0129302D01*
X0311010Y0130069D01*
X0309475Y0130069D01*
X0309475Y0128535D02*
X0311777Y0128535D01*
X0311777Y0127000D02*
X0309475Y0127000D01*
X0308708Y0127767D01*
X0309475Y0128535D01*
X0307173Y0128535D02*
X0304104Y0128535D01*
X0304104Y0129302D02*
X0304871Y0130069D01*
X0306406Y0130069D01*
X0307173Y0129302D01*
X0307173Y0128535D01*
X0306406Y0127000D02*
X0304871Y0127000D01*
X0304104Y0127767D01*
X0304104Y0129302D01*
X0302569Y0131604D02*
X0302569Y0127000D01*
X0299500Y0127000D02*
X0299500Y0131604D01*
X0301035Y0130069D01*
X0302569Y0131604D01*
X0304500Y0121604D02*
X0304500Y0117000D01*
X0307569Y0117000D01*
X0309104Y0117000D02*
X0311406Y0117000D01*
X0312173Y0117767D01*
X0312173Y0120837D01*
X0311406Y0121604D01*
X0309104Y0121604D01*
X0309104Y0117000D01*
X0313708Y0117000D02*
X0316010Y0117000D01*
X0316777Y0117767D01*
X0316777Y0120837D01*
X0316010Y0121604D01*
X0313708Y0121604D01*
X0313708Y0117000D01*
X0318312Y0119302D02*
X0321381Y0119302D01*
X0322916Y0119302D02*
X0325985Y0119302D01*
X0325985Y0121604D02*
X0325985Y0117000D01*
X0322916Y0117000D02*
X0322916Y0121604D01*
X0302742Y0159500D02*
X0302742Y0161802D01*
X0301975Y0162569D01*
X0299673Y0162569D01*
X0299673Y0159500D01*
X0298139Y0159500D02*
X0296604Y0159500D01*
X0297371Y0159500D02*
X0297371Y0164104D01*
X0296604Y0164104D02*
X0298139Y0164104D01*
X0295069Y0161802D02*
X0292000Y0161802D01*
X0310000Y0180500D02*
X0310000Y0184103D01*
X0311802Y0184103D01*
X0312402Y0183503D01*
X0312402Y0182302D01*
X0311802Y0181701D01*
X0310000Y0181701D01*
X0311201Y0181701D02*
X0312402Y0180500D01*
X0313683Y0182302D02*
X0316085Y0182302D01*
X0315485Y0184103D02*
X0315485Y0180500D01*
X0313683Y0182302D02*
X0315485Y0184103D01*
X0315485Y0190500D02*
X0314284Y0190500D01*
X0313683Y0191101D01*
X0312402Y0190500D02*
X0311201Y0191701D01*
X0311802Y0191701D02*
X0310000Y0191701D01*
X0310000Y0190500D02*
X0310000Y0194103D01*
X0311802Y0194103D01*
X0312402Y0193503D01*
X0312402Y0192302D01*
X0311802Y0191701D01*
X0313683Y0193503D02*
X0314284Y0194103D01*
X0315485Y0194103D01*
X0316085Y0193503D01*
X0316085Y0192902D01*
X0315485Y0192302D01*
X0316085Y0191701D01*
X0316085Y0191101D01*
X0315485Y0190500D01*
X0315485Y0192302D02*
X0314884Y0192302D01*
X0313683Y0200500D02*
X0316085Y0202902D01*
X0316085Y0203503D01*
X0315485Y0204103D01*
X0314284Y0204103D01*
X0313683Y0203503D01*
X0312402Y0203503D02*
X0312402Y0202302D01*
X0311802Y0201701D01*
X0310000Y0201701D01*
X0310000Y0200500D02*
X0310000Y0204103D01*
X0311802Y0204103D01*
X0312402Y0203503D01*
X0311201Y0201701D02*
X0312402Y0200500D01*
X0313683Y0200500D02*
X0316085Y0200500D01*
X0316085Y0210500D02*
X0313683Y0210500D01*
X0314884Y0210500D02*
X0314884Y0214103D01*
X0313683Y0212902D01*
X0312402Y0212302D02*
X0311802Y0211701D01*
X0310000Y0211701D01*
X0310000Y0210500D02*
X0310000Y0214103D01*
X0311802Y0214103D01*
X0312402Y0213503D01*
X0312402Y0212302D01*
X0311201Y0211701D02*
X0312402Y0210500D01*
X0245639Y0164104D02*
X0244104Y0164104D01*
X0244871Y0164104D02*
X0244871Y0159500D01*
X0244104Y0159500D02*
X0245639Y0159500D01*
X0247173Y0159500D02*
X0247173Y0162569D01*
X0249475Y0162569D01*
X0250242Y0161802D01*
X0250242Y0159500D01*
X0242569Y0161802D02*
X0239500Y0161802D01*
X0241035Y0163337D02*
X0241035Y0160267D01*
X0241802Y0149104D02*
X0239500Y0149104D01*
X0239500Y0144500D01*
X0239500Y0146035D02*
X0241802Y0146035D01*
X0242569Y0146802D01*
X0242569Y0148337D01*
X0241802Y0149104D01*
X0244104Y0149104D02*
X0244104Y0144500D01*
X0245639Y0146035D01*
X0247173Y0144500D01*
X0247173Y0149104D01*
X0248708Y0149104D02*
X0250242Y0147569D01*
X0251777Y0149104D01*
X0251777Y0144500D01*
X0248708Y0144500D02*
X0248708Y0149104D01*
X0245960Y0131604D02*
X0245960Y0127000D01*
X0245193Y0127000D02*
X0246727Y0127000D01*
X0243658Y0127000D02*
X0242124Y0127000D01*
X0242891Y0127000D02*
X0242891Y0131604D01*
X0242124Y0131604D01*
X0239822Y0130069D02*
X0240589Y0129302D01*
X0240589Y0128535D01*
X0237520Y0128535D01*
X0237520Y0129302D02*
X0238287Y0130069D01*
X0239822Y0130069D01*
X0237520Y0129302D02*
X0237520Y0127767D01*
X0238287Y0127000D01*
X0239822Y0127000D01*
X0235985Y0127767D02*
X0235985Y0130069D01*
X0235985Y0127767D02*
X0235218Y0127000D01*
X0234450Y0127767D01*
X0233683Y0127000D01*
X0232916Y0127767D01*
X0232916Y0130069D01*
X0231381Y0129302D02*
X0231381Y0127000D01*
X0231381Y0129302D02*
X0230614Y0130069D01*
X0228312Y0130069D01*
X0228312Y0127000D01*
X0226777Y0127000D02*
X0224475Y0127000D01*
X0223708Y0127767D01*
X0224475Y0128535D01*
X0226777Y0128535D01*
X0226777Y0129302D02*
X0226777Y0127000D01*
X0226777Y0129302D02*
X0226010Y0130069D01*
X0224475Y0130069D01*
X0222173Y0129302D02*
X0222173Y0128535D01*
X0219104Y0128535D01*
X0219104Y0129302D02*
X0219871Y0130069D01*
X0221406Y0130069D01*
X0222173Y0129302D01*
X0221406Y0127000D02*
X0219871Y0127000D01*
X0219104Y0127767D01*
X0219104Y0129302D01*
X0217569Y0131604D02*
X0217569Y0127000D01*
X0214500Y0127000D02*
X0214500Y0131604D01*
X0216035Y0130069D01*
X0217569Y0131604D01*
X0219500Y0121604D02*
X0219500Y0117000D01*
X0222569Y0117000D01*
X0224104Y0117000D02*
X0226406Y0117000D01*
X0227173Y0117767D01*
X0227173Y0120837D01*
X0226406Y0121604D01*
X0224104Y0121604D01*
X0224104Y0117000D01*
X0228708Y0117000D02*
X0231010Y0117000D01*
X0231777Y0117767D01*
X0231777Y0120837D01*
X0231010Y0121604D01*
X0228708Y0121604D01*
X0228708Y0117000D01*
X0233312Y0119302D02*
X0236381Y0119302D01*
X0237916Y0119302D02*
X0240985Y0119302D01*
X0240985Y0121604D02*
X0240985Y0117000D01*
X0237916Y0117000D02*
X0237916Y0121604D01*
X0245193Y0131604D02*
X0245960Y0131604D01*
X0217742Y0159500D02*
X0217742Y0161802D01*
X0216975Y0162569D01*
X0214673Y0162569D01*
X0214673Y0159500D01*
X0213139Y0159500D02*
X0211604Y0159500D01*
X0212371Y0159500D02*
X0212371Y0164104D01*
X0211604Y0164104D02*
X0213139Y0164104D01*
X0210069Y0161802D02*
X0207000Y0161802D01*
X0165242Y0161802D02*
X0165242Y0159500D01*
X0165242Y0161802D02*
X0164475Y0162569D01*
X0162173Y0162569D01*
X0162173Y0159500D01*
X0160639Y0159500D02*
X0159104Y0159500D01*
X0159871Y0159500D02*
X0159871Y0164104D01*
X0159104Y0164104D02*
X0160639Y0164104D01*
X0157569Y0161802D02*
X0154500Y0161802D01*
X0156035Y0163337D02*
X0156035Y0160267D01*
X0156802Y0149104D02*
X0157569Y0148337D01*
X0157569Y0146802D01*
X0156802Y0146035D01*
X0154500Y0146035D01*
X0154500Y0144500D02*
X0154500Y0149104D01*
X0156802Y0149104D01*
X0159104Y0149104D02*
X0159104Y0144500D01*
X0160639Y0146035D01*
X0162173Y0144500D01*
X0162173Y0149104D01*
X0163708Y0149104D02*
X0165242Y0147569D01*
X0166777Y0149104D01*
X0166777Y0144500D01*
X0163708Y0144500D02*
X0163708Y0149104D01*
X0160960Y0131604D02*
X0160960Y0127000D01*
X0160193Y0127000D02*
X0161727Y0127000D01*
X0158658Y0127000D02*
X0157124Y0127000D01*
X0157891Y0127000D02*
X0157891Y0131604D01*
X0157124Y0131604D01*
X0155589Y0129302D02*
X0155589Y0128535D01*
X0152520Y0128535D01*
X0152520Y0129302D02*
X0153287Y0130069D01*
X0154822Y0130069D01*
X0155589Y0129302D01*
X0154822Y0127000D02*
X0153287Y0127000D01*
X0152520Y0127767D01*
X0152520Y0129302D01*
X0150985Y0130069D02*
X0150985Y0127767D01*
X0150218Y0127000D01*
X0149450Y0127767D01*
X0148683Y0127000D01*
X0147916Y0127767D01*
X0147916Y0130069D01*
X0146381Y0129302D02*
X0146381Y0127000D01*
X0146381Y0129302D02*
X0145614Y0130069D01*
X0143312Y0130069D01*
X0143312Y0127000D01*
X0141777Y0127000D02*
X0139475Y0127000D01*
X0138708Y0127767D01*
X0139475Y0128535D01*
X0141777Y0128535D01*
X0141777Y0129302D02*
X0141777Y0127000D01*
X0141777Y0129302D02*
X0141010Y0130069D01*
X0139475Y0130069D01*
X0137173Y0129302D02*
X0137173Y0128535D01*
X0134104Y0128535D01*
X0134104Y0129302D02*
X0134871Y0130069D01*
X0136406Y0130069D01*
X0137173Y0129302D01*
X0136406Y0127000D02*
X0134871Y0127000D01*
X0134104Y0127767D01*
X0134104Y0129302D01*
X0132569Y0131604D02*
X0132569Y0127000D01*
X0129500Y0127000D02*
X0129500Y0131604D01*
X0131035Y0130069D01*
X0132569Y0131604D01*
X0134500Y0121604D02*
X0134500Y0117000D01*
X0137569Y0117000D01*
X0139104Y0117000D02*
X0141406Y0117000D01*
X0142173Y0117767D01*
X0142173Y0120837D01*
X0141406Y0121604D01*
X0139104Y0121604D01*
X0139104Y0117000D01*
X0143708Y0117000D02*
X0143708Y0121604D01*
X0146010Y0121604D01*
X0146777Y0120837D01*
X0146777Y0117767D01*
X0146010Y0117000D01*
X0143708Y0117000D01*
X0148312Y0119302D02*
X0151381Y0119302D01*
X0152916Y0119302D02*
X0155985Y0119302D01*
X0155985Y0121604D02*
X0155985Y0117000D01*
X0152916Y0117000D02*
X0152916Y0121604D01*
X0160193Y0131604D02*
X0160960Y0131604D01*
X0132742Y0159500D02*
X0132742Y0161802D01*
X0131975Y0162569D01*
X0129673Y0162569D01*
X0129673Y0159500D01*
X0128139Y0159500D02*
X0126604Y0159500D01*
X0127371Y0159500D02*
X0127371Y0164104D01*
X0126604Y0164104D02*
X0128139Y0164104D01*
X0125069Y0161802D02*
X0122000Y0161802D01*
X0080242Y0161802D02*
X0080242Y0159500D01*
X0080242Y0161802D02*
X0079475Y0162569D01*
X0077173Y0162569D01*
X0077173Y0159500D01*
X0075639Y0159500D02*
X0074104Y0159500D01*
X0074871Y0159500D02*
X0074871Y0164104D01*
X0074104Y0164104D02*
X0075639Y0164104D01*
X0072569Y0161802D02*
X0069500Y0161802D01*
X0071035Y0163337D02*
X0071035Y0160267D01*
X0071802Y0149104D02*
X0069500Y0149104D01*
X0069500Y0144500D01*
X0069500Y0146035D02*
X0071802Y0146035D01*
X0072569Y0146802D01*
X0072569Y0148337D01*
X0071802Y0149104D01*
X0074104Y0149104D02*
X0074104Y0144500D01*
X0075639Y0146035D01*
X0077173Y0144500D01*
X0077173Y0149104D01*
X0078708Y0149104D02*
X0080242Y0147569D01*
X0081777Y0149104D01*
X0081777Y0144500D01*
X0078708Y0144500D02*
X0078708Y0149104D01*
X0075960Y0131604D02*
X0075193Y0131604D01*
X0075960Y0131604D02*
X0075960Y0127000D01*
X0075193Y0127000D02*
X0076727Y0127000D01*
X0073658Y0127000D02*
X0072124Y0127000D01*
X0072891Y0127000D02*
X0072891Y0131604D01*
X0072124Y0131604D01*
X0070589Y0129302D02*
X0070589Y0128535D01*
X0067520Y0128535D01*
X0067520Y0129302D02*
X0068287Y0130069D01*
X0069822Y0130069D01*
X0070589Y0129302D01*
X0069822Y0127000D02*
X0068287Y0127000D01*
X0067520Y0127767D01*
X0067520Y0129302D01*
X0065985Y0130069D02*
X0065985Y0127767D01*
X0065218Y0127000D01*
X0064450Y0127767D01*
X0063683Y0127000D01*
X0062916Y0127767D01*
X0062916Y0130069D01*
X0061381Y0129302D02*
X0061381Y0127000D01*
X0061381Y0129302D02*
X0060614Y0130069D01*
X0058312Y0130069D01*
X0058312Y0127000D01*
X0056777Y0127000D02*
X0056777Y0129302D01*
X0056010Y0130069D01*
X0054475Y0130069D01*
X0054475Y0128535D02*
X0056777Y0128535D01*
X0056777Y0127000D02*
X0054475Y0127000D01*
X0053708Y0127767D01*
X0054475Y0128535D01*
X0052173Y0128535D02*
X0049104Y0128535D01*
X0049104Y0129302D02*
X0049871Y0130069D01*
X0051406Y0130069D01*
X0052173Y0129302D01*
X0052173Y0128535D01*
X0051406Y0127000D02*
X0049871Y0127000D01*
X0049104Y0127767D01*
X0049104Y0129302D01*
X0047569Y0131604D02*
X0047569Y0127000D01*
X0044500Y0127000D02*
X0044500Y0131604D01*
X0046035Y0130069D01*
X0047569Y0131604D01*
X0049500Y0121604D02*
X0049500Y0117000D01*
X0052569Y0117000D01*
X0054104Y0117000D02*
X0056406Y0117000D01*
X0057173Y0117767D01*
X0057173Y0120837D01*
X0056406Y0121604D01*
X0054104Y0121604D01*
X0054104Y0117000D01*
X0058708Y0117000D02*
X0061010Y0117000D01*
X0061777Y0117767D01*
X0061777Y0120837D01*
X0061010Y0121604D01*
X0058708Y0121604D01*
X0058708Y0117000D01*
X0063312Y0119302D02*
X0066381Y0119302D01*
X0067916Y0119302D02*
X0070985Y0119302D01*
X0070985Y0121604D02*
X0070985Y0117000D01*
X0067916Y0117000D02*
X0067916Y0121604D01*
X0047742Y0159500D02*
X0047742Y0161802D01*
X0046975Y0162569D01*
X0044673Y0162569D01*
X0044673Y0159500D01*
X0043139Y0159500D02*
X0041604Y0159500D01*
X0042371Y0159500D02*
X0042371Y0164104D01*
X0041604Y0164104D02*
X0043139Y0164104D01*
X0040069Y0161802D02*
X0037000Y0161802D01*
X0042371Y0064104D02*
X0041604Y0063337D01*
X0041604Y0060267D01*
X0042371Y0059500D01*
X0043906Y0059500D01*
X0044673Y0060267D01*
X0044673Y0063337D01*
X0043906Y0064104D01*
X0042371Y0064104D01*
X0040069Y0061802D02*
X0037000Y0061802D01*
X0046208Y0062569D02*
X0046208Y0060267D01*
X0046975Y0059500D01*
X0049277Y0059500D01*
X0049277Y0062569D01*
X0050812Y0062569D02*
X0052346Y0062569D01*
X0051579Y0063337D02*
X0051579Y0060267D01*
X0052346Y0059500D01*
X0067000Y0061802D02*
X0070069Y0061802D01*
X0068535Y0063337D02*
X0068535Y0060267D01*
X0071604Y0060267D02*
X0072371Y0059500D01*
X0073906Y0059500D01*
X0074673Y0060267D01*
X0074673Y0063337D01*
X0073906Y0064104D01*
X0072371Y0064104D01*
X0071604Y0063337D01*
X0071604Y0060267D01*
X0076208Y0060267D02*
X0076975Y0059500D01*
X0079277Y0059500D01*
X0079277Y0062569D01*
X0080812Y0062569D02*
X0082346Y0062569D01*
X0081579Y0063337D02*
X0081579Y0060267D01*
X0082346Y0059500D01*
X0076208Y0060267D02*
X0076208Y0062569D01*
X0122000Y0061802D02*
X0125069Y0061802D01*
X0126604Y0063337D02*
X0126604Y0060267D01*
X0127371Y0059500D01*
X0128906Y0059500D01*
X0129673Y0060267D01*
X0129673Y0063337D01*
X0128906Y0064104D01*
X0127371Y0064104D01*
X0126604Y0063337D01*
X0131208Y0062569D02*
X0131208Y0060267D01*
X0131975Y0059500D01*
X0134277Y0059500D01*
X0134277Y0062569D01*
X0135812Y0062569D02*
X0137346Y0062569D01*
X0136579Y0063337D02*
X0136579Y0060267D01*
X0137346Y0059500D01*
X0152000Y0061802D02*
X0155069Y0061802D01*
X0153535Y0063337D02*
X0153535Y0060267D01*
X0156604Y0060267D02*
X0157371Y0059500D01*
X0158906Y0059500D01*
X0159673Y0060267D01*
X0159673Y0063337D01*
X0158906Y0064104D01*
X0157371Y0064104D01*
X0156604Y0063337D01*
X0156604Y0060267D01*
X0161208Y0060267D02*
X0161208Y0062569D01*
X0161208Y0060267D02*
X0161975Y0059500D01*
X0164277Y0059500D01*
X0164277Y0062569D01*
X0165812Y0062569D02*
X0167346Y0062569D01*
X0166579Y0063337D02*
X0166579Y0060267D01*
X0167346Y0059500D01*
X0169352Y0041604D02*
X0167050Y0039302D01*
X0170119Y0039302D01*
X0169352Y0037000D02*
X0169352Y0041604D01*
X0176257Y0039302D02*
X0176257Y0037767D01*
X0177025Y0037000D01*
X0179327Y0037000D01*
X0180861Y0037000D02*
X0180861Y0041604D01*
X0181629Y0040069D02*
X0183163Y0040069D01*
X0183931Y0039302D01*
X0183931Y0037000D01*
X0185465Y0037767D02*
X0186233Y0037000D01*
X0188535Y0037000D01*
X0188535Y0039302D01*
X0187767Y0040069D01*
X0186233Y0040069D01*
X0186233Y0038535D02*
X0188535Y0038535D01*
X0190069Y0040069D02*
X0190069Y0037000D01*
X0193139Y0037000D02*
X0193139Y0039302D01*
X0192371Y0040069D01*
X0190069Y0040069D01*
X0186233Y0038535D02*
X0185465Y0037767D01*
X0181629Y0040069D02*
X0180861Y0039302D01*
X0179327Y0040069D02*
X0177025Y0040069D01*
X0176257Y0039302D01*
X0172421Y0033337D02*
X0172421Y0030267D01*
X0173188Y0029500D01*
X0174723Y0030267D02*
X0175490Y0031035D01*
X0177792Y0031035D01*
X0177792Y0031802D02*
X0177792Y0029500D01*
X0175490Y0029500D01*
X0174723Y0030267D01*
X0175490Y0032569D02*
X0177025Y0032569D01*
X0177792Y0031802D01*
X0179327Y0032569D02*
X0181629Y0032569D01*
X0182396Y0031802D01*
X0182396Y0029500D01*
X0182780Y0027371D02*
X0182780Y0026604D01*
X0182780Y0025069D02*
X0182780Y0022000D01*
X0183547Y0022000D02*
X0182012Y0022000D01*
X0178176Y0022000D02*
X0178176Y0025069D01*
X0178176Y0023535D02*
X0179710Y0025069D01*
X0180478Y0025069D01*
X0182012Y0025069D02*
X0182780Y0025069D01*
X0185082Y0025069D02*
X0186616Y0022000D01*
X0188151Y0025069D01*
X0189686Y0024302D02*
X0190453Y0025069D01*
X0191988Y0025069D01*
X0192755Y0024302D01*
X0192755Y0023535D01*
X0189686Y0023535D01*
X0189686Y0024302D02*
X0189686Y0022767D01*
X0190453Y0022000D01*
X0191988Y0022000D01*
X0194289Y0022000D02*
X0194289Y0025069D01*
X0194289Y0023535D02*
X0195824Y0025069D01*
X0196591Y0025069D01*
X0196975Y0029500D02*
X0199277Y0029500D01*
X0199277Y0032569D01*
X0200812Y0032569D02*
X0200812Y0029500D01*
X0200812Y0031035D02*
X0202346Y0032569D01*
X0203114Y0032569D01*
X0204648Y0032569D02*
X0204648Y0029500D01*
X0204648Y0031035D02*
X0206183Y0032569D01*
X0206950Y0032569D01*
X0208485Y0031802D02*
X0208485Y0030267D01*
X0209252Y0029500D01*
X0210787Y0029500D01*
X0211554Y0031035D02*
X0208485Y0031035D01*
X0208485Y0031802D02*
X0209252Y0032569D01*
X0210787Y0032569D01*
X0211554Y0031802D01*
X0211554Y0031035D01*
X0213089Y0029500D02*
X0213089Y0032569D01*
X0215391Y0032569D01*
X0216158Y0031802D01*
X0216158Y0029500D01*
X0218460Y0030267D02*
X0219227Y0029500D01*
X0218460Y0030267D02*
X0218460Y0033337D01*
X0217693Y0032569D02*
X0219227Y0032569D01*
X0216542Y0026604D02*
X0215007Y0026604D01*
X0214240Y0025837D01*
X0214240Y0022767D01*
X0217309Y0025837D01*
X0217309Y0022767D01*
X0216542Y0022000D01*
X0215007Y0022000D01*
X0214240Y0022767D01*
X0212705Y0022767D02*
X0212705Y0022000D01*
X0211938Y0022000D01*
X0211938Y0022767D01*
X0212705Y0022767D01*
X0210403Y0022000D02*
X0207334Y0022000D01*
X0208869Y0022000D02*
X0208869Y0026604D01*
X0207334Y0025069D01*
X0205799Y0025069D02*
X0204265Y0022000D01*
X0202730Y0025069D01*
X0196975Y0029500D02*
X0196208Y0030267D01*
X0196208Y0032569D01*
X0194673Y0032569D02*
X0192371Y0032569D01*
X0191604Y0031802D01*
X0191604Y0030267D01*
X0192371Y0029500D01*
X0194673Y0029500D01*
X0194673Y0037000D02*
X0194673Y0040069D01*
X0196975Y0040069D01*
X0197742Y0039302D01*
X0197742Y0037000D01*
X0199277Y0037767D02*
X0200044Y0037000D01*
X0201579Y0037000D01*
X0202346Y0038535D02*
X0199277Y0038535D01*
X0199277Y0039302D02*
X0200044Y0040069D01*
X0201579Y0040069D01*
X0202346Y0039302D01*
X0202346Y0038535D01*
X0203881Y0037000D02*
X0205416Y0037000D01*
X0204648Y0037000D02*
X0204648Y0041604D01*
X0203881Y0041604D01*
X0199277Y0039302D02*
X0199277Y0037767D01*
X0185465Y0032569D02*
X0183931Y0032569D01*
X0184698Y0033337D02*
X0184698Y0030267D01*
X0185465Y0029500D01*
X0179327Y0029500D02*
X0179327Y0032569D01*
X0173188Y0032569D02*
X0171654Y0032569D01*
X0170119Y0032569D02*
X0167817Y0032569D01*
X0167050Y0031802D01*
X0167817Y0031035D01*
X0169352Y0031035D01*
X0170119Y0030267D01*
X0169352Y0029500D01*
X0167050Y0029500D01*
X0165515Y0029500D02*
X0165515Y0031802D01*
X0164748Y0032569D01*
X0162446Y0032569D01*
X0162446Y0029500D01*
X0160911Y0030267D02*
X0160911Y0031802D01*
X0160144Y0032569D01*
X0158609Y0032569D01*
X0157842Y0031802D01*
X0157842Y0030267D01*
X0158609Y0029500D01*
X0160144Y0029500D01*
X0160911Y0030267D01*
X0159760Y0026604D02*
X0159760Y0022000D01*
X0162829Y0022000D01*
X0164364Y0022000D02*
X0166666Y0022000D01*
X0167433Y0022767D01*
X0167433Y0025837D01*
X0166666Y0026604D01*
X0164364Y0026604D01*
X0164364Y0022000D01*
X0161295Y0024302D02*
X0159760Y0024302D01*
X0158225Y0022000D02*
X0155156Y0022000D01*
X0155156Y0026604D01*
X0154005Y0029500D02*
X0156307Y0029500D01*
X0154005Y0029500D02*
X0153238Y0030267D01*
X0153238Y0031802D01*
X0154005Y0032569D01*
X0156307Y0032569D01*
X0159760Y0026604D02*
X0162829Y0026604D01*
X0173572Y0024302D02*
X0174339Y0025069D01*
X0176641Y0025069D01*
X0176641Y0026604D02*
X0176641Y0022000D01*
X0174339Y0022000D01*
X0173572Y0022767D01*
X0173572Y0024302D01*
X0216542Y0026604D02*
X0217309Y0025837D01*
X0216975Y0059500D02*
X0219277Y0059500D01*
X0219277Y0062569D01*
X0220812Y0062569D02*
X0222346Y0062569D01*
X0221579Y0063337D02*
X0221579Y0060267D01*
X0222346Y0059500D01*
X0216975Y0059500D02*
X0216208Y0060267D01*
X0216208Y0062569D01*
X0214673Y0063337D02*
X0214673Y0060267D01*
X0213906Y0059500D01*
X0212371Y0059500D01*
X0211604Y0060267D01*
X0211604Y0063337D01*
X0212371Y0064104D01*
X0213906Y0064104D01*
X0214673Y0063337D01*
X0210069Y0061802D02*
X0207000Y0061802D01*
X0237000Y0061802D02*
X0240069Y0061802D01*
X0238535Y0063337D02*
X0238535Y0060267D01*
X0241604Y0060267D02*
X0242371Y0059500D01*
X0243906Y0059500D01*
X0244673Y0060267D01*
X0244673Y0063337D01*
X0243906Y0064104D01*
X0242371Y0064104D01*
X0241604Y0063337D01*
X0241604Y0060267D01*
X0246208Y0060267D02*
X0246975Y0059500D01*
X0249277Y0059500D01*
X0249277Y0062569D01*
X0250812Y0062569D02*
X0252346Y0062569D01*
X0251579Y0063337D02*
X0251579Y0060267D01*
X0252346Y0059500D01*
X0246208Y0060267D02*
X0246208Y0062569D01*
X0292000Y0061802D02*
X0295069Y0061802D01*
X0296604Y0063337D02*
X0296604Y0060267D01*
X0297371Y0059500D01*
X0298906Y0059500D01*
X0299673Y0060267D01*
X0299673Y0063337D01*
X0298906Y0064104D01*
X0297371Y0064104D01*
X0296604Y0063337D01*
X0301208Y0062569D02*
X0301208Y0060267D01*
X0301975Y0059500D01*
X0304277Y0059500D01*
X0304277Y0062569D01*
X0305812Y0062569D02*
X0307346Y0062569D01*
X0306579Y0063337D02*
X0306579Y0060267D01*
X0307346Y0059500D01*
X0322000Y0061802D02*
X0325069Y0061802D01*
X0323535Y0063337D02*
X0323535Y0060267D01*
X0326604Y0060267D02*
X0327371Y0059500D01*
X0328906Y0059500D01*
X0329673Y0060267D01*
X0329673Y0063337D01*
X0328906Y0064104D01*
X0327371Y0064104D01*
X0326604Y0063337D01*
X0326604Y0060267D01*
X0331208Y0060267D02*
X0331975Y0059500D01*
X0334277Y0059500D01*
X0334277Y0062569D01*
X0335812Y0062569D02*
X0337346Y0062569D01*
X0336579Y0063337D02*
X0336579Y0060267D01*
X0337346Y0059500D01*
X0331208Y0060267D02*
X0331208Y0062569D01*
D13*
X0314300Y0039300D02*
X0314300Y0038300D01*
X0314300Y0012300D01*
X0307800Y0012300D01*
X0314300Y0012300D02*
X0314300Y0002800D01*
X0274300Y0002800D01*
X0274300Y0012300D01*
X0280800Y0012300D01*
X0274300Y0012300D02*
X0274300Y0038300D01*
X0274300Y0039300D01*
X0314300Y0039300D01*
X0314300Y0038300D02*
X0274300Y0038300D01*
X0269300Y0038300D02*
X0269300Y0039300D01*
X0229300Y0039300D01*
X0229300Y0038300D01*
X0229300Y0012300D01*
X0229300Y0002800D01*
X0269300Y0002800D01*
X0269300Y0012300D01*
X0269300Y0038300D01*
X0229300Y0038300D01*
X0237300Y0033000D02*
X0237302Y0033089D01*
X0237308Y0033178D01*
X0237318Y0033267D01*
X0237332Y0033355D01*
X0237349Y0033442D01*
X0237371Y0033528D01*
X0237397Y0033614D01*
X0237426Y0033698D01*
X0237459Y0033781D01*
X0237495Y0033862D01*
X0237536Y0033942D01*
X0237579Y0034019D01*
X0237626Y0034095D01*
X0237677Y0034168D01*
X0237730Y0034239D01*
X0237787Y0034308D01*
X0237847Y0034374D01*
X0237910Y0034438D01*
X0237975Y0034498D01*
X0238043Y0034556D01*
X0238114Y0034610D01*
X0238187Y0034661D01*
X0238262Y0034709D01*
X0238339Y0034754D01*
X0238418Y0034795D01*
X0238499Y0034832D01*
X0238581Y0034866D01*
X0238665Y0034897D01*
X0238750Y0034923D01*
X0238836Y0034946D01*
X0238923Y0034964D01*
X0239011Y0034979D01*
X0239100Y0034990D01*
X0239189Y0034997D01*
X0239278Y0035000D01*
X0239367Y0034999D01*
X0239456Y0034994D01*
X0239544Y0034985D01*
X0239633Y0034972D01*
X0239720Y0034955D01*
X0239807Y0034935D01*
X0239893Y0034910D01*
X0239977Y0034882D01*
X0240060Y0034850D01*
X0240142Y0034814D01*
X0240222Y0034775D01*
X0240300Y0034732D01*
X0240376Y0034686D01*
X0240450Y0034636D01*
X0240522Y0034583D01*
X0240591Y0034527D01*
X0240658Y0034468D01*
X0240722Y0034406D01*
X0240783Y0034342D01*
X0240842Y0034274D01*
X0240897Y0034204D01*
X0240949Y0034132D01*
X0240998Y0034057D01*
X0241043Y0033981D01*
X0241085Y0033902D01*
X0241123Y0033822D01*
X0241158Y0033740D01*
X0241189Y0033656D01*
X0241217Y0033571D01*
X0241240Y0033485D01*
X0241260Y0033398D01*
X0241276Y0033311D01*
X0241288Y0033222D01*
X0241296Y0033134D01*
X0241300Y0033045D01*
X0241300Y0032955D01*
X0241296Y0032866D01*
X0241288Y0032778D01*
X0241276Y0032689D01*
X0241260Y0032602D01*
X0241240Y0032515D01*
X0241217Y0032429D01*
X0241189Y0032344D01*
X0241158Y0032260D01*
X0241123Y0032178D01*
X0241085Y0032098D01*
X0241043Y0032019D01*
X0240998Y0031943D01*
X0240949Y0031868D01*
X0240897Y0031796D01*
X0240842Y0031726D01*
X0240783Y0031658D01*
X0240722Y0031594D01*
X0240658Y0031532D01*
X0240591Y0031473D01*
X0240522Y0031417D01*
X0240450Y0031364D01*
X0240376Y0031314D01*
X0240300Y0031268D01*
X0240222Y0031225D01*
X0240142Y0031186D01*
X0240060Y0031150D01*
X0239977Y0031118D01*
X0239893Y0031090D01*
X0239807Y0031065D01*
X0239720Y0031045D01*
X0239633Y0031028D01*
X0239544Y0031015D01*
X0239456Y0031006D01*
X0239367Y0031001D01*
X0239278Y0031000D01*
X0239189Y0031003D01*
X0239100Y0031010D01*
X0239011Y0031021D01*
X0238923Y0031036D01*
X0238836Y0031054D01*
X0238750Y0031077D01*
X0238665Y0031103D01*
X0238581Y0031134D01*
X0238499Y0031168D01*
X0238418Y0031205D01*
X0238339Y0031246D01*
X0238262Y0031291D01*
X0238187Y0031339D01*
X0238114Y0031390D01*
X0238043Y0031444D01*
X0237975Y0031502D01*
X0237910Y0031562D01*
X0237847Y0031626D01*
X0237787Y0031692D01*
X0237730Y0031761D01*
X0237677Y0031832D01*
X0237626Y0031905D01*
X0237579Y0031981D01*
X0237536Y0032058D01*
X0237495Y0032138D01*
X0237459Y0032219D01*
X0237426Y0032302D01*
X0237397Y0032386D01*
X0237371Y0032472D01*
X0237349Y0032558D01*
X0237332Y0032645D01*
X0237318Y0032733D01*
X0237308Y0032822D01*
X0237302Y0032911D01*
X0237300Y0033000D01*
X0257300Y0033000D02*
X0257302Y0033089D01*
X0257308Y0033178D01*
X0257318Y0033267D01*
X0257332Y0033355D01*
X0257349Y0033442D01*
X0257371Y0033528D01*
X0257397Y0033614D01*
X0257426Y0033698D01*
X0257459Y0033781D01*
X0257495Y0033862D01*
X0257536Y0033942D01*
X0257579Y0034019D01*
X0257626Y0034095D01*
X0257677Y0034168D01*
X0257730Y0034239D01*
X0257787Y0034308D01*
X0257847Y0034374D01*
X0257910Y0034438D01*
X0257975Y0034498D01*
X0258043Y0034556D01*
X0258114Y0034610D01*
X0258187Y0034661D01*
X0258262Y0034709D01*
X0258339Y0034754D01*
X0258418Y0034795D01*
X0258499Y0034832D01*
X0258581Y0034866D01*
X0258665Y0034897D01*
X0258750Y0034923D01*
X0258836Y0034946D01*
X0258923Y0034964D01*
X0259011Y0034979D01*
X0259100Y0034990D01*
X0259189Y0034997D01*
X0259278Y0035000D01*
X0259367Y0034999D01*
X0259456Y0034994D01*
X0259544Y0034985D01*
X0259633Y0034972D01*
X0259720Y0034955D01*
X0259807Y0034935D01*
X0259893Y0034910D01*
X0259977Y0034882D01*
X0260060Y0034850D01*
X0260142Y0034814D01*
X0260222Y0034775D01*
X0260300Y0034732D01*
X0260376Y0034686D01*
X0260450Y0034636D01*
X0260522Y0034583D01*
X0260591Y0034527D01*
X0260658Y0034468D01*
X0260722Y0034406D01*
X0260783Y0034342D01*
X0260842Y0034274D01*
X0260897Y0034204D01*
X0260949Y0034132D01*
X0260998Y0034057D01*
X0261043Y0033981D01*
X0261085Y0033902D01*
X0261123Y0033822D01*
X0261158Y0033740D01*
X0261189Y0033656D01*
X0261217Y0033571D01*
X0261240Y0033485D01*
X0261260Y0033398D01*
X0261276Y0033311D01*
X0261288Y0033222D01*
X0261296Y0033134D01*
X0261300Y0033045D01*
X0261300Y0032955D01*
X0261296Y0032866D01*
X0261288Y0032778D01*
X0261276Y0032689D01*
X0261260Y0032602D01*
X0261240Y0032515D01*
X0261217Y0032429D01*
X0261189Y0032344D01*
X0261158Y0032260D01*
X0261123Y0032178D01*
X0261085Y0032098D01*
X0261043Y0032019D01*
X0260998Y0031943D01*
X0260949Y0031868D01*
X0260897Y0031796D01*
X0260842Y0031726D01*
X0260783Y0031658D01*
X0260722Y0031594D01*
X0260658Y0031532D01*
X0260591Y0031473D01*
X0260522Y0031417D01*
X0260450Y0031364D01*
X0260376Y0031314D01*
X0260300Y0031268D01*
X0260222Y0031225D01*
X0260142Y0031186D01*
X0260060Y0031150D01*
X0259977Y0031118D01*
X0259893Y0031090D01*
X0259807Y0031065D01*
X0259720Y0031045D01*
X0259633Y0031028D01*
X0259544Y0031015D01*
X0259456Y0031006D01*
X0259367Y0031001D01*
X0259278Y0031000D01*
X0259189Y0031003D01*
X0259100Y0031010D01*
X0259011Y0031021D01*
X0258923Y0031036D01*
X0258836Y0031054D01*
X0258750Y0031077D01*
X0258665Y0031103D01*
X0258581Y0031134D01*
X0258499Y0031168D01*
X0258418Y0031205D01*
X0258339Y0031246D01*
X0258262Y0031291D01*
X0258187Y0031339D01*
X0258114Y0031390D01*
X0258043Y0031444D01*
X0257975Y0031502D01*
X0257910Y0031562D01*
X0257847Y0031626D01*
X0257787Y0031692D01*
X0257730Y0031761D01*
X0257677Y0031832D01*
X0257626Y0031905D01*
X0257579Y0031981D01*
X0257536Y0032058D01*
X0257495Y0032138D01*
X0257459Y0032219D01*
X0257426Y0032302D01*
X0257397Y0032386D01*
X0257371Y0032472D01*
X0257349Y0032558D01*
X0257332Y0032645D01*
X0257318Y0032733D01*
X0257308Y0032822D01*
X0257302Y0032911D01*
X0257300Y0033000D01*
X0282300Y0033000D02*
X0282302Y0033089D01*
X0282308Y0033178D01*
X0282318Y0033267D01*
X0282332Y0033355D01*
X0282349Y0033442D01*
X0282371Y0033528D01*
X0282397Y0033614D01*
X0282426Y0033698D01*
X0282459Y0033781D01*
X0282495Y0033862D01*
X0282536Y0033942D01*
X0282579Y0034019D01*
X0282626Y0034095D01*
X0282677Y0034168D01*
X0282730Y0034239D01*
X0282787Y0034308D01*
X0282847Y0034374D01*
X0282910Y0034438D01*
X0282975Y0034498D01*
X0283043Y0034556D01*
X0283114Y0034610D01*
X0283187Y0034661D01*
X0283262Y0034709D01*
X0283339Y0034754D01*
X0283418Y0034795D01*
X0283499Y0034832D01*
X0283581Y0034866D01*
X0283665Y0034897D01*
X0283750Y0034923D01*
X0283836Y0034946D01*
X0283923Y0034964D01*
X0284011Y0034979D01*
X0284100Y0034990D01*
X0284189Y0034997D01*
X0284278Y0035000D01*
X0284367Y0034999D01*
X0284456Y0034994D01*
X0284544Y0034985D01*
X0284633Y0034972D01*
X0284720Y0034955D01*
X0284807Y0034935D01*
X0284893Y0034910D01*
X0284977Y0034882D01*
X0285060Y0034850D01*
X0285142Y0034814D01*
X0285222Y0034775D01*
X0285300Y0034732D01*
X0285376Y0034686D01*
X0285450Y0034636D01*
X0285522Y0034583D01*
X0285591Y0034527D01*
X0285658Y0034468D01*
X0285722Y0034406D01*
X0285783Y0034342D01*
X0285842Y0034274D01*
X0285897Y0034204D01*
X0285949Y0034132D01*
X0285998Y0034057D01*
X0286043Y0033981D01*
X0286085Y0033902D01*
X0286123Y0033822D01*
X0286158Y0033740D01*
X0286189Y0033656D01*
X0286217Y0033571D01*
X0286240Y0033485D01*
X0286260Y0033398D01*
X0286276Y0033311D01*
X0286288Y0033222D01*
X0286296Y0033134D01*
X0286300Y0033045D01*
X0286300Y0032955D01*
X0286296Y0032866D01*
X0286288Y0032778D01*
X0286276Y0032689D01*
X0286260Y0032602D01*
X0286240Y0032515D01*
X0286217Y0032429D01*
X0286189Y0032344D01*
X0286158Y0032260D01*
X0286123Y0032178D01*
X0286085Y0032098D01*
X0286043Y0032019D01*
X0285998Y0031943D01*
X0285949Y0031868D01*
X0285897Y0031796D01*
X0285842Y0031726D01*
X0285783Y0031658D01*
X0285722Y0031594D01*
X0285658Y0031532D01*
X0285591Y0031473D01*
X0285522Y0031417D01*
X0285450Y0031364D01*
X0285376Y0031314D01*
X0285300Y0031268D01*
X0285222Y0031225D01*
X0285142Y0031186D01*
X0285060Y0031150D01*
X0284977Y0031118D01*
X0284893Y0031090D01*
X0284807Y0031065D01*
X0284720Y0031045D01*
X0284633Y0031028D01*
X0284544Y0031015D01*
X0284456Y0031006D01*
X0284367Y0031001D01*
X0284278Y0031000D01*
X0284189Y0031003D01*
X0284100Y0031010D01*
X0284011Y0031021D01*
X0283923Y0031036D01*
X0283836Y0031054D01*
X0283750Y0031077D01*
X0283665Y0031103D01*
X0283581Y0031134D01*
X0283499Y0031168D01*
X0283418Y0031205D01*
X0283339Y0031246D01*
X0283262Y0031291D01*
X0283187Y0031339D01*
X0283114Y0031390D01*
X0283043Y0031444D01*
X0282975Y0031502D01*
X0282910Y0031562D01*
X0282847Y0031626D01*
X0282787Y0031692D01*
X0282730Y0031761D01*
X0282677Y0031832D01*
X0282626Y0031905D01*
X0282579Y0031981D01*
X0282536Y0032058D01*
X0282495Y0032138D01*
X0282459Y0032219D01*
X0282426Y0032302D01*
X0282397Y0032386D01*
X0282371Y0032472D01*
X0282349Y0032558D01*
X0282332Y0032645D01*
X0282318Y0032733D01*
X0282308Y0032822D01*
X0282302Y0032911D01*
X0282300Y0033000D01*
X0302300Y0033000D02*
X0302302Y0033089D01*
X0302308Y0033178D01*
X0302318Y0033267D01*
X0302332Y0033355D01*
X0302349Y0033442D01*
X0302371Y0033528D01*
X0302397Y0033614D01*
X0302426Y0033698D01*
X0302459Y0033781D01*
X0302495Y0033862D01*
X0302536Y0033942D01*
X0302579Y0034019D01*
X0302626Y0034095D01*
X0302677Y0034168D01*
X0302730Y0034239D01*
X0302787Y0034308D01*
X0302847Y0034374D01*
X0302910Y0034438D01*
X0302975Y0034498D01*
X0303043Y0034556D01*
X0303114Y0034610D01*
X0303187Y0034661D01*
X0303262Y0034709D01*
X0303339Y0034754D01*
X0303418Y0034795D01*
X0303499Y0034832D01*
X0303581Y0034866D01*
X0303665Y0034897D01*
X0303750Y0034923D01*
X0303836Y0034946D01*
X0303923Y0034964D01*
X0304011Y0034979D01*
X0304100Y0034990D01*
X0304189Y0034997D01*
X0304278Y0035000D01*
X0304367Y0034999D01*
X0304456Y0034994D01*
X0304544Y0034985D01*
X0304633Y0034972D01*
X0304720Y0034955D01*
X0304807Y0034935D01*
X0304893Y0034910D01*
X0304977Y0034882D01*
X0305060Y0034850D01*
X0305142Y0034814D01*
X0305222Y0034775D01*
X0305300Y0034732D01*
X0305376Y0034686D01*
X0305450Y0034636D01*
X0305522Y0034583D01*
X0305591Y0034527D01*
X0305658Y0034468D01*
X0305722Y0034406D01*
X0305783Y0034342D01*
X0305842Y0034274D01*
X0305897Y0034204D01*
X0305949Y0034132D01*
X0305998Y0034057D01*
X0306043Y0033981D01*
X0306085Y0033902D01*
X0306123Y0033822D01*
X0306158Y0033740D01*
X0306189Y0033656D01*
X0306217Y0033571D01*
X0306240Y0033485D01*
X0306260Y0033398D01*
X0306276Y0033311D01*
X0306288Y0033222D01*
X0306296Y0033134D01*
X0306300Y0033045D01*
X0306300Y0032955D01*
X0306296Y0032866D01*
X0306288Y0032778D01*
X0306276Y0032689D01*
X0306260Y0032602D01*
X0306240Y0032515D01*
X0306217Y0032429D01*
X0306189Y0032344D01*
X0306158Y0032260D01*
X0306123Y0032178D01*
X0306085Y0032098D01*
X0306043Y0032019D01*
X0305998Y0031943D01*
X0305949Y0031868D01*
X0305897Y0031796D01*
X0305842Y0031726D01*
X0305783Y0031658D01*
X0305722Y0031594D01*
X0305658Y0031532D01*
X0305591Y0031473D01*
X0305522Y0031417D01*
X0305450Y0031364D01*
X0305376Y0031314D01*
X0305300Y0031268D01*
X0305222Y0031225D01*
X0305142Y0031186D01*
X0305060Y0031150D01*
X0304977Y0031118D01*
X0304893Y0031090D01*
X0304807Y0031065D01*
X0304720Y0031045D01*
X0304633Y0031028D01*
X0304544Y0031015D01*
X0304456Y0031006D01*
X0304367Y0031001D01*
X0304278Y0031000D01*
X0304189Y0031003D01*
X0304100Y0031010D01*
X0304011Y0031021D01*
X0303923Y0031036D01*
X0303836Y0031054D01*
X0303750Y0031077D01*
X0303665Y0031103D01*
X0303581Y0031134D01*
X0303499Y0031168D01*
X0303418Y0031205D01*
X0303339Y0031246D01*
X0303262Y0031291D01*
X0303187Y0031339D01*
X0303114Y0031390D01*
X0303043Y0031444D01*
X0302975Y0031502D01*
X0302910Y0031562D01*
X0302847Y0031626D01*
X0302787Y0031692D01*
X0302730Y0031761D01*
X0302677Y0031832D01*
X0302626Y0031905D01*
X0302579Y0031981D01*
X0302536Y0032058D01*
X0302495Y0032138D01*
X0302459Y0032219D01*
X0302426Y0032302D01*
X0302397Y0032386D01*
X0302371Y0032472D01*
X0302349Y0032558D01*
X0302332Y0032645D01*
X0302318Y0032733D01*
X0302308Y0032822D01*
X0302302Y0032911D01*
X0302300Y0033000D01*
X0300800Y0012300D02*
X0287800Y0012300D01*
X0269300Y0012300D02*
X0262800Y0012300D01*
X0255800Y0012300D02*
X0242800Y0012300D01*
X0235800Y0012300D02*
X0229300Y0012300D01*
X0144300Y0012300D02*
X0144300Y0002800D01*
X0104300Y0002800D01*
X0104300Y0012300D01*
X0110800Y0012300D01*
X0104300Y0012300D02*
X0104300Y0038300D01*
X0104300Y0039300D01*
X0144300Y0039300D01*
X0144300Y0038300D01*
X0144300Y0012300D01*
X0137800Y0012300D01*
X0130800Y0012300D02*
X0117800Y0012300D01*
X0099300Y0012300D02*
X0099300Y0002800D01*
X0059300Y0002800D01*
X0059300Y0012300D01*
X0065800Y0012300D01*
X0059300Y0012300D02*
X0059300Y0038300D01*
X0059300Y0039300D01*
X0099300Y0039300D01*
X0099300Y0038300D01*
X0099300Y0012300D01*
X0092800Y0012300D01*
X0085800Y0012300D02*
X0072800Y0012300D01*
X0067300Y0033000D02*
X0067302Y0033089D01*
X0067308Y0033178D01*
X0067318Y0033267D01*
X0067332Y0033355D01*
X0067349Y0033442D01*
X0067371Y0033528D01*
X0067397Y0033614D01*
X0067426Y0033698D01*
X0067459Y0033781D01*
X0067495Y0033862D01*
X0067536Y0033942D01*
X0067579Y0034019D01*
X0067626Y0034095D01*
X0067677Y0034168D01*
X0067730Y0034239D01*
X0067787Y0034308D01*
X0067847Y0034374D01*
X0067910Y0034438D01*
X0067975Y0034498D01*
X0068043Y0034556D01*
X0068114Y0034610D01*
X0068187Y0034661D01*
X0068262Y0034709D01*
X0068339Y0034754D01*
X0068418Y0034795D01*
X0068499Y0034832D01*
X0068581Y0034866D01*
X0068665Y0034897D01*
X0068750Y0034923D01*
X0068836Y0034946D01*
X0068923Y0034964D01*
X0069011Y0034979D01*
X0069100Y0034990D01*
X0069189Y0034997D01*
X0069278Y0035000D01*
X0069367Y0034999D01*
X0069456Y0034994D01*
X0069544Y0034985D01*
X0069633Y0034972D01*
X0069720Y0034955D01*
X0069807Y0034935D01*
X0069893Y0034910D01*
X0069977Y0034882D01*
X0070060Y0034850D01*
X0070142Y0034814D01*
X0070222Y0034775D01*
X0070300Y0034732D01*
X0070376Y0034686D01*
X0070450Y0034636D01*
X0070522Y0034583D01*
X0070591Y0034527D01*
X0070658Y0034468D01*
X0070722Y0034406D01*
X0070783Y0034342D01*
X0070842Y0034274D01*
X0070897Y0034204D01*
X0070949Y0034132D01*
X0070998Y0034057D01*
X0071043Y0033981D01*
X0071085Y0033902D01*
X0071123Y0033822D01*
X0071158Y0033740D01*
X0071189Y0033656D01*
X0071217Y0033571D01*
X0071240Y0033485D01*
X0071260Y0033398D01*
X0071276Y0033311D01*
X0071288Y0033222D01*
X0071296Y0033134D01*
X0071300Y0033045D01*
X0071300Y0032955D01*
X0071296Y0032866D01*
X0071288Y0032778D01*
X0071276Y0032689D01*
X0071260Y0032602D01*
X0071240Y0032515D01*
X0071217Y0032429D01*
X0071189Y0032344D01*
X0071158Y0032260D01*
X0071123Y0032178D01*
X0071085Y0032098D01*
X0071043Y0032019D01*
X0070998Y0031943D01*
X0070949Y0031868D01*
X0070897Y0031796D01*
X0070842Y0031726D01*
X0070783Y0031658D01*
X0070722Y0031594D01*
X0070658Y0031532D01*
X0070591Y0031473D01*
X0070522Y0031417D01*
X0070450Y0031364D01*
X0070376Y0031314D01*
X0070300Y0031268D01*
X0070222Y0031225D01*
X0070142Y0031186D01*
X0070060Y0031150D01*
X0069977Y0031118D01*
X0069893Y0031090D01*
X0069807Y0031065D01*
X0069720Y0031045D01*
X0069633Y0031028D01*
X0069544Y0031015D01*
X0069456Y0031006D01*
X0069367Y0031001D01*
X0069278Y0031000D01*
X0069189Y0031003D01*
X0069100Y0031010D01*
X0069011Y0031021D01*
X0068923Y0031036D01*
X0068836Y0031054D01*
X0068750Y0031077D01*
X0068665Y0031103D01*
X0068581Y0031134D01*
X0068499Y0031168D01*
X0068418Y0031205D01*
X0068339Y0031246D01*
X0068262Y0031291D01*
X0068187Y0031339D01*
X0068114Y0031390D01*
X0068043Y0031444D01*
X0067975Y0031502D01*
X0067910Y0031562D01*
X0067847Y0031626D01*
X0067787Y0031692D01*
X0067730Y0031761D01*
X0067677Y0031832D01*
X0067626Y0031905D01*
X0067579Y0031981D01*
X0067536Y0032058D01*
X0067495Y0032138D01*
X0067459Y0032219D01*
X0067426Y0032302D01*
X0067397Y0032386D01*
X0067371Y0032472D01*
X0067349Y0032558D01*
X0067332Y0032645D01*
X0067318Y0032733D01*
X0067308Y0032822D01*
X0067302Y0032911D01*
X0067300Y0033000D01*
X0059300Y0038300D02*
X0099300Y0038300D01*
X0104300Y0038300D02*
X0144300Y0038300D01*
X0132300Y0033000D02*
X0132302Y0033089D01*
X0132308Y0033178D01*
X0132318Y0033267D01*
X0132332Y0033355D01*
X0132349Y0033442D01*
X0132371Y0033528D01*
X0132397Y0033614D01*
X0132426Y0033698D01*
X0132459Y0033781D01*
X0132495Y0033862D01*
X0132536Y0033942D01*
X0132579Y0034019D01*
X0132626Y0034095D01*
X0132677Y0034168D01*
X0132730Y0034239D01*
X0132787Y0034308D01*
X0132847Y0034374D01*
X0132910Y0034438D01*
X0132975Y0034498D01*
X0133043Y0034556D01*
X0133114Y0034610D01*
X0133187Y0034661D01*
X0133262Y0034709D01*
X0133339Y0034754D01*
X0133418Y0034795D01*
X0133499Y0034832D01*
X0133581Y0034866D01*
X0133665Y0034897D01*
X0133750Y0034923D01*
X0133836Y0034946D01*
X0133923Y0034964D01*
X0134011Y0034979D01*
X0134100Y0034990D01*
X0134189Y0034997D01*
X0134278Y0035000D01*
X0134367Y0034999D01*
X0134456Y0034994D01*
X0134544Y0034985D01*
X0134633Y0034972D01*
X0134720Y0034955D01*
X0134807Y0034935D01*
X0134893Y0034910D01*
X0134977Y0034882D01*
X0135060Y0034850D01*
X0135142Y0034814D01*
X0135222Y0034775D01*
X0135300Y0034732D01*
X0135376Y0034686D01*
X0135450Y0034636D01*
X0135522Y0034583D01*
X0135591Y0034527D01*
X0135658Y0034468D01*
X0135722Y0034406D01*
X0135783Y0034342D01*
X0135842Y0034274D01*
X0135897Y0034204D01*
X0135949Y0034132D01*
X0135998Y0034057D01*
X0136043Y0033981D01*
X0136085Y0033902D01*
X0136123Y0033822D01*
X0136158Y0033740D01*
X0136189Y0033656D01*
X0136217Y0033571D01*
X0136240Y0033485D01*
X0136260Y0033398D01*
X0136276Y0033311D01*
X0136288Y0033222D01*
X0136296Y0033134D01*
X0136300Y0033045D01*
X0136300Y0032955D01*
X0136296Y0032866D01*
X0136288Y0032778D01*
X0136276Y0032689D01*
X0136260Y0032602D01*
X0136240Y0032515D01*
X0136217Y0032429D01*
X0136189Y0032344D01*
X0136158Y0032260D01*
X0136123Y0032178D01*
X0136085Y0032098D01*
X0136043Y0032019D01*
X0135998Y0031943D01*
X0135949Y0031868D01*
X0135897Y0031796D01*
X0135842Y0031726D01*
X0135783Y0031658D01*
X0135722Y0031594D01*
X0135658Y0031532D01*
X0135591Y0031473D01*
X0135522Y0031417D01*
X0135450Y0031364D01*
X0135376Y0031314D01*
X0135300Y0031268D01*
X0135222Y0031225D01*
X0135142Y0031186D01*
X0135060Y0031150D01*
X0134977Y0031118D01*
X0134893Y0031090D01*
X0134807Y0031065D01*
X0134720Y0031045D01*
X0134633Y0031028D01*
X0134544Y0031015D01*
X0134456Y0031006D01*
X0134367Y0031001D01*
X0134278Y0031000D01*
X0134189Y0031003D01*
X0134100Y0031010D01*
X0134011Y0031021D01*
X0133923Y0031036D01*
X0133836Y0031054D01*
X0133750Y0031077D01*
X0133665Y0031103D01*
X0133581Y0031134D01*
X0133499Y0031168D01*
X0133418Y0031205D01*
X0133339Y0031246D01*
X0133262Y0031291D01*
X0133187Y0031339D01*
X0133114Y0031390D01*
X0133043Y0031444D01*
X0132975Y0031502D01*
X0132910Y0031562D01*
X0132847Y0031626D01*
X0132787Y0031692D01*
X0132730Y0031761D01*
X0132677Y0031832D01*
X0132626Y0031905D01*
X0132579Y0031981D01*
X0132536Y0032058D01*
X0132495Y0032138D01*
X0132459Y0032219D01*
X0132426Y0032302D01*
X0132397Y0032386D01*
X0132371Y0032472D01*
X0132349Y0032558D01*
X0132332Y0032645D01*
X0132318Y0032733D01*
X0132308Y0032822D01*
X0132302Y0032911D01*
X0132300Y0033000D01*
X0112300Y0033000D02*
X0112302Y0033089D01*
X0112308Y0033178D01*
X0112318Y0033267D01*
X0112332Y0033355D01*
X0112349Y0033442D01*
X0112371Y0033528D01*
X0112397Y0033614D01*
X0112426Y0033698D01*
X0112459Y0033781D01*
X0112495Y0033862D01*
X0112536Y0033942D01*
X0112579Y0034019D01*
X0112626Y0034095D01*
X0112677Y0034168D01*
X0112730Y0034239D01*
X0112787Y0034308D01*
X0112847Y0034374D01*
X0112910Y0034438D01*
X0112975Y0034498D01*
X0113043Y0034556D01*
X0113114Y0034610D01*
X0113187Y0034661D01*
X0113262Y0034709D01*
X0113339Y0034754D01*
X0113418Y0034795D01*
X0113499Y0034832D01*
X0113581Y0034866D01*
X0113665Y0034897D01*
X0113750Y0034923D01*
X0113836Y0034946D01*
X0113923Y0034964D01*
X0114011Y0034979D01*
X0114100Y0034990D01*
X0114189Y0034997D01*
X0114278Y0035000D01*
X0114367Y0034999D01*
X0114456Y0034994D01*
X0114544Y0034985D01*
X0114633Y0034972D01*
X0114720Y0034955D01*
X0114807Y0034935D01*
X0114893Y0034910D01*
X0114977Y0034882D01*
X0115060Y0034850D01*
X0115142Y0034814D01*
X0115222Y0034775D01*
X0115300Y0034732D01*
X0115376Y0034686D01*
X0115450Y0034636D01*
X0115522Y0034583D01*
X0115591Y0034527D01*
X0115658Y0034468D01*
X0115722Y0034406D01*
X0115783Y0034342D01*
X0115842Y0034274D01*
X0115897Y0034204D01*
X0115949Y0034132D01*
X0115998Y0034057D01*
X0116043Y0033981D01*
X0116085Y0033902D01*
X0116123Y0033822D01*
X0116158Y0033740D01*
X0116189Y0033656D01*
X0116217Y0033571D01*
X0116240Y0033485D01*
X0116260Y0033398D01*
X0116276Y0033311D01*
X0116288Y0033222D01*
X0116296Y0033134D01*
X0116300Y0033045D01*
X0116300Y0032955D01*
X0116296Y0032866D01*
X0116288Y0032778D01*
X0116276Y0032689D01*
X0116260Y0032602D01*
X0116240Y0032515D01*
X0116217Y0032429D01*
X0116189Y0032344D01*
X0116158Y0032260D01*
X0116123Y0032178D01*
X0116085Y0032098D01*
X0116043Y0032019D01*
X0115998Y0031943D01*
X0115949Y0031868D01*
X0115897Y0031796D01*
X0115842Y0031726D01*
X0115783Y0031658D01*
X0115722Y0031594D01*
X0115658Y0031532D01*
X0115591Y0031473D01*
X0115522Y0031417D01*
X0115450Y0031364D01*
X0115376Y0031314D01*
X0115300Y0031268D01*
X0115222Y0031225D01*
X0115142Y0031186D01*
X0115060Y0031150D01*
X0114977Y0031118D01*
X0114893Y0031090D01*
X0114807Y0031065D01*
X0114720Y0031045D01*
X0114633Y0031028D01*
X0114544Y0031015D01*
X0114456Y0031006D01*
X0114367Y0031001D01*
X0114278Y0031000D01*
X0114189Y0031003D01*
X0114100Y0031010D01*
X0114011Y0031021D01*
X0113923Y0031036D01*
X0113836Y0031054D01*
X0113750Y0031077D01*
X0113665Y0031103D01*
X0113581Y0031134D01*
X0113499Y0031168D01*
X0113418Y0031205D01*
X0113339Y0031246D01*
X0113262Y0031291D01*
X0113187Y0031339D01*
X0113114Y0031390D01*
X0113043Y0031444D01*
X0112975Y0031502D01*
X0112910Y0031562D01*
X0112847Y0031626D01*
X0112787Y0031692D01*
X0112730Y0031761D01*
X0112677Y0031832D01*
X0112626Y0031905D01*
X0112579Y0031981D01*
X0112536Y0032058D01*
X0112495Y0032138D01*
X0112459Y0032219D01*
X0112426Y0032302D01*
X0112397Y0032386D01*
X0112371Y0032472D01*
X0112349Y0032558D01*
X0112332Y0032645D01*
X0112318Y0032733D01*
X0112308Y0032822D01*
X0112302Y0032911D01*
X0112300Y0033000D01*
X0087300Y0033000D02*
X0087302Y0033089D01*
X0087308Y0033178D01*
X0087318Y0033267D01*
X0087332Y0033355D01*
X0087349Y0033442D01*
X0087371Y0033528D01*
X0087397Y0033614D01*
X0087426Y0033698D01*
X0087459Y0033781D01*
X0087495Y0033862D01*
X0087536Y0033942D01*
X0087579Y0034019D01*
X0087626Y0034095D01*
X0087677Y0034168D01*
X0087730Y0034239D01*
X0087787Y0034308D01*
X0087847Y0034374D01*
X0087910Y0034438D01*
X0087975Y0034498D01*
X0088043Y0034556D01*
X0088114Y0034610D01*
X0088187Y0034661D01*
X0088262Y0034709D01*
X0088339Y0034754D01*
X0088418Y0034795D01*
X0088499Y0034832D01*
X0088581Y0034866D01*
X0088665Y0034897D01*
X0088750Y0034923D01*
X0088836Y0034946D01*
X0088923Y0034964D01*
X0089011Y0034979D01*
X0089100Y0034990D01*
X0089189Y0034997D01*
X0089278Y0035000D01*
X0089367Y0034999D01*
X0089456Y0034994D01*
X0089544Y0034985D01*
X0089633Y0034972D01*
X0089720Y0034955D01*
X0089807Y0034935D01*
X0089893Y0034910D01*
X0089977Y0034882D01*
X0090060Y0034850D01*
X0090142Y0034814D01*
X0090222Y0034775D01*
X0090300Y0034732D01*
X0090376Y0034686D01*
X0090450Y0034636D01*
X0090522Y0034583D01*
X0090591Y0034527D01*
X0090658Y0034468D01*
X0090722Y0034406D01*
X0090783Y0034342D01*
X0090842Y0034274D01*
X0090897Y0034204D01*
X0090949Y0034132D01*
X0090998Y0034057D01*
X0091043Y0033981D01*
X0091085Y0033902D01*
X0091123Y0033822D01*
X0091158Y0033740D01*
X0091189Y0033656D01*
X0091217Y0033571D01*
X0091240Y0033485D01*
X0091260Y0033398D01*
X0091276Y0033311D01*
X0091288Y0033222D01*
X0091296Y0033134D01*
X0091300Y0033045D01*
X0091300Y0032955D01*
X0091296Y0032866D01*
X0091288Y0032778D01*
X0091276Y0032689D01*
X0091260Y0032602D01*
X0091240Y0032515D01*
X0091217Y0032429D01*
X0091189Y0032344D01*
X0091158Y0032260D01*
X0091123Y0032178D01*
X0091085Y0032098D01*
X0091043Y0032019D01*
X0090998Y0031943D01*
X0090949Y0031868D01*
X0090897Y0031796D01*
X0090842Y0031726D01*
X0090783Y0031658D01*
X0090722Y0031594D01*
X0090658Y0031532D01*
X0090591Y0031473D01*
X0090522Y0031417D01*
X0090450Y0031364D01*
X0090376Y0031314D01*
X0090300Y0031268D01*
X0090222Y0031225D01*
X0090142Y0031186D01*
X0090060Y0031150D01*
X0089977Y0031118D01*
X0089893Y0031090D01*
X0089807Y0031065D01*
X0089720Y0031045D01*
X0089633Y0031028D01*
X0089544Y0031015D01*
X0089456Y0031006D01*
X0089367Y0031001D01*
X0089278Y0031000D01*
X0089189Y0031003D01*
X0089100Y0031010D01*
X0089011Y0031021D01*
X0088923Y0031036D01*
X0088836Y0031054D01*
X0088750Y0031077D01*
X0088665Y0031103D01*
X0088581Y0031134D01*
X0088499Y0031168D01*
X0088418Y0031205D01*
X0088339Y0031246D01*
X0088262Y0031291D01*
X0088187Y0031339D01*
X0088114Y0031390D01*
X0088043Y0031444D01*
X0087975Y0031502D01*
X0087910Y0031562D01*
X0087847Y0031626D01*
X0087787Y0031692D01*
X0087730Y0031761D01*
X0087677Y0031832D01*
X0087626Y0031905D01*
X0087579Y0031981D01*
X0087536Y0032058D01*
X0087495Y0032138D01*
X0087459Y0032219D01*
X0087426Y0032302D01*
X0087397Y0032386D01*
X0087371Y0032472D01*
X0087349Y0032558D01*
X0087332Y0032645D01*
X0087318Y0032733D01*
X0087308Y0032822D01*
X0087302Y0032911D01*
X0087300Y0033000D01*
X0023300Y0024300D02*
X0023304Y0024631D01*
X0023316Y0024962D01*
X0023337Y0025293D01*
X0023365Y0025623D01*
X0023402Y0025953D01*
X0023446Y0026281D01*
X0023499Y0026608D01*
X0023559Y0026934D01*
X0023628Y0027258D01*
X0023705Y0027580D01*
X0023789Y0027901D01*
X0023881Y0028219D01*
X0023981Y0028535D01*
X0024089Y0028848D01*
X0024205Y0029159D01*
X0024328Y0029466D01*
X0024458Y0029771D01*
X0024596Y0030072D01*
X0024741Y0030370D01*
X0024894Y0030664D01*
X0025054Y0030954D01*
X0025221Y0031240D01*
X0025394Y0031522D01*
X0025575Y0031800D01*
X0025763Y0032073D01*
X0025957Y0032342D01*
X0026157Y0032606D01*
X0026364Y0032864D01*
X0026578Y0033118D01*
X0026797Y0033366D01*
X0027023Y0033609D01*
X0027254Y0033846D01*
X0027491Y0034077D01*
X0027734Y0034303D01*
X0027982Y0034522D01*
X0028236Y0034736D01*
X0028494Y0034943D01*
X0028758Y0035143D01*
X0029027Y0035337D01*
X0029300Y0035525D01*
X0029578Y0035706D01*
X0029860Y0035879D01*
X0030146Y0036046D01*
X0030436Y0036206D01*
X0030730Y0036359D01*
X0031028Y0036504D01*
X0031329Y0036642D01*
X0031634Y0036772D01*
X0031941Y0036895D01*
X0032252Y0037011D01*
X0032565Y0037119D01*
X0032881Y0037219D01*
X0033199Y0037311D01*
X0033520Y0037395D01*
X0033842Y0037472D01*
X0034166Y0037541D01*
X0034492Y0037601D01*
X0034819Y0037654D01*
X0035147Y0037698D01*
X0035477Y0037735D01*
X0035807Y0037763D01*
X0036138Y0037784D01*
X0036469Y0037796D01*
X0036800Y0037800D01*
X0037131Y0037796D01*
X0037462Y0037784D01*
X0037793Y0037763D01*
X0038123Y0037735D01*
X0038453Y0037698D01*
X0038781Y0037654D01*
X0039108Y0037601D01*
X0039434Y0037541D01*
X0039758Y0037472D01*
X0040080Y0037395D01*
X0040401Y0037311D01*
X0040719Y0037219D01*
X0041035Y0037119D01*
X0041348Y0037011D01*
X0041659Y0036895D01*
X0041966Y0036772D01*
X0042271Y0036642D01*
X0042572Y0036504D01*
X0042870Y0036359D01*
X0043164Y0036206D01*
X0043454Y0036046D01*
X0043740Y0035879D01*
X0044022Y0035706D01*
X0044300Y0035525D01*
X0044573Y0035337D01*
X0044842Y0035143D01*
X0045106Y0034943D01*
X0045364Y0034736D01*
X0045618Y0034522D01*
X0045866Y0034303D01*
X0046109Y0034077D01*
X0046346Y0033846D01*
X0046577Y0033609D01*
X0046803Y0033366D01*
X0047022Y0033118D01*
X0047236Y0032864D01*
X0047443Y0032606D01*
X0047643Y0032342D01*
X0047837Y0032073D01*
X0048025Y0031800D01*
X0048206Y0031522D01*
X0048379Y0031240D01*
X0048546Y0030954D01*
X0048706Y0030664D01*
X0048859Y0030370D01*
X0049004Y0030072D01*
X0049142Y0029771D01*
X0049272Y0029466D01*
X0049395Y0029159D01*
X0049511Y0028848D01*
X0049619Y0028535D01*
X0049719Y0028219D01*
X0049811Y0027901D01*
X0049895Y0027580D01*
X0049972Y0027258D01*
X0050041Y0026934D01*
X0050101Y0026608D01*
X0050154Y0026281D01*
X0050198Y0025953D01*
X0050235Y0025623D01*
X0050263Y0025293D01*
X0050284Y0024962D01*
X0050296Y0024631D01*
X0050300Y0024300D01*
X0050296Y0023969D01*
X0050284Y0023638D01*
X0050263Y0023307D01*
X0050235Y0022977D01*
X0050198Y0022647D01*
X0050154Y0022319D01*
X0050101Y0021992D01*
X0050041Y0021666D01*
X0049972Y0021342D01*
X0049895Y0021020D01*
X0049811Y0020699D01*
X0049719Y0020381D01*
X0049619Y0020065D01*
X0049511Y0019752D01*
X0049395Y0019441D01*
X0049272Y0019134D01*
X0049142Y0018829D01*
X0049004Y0018528D01*
X0048859Y0018230D01*
X0048706Y0017936D01*
X0048546Y0017646D01*
X0048379Y0017360D01*
X0048206Y0017078D01*
X0048025Y0016800D01*
X0047837Y0016527D01*
X0047643Y0016258D01*
X0047443Y0015994D01*
X0047236Y0015736D01*
X0047022Y0015482D01*
X0046803Y0015234D01*
X0046577Y0014991D01*
X0046346Y0014754D01*
X0046109Y0014523D01*
X0045866Y0014297D01*
X0045618Y0014078D01*
X0045364Y0013864D01*
X0045106Y0013657D01*
X0044842Y0013457D01*
X0044573Y0013263D01*
X0044300Y0013075D01*
X0044022Y0012894D01*
X0043740Y0012721D01*
X0043454Y0012554D01*
X0043164Y0012394D01*
X0042870Y0012241D01*
X0042572Y0012096D01*
X0042271Y0011958D01*
X0041966Y0011828D01*
X0041659Y0011705D01*
X0041348Y0011589D01*
X0041035Y0011481D01*
X0040719Y0011381D01*
X0040401Y0011289D01*
X0040080Y0011205D01*
X0039758Y0011128D01*
X0039434Y0011059D01*
X0039108Y0010999D01*
X0038781Y0010946D01*
X0038453Y0010902D01*
X0038123Y0010865D01*
X0037793Y0010837D01*
X0037462Y0010816D01*
X0037131Y0010804D01*
X0036800Y0010800D01*
X0036469Y0010804D01*
X0036138Y0010816D01*
X0035807Y0010837D01*
X0035477Y0010865D01*
X0035147Y0010902D01*
X0034819Y0010946D01*
X0034492Y0010999D01*
X0034166Y0011059D01*
X0033842Y0011128D01*
X0033520Y0011205D01*
X0033199Y0011289D01*
X0032881Y0011381D01*
X0032565Y0011481D01*
X0032252Y0011589D01*
X0031941Y0011705D01*
X0031634Y0011828D01*
X0031329Y0011958D01*
X0031028Y0012096D01*
X0030730Y0012241D01*
X0030436Y0012394D01*
X0030146Y0012554D01*
X0029860Y0012721D01*
X0029578Y0012894D01*
X0029300Y0013075D01*
X0029027Y0013263D01*
X0028758Y0013457D01*
X0028494Y0013657D01*
X0028236Y0013864D01*
X0027982Y0014078D01*
X0027734Y0014297D01*
X0027491Y0014523D01*
X0027254Y0014754D01*
X0027023Y0014991D01*
X0026797Y0015234D01*
X0026578Y0015482D01*
X0026364Y0015736D01*
X0026157Y0015994D01*
X0025957Y0016258D01*
X0025763Y0016527D01*
X0025575Y0016800D01*
X0025394Y0017078D01*
X0025221Y0017360D01*
X0025054Y0017646D01*
X0024894Y0017936D01*
X0024741Y0018230D01*
X0024596Y0018528D01*
X0024458Y0018829D01*
X0024328Y0019134D01*
X0024205Y0019441D01*
X0024089Y0019752D01*
X0023981Y0020065D01*
X0023881Y0020381D01*
X0023789Y0020699D01*
X0023705Y0021020D01*
X0023628Y0021342D01*
X0023559Y0021666D01*
X0023499Y0021992D01*
X0023446Y0022319D01*
X0023402Y0022647D01*
X0023365Y0022977D01*
X0023337Y0023307D01*
X0023316Y0023638D01*
X0023304Y0023969D01*
X0023300Y0024300D01*
X0209300Y0179300D02*
X0211800Y0176800D01*
X0216800Y0176800D01*
X0219300Y0179300D01*
X0219300Y0184300D01*
X0216800Y0186800D01*
X0211800Y0186800D01*
X0209300Y0184300D01*
X0209300Y0179300D01*
X0211800Y0186800D02*
X0209300Y0189300D01*
X0209300Y0194300D01*
X0211800Y0196800D01*
X0209300Y0199300D01*
X0209300Y0204300D01*
X0211800Y0206800D01*
X0209300Y0209300D01*
X0209300Y0214300D01*
X0211800Y0216800D01*
X0216800Y0216800D01*
X0219300Y0214300D01*
X0219300Y0209300D01*
X0216800Y0206800D01*
X0219300Y0204300D01*
X0219300Y0199300D01*
X0216800Y0196800D01*
X0211800Y0196800D01*
X0216800Y0196800D02*
X0219300Y0194300D01*
X0219300Y0189300D01*
X0216800Y0186800D01*
X0239300Y0184300D02*
X0239300Y0179300D01*
X0241800Y0176800D01*
X0256800Y0176800D01*
X0259300Y0179300D01*
X0259300Y0184300D01*
X0256800Y0186800D01*
X0241800Y0186800D01*
X0239300Y0184300D01*
X0241800Y0186800D02*
X0239300Y0189300D01*
X0239300Y0194300D01*
X0241800Y0196800D01*
X0256800Y0196800D01*
X0259300Y0194300D01*
X0259300Y0189300D01*
X0256800Y0186800D01*
X0271800Y0185300D02*
X0271800Y0178300D01*
X0271802Y0178240D01*
X0271807Y0178179D01*
X0271816Y0178120D01*
X0271829Y0178061D01*
X0271845Y0178002D01*
X0271865Y0177945D01*
X0271888Y0177890D01*
X0271915Y0177835D01*
X0271944Y0177783D01*
X0271977Y0177732D01*
X0272013Y0177683D01*
X0272051Y0177637D01*
X0272093Y0177593D01*
X0272137Y0177551D01*
X0272183Y0177513D01*
X0272232Y0177477D01*
X0272283Y0177444D01*
X0272335Y0177415D01*
X0272390Y0177388D01*
X0272445Y0177365D01*
X0272502Y0177345D01*
X0272561Y0177329D01*
X0272620Y0177316D01*
X0272679Y0177307D01*
X0272740Y0177302D01*
X0272800Y0177300D01*
X0274300Y0177300D01*
X0274800Y0177800D01*
X0293800Y0177800D01*
X0294300Y0177300D01*
X0295800Y0177300D01*
X0295860Y0177302D01*
X0295921Y0177307D01*
X0295980Y0177316D01*
X0296039Y0177329D01*
X0296098Y0177345D01*
X0296155Y0177365D01*
X0296210Y0177388D01*
X0296265Y0177415D01*
X0296317Y0177444D01*
X0296368Y0177477D01*
X0296417Y0177513D01*
X0296463Y0177551D01*
X0296507Y0177593D01*
X0296549Y0177637D01*
X0296587Y0177683D01*
X0296623Y0177732D01*
X0296656Y0177783D01*
X0296685Y0177835D01*
X0296712Y0177890D01*
X0296735Y0177945D01*
X0296755Y0178002D01*
X0296771Y0178061D01*
X0296784Y0178120D01*
X0296793Y0178179D01*
X0296798Y0178240D01*
X0296800Y0178300D01*
X0296800Y0185300D01*
X0296798Y0185360D01*
X0296793Y0185421D01*
X0296784Y0185480D01*
X0296771Y0185539D01*
X0296755Y0185598D01*
X0296735Y0185655D01*
X0296712Y0185710D01*
X0296685Y0185765D01*
X0296656Y0185817D01*
X0296623Y0185868D01*
X0296587Y0185917D01*
X0296549Y0185963D01*
X0296507Y0186007D01*
X0296463Y0186049D01*
X0296417Y0186087D01*
X0296368Y0186123D01*
X0296317Y0186156D01*
X0296265Y0186185D01*
X0296210Y0186212D01*
X0296155Y0186235D01*
X0296098Y0186255D01*
X0296039Y0186271D01*
X0295980Y0186284D01*
X0295921Y0186293D01*
X0295860Y0186298D01*
X0295800Y0186300D01*
X0294300Y0186300D01*
X0293800Y0185800D01*
X0274800Y0185800D01*
X0274300Y0186300D01*
X0272800Y0186300D01*
X0272800Y0187300D02*
X0274300Y0187300D01*
X0274800Y0187800D01*
X0293800Y0187800D01*
X0294300Y0187300D01*
X0295800Y0187300D01*
X0295860Y0187302D01*
X0295921Y0187307D01*
X0295980Y0187316D01*
X0296039Y0187329D01*
X0296098Y0187345D01*
X0296155Y0187365D01*
X0296210Y0187388D01*
X0296265Y0187415D01*
X0296317Y0187444D01*
X0296368Y0187477D01*
X0296417Y0187513D01*
X0296463Y0187551D01*
X0296507Y0187593D01*
X0296549Y0187637D01*
X0296587Y0187683D01*
X0296623Y0187732D01*
X0296656Y0187783D01*
X0296685Y0187835D01*
X0296712Y0187890D01*
X0296735Y0187945D01*
X0296755Y0188002D01*
X0296771Y0188061D01*
X0296784Y0188120D01*
X0296793Y0188179D01*
X0296798Y0188240D01*
X0296800Y0188300D01*
X0296800Y0195300D01*
X0296798Y0195360D01*
X0296793Y0195421D01*
X0296784Y0195480D01*
X0296771Y0195539D01*
X0296755Y0195598D01*
X0296735Y0195655D01*
X0296712Y0195710D01*
X0296685Y0195765D01*
X0296656Y0195817D01*
X0296623Y0195868D01*
X0296587Y0195917D01*
X0296549Y0195963D01*
X0296507Y0196007D01*
X0296463Y0196049D01*
X0296417Y0196087D01*
X0296368Y0196123D01*
X0296317Y0196156D01*
X0296265Y0196185D01*
X0296210Y0196212D01*
X0296155Y0196235D01*
X0296098Y0196255D01*
X0296039Y0196271D01*
X0295980Y0196284D01*
X0295921Y0196293D01*
X0295860Y0196298D01*
X0295800Y0196300D01*
X0294300Y0196300D01*
X0293800Y0195800D01*
X0274800Y0195800D01*
X0274300Y0196300D01*
X0272800Y0196300D01*
X0272740Y0196298D01*
X0272679Y0196293D01*
X0272620Y0196284D01*
X0272561Y0196271D01*
X0272502Y0196255D01*
X0272445Y0196235D01*
X0272390Y0196212D01*
X0272335Y0196185D01*
X0272283Y0196156D01*
X0272232Y0196123D01*
X0272183Y0196087D01*
X0272137Y0196049D01*
X0272093Y0196007D01*
X0272051Y0195963D01*
X0272013Y0195917D01*
X0271977Y0195868D01*
X0271944Y0195817D01*
X0271915Y0195765D01*
X0271888Y0195710D01*
X0271865Y0195655D01*
X0271845Y0195598D01*
X0271829Y0195539D01*
X0271816Y0195480D01*
X0271807Y0195421D01*
X0271802Y0195360D01*
X0271800Y0195300D01*
X0271800Y0188300D01*
X0271802Y0188240D01*
X0271807Y0188179D01*
X0271816Y0188120D01*
X0271829Y0188061D01*
X0271845Y0188002D01*
X0271865Y0187945D01*
X0271888Y0187890D01*
X0271915Y0187835D01*
X0271944Y0187783D01*
X0271977Y0187732D01*
X0272013Y0187683D01*
X0272051Y0187637D01*
X0272093Y0187593D01*
X0272137Y0187551D01*
X0272183Y0187513D01*
X0272232Y0187477D01*
X0272283Y0187444D01*
X0272335Y0187415D01*
X0272390Y0187388D01*
X0272445Y0187365D01*
X0272502Y0187345D01*
X0272561Y0187329D01*
X0272620Y0187316D01*
X0272679Y0187307D01*
X0272740Y0187302D01*
X0272800Y0187300D01*
X0272800Y0186300D02*
X0272740Y0186298D01*
X0272679Y0186293D01*
X0272620Y0186284D01*
X0272561Y0186271D01*
X0272502Y0186255D01*
X0272445Y0186235D01*
X0272390Y0186212D01*
X0272335Y0186185D01*
X0272283Y0186156D01*
X0272232Y0186123D01*
X0272183Y0186087D01*
X0272137Y0186049D01*
X0272093Y0186007D01*
X0272051Y0185963D01*
X0272013Y0185917D01*
X0271977Y0185868D01*
X0271944Y0185817D01*
X0271915Y0185765D01*
X0271888Y0185710D01*
X0271865Y0185655D01*
X0271845Y0185598D01*
X0271829Y0185539D01*
X0271816Y0185480D01*
X0271807Y0185421D01*
X0271802Y0185360D01*
X0271800Y0185300D01*
X0272800Y0197300D02*
X0274300Y0197300D01*
X0274800Y0197800D01*
X0293800Y0197800D01*
X0294300Y0197300D01*
X0295800Y0197300D01*
X0295860Y0197302D01*
X0295921Y0197307D01*
X0295980Y0197316D01*
X0296039Y0197329D01*
X0296098Y0197345D01*
X0296155Y0197365D01*
X0296210Y0197388D01*
X0296265Y0197415D01*
X0296317Y0197444D01*
X0296368Y0197477D01*
X0296417Y0197513D01*
X0296463Y0197551D01*
X0296507Y0197593D01*
X0296549Y0197637D01*
X0296587Y0197683D01*
X0296623Y0197732D01*
X0296656Y0197783D01*
X0296685Y0197835D01*
X0296712Y0197890D01*
X0296735Y0197945D01*
X0296755Y0198002D01*
X0296771Y0198061D01*
X0296784Y0198120D01*
X0296793Y0198179D01*
X0296798Y0198240D01*
X0296800Y0198300D01*
X0296800Y0205300D01*
X0296798Y0205360D01*
X0296793Y0205421D01*
X0296784Y0205480D01*
X0296771Y0205539D01*
X0296755Y0205598D01*
X0296735Y0205655D01*
X0296712Y0205710D01*
X0296685Y0205765D01*
X0296656Y0205817D01*
X0296623Y0205868D01*
X0296587Y0205917D01*
X0296549Y0205963D01*
X0296507Y0206007D01*
X0296463Y0206049D01*
X0296417Y0206087D01*
X0296368Y0206123D01*
X0296317Y0206156D01*
X0296265Y0206185D01*
X0296210Y0206212D01*
X0296155Y0206235D01*
X0296098Y0206255D01*
X0296039Y0206271D01*
X0295980Y0206284D01*
X0295921Y0206293D01*
X0295860Y0206298D01*
X0295800Y0206300D01*
X0294300Y0206300D01*
X0293800Y0205800D01*
X0274800Y0205800D01*
X0274300Y0206300D01*
X0272800Y0206300D01*
X0272800Y0207300D02*
X0274300Y0207300D01*
X0274800Y0207800D01*
X0293800Y0207800D01*
X0294300Y0207300D01*
X0295800Y0207300D01*
X0295860Y0207302D01*
X0295921Y0207307D01*
X0295980Y0207316D01*
X0296039Y0207329D01*
X0296098Y0207345D01*
X0296155Y0207365D01*
X0296210Y0207388D01*
X0296265Y0207415D01*
X0296317Y0207444D01*
X0296368Y0207477D01*
X0296417Y0207513D01*
X0296463Y0207551D01*
X0296507Y0207593D01*
X0296549Y0207637D01*
X0296587Y0207683D01*
X0296623Y0207732D01*
X0296656Y0207783D01*
X0296685Y0207835D01*
X0296712Y0207890D01*
X0296735Y0207945D01*
X0296755Y0208002D01*
X0296771Y0208061D01*
X0296784Y0208120D01*
X0296793Y0208179D01*
X0296798Y0208240D01*
X0296800Y0208300D01*
X0296800Y0215300D01*
X0296798Y0215360D01*
X0296793Y0215421D01*
X0296784Y0215480D01*
X0296771Y0215539D01*
X0296755Y0215598D01*
X0296735Y0215655D01*
X0296712Y0215710D01*
X0296685Y0215765D01*
X0296656Y0215817D01*
X0296623Y0215868D01*
X0296587Y0215917D01*
X0296549Y0215963D01*
X0296507Y0216007D01*
X0296463Y0216049D01*
X0296417Y0216087D01*
X0296368Y0216123D01*
X0296317Y0216156D01*
X0296265Y0216185D01*
X0296210Y0216212D01*
X0296155Y0216235D01*
X0296098Y0216255D01*
X0296039Y0216271D01*
X0295980Y0216284D01*
X0295921Y0216293D01*
X0295860Y0216298D01*
X0295800Y0216300D01*
X0294300Y0216300D01*
X0293800Y0215800D01*
X0274800Y0215800D01*
X0274300Y0216300D01*
X0272800Y0216300D01*
X0272740Y0216298D01*
X0272679Y0216293D01*
X0272620Y0216284D01*
X0272561Y0216271D01*
X0272502Y0216255D01*
X0272445Y0216235D01*
X0272390Y0216212D01*
X0272335Y0216185D01*
X0272283Y0216156D01*
X0272232Y0216123D01*
X0272183Y0216087D01*
X0272137Y0216049D01*
X0272093Y0216007D01*
X0272051Y0215963D01*
X0272013Y0215917D01*
X0271977Y0215868D01*
X0271944Y0215817D01*
X0271915Y0215765D01*
X0271888Y0215710D01*
X0271865Y0215655D01*
X0271845Y0215598D01*
X0271829Y0215539D01*
X0271816Y0215480D01*
X0271807Y0215421D01*
X0271802Y0215360D01*
X0271800Y0215300D01*
X0271800Y0208300D01*
X0271802Y0208240D01*
X0271807Y0208179D01*
X0271816Y0208120D01*
X0271829Y0208061D01*
X0271845Y0208002D01*
X0271865Y0207945D01*
X0271888Y0207890D01*
X0271915Y0207835D01*
X0271944Y0207783D01*
X0271977Y0207732D01*
X0272013Y0207683D01*
X0272051Y0207637D01*
X0272093Y0207593D01*
X0272137Y0207551D01*
X0272183Y0207513D01*
X0272232Y0207477D01*
X0272283Y0207444D01*
X0272335Y0207415D01*
X0272390Y0207388D01*
X0272445Y0207365D01*
X0272502Y0207345D01*
X0272561Y0207329D01*
X0272620Y0207316D01*
X0272679Y0207307D01*
X0272740Y0207302D01*
X0272800Y0207300D01*
X0272800Y0206300D02*
X0272740Y0206298D01*
X0272679Y0206293D01*
X0272620Y0206284D01*
X0272561Y0206271D01*
X0272502Y0206255D01*
X0272445Y0206235D01*
X0272390Y0206212D01*
X0272335Y0206185D01*
X0272283Y0206156D01*
X0272232Y0206123D01*
X0272183Y0206087D01*
X0272137Y0206049D01*
X0272093Y0206007D01*
X0272051Y0205963D01*
X0272013Y0205917D01*
X0271977Y0205868D01*
X0271944Y0205817D01*
X0271915Y0205765D01*
X0271888Y0205710D01*
X0271865Y0205655D01*
X0271845Y0205598D01*
X0271829Y0205539D01*
X0271816Y0205480D01*
X0271807Y0205421D01*
X0271802Y0205360D01*
X0271800Y0205300D01*
X0271800Y0198300D01*
X0271802Y0198240D01*
X0271807Y0198179D01*
X0271816Y0198120D01*
X0271829Y0198061D01*
X0271845Y0198002D01*
X0271865Y0197945D01*
X0271888Y0197890D01*
X0271915Y0197835D01*
X0271944Y0197783D01*
X0271977Y0197732D01*
X0272013Y0197683D01*
X0272051Y0197637D01*
X0272093Y0197593D01*
X0272137Y0197551D01*
X0272183Y0197513D01*
X0272232Y0197477D01*
X0272283Y0197444D01*
X0272335Y0197415D01*
X0272390Y0197388D01*
X0272445Y0197365D01*
X0272502Y0197345D01*
X0272561Y0197329D01*
X0272620Y0197316D01*
X0272679Y0197307D01*
X0272740Y0197302D01*
X0272800Y0197300D01*
X0259300Y0199300D02*
X0259300Y0204300D01*
X0256800Y0206800D01*
X0241800Y0206800D01*
X0239300Y0204300D01*
X0239300Y0199300D01*
X0241800Y0196800D01*
X0241800Y0206800D02*
X0239300Y0209300D01*
X0239300Y0214300D01*
X0241800Y0216800D01*
X0256800Y0216800D01*
X0259300Y0214300D01*
X0259300Y0209300D01*
X0256800Y0206800D01*
X0259300Y0199300D02*
X0256800Y0196800D01*
X0216800Y0206800D02*
X0211800Y0206800D01*
X0179300Y0208800D02*
X0179300Y0218300D01*
X0139300Y0218300D01*
X0139300Y0208800D01*
X0139300Y0182800D01*
X0139300Y0181800D01*
X0179300Y0181800D01*
X0179300Y0182800D01*
X0179300Y0208800D01*
X0172800Y0208800D01*
X0165800Y0208800D02*
X0152800Y0208800D01*
X0145800Y0208800D02*
X0139300Y0208800D01*
X0139300Y0218300D01*
X0099300Y0218300D01*
X0099300Y0208800D01*
X0099300Y0182800D01*
X0099300Y0181800D01*
X0139300Y0181800D01*
X0139300Y0182800D01*
X0179300Y0182800D01*
X0167300Y0188100D02*
X0167302Y0188189D01*
X0167308Y0188278D01*
X0167318Y0188367D01*
X0167332Y0188455D01*
X0167349Y0188542D01*
X0167371Y0188628D01*
X0167397Y0188714D01*
X0167426Y0188798D01*
X0167459Y0188881D01*
X0167495Y0188962D01*
X0167536Y0189042D01*
X0167579Y0189119D01*
X0167626Y0189195D01*
X0167677Y0189268D01*
X0167730Y0189339D01*
X0167787Y0189408D01*
X0167847Y0189474D01*
X0167910Y0189538D01*
X0167975Y0189598D01*
X0168043Y0189656D01*
X0168114Y0189710D01*
X0168187Y0189761D01*
X0168262Y0189809D01*
X0168339Y0189854D01*
X0168418Y0189895D01*
X0168499Y0189932D01*
X0168581Y0189966D01*
X0168665Y0189997D01*
X0168750Y0190023D01*
X0168836Y0190046D01*
X0168923Y0190064D01*
X0169011Y0190079D01*
X0169100Y0190090D01*
X0169189Y0190097D01*
X0169278Y0190100D01*
X0169367Y0190099D01*
X0169456Y0190094D01*
X0169544Y0190085D01*
X0169633Y0190072D01*
X0169720Y0190055D01*
X0169807Y0190035D01*
X0169893Y0190010D01*
X0169977Y0189982D01*
X0170060Y0189950D01*
X0170142Y0189914D01*
X0170222Y0189875D01*
X0170300Y0189832D01*
X0170376Y0189786D01*
X0170450Y0189736D01*
X0170522Y0189683D01*
X0170591Y0189627D01*
X0170658Y0189568D01*
X0170722Y0189506D01*
X0170783Y0189442D01*
X0170842Y0189374D01*
X0170897Y0189304D01*
X0170949Y0189232D01*
X0170998Y0189157D01*
X0171043Y0189081D01*
X0171085Y0189002D01*
X0171123Y0188922D01*
X0171158Y0188840D01*
X0171189Y0188756D01*
X0171217Y0188671D01*
X0171240Y0188585D01*
X0171260Y0188498D01*
X0171276Y0188411D01*
X0171288Y0188322D01*
X0171296Y0188234D01*
X0171300Y0188145D01*
X0171300Y0188055D01*
X0171296Y0187966D01*
X0171288Y0187878D01*
X0171276Y0187789D01*
X0171260Y0187702D01*
X0171240Y0187615D01*
X0171217Y0187529D01*
X0171189Y0187444D01*
X0171158Y0187360D01*
X0171123Y0187278D01*
X0171085Y0187198D01*
X0171043Y0187119D01*
X0170998Y0187043D01*
X0170949Y0186968D01*
X0170897Y0186896D01*
X0170842Y0186826D01*
X0170783Y0186758D01*
X0170722Y0186694D01*
X0170658Y0186632D01*
X0170591Y0186573D01*
X0170522Y0186517D01*
X0170450Y0186464D01*
X0170376Y0186414D01*
X0170300Y0186368D01*
X0170222Y0186325D01*
X0170142Y0186286D01*
X0170060Y0186250D01*
X0169977Y0186218D01*
X0169893Y0186190D01*
X0169807Y0186165D01*
X0169720Y0186145D01*
X0169633Y0186128D01*
X0169544Y0186115D01*
X0169456Y0186106D01*
X0169367Y0186101D01*
X0169278Y0186100D01*
X0169189Y0186103D01*
X0169100Y0186110D01*
X0169011Y0186121D01*
X0168923Y0186136D01*
X0168836Y0186154D01*
X0168750Y0186177D01*
X0168665Y0186203D01*
X0168581Y0186234D01*
X0168499Y0186268D01*
X0168418Y0186305D01*
X0168339Y0186346D01*
X0168262Y0186391D01*
X0168187Y0186439D01*
X0168114Y0186490D01*
X0168043Y0186544D01*
X0167975Y0186602D01*
X0167910Y0186662D01*
X0167847Y0186726D01*
X0167787Y0186792D01*
X0167730Y0186861D01*
X0167677Y0186932D01*
X0167626Y0187005D01*
X0167579Y0187081D01*
X0167536Y0187158D01*
X0167495Y0187238D01*
X0167459Y0187319D01*
X0167426Y0187402D01*
X0167397Y0187486D01*
X0167371Y0187572D01*
X0167349Y0187658D01*
X0167332Y0187745D01*
X0167318Y0187833D01*
X0167308Y0187922D01*
X0167302Y0188011D01*
X0167300Y0188100D01*
X0147300Y0188100D02*
X0147302Y0188189D01*
X0147308Y0188278D01*
X0147318Y0188367D01*
X0147332Y0188455D01*
X0147349Y0188542D01*
X0147371Y0188628D01*
X0147397Y0188714D01*
X0147426Y0188798D01*
X0147459Y0188881D01*
X0147495Y0188962D01*
X0147536Y0189042D01*
X0147579Y0189119D01*
X0147626Y0189195D01*
X0147677Y0189268D01*
X0147730Y0189339D01*
X0147787Y0189408D01*
X0147847Y0189474D01*
X0147910Y0189538D01*
X0147975Y0189598D01*
X0148043Y0189656D01*
X0148114Y0189710D01*
X0148187Y0189761D01*
X0148262Y0189809D01*
X0148339Y0189854D01*
X0148418Y0189895D01*
X0148499Y0189932D01*
X0148581Y0189966D01*
X0148665Y0189997D01*
X0148750Y0190023D01*
X0148836Y0190046D01*
X0148923Y0190064D01*
X0149011Y0190079D01*
X0149100Y0190090D01*
X0149189Y0190097D01*
X0149278Y0190100D01*
X0149367Y0190099D01*
X0149456Y0190094D01*
X0149544Y0190085D01*
X0149633Y0190072D01*
X0149720Y0190055D01*
X0149807Y0190035D01*
X0149893Y0190010D01*
X0149977Y0189982D01*
X0150060Y0189950D01*
X0150142Y0189914D01*
X0150222Y0189875D01*
X0150300Y0189832D01*
X0150376Y0189786D01*
X0150450Y0189736D01*
X0150522Y0189683D01*
X0150591Y0189627D01*
X0150658Y0189568D01*
X0150722Y0189506D01*
X0150783Y0189442D01*
X0150842Y0189374D01*
X0150897Y0189304D01*
X0150949Y0189232D01*
X0150998Y0189157D01*
X0151043Y0189081D01*
X0151085Y0189002D01*
X0151123Y0188922D01*
X0151158Y0188840D01*
X0151189Y0188756D01*
X0151217Y0188671D01*
X0151240Y0188585D01*
X0151260Y0188498D01*
X0151276Y0188411D01*
X0151288Y0188322D01*
X0151296Y0188234D01*
X0151300Y0188145D01*
X0151300Y0188055D01*
X0151296Y0187966D01*
X0151288Y0187878D01*
X0151276Y0187789D01*
X0151260Y0187702D01*
X0151240Y0187615D01*
X0151217Y0187529D01*
X0151189Y0187444D01*
X0151158Y0187360D01*
X0151123Y0187278D01*
X0151085Y0187198D01*
X0151043Y0187119D01*
X0150998Y0187043D01*
X0150949Y0186968D01*
X0150897Y0186896D01*
X0150842Y0186826D01*
X0150783Y0186758D01*
X0150722Y0186694D01*
X0150658Y0186632D01*
X0150591Y0186573D01*
X0150522Y0186517D01*
X0150450Y0186464D01*
X0150376Y0186414D01*
X0150300Y0186368D01*
X0150222Y0186325D01*
X0150142Y0186286D01*
X0150060Y0186250D01*
X0149977Y0186218D01*
X0149893Y0186190D01*
X0149807Y0186165D01*
X0149720Y0186145D01*
X0149633Y0186128D01*
X0149544Y0186115D01*
X0149456Y0186106D01*
X0149367Y0186101D01*
X0149278Y0186100D01*
X0149189Y0186103D01*
X0149100Y0186110D01*
X0149011Y0186121D01*
X0148923Y0186136D01*
X0148836Y0186154D01*
X0148750Y0186177D01*
X0148665Y0186203D01*
X0148581Y0186234D01*
X0148499Y0186268D01*
X0148418Y0186305D01*
X0148339Y0186346D01*
X0148262Y0186391D01*
X0148187Y0186439D01*
X0148114Y0186490D01*
X0148043Y0186544D01*
X0147975Y0186602D01*
X0147910Y0186662D01*
X0147847Y0186726D01*
X0147787Y0186792D01*
X0147730Y0186861D01*
X0147677Y0186932D01*
X0147626Y0187005D01*
X0147579Y0187081D01*
X0147536Y0187158D01*
X0147495Y0187238D01*
X0147459Y0187319D01*
X0147426Y0187402D01*
X0147397Y0187486D01*
X0147371Y0187572D01*
X0147349Y0187658D01*
X0147332Y0187745D01*
X0147318Y0187833D01*
X0147308Y0187922D01*
X0147302Y0188011D01*
X0147300Y0188100D01*
X0139300Y0182800D02*
X0139300Y0208800D01*
X0132800Y0208800D01*
X0125800Y0208800D02*
X0112800Y0208800D01*
X0105800Y0208800D02*
X0099300Y0208800D01*
X0099300Y0218300D01*
X0059300Y0218300D01*
X0059300Y0208800D01*
X0059300Y0182800D01*
X0059300Y0181800D01*
X0099300Y0181800D01*
X0099300Y0182800D01*
X0139300Y0182800D01*
X0127300Y0188100D02*
X0127302Y0188189D01*
X0127308Y0188278D01*
X0127318Y0188367D01*
X0127332Y0188455D01*
X0127349Y0188542D01*
X0127371Y0188628D01*
X0127397Y0188714D01*
X0127426Y0188798D01*
X0127459Y0188881D01*
X0127495Y0188962D01*
X0127536Y0189042D01*
X0127579Y0189119D01*
X0127626Y0189195D01*
X0127677Y0189268D01*
X0127730Y0189339D01*
X0127787Y0189408D01*
X0127847Y0189474D01*
X0127910Y0189538D01*
X0127975Y0189598D01*
X0128043Y0189656D01*
X0128114Y0189710D01*
X0128187Y0189761D01*
X0128262Y0189809D01*
X0128339Y0189854D01*
X0128418Y0189895D01*
X0128499Y0189932D01*
X0128581Y0189966D01*
X0128665Y0189997D01*
X0128750Y0190023D01*
X0128836Y0190046D01*
X0128923Y0190064D01*
X0129011Y0190079D01*
X0129100Y0190090D01*
X0129189Y0190097D01*
X0129278Y0190100D01*
X0129367Y0190099D01*
X0129456Y0190094D01*
X0129544Y0190085D01*
X0129633Y0190072D01*
X0129720Y0190055D01*
X0129807Y0190035D01*
X0129893Y0190010D01*
X0129977Y0189982D01*
X0130060Y0189950D01*
X0130142Y0189914D01*
X0130222Y0189875D01*
X0130300Y0189832D01*
X0130376Y0189786D01*
X0130450Y0189736D01*
X0130522Y0189683D01*
X0130591Y0189627D01*
X0130658Y0189568D01*
X0130722Y0189506D01*
X0130783Y0189442D01*
X0130842Y0189374D01*
X0130897Y0189304D01*
X0130949Y0189232D01*
X0130998Y0189157D01*
X0131043Y0189081D01*
X0131085Y0189002D01*
X0131123Y0188922D01*
X0131158Y0188840D01*
X0131189Y0188756D01*
X0131217Y0188671D01*
X0131240Y0188585D01*
X0131260Y0188498D01*
X0131276Y0188411D01*
X0131288Y0188322D01*
X0131296Y0188234D01*
X0131300Y0188145D01*
X0131300Y0188055D01*
X0131296Y0187966D01*
X0131288Y0187878D01*
X0131276Y0187789D01*
X0131260Y0187702D01*
X0131240Y0187615D01*
X0131217Y0187529D01*
X0131189Y0187444D01*
X0131158Y0187360D01*
X0131123Y0187278D01*
X0131085Y0187198D01*
X0131043Y0187119D01*
X0130998Y0187043D01*
X0130949Y0186968D01*
X0130897Y0186896D01*
X0130842Y0186826D01*
X0130783Y0186758D01*
X0130722Y0186694D01*
X0130658Y0186632D01*
X0130591Y0186573D01*
X0130522Y0186517D01*
X0130450Y0186464D01*
X0130376Y0186414D01*
X0130300Y0186368D01*
X0130222Y0186325D01*
X0130142Y0186286D01*
X0130060Y0186250D01*
X0129977Y0186218D01*
X0129893Y0186190D01*
X0129807Y0186165D01*
X0129720Y0186145D01*
X0129633Y0186128D01*
X0129544Y0186115D01*
X0129456Y0186106D01*
X0129367Y0186101D01*
X0129278Y0186100D01*
X0129189Y0186103D01*
X0129100Y0186110D01*
X0129011Y0186121D01*
X0128923Y0186136D01*
X0128836Y0186154D01*
X0128750Y0186177D01*
X0128665Y0186203D01*
X0128581Y0186234D01*
X0128499Y0186268D01*
X0128418Y0186305D01*
X0128339Y0186346D01*
X0128262Y0186391D01*
X0128187Y0186439D01*
X0128114Y0186490D01*
X0128043Y0186544D01*
X0127975Y0186602D01*
X0127910Y0186662D01*
X0127847Y0186726D01*
X0127787Y0186792D01*
X0127730Y0186861D01*
X0127677Y0186932D01*
X0127626Y0187005D01*
X0127579Y0187081D01*
X0127536Y0187158D01*
X0127495Y0187238D01*
X0127459Y0187319D01*
X0127426Y0187402D01*
X0127397Y0187486D01*
X0127371Y0187572D01*
X0127349Y0187658D01*
X0127332Y0187745D01*
X0127318Y0187833D01*
X0127308Y0187922D01*
X0127302Y0188011D01*
X0127300Y0188100D01*
X0107300Y0188100D02*
X0107302Y0188189D01*
X0107308Y0188278D01*
X0107318Y0188367D01*
X0107332Y0188455D01*
X0107349Y0188542D01*
X0107371Y0188628D01*
X0107397Y0188714D01*
X0107426Y0188798D01*
X0107459Y0188881D01*
X0107495Y0188962D01*
X0107536Y0189042D01*
X0107579Y0189119D01*
X0107626Y0189195D01*
X0107677Y0189268D01*
X0107730Y0189339D01*
X0107787Y0189408D01*
X0107847Y0189474D01*
X0107910Y0189538D01*
X0107975Y0189598D01*
X0108043Y0189656D01*
X0108114Y0189710D01*
X0108187Y0189761D01*
X0108262Y0189809D01*
X0108339Y0189854D01*
X0108418Y0189895D01*
X0108499Y0189932D01*
X0108581Y0189966D01*
X0108665Y0189997D01*
X0108750Y0190023D01*
X0108836Y0190046D01*
X0108923Y0190064D01*
X0109011Y0190079D01*
X0109100Y0190090D01*
X0109189Y0190097D01*
X0109278Y0190100D01*
X0109367Y0190099D01*
X0109456Y0190094D01*
X0109544Y0190085D01*
X0109633Y0190072D01*
X0109720Y0190055D01*
X0109807Y0190035D01*
X0109893Y0190010D01*
X0109977Y0189982D01*
X0110060Y0189950D01*
X0110142Y0189914D01*
X0110222Y0189875D01*
X0110300Y0189832D01*
X0110376Y0189786D01*
X0110450Y0189736D01*
X0110522Y0189683D01*
X0110591Y0189627D01*
X0110658Y0189568D01*
X0110722Y0189506D01*
X0110783Y0189442D01*
X0110842Y0189374D01*
X0110897Y0189304D01*
X0110949Y0189232D01*
X0110998Y0189157D01*
X0111043Y0189081D01*
X0111085Y0189002D01*
X0111123Y0188922D01*
X0111158Y0188840D01*
X0111189Y0188756D01*
X0111217Y0188671D01*
X0111240Y0188585D01*
X0111260Y0188498D01*
X0111276Y0188411D01*
X0111288Y0188322D01*
X0111296Y0188234D01*
X0111300Y0188145D01*
X0111300Y0188055D01*
X0111296Y0187966D01*
X0111288Y0187878D01*
X0111276Y0187789D01*
X0111260Y0187702D01*
X0111240Y0187615D01*
X0111217Y0187529D01*
X0111189Y0187444D01*
X0111158Y0187360D01*
X0111123Y0187278D01*
X0111085Y0187198D01*
X0111043Y0187119D01*
X0110998Y0187043D01*
X0110949Y0186968D01*
X0110897Y0186896D01*
X0110842Y0186826D01*
X0110783Y0186758D01*
X0110722Y0186694D01*
X0110658Y0186632D01*
X0110591Y0186573D01*
X0110522Y0186517D01*
X0110450Y0186464D01*
X0110376Y0186414D01*
X0110300Y0186368D01*
X0110222Y0186325D01*
X0110142Y0186286D01*
X0110060Y0186250D01*
X0109977Y0186218D01*
X0109893Y0186190D01*
X0109807Y0186165D01*
X0109720Y0186145D01*
X0109633Y0186128D01*
X0109544Y0186115D01*
X0109456Y0186106D01*
X0109367Y0186101D01*
X0109278Y0186100D01*
X0109189Y0186103D01*
X0109100Y0186110D01*
X0109011Y0186121D01*
X0108923Y0186136D01*
X0108836Y0186154D01*
X0108750Y0186177D01*
X0108665Y0186203D01*
X0108581Y0186234D01*
X0108499Y0186268D01*
X0108418Y0186305D01*
X0108339Y0186346D01*
X0108262Y0186391D01*
X0108187Y0186439D01*
X0108114Y0186490D01*
X0108043Y0186544D01*
X0107975Y0186602D01*
X0107910Y0186662D01*
X0107847Y0186726D01*
X0107787Y0186792D01*
X0107730Y0186861D01*
X0107677Y0186932D01*
X0107626Y0187005D01*
X0107579Y0187081D01*
X0107536Y0187158D01*
X0107495Y0187238D01*
X0107459Y0187319D01*
X0107426Y0187402D01*
X0107397Y0187486D01*
X0107371Y0187572D01*
X0107349Y0187658D01*
X0107332Y0187745D01*
X0107318Y0187833D01*
X0107308Y0187922D01*
X0107302Y0188011D01*
X0107300Y0188100D01*
X0099300Y0182800D02*
X0099300Y0208800D01*
X0092800Y0208800D01*
X0085800Y0208800D02*
X0072800Y0208800D01*
X0065800Y0208800D02*
X0059300Y0208800D01*
X0023300Y0199300D02*
X0023304Y0199631D01*
X0023316Y0199962D01*
X0023337Y0200293D01*
X0023365Y0200623D01*
X0023402Y0200953D01*
X0023446Y0201281D01*
X0023499Y0201608D01*
X0023559Y0201934D01*
X0023628Y0202258D01*
X0023705Y0202580D01*
X0023789Y0202901D01*
X0023881Y0203219D01*
X0023981Y0203535D01*
X0024089Y0203848D01*
X0024205Y0204159D01*
X0024328Y0204466D01*
X0024458Y0204771D01*
X0024596Y0205072D01*
X0024741Y0205370D01*
X0024894Y0205664D01*
X0025054Y0205954D01*
X0025221Y0206240D01*
X0025394Y0206522D01*
X0025575Y0206800D01*
X0025763Y0207073D01*
X0025957Y0207342D01*
X0026157Y0207606D01*
X0026364Y0207864D01*
X0026578Y0208118D01*
X0026797Y0208366D01*
X0027023Y0208609D01*
X0027254Y0208846D01*
X0027491Y0209077D01*
X0027734Y0209303D01*
X0027982Y0209522D01*
X0028236Y0209736D01*
X0028494Y0209943D01*
X0028758Y0210143D01*
X0029027Y0210337D01*
X0029300Y0210525D01*
X0029578Y0210706D01*
X0029860Y0210879D01*
X0030146Y0211046D01*
X0030436Y0211206D01*
X0030730Y0211359D01*
X0031028Y0211504D01*
X0031329Y0211642D01*
X0031634Y0211772D01*
X0031941Y0211895D01*
X0032252Y0212011D01*
X0032565Y0212119D01*
X0032881Y0212219D01*
X0033199Y0212311D01*
X0033520Y0212395D01*
X0033842Y0212472D01*
X0034166Y0212541D01*
X0034492Y0212601D01*
X0034819Y0212654D01*
X0035147Y0212698D01*
X0035477Y0212735D01*
X0035807Y0212763D01*
X0036138Y0212784D01*
X0036469Y0212796D01*
X0036800Y0212800D01*
X0037131Y0212796D01*
X0037462Y0212784D01*
X0037793Y0212763D01*
X0038123Y0212735D01*
X0038453Y0212698D01*
X0038781Y0212654D01*
X0039108Y0212601D01*
X0039434Y0212541D01*
X0039758Y0212472D01*
X0040080Y0212395D01*
X0040401Y0212311D01*
X0040719Y0212219D01*
X0041035Y0212119D01*
X0041348Y0212011D01*
X0041659Y0211895D01*
X0041966Y0211772D01*
X0042271Y0211642D01*
X0042572Y0211504D01*
X0042870Y0211359D01*
X0043164Y0211206D01*
X0043454Y0211046D01*
X0043740Y0210879D01*
X0044022Y0210706D01*
X0044300Y0210525D01*
X0044573Y0210337D01*
X0044842Y0210143D01*
X0045106Y0209943D01*
X0045364Y0209736D01*
X0045618Y0209522D01*
X0045866Y0209303D01*
X0046109Y0209077D01*
X0046346Y0208846D01*
X0046577Y0208609D01*
X0046803Y0208366D01*
X0047022Y0208118D01*
X0047236Y0207864D01*
X0047443Y0207606D01*
X0047643Y0207342D01*
X0047837Y0207073D01*
X0048025Y0206800D01*
X0048206Y0206522D01*
X0048379Y0206240D01*
X0048546Y0205954D01*
X0048706Y0205664D01*
X0048859Y0205370D01*
X0049004Y0205072D01*
X0049142Y0204771D01*
X0049272Y0204466D01*
X0049395Y0204159D01*
X0049511Y0203848D01*
X0049619Y0203535D01*
X0049719Y0203219D01*
X0049811Y0202901D01*
X0049895Y0202580D01*
X0049972Y0202258D01*
X0050041Y0201934D01*
X0050101Y0201608D01*
X0050154Y0201281D01*
X0050198Y0200953D01*
X0050235Y0200623D01*
X0050263Y0200293D01*
X0050284Y0199962D01*
X0050296Y0199631D01*
X0050300Y0199300D01*
X0050296Y0198969D01*
X0050284Y0198638D01*
X0050263Y0198307D01*
X0050235Y0197977D01*
X0050198Y0197647D01*
X0050154Y0197319D01*
X0050101Y0196992D01*
X0050041Y0196666D01*
X0049972Y0196342D01*
X0049895Y0196020D01*
X0049811Y0195699D01*
X0049719Y0195381D01*
X0049619Y0195065D01*
X0049511Y0194752D01*
X0049395Y0194441D01*
X0049272Y0194134D01*
X0049142Y0193829D01*
X0049004Y0193528D01*
X0048859Y0193230D01*
X0048706Y0192936D01*
X0048546Y0192646D01*
X0048379Y0192360D01*
X0048206Y0192078D01*
X0048025Y0191800D01*
X0047837Y0191527D01*
X0047643Y0191258D01*
X0047443Y0190994D01*
X0047236Y0190736D01*
X0047022Y0190482D01*
X0046803Y0190234D01*
X0046577Y0189991D01*
X0046346Y0189754D01*
X0046109Y0189523D01*
X0045866Y0189297D01*
X0045618Y0189078D01*
X0045364Y0188864D01*
X0045106Y0188657D01*
X0044842Y0188457D01*
X0044573Y0188263D01*
X0044300Y0188075D01*
X0044022Y0187894D01*
X0043740Y0187721D01*
X0043454Y0187554D01*
X0043164Y0187394D01*
X0042870Y0187241D01*
X0042572Y0187096D01*
X0042271Y0186958D01*
X0041966Y0186828D01*
X0041659Y0186705D01*
X0041348Y0186589D01*
X0041035Y0186481D01*
X0040719Y0186381D01*
X0040401Y0186289D01*
X0040080Y0186205D01*
X0039758Y0186128D01*
X0039434Y0186059D01*
X0039108Y0185999D01*
X0038781Y0185946D01*
X0038453Y0185902D01*
X0038123Y0185865D01*
X0037793Y0185837D01*
X0037462Y0185816D01*
X0037131Y0185804D01*
X0036800Y0185800D01*
X0036469Y0185804D01*
X0036138Y0185816D01*
X0035807Y0185837D01*
X0035477Y0185865D01*
X0035147Y0185902D01*
X0034819Y0185946D01*
X0034492Y0185999D01*
X0034166Y0186059D01*
X0033842Y0186128D01*
X0033520Y0186205D01*
X0033199Y0186289D01*
X0032881Y0186381D01*
X0032565Y0186481D01*
X0032252Y0186589D01*
X0031941Y0186705D01*
X0031634Y0186828D01*
X0031329Y0186958D01*
X0031028Y0187096D01*
X0030730Y0187241D01*
X0030436Y0187394D01*
X0030146Y0187554D01*
X0029860Y0187721D01*
X0029578Y0187894D01*
X0029300Y0188075D01*
X0029027Y0188263D01*
X0028758Y0188457D01*
X0028494Y0188657D01*
X0028236Y0188864D01*
X0027982Y0189078D01*
X0027734Y0189297D01*
X0027491Y0189523D01*
X0027254Y0189754D01*
X0027023Y0189991D01*
X0026797Y0190234D01*
X0026578Y0190482D01*
X0026364Y0190736D01*
X0026157Y0190994D01*
X0025957Y0191258D01*
X0025763Y0191527D01*
X0025575Y0191800D01*
X0025394Y0192078D01*
X0025221Y0192360D01*
X0025054Y0192646D01*
X0024894Y0192936D01*
X0024741Y0193230D01*
X0024596Y0193528D01*
X0024458Y0193829D01*
X0024328Y0194134D01*
X0024205Y0194441D01*
X0024089Y0194752D01*
X0023981Y0195065D01*
X0023881Y0195381D01*
X0023789Y0195699D01*
X0023705Y0196020D01*
X0023628Y0196342D01*
X0023559Y0196666D01*
X0023499Y0196992D01*
X0023446Y0197319D01*
X0023402Y0197647D01*
X0023365Y0197977D01*
X0023337Y0198307D01*
X0023316Y0198638D01*
X0023304Y0198969D01*
X0023300Y0199300D01*
X0059300Y0182800D02*
X0099300Y0182800D01*
X0087300Y0188100D02*
X0087302Y0188189D01*
X0087308Y0188278D01*
X0087318Y0188367D01*
X0087332Y0188455D01*
X0087349Y0188542D01*
X0087371Y0188628D01*
X0087397Y0188714D01*
X0087426Y0188798D01*
X0087459Y0188881D01*
X0087495Y0188962D01*
X0087536Y0189042D01*
X0087579Y0189119D01*
X0087626Y0189195D01*
X0087677Y0189268D01*
X0087730Y0189339D01*
X0087787Y0189408D01*
X0087847Y0189474D01*
X0087910Y0189538D01*
X0087975Y0189598D01*
X0088043Y0189656D01*
X0088114Y0189710D01*
X0088187Y0189761D01*
X0088262Y0189809D01*
X0088339Y0189854D01*
X0088418Y0189895D01*
X0088499Y0189932D01*
X0088581Y0189966D01*
X0088665Y0189997D01*
X0088750Y0190023D01*
X0088836Y0190046D01*
X0088923Y0190064D01*
X0089011Y0190079D01*
X0089100Y0190090D01*
X0089189Y0190097D01*
X0089278Y0190100D01*
X0089367Y0190099D01*
X0089456Y0190094D01*
X0089544Y0190085D01*
X0089633Y0190072D01*
X0089720Y0190055D01*
X0089807Y0190035D01*
X0089893Y0190010D01*
X0089977Y0189982D01*
X0090060Y0189950D01*
X0090142Y0189914D01*
X0090222Y0189875D01*
X0090300Y0189832D01*
X0090376Y0189786D01*
X0090450Y0189736D01*
X0090522Y0189683D01*
X0090591Y0189627D01*
X0090658Y0189568D01*
X0090722Y0189506D01*
X0090783Y0189442D01*
X0090842Y0189374D01*
X0090897Y0189304D01*
X0090949Y0189232D01*
X0090998Y0189157D01*
X0091043Y0189081D01*
X0091085Y0189002D01*
X0091123Y0188922D01*
X0091158Y0188840D01*
X0091189Y0188756D01*
X0091217Y0188671D01*
X0091240Y0188585D01*
X0091260Y0188498D01*
X0091276Y0188411D01*
X0091288Y0188322D01*
X0091296Y0188234D01*
X0091300Y0188145D01*
X0091300Y0188055D01*
X0091296Y0187966D01*
X0091288Y0187878D01*
X0091276Y0187789D01*
X0091260Y0187702D01*
X0091240Y0187615D01*
X0091217Y0187529D01*
X0091189Y0187444D01*
X0091158Y0187360D01*
X0091123Y0187278D01*
X0091085Y0187198D01*
X0091043Y0187119D01*
X0090998Y0187043D01*
X0090949Y0186968D01*
X0090897Y0186896D01*
X0090842Y0186826D01*
X0090783Y0186758D01*
X0090722Y0186694D01*
X0090658Y0186632D01*
X0090591Y0186573D01*
X0090522Y0186517D01*
X0090450Y0186464D01*
X0090376Y0186414D01*
X0090300Y0186368D01*
X0090222Y0186325D01*
X0090142Y0186286D01*
X0090060Y0186250D01*
X0089977Y0186218D01*
X0089893Y0186190D01*
X0089807Y0186165D01*
X0089720Y0186145D01*
X0089633Y0186128D01*
X0089544Y0186115D01*
X0089456Y0186106D01*
X0089367Y0186101D01*
X0089278Y0186100D01*
X0089189Y0186103D01*
X0089100Y0186110D01*
X0089011Y0186121D01*
X0088923Y0186136D01*
X0088836Y0186154D01*
X0088750Y0186177D01*
X0088665Y0186203D01*
X0088581Y0186234D01*
X0088499Y0186268D01*
X0088418Y0186305D01*
X0088339Y0186346D01*
X0088262Y0186391D01*
X0088187Y0186439D01*
X0088114Y0186490D01*
X0088043Y0186544D01*
X0087975Y0186602D01*
X0087910Y0186662D01*
X0087847Y0186726D01*
X0087787Y0186792D01*
X0087730Y0186861D01*
X0087677Y0186932D01*
X0087626Y0187005D01*
X0087579Y0187081D01*
X0087536Y0187158D01*
X0087495Y0187238D01*
X0087459Y0187319D01*
X0087426Y0187402D01*
X0087397Y0187486D01*
X0087371Y0187572D01*
X0087349Y0187658D01*
X0087332Y0187745D01*
X0087318Y0187833D01*
X0087308Y0187922D01*
X0087302Y0188011D01*
X0087300Y0188100D01*
X0067300Y0188100D02*
X0067302Y0188189D01*
X0067308Y0188278D01*
X0067318Y0188367D01*
X0067332Y0188455D01*
X0067349Y0188542D01*
X0067371Y0188628D01*
X0067397Y0188714D01*
X0067426Y0188798D01*
X0067459Y0188881D01*
X0067495Y0188962D01*
X0067536Y0189042D01*
X0067579Y0189119D01*
X0067626Y0189195D01*
X0067677Y0189268D01*
X0067730Y0189339D01*
X0067787Y0189408D01*
X0067847Y0189474D01*
X0067910Y0189538D01*
X0067975Y0189598D01*
X0068043Y0189656D01*
X0068114Y0189710D01*
X0068187Y0189761D01*
X0068262Y0189809D01*
X0068339Y0189854D01*
X0068418Y0189895D01*
X0068499Y0189932D01*
X0068581Y0189966D01*
X0068665Y0189997D01*
X0068750Y0190023D01*
X0068836Y0190046D01*
X0068923Y0190064D01*
X0069011Y0190079D01*
X0069100Y0190090D01*
X0069189Y0190097D01*
X0069278Y0190100D01*
X0069367Y0190099D01*
X0069456Y0190094D01*
X0069544Y0190085D01*
X0069633Y0190072D01*
X0069720Y0190055D01*
X0069807Y0190035D01*
X0069893Y0190010D01*
X0069977Y0189982D01*
X0070060Y0189950D01*
X0070142Y0189914D01*
X0070222Y0189875D01*
X0070300Y0189832D01*
X0070376Y0189786D01*
X0070450Y0189736D01*
X0070522Y0189683D01*
X0070591Y0189627D01*
X0070658Y0189568D01*
X0070722Y0189506D01*
X0070783Y0189442D01*
X0070842Y0189374D01*
X0070897Y0189304D01*
X0070949Y0189232D01*
X0070998Y0189157D01*
X0071043Y0189081D01*
X0071085Y0189002D01*
X0071123Y0188922D01*
X0071158Y0188840D01*
X0071189Y0188756D01*
X0071217Y0188671D01*
X0071240Y0188585D01*
X0071260Y0188498D01*
X0071276Y0188411D01*
X0071288Y0188322D01*
X0071296Y0188234D01*
X0071300Y0188145D01*
X0071300Y0188055D01*
X0071296Y0187966D01*
X0071288Y0187878D01*
X0071276Y0187789D01*
X0071260Y0187702D01*
X0071240Y0187615D01*
X0071217Y0187529D01*
X0071189Y0187444D01*
X0071158Y0187360D01*
X0071123Y0187278D01*
X0071085Y0187198D01*
X0071043Y0187119D01*
X0070998Y0187043D01*
X0070949Y0186968D01*
X0070897Y0186896D01*
X0070842Y0186826D01*
X0070783Y0186758D01*
X0070722Y0186694D01*
X0070658Y0186632D01*
X0070591Y0186573D01*
X0070522Y0186517D01*
X0070450Y0186464D01*
X0070376Y0186414D01*
X0070300Y0186368D01*
X0070222Y0186325D01*
X0070142Y0186286D01*
X0070060Y0186250D01*
X0069977Y0186218D01*
X0069893Y0186190D01*
X0069807Y0186165D01*
X0069720Y0186145D01*
X0069633Y0186128D01*
X0069544Y0186115D01*
X0069456Y0186106D01*
X0069367Y0186101D01*
X0069278Y0186100D01*
X0069189Y0186103D01*
X0069100Y0186110D01*
X0069011Y0186121D01*
X0068923Y0186136D01*
X0068836Y0186154D01*
X0068750Y0186177D01*
X0068665Y0186203D01*
X0068581Y0186234D01*
X0068499Y0186268D01*
X0068418Y0186305D01*
X0068339Y0186346D01*
X0068262Y0186391D01*
X0068187Y0186439D01*
X0068114Y0186490D01*
X0068043Y0186544D01*
X0067975Y0186602D01*
X0067910Y0186662D01*
X0067847Y0186726D01*
X0067787Y0186792D01*
X0067730Y0186861D01*
X0067677Y0186932D01*
X0067626Y0187005D01*
X0067579Y0187081D01*
X0067536Y0187158D01*
X0067495Y0187238D01*
X0067459Y0187319D01*
X0067426Y0187402D01*
X0067397Y0187486D01*
X0067371Y0187572D01*
X0067349Y0187658D01*
X0067332Y0187745D01*
X0067318Y0187833D01*
X0067308Y0187922D01*
X0067302Y0188011D01*
X0067300Y0188100D01*
X0323300Y0199300D02*
X0323304Y0199631D01*
X0323316Y0199962D01*
X0323337Y0200293D01*
X0323365Y0200623D01*
X0323402Y0200953D01*
X0323446Y0201281D01*
X0323499Y0201608D01*
X0323559Y0201934D01*
X0323628Y0202258D01*
X0323705Y0202580D01*
X0323789Y0202901D01*
X0323881Y0203219D01*
X0323981Y0203535D01*
X0324089Y0203848D01*
X0324205Y0204159D01*
X0324328Y0204466D01*
X0324458Y0204771D01*
X0324596Y0205072D01*
X0324741Y0205370D01*
X0324894Y0205664D01*
X0325054Y0205954D01*
X0325221Y0206240D01*
X0325394Y0206522D01*
X0325575Y0206800D01*
X0325763Y0207073D01*
X0325957Y0207342D01*
X0326157Y0207606D01*
X0326364Y0207864D01*
X0326578Y0208118D01*
X0326797Y0208366D01*
X0327023Y0208609D01*
X0327254Y0208846D01*
X0327491Y0209077D01*
X0327734Y0209303D01*
X0327982Y0209522D01*
X0328236Y0209736D01*
X0328494Y0209943D01*
X0328758Y0210143D01*
X0329027Y0210337D01*
X0329300Y0210525D01*
X0329578Y0210706D01*
X0329860Y0210879D01*
X0330146Y0211046D01*
X0330436Y0211206D01*
X0330730Y0211359D01*
X0331028Y0211504D01*
X0331329Y0211642D01*
X0331634Y0211772D01*
X0331941Y0211895D01*
X0332252Y0212011D01*
X0332565Y0212119D01*
X0332881Y0212219D01*
X0333199Y0212311D01*
X0333520Y0212395D01*
X0333842Y0212472D01*
X0334166Y0212541D01*
X0334492Y0212601D01*
X0334819Y0212654D01*
X0335147Y0212698D01*
X0335477Y0212735D01*
X0335807Y0212763D01*
X0336138Y0212784D01*
X0336469Y0212796D01*
X0336800Y0212800D01*
X0337131Y0212796D01*
X0337462Y0212784D01*
X0337793Y0212763D01*
X0338123Y0212735D01*
X0338453Y0212698D01*
X0338781Y0212654D01*
X0339108Y0212601D01*
X0339434Y0212541D01*
X0339758Y0212472D01*
X0340080Y0212395D01*
X0340401Y0212311D01*
X0340719Y0212219D01*
X0341035Y0212119D01*
X0341348Y0212011D01*
X0341659Y0211895D01*
X0341966Y0211772D01*
X0342271Y0211642D01*
X0342572Y0211504D01*
X0342870Y0211359D01*
X0343164Y0211206D01*
X0343454Y0211046D01*
X0343740Y0210879D01*
X0344022Y0210706D01*
X0344300Y0210525D01*
X0344573Y0210337D01*
X0344842Y0210143D01*
X0345106Y0209943D01*
X0345364Y0209736D01*
X0345618Y0209522D01*
X0345866Y0209303D01*
X0346109Y0209077D01*
X0346346Y0208846D01*
X0346577Y0208609D01*
X0346803Y0208366D01*
X0347022Y0208118D01*
X0347236Y0207864D01*
X0347443Y0207606D01*
X0347643Y0207342D01*
X0347837Y0207073D01*
X0348025Y0206800D01*
X0348206Y0206522D01*
X0348379Y0206240D01*
X0348546Y0205954D01*
X0348706Y0205664D01*
X0348859Y0205370D01*
X0349004Y0205072D01*
X0349142Y0204771D01*
X0349272Y0204466D01*
X0349395Y0204159D01*
X0349511Y0203848D01*
X0349619Y0203535D01*
X0349719Y0203219D01*
X0349811Y0202901D01*
X0349895Y0202580D01*
X0349972Y0202258D01*
X0350041Y0201934D01*
X0350101Y0201608D01*
X0350154Y0201281D01*
X0350198Y0200953D01*
X0350235Y0200623D01*
X0350263Y0200293D01*
X0350284Y0199962D01*
X0350296Y0199631D01*
X0350300Y0199300D01*
X0350296Y0198969D01*
X0350284Y0198638D01*
X0350263Y0198307D01*
X0350235Y0197977D01*
X0350198Y0197647D01*
X0350154Y0197319D01*
X0350101Y0196992D01*
X0350041Y0196666D01*
X0349972Y0196342D01*
X0349895Y0196020D01*
X0349811Y0195699D01*
X0349719Y0195381D01*
X0349619Y0195065D01*
X0349511Y0194752D01*
X0349395Y0194441D01*
X0349272Y0194134D01*
X0349142Y0193829D01*
X0349004Y0193528D01*
X0348859Y0193230D01*
X0348706Y0192936D01*
X0348546Y0192646D01*
X0348379Y0192360D01*
X0348206Y0192078D01*
X0348025Y0191800D01*
X0347837Y0191527D01*
X0347643Y0191258D01*
X0347443Y0190994D01*
X0347236Y0190736D01*
X0347022Y0190482D01*
X0346803Y0190234D01*
X0346577Y0189991D01*
X0346346Y0189754D01*
X0346109Y0189523D01*
X0345866Y0189297D01*
X0345618Y0189078D01*
X0345364Y0188864D01*
X0345106Y0188657D01*
X0344842Y0188457D01*
X0344573Y0188263D01*
X0344300Y0188075D01*
X0344022Y0187894D01*
X0343740Y0187721D01*
X0343454Y0187554D01*
X0343164Y0187394D01*
X0342870Y0187241D01*
X0342572Y0187096D01*
X0342271Y0186958D01*
X0341966Y0186828D01*
X0341659Y0186705D01*
X0341348Y0186589D01*
X0341035Y0186481D01*
X0340719Y0186381D01*
X0340401Y0186289D01*
X0340080Y0186205D01*
X0339758Y0186128D01*
X0339434Y0186059D01*
X0339108Y0185999D01*
X0338781Y0185946D01*
X0338453Y0185902D01*
X0338123Y0185865D01*
X0337793Y0185837D01*
X0337462Y0185816D01*
X0337131Y0185804D01*
X0336800Y0185800D01*
X0336469Y0185804D01*
X0336138Y0185816D01*
X0335807Y0185837D01*
X0335477Y0185865D01*
X0335147Y0185902D01*
X0334819Y0185946D01*
X0334492Y0185999D01*
X0334166Y0186059D01*
X0333842Y0186128D01*
X0333520Y0186205D01*
X0333199Y0186289D01*
X0332881Y0186381D01*
X0332565Y0186481D01*
X0332252Y0186589D01*
X0331941Y0186705D01*
X0331634Y0186828D01*
X0331329Y0186958D01*
X0331028Y0187096D01*
X0330730Y0187241D01*
X0330436Y0187394D01*
X0330146Y0187554D01*
X0329860Y0187721D01*
X0329578Y0187894D01*
X0329300Y0188075D01*
X0329027Y0188263D01*
X0328758Y0188457D01*
X0328494Y0188657D01*
X0328236Y0188864D01*
X0327982Y0189078D01*
X0327734Y0189297D01*
X0327491Y0189523D01*
X0327254Y0189754D01*
X0327023Y0189991D01*
X0326797Y0190234D01*
X0326578Y0190482D01*
X0326364Y0190736D01*
X0326157Y0190994D01*
X0325957Y0191258D01*
X0325763Y0191527D01*
X0325575Y0191800D01*
X0325394Y0192078D01*
X0325221Y0192360D01*
X0325054Y0192646D01*
X0324894Y0192936D01*
X0324741Y0193230D01*
X0324596Y0193528D01*
X0324458Y0193829D01*
X0324328Y0194134D01*
X0324205Y0194441D01*
X0324089Y0194752D01*
X0323981Y0195065D01*
X0323881Y0195381D01*
X0323789Y0195699D01*
X0323705Y0196020D01*
X0323628Y0196342D01*
X0323559Y0196666D01*
X0323499Y0196992D01*
X0323446Y0197319D01*
X0323402Y0197647D01*
X0323365Y0197977D01*
X0323337Y0198307D01*
X0323316Y0198638D01*
X0323304Y0198969D01*
X0323300Y0199300D01*
X0323300Y0024300D02*
X0323304Y0024631D01*
X0323316Y0024962D01*
X0323337Y0025293D01*
X0323365Y0025623D01*
X0323402Y0025953D01*
X0323446Y0026281D01*
X0323499Y0026608D01*
X0323559Y0026934D01*
X0323628Y0027258D01*
X0323705Y0027580D01*
X0323789Y0027901D01*
X0323881Y0028219D01*
X0323981Y0028535D01*
X0324089Y0028848D01*
X0324205Y0029159D01*
X0324328Y0029466D01*
X0324458Y0029771D01*
X0324596Y0030072D01*
X0324741Y0030370D01*
X0324894Y0030664D01*
X0325054Y0030954D01*
X0325221Y0031240D01*
X0325394Y0031522D01*
X0325575Y0031800D01*
X0325763Y0032073D01*
X0325957Y0032342D01*
X0326157Y0032606D01*
X0326364Y0032864D01*
X0326578Y0033118D01*
X0326797Y0033366D01*
X0327023Y0033609D01*
X0327254Y0033846D01*
X0327491Y0034077D01*
X0327734Y0034303D01*
X0327982Y0034522D01*
X0328236Y0034736D01*
X0328494Y0034943D01*
X0328758Y0035143D01*
X0329027Y0035337D01*
X0329300Y0035525D01*
X0329578Y0035706D01*
X0329860Y0035879D01*
X0330146Y0036046D01*
X0330436Y0036206D01*
X0330730Y0036359D01*
X0331028Y0036504D01*
X0331329Y0036642D01*
X0331634Y0036772D01*
X0331941Y0036895D01*
X0332252Y0037011D01*
X0332565Y0037119D01*
X0332881Y0037219D01*
X0333199Y0037311D01*
X0333520Y0037395D01*
X0333842Y0037472D01*
X0334166Y0037541D01*
X0334492Y0037601D01*
X0334819Y0037654D01*
X0335147Y0037698D01*
X0335477Y0037735D01*
X0335807Y0037763D01*
X0336138Y0037784D01*
X0336469Y0037796D01*
X0336800Y0037800D01*
X0337131Y0037796D01*
X0337462Y0037784D01*
X0337793Y0037763D01*
X0338123Y0037735D01*
X0338453Y0037698D01*
X0338781Y0037654D01*
X0339108Y0037601D01*
X0339434Y0037541D01*
X0339758Y0037472D01*
X0340080Y0037395D01*
X0340401Y0037311D01*
X0340719Y0037219D01*
X0341035Y0037119D01*
X0341348Y0037011D01*
X0341659Y0036895D01*
X0341966Y0036772D01*
X0342271Y0036642D01*
X0342572Y0036504D01*
X0342870Y0036359D01*
X0343164Y0036206D01*
X0343454Y0036046D01*
X0343740Y0035879D01*
X0344022Y0035706D01*
X0344300Y0035525D01*
X0344573Y0035337D01*
X0344842Y0035143D01*
X0345106Y0034943D01*
X0345364Y0034736D01*
X0345618Y0034522D01*
X0345866Y0034303D01*
X0346109Y0034077D01*
X0346346Y0033846D01*
X0346577Y0033609D01*
X0346803Y0033366D01*
X0347022Y0033118D01*
X0347236Y0032864D01*
X0347443Y0032606D01*
X0347643Y0032342D01*
X0347837Y0032073D01*
X0348025Y0031800D01*
X0348206Y0031522D01*
X0348379Y0031240D01*
X0348546Y0030954D01*
X0348706Y0030664D01*
X0348859Y0030370D01*
X0349004Y0030072D01*
X0349142Y0029771D01*
X0349272Y0029466D01*
X0349395Y0029159D01*
X0349511Y0028848D01*
X0349619Y0028535D01*
X0349719Y0028219D01*
X0349811Y0027901D01*
X0349895Y0027580D01*
X0349972Y0027258D01*
X0350041Y0026934D01*
X0350101Y0026608D01*
X0350154Y0026281D01*
X0350198Y0025953D01*
X0350235Y0025623D01*
X0350263Y0025293D01*
X0350284Y0024962D01*
X0350296Y0024631D01*
X0350300Y0024300D01*
X0350296Y0023969D01*
X0350284Y0023638D01*
X0350263Y0023307D01*
X0350235Y0022977D01*
X0350198Y0022647D01*
X0350154Y0022319D01*
X0350101Y0021992D01*
X0350041Y0021666D01*
X0349972Y0021342D01*
X0349895Y0021020D01*
X0349811Y0020699D01*
X0349719Y0020381D01*
X0349619Y0020065D01*
X0349511Y0019752D01*
X0349395Y0019441D01*
X0349272Y0019134D01*
X0349142Y0018829D01*
X0349004Y0018528D01*
X0348859Y0018230D01*
X0348706Y0017936D01*
X0348546Y0017646D01*
X0348379Y0017360D01*
X0348206Y0017078D01*
X0348025Y0016800D01*
X0347837Y0016527D01*
X0347643Y0016258D01*
X0347443Y0015994D01*
X0347236Y0015736D01*
X0347022Y0015482D01*
X0346803Y0015234D01*
X0346577Y0014991D01*
X0346346Y0014754D01*
X0346109Y0014523D01*
X0345866Y0014297D01*
X0345618Y0014078D01*
X0345364Y0013864D01*
X0345106Y0013657D01*
X0344842Y0013457D01*
X0344573Y0013263D01*
X0344300Y0013075D01*
X0344022Y0012894D01*
X0343740Y0012721D01*
X0343454Y0012554D01*
X0343164Y0012394D01*
X0342870Y0012241D01*
X0342572Y0012096D01*
X0342271Y0011958D01*
X0341966Y0011828D01*
X0341659Y0011705D01*
X0341348Y0011589D01*
X0341035Y0011481D01*
X0340719Y0011381D01*
X0340401Y0011289D01*
X0340080Y0011205D01*
X0339758Y0011128D01*
X0339434Y0011059D01*
X0339108Y0010999D01*
X0338781Y0010946D01*
X0338453Y0010902D01*
X0338123Y0010865D01*
X0337793Y0010837D01*
X0337462Y0010816D01*
X0337131Y0010804D01*
X0336800Y0010800D01*
X0336469Y0010804D01*
X0336138Y0010816D01*
X0335807Y0010837D01*
X0335477Y0010865D01*
X0335147Y0010902D01*
X0334819Y0010946D01*
X0334492Y0010999D01*
X0334166Y0011059D01*
X0333842Y0011128D01*
X0333520Y0011205D01*
X0333199Y0011289D01*
X0332881Y0011381D01*
X0332565Y0011481D01*
X0332252Y0011589D01*
X0331941Y0011705D01*
X0331634Y0011828D01*
X0331329Y0011958D01*
X0331028Y0012096D01*
X0330730Y0012241D01*
X0330436Y0012394D01*
X0330146Y0012554D01*
X0329860Y0012721D01*
X0329578Y0012894D01*
X0329300Y0013075D01*
X0329027Y0013263D01*
X0328758Y0013457D01*
X0328494Y0013657D01*
X0328236Y0013864D01*
X0327982Y0014078D01*
X0327734Y0014297D01*
X0327491Y0014523D01*
X0327254Y0014754D01*
X0327023Y0014991D01*
X0326797Y0015234D01*
X0326578Y0015482D01*
X0326364Y0015736D01*
X0326157Y0015994D01*
X0325957Y0016258D01*
X0325763Y0016527D01*
X0325575Y0016800D01*
X0325394Y0017078D01*
X0325221Y0017360D01*
X0325054Y0017646D01*
X0324894Y0017936D01*
X0324741Y0018230D01*
X0324596Y0018528D01*
X0324458Y0018829D01*
X0324328Y0019134D01*
X0324205Y0019441D01*
X0324089Y0019752D01*
X0323981Y0020065D01*
X0323881Y0020381D01*
X0323789Y0020699D01*
X0323705Y0021020D01*
X0323628Y0021342D01*
X0323559Y0021666D01*
X0323499Y0021992D01*
X0323446Y0022319D01*
X0323402Y0022647D01*
X0323365Y0022977D01*
X0323337Y0023307D01*
X0323316Y0023638D01*
X0323304Y0023969D01*
X0323300Y0024300D01*
D14*
X0354261Y0048690D02*
X0274339Y0048690D01*
X0274339Y0174910D01*
X0354261Y0174910D01*
X0354261Y0048690D01*
X0269261Y0048690D02*
X0189339Y0048690D01*
X0189339Y0174910D01*
X0269261Y0174910D01*
X0269261Y0048690D01*
X0184261Y0048690D02*
X0104339Y0048690D01*
X0104339Y0174910D01*
X0184261Y0174910D01*
X0184261Y0048690D01*
X0099261Y0048690D02*
X0019339Y0048690D01*
X0019339Y0174910D01*
X0099261Y0174910D01*
X0099261Y0048690D01*
D15*
X0270100Y0181800D03*
X0270100Y0191800D03*
X0270100Y0201800D03*
X0270100Y0211800D03*
X0298500Y0211800D03*
X0298500Y0201800D03*
X0298500Y0191800D03*
X0298500Y0181800D03*
D16*
X0330107Y0199300D02*
X0330109Y0199464D01*
X0330115Y0199628D01*
X0330125Y0199792D01*
X0330139Y0199956D01*
X0330157Y0200119D01*
X0330179Y0200282D01*
X0330206Y0200444D01*
X0330236Y0200606D01*
X0330270Y0200766D01*
X0330308Y0200926D01*
X0330349Y0201085D01*
X0330395Y0201243D01*
X0330445Y0201399D01*
X0330498Y0201555D01*
X0330555Y0201709D01*
X0330616Y0201861D01*
X0330681Y0202012D01*
X0330750Y0202162D01*
X0330822Y0202309D01*
X0330897Y0202455D01*
X0330977Y0202599D01*
X0331059Y0202741D01*
X0331145Y0202881D01*
X0331235Y0203018D01*
X0331328Y0203154D01*
X0331424Y0203287D01*
X0331524Y0203418D01*
X0331626Y0203546D01*
X0331732Y0203672D01*
X0331841Y0203795D01*
X0331953Y0203915D01*
X0332067Y0204033D01*
X0332185Y0204147D01*
X0332305Y0204259D01*
X0332428Y0204368D01*
X0332554Y0204474D01*
X0332682Y0204576D01*
X0332813Y0204676D01*
X0332946Y0204772D01*
X0333082Y0204865D01*
X0333219Y0204955D01*
X0333359Y0205041D01*
X0333501Y0205123D01*
X0333645Y0205203D01*
X0333791Y0205278D01*
X0333938Y0205350D01*
X0334088Y0205419D01*
X0334239Y0205484D01*
X0334391Y0205545D01*
X0334545Y0205602D01*
X0334701Y0205655D01*
X0334857Y0205705D01*
X0335015Y0205751D01*
X0335174Y0205792D01*
X0335334Y0205830D01*
X0335494Y0205864D01*
X0335656Y0205894D01*
X0335818Y0205921D01*
X0335981Y0205943D01*
X0336144Y0205961D01*
X0336308Y0205975D01*
X0336472Y0205985D01*
X0336636Y0205991D01*
X0336800Y0205993D01*
X0336964Y0205991D01*
X0337128Y0205985D01*
X0337292Y0205975D01*
X0337456Y0205961D01*
X0337619Y0205943D01*
X0337782Y0205921D01*
X0337944Y0205894D01*
X0338106Y0205864D01*
X0338266Y0205830D01*
X0338426Y0205792D01*
X0338585Y0205751D01*
X0338743Y0205705D01*
X0338899Y0205655D01*
X0339055Y0205602D01*
X0339209Y0205545D01*
X0339361Y0205484D01*
X0339512Y0205419D01*
X0339662Y0205350D01*
X0339809Y0205278D01*
X0339955Y0205203D01*
X0340099Y0205123D01*
X0340241Y0205041D01*
X0340381Y0204955D01*
X0340518Y0204865D01*
X0340654Y0204772D01*
X0340787Y0204676D01*
X0340918Y0204576D01*
X0341046Y0204474D01*
X0341172Y0204368D01*
X0341295Y0204259D01*
X0341415Y0204147D01*
X0341533Y0204033D01*
X0341647Y0203915D01*
X0341759Y0203795D01*
X0341868Y0203672D01*
X0341974Y0203546D01*
X0342076Y0203418D01*
X0342176Y0203287D01*
X0342272Y0203154D01*
X0342365Y0203018D01*
X0342455Y0202881D01*
X0342541Y0202741D01*
X0342623Y0202599D01*
X0342703Y0202455D01*
X0342778Y0202309D01*
X0342850Y0202162D01*
X0342919Y0202012D01*
X0342984Y0201861D01*
X0343045Y0201709D01*
X0343102Y0201555D01*
X0343155Y0201399D01*
X0343205Y0201243D01*
X0343251Y0201085D01*
X0343292Y0200926D01*
X0343330Y0200766D01*
X0343364Y0200606D01*
X0343394Y0200444D01*
X0343421Y0200282D01*
X0343443Y0200119D01*
X0343461Y0199956D01*
X0343475Y0199792D01*
X0343485Y0199628D01*
X0343491Y0199464D01*
X0343493Y0199300D01*
X0343491Y0199136D01*
X0343485Y0198972D01*
X0343475Y0198808D01*
X0343461Y0198644D01*
X0343443Y0198481D01*
X0343421Y0198318D01*
X0343394Y0198156D01*
X0343364Y0197994D01*
X0343330Y0197834D01*
X0343292Y0197674D01*
X0343251Y0197515D01*
X0343205Y0197357D01*
X0343155Y0197201D01*
X0343102Y0197045D01*
X0343045Y0196891D01*
X0342984Y0196739D01*
X0342919Y0196588D01*
X0342850Y0196438D01*
X0342778Y0196291D01*
X0342703Y0196145D01*
X0342623Y0196001D01*
X0342541Y0195859D01*
X0342455Y0195719D01*
X0342365Y0195582D01*
X0342272Y0195446D01*
X0342176Y0195313D01*
X0342076Y0195182D01*
X0341974Y0195054D01*
X0341868Y0194928D01*
X0341759Y0194805D01*
X0341647Y0194685D01*
X0341533Y0194567D01*
X0341415Y0194453D01*
X0341295Y0194341D01*
X0341172Y0194232D01*
X0341046Y0194126D01*
X0340918Y0194024D01*
X0340787Y0193924D01*
X0340654Y0193828D01*
X0340518Y0193735D01*
X0340381Y0193645D01*
X0340241Y0193559D01*
X0340099Y0193477D01*
X0339955Y0193397D01*
X0339809Y0193322D01*
X0339662Y0193250D01*
X0339512Y0193181D01*
X0339361Y0193116D01*
X0339209Y0193055D01*
X0339055Y0192998D01*
X0338899Y0192945D01*
X0338743Y0192895D01*
X0338585Y0192849D01*
X0338426Y0192808D01*
X0338266Y0192770D01*
X0338106Y0192736D01*
X0337944Y0192706D01*
X0337782Y0192679D01*
X0337619Y0192657D01*
X0337456Y0192639D01*
X0337292Y0192625D01*
X0337128Y0192615D01*
X0336964Y0192609D01*
X0336800Y0192607D01*
X0336636Y0192609D01*
X0336472Y0192615D01*
X0336308Y0192625D01*
X0336144Y0192639D01*
X0335981Y0192657D01*
X0335818Y0192679D01*
X0335656Y0192706D01*
X0335494Y0192736D01*
X0335334Y0192770D01*
X0335174Y0192808D01*
X0335015Y0192849D01*
X0334857Y0192895D01*
X0334701Y0192945D01*
X0334545Y0192998D01*
X0334391Y0193055D01*
X0334239Y0193116D01*
X0334088Y0193181D01*
X0333938Y0193250D01*
X0333791Y0193322D01*
X0333645Y0193397D01*
X0333501Y0193477D01*
X0333359Y0193559D01*
X0333219Y0193645D01*
X0333082Y0193735D01*
X0332946Y0193828D01*
X0332813Y0193924D01*
X0332682Y0194024D01*
X0332554Y0194126D01*
X0332428Y0194232D01*
X0332305Y0194341D01*
X0332185Y0194453D01*
X0332067Y0194567D01*
X0331953Y0194685D01*
X0331841Y0194805D01*
X0331732Y0194928D01*
X0331626Y0195054D01*
X0331524Y0195182D01*
X0331424Y0195313D01*
X0331328Y0195446D01*
X0331235Y0195582D01*
X0331145Y0195719D01*
X0331059Y0195859D01*
X0330977Y0196001D01*
X0330897Y0196145D01*
X0330822Y0196291D01*
X0330750Y0196438D01*
X0330681Y0196588D01*
X0330616Y0196739D01*
X0330555Y0196891D01*
X0330498Y0197045D01*
X0330445Y0197201D01*
X0330395Y0197357D01*
X0330349Y0197515D01*
X0330308Y0197674D01*
X0330270Y0197834D01*
X0330236Y0197994D01*
X0330206Y0198156D01*
X0330179Y0198318D01*
X0330157Y0198481D01*
X0330139Y0198644D01*
X0330125Y0198808D01*
X0330115Y0198972D01*
X0330109Y0199136D01*
X0330107Y0199300D01*
X0330107Y0024300D02*
X0330109Y0024464D01*
X0330115Y0024628D01*
X0330125Y0024792D01*
X0330139Y0024956D01*
X0330157Y0025119D01*
X0330179Y0025282D01*
X0330206Y0025444D01*
X0330236Y0025606D01*
X0330270Y0025766D01*
X0330308Y0025926D01*
X0330349Y0026085D01*
X0330395Y0026243D01*
X0330445Y0026399D01*
X0330498Y0026555D01*
X0330555Y0026709D01*
X0330616Y0026861D01*
X0330681Y0027012D01*
X0330750Y0027162D01*
X0330822Y0027309D01*
X0330897Y0027455D01*
X0330977Y0027599D01*
X0331059Y0027741D01*
X0331145Y0027881D01*
X0331235Y0028018D01*
X0331328Y0028154D01*
X0331424Y0028287D01*
X0331524Y0028418D01*
X0331626Y0028546D01*
X0331732Y0028672D01*
X0331841Y0028795D01*
X0331953Y0028915D01*
X0332067Y0029033D01*
X0332185Y0029147D01*
X0332305Y0029259D01*
X0332428Y0029368D01*
X0332554Y0029474D01*
X0332682Y0029576D01*
X0332813Y0029676D01*
X0332946Y0029772D01*
X0333082Y0029865D01*
X0333219Y0029955D01*
X0333359Y0030041D01*
X0333501Y0030123D01*
X0333645Y0030203D01*
X0333791Y0030278D01*
X0333938Y0030350D01*
X0334088Y0030419D01*
X0334239Y0030484D01*
X0334391Y0030545D01*
X0334545Y0030602D01*
X0334701Y0030655D01*
X0334857Y0030705D01*
X0335015Y0030751D01*
X0335174Y0030792D01*
X0335334Y0030830D01*
X0335494Y0030864D01*
X0335656Y0030894D01*
X0335818Y0030921D01*
X0335981Y0030943D01*
X0336144Y0030961D01*
X0336308Y0030975D01*
X0336472Y0030985D01*
X0336636Y0030991D01*
X0336800Y0030993D01*
X0336964Y0030991D01*
X0337128Y0030985D01*
X0337292Y0030975D01*
X0337456Y0030961D01*
X0337619Y0030943D01*
X0337782Y0030921D01*
X0337944Y0030894D01*
X0338106Y0030864D01*
X0338266Y0030830D01*
X0338426Y0030792D01*
X0338585Y0030751D01*
X0338743Y0030705D01*
X0338899Y0030655D01*
X0339055Y0030602D01*
X0339209Y0030545D01*
X0339361Y0030484D01*
X0339512Y0030419D01*
X0339662Y0030350D01*
X0339809Y0030278D01*
X0339955Y0030203D01*
X0340099Y0030123D01*
X0340241Y0030041D01*
X0340381Y0029955D01*
X0340518Y0029865D01*
X0340654Y0029772D01*
X0340787Y0029676D01*
X0340918Y0029576D01*
X0341046Y0029474D01*
X0341172Y0029368D01*
X0341295Y0029259D01*
X0341415Y0029147D01*
X0341533Y0029033D01*
X0341647Y0028915D01*
X0341759Y0028795D01*
X0341868Y0028672D01*
X0341974Y0028546D01*
X0342076Y0028418D01*
X0342176Y0028287D01*
X0342272Y0028154D01*
X0342365Y0028018D01*
X0342455Y0027881D01*
X0342541Y0027741D01*
X0342623Y0027599D01*
X0342703Y0027455D01*
X0342778Y0027309D01*
X0342850Y0027162D01*
X0342919Y0027012D01*
X0342984Y0026861D01*
X0343045Y0026709D01*
X0343102Y0026555D01*
X0343155Y0026399D01*
X0343205Y0026243D01*
X0343251Y0026085D01*
X0343292Y0025926D01*
X0343330Y0025766D01*
X0343364Y0025606D01*
X0343394Y0025444D01*
X0343421Y0025282D01*
X0343443Y0025119D01*
X0343461Y0024956D01*
X0343475Y0024792D01*
X0343485Y0024628D01*
X0343491Y0024464D01*
X0343493Y0024300D01*
X0343491Y0024136D01*
X0343485Y0023972D01*
X0343475Y0023808D01*
X0343461Y0023644D01*
X0343443Y0023481D01*
X0343421Y0023318D01*
X0343394Y0023156D01*
X0343364Y0022994D01*
X0343330Y0022834D01*
X0343292Y0022674D01*
X0343251Y0022515D01*
X0343205Y0022357D01*
X0343155Y0022201D01*
X0343102Y0022045D01*
X0343045Y0021891D01*
X0342984Y0021739D01*
X0342919Y0021588D01*
X0342850Y0021438D01*
X0342778Y0021291D01*
X0342703Y0021145D01*
X0342623Y0021001D01*
X0342541Y0020859D01*
X0342455Y0020719D01*
X0342365Y0020582D01*
X0342272Y0020446D01*
X0342176Y0020313D01*
X0342076Y0020182D01*
X0341974Y0020054D01*
X0341868Y0019928D01*
X0341759Y0019805D01*
X0341647Y0019685D01*
X0341533Y0019567D01*
X0341415Y0019453D01*
X0341295Y0019341D01*
X0341172Y0019232D01*
X0341046Y0019126D01*
X0340918Y0019024D01*
X0340787Y0018924D01*
X0340654Y0018828D01*
X0340518Y0018735D01*
X0340381Y0018645D01*
X0340241Y0018559D01*
X0340099Y0018477D01*
X0339955Y0018397D01*
X0339809Y0018322D01*
X0339662Y0018250D01*
X0339512Y0018181D01*
X0339361Y0018116D01*
X0339209Y0018055D01*
X0339055Y0017998D01*
X0338899Y0017945D01*
X0338743Y0017895D01*
X0338585Y0017849D01*
X0338426Y0017808D01*
X0338266Y0017770D01*
X0338106Y0017736D01*
X0337944Y0017706D01*
X0337782Y0017679D01*
X0337619Y0017657D01*
X0337456Y0017639D01*
X0337292Y0017625D01*
X0337128Y0017615D01*
X0336964Y0017609D01*
X0336800Y0017607D01*
X0336636Y0017609D01*
X0336472Y0017615D01*
X0336308Y0017625D01*
X0336144Y0017639D01*
X0335981Y0017657D01*
X0335818Y0017679D01*
X0335656Y0017706D01*
X0335494Y0017736D01*
X0335334Y0017770D01*
X0335174Y0017808D01*
X0335015Y0017849D01*
X0334857Y0017895D01*
X0334701Y0017945D01*
X0334545Y0017998D01*
X0334391Y0018055D01*
X0334239Y0018116D01*
X0334088Y0018181D01*
X0333938Y0018250D01*
X0333791Y0018322D01*
X0333645Y0018397D01*
X0333501Y0018477D01*
X0333359Y0018559D01*
X0333219Y0018645D01*
X0333082Y0018735D01*
X0332946Y0018828D01*
X0332813Y0018924D01*
X0332682Y0019024D01*
X0332554Y0019126D01*
X0332428Y0019232D01*
X0332305Y0019341D01*
X0332185Y0019453D01*
X0332067Y0019567D01*
X0331953Y0019685D01*
X0331841Y0019805D01*
X0331732Y0019928D01*
X0331626Y0020054D01*
X0331524Y0020182D01*
X0331424Y0020313D01*
X0331328Y0020446D01*
X0331235Y0020582D01*
X0331145Y0020719D01*
X0331059Y0020859D01*
X0330977Y0021001D01*
X0330897Y0021145D01*
X0330822Y0021291D01*
X0330750Y0021438D01*
X0330681Y0021588D01*
X0330616Y0021739D01*
X0330555Y0021891D01*
X0330498Y0022045D01*
X0330445Y0022201D01*
X0330395Y0022357D01*
X0330349Y0022515D01*
X0330308Y0022674D01*
X0330270Y0022834D01*
X0330236Y0022994D01*
X0330206Y0023156D01*
X0330179Y0023318D01*
X0330157Y0023481D01*
X0330139Y0023644D01*
X0330125Y0023808D01*
X0330115Y0023972D01*
X0330109Y0024136D01*
X0330107Y0024300D01*
X0030107Y0024300D02*
X0030109Y0024464D01*
X0030115Y0024628D01*
X0030125Y0024792D01*
X0030139Y0024956D01*
X0030157Y0025119D01*
X0030179Y0025282D01*
X0030206Y0025444D01*
X0030236Y0025606D01*
X0030270Y0025766D01*
X0030308Y0025926D01*
X0030349Y0026085D01*
X0030395Y0026243D01*
X0030445Y0026399D01*
X0030498Y0026555D01*
X0030555Y0026709D01*
X0030616Y0026861D01*
X0030681Y0027012D01*
X0030750Y0027162D01*
X0030822Y0027309D01*
X0030897Y0027455D01*
X0030977Y0027599D01*
X0031059Y0027741D01*
X0031145Y0027881D01*
X0031235Y0028018D01*
X0031328Y0028154D01*
X0031424Y0028287D01*
X0031524Y0028418D01*
X0031626Y0028546D01*
X0031732Y0028672D01*
X0031841Y0028795D01*
X0031953Y0028915D01*
X0032067Y0029033D01*
X0032185Y0029147D01*
X0032305Y0029259D01*
X0032428Y0029368D01*
X0032554Y0029474D01*
X0032682Y0029576D01*
X0032813Y0029676D01*
X0032946Y0029772D01*
X0033082Y0029865D01*
X0033219Y0029955D01*
X0033359Y0030041D01*
X0033501Y0030123D01*
X0033645Y0030203D01*
X0033791Y0030278D01*
X0033938Y0030350D01*
X0034088Y0030419D01*
X0034239Y0030484D01*
X0034391Y0030545D01*
X0034545Y0030602D01*
X0034701Y0030655D01*
X0034857Y0030705D01*
X0035015Y0030751D01*
X0035174Y0030792D01*
X0035334Y0030830D01*
X0035494Y0030864D01*
X0035656Y0030894D01*
X0035818Y0030921D01*
X0035981Y0030943D01*
X0036144Y0030961D01*
X0036308Y0030975D01*
X0036472Y0030985D01*
X0036636Y0030991D01*
X0036800Y0030993D01*
X0036964Y0030991D01*
X0037128Y0030985D01*
X0037292Y0030975D01*
X0037456Y0030961D01*
X0037619Y0030943D01*
X0037782Y0030921D01*
X0037944Y0030894D01*
X0038106Y0030864D01*
X0038266Y0030830D01*
X0038426Y0030792D01*
X0038585Y0030751D01*
X0038743Y0030705D01*
X0038899Y0030655D01*
X0039055Y0030602D01*
X0039209Y0030545D01*
X0039361Y0030484D01*
X0039512Y0030419D01*
X0039662Y0030350D01*
X0039809Y0030278D01*
X0039955Y0030203D01*
X0040099Y0030123D01*
X0040241Y0030041D01*
X0040381Y0029955D01*
X0040518Y0029865D01*
X0040654Y0029772D01*
X0040787Y0029676D01*
X0040918Y0029576D01*
X0041046Y0029474D01*
X0041172Y0029368D01*
X0041295Y0029259D01*
X0041415Y0029147D01*
X0041533Y0029033D01*
X0041647Y0028915D01*
X0041759Y0028795D01*
X0041868Y0028672D01*
X0041974Y0028546D01*
X0042076Y0028418D01*
X0042176Y0028287D01*
X0042272Y0028154D01*
X0042365Y0028018D01*
X0042455Y0027881D01*
X0042541Y0027741D01*
X0042623Y0027599D01*
X0042703Y0027455D01*
X0042778Y0027309D01*
X0042850Y0027162D01*
X0042919Y0027012D01*
X0042984Y0026861D01*
X0043045Y0026709D01*
X0043102Y0026555D01*
X0043155Y0026399D01*
X0043205Y0026243D01*
X0043251Y0026085D01*
X0043292Y0025926D01*
X0043330Y0025766D01*
X0043364Y0025606D01*
X0043394Y0025444D01*
X0043421Y0025282D01*
X0043443Y0025119D01*
X0043461Y0024956D01*
X0043475Y0024792D01*
X0043485Y0024628D01*
X0043491Y0024464D01*
X0043493Y0024300D01*
X0043491Y0024136D01*
X0043485Y0023972D01*
X0043475Y0023808D01*
X0043461Y0023644D01*
X0043443Y0023481D01*
X0043421Y0023318D01*
X0043394Y0023156D01*
X0043364Y0022994D01*
X0043330Y0022834D01*
X0043292Y0022674D01*
X0043251Y0022515D01*
X0043205Y0022357D01*
X0043155Y0022201D01*
X0043102Y0022045D01*
X0043045Y0021891D01*
X0042984Y0021739D01*
X0042919Y0021588D01*
X0042850Y0021438D01*
X0042778Y0021291D01*
X0042703Y0021145D01*
X0042623Y0021001D01*
X0042541Y0020859D01*
X0042455Y0020719D01*
X0042365Y0020582D01*
X0042272Y0020446D01*
X0042176Y0020313D01*
X0042076Y0020182D01*
X0041974Y0020054D01*
X0041868Y0019928D01*
X0041759Y0019805D01*
X0041647Y0019685D01*
X0041533Y0019567D01*
X0041415Y0019453D01*
X0041295Y0019341D01*
X0041172Y0019232D01*
X0041046Y0019126D01*
X0040918Y0019024D01*
X0040787Y0018924D01*
X0040654Y0018828D01*
X0040518Y0018735D01*
X0040381Y0018645D01*
X0040241Y0018559D01*
X0040099Y0018477D01*
X0039955Y0018397D01*
X0039809Y0018322D01*
X0039662Y0018250D01*
X0039512Y0018181D01*
X0039361Y0018116D01*
X0039209Y0018055D01*
X0039055Y0017998D01*
X0038899Y0017945D01*
X0038743Y0017895D01*
X0038585Y0017849D01*
X0038426Y0017808D01*
X0038266Y0017770D01*
X0038106Y0017736D01*
X0037944Y0017706D01*
X0037782Y0017679D01*
X0037619Y0017657D01*
X0037456Y0017639D01*
X0037292Y0017625D01*
X0037128Y0017615D01*
X0036964Y0017609D01*
X0036800Y0017607D01*
X0036636Y0017609D01*
X0036472Y0017615D01*
X0036308Y0017625D01*
X0036144Y0017639D01*
X0035981Y0017657D01*
X0035818Y0017679D01*
X0035656Y0017706D01*
X0035494Y0017736D01*
X0035334Y0017770D01*
X0035174Y0017808D01*
X0035015Y0017849D01*
X0034857Y0017895D01*
X0034701Y0017945D01*
X0034545Y0017998D01*
X0034391Y0018055D01*
X0034239Y0018116D01*
X0034088Y0018181D01*
X0033938Y0018250D01*
X0033791Y0018322D01*
X0033645Y0018397D01*
X0033501Y0018477D01*
X0033359Y0018559D01*
X0033219Y0018645D01*
X0033082Y0018735D01*
X0032946Y0018828D01*
X0032813Y0018924D01*
X0032682Y0019024D01*
X0032554Y0019126D01*
X0032428Y0019232D01*
X0032305Y0019341D01*
X0032185Y0019453D01*
X0032067Y0019567D01*
X0031953Y0019685D01*
X0031841Y0019805D01*
X0031732Y0019928D01*
X0031626Y0020054D01*
X0031524Y0020182D01*
X0031424Y0020313D01*
X0031328Y0020446D01*
X0031235Y0020582D01*
X0031145Y0020719D01*
X0031059Y0020859D01*
X0030977Y0021001D01*
X0030897Y0021145D01*
X0030822Y0021291D01*
X0030750Y0021438D01*
X0030681Y0021588D01*
X0030616Y0021739D01*
X0030555Y0021891D01*
X0030498Y0022045D01*
X0030445Y0022201D01*
X0030395Y0022357D01*
X0030349Y0022515D01*
X0030308Y0022674D01*
X0030270Y0022834D01*
X0030236Y0022994D01*
X0030206Y0023156D01*
X0030179Y0023318D01*
X0030157Y0023481D01*
X0030139Y0023644D01*
X0030125Y0023808D01*
X0030115Y0023972D01*
X0030109Y0024136D01*
X0030107Y0024300D01*
X0030107Y0199300D02*
X0030109Y0199464D01*
X0030115Y0199628D01*
X0030125Y0199792D01*
X0030139Y0199956D01*
X0030157Y0200119D01*
X0030179Y0200282D01*
X0030206Y0200444D01*
X0030236Y0200606D01*
X0030270Y0200766D01*
X0030308Y0200926D01*
X0030349Y0201085D01*
X0030395Y0201243D01*
X0030445Y0201399D01*
X0030498Y0201555D01*
X0030555Y0201709D01*
X0030616Y0201861D01*
X0030681Y0202012D01*
X0030750Y0202162D01*
X0030822Y0202309D01*
X0030897Y0202455D01*
X0030977Y0202599D01*
X0031059Y0202741D01*
X0031145Y0202881D01*
X0031235Y0203018D01*
X0031328Y0203154D01*
X0031424Y0203287D01*
X0031524Y0203418D01*
X0031626Y0203546D01*
X0031732Y0203672D01*
X0031841Y0203795D01*
X0031953Y0203915D01*
X0032067Y0204033D01*
X0032185Y0204147D01*
X0032305Y0204259D01*
X0032428Y0204368D01*
X0032554Y0204474D01*
X0032682Y0204576D01*
X0032813Y0204676D01*
X0032946Y0204772D01*
X0033082Y0204865D01*
X0033219Y0204955D01*
X0033359Y0205041D01*
X0033501Y0205123D01*
X0033645Y0205203D01*
X0033791Y0205278D01*
X0033938Y0205350D01*
X0034088Y0205419D01*
X0034239Y0205484D01*
X0034391Y0205545D01*
X0034545Y0205602D01*
X0034701Y0205655D01*
X0034857Y0205705D01*
X0035015Y0205751D01*
X0035174Y0205792D01*
X0035334Y0205830D01*
X0035494Y0205864D01*
X0035656Y0205894D01*
X0035818Y0205921D01*
X0035981Y0205943D01*
X0036144Y0205961D01*
X0036308Y0205975D01*
X0036472Y0205985D01*
X0036636Y0205991D01*
X0036800Y0205993D01*
X0036964Y0205991D01*
X0037128Y0205985D01*
X0037292Y0205975D01*
X0037456Y0205961D01*
X0037619Y0205943D01*
X0037782Y0205921D01*
X0037944Y0205894D01*
X0038106Y0205864D01*
X0038266Y0205830D01*
X0038426Y0205792D01*
X0038585Y0205751D01*
X0038743Y0205705D01*
X0038899Y0205655D01*
X0039055Y0205602D01*
X0039209Y0205545D01*
X0039361Y0205484D01*
X0039512Y0205419D01*
X0039662Y0205350D01*
X0039809Y0205278D01*
X0039955Y0205203D01*
X0040099Y0205123D01*
X0040241Y0205041D01*
X0040381Y0204955D01*
X0040518Y0204865D01*
X0040654Y0204772D01*
X0040787Y0204676D01*
X0040918Y0204576D01*
X0041046Y0204474D01*
X0041172Y0204368D01*
X0041295Y0204259D01*
X0041415Y0204147D01*
X0041533Y0204033D01*
X0041647Y0203915D01*
X0041759Y0203795D01*
X0041868Y0203672D01*
X0041974Y0203546D01*
X0042076Y0203418D01*
X0042176Y0203287D01*
X0042272Y0203154D01*
X0042365Y0203018D01*
X0042455Y0202881D01*
X0042541Y0202741D01*
X0042623Y0202599D01*
X0042703Y0202455D01*
X0042778Y0202309D01*
X0042850Y0202162D01*
X0042919Y0202012D01*
X0042984Y0201861D01*
X0043045Y0201709D01*
X0043102Y0201555D01*
X0043155Y0201399D01*
X0043205Y0201243D01*
X0043251Y0201085D01*
X0043292Y0200926D01*
X0043330Y0200766D01*
X0043364Y0200606D01*
X0043394Y0200444D01*
X0043421Y0200282D01*
X0043443Y0200119D01*
X0043461Y0199956D01*
X0043475Y0199792D01*
X0043485Y0199628D01*
X0043491Y0199464D01*
X0043493Y0199300D01*
X0043491Y0199136D01*
X0043485Y0198972D01*
X0043475Y0198808D01*
X0043461Y0198644D01*
X0043443Y0198481D01*
X0043421Y0198318D01*
X0043394Y0198156D01*
X0043364Y0197994D01*
X0043330Y0197834D01*
X0043292Y0197674D01*
X0043251Y0197515D01*
X0043205Y0197357D01*
X0043155Y0197201D01*
X0043102Y0197045D01*
X0043045Y0196891D01*
X0042984Y0196739D01*
X0042919Y0196588D01*
X0042850Y0196438D01*
X0042778Y0196291D01*
X0042703Y0196145D01*
X0042623Y0196001D01*
X0042541Y0195859D01*
X0042455Y0195719D01*
X0042365Y0195582D01*
X0042272Y0195446D01*
X0042176Y0195313D01*
X0042076Y0195182D01*
X0041974Y0195054D01*
X0041868Y0194928D01*
X0041759Y0194805D01*
X0041647Y0194685D01*
X0041533Y0194567D01*
X0041415Y0194453D01*
X0041295Y0194341D01*
X0041172Y0194232D01*
X0041046Y0194126D01*
X0040918Y0194024D01*
X0040787Y0193924D01*
X0040654Y0193828D01*
X0040518Y0193735D01*
X0040381Y0193645D01*
X0040241Y0193559D01*
X0040099Y0193477D01*
X0039955Y0193397D01*
X0039809Y0193322D01*
X0039662Y0193250D01*
X0039512Y0193181D01*
X0039361Y0193116D01*
X0039209Y0193055D01*
X0039055Y0192998D01*
X0038899Y0192945D01*
X0038743Y0192895D01*
X0038585Y0192849D01*
X0038426Y0192808D01*
X0038266Y0192770D01*
X0038106Y0192736D01*
X0037944Y0192706D01*
X0037782Y0192679D01*
X0037619Y0192657D01*
X0037456Y0192639D01*
X0037292Y0192625D01*
X0037128Y0192615D01*
X0036964Y0192609D01*
X0036800Y0192607D01*
X0036636Y0192609D01*
X0036472Y0192615D01*
X0036308Y0192625D01*
X0036144Y0192639D01*
X0035981Y0192657D01*
X0035818Y0192679D01*
X0035656Y0192706D01*
X0035494Y0192736D01*
X0035334Y0192770D01*
X0035174Y0192808D01*
X0035015Y0192849D01*
X0034857Y0192895D01*
X0034701Y0192945D01*
X0034545Y0192998D01*
X0034391Y0193055D01*
X0034239Y0193116D01*
X0034088Y0193181D01*
X0033938Y0193250D01*
X0033791Y0193322D01*
X0033645Y0193397D01*
X0033501Y0193477D01*
X0033359Y0193559D01*
X0033219Y0193645D01*
X0033082Y0193735D01*
X0032946Y0193828D01*
X0032813Y0193924D01*
X0032682Y0194024D01*
X0032554Y0194126D01*
X0032428Y0194232D01*
X0032305Y0194341D01*
X0032185Y0194453D01*
X0032067Y0194567D01*
X0031953Y0194685D01*
X0031841Y0194805D01*
X0031732Y0194928D01*
X0031626Y0195054D01*
X0031524Y0195182D01*
X0031424Y0195313D01*
X0031328Y0195446D01*
X0031235Y0195582D01*
X0031145Y0195719D01*
X0031059Y0195859D01*
X0030977Y0196001D01*
X0030897Y0196145D01*
X0030822Y0196291D01*
X0030750Y0196438D01*
X0030681Y0196588D01*
X0030616Y0196739D01*
X0030555Y0196891D01*
X0030498Y0197045D01*
X0030445Y0197201D01*
X0030395Y0197357D01*
X0030349Y0197515D01*
X0030308Y0197674D01*
X0030270Y0197834D01*
X0030236Y0197994D01*
X0030206Y0198156D01*
X0030179Y0198318D01*
X0030157Y0198481D01*
X0030139Y0198644D01*
X0030125Y0198808D01*
X0030115Y0198972D01*
X0030109Y0199136D01*
X0030107Y0199300D01*
M02*
