%
M48
M72
T01C0.0320
T02C0.0394
T03C0.0400
T04C0.0470
T05C0.1260
%
T01
X26430Y20180
X26430Y21180
X26430Y19180
X26430Y18180
X30430Y18180
X30430Y19180
X30430Y20180
X30430Y21180
T02
X2930Y5680
X2930Y6680
X8930Y6680
X8930Y5680
X11430Y5680
X11430Y6680
X17430Y6680
X17430Y5680
X19930Y5680
X19930Y6680
X25930Y6680
X25930Y5680
X28430Y5680
X28430Y6680
X34430Y6680
X34430Y5680
X34430Y14680
X34430Y15680
X34430Y16680
X28430Y16680
X28430Y15680
X25930Y15680
X25930Y14680
X25930Y16680
X19930Y16680
X19930Y15680
X17430Y15680
X17430Y14680
X17430Y16680
X11430Y16680
X11430Y15680
X8930Y15680
X8930Y14680
X8930Y16680
X2930Y16680
X2930Y15680
T03
X21430Y20180
X21430Y21180
X21430Y19180
X21430Y18180
X24430Y18180
X25430Y18180
X25430Y19180
X24430Y19180
X24430Y20180
X25430Y20180
X25430Y21180
X24430Y21180
T04
X6930Y1930
X8930Y1930
X11430Y1930
X13430Y1930
X23930Y1930
X25930Y1930
X28430Y1930
X30430Y1930
X16930Y20180
X14930Y20180
X12930Y20180
X10930Y20180
X8930Y20180
X6930Y20180
T05
X3680Y19930
X3680Y2430
X33680Y2430
X33680Y19930
M30
