G75*
%MOIN*%
%OFA0B0*%
%FSLAX25Y25*%
%IPPOS*%
%LPD*%
%AMOC8*
5,1,8,0,0,1.08239X$1,22.5*
%
%ADD10C,0.00000*%
%ADD11C,0.07050*%
%ADD12C,0.07000*%
%ADD13OC8,0.06000*%
%ADD14OC8,0.05200*%
%ADD15C,0.06000*%
%ADD16C,0.06600*%
%ADD17C,0.01600*%
D10*
X0016800Y0001800D02*
X0016800Y0219261D01*
X0358001Y0219261D01*
X0358001Y0001800D01*
X0016800Y0001800D01*
X0030501Y0024300D02*
X0030503Y0024458D01*
X0030509Y0024616D01*
X0030519Y0024774D01*
X0030533Y0024932D01*
X0030551Y0025089D01*
X0030572Y0025246D01*
X0030598Y0025402D01*
X0030628Y0025558D01*
X0030661Y0025713D01*
X0030699Y0025866D01*
X0030740Y0026019D01*
X0030785Y0026171D01*
X0030834Y0026322D01*
X0030887Y0026471D01*
X0030943Y0026619D01*
X0031003Y0026765D01*
X0031067Y0026910D01*
X0031135Y0027053D01*
X0031206Y0027195D01*
X0031280Y0027335D01*
X0031358Y0027472D01*
X0031440Y0027608D01*
X0031524Y0027742D01*
X0031613Y0027873D01*
X0031704Y0028002D01*
X0031799Y0028129D01*
X0031896Y0028254D01*
X0031997Y0028376D01*
X0032101Y0028495D01*
X0032208Y0028612D01*
X0032318Y0028726D01*
X0032431Y0028837D01*
X0032546Y0028946D01*
X0032664Y0029051D01*
X0032785Y0029153D01*
X0032908Y0029253D01*
X0033034Y0029349D01*
X0033162Y0029442D01*
X0033292Y0029532D01*
X0033425Y0029618D01*
X0033560Y0029702D01*
X0033696Y0029781D01*
X0033835Y0029858D01*
X0033976Y0029930D01*
X0034118Y0030000D01*
X0034262Y0030065D01*
X0034408Y0030127D01*
X0034555Y0030185D01*
X0034704Y0030240D01*
X0034854Y0030291D01*
X0035005Y0030338D01*
X0035157Y0030381D01*
X0035310Y0030420D01*
X0035465Y0030456D01*
X0035620Y0030487D01*
X0035776Y0030515D01*
X0035932Y0030539D01*
X0036089Y0030559D01*
X0036247Y0030575D01*
X0036404Y0030587D01*
X0036563Y0030595D01*
X0036721Y0030599D01*
X0036879Y0030599D01*
X0037037Y0030595D01*
X0037196Y0030587D01*
X0037353Y0030575D01*
X0037511Y0030559D01*
X0037668Y0030539D01*
X0037824Y0030515D01*
X0037980Y0030487D01*
X0038135Y0030456D01*
X0038290Y0030420D01*
X0038443Y0030381D01*
X0038595Y0030338D01*
X0038746Y0030291D01*
X0038896Y0030240D01*
X0039045Y0030185D01*
X0039192Y0030127D01*
X0039338Y0030065D01*
X0039482Y0030000D01*
X0039624Y0029930D01*
X0039765Y0029858D01*
X0039904Y0029781D01*
X0040040Y0029702D01*
X0040175Y0029618D01*
X0040308Y0029532D01*
X0040438Y0029442D01*
X0040566Y0029349D01*
X0040692Y0029253D01*
X0040815Y0029153D01*
X0040936Y0029051D01*
X0041054Y0028946D01*
X0041169Y0028837D01*
X0041282Y0028726D01*
X0041392Y0028612D01*
X0041499Y0028495D01*
X0041603Y0028376D01*
X0041704Y0028254D01*
X0041801Y0028129D01*
X0041896Y0028002D01*
X0041987Y0027873D01*
X0042076Y0027742D01*
X0042160Y0027608D01*
X0042242Y0027472D01*
X0042320Y0027335D01*
X0042394Y0027195D01*
X0042465Y0027053D01*
X0042533Y0026910D01*
X0042597Y0026765D01*
X0042657Y0026619D01*
X0042713Y0026471D01*
X0042766Y0026322D01*
X0042815Y0026171D01*
X0042860Y0026019D01*
X0042901Y0025866D01*
X0042939Y0025713D01*
X0042972Y0025558D01*
X0043002Y0025402D01*
X0043028Y0025246D01*
X0043049Y0025089D01*
X0043067Y0024932D01*
X0043081Y0024774D01*
X0043091Y0024616D01*
X0043097Y0024458D01*
X0043099Y0024300D01*
X0043097Y0024142D01*
X0043091Y0023984D01*
X0043081Y0023826D01*
X0043067Y0023668D01*
X0043049Y0023511D01*
X0043028Y0023354D01*
X0043002Y0023198D01*
X0042972Y0023042D01*
X0042939Y0022887D01*
X0042901Y0022734D01*
X0042860Y0022581D01*
X0042815Y0022429D01*
X0042766Y0022278D01*
X0042713Y0022129D01*
X0042657Y0021981D01*
X0042597Y0021835D01*
X0042533Y0021690D01*
X0042465Y0021547D01*
X0042394Y0021405D01*
X0042320Y0021265D01*
X0042242Y0021128D01*
X0042160Y0020992D01*
X0042076Y0020858D01*
X0041987Y0020727D01*
X0041896Y0020598D01*
X0041801Y0020471D01*
X0041704Y0020346D01*
X0041603Y0020224D01*
X0041499Y0020105D01*
X0041392Y0019988D01*
X0041282Y0019874D01*
X0041169Y0019763D01*
X0041054Y0019654D01*
X0040936Y0019549D01*
X0040815Y0019447D01*
X0040692Y0019347D01*
X0040566Y0019251D01*
X0040438Y0019158D01*
X0040308Y0019068D01*
X0040175Y0018982D01*
X0040040Y0018898D01*
X0039904Y0018819D01*
X0039765Y0018742D01*
X0039624Y0018670D01*
X0039482Y0018600D01*
X0039338Y0018535D01*
X0039192Y0018473D01*
X0039045Y0018415D01*
X0038896Y0018360D01*
X0038746Y0018309D01*
X0038595Y0018262D01*
X0038443Y0018219D01*
X0038290Y0018180D01*
X0038135Y0018144D01*
X0037980Y0018113D01*
X0037824Y0018085D01*
X0037668Y0018061D01*
X0037511Y0018041D01*
X0037353Y0018025D01*
X0037196Y0018013D01*
X0037037Y0018005D01*
X0036879Y0018001D01*
X0036721Y0018001D01*
X0036563Y0018005D01*
X0036404Y0018013D01*
X0036247Y0018025D01*
X0036089Y0018041D01*
X0035932Y0018061D01*
X0035776Y0018085D01*
X0035620Y0018113D01*
X0035465Y0018144D01*
X0035310Y0018180D01*
X0035157Y0018219D01*
X0035005Y0018262D01*
X0034854Y0018309D01*
X0034704Y0018360D01*
X0034555Y0018415D01*
X0034408Y0018473D01*
X0034262Y0018535D01*
X0034118Y0018600D01*
X0033976Y0018670D01*
X0033835Y0018742D01*
X0033696Y0018819D01*
X0033560Y0018898D01*
X0033425Y0018982D01*
X0033292Y0019068D01*
X0033162Y0019158D01*
X0033034Y0019251D01*
X0032908Y0019347D01*
X0032785Y0019447D01*
X0032664Y0019549D01*
X0032546Y0019654D01*
X0032431Y0019763D01*
X0032318Y0019874D01*
X0032208Y0019988D01*
X0032101Y0020105D01*
X0031997Y0020224D01*
X0031896Y0020346D01*
X0031799Y0020471D01*
X0031704Y0020598D01*
X0031613Y0020727D01*
X0031524Y0020858D01*
X0031440Y0020992D01*
X0031358Y0021128D01*
X0031280Y0021265D01*
X0031206Y0021405D01*
X0031135Y0021547D01*
X0031067Y0021690D01*
X0031003Y0021835D01*
X0030943Y0021981D01*
X0030887Y0022129D01*
X0030834Y0022278D01*
X0030785Y0022429D01*
X0030740Y0022581D01*
X0030699Y0022734D01*
X0030661Y0022887D01*
X0030628Y0023042D01*
X0030598Y0023198D01*
X0030572Y0023354D01*
X0030551Y0023511D01*
X0030533Y0023668D01*
X0030519Y0023826D01*
X0030509Y0023984D01*
X0030503Y0024142D01*
X0030501Y0024300D01*
X0030501Y0199300D02*
X0030503Y0199458D01*
X0030509Y0199616D01*
X0030519Y0199774D01*
X0030533Y0199932D01*
X0030551Y0200089D01*
X0030572Y0200246D01*
X0030598Y0200402D01*
X0030628Y0200558D01*
X0030661Y0200713D01*
X0030699Y0200866D01*
X0030740Y0201019D01*
X0030785Y0201171D01*
X0030834Y0201322D01*
X0030887Y0201471D01*
X0030943Y0201619D01*
X0031003Y0201765D01*
X0031067Y0201910D01*
X0031135Y0202053D01*
X0031206Y0202195D01*
X0031280Y0202335D01*
X0031358Y0202472D01*
X0031440Y0202608D01*
X0031524Y0202742D01*
X0031613Y0202873D01*
X0031704Y0203002D01*
X0031799Y0203129D01*
X0031896Y0203254D01*
X0031997Y0203376D01*
X0032101Y0203495D01*
X0032208Y0203612D01*
X0032318Y0203726D01*
X0032431Y0203837D01*
X0032546Y0203946D01*
X0032664Y0204051D01*
X0032785Y0204153D01*
X0032908Y0204253D01*
X0033034Y0204349D01*
X0033162Y0204442D01*
X0033292Y0204532D01*
X0033425Y0204618D01*
X0033560Y0204702D01*
X0033696Y0204781D01*
X0033835Y0204858D01*
X0033976Y0204930D01*
X0034118Y0205000D01*
X0034262Y0205065D01*
X0034408Y0205127D01*
X0034555Y0205185D01*
X0034704Y0205240D01*
X0034854Y0205291D01*
X0035005Y0205338D01*
X0035157Y0205381D01*
X0035310Y0205420D01*
X0035465Y0205456D01*
X0035620Y0205487D01*
X0035776Y0205515D01*
X0035932Y0205539D01*
X0036089Y0205559D01*
X0036247Y0205575D01*
X0036404Y0205587D01*
X0036563Y0205595D01*
X0036721Y0205599D01*
X0036879Y0205599D01*
X0037037Y0205595D01*
X0037196Y0205587D01*
X0037353Y0205575D01*
X0037511Y0205559D01*
X0037668Y0205539D01*
X0037824Y0205515D01*
X0037980Y0205487D01*
X0038135Y0205456D01*
X0038290Y0205420D01*
X0038443Y0205381D01*
X0038595Y0205338D01*
X0038746Y0205291D01*
X0038896Y0205240D01*
X0039045Y0205185D01*
X0039192Y0205127D01*
X0039338Y0205065D01*
X0039482Y0205000D01*
X0039624Y0204930D01*
X0039765Y0204858D01*
X0039904Y0204781D01*
X0040040Y0204702D01*
X0040175Y0204618D01*
X0040308Y0204532D01*
X0040438Y0204442D01*
X0040566Y0204349D01*
X0040692Y0204253D01*
X0040815Y0204153D01*
X0040936Y0204051D01*
X0041054Y0203946D01*
X0041169Y0203837D01*
X0041282Y0203726D01*
X0041392Y0203612D01*
X0041499Y0203495D01*
X0041603Y0203376D01*
X0041704Y0203254D01*
X0041801Y0203129D01*
X0041896Y0203002D01*
X0041987Y0202873D01*
X0042076Y0202742D01*
X0042160Y0202608D01*
X0042242Y0202472D01*
X0042320Y0202335D01*
X0042394Y0202195D01*
X0042465Y0202053D01*
X0042533Y0201910D01*
X0042597Y0201765D01*
X0042657Y0201619D01*
X0042713Y0201471D01*
X0042766Y0201322D01*
X0042815Y0201171D01*
X0042860Y0201019D01*
X0042901Y0200866D01*
X0042939Y0200713D01*
X0042972Y0200558D01*
X0043002Y0200402D01*
X0043028Y0200246D01*
X0043049Y0200089D01*
X0043067Y0199932D01*
X0043081Y0199774D01*
X0043091Y0199616D01*
X0043097Y0199458D01*
X0043099Y0199300D01*
X0043097Y0199142D01*
X0043091Y0198984D01*
X0043081Y0198826D01*
X0043067Y0198668D01*
X0043049Y0198511D01*
X0043028Y0198354D01*
X0043002Y0198198D01*
X0042972Y0198042D01*
X0042939Y0197887D01*
X0042901Y0197734D01*
X0042860Y0197581D01*
X0042815Y0197429D01*
X0042766Y0197278D01*
X0042713Y0197129D01*
X0042657Y0196981D01*
X0042597Y0196835D01*
X0042533Y0196690D01*
X0042465Y0196547D01*
X0042394Y0196405D01*
X0042320Y0196265D01*
X0042242Y0196128D01*
X0042160Y0195992D01*
X0042076Y0195858D01*
X0041987Y0195727D01*
X0041896Y0195598D01*
X0041801Y0195471D01*
X0041704Y0195346D01*
X0041603Y0195224D01*
X0041499Y0195105D01*
X0041392Y0194988D01*
X0041282Y0194874D01*
X0041169Y0194763D01*
X0041054Y0194654D01*
X0040936Y0194549D01*
X0040815Y0194447D01*
X0040692Y0194347D01*
X0040566Y0194251D01*
X0040438Y0194158D01*
X0040308Y0194068D01*
X0040175Y0193982D01*
X0040040Y0193898D01*
X0039904Y0193819D01*
X0039765Y0193742D01*
X0039624Y0193670D01*
X0039482Y0193600D01*
X0039338Y0193535D01*
X0039192Y0193473D01*
X0039045Y0193415D01*
X0038896Y0193360D01*
X0038746Y0193309D01*
X0038595Y0193262D01*
X0038443Y0193219D01*
X0038290Y0193180D01*
X0038135Y0193144D01*
X0037980Y0193113D01*
X0037824Y0193085D01*
X0037668Y0193061D01*
X0037511Y0193041D01*
X0037353Y0193025D01*
X0037196Y0193013D01*
X0037037Y0193005D01*
X0036879Y0193001D01*
X0036721Y0193001D01*
X0036563Y0193005D01*
X0036404Y0193013D01*
X0036247Y0193025D01*
X0036089Y0193041D01*
X0035932Y0193061D01*
X0035776Y0193085D01*
X0035620Y0193113D01*
X0035465Y0193144D01*
X0035310Y0193180D01*
X0035157Y0193219D01*
X0035005Y0193262D01*
X0034854Y0193309D01*
X0034704Y0193360D01*
X0034555Y0193415D01*
X0034408Y0193473D01*
X0034262Y0193535D01*
X0034118Y0193600D01*
X0033976Y0193670D01*
X0033835Y0193742D01*
X0033696Y0193819D01*
X0033560Y0193898D01*
X0033425Y0193982D01*
X0033292Y0194068D01*
X0033162Y0194158D01*
X0033034Y0194251D01*
X0032908Y0194347D01*
X0032785Y0194447D01*
X0032664Y0194549D01*
X0032546Y0194654D01*
X0032431Y0194763D01*
X0032318Y0194874D01*
X0032208Y0194988D01*
X0032101Y0195105D01*
X0031997Y0195224D01*
X0031896Y0195346D01*
X0031799Y0195471D01*
X0031704Y0195598D01*
X0031613Y0195727D01*
X0031524Y0195858D01*
X0031440Y0195992D01*
X0031358Y0196128D01*
X0031280Y0196265D01*
X0031206Y0196405D01*
X0031135Y0196547D01*
X0031067Y0196690D01*
X0031003Y0196835D01*
X0030943Y0196981D01*
X0030887Y0197129D01*
X0030834Y0197278D01*
X0030785Y0197429D01*
X0030740Y0197581D01*
X0030699Y0197734D01*
X0030661Y0197887D01*
X0030628Y0198042D01*
X0030598Y0198198D01*
X0030572Y0198354D01*
X0030551Y0198511D01*
X0030533Y0198668D01*
X0030519Y0198826D01*
X0030509Y0198984D01*
X0030503Y0199142D01*
X0030501Y0199300D01*
X0330501Y0199300D02*
X0330503Y0199458D01*
X0330509Y0199616D01*
X0330519Y0199774D01*
X0330533Y0199932D01*
X0330551Y0200089D01*
X0330572Y0200246D01*
X0330598Y0200402D01*
X0330628Y0200558D01*
X0330661Y0200713D01*
X0330699Y0200866D01*
X0330740Y0201019D01*
X0330785Y0201171D01*
X0330834Y0201322D01*
X0330887Y0201471D01*
X0330943Y0201619D01*
X0331003Y0201765D01*
X0331067Y0201910D01*
X0331135Y0202053D01*
X0331206Y0202195D01*
X0331280Y0202335D01*
X0331358Y0202472D01*
X0331440Y0202608D01*
X0331524Y0202742D01*
X0331613Y0202873D01*
X0331704Y0203002D01*
X0331799Y0203129D01*
X0331896Y0203254D01*
X0331997Y0203376D01*
X0332101Y0203495D01*
X0332208Y0203612D01*
X0332318Y0203726D01*
X0332431Y0203837D01*
X0332546Y0203946D01*
X0332664Y0204051D01*
X0332785Y0204153D01*
X0332908Y0204253D01*
X0333034Y0204349D01*
X0333162Y0204442D01*
X0333292Y0204532D01*
X0333425Y0204618D01*
X0333560Y0204702D01*
X0333696Y0204781D01*
X0333835Y0204858D01*
X0333976Y0204930D01*
X0334118Y0205000D01*
X0334262Y0205065D01*
X0334408Y0205127D01*
X0334555Y0205185D01*
X0334704Y0205240D01*
X0334854Y0205291D01*
X0335005Y0205338D01*
X0335157Y0205381D01*
X0335310Y0205420D01*
X0335465Y0205456D01*
X0335620Y0205487D01*
X0335776Y0205515D01*
X0335932Y0205539D01*
X0336089Y0205559D01*
X0336247Y0205575D01*
X0336404Y0205587D01*
X0336563Y0205595D01*
X0336721Y0205599D01*
X0336879Y0205599D01*
X0337037Y0205595D01*
X0337196Y0205587D01*
X0337353Y0205575D01*
X0337511Y0205559D01*
X0337668Y0205539D01*
X0337824Y0205515D01*
X0337980Y0205487D01*
X0338135Y0205456D01*
X0338290Y0205420D01*
X0338443Y0205381D01*
X0338595Y0205338D01*
X0338746Y0205291D01*
X0338896Y0205240D01*
X0339045Y0205185D01*
X0339192Y0205127D01*
X0339338Y0205065D01*
X0339482Y0205000D01*
X0339624Y0204930D01*
X0339765Y0204858D01*
X0339904Y0204781D01*
X0340040Y0204702D01*
X0340175Y0204618D01*
X0340308Y0204532D01*
X0340438Y0204442D01*
X0340566Y0204349D01*
X0340692Y0204253D01*
X0340815Y0204153D01*
X0340936Y0204051D01*
X0341054Y0203946D01*
X0341169Y0203837D01*
X0341282Y0203726D01*
X0341392Y0203612D01*
X0341499Y0203495D01*
X0341603Y0203376D01*
X0341704Y0203254D01*
X0341801Y0203129D01*
X0341896Y0203002D01*
X0341987Y0202873D01*
X0342076Y0202742D01*
X0342160Y0202608D01*
X0342242Y0202472D01*
X0342320Y0202335D01*
X0342394Y0202195D01*
X0342465Y0202053D01*
X0342533Y0201910D01*
X0342597Y0201765D01*
X0342657Y0201619D01*
X0342713Y0201471D01*
X0342766Y0201322D01*
X0342815Y0201171D01*
X0342860Y0201019D01*
X0342901Y0200866D01*
X0342939Y0200713D01*
X0342972Y0200558D01*
X0343002Y0200402D01*
X0343028Y0200246D01*
X0343049Y0200089D01*
X0343067Y0199932D01*
X0343081Y0199774D01*
X0343091Y0199616D01*
X0343097Y0199458D01*
X0343099Y0199300D01*
X0343097Y0199142D01*
X0343091Y0198984D01*
X0343081Y0198826D01*
X0343067Y0198668D01*
X0343049Y0198511D01*
X0343028Y0198354D01*
X0343002Y0198198D01*
X0342972Y0198042D01*
X0342939Y0197887D01*
X0342901Y0197734D01*
X0342860Y0197581D01*
X0342815Y0197429D01*
X0342766Y0197278D01*
X0342713Y0197129D01*
X0342657Y0196981D01*
X0342597Y0196835D01*
X0342533Y0196690D01*
X0342465Y0196547D01*
X0342394Y0196405D01*
X0342320Y0196265D01*
X0342242Y0196128D01*
X0342160Y0195992D01*
X0342076Y0195858D01*
X0341987Y0195727D01*
X0341896Y0195598D01*
X0341801Y0195471D01*
X0341704Y0195346D01*
X0341603Y0195224D01*
X0341499Y0195105D01*
X0341392Y0194988D01*
X0341282Y0194874D01*
X0341169Y0194763D01*
X0341054Y0194654D01*
X0340936Y0194549D01*
X0340815Y0194447D01*
X0340692Y0194347D01*
X0340566Y0194251D01*
X0340438Y0194158D01*
X0340308Y0194068D01*
X0340175Y0193982D01*
X0340040Y0193898D01*
X0339904Y0193819D01*
X0339765Y0193742D01*
X0339624Y0193670D01*
X0339482Y0193600D01*
X0339338Y0193535D01*
X0339192Y0193473D01*
X0339045Y0193415D01*
X0338896Y0193360D01*
X0338746Y0193309D01*
X0338595Y0193262D01*
X0338443Y0193219D01*
X0338290Y0193180D01*
X0338135Y0193144D01*
X0337980Y0193113D01*
X0337824Y0193085D01*
X0337668Y0193061D01*
X0337511Y0193041D01*
X0337353Y0193025D01*
X0337196Y0193013D01*
X0337037Y0193005D01*
X0336879Y0193001D01*
X0336721Y0193001D01*
X0336563Y0193005D01*
X0336404Y0193013D01*
X0336247Y0193025D01*
X0336089Y0193041D01*
X0335932Y0193061D01*
X0335776Y0193085D01*
X0335620Y0193113D01*
X0335465Y0193144D01*
X0335310Y0193180D01*
X0335157Y0193219D01*
X0335005Y0193262D01*
X0334854Y0193309D01*
X0334704Y0193360D01*
X0334555Y0193415D01*
X0334408Y0193473D01*
X0334262Y0193535D01*
X0334118Y0193600D01*
X0333976Y0193670D01*
X0333835Y0193742D01*
X0333696Y0193819D01*
X0333560Y0193898D01*
X0333425Y0193982D01*
X0333292Y0194068D01*
X0333162Y0194158D01*
X0333034Y0194251D01*
X0332908Y0194347D01*
X0332785Y0194447D01*
X0332664Y0194549D01*
X0332546Y0194654D01*
X0332431Y0194763D01*
X0332318Y0194874D01*
X0332208Y0194988D01*
X0332101Y0195105D01*
X0331997Y0195224D01*
X0331896Y0195346D01*
X0331799Y0195471D01*
X0331704Y0195598D01*
X0331613Y0195727D01*
X0331524Y0195858D01*
X0331440Y0195992D01*
X0331358Y0196128D01*
X0331280Y0196265D01*
X0331206Y0196405D01*
X0331135Y0196547D01*
X0331067Y0196690D01*
X0331003Y0196835D01*
X0330943Y0196981D01*
X0330887Y0197129D01*
X0330834Y0197278D01*
X0330785Y0197429D01*
X0330740Y0197581D01*
X0330699Y0197734D01*
X0330661Y0197887D01*
X0330628Y0198042D01*
X0330598Y0198198D01*
X0330572Y0198354D01*
X0330551Y0198511D01*
X0330533Y0198668D01*
X0330519Y0198826D01*
X0330509Y0198984D01*
X0330503Y0199142D01*
X0330501Y0199300D01*
X0330501Y0024300D02*
X0330503Y0024458D01*
X0330509Y0024616D01*
X0330519Y0024774D01*
X0330533Y0024932D01*
X0330551Y0025089D01*
X0330572Y0025246D01*
X0330598Y0025402D01*
X0330628Y0025558D01*
X0330661Y0025713D01*
X0330699Y0025866D01*
X0330740Y0026019D01*
X0330785Y0026171D01*
X0330834Y0026322D01*
X0330887Y0026471D01*
X0330943Y0026619D01*
X0331003Y0026765D01*
X0331067Y0026910D01*
X0331135Y0027053D01*
X0331206Y0027195D01*
X0331280Y0027335D01*
X0331358Y0027472D01*
X0331440Y0027608D01*
X0331524Y0027742D01*
X0331613Y0027873D01*
X0331704Y0028002D01*
X0331799Y0028129D01*
X0331896Y0028254D01*
X0331997Y0028376D01*
X0332101Y0028495D01*
X0332208Y0028612D01*
X0332318Y0028726D01*
X0332431Y0028837D01*
X0332546Y0028946D01*
X0332664Y0029051D01*
X0332785Y0029153D01*
X0332908Y0029253D01*
X0333034Y0029349D01*
X0333162Y0029442D01*
X0333292Y0029532D01*
X0333425Y0029618D01*
X0333560Y0029702D01*
X0333696Y0029781D01*
X0333835Y0029858D01*
X0333976Y0029930D01*
X0334118Y0030000D01*
X0334262Y0030065D01*
X0334408Y0030127D01*
X0334555Y0030185D01*
X0334704Y0030240D01*
X0334854Y0030291D01*
X0335005Y0030338D01*
X0335157Y0030381D01*
X0335310Y0030420D01*
X0335465Y0030456D01*
X0335620Y0030487D01*
X0335776Y0030515D01*
X0335932Y0030539D01*
X0336089Y0030559D01*
X0336247Y0030575D01*
X0336404Y0030587D01*
X0336563Y0030595D01*
X0336721Y0030599D01*
X0336879Y0030599D01*
X0337037Y0030595D01*
X0337196Y0030587D01*
X0337353Y0030575D01*
X0337511Y0030559D01*
X0337668Y0030539D01*
X0337824Y0030515D01*
X0337980Y0030487D01*
X0338135Y0030456D01*
X0338290Y0030420D01*
X0338443Y0030381D01*
X0338595Y0030338D01*
X0338746Y0030291D01*
X0338896Y0030240D01*
X0339045Y0030185D01*
X0339192Y0030127D01*
X0339338Y0030065D01*
X0339482Y0030000D01*
X0339624Y0029930D01*
X0339765Y0029858D01*
X0339904Y0029781D01*
X0340040Y0029702D01*
X0340175Y0029618D01*
X0340308Y0029532D01*
X0340438Y0029442D01*
X0340566Y0029349D01*
X0340692Y0029253D01*
X0340815Y0029153D01*
X0340936Y0029051D01*
X0341054Y0028946D01*
X0341169Y0028837D01*
X0341282Y0028726D01*
X0341392Y0028612D01*
X0341499Y0028495D01*
X0341603Y0028376D01*
X0341704Y0028254D01*
X0341801Y0028129D01*
X0341896Y0028002D01*
X0341987Y0027873D01*
X0342076Y0027742D01*
X0342160Y0027608D01*
X0342242Y0027472D01*
X0342320Y0027335D01*
X0342394Y0027195D01*
X0342465Y0027053D01*
X0342533Y0026910D01*
X0342597Y0026765D01*
X0342657Y0026619D01*
X0342713Y0026471D01*
X0342766Y0026322D01*
X0342815Y0026171D01*
X0342860Y0026019D01*
X0342901Y0025866D01*
X0342939Y0025713D01*
X0342972Y0025558D01*
X0343002Y0025402D01*
X0343028Y0025246D01*
X0343049Y0025089D01*
X0343067Y0024932D01*
X0343081Y0024774D01*
X0343091Y0024616D01*
X0343097Y0024458D01*
X0343099Y0024300D01*
X0343097Y0024142D01*
X0343091Y0023984D01*
X0343081Y0023826D01*
X0343067Y0023668D01*
X0343049Y0023511D01*
X0343028Y0023354D01*
X0343002Y0023198D01*
X0342972Y0023042D01*
X0342939Y0022887D01*
X0342901Y0022734D01*
X0342860Y0022581D01*
X0342815Y0022429D01*
X0342766Y0022278D01*
X0342713Y0022129D01*
X0342657Y0021981D01*
X0342597Y0021835D01*
X0342533Y0021690D01*
X0342465Y0021547D01*
X0342394Y0021405D01*
X0342320Y0021265D01*
X0342242Y0021128D01*
X0342160Y0020992D01*
X0342076Y0020858D01*
X0341987Y0020727D01*
X0341896Y0020598D01*
X0341801Y0020471D01*
X0341704Y0020346D01*
X0341603Y0020224D01*
X0341499Y0020105D01*
X0341392Y0019988D01*
X0341282Y0019874D01*
X0341169Y0019763D01*
X0341054Y0019654D01*
X0340936Y0019549D01*
X0340815Y0019447D01*
X0340692Y0019347D01*
X0340566Y0019251D01*
X0340438Y0019158D01*
X0340308Y0019068D01*
X0340175Y0018982D01*
X0340040Y0018898D01*
X0339904Y0018819D01*
X0339765Y0018742D01*
X0339624Y0018670D01*
X0339482Y0018600D01*
X0339338Y0018535D01*
X0339192Y0018473D01*
X0339045Y0018415D01*
X0338896Y0018360D01*
X0338746Y0018309D01*
X0338595Y0018262D01*
X0338443Y0018219D01*
X0338290Y0018180D01*
X0338135Y0018144D01*
X0337980Y0018113D01*
X0337824Y0018085D01*
X0337668Y0018061D01*
X0337511Y0018041D01*
X0337353Y0018025D01*
X0337196Y0018013D01*
X0337037Y0018005D01*
X0336879Y0018001D01*
X0336721Y0018001D01*
X0336563Y0018005D01*
X0336404Y0018013D01*
X0336247Y0018025D01*
X0336089Y0018041D01*
X0335932Y0018061D01*
X0335776Y0018085D01*
X0335620Y0018113D01*
X0335465Y0018144D01*
X0335310Y0018180D01*
X0335157Y0018219D01*
X0335005Y0018262D01*
X0334854Y0018309D01*
X0334704Y0018360D01*
X0334555Y0018415D01*
X0334408Y0018473D01*
X0334262Y0018535D01*
X0334118Y0018600D01*
X0333976Y0018670D01*
X0333835Y0018742D01*
X0333696Y0018819D01*
X0333560Y0018898D01*
X0333425Y0018982D01*
X0333292Y0019068D01*
X0333162Y0019158D01*
X0333034Y0019251D01*
X0332908Y0019347D01*
X0332785Y0019447D01*
X0332664Y0019549D01*
X0332546Y0019654D01*
X0332431Y0019763D01*
X0332318Y0019874D01*
X0332208Y0019988D01*
X0332101Y0020105D01*
X0331997Y0020224D01*
X0331896Y0020346D01*
X0331799Y0020471D01*
X0331704Y0020598D01*
X0331613Y0020727D01*
X0331524Y0020858D01*
X0331440Y0020992D01*
X0331358Y0021128D01*
X0331280Y0021265D01*
X0331206Y0021405D01*
X0331135Y0021547D01*
X0331067Y0021690D01*
X0331003Y0021835D01*
X0330943Y0021981D01*
X0330887Y0022129D01*
X0330834Y0022278D01*
X0330785Y0022429D01*
X0330740Y0022581D01*
X0330699Y0022734D01*
X0330661Y0022887D01*
X0330628Y0023042D01*
X0330598Y0023198D01*
X0330572Y0023354D01*
X0330551Y0023511D01*
X0330533Y0023668D01*
X0330519Y0023826D01*
X0330509Y0023984D01*
X0330503Y0024142D01*
X0330501Y0024300D01*
D11*
X0304300Y0022825D02*
X0304300Y0015775D01*
X0284300Y0015775D02*
X0284300Y0022825D01*
X0259300Y0022825D02*
X0259300Y0015775D01*
X0239300Y0015775D02*
X0239300Y0022825D01*
X0134300Y0022825D02*
X0134300Y0015775D01*
X0114300Y0015775D02*
X0114300Y0022825D01*
X0089300Y0022825D02*
X0089300Y0015775D01*
X0069300Y0015775D02*
X0069300Y0022825D01*
X0069300Y0198275D02*
X0069300Y0205325D01*
X0089300Y0205325D02*
X0089300Y0198275D01*
X0109300Y0198275D02*
X0109300Y0205325D01*
X0129300Y0205325D02*
X0129300Y0198275D01*
X0149300Y0198275D02*
X0149300Y0205325D01*
X0169300Y0205325D02*
X0169300Y0198275D01*
D12*
X0174300Y0166800D03*
X0174300Y0156800D03*
X0174300Y0146800D03*
X0199300Y0156800D03*
X0199300Y0166800D03*
X0259300Y0166800D03*
X0259300Y0156800D03*
X0259300Y0146800D03*
X0284300Y0156800D03*
X0284300Y0166800D03*
X0344300Y0166800D03*
X0344300Y0156800D03*
X0344300Y0146800D03*
X0344300Y0066800D03*
X0344300Y0056800D03*
X0284300Y0056800D03*
X0284300Y0066800D03*
X0259300Y0066800D03*
X0259300Y0056800D03*
X0199300Y0056800D03*
X0199300Y0066800D03*
X0174300Y0066800D03*
X0174300Y0056800D03*
X0114300Y0056800D03*
X0114300Y0066800D03*
X0089300Y0066800D03*
X0089300Y0056800D03*
X0029300Y0056800D03*
X0029300Y0066800D03*
X0089300Y0146800D03*
X0089300Y0156800D03*
X0089300Y0166800D03*
X0114300Y0166800D03*
X0114300Y0156800D03*
X0029300Y0156800D03*
X0029300Y0166800D03*
D13*
X0244300Y0181800D03*
X0254300Y0181800D03*
X0254300Y0191800D03*
X0244300Y0191800D03*
X0244300Y0201800D03*
X0254300Y0201800D03*
X0254300Y0211800D03*
X0244300Y0211800D03*
D14*
X0264300Y0211800D03*
X0264300Y0201800D03*
X0264300Y0191800D03*
X0264300Y0181800D03*
X0304300Y0181800D03*
X0304300Y0191800D03*
X0304300Y0201800D03*
X0304300Y0211800D03*
D15*
X0217300Y0211800D02*
X0211300Y0211800D01*
X0211300Y0201800D02*
X0217300Y0201800D01*
X0217300Y0191800D02*
X0211300Y0191800D01*
X0211300Y0181800D02*
X0217300Y0181800D01*
D16*
X0169300Y0201800D02*
X0169300Y0209300D01*
X0164300Y0214300D01*
X0129300Y0214300D01*
X0129300Y0201800D01*
X0129300Y0214300D02*
X0094300Y0214300D01*
X0089300Y0209300D01*
X0089300Y0201800D01*
D17*
X0084175Y0201614D02*
X0069675Y0201614D01*
X0069675Y0201425D02*
X0069675Y0202175D01*
X0068925Y0202175D01*
X0068925Y0210650D01*
X0068881Y0210650D01*
X0068053Y0210519D01*
X0067256Y0210260D01*
X0066509Y0209879D01*
X0065831Y0209387D01*
X0065238Y0208794D01*
X0064746Y0208116D01*
X0064365Y0207369D01*
X0064106Y0206572D01*
X0063975Y0205744D01*
X0063975Y0202175D01*
X0068925Y0202175D01*
X0068925Y0201425D01*
X0063975Y0201425D01*
X0063975Y0197856D01*
X0064106Y0197028D01*
X0064365Y0196231D01*
X0064746Y0195484D01*
X0065238Y0194806D01*
X0065831Y0194213D01*
X0066509Y0193721D01*
X0067256Y0193340D01*
X0068053Y0193081D01*
X0068881Y0192950D01*
X0068925Y0192950D01*
X0068925Y0201425D01*
X0069675Y0201425D01*
X0074625Y0201425D01*
X0074625Y0197856D01*
X0074494Y0197028D01*
X0074235Y0196231D01*
X0073854Y0195484D01*
X0073362Y0194806D01*
X0072769Y0194213D01*
X0072091Y0193721D01*
X0071344Y0193340D01*
X0070547Y0193081D01*
X0069719Y0192950D01*
X0069675Y0192950D01*
X0069675Y0201425D01*
X0069675Y0202175D02*
X0074625Y0202175D01*
X0074625Y0205744D01*
X0074494Y0206572D01*
X0074235Y0207369D01*
X0073854Y0208116D01*
X0073362Y0208794D01*
X0072769Y0209387D01*
X0072091Y0209879D01*
X0071344Y0210260D01*
X0070547Y0210519D01*
X0069719Y0210650D01*
X0069675Y0210650D01*
X0069675Y0202175D01*
X0068925Y0201614D02*
X0053251Y0201614D01*
X0053010Y0203212D02*
X0063975Y0203212D01*
X0063975Y0204811D02*
X0052584Y0204811D01*
X0052854Y0204252D02*
X0050681Y0208764D01*
X0047275Y0212435D01*
X0047275Y0212435D01*
X0043766Y0214461D01*
X0087531Y0214461D01*
X0085146Y0212076D01*
X0084400Y0210275D01*
X0084400Y0206888D01*
X0084175Y0206344D01*
X0084175Y0197256D01*
X0084955Y0195372D01*
X0086397Y0193930D01*
X0088281Y0193150D01*
X0090319Y0193150D01*
X0092203Y0193930D01*
X0093645Y0195372D01*
X0094425Y0197256D01*
X0094425Y0206344D01*
X0094200Y0206888D01*
X0094200Y0207270D01*
X0096330Y0209400D01*
X0105849Y0209400D01*
X0105831Y0209387D01*
X0105238Y0208794D01*
X0104746Y0208116D01*
X0104365Y0207369D01*
X0104106Y0206572D01*
X0103975Y0205744D01*
X0103975Y0202175D01*
X0108925Y0202175D01*
X0108925Y0201425D01*
X0109675Y0201425D01*
X0109675Y0202175D01*
X0114625Y0202175D01*
X0114625Y0205744D01*
X0114494Y0206572D01*
X0114235Y0207369D01*
X0113854Y0208116D01*
X0113362Y0208794D01*
X0112769Y0209387D01*
X0112751Y0209400D01*
X0124400Y0209400D01*
X0124400Y0206888D01*
X0124175Y0206344D01*
X0124175Y0197256D01*
X0124955Y0195372D01*
X0126397Y0193930D01*
X0128281Y0193150D01*
X0130319Y0193150D01*
X0132203Y0193930D01*
X0133645Y0195372D01*
X0134425Y0197256D01*
X0134425Y0206344D01*
X0134200Y0206888D01*
X0134200Y0209400D01*
X0145849Y0209400D01*
X0145831Y0209387D01*
X0145238Y0208794D01*
X0144746Y0208116D01*
X0144365Y0207369D01*
X0144106Y0206572D01*
X0143975Y0205744D01*
X0143975Y0202175D01*
X0148925Y0202175D01*
X0148925Y0201425D01*
X0149675Y0201425D01*
X0149675Y0202175D01*
X0154625Y0202175D01*
X0154625Y0205744D01*
X0154494Y0206572D01*
X0154235Y0207369D01*
X0153854Y0208116D01*
X0153362Y0208794D01*
X0152769Y0209387D01*
X0152751Y0209400D01*
X0162270Y0209400D01*
X0164400Y0207270D01*
X0164400Y0206888D01*
X0164175Y0206344D01*
X0164175Y0197256D01*
X0164955Y0195372D01*
X0166397Y0193930D01*
X0168281Y0193150D01*
X0170319Y0193150D01*
X0172203Y0193930D01*
X0173645Y0195372D01*
X0174425Y0197256D01*
X0174425Y0206344D01*
X0174200Y0206888D01*
X0174200Y0210275D01*
X0173454Y0212076D01*
X0172076Y0213454D01*
X0171069Y0214461D01*
X0207455Y0214461D01*
X0207400Y0214406D01*
X0207315Y0214200D01*
X0206323Y0214200D01*
X0205441Y0213835D01*
X0140806Y0149200D01*
X0093826Y0149200D01*
X0093624Y0149689D01*
X0092189Y0151124D01*
X0090556Y0151800D01*
X0092189Y0152476D01*
X0093624Y0153911D01*
X0094400Y0155786D01*
X0094400Y0157814D01*
X0093624Y0159689D01*
X0092189Y0161124D01*
X0090556Y0161800D01*
X0092189Y0162476D01*
X0093624Y0163911D01*
X0094400Y0165786D01*
X0094400Y0167814D01*
X0093624Y0169689D01*
X0092189Y0171124D01*
X0090314Y0171900D01*
X0088286Y0171900D01*
X0086411Y0171124D01*
X0084976Y0169689D01*
X0084200Y0167814D01*
X0084200Y0165786D01*
X0084976Y0163911D01*
X0086411Y0162476D01*
X0088044Y0161800D01*
X0086411Y0161124D01*
X0084976Y0159689D01*
X0084200Y0157814D01*
X0084200Y0155786D01*
X0084976Y0153911D01*
X0086411Y0152476D01*
X0088044Y0151800D01*
X0086411Y0151124D01*
X0084976Y0149689D01*
X0084200Y0147814D01*
X0084200Y0145786D01*
X0084976Y0143911D01*
X0086411Y0142476D01*
X0088286Y0141700D01*
X0090314Y0141700D01*
X0092189Y0142476D01*
X0093624Y0143911D01*
X0093826Y0144400D01*
X0142277Y0144400D01*
X0143159Y0144765D01*
X0143835Y0145441D01*
X0207494Y0209100D01*
X0208694Y0207900D01*
X0210385Y0207200D01*
X0218215Y0207200D01*
X0219906Y0207900D01*
X0221200Y0209194D01*
X0221285Y0209400D01*
X0240195Y0209400D01*
X0242395Y0207200D01*
X0246205Y0207200D01*
X0248900Y0209895D01*
X0248900Y0213705D01*
X0248145Y0214461D01*
X0250455Y0214461D01*
X0249700Y0213705D01*
X0249700Y0209895D01*
X0252395Y0207200D01*
X0256205Y0207200D01*
X0258405Y0209400D01*
X0260760Y0209400D01*
X0262560Y0207600D01*
X0266040Y0207600D01*
X0268500Y0210060D01*
X0268500Y0213540D01*
X0267579Y0214461D01*
X0300738Y0214461D01*
X0299900Y0213623D01*
X0299900Y0211800D01*
X0304300Y0211800D01*
X0308700Y0211800D01*
X0308700Y0213623D01*
X0307862Y0214461D01*
X0329958Y0214461D01*
X0328400Y0213849D01*
X0324485Y0210727D01*
X0324485Y0210727D01*
X0324485Y0210727D01*
X0321664Y0206589D01*
X0320188Y0201804D01*
X0320188Y0196796D01*
X0321664Y0192011D01*
X0321664Y0192011D01*
X0324485Y0187873D01*
X0328400Y0184751D01*
X0333062Y0182921D01*
X0338055Y0182547D01*
X0338055Y0182547D01*
X0342938Y0183661D01*
X0347275Y0186165D01*
X0350681Y0189836D01*
X0352854Y0194348D01*
X0353201Y0196652D01*
X0353201Y0026948D01*
X0352854Y0029252D01*
X0350681Y0033764D01*
X0347275Y0037435D01*
X0347275Y0037435D01*
X0342938Y0039939D01*
X0342938Y0039939D01*
X0338055Y0041053D01*
X0333062Y0040679D01*
X0333062Y0040679D01*
X0328400Y0038849D01*
X0324485Y0035727D01*
X0324485Y0035727D01*
X0324485Y0035727D01*
X0321664Y0031589D01*
X0320188Y0026804D01*
X0320188Y0021796D01*
X0321664Y0017011D01*
X0321664Y0017011D01*
X0324485Y0012873D01*
X0328400Y0009751D01*
X0333062Y0007921D01*
X0338055Y0007547D01*
X0338055Y0007547D01*
X0342938Y0008661D01*
X0347275Y0011165D01*
X0350681Y0014836D01*
X0352854Y0019348D01*
X0353201Y0021652D01*
X0353201Y0006600D01*
X0021600Y0006600D01*
X0021600Y0017217D01*
X0021664Y0017011D01*
X0021664Y0017011D01*
X0024485Y0012873D01*
X0028400Y0009751D01*
X0033062Y0007921D01*
X0038055Y0007547D01*
X0038055Y0007547D01*
X0042938Y0008661D01*
X0047275Y0011165D01*
X0050681Y0014836D01*
X0052854Y0019348D01*
X0053600Y0024300D01*
X0052854Y0029252D01*
X0050681Y0033764D01*
X0047275Y0037435D01*
X0047275Y0037435D01*
X0042938Y0039939D01*
X0042938Y0039939D01*
X0038055Y0041053D01*
X0033062Y0040679D01*
X0033062Y0040679D01*
X0028400Y0038849D01*
X0024485Y0035727D01*
X0024485Y0035727D01*
X0021664Y0031589D01*
X0021600Y0031383D01*
X0021600Y0192217D01*
X0021664Y0192011D01*
X0021664Y0192011D01*
X0024485Y0187873D01*
X0028400Y0184751D01*
X0033062Y0182921D01*
X0038055Y0182547D01*
X0042938Y0183661D01*
X0042938Y0183661D01*
X0047275Y0186165D01*
X0050681Y0189836D01*
X0052854Y0194348D01*
X0053600Y0199300D01*
X0052854Y0204252D01*
X0052854Y0204252D01*
X0051815Y0206409D02*
X0064080Y0206409D01*
X0064691Y0208008D02*
X0051045Y0208008D01*
X0050681Y0208764D02*
X0050681Y0208764D01*
X0049899Y0209606D02*
X0066134Y0209606D01*
X0068925Y0209606D02*
X0069675Y0209606D01*
X0069675Y0208008D02*
X0068925Y0208008D01*
X0068925Y0206409D02*
X0069675Y0206409D01*
X0069675Y0204811D02*
X0068925Y0204811D01*
X0068925Y0203212D02*
X0069675Y0203212D01*
X0069675Y0200015D02*
X0068925Y0200015D01*
X0068925Y0198417D02*
X0069675Y0198417D01*
X0069675Y0196818D02*
X0068925Y0196818D01*
X0068925Y0195220D02*
X0069675Y0195220D01*
X0069675Y0193621D02*
X0068925Y0193621D01*
X0066704Y0193621D02*
X0052504Y0193621D01*
X0052854Y0194348D02*
X0052854Y0194348D01*
X0052985Y0195220D02*
X0064938Y0195220D01*
X0064174Y0196818D02*
X0053226Y0196818D01*
X0053467Y0198417D02*
X0063975Y0198417D01*
X0063975Y0200015D02*
X0053492Y0200015D01*
X0051734Y0192023D02*
X0183629Y0192023D01*
X0185227Y0193621D02*
X0171457Y0193621D01*
X0173493Y0195220D02*
X0186826Y0195220D01*
X0188424Y0196818D02*
X0174244Y0196818D01*
X0174425Y0198417D02*
X0190023Y0198417D01*
X0191621Y0200015D02*
X0174425Y0200015D01*
X0174425Y0201614D02*
X0193220Y0201614D01*
X0194818Y0203212D02*
X0174425Y0203212D01*
X0174425Y0204811D02*
X0196417Y0204811D01*
X0198015Y0206409D02*
X0174398Y0206409D01*
X0174200Y0208008D02*
X0199614Y0208008D01*
X0201212Y0209606D02*
X0174200Y0209606D01*
X0173815Y0211205D02*
X0202811Y0211205D01*
X0204409Y0212803D02*
X0172726Y0212803D01*
X0171128Y0214402D02*
X0207399Y0214402D01*
X0206800Y0211800D02*
X0141800Y0146800D01*
X0089300Y0146800D01*
X0084634Y0148863D02*
X0021600Y0148863D01*
X0021600Y0147265D02*
X0084200Y0147265D01*
X0084249Y0145666D02*
X0021600Y0145666D01*
X0021600Y0144068D02*
X0084912Y0144068D01*
X0086429Y0142469D02*
X0021600Y0142469D01*
X0021600Y0140870D02*
X0353201Y0140870D01*
X0353201Y0139272D02*
X0021600Y0139272D01*
X0021600Y0137673D02*
X0353201Y0137673D01*
X0353201Y0136075D02*
X0021600Y0136075D01*
X0021600Y0134476D02*
X0353201Y0134476D01*
X0353201Y0132878D02*
X0021600Y0132878D01*
X0021600Y0131279D02*
X0353201Y0131279D01*
X0353201Y0129681D02*
X0021600Y0129681D01*
X0021600Y0128082D02*
X0353201Y0128082D01*
X0353201Y0126484D02*
X0021600Y0126484D01*
X0021600Y0124885D02*
X0353201Y0124885D01*
X0353201Y0123287D02*
X0021600Y0123287D01*
X0021600Y0121688D02*
X0353201Y0121688D01*
X0353201Y0120090D02*
X0021600Y0120090D01*
X0021600Y0118491D02*
X0353201Y0118491D01*
X0353201Y0116893D02*
X0021600Y0116893D01*
X0021600Y0115294D02*
X0353201Y0115294D01*
X0353201Y0113696D02*
X0021600Y0113696D01*
X0021600Y0112097D02*
X0353201Y0112097D01*
X0353201Y0110499D02*
X0021600Y0110499D01*
X0021600Y0108900D02*
X0353201Y0108900D01*
X0353201Y0107302D02*
X0021600Y0107302D01*
X0021600Y0105703D02*
X0353201Y0105703D01*
X0353201Y0104105D02*
X0021600Y0104105D01*
X0021600Y0102506D02*
X0353201Y0102506D01*
X0353201Y0100908D02*
X0021600Y0100908D01*
X0021600Y0099309D02*
X0353201Y0099309D01*
X0353201Y0097711D02*
X0021600Y0097711D01*
X0021600Y0096112D02*
X0353201Y0096112D01*
X0353201Y0094514D02*
X0021600Y0094514D01*
X0021600Y0092915D02*
X0353201Y0092915D01*
X0353201Y0091317D02*
X0021600Y0091317D01*
X0021600Y0089718D02*
X0353201Y0089718D01*
X0353201Y0088120D02*
X0021600Y0088120D01*
X0021600Y0086521D02*
X0353201Y0086521D01*
X0353201Y0084923D02*
X0021600Y0084923D01*
X0021600Y0083324D02*
X0353201Y0083324D01*
X0353201Y0081726D02*
X0021600Y0081726D01*
X0021600Y0080127D02*
X0353201Y0080127D01*
X0353201Y0078529D02*
X0021600Y0078529D01*
X0021600Y0076930D02*
X0353201Y0076930D01*
X0353201Y0075332D02*
X0021600Y0075332D01*
X0021600Y0073733D02*
X0353201Y0073733D01*
X0353201Y0072134D02*
X0021600Y0072134D01*
X0021600Y0070536D02*
X0025823Y0070536D01*
X0026411Y0071124D02*
X0024976Y0069689D01*
X0024200Y0067814D01*
X0024200Y0065786D01*
X0024976Y0063911D01*
X0026411Y0062476D01*
X0028044Y0061800D01*
X0026411Y0061124D01*
X0024976Y0059689D01*
X0024200Y0057814D01*
X0024200Y0055786D01*
X0024976Y0053911D01*
X0026411Y0052476D01*
X0028286Y0051700D01*
X0030314Y0051700D01*
X0032189Y0052476D01*
X0033624Y0053911D01*
X0034400Y0055786D01*
X0034400Y0057814D01*
X0033624Y0059689D01*
X0032189Y0061124D01*
X0030556Y0061800D01*
X0032189Y0062476D01*
X0033624Y0063911D01*
X0034400Y0065786D01*
X0034400Y0067814D01*
X0033624Y0069689D01*
X0032189Y0071124D01*
X0030314Y0071900D01*
X0028286Y0071900D01*
X0026411Y0071124D01*
X0024665Y0068937D02*
X0021600Y0068937D01*
X0021600Y0067339D02*
X0024200Y0067339D01*
X0024219Y0065740D02*
X0021600Y0065740D01*
X0021600Y0064142D02*
X0024881Y0064142D01*
X0026344Y0062543D02*
X0021600Y0062543D01*
X0021600Y0060945D02*
X0026232Y0060945D01*
X0024835Y0059346D02*
X0021600Y0059346D01*
X0021600Y0057748D02*
X0024200Y0057748D01*
X0024200Y0056149D02*
X0021600Y0056149D01*
X0021600Y0054551D02*
X0024711Y0054551D01*
X0025935Y0052952D02*
X0021600Y0052952D01*
X0021600Y0051354D02*
X0353201Y0051354D01*
X0353201Y0052952D02*
X0347665Y0052952D01*
X0347189Y0052476D02*
X0348624Y0053911D01*
X0349400Y0055786D01*
X0349400Y0057814D01*
X0348624Y0059689D01*
X0347189Y0061124D01*
X0345556Y0061800D01*
X0347189Y0062476D01*
X0348624Y0063911D01*
X0349400Y0065786D01*
X0349400Y0067814D01*
X0348624Y0069689D01*
X0347189Y0071124D01*
X0345314Y0071900D01*
X0343286Y0071900D01*
X0341411Y0071124D01*
X0339976Y0069689D01*
X0339200Y0067814D01*
X0339200Y0065786D01*
X0339976Y0063911D01*
X0341411Y0062476D01*
X0343044Y0061800D01*
X0341411Y0061124D01*
X0339976Y0059689D01*
X0339200Y0057814D01*
X0339200Y0055786D01*
X0339976Y0053911D01*
X0341411Y0052476D01*
X0343286Y0051700D01*
X0345314Y0051700D01*
X0347189Y0052476D01*
X0348889Y0054551D02*
X0353201Y0054551D01*
X0353201Y0056149D02*
X0349400Y0056149D01*
X0349400Y0057748D02*
X0353201Y0057748D01*
X0353201Y0059346D02*
X0348765Y0059346D01*
X0347368Y0060945D02*
X0353201Y0060945D01*
X0353201Y0062543D02*
X0347256Y0062543D01*
X0348719Y0064142D02*
X0353201Y0064142D01*
X0353201Y0065740D02*
X0349381Y0065740D01*
X0349400Y0067339D02*
X0353201Y0067339D01*
X0353201Y0068937D02*
X0348935Y0068937D01*
X0347776Y0070536D02*
X0353201Y0070536D01*
X0341344Y0062543D02*
X0287256Y0062543D01*
X0287189Y0062476D02*
X0288624Y0063911D01*
X0289400Y0065786D01*
X0289400Y0067814D01*
X0288624Y0069689D01*
X0287189Y0071124D01*
X0285314Y0071900D01*
X0283286Y0071900D01*
X0281411Y0071124D01*
X0279976Y0069689D01*
X0279200Y0067814D01*
X0279200Y0065786D01*
X0279976Y0063911D01*
X0281411Y0062476D01*
X0283044Y0061800D01*
X0281411Y0061124D01*
X0279976Y0059689D01*
X0279200Y0057814D01*
X0279200Y0055786D01*
X0279976Y0053911D01*
X0281411Y0052476D01*
X0283286Y0051700D01*
X0285314Y0051700D01*
X0287189Y0052476D01*
X0288624Y0053911D01*
X0289400Y0055786D01*
X0289400Y0057814D01*
X0288624Y0059689D01*
X0287189Y0061124D01*
X0285556Y0061800D01*
X0287189Y0062476D01*
X0287368Y0060945D02*
X0341232Y0060945D01*
X0339835Y0059346D02*
X0288765Y0059346D01*
X0289400Y0057748D02*
X0339200Y0057748D01*
X0339200Y0056149D02*
X0289400Y0056149D01*
X0288889Y0054551D02*
X0339711Y0054551D01*
X0340935Y0052952D02*
X0287665Y0052952D01*
X0280935Y0052952D02*
X0262665Y0052952D01*
X0262189Y0052476D02*
X0263624Y0053911D01*
X0264400Y0055786D01*
X0264400Y0057814D01*
X0263624Y0059689D01*
X0262189Y0061124D01*
X0260556Y0061800D01*
X0262189Y0062476D01*
X0263624Y0063911D01*
X0264400Y0065786D01*
X0264400Y0067814D01*
X0263624Y0069689D01*
X0262189Y0071124D01*
X0260314Y0071900D01*
X0258286Y0071900D01*
X0256411Y0071124D01*
X0254976Y0069689D01*
X0254200Y0067814D01*
X0254200Y0065786D01*
X0254976Y0063911D01*
X0256411Y0062476D01*
X0258044Y0061800D01*
X0256411Y0061124D01*
X0254976Y0059689D01*
X0254200Y0057814D01*
X0254200Y0055786D01*
X0254976Y0053911D01*
X0256411Y0052476D01*
X0258286Y0051700D01*
X0260314Y0051700D01*
X0262189Y0052476D01*
X0263889Y0054551D02*
X0279711Y0054551D01*
X0279200Y0056149D02*
X0264400Y0056149D01*
X0264400Y0057748D02*
X0279200Y0057748D01*
X0279835Y0059346D02*
X0263765Y0059346D01*
X0262368Y0060945D02*
X0281232Y0060945D01*
X0281344Y0062543D02*
X0262256Y0062543D01*
X0263719Y0064142D02*
X0279881Y0064142D01*
X0279219Y0065740D02*
X0264381Y0065740D01*
X0264400Y0067339D02*
X0279200Y0067339D01*
X0279665Y0068937D02*
X0263935Y0068937D01*
X0262776Y0070536D02*
X0280823Y0070536D01*
X0287776Y0070536D02*
X0340823Y0070536D01*
X0339665Y0068937D02*
X0288935Y0068937D01*
X0289400Y0067339D02*
X0339200Y0067339D01*
X0339219Y0065740D02*
X0289381Y0065740D01*
X0288719Y0064142D02*
X0339881Y0064142D01*
X0353201Y0049755D02*
X0021600Y0049755D01*
X0021600Y0048157D02*
X0353201Y0048157D01*
X0353201Y0046558D02*
X0021600Y0046558D01*
X0021600Y0044960D02*
X0353201Y0044960D01*
X0353201Y0043361D02*
X0021600Y0043361D01*
X0021600Y0041763D02*
X0353201Y0041763D01*
X0353201Y0040164D02*
X0341949Y0040164D01*
X0345316Y0038566D02*
X0353201Y0038566D01*
X0353201Y0036967D02*
X0347708Y0036967D01*
X0349192Y0035369D02*
X0353201Y0035369D01*
X0353201Y0033770D02*
X0350675Y0033770D01*
X0350681Y0033764D02*
X0350681Y0033764D01*
X0351448Y0032172D02*
X0353201Y0032172D01*
X0353201Y0030573D02*
X0352217Y0030573D01*
X0352854Y0029252D02*
X0352854Y0029252D01*
X0352895Y0028975D02*
X0353201Y0028975D01*
X0353201Y0027376D02*
X0353136Y0027376D01*
X0353100Y0020982D02*
X0353201Y0020982D01*
X0353201Y0019384D02*
X0352859Y0019384D01*
X0352854Y0019348D02*
X0352854Y0019348D01*
X0353201Y0017785D02*
X0352101Y0017785D01*
X0351331Y0016187D02*
X0353201Y0016187D01*
X0353201Y0014588D02*
X0350451Y0014588D01*
X0350681Y0014836D02*
X0350681Y0014836D01*
X0348967Y0012990D02*
X0353201Y0012990D01*
X0353201Y0011391D02*
X0347484Y0011391D01*
X0347275Y0011165D02*
X0347275Y0011165D01*
X0347275Y0011165D01*
X0344897Y0009793D02*
X0353201Y0009793D01*
X0353201Y0008194D02*
X0340890Y0008194D01*
X0342938Y0008661D02*
X0342938Y0008661D01*
X0333062Y0007921D02*
X0333062Y0007921D01*
X0332366Y0008194D02*
X0040890Y0008194D01*
X0042938Y0008661D02*
X0042938Y0008661D01*
X0044897Y0009793D02*
X0328348Y0009793D01*
X0328400Y0009751D02*
X0328400Y0009751D01*
X0326343Y0011391D02*
X0307109Y0011391D01*
X0307203Y0011430D02*
X0308645Y0012872D01*
X0309425Y0014756D01*
X0309425Y0023844D01*
X0308645Y0025728D01*
X0307203Y0027170D01*
X0305319Y0027950D01*
X0303281Y0027950D01*
X0301397Y0027170D01*
X0299955Y0025728D01*
X0299175Y0023844D01*
X0299175Y0014756D01*
X0299955Y0012872D01*
X0301397Y0011430D01*
X0303281Y0010650D01*
X0305319Y0010650D01*
X0307203Y0011430D01*
X0308693Y0012990D02*
X0324405Y0012990D01*
X0324485Y0012873D02*
X0324485Y0012873D01*
X0324485Y0012873D01*
X0323315Y0014588D02*
X0309356Y0014588D01*
X0309425Y0016187D02*
X0322226Y0016187D01*
X0321425Y0017785D02*
X0309425Y0017785D01*
X0309425Y0019384D02*
X0320932Y0019384D01*
X0320439Y0020982D02*
X0309425Y0020982D01*
X0309425Y0022581D02*
X0320188Y0022581D01*
X0320188Y0024179D02*
X0309286Y0024179D01*
X0308595Y0025778D02*
X0320188Y0025778D01*
X0320364Y0027376D02*
X0306705Y0027376D01*
X0301895Y0027376D02*
X0286705Y0027376D01*
X0287203Y0027170D02*
X0285319Y0027950D01*
X0283281Y0027950D01*
X0281397Y0027170D01*
X0279955Y0025728D01*
X0279175Y0023844D01*
X0279175Y0014756D01*
X0279955Y0012872D01*
X0281397Y0011430D01*
X0283281Y0010650D01*
X0285319Y0010650D01*
X0287203Y0011430D01*
X0288645Y0012872D01*
X0289425Y0014756D01*
X0289425Y0023844D01*
X0288645Y0025728D01*
X0287203Y0027170D01*
X0288595Y0025778D02*
X0300005Y0025778D01*
X0299314Y0024179D02*
X0289286Y0024179D01*
X0289425Y0022581D02*
X0299175Y0022581D01*
X0299175Y0020982D02*
X0289425Y0020982D01*
X0289425Y0019384D02*
X0299175Y0019384D01*
X0299175Y0017785D02*
X0289425Y0017785D01*
X0289425Y0016187D02*
X0299175Y0016187D01*
X0299244Y0014588D02*
X0289356Y0014588D01*
X0288693Y0012990D02*
X0299906Y0012990D01*
X0301491Y0011391D02*
X0287109Y0011391D01*
X0281491Y0011391D02*
X0262109Y0011391D01*
X0262203Y0011430D02*
X0263645Y0012872D01*
X0264425Y0014756D01*
X0264425Y0023844D01*
X0263645Y0025728D01*
X0262203Y0027170D01*
X0260319Y0027950D01*
X0258281Y0027950D01*
X0256397Y0027170D01*
X0254955Y0025728D01*
X0254175Y0023844D01*
X0254175Y0014756D01*
X0254955Y0012872D01*
X0256397Y0011430D01*
X0258281Y0010650D01*
X0260319Y0010650D01*
X0262203Y0011430D01*
X0263693Y0012990D02*
X0279906Y0012990D01*
X0279244Y0014588D02*
X0264356Y0014588D01*
X0264425Y0016187D02*
X0279175Y0016187D01*
X0279175Y0017785D02*
X0264425Y0017785D01*
X0264425Y0019384D02*
X0279175Y0019384D01*
X0279175Y0020982D02*
X0264425Y0020982D01*
X0264425Y0022581D02*
X0279175Y0022581D01*
X0279314Y0024179D02*
X0264286Y0024179D01*
X0263595Y0025778D02*
X0280005Y0025778D01*
X0281895Y0027376D02*
X0261705Y0027376D01*
X0256895Y0027376D02*
X0241705Y0027376D01*
X0242203Y0027170D02*
X0240319Y0027950D01*
X0238281Y0027950D01*
X0236397Y0027170D01*
X0234955Y0025728D01*
X0234175Y0023844D01*
X0234175Y0014756D01*
X0234955Y0012872D01*
X0236397Y0011430D01*
X0238281Y0010650D01*
X0240319Y0010650D01*
X0242203Y0011430D01*
X0243645Y0012872D01*
X0244425Y0014756D01*
X0244425Y0023844D01*
X0243645Y0025728D01*
X0242203Y0027170D01*
X0243595Y0025778D02*
X0255005Y0025778D01*
X0254314Y0024179D02*
X0244286Y0024179D01*
X0244425Y0022581D02*
X0254175Y0022581D01*
X0254175Y0020982D02*
X0244425Y0020982D01*
X0244425Y0019384D02*
X0254175Y0019384D01*
X0254175Y0017785D02*
X0244425Y0017785D01*
X0244425Y0016187D02*
X0254175Y0016187D01*
X0254244Y0014588D02*
X0244356Y0014588D01*
X0243693Y0012990D02*
X0254906Y0012990D01*
X0256491Y0011391D02*
X0242109Y0011391D01*
X0236491Y0011391D02*
X0137109Y0011391D01*
X0137203Y0011430D02*
X0138645Y0012872D01*
X0139425Y0014756D01*
X0139425Y0023844D01*
X0138645Y0025728D01*
X0137203Y0027170D01*
X0135319Y0027950D01*
X0133281Y0027950D01*
X0131397Y0027170D01*
X0129955Y0025728D01*
X0129175Y0023844D01*
X0129175Y0014756D01*
X0129955Y0012872D01*
X0131397Y0011430D01*
X0133281Y0010650D01*
X0135319Y0010650D01*
X0137203Y0011430D01*
X0138693Y0012990D02*
X0234906Y0012990D01*
X0234244Y0014588D02*
X0139356Y0014588D01*
X0139425Y0016187D02*
X0234175Y0016187D01*
X0234175Y0017785D02*
X0139425Y0017785D01*
X0139425Y0019384D02*
X0234175Y0019384D01*
X0234175Y0020982D02*
X0139425Y0020982D01*
X0139425Y0022581D02*
X0234175Y0022581D01*
X0234314Y0024179D02*
X0139286Y0024179D01*
X0138595Y0025778D02*
X0235005Y0025778D01*
X0236895Y0027376D02*
X0136705Y0027376D01*
X0131895Y0027376D02*
X0116705Y0027376D01*
X0117203Y0027170D02*
X0115319Y0027950D01*
X0113281Y0027950D01*
X0111397Y0027170D01*
X0109955Y0025728D01*
X0109175Y0023844D01*
X0109175Y0014756D01*
X0109955Y0012872D01*
X0111397Y0011430D01*
X0113281Y0010650D01*
X0115319Y0010650D01*
X0117203Y0011430D01*
X0118645Y0012872D01*
X0119425Y0014756D01*
X0119425Y0023844D01*
X0118645Y0025728D01*
X0117203Y0027170D01*
X0118595Y0025778D02*
X0130005Y0025778D01*
X0129314Y0024179D02*
X0119286Y0024179D01*
X0119425Y0022581D02*
X0129175Y0022581D01*
X0129175Y0020982D02*
X0119425Y0020982D01*
X0119425Y0019384D02*
X0129175Y0019384D01*
X0129175Y0017785D02*
X0119425Y0017785D01*
X0119425Y0016187D02*
X0129175Y0016187D01*
X0129244Y0014588D02*
X0119356Y0014588D01*
X0118693Y0012990D02*
X0129906Y0012990D01*
X0131491Y0011391D02*
X0117109Y0011391D01*
X0111491Y0011391D02*
X0092109Y0011391D01*
X0092203Y0011430D02*
X0093645Y0012872D01*
X0094425Y0014756D01*
X0094425Y0023844D01*
X0093645Y0025728D01*
X0092203Y0027170D01*
X0090319Y0027950D01*
X0088281Y0027950D01*
X0086397Y0027170D01*
X0084955Y0025728D01*
X0084175Y0023844D01*
X0084175Y0014756D01*
X0084955Y0012872D01*
X0086397Y0011430D01*
X0088281Y0010650D01*
X0090319Y0010650D01*
X0092203Y0011430D01*
X0093693Y0012990D02*
X0109906Y0012990D01*
X0109244Y0014588D02*
X0094356Y0014588D01*
X0094425Y0016187D02*
X0109175Y0016187D01*
X0109175Y0017785D02*
X0094425Y0017785D01*
X0094425Y0019384D02*
X0109175Y0019384D01*
X0109175Y0020982D02*
X0094425Y0020982D01*
X0094425Y0022581D02*
X0109175Y0022581D01*
X0109314Y0024179D02*
X0094286Y0024179D01*
X0093595Y0025778D02*
X0110005Y0025778D01*
X0111895Y0027376D02*
X0091705Y0027376D01*
X0086895Y0027376D02*
X0071705Y0027376D01*
X0072203Y0027170D02*
X0070319Y0027950D01*
X0068281Y0027950D01*
X0066397Y0027170D01*
X0064955Y0025728D01*
X0064175Y0023844D01*
X0064175Y0014756D01*
X0064955Y0012872D01*
X0066397Y0011430D01*
X0068281Y0010650D01*
X0070319Y0010650D01*
X0072203Y0011430D01*
X0073645Y0012872D01*
X0074425Y0014756D01*
X0074425Y0023844D01*
X0073645Y0025728D01*
X0072203Y0027170D01*
X0073595Y0025778D02*
X0085005Y0025778D01*
X0084314Y0024179D02*
X0074286Y0024179D01*
X0074425Y0022581D02*
X0084175Y0022581D01*
X0084175Y0020982D02*
X0074425Y0020982D01*
X0074425Y0019384D02*
X0084175Y0019384D01*
X0084175Y0017785D02*
X0074425Y0017785D01*
X0074425Y0016187D02*
X0084175Y0016187D01*
X0084244Y0014588D02*
X0074356Y0014588D01*
X0073693Y0012990D02*
X0084906Y0012990D01*
X0086491Y0011391D02*
X0072109Y0011391D01*
X0066491Y0011391D02*
X0047484Y0011391D01*
X0047275Y0011165D02*
X0047275Y0011165D01*
X0048967Y0012990D02*
X0064906Y0012990D01*
X0064244Y0014588D02*
X0050451Y0014588D01*
X0050681Y0014836D02*
X0050681Y0014836D01*
X0051331Y0016187D02*
X0064175Y0016187D01*
X0064175Y0017785D02*
X0052101Y0017785D01*
X0052854Y0019348D02*
X0052854Y0019348D01*
X0052859Y0019384D02*
X0064175Y0019384D01*
X0064175Y0020982D02*
X0053100Y0020982D01*
X0053341Y0022581D02*
X0064175Y0022581D01*
X0064314Y0024179D02*
X0053582Y0024179D01*
X0053377Y0025778D02*
X0065005Y0025778D01*
X0066895Y0027376D02*
X0053136Y0027376D01*
X0052895Y0028975D02*
X0320857Y0028975D01*
X0321350Y0030573D02*
X0052217Y0030573D01*
X0052854Y0029252D02*
X0052854Y0029252D01*
X0051448Y0032172D02*
X0322061Y0032172D01*
X0321664Y0031589D02*
X0321664Y0031589D01*
X0323151Y0033770D02*
X0050675Y0033770D01*
X0050681Y0033764D02*
X0050681Y0033764D01*
X0049192Y0035369D02*
X0324241Y0035369D01*
X0326040Y0036967D02*
X0047708Y0036967D01*
X0045316Y0038566D02*
X0328045Y0038566D01*
X0328400Y0038849D02*
X0328400Y0038849D01*
X0331751Y0040164D02*
X0041949Y0040164D01*
X0038055Y0041053D02*
X0038055Y0041053D01*
X0031751Y0040164D02*
X0021600Y0040164D01*
X0021600Y0038566D02*
X0028045Y0038566D01*
X0026040Y0036967D02*
X0021600Y0036967D01*
X0021600Y0035369D02*
X0024241Y0035369D01*
X0023151Y0033770D02*
X0021600Y0033770D01*
X0021600Y0032172D02*
X0022061Y0032172D01*
X0022226Y0016187D02*
X0021600Y0016187D01*
X0021600Y0014588D02*
X0023315Y0014588D01*
X0024405Y0012990D02*
X0021600Y0012990D01*
X0021600Y0011391D02*
X0026343Y0011391D01*
X0024485Y0012873D02*
X0024485Y0012873D01*
X0024485Y0012873D01*
X0021600Y0009793D02*
X0028348Y0009793D01*
X0028400Y0009751D02*
X0028400Y0009751D01*
X0032366Y0008194D02*
X0021600Y0008194D01*
X0033062Y0007921D02*
X0033062Y0007921D01*
X0032665Y0052952D02*
X0085935Y0052952D01*
X0086411Y0052476D02*
X0084976Y0053911D01*
X0084200Y0055786D01*
X0084200Y0057814D01*
X0084976Y0059689D01*
X0086411Y0061124D01*
X0088044Y0061800D01*
X0086411Y0062476D01*
X0084976Y0063911D01*
X0084200Y0065786D01*
X0084200Y0067814D01*
X0084976Y0069689D01*
X0086411Y0071124D01*
X0088286Y0071900D01*
X0090314Y0071900D01*
X0092189Y0071124D01*
X0093624Y0069689D01*
X0094400Y0067814D01*
X0094400Y0065786D01*
X0093624Y0063911D01*
X0092189Y0062476D01*
X0090556Y0061800D01*
X0092189Y0061124D01*
X0093624Y0059689D01*
X0094400Y0057814D01*
X0094400Y0055786D01*
X0093624Y0053911D01*
X0092189Y0052476D01*
X0090314Y0051700D01*
X0088286Y0051700D01*
X0086411Y0052476D01*
X0084711Y0054551D02*
X0033889Y0054551D01*
X0034400Y0056149D02*
X0084200Y0056149D01*
X0084200Y0057748D02*
X0034400Y0057748D01*
X0033765Y0059346D02*
X0084835Y0059346D01*
X0086232Y0060945D02*
X0032368Y0060945D01*
X0032256Y0062543D02*
X0086344Y0062543D01*
X0084881Y0064142D02*
X0033719Y0064142D01*
X0034381Y0065740D02*
X0084219Y0065740D01*
X0084200Y0067339D02*
X0034400Y0067339D01*
X0033935Y0068937D02*
X0084665Y0068937D01*
X0085823Y0070536D02*
X0032776Y0070536D01*
X0092776Y0070536D02*
X0110823Y0070536D01*
X0111411Y0071124D02*
X0109976Y0069689D01*
X0109200Y0067814D01*
X0109200Y0065786D01*
X0109976Y0063911D01*
X0111411Y0062476D01*
X0113044Y0061800D01*
X0111411Y0061124D01*
X0109976Y0059689D01*
X0109200Y0057814D01*
X0109200Y0055786D01*
X0109976Y0053911D01*
X0111411Y0052476D01*
X0113286Y0051700D01*
X0115314Y0051700D01*
X0117189Y0052476D01*
X0118624Y0053911D01*
X0119400Y0055786D01*
X0119400Y0057814D01*
X0118624Y0059689D01*
X0117189Y0061124D01*
X0115556Y0061800D01*
X0117189Y0062476D01*
X0118624Y0063911D01*
X0119400Y0065786D01*
X0119400Y0067814D01*
X0118624Y0069689D01*
X0117189Y0071124D01*
X0115314Y0071900D01*
X0113286Y0071900D01*
X0111411Y0071124D01*
X0109665Y0068937D02*
X0093935Y0068937D01*
X0094400Y0067339D02*
X0109200Y0067339D01*
X0109219Y0065740D02*
X0094381Y0065740D01*
X0093719Y0064142D02*
X0109881Y0064142D01*
X0111344Y0062543D02*
X0092256Y0062543D01*
X0092368Y0060945D02*
X0111232Y0060945D01*
X0109835Y0059346D02*
X0093765Y0059346D01*
X0094400Y0057748D02*
X0109200Y0057748D01*
X0109200Y0056149D02*
X0094400Y0056149D01*
X0093889Y0054551D02*
X0109711Y0054551D01*
X0110935Y0052952D02*
X0092665Y0052952D01*
X0117665Y0052952D02*
X0170935Y0052952D01*
X0171411Y0052476D02*
X0173286Y0051700D01*
X0175314Y0051700D01*
X0177189Y0052476D01*
X0178624Y0053911D01*
X0179400Y0055786D01*
X0179400Y0057814D01*
X0178624Y0059689D01*
X0177189Y0061124D01*
X0175556Y0061800D01*
X0177189Y0062476D01*
X0178624Y0063911D01*
X0179400Y0065786D01*
X0179400Y0067814D01*
X0178624Y0069689D01*
X0177189Y0071124D01*
X0175314Y0071900D01*
X0173286Y0071900D01*
X0171411Y0071124D01*
X0169976Y0069689D01*
X0169200Y0067814D01*
X0169200Y0065786D01*
X0169976Y0063911D01*
X0171411Y0062476D01*
X0173044Y0061800D01*
X0171411Y0061124D01*
X0169976Y0059689D01*
X0169200Y0057814D01*
X0169200Y0055786D01*
X0169976Y0053911D01*
X0171411Y0052476D01*
X0169711Y0054551D02*
X0118889Y0054551D01*
X0119400Y0056149D02*
X0169200Y0056149D01*
X0169200Y0057748D02*
X0119400Y0057748D01*
X0118765Y0059346D02*
X0169835Y0059346D01*
X0171232Y0060945D02*
X0117368Y0060945D01*
X0117256Y0062543D02*
X0171344Y0062543D01*
X0169881Y0064142D02*
X0118719Y0064142D01*
X0119381Y0065740D02*
X0169219Y0065740D01*
X0169200Y0067339D02*
X0119400Y0067339D01*
X0118935Y0068937D02*
X0169665Y0068937D01*
X0170823Y0070536D02*
X0117776Y0070536D01*
X0177776Y0070536D02*
X0195823Y0070536D01*
X0196411Y0071124D02*
X0194976Y0069689D01*
X0194200Y0067814D01*
X0194200Y0065786D01*
X0194976Y0063911D01*
X0196411Y0062476D01*
X0198044Y0061800D01*
X0196411Y0061124D01*
X0194976Y0059689D01*
X0194200Y0057814D01*
X0194200Y0055786D01*
X0194976Y0053911D01*
X0196411Y0052476D01*
X0198286Y0051700D01*
X0200314Y0051700D01*
X0202189Y0052476D01*
X0203624Y0053911D01*
X0204400Y0055786D01*
X0204400Y0057814D01*
X0203624Y0059689D01*
X0202189Y0061124D01*
X0200556Y0061800D01*
X0202189Y0062476D01*
X0203624Y0063911D01*
X0204400Y0065786D01*
X0204400Y0067814D01*
X0203624Y0069689D01*
X0202189Y0071124D01*
X0200314Y0071900D01*
X0198286Y0071900D01*
X0196411Y0071124D01*
X0194665Y0068937D02*
X0178935Y0068937D01*
X0179400Y0067339D02*
X0194200Y0067339D01*
X0194219Y0065740D02*
X0179381Y0065740D01*
X0178719Y0064142D02*
X0194881Y0064142D01*
X0196344Y0062543D02*
X0177256Y0062543D01*
X0177368Y0060945D02*
X0196232Y0060945D01*
X0194835Y0059346D02*
X0178765Y0059346D01*
X0179400Y0057748D02*
X0194200Y0057748D01*
X0194200Y0056149D02*
X0179400Y0056149D01*
X0178889Y0054551D02*
X0194711Y0054551D01*
X0195935Y0052952D02*
X0177665Y0052952D01*
X0202665Y0052952D02*
X0255935Y0052952D01*
X0254711Y0054551D02*
X0203889Y0054551D01*
X0204400Y0056149D02*
X0254200Y0056149D01*
X0254200Y0057748D02*
X0204400Y0057748D01*
X0203765Y0059346D02*
X0254835Y0059346D01*
X0256232Y0060945D02*
X0202368Y0060945D01*
X0202256Y0062543D02*
X0256344Y0062543D01*
X0254881Y0064142D02*
X0203719Y0064142D01*
X0204381Y0065740D02*
X0254219Y0065740D01*
X0254200Y0067339D02*
X0204400Y0067339D01*
X0203935Y0068937D02*
X0254665Y0068937D01*
X0255823Y0070536D02*
X0202776Y0070536D01*
X0175314Y0141700D02*
X0177189Y0142476D01*
X0178624Y0143911D01*
X0178826Y0144400D01*
X0184777Y0144400D01*
X0185659Y0144765D01*
X0186335Y0145441D01*
X0188835Y0147941D01*
X0189200Y0148823D01*
X0189200Y0180806D01*
X0207494Y0199100D01*
X0208694Y0197900D01*
X0210385Y0197200D01*
X0218215Y0197200D01*
X0219906Y0197900D01*
X0221200Y0199194D01*
X0221285Y0199400D01*
X0240195Y0199400D01*
X0242395Y0197200D01*
X0246205Y0197200D01*
X0248900Y0199895D01*
X0248900Y0203705D01*
X0246205Y0206400D01*
X0242395Y0206400D01*
X0240195Y0204200D01*
X0221285Y0204200D01*
X0221200Y0204406D01*
X0219906Y0205700D01*
X0218215Y0206400D01*
X0210385Y0206400D01*
X0208694Y0205700D01*
X0207400Y0204406D01*
X0207315Y0204200D01*
X0206323Y0204200D01*
X0205441Y0203835D01*
X0185441Y0183835D01*
X0184765Y0183159D01*
X0184400Y0182277D01*
X0184400Y0150294D01*
X0183306Y0149200D01*
X0178826Y0149200D01*
X0178624Y0149689D01*
X0177189Y0151124D01*
X0175556Y0151800D01*
X0177189Y0152476D01*
X0178624Y0153911D01*
X0179400Y0155786D01*
X0179400Y0157814D01*
X0178624Y0159689D01*
X0177189Y0161124D01*
X0175556Y0161800D01*
X0177189Y0162476D01*
X0178624Y0163911D01*
X0179400Y0165786D01*
X0179400Y0167814D01*
X0178624Y0169689D01*
X0177189Y0171124D01*
X0175314Y0171900D01*
X0173286Y0171900D01*
X0171411Y0171124D01*
X0169976Y0169689D01*
X0169200Y0167814D01*
X0169200Y0165786D01*
X0169976Y0163911D01*
X0171411Y0162476D01*
X0173044Y0161800D01*
X0171411Y0161124D01*
X0169976Y0159689D01*
X0169200Y0157814D01*
X0169200Y0155786D01*
X0169976Y0153911D01*
X0171411Y0152476D01*
X0173044Y0151800D01*
X0171411Y0151124D01*
X0169976Y0149689D01*
X0169200Y0147814D01*
X0169200Y0145786D01*
X0169976Y0143911D01*
X0171411Y0142476D01*
X0173286Y0141700D01*
X0175314Y0141700D01*
X0177171Y0142469D02*
X0256429Y0142469D01*
X0256411Y0142476D02*
X0258286Y0141700D01*
X0260314Y0141700D01*
X0262189Y0142476D01*
X0263624Y0143911D01*
X0264400Y0145786D01*
X0264400Y0147814D01*
X0263624Y0149689D01*
X0262189Y0151124D01*
X0260556Y0151800D01*
X0262189Y0152476D01*
X0263624Y0153911D01*
X0264400Y0155786D01*
X0264400Y0157814D01*
X0263624Y0159689D01*
X0262189Y0161124D01*
X0260556Y0161800D01*
X0262189Y0162476D01*
X0263624Y0163911D01*
X0264400Y0165786D01*
X0264400Y0167814D01*
X0263624Y0169689D01*
X0262189Y0171124D01*
X0260314Y0171900D01*
X0258286Y0171900D01*
X0256411Y0171124D01*
X0254976Y0169689D01*
X0254200Y0167814D01*
X0254200Y0165786D01*
X0254976Y0163911D01*
X0256411Y0162476D01*
X0258044Y0161800D01*
X0256411Y0161124D01*
X0254976Y0159689D01*
X0254200Y0157814D01*
X0254200Y0155786D01*
X0254976Y0153911D01*
X0256411Y0152476D01*
X0258044Y0151800D01*
X0256411Y0151124D01*
X0254976Y0149689D01*
X0254774Y0149200D01*
X0232794Y0149200D01*
X0204200Y0177794D01*
X0204200Y0185806D01*
X0207494Y0189100D01*
X0208694Y0187900D01*
X0210385Y0187200D01*
X0218215Y0187200D01*
X0219906Y0187900D01*
X0221200Y0189194D01*
X0221285Y0189400D01*
X0240195Y0189400D01*
X0242395Y0187200D01*
X0246205Y0187200D01*
X0248900Y0189895D01*
X0248900Y0193705D01*
X0246205Y0196400D01*
X0242395Y0196400D01*
X0240195Y0194200D01*
X0221285Y0194200D01*
X0221200Y0194406D01*
X0219906Y0195700D01*
X0218215Y0196400D01*
X0210385Y0196400D01*
X0208694Y0195700D01*
X0207400Y0194406D01*
X0207315Y0194200D01*
X0206323Y0194200D01*
X0205441Y0193835D01*
X0200441Y0188835D01*
X0199765Y0188159D01*
X0199400Y0187277D01*
X0199400Y0176323D01*
X0199765Y0175441D01*
X0229765Y0145441D01*
X0230441Y0144765D01*
X0231323Y0144400D01*
X0254774Y0144400D01*
X0254976Y0143911D01*
X0256411Y0142476D01*
X0254912Y0144068D02*
X0178688Y0144068D01*
X0174300Y0146800D02*
X0184300Y0146800D01*
X0186800Y0149300D01*
X0186800Y0181800D01*
X0206800Y0201800D01*
X0214300Y0201800D01*
X0244300Y0201800D01*
X0248900Y0201614D02*
X0249700Y0201614D01*
X0249700Y0203212D02*
X0248900Y0203212D01*
X0249700Y0203705D02*
X0249700Y0199895D01*
X0252395Y0197200D01*
X0256205Y0197200D01*
X0258405Y0199400D01*
X0260760Y0199400D01*
X0262560Y0197600D01*
X0266040Y0197600D01*
X0268500Y0200060D01*
X0268500Y0203540D01*
X0266040Y0206000D01*
X0262560Y0206000D01*
X0260760Y0204200D01*
X0258405Y0204200D01*
X0256205Y0206400D01*
X0252395Y0206400D01*
X0249700Y0203705D01*
X0250806Y0204811D02*
X0247794Y0204811D01*
X0254300Y0201800D02*
X0264300Y0201800D01*
X0267229Y0204811D02*
X0301088Y0204811D01*
X0299900Y0203623D02*
X0299900Y0201800D01*
X0304300Y0201800D01*
X0308700Y0201800D01*
X0308700Y0203623D01*
X0306123Y0206200D01*
X0304300Y0206200D01*
X0304300Y0201800D01*
X0304300Y0201800D01*
X0304300Y0201800D01*
X0308700Y0201800D01*
X0308700Y0199977D01*
X0306123Y0197400D01*
X0304300Y0197400D01*
X0304300Y0201800D01*
X0304300Y0201800D01*
X0304300Y0201800D01*
X0304300Y0206200D01*
X0302477Y0206200D01*
X0299900Y0203623D01*
X0299900Y0203212D02*
X0268500Y0203212D01*
X0268500Y0201614D02*
X0299900Y0201614D01*
X0299900Y0201800D02*
X0299900Y0199977D01*
X0302477Y0197400D01*
X0304300Y0197400D01*
X0304300Y0201800D01*
X0299900Y0201800D01*
X0299900Y0200015D02*
X0268455Y0200015D01*
X0266857Y0198417D02*
X0301461Y0198417D01*
X0302477Y0196200D02*
X0299900Y0193623D01*
X0299900Y0191800D01*
X0304300Y0191800D01*
X0308700Y0191800D01*
X0308700Y0193623D01*
X0306123Y0196200D01*
X0304300Y0196200D01*
X0304300Y0191800D01*
X0304300Y0191800D01*
X0304300Y0191800D01*
X0308700Y0191800D01*
X0308700Y0189977D01*
X0306123Y0187400D01*
X0304300Y0187400D01*
X0304300Y0191800D01*
X0304300Y0191800D01*
X0304300Y0191800D01*
X0304300Y0196200D01*
X0302477Y0196200D01*
X0301497Y0195220D02*
X0266820Y0195220D01*
X0266040Y0196000D02*
X0262560Y0196000D01*
X0260760Y0194200D01*
X0258405Y0194200D01*
X0256205Y0196400D01*
X0252395Y0196400D01*
X0249700Y0193705D01*
X0249700Y0189895D01*
X0252395Y0187200D01*
X0256205Y0187200D01*
X0258405Y0189400D01*
X0260760Y0189400D01*
X0262560Y0187600D01*
X0266040Y0187600D01*
X0268500Y0190060D01*
X0268500Y0193540D01*
X0266040Y0196000D01*
X0268418Y0193621D02*
X0299900Y0193621D01*
X0299900Y0192023D02*
X0268500Y0192023D01*
X0268500Y0190424D02*
X0299900Y0190424D01*
X0299900Y0189977D02*
X0299900Y0191800D01*
X0304300Y0191800D01*
X0304300Y0187400D01*
X0302477Y0187400D01*
X0299900Y0189977D01*
X0301052Y0188826D02*
X0267266Y0188826D01*
X0266040Y0186000D02*
X0262560Y0186000D01*
X0260760Y0184200D01*
X0258405Y0184200D01*
X0256205Y0186400D01*
X0252395Y0186400D01*
X0249700Y0183705D01*
X0249700Y0179895D01*
X0252395Y0177200D01*
X0256205Y0177200D01*
X0258405Y0179400D01*
X0260760Y0179400D01*
X0262560Y0177600D01*
X0266040Y0177600D01*
X0268500Y0180060D01*
X0268500Y0183540D01*
X0266040Y0186000D01*
X0266411Y0185629D02*
X0301906Y0185629D01*
X0302477Y0186200D02*
X0299900Y0183623D01*
X0299900Y0181800D01*
X0304300Y0181800D01*
X0308700Y0181800D01*
X0308700Y0183623D01*
X0306123Y0186200D01*
X0304300Y0186200D01*
X0304300Y0181800D01*
X0304300Y0181800D01*
X0304300Y0181800D01*
X0308700Y0181800D01*
X0308700Y0179977D01*
X0306123Y0177400D01*
X0304300Y0177400D01*
X0304300Y0181800D01*
X0304300Y0181800D01*
X0304300Y0181800D01*
X0304300Y0186200D01*
X0302477Y0186200D01*
X0304300Y0185629D02*
X0304300Y0185629D01*
X0304300Y0184030D02*
X0304300Y0184030D01*
X0304300Y0182432D02*
X0304300Y0182432D01*
X0304300Y0181800D02*
X0299900Y0181800D01*
X0299900Y0179977D01*
X0302477Y0177400D01*
X0304300Y0177400D01*
X0304300Y0181800D01*
X0304300Y0180833D02*
X0304300Y0180833D01*
X0304300Y0179235D02*
X0304300Y0179235D01*
X0304300Y0177636D02*
X0304300Y0177636D01*
X0306359Y0177636D02*
X0353201Y0177636D01*
X0353201Y0176038D02*
X0298456Y0176038D01*
X0298159Y0176335D02*
X0297277Y0176700D01*
X0252794Y0176700D01*
X0248900Y0180594D01*
X0248900Y0183705D01*
X0246205Y0186400D01*
X0242395Y0186400D01*
X0240195Y0184200D01*
X0221285Y0184200D01*
X0221200Y0184406D01*
X0219906Y0185700D01*
X0218215Y0186400D01*
X0210385Y0186400D01*
X0208694Y0185700D01*
X0207400Y0184406D01*
X0206700Y0182715D01*
X0206700Y0180885D01*
X0207400Y0179194D01*
X0208694Y0177900D01*
X0210385Y0177200D01*
X0218215Y0177200D01*
X0219906Y0177900D01*
X0221200Y0179194D01*
X0221285Y0179400D01*
X0240195Y0179400D01*
X0242395Y0177200D01*
X0245506Y0177200D01*
X0249765Y0172941D01*
X0250441Y0172265D01*
X0251323Y0171900D01*
X0282845Y0171900D01*
X0282266Y0171712D01*
X0281522Y0171333D01*
X0280847Y0170843D01*
X0280257Y0170253D01*
X0279767Y0169578D01*
X0279388Y0168834D01*
X0279130Y0168041D01*
X0279000Y0167217D01*
X0279000Y0166984D01*
X0284116Y0166984D01*
X0284116Y0166616D01*
X0279000Y0166616D01*
X0279000Y0166383D01*
X0279130Y0165559D01*
X0279388Y0164766D01*
X0279767Y0164022D01*
X0280257Y0163347D01*
X0280847Y0162757D01*
X0281522Y0162267D01*
X0282266Y0161888D01*
X0282537Y0161800D01*
X0282266Y0161712D01*
X0281522Y0161333D01*
X0280847Y0160843D01*
X0280257Y0160253D01*
X0279767Y0159578D01*
X0279388Y0158834D01*
X0279130Y0158041D01*
X0279000Y0157217D01*
X0279000Y0156984D01*
X0284116Y0156984D01*
X0284116Y0156616D01*
X0284484Y0156616D01*
X0284484Y0151500D01*
X0284717Y0151500D01*
X0285541Y0151630D01*
X0286334Y0151888D01*
X0287078Y0152267D01*
X0287753Y0152757D01*
X0288343Y0153347D01*
X0288833Y0154022D01*
X0289212Y0154766D01*
X0289469Y0155559D01*
X0289600Y0156383D01*
X0289600Y0156616D01*
X0284484Y0156616D01*
X0284484Y0156984D01*
X0289600Y0156984D01*
X0289600Y0157217D01*
X0289469Y0158041D01*
X0289212Y0158834D01*
X0288833Y0159578D01*
X0288343Y0160253D01*
X0287753Y0160843D01*
X0287078Y0161333D01*
X0286334Y0161712D01*
X0286063Y0161800D01*
X0286334Y0161888D01*
X0287078Y0162267D01*
X0287753Y0162757D01*
X0288343Y0163347D01*
X0288833Y0164022D01*
X0289212Y0164766D01*
X0289469Y0165559D01*
X0289600Y0166383D01*
X0289600Y0166616D01*
X0284484Y0166616D01*
X0284484Y0156984D01*
X0284116Y0156984D01*
X0284116Y0162100D01*
X0284116Y0166616D01*
X0284484Y0166616D01*
X0284484Y0166984D01*
X0289600Y0166984D01*
X0289600Y0167217D01*
X0289469Y0168041D01*
X0289212Y0168834D01*
X0288833Y0169578D01*
X0288343Y0170253D01*
X0287753Y0170843D01*
X0287078Y0171333D01*
X0286334Y0171712D01*
X0285755Y0171900D01*
X0295806Y0171900D01*
X0322265Y0145441D01*
X0322941Y0144765D01*
X0323823Y0144400D01*
X0339774Y0144400D01*
X0339976Y0143911D01*
X0341411Y0142476D01*
X0343286Y0141700D01*
X0345314Y0141700D01*
X0347189Y0142476D01*
X0348624Y0143911D01*
X0349400Y0145786D01*
X0349400Y0147814D01*
X0348624Y0149689D01*
X0347189Y0151124D01*
X0345556Y0151800D01*
X0347189Y0152476D01*
X0348624Y0153911D01*
X0349400Y0155786D01*
X0349400Y0157814D01*
X0348624Y0159689D01*
X0347189Y0161124D01*
X0345556Y0161800D01*
X0347189Y0162476D01*
X0348624Y0163911D01*
X0349400Y0165786D01*
X0349400Y0167814D01*
X0348624Y0169689D01*
X0347189Y0171124D01*
X0345314Y0171900D01*
X0343286Y0171900D01*
X0341411Y0171124D01*
X0339976Y0169689D01*
X0339200Y0167814D01*
X0339200Y0165786D01*
X0339976Y0163911D01*
X0341411Y0162476D01*
X0343044Y0161800D01*
X0341411Y0161124D01*
X0339976Y0159689D01*
X0339200Y0157814D01*
X0339200Y0155786D01*
X0339976Y0153911D01*
X0341411Y0152476D01*
X0343044Y0151800D01*
X0341411Y0151124D01*
X0339976Y0149689D01*
X0339774Y0149200D01*
X0325294Y0149200D01*
X0298159Y0176335D01*
X0296800Y0174300D02*
X0324300Y0146800D01*
X0344300Y0146800D01*
X0339912Y0144068D02*
X0263688Y0144068D01*
X0264350Y0145666D02*
X0322040Y0145666D01*
X0320441Y0147265D02*
X0264400Y0147265D01*
X0263966Y0148863D02*
X0318843Y0148863D01*
X0317244Y0150462D02*
X0262851Y0150462D01*
X0261184Y0152060D02*
X0281928Y0152060D01*
X0282266Y0151888D02*
X0283059Y0151630D01*
X0283883Y0151500D01*
X0284116Y0151500D01*
X0284116Y0156616D01*
X0279000Y0156616D01*
X0279000Y0156383D01*
X0279130Y0155559D01*
X0279388Y0154766D01*
X0279767Y0154022D01*
X0280257Y0153347D01*
X0280847Y0152757D01*
X0281522Y0152267D01*
X0282266Y0151888D01*
X0284116Y0152060D02*
X0284484Y0152060D01*
X0284484Y0153659D02*
X0284116Y0153659D01*
X0284116Y0155257D02*
X0284484Y0155257D01*
X0284484Y0156856D02*
X0310850Y0156856D01*
X0309252Y0158454D02*
X0289335Y0158454D01*
X0288488Y0160053D02*
X0307653Y0160053D01*
X0306055Y0161651D02*
X0286453Y0161651D01*
X0284484Y0161651D02*
X0284116Y0161651D01*
X0284116Y0160053D02*
X0284484Y0160053D01*
X0284484Y0158454D02*
X0284116Y0158454D01*
X0284116Y0156856D02*
X0264400Y0156856D01*
X0264181Y0155257D02*
X0279229Y0155257D01*
X0280031Y0153659D02*
X0263371Y0153659D01*
X0264135Y0158454D02*
X0279265Y0158454D01*
X0280112Y0160053D02*
X0263260Y0160053D01*
X0260915Y0161651D02*
X0282147Y0161651D01*
X0280355Y0163250D02*
X0262962Y0163250D01*
X0264012Y0164848D02*
X0279361Y0164848D01*
X0279000Y0166447D02*
X0264400Y0166447D01*
X0264304Y0168045D02*
X0279132Y0168045D01*
X0279815Y0169644D02*
X0263642Y0169644D01*
X0261902Y0171242D02*
X0281397Y0171242D01*
X0284116Y0166447D02*
X0284484Y0166447D01*
X0284484Y0164848D02*
X0284116Y0164848D01*
X0284116Y0163250D02*
X0284484Y0163250D01*
X0288245Y0163250D02*
X0304456Y0163250D01*
X0302858Y0164848D02*
X0289239Y0164848D01*
X0289600Y0166447D02*
X0301259Y0166447D01*
X0299661Y0168045D02*
X0289468Y0168045D01*
X0288785Y0169644D02*
X0298062Y0169644D01*
X0296464Y0171242D02*
X0287203Y0171242D01*
X0296800Y0174300D02*
X0251800Y0174300D01*
X0244300Y0181800D01*
X0214300Y0181800D01*
X0208623Y0185629D02*
X0204200Y0185629D01*
X0204200Y0184030D02*
X0207245Y0184030D01*
X0206700Y0182432D02*
X0204200Y0182432D01*
X0204200Y0180833D02*
X0206721Y0180833D01*
X0207384Y0179235D02*
X0204200Y0179235D01*
X0204358Y0177636D02*
X0209332Y0177636D01*
X0205956Y0176038D02*
X0246668Y0176038D01*
X0248267Y0174439D02*
X0207555Y0174439D01*
X0209153Y0172841D02*
X0249865Y0172841D01*
X0251858Y0177636D02*
X0251958Y0177636D01*
X0250360Y0179235D02*
X0250259Y0179235D01*
X0249700Y0180833D02*
X0248900Y0180833D01*
X0248900Y0182432D02*
X0249700Y0182432D01*
X0250025Y0184030D02*
X0248575Y0184030D01*
X0246977Y0185629D02*
X0251623Y0185629D01*
X0252367Y0187227D02*
X0246233Y0187227D01*
X0247831Y0188826D02*
X0250769Y0188826D01*
X0249700Y0190424D02*
X0248900Y0190424D01*
X0248900Y0192023D02*
X0249700Y0192023D01*
X0249700Y0193621D02*
X0248900Y0193621D01*
X0247385Y0195220D02*
X0251214Y0195220D01*
X0251178Y0198417D02*
X0247422Y0198417D01*
X0248900Y0200015D02*
X0249700Y0200015D01*
X0257422Y0198417D02*
X0261743Y0198417D01*
X0261780Y0195220D02*
X0257385Y0195220D01*
X0254300Y0191800D02*
X0264300Y0191800D01*
X0261334Y0188826D02*
X0257831Y0188826D01*
X0256233Y0187227D02*
X0325295Y0187227D01*
X0324485Y0187873D02*
X0324485Y0187873D01*
X0324485Y0187873D01*
X0323835Y0188826D02*
X0307548Y0188826D01*
X0308700Y0190424D02*
X0322745Y0190424D01*
X0321660Y0192023D02*
X0308700Y0192023D01*
X0308700Y0193621D02*
X0321167Y0193621D01*
X0320674Y0195220D02*
X0307103Y0195220D01*
X0304300Y0195220D02*
X0304300Y0195220D01*
X0304300Y0193621D02*
X0304300Y0193621D01*
X0304300Y0192023D02*
X0304300Y0192023D01*
X0304300Y0190424D02*
X0304300Y0190424D01*
X0304300Y0188826D02*
X0304300Y0188826D01*
X0306694Y0185629D02*
X0327299Y0185629D01*
X0328400Y0184751D02*
X0328400Y0184751D01*
X0330236Y0184030D02*
X0308292Y0184030D01*
X0308700Y0182432D02*
X0353201Y0182432D01*
X0353201Y0184030D02*
X0343577Y0184030D01*
X0342938Y0183661D02*
X0342938Y0183661D01*
X0346345Y0185629D02*
X0353201Y0185629D01*
X0353201Y0187227D02*
X0348260Y0187227D01*
X0347275Y0186165D02*
X0347275Y0186165D01*
X0349743Y0188826D02*
X0353201Y0188826D01*
X0353201Y0190424D02*
X0350964Y0190424D01*
X0350681Y0189836D02*
X0350681Y0189836D01*
X0351734Y0192023D02*
X0353201Y0192023D01*
X0353201Y0193621D02*
X0352504Y0193621D01*
X0352854Y0194348D02*
X0352854Y0194348D01*
X0352985Y0195220D02*
X0353201Y0195220D01*
X0333062Y0182921D02*
X0333062Y0182921D01*
X0341698Y0171242D02*
X0303252Y0171242D01*
X0304850Y0169644D02*
X0339958Y0169644D01*
X0339296Y0168045D02*
X0306449Y0168045D01*
X0308047Y0166447D02*
X0339200Y0166447D01*
X0339588Y0164848D02*
X0309646Y0164848D01*
X0311244Y0163250D02*
X0340638Y0163250D01*
X0342685Y0161651D02*
X0312843Y0161651D01*
X0314441Y0160053D02*
X0340340Y0160053D01*
X0339465Y0158454D02*
X0316040Y0158454D01*
X0317638Y0156856D02*
X0339200Y0156856D01*
X0339419Y0155257D02*
X0319237Y0155257D01*
X0320836Y0153659D02*
X0340229Y0153659D01*
X0342416Y0152060D02*
X0322434Y0152060D01*
X0324033Y0150462D02*
X0340749Y0150462D01*
X0346184Y0152060D02*
X0353201Y0152060D01*
X0353201Y0150462D02*
X0347851Y0150462D01*
X0348966Y0148863D02*
X0353201Y0148863D01*
X0353201Y0147265D02*
X0349400Y0147265D01*
X0349350Y0145666D02*
X0353201Y0145666D01*
X0353201Y0144068D02*
X0348688Y0144068D01*
X0347171Y0142469D02*
X0353201Y0142469D01*
X0341429Y0142469D02*
X0262171Y0142469D01*
X0259300Y0146800D02*
X0231800Y0146800D01*
X0201800Y0176800D01*
X0201800Y0186800D01*
X0206800Y0191800D01*
X0214300Y0191800D01*
X0244300Y0191800D01*
X0240769Y0188826D02*
X0220831Y0188826D01*
X0218281Y0187227D02*
X0242367Y0187227D01*
X0241623Y0185629D02*
X0219977Y0185629D01*
X0221216Y0179235D02*
X0240360Y0179235D01*
X0241958Y0177636D02*
X0219268Y0177636D01*
X0210752Y0171242D02*
X0256698Y0171242D01*
X0254958Y0169644D02*
X0212350Y0169644D01*
X0213949Y0168045D02*
X0254296Y0168045D01*
X0254200Y0166447D02*
X0215547Y0166447D01*
X0217146Y0164848D02*
X0254588Y0164848D01*
X0255638Y0163250D02*
X0218744Y0163250D01*
X0220343Y0161651D02*
X0257685Y0161651D01*
X0255340Y0160053D02*
X0221941Y0160053D01*
X0223540Y0158454D02*
X0254465Y0158454D01*
X0254200Y0156856D02*
X0225138Y0156856D01*
X0226737Y0155257D02*
X0254419Y0155257D01*
X0255229Y0153659D02*
X0228336Y0153659D01*
X0229934Y0152060D02*
X0257416Y0152060D01*
X0255749Y0150462D02*
X0231533Y0150462D01*
X0226343Y0148863D02*
X0189200Y0148863D01*
X0189200Y0150462D02*
X0224744Y0150462D01*
X0223146Y0152060D02*
X0201672Y0152060D01*
X0201334Y0151888D02*
X0202078Y0152267D01*
X0202753Y0152757D01*
X0203343Y0153347D01*
X0203833Y0154022D01*
X0204212Y0154766D01*
X0204469Y0155559D01*
X0204600Y0156383D01*
X0204600Y0156616D01*
X0199484Y0156616D01*
X0199484Y0151500D01*
X0199717Y0151500D01*
X0200541Y0151630D01*
X0201334Y0151888D01*
X0199484Y0152060D02*
X0199116Y0152060D01*
X0199116Y0151500D02*
X0199116Y0156616D01*
X0194000Y0156616D01*
X0194000Y0156383D01*
X0194130Y0155559D01*
X0194388Y0154766D01*
X0194767Y0154022D01*
X0195257Y0153347D01*
X0195847Y0152757D01*
X0196522Y0152267D01*
X0197266Y0151888D01*
X0198059Y0151630D01*
X0198883Y0151500D01*
X0199116Y0151500D01*
X0199116Y0153659D02*
X0199484Y0153659D01*
X0199484Y0155257D02*
X0199116Y0155257D01*
X0199116Y0156616D02*
X0199484Y0156616D01*
X0199484Y0156984D01*
X0204600Y0156984D01*
X0204600Y0157217D01*
X0204469Y0158041D01*
X0204212Y0158834D01*
X0203833Y0159578D01*
X0203343Y0160253D01*
X0202753Y0160843D01*
X0202078Y0161333D01*
X0201334Y0161712D01*
X0201063Y0161800D01*
X0201334Y0161888D01*
X0202078Y0162267D01*
X0202753Y0162757D01*
X0203343Y0163347D01*
X0203833Y0164022D01*
X0204212Y0164766D01*
X0204469Y0165559D01*
X0204600Y0166383D01*
X0204600Y0166616D01*
X0199484Y0166616D01*
X0199484Y0156984D01*
X0199116Y0156984D01*
X0199116Y0156616D01*
X0199116Y0156856D02*
X0189200Y0156856D01*
X0189200Y0158454D02*
X0194265Y0158454D01*
X0194388Y0158834D02*
X0194130Y0158041D01*
X0194000Y0157217D01*
X0194000Y0156984D01*
X0199116Y0156984D01*
X0199116Y0162100D01*
X0199116Y0166616D01*
X0194000Y0166616D01*
X0194000Y0166383D01*
X0194130Y0165559D01*
X0194388Y0164766D01*
X0194767Y0164022D01*
X0195257Y0163347D01*
X0195847Y0162757D01*
X0196522Y0162267D01*
X0197266Y0161888D01*
X0197537Y0161800D01*
X0197266Y0161712D01*
X0196522Y0161333D01*
X0195847Y0160843D01*
X0195257Y0160253D01*
X0194767Y0159578D01*
X0194388Y0158834D01*
X0195112Y0160053D02*
X0189200Y0160053D01*
X0189200Y0161651D02*
X0197147Y0161651D01*
X0199116Y0161651D02*
X0199484Y0161651D01*
X0199484Y0160053D02*
X0199116Y0160053D01*
X0199116Y0158454D02*
X0199484Y0158454D01*
X0199484Y0156856D02*
X0218350Y0156856D01*
X0216752Y0158454D02*
X0204335Y0158454D01*
X0203488Y0160053D02*
X0215153Y0160053D01*
X0213555Y0161651D02*
X0201453Y0161651D01*
X0203245Y0163250D02*
X0211956Y0163250D01*
X0210358Y0164848D02*
X0204239Y0164848D01*
X0204600Y0166447D02*
X0208759Y0166447D01*
X0207161Y0168045D02*
X0204468Y0168045D01*
X0204469Y0168041D02*
X0204212Y0168834D01*
X0203833Y0169578D01*
X0203343Y0170253D01*
X0202753Y0170843D01*
X0202078Y0171333D01*
X0201334Y0171712D01*
X0200541Y0171969D01*
X0199717Y0172100D01*
X0199484Y0172100D01*
X0199484Y0166984D01*
X0199116Y0166984D01*
X0199116Y0166616D01*
X0199484Y0166616D01*
X0199484Y0166984D01*
X0204600Y0166984D01*
X0204600Y0167217D01*
X0204469Y0168041D01*
X0203785Y0169644D02*
X0205562Y0169644D01*
X0203964Y0171242D02*
X0202203Y0171242D01*
X0202365Y0172841D02*
X0189200Y0172841D01*
X0189200Y0174439D02*
X0200767Y0174439D01*
X0199518Y0176038D02*
X0189200Y0176038D01*
X0189200Y0177636D02*
X0199400Y0177636D01*
X0199400Y0179235D02*
X0189200Y0179235D01*
X0189227Y0180833D02*
X0199400Y0180833D01*
X0199400Y0182432D02*
X0190826Y0182432D01*
X0192424Y0184030D02*
X0199400Y0184030D01*
X0199400Y0185629D02*
X0194023Y0185629D01*
X0195621Y0187227D02*
X0199400Y0187227D01*
X0200432Y0188826D02*
X0197220Y0188826D01*
X0198818Y0190424D02*
X0202030Y0190424D01*
X0203629Y0192023D02*
X0200417Y0192023D01*
X0202015Y0193621D02*
X0205227Y0193621D01*
X0203614Y0195220D02*
X0208214Y0195220D01*
X0208178Y0198417D02*
X0206811Y0198417D01*
X0205212Y0196818D02*
X0320188Y0196818D01*
X0320188Y0198417D02*
X0307139Y0198417D01*
X0308700Y0200015D02*
X0320188Y0200015D01*
X0320188Y0201614D02*
X0308700Y0201614D01*
X0308700Y0203212D02*
X0320622Y0203212D01*
X0321115Y0204811D02*
X0307512Y0204811D01*
X0306123Y0207400D02*
X0304300Y0207400D01*
X0304300Y0211800D01*
X0304300Y0211800D01*
X0308700Y0211800D01*
X0308700Y0209977D01*
X0306123Y0207400D01*
X0306730Y0208008D02*
X0322631Y0208008D01*
X0321664Y0206589D02*
X0321664Y0206589D01*
X0321608Y0206409D02*
X0204804Y0206409D01*
X0206402Y0208008D02*
X0208587Y0208008D01*
X0206800Y0211800D02*
X0214300Y0211800D01*
X0244300Y0211800D01*
X0248900Y0211205D02*
X0249700Y0211205D01*
X0249700Y0212803D02*
X0248900Y0212803D01*
X0248203Y0214402D02*
X0250397Y0214402D01*
X0254300Y0211800D02*
X0264300Y0211800D01*
X0267638Y0214402D02*
X0300679Y0214402D01*
X0299900Y0212803D02*
X0268500Y0212803D01*
X0268500Y0211205D02*
X0299900Y0211205D01*
X0299900Y0211800D02*
X0299900Y0209977D01*
X0302477Y0207400D01*
X0304300Y0207400D01*
X0304300Y0211800D01*
X0304300Y0211800D01*
X0304300Y0211800D01*
X0299900Y0211800D01*
X0300271Y0209606D02*
X0268046Y0209606D01*
X0266448Y0208008D02*
X0301870Y0208008D01*
X0304300Y0208008D02*
X0304300Y0208008D01*
X0304300Y0209606D02*
X0304300Y0209606D01*
X0304300Y0211205D02*
X0304300Y0211205D01*
X0308329Y0209606D02*
X0323721Y0209606D01*
X0325084Y0211205D02*
X0308700Y0211205D01*
X0308700Y0212803D02*
X0327089Y0212803D01*
X0328400Y0213849D02*
X0328400Y0213849D01*
X0329809Y0214402D02*
X0307921Y0214402D01*
X0304300Y0204811D02*
X0304300Y0204811D01*
X0304300Y0203212D02*
X0304300Y0203212D01*
X0304300Y0201614D02*
X0304300Y0201614D01*
X0304300Y0200015D02*
X0304300Y0200015D01*
X0304300Y0198417D02*
X0304300Y0198417D01*
X0300308Y0184030D02*
X0268009Y0184030D01*
X0268500Y0182432D02*
X0299900Y0182432D01*
X0299900Y0180833D02*
X0268500Y0180833D01*
X0267674Y0179235D02*
X0300643Y0179235D01*
X0302241Y0177636D02*
X0266076Y0177636D01*
X0262524Y0177636D02*
X0256642Y0177636D01*
X0258240Y0179235D02*
X0260926Y0179235D01*
X0264300Y0181800D02*
X0254300Y0181800D01*
X0256977Y0185629D02*
X0262189Y0185629D01*
X0241215Y0195220D02*
X0220385Y0195220D01*
X0220422Y0198417D02*
X0241178Y0198417D01*
X0240806Y0204811D02*
X0220794Y0204811D01*
X0220013Y0208008D02*
X0241587Y0208008D01*
X0247013Y0208008D02*
X0251587Y0208008D01*
X0249988Y0209606D02*
X0248612Y0209606D01*
X0257013Y0208008D02*
X0262152Y0208008D01*
X0261371Y0204811D02*
X0257794Y0204811D01*
X0210319Y0187227D02*
X0205621Y0187227D01*
X0207220Y0188826D02*
X0207769Y0188826D01*
X0196826Y0195220D02*
X0193614Y0195220D01*
X0195212Y0196818D02*
X0198424Y0196818D01*
X0200023Y0198417D02*
X0196811Y0198417D01*
X0198409Y0200015D02*
X0201621Y0200015D01*
X0203220Y0201614D02*
X0200008Y0201614D01*
X0201607Y0203212D02*
X0204818Y0203212D01*
X0203205Y0204811D02*
X0207806Y0204811D01*
X0195227Y0193621D02*
X0192015Y0193621D01*
X0190417Y0192023D02*
X0193629Y0192023D01*
X0192030Y0190424D02*
X0188818Y0190424D01*
X0187220Y0188826D02*
X0190432Y0188826D01*
X0188833Y0187227D02*
X0185621Y0187227D01*
X0184023Y0185629D02*
X0187235Y0185629D01*
X0185636Y0184030D02*
X0182424Y0184030D01*
X0180826Y0182432D02*
X0184464Y0182432D01*
X0184400Y0180833D02*
X0179227Y0180833D01*
X0177629Y0179235D02*
X0184400Y0179235D01*
X0184400Y0177636D02*
X0176030Y0177636D01*
X0174432Y0176038D02*
X0184400Y0176038D01*
X0184400Y0174439D02*
X0172833Y0174439D01*
X0171235Y0172841D02*
X0184400Y0172841D01*
X0184400Y0171242D02*
X0176902Y0171242D01*
X0178642Y0169644D02*
X0184400Y0169644D01*
X0184400Y0168045D02*
X0179304Y0168045D01*
X0179400Y0166447D02*
X0184400Y0166447D01*
X0184400Y0164848D02*
X0179012Y0164848D01*
X0177962Y0163250D02*
X0184400Y0163250D01*
X0184400Y0161651D02*
X0175915Y0161651D01*
X0178260Y0160053D02*
X0184400Y0160053D01*
X0184400Y0158454D02*
X0179135Y0158454D01*
X0179400Y0156856D02*
X0184400Y0156856D01*
X0184400Y0155257D02*
X0179181Y0155257D01*
X0178371Y0153659D02*
X0184400Y0153659D01*
X0184400Y0152060D02*
X0176184Y0152060D01*
X0177851Y0150462D02*
X0184400Y0150462D01*
X0189200Y0152060D02*
X0196928Y0152060D01*
X0195031Y0153659D02*
X0189200Y0153659D01*
X0189200Y0155257D02*
X0194229Y0155257D01*
X0203569Y0153659D02*
X0221547Y0153659D01*
X0219949Y0155257D02*
X0204371Y0155257D01*
X0199484Y0163250D02*
X0199116Y0163250D01*
X0199116Y0164848D02*
X0199484Y0164848D01*
X0199484Y0166447D02*
X0199116Y0166447D01*
X0199116Y0166984D02*
X0194000Y0166984D01*
X0194000Y0167217D01*
X0194130Y0168041D01*
X0194388Y0168834D01*
X0194767Y0169578D01*
X0195257Y0170253D01*
X0195847Y0170843D01*
X0196522Y0171333D01*
X0197266Y0171712D01*
X0198059Y0171969D01*
X0198883Y0172100D01*
X0199116Y0172100D01*
X0199116Y0166984D01*
X0199116Y0168045D02*
X0199484Y0168045D01*
X0199484Y0169644D02*
X0199116Y0169644D01*
X0199116Y0171242D02*
X0199484Y0171242D01*
X0196397Y0171242D02*
X0189200Y0171242D01*
X0189200Y0169644D02*
X0194815Y0169644D01*
X0194132Y0168045D02*
X0189200Y0168045D01*
X0189200Y0166447D02*
X0194000Y0166447D01*
X0194361Y0164848D02*
X0189200Y0164848D01*
X0189200Y0163250D02*
X0195355Y0163250D01*
X0172685Y0161651D02*
X0160045Y0161651D01*
X0158447Y0160053D02*
X0170340Y0160053D01*
X0169465Y0158454D02*
X0156848Y0158454D01*
X0155250Y0156856D02*
X0169200Y0156856D01*
X0169419Y0155257D02*
X0153651Y0155257D01*
X0152053Y0153659D02*
X0170229Y0153659D01*
X0172416Y0152060D02*
X0150454Y0152060D01*
X0148856Y0150462D02*
X0170749Y0150462D01*
X0169634Y0148863D02*
X0147257Y0148863D01*
X0145659Y0147265D02*
X0169200Y0147265D01*
X0169249Y0145666D02*
X0144060Y0145666D01*
X0142067Y0150462D02*
X0092851Y0150462D01*
X0091184Y0152060D02*
X0111928Y0152060D01*
X0112266Y0151888D02*
X0113059Y0151630D01*
X0113883Y0151500D01*
X0114116Y0151500D01*
X0114116Y0156616D01*
X0109000Y0156616D01*
X0109000Y0156383D01*
X0109130Y0155559D01*
X0109388Y0154766D01*
X0109767Y0154022D01*
X0110257Y0153347D01*
X0110847Y0152757D01*
X0111522Y0152267D01*
X0112266Y0151888D01*
X0114116Y0152060D02*
X0114484Y0152060D01*
X0114484Y0151500D02*
X0114717Y0151500D01*
X0115541Y0151630D01*
X0116334Y0151888D01*
X0117078Y0152267D01*
X0117753Y0152757D01*
X0118343Y0153347D01*
X0118833Y0154022D01*
X0119212Y0154766D01*
X0119469Y0155559D01*
X0119600Y0156383D01*
X0119600Y0156616D01*
X0114484Y0156616D01*
X0114484Y0151500D01*
X0114484Y0153659D02*
X0114116Y0153659D01*
X0114116Y0155257D02*
X0114484Y0155257D01*
X0114484Y0156616D02*
X0114116Y0156616D01*
X0114116Y0156984D01*
X0109000Y0156984D01*
X0109000Y0157217D01*
X0109130Y0158041D01*
X0109388Y0158834D01*
X0109767Y0159578D01*
X0110257Y0160253D01*
X0110847Y0160843D01*
X0111522Y0161333D01*
X0112266Y0161712D01*
X0112537Y0161800D01*
X0112266Y0161888D01*
X0111522Y0162267D01*
X0110847Y0162757D01*
X0110257Y0163347D01*
X0109767Y0164022D01*
X0109388Y0164766D01*
X0109130Y0165559D01*
X0109000Y0166383D01*
X0109000Y0166616D01*
X0114116Y0166616D01*
X0114116Y0166984D01*
X0109000Y0166984D01*
X0109000Y0167217D01*
X0109130Y0168041D01*
X0109388Y0168834D01*
X0109767Y0169578D01*
X0110257Y0170253D01*
X0110847Y0170843D01*
X0111522Y0171333D01*
X0112266Y0171712D01*
X0113059Y0171969D01*
X0113883Y0172100D01*
X0114116Y0172100D01*
X0114116Y0166984D01*
X0114484Y0166984D01*
X0114484Y0172100D01*
X0114717Y0172100D01*
X0115541Y0171969D01*
X0116334Y0171712D01*
X0117078Y0171333D01*
X0117753Y0170843D01*
X0118343Y0170253D01*
X0118833Y0169578D01*
X0119212Y0168834D01*
X0119469Y0168041D01*
X0119600Y0167217D01*
X0119600Y0166984D01*
X0114484Y0166984D01*
X0114484Y0166616D01*
X0114484Y0156984D01*
X0119600Y0156984D01*
X0119600Y0157217D01*
X0119469Y0158041D01*
X0119212Y0158834D01*
X0118833Y0159578D01*
X0118343Y0160253D01*
X0117753Y0160843D01*
X0117078Y0161333D01*
X0116334Y0161712D01*
X0116063Y0161800D01*
X0116334Y0161888D01*
X0117078Y0162267D01*
X0117753Y0162757D01*
X0118343Y0163347D01*
X0118833Y0164022D01*
X0119212Y0164766D01*
X0119469Y0165559D01*
X0119600Y0166383D01*
X0119600Y0166616D01*
X0114484Y0166616D01*
X0114116Y0166616D01*
X0114116Y0162100D01*
X0114116Y0156984D01*
X0114484Y0156984D01*
X0114484Y0156616D01*
X0114484Y0156856D02*
X0148461Y0156856D01*
X0146863Y0155257D02*
X0119371Y0155257D01*
X0118569Y0153659D02*
X0145264Y0153659D01*
X0143666Y0152060D02*
X0116672Y0152060D01*
X0114116Y0156856D02*
X0094400Y0156856D01*
X0094181Y0155257D02*
X0109229Y0155257D01*
X0110031Y0153659D02*
X0093371Y0153659D01*
X0094135Y0158454D02*
X0109265Y0158454D01*
X0110112Y0160053D02*
X0093260Y0160053D01*
X0090915Y0161651D02*
X0112147Y0161651D01*
X0114116Y0161651D02*
X0114484Y0161651D01*
X0114484Y0160053D02*
X0114116Y0160053D01*
X0114116Y0158454D02*
X0114484Y0158454D01*
X0116453Y0161651D02*
X0153257Y0161651D01*
X0151659Y0160053D02*
X0118488Y0160053D01*
X0119335Y0158454D02*
X0150060Y0158454D01*
X0154856Y0163250D02*
X0118245Y0163250D01*
X0119239Y0164848D02*
X0156454Y0164848D01*
X0158053Y0166447D02*
X0119600Y0166447D01*
X0119468Y0168045D02*
X0159651Y0168045D01*
X0161250Y0169644D02*
X0118785Y0169644D01*
X0117203Y0171242D02*
X0162848Y0171242D01*
X0164447Y0172841D02*
X0021600Y0172841D01*
X0021600Y0174439D02*
X0166045Y0174439D01*
X0167644Y0176038D02*
X0021600Y0176038D01*
X0021600Y0177636D02*
X0169242Y0177636D01*
X0170841Y0179235D02*
X0021600Y0179235D01*
X0021600Y0180833D02*
X0172439Y0180833D01*
X0174038Y0182432D02*
X0021600Y0182432D01*
X0021600Y0184030D02*
X0030236Y0184030D01*
X0028400Y0184751D02*
X0028400Y0184751D01*
X0027299Y0185629D02*
X0021600Y0185629D01*
X0021600Y0187227D02*
X0025295Y0187227D01*
X0024485Y0187873D02*
X0024485Y0187873D01*
X0024485Y0187873D01*
X0023835Y0188826D02*
X0021600Y0188826D01*
X0021600Y0190424D02*
X0022745Y0190424D01*
X0021660Y0192023D02*
X0021600Y0192023D01*
X0043577Y0184030D02*
X0175636Y0184030D01*
X0177235Y0185629D02*
X0046345Y0185629D01*
X0048260Y0187227D02*
X0178833Y0187227D01*
X0180432Y0188826D02*
X0049743Y0188826D01*
X0050681Y0189836D02*
X0050681Y0189836D01*
X0050964Y0190424D02*
X0182030Y0190424D01*
X0167143Y0193621D02*
X0151896Y0193621D01*
X0152091Y0193721D02*
X0152769Y0194213D01*
X0153362Y0194806D01*
X0153854Y0195484D01*
X0154235Y0196231D01*
X0154494Y0197028D01*
X0154625Y0197856D01*
X0154625Y0201425D01*
X0149675Y0201425D01*
X0149675Y0192950D01*
X0149719Y0192950D01*
X0150547Y0193081D01*
X0151344Y0193340D01*
X0152091Y0193721D01*
X0153662Y0195220D02*
X0165107Y0195220D01*
X0164356Y0196818D02*
X0154426Y0196818D01*
X0154625Y0198417D02*
X0164175Y0198417D01*
X0164175Y0200015D02*
X0154625Y0200015D01*
X0154625Y0203212D02*
X0164175Y0203212D01*
X0164175Y0201614D02*
X0149675Y0201614D01*
X0148925Y0201614D02*
X0134425Y0201614D01*
X0134425Y0203212D02*
X0143975Y0203212D01*
X0143975Y0204811D02*
X0134425Y0204811D01*
X0134398Y0206409D02*
X0144080Y0206409D01*
X0144691Y0208008D02*
X0134200Y0208008D01*
X0124400Y0208008D02*
X0113909Y0208008D01*
X0114520Y0206409D02*
X0124202Y0206409D01*
X0124175Y0204811D02*
X0114625Y0204811D01*
X0114625Y0203212D02*
X0124175Y0203212D01*
X0124175Y0201614D02*
X0109675Y0201614D01*
X0109675Y0201425D02*
X0114625Y0201425D01*
X0114625Y0197856D01*
X0114494Y0197028D01*
X0114235Y0196231D01*
X0113854Y0195484D01*
X0113362Y0194806D01*
X0112769Y0194213D01*
X0112091Y0193721D01*
X0111344Y0193340D01*
X0110547Y0193081D01*
X0109719Y0192950D01*
X0109675Y0192950D01*
X0109675Y0201425D01*
X0108925Y0201425D02*
X0108925Y0192950D01*
X0108881Y0192950D01*
X0108053Y0193081D01*
X0107256Y0193340D01*
X0106509Y0193721D01*
X0105831Y0194213D01*
X0105238Y0194806D01*
X0104746Y0195484D01*
X0104365Y0196231D01*
X0104106Y0197028D01*
X0103975Y0197856D01*
X0103975Y0201425D01*
X0108925Y0201425D01*
X0108925Y0201614D02*
X0094425Y0201614D01*
X0094425Y0203212D02*
X0103975Y0203212D01*
X0103975Y0204811D02*
X0094425Y0204811D01*
X0094398Y0206409D02*
X0104080Y0206409D01*
X0104691Y0208008D02*
X0094938Y0208008D01*
X0087472Y0214402D02*
X0043867Y0214402D01*
X0046636Y0212803D02*
X0085874Y0212803D01*
X0084785Y0211205D02*
X0048416Y0211205D01*
X0072466Y0209606D02*
X0084400Y0209606D01*
X0084400Y0208008D02*
X0073909Y0208008D01*
X0074520Y0206409D02*
X0084202Y0206409D01*
X0084175Y0204811D02*
X0074625Y0204811D01*
X0074625Y0203212D02*
X0084175Y0203212D01*
X0084175Y0200015D02*
X0074625Y0200015D01*
X0074625Y0198417D02*
X0084175Y0198417D01*
X0084356Y0196818D02*
X0074426Y0196818D01*
X0073662Y0195220D02*
X0085107Y0195220D01*
X0087143Y0193621D02*
X0071896Y0193621D01*
X0091457Y0193621D02*
X0106704Y0193621D01*
X0108925Y0193621D02*
X0109675Y0193621D01*
X0109675Y0195220D02*
X0108925Y0195220D01*
X0108925Y0196818D02*
X0109675Y0196818D01*
X0109675Y0198417D02*
X0108925Y0198417D01*
X0108925Y0200015D02*
X0109675Y0200015D01*
X0114625Y0200015D02*
X0124175Y0200015D01*
X0124175Y0198417D02*
X0114625Y0198417D01*
X0114426Y0196818D02*
X0124356Y0196818D01*
X0125107Y0195220D02*
X0113662Y0195220D01*
X0111896Y0193621D02*
X0127143Y0193621D01*
X0131457Y0193621D02*
X0146704Y0193621D01*
X0146509Y0193721D02*
X0147256Y0193340D01*
X0148053Y0193081D01*
X0148881Y0192950D01*
X0148925Y0192950D01*
X0148925Y0201425D01*
X0143975Y0201425D01*
X0143975Y0197856D01*
X0144106Y0197028D01*
X0144365Y0196231D01*
X0144746Y0195484D01*
X0145238Y0194806D01*
X0145831Y0194213D01*
X0146509Y0193721D01*
X0144938Y0195220D02*
X0133493Y0195220D01*
X0134244Y0196818D02*
X0144174Y0196818D01*
X0143975Y0198417D02*
X0134425Y0198417D01*
X0134425Y0200015D02*
X0143975Y0200015D01*
X0148925Y0200015D02*
X0149675Y0200015D01*
X0149675Y0198417D02*
X0148925Y0198417D01*
X0148925Y0196818D02*
X0149675Y0196818D01*
X0149675Y0195220D02*
X0148925Y0195220D01*
X0148925Y0193621D02*
X0149675Y0193621D01*
X0154625Y0204811D02*
X0164175Y0204811D01*
X0164202Y0206409D02*
X0154520Y0206409D01*
X0153909Y0208008D02*
X0163662Y0208008D01*
X0104938Y0195220D02*
X0093493Y0195220D01*
X0094244Y0196818D02*
X0104174Y0196818D01*
X0103975Y0198417D02*
X0094425Y0198417D01*
X0094425Y0200015D02*
X0103975Y0200015D01*
X0111397Y0171242D02*
X0091902Y0171242D01*
X0093642Y0169644D02*
X0109815Y0169644D01*
X0109132Y0168045D02*
X0094304Y0168045D01*
X0094400Y0166447D02*
X0109000Y0166447D01*
X0109361Y0164848D02*
X0094012Y0164848D01*
X0092962Y0163250D02*
X0110355Y0163250D01*
X0114116Y0163250D02*
X0114484Y0163250D01*
X0114484Y0164848D02*
X0114116Y0164848D01*
X0114116Y0166447D02*
X0114484Y0166447D01*
X0114484Y0168045D02*
X0114116Y0168045D01*
X0114116Y0169644D02*
X0114484Y0169644D01*
X0114484Y0171242D02*
X0114116Y0171242D01*
X0086698Y0171242D02*
X0032203Y0171242D01*
X0032078Y0171333D02*
X0031334Y0171712D01*
X0030541Y0171969D01*
X0029717Y0172100D01*
X0029484Y0172100D01*
X0029484Y0166984D01*
X0029116Y0166984D01*
X0029116Y0166616D01*
X0024000Y0166616D01*
X0024000Y0166383D01*
X0024130Y0165559D01*
X0024388Y0164766D01*
X0024767Y0164022D01*
X0025257Y0163347D01*
X0025847Y0162757D01*
X0026522Y0162267D01*
X0027266Y0161888D01*
X0027537Y0161800D01*
X0027266Y0161712D01*
X0026522Y0161333D01*
X0025847Y0160843D01*
X0025257Y0160253D01*
X0024767Y0159578D01*
X0024388Y0158834D01*
X0024130Y0158041D01*
X0024000Y0157217D01*
X0024000Y0156984D01*
X0029116Y0156984D01*
X0029116Y0156616D01*
X0024000Y0156616D01*
X0024000Y0156383D01*
X0024130Y0155559D01*
X0024388Y0154766D01*
X0024767Y0154022D01*
X0025257Y0153347D01*
X0025847Y0152757D01*
X0026522Y0152267D01*
X0027266Y0151888D01*
X0028059Y0151630D01*
X0028883Y0151500D01*
X0029116Y0151500D01*
X0029116Y0156616D01*
X0029484Y0156616D01*
X0029484Y0151500D01*
X0029717Y0151500D01*
X0030541Y0151630D01*
X0031334Y0151888D01*
X0032078Y0152267D01*
X0032753Y0152757D01*
X0033343Y0153347D01*
X0033833Y0154022D01*
X0034212Y0154766D01*
X0034469Y0155559D01*
X0034600Y0156383D01*
X0034600Y0156616D01*
X0029484Y0156616D01*
X0029484Y0156984D01*
X0034600Y0156984D01*
X0034600Y0157217D01*
X0034469Y0158041D01*
X0034212Y0158834D01*
X0033833Y0159578D01*
X0033343Y0160253D01*
X0032753Y0160843D01*
X0032078Y0161333D01*
X0031334Y0161712D01*
X0031063Y0161800D01*
X0031334Y0161888D01*
X0032078Y0162267D01*
X0032753Y0162757D01*
X0033343Y0163347D01*
X0033833Y0164022D01*
X0034212Y0164766D01*
X0034469Y0165559D01*
X0034600Y0166383D01*
X0034600Y0166616D01*
X0029484Y0166616D01*
X0029484Y0156984D01*
X0029116Y0156984D01*
X0029116Y0162100D01*
X0029116Y0166616D01*
X0029484Y0166616D01*
X0029484Y0166984D01*
X0034600Y0166984D01*
X0034600Y0167217D01*
X0034469Y0168041D01*
X0034212Y0168834D01*
X0033833Y0169578D01*
X0033343Y0170253D01*
X0032753Y0170843D01*
X0032078Y0171333D01*
X0033785Y0169644D02*
X0084958Y0169644D01*
X0084296Y0168045D02*
X0034468Y0168045D01*
X0034600Y0166447D02*
X0084200Y0166447D01*
X0084588Y0164848D02*
X0034239Y0164848D01*
X0033245Y0163250D02*
X0085638Y0163250D01*
X0087685Y0161651D02*
X0031453Y0161651D01*
X0029484Y0161651D02*
X0029116Y0161651D01*
X0029116Y0160053D02*
X0029484Y0160053D01*
X0029484Y0158454D02*
X0029116Y0158454D01*
X0029116Y0156856D02*
X0021600Y0156856D01*
X0021600Y0158454D02*
X0024265Y0158454D01*
X0025112Y0160053D02*
X0021600Y0160053D01*
X0021600Y0161651D02*
X0027147Y0161651D01*
X0025355Y0163250D02*
X0021600Y0163250D01*
X0021600Y0164848D02*
X0024361Y0164848D01*
X0024000Y0166447D02*
X0021600Y0166447D01*
X0021600Y0168045D02*
X0024132Y0168045D01*
X0024130Y0168041D02*
X0024000Y0167217D01*
X0024000Y0166984D01*
X0029116Y0166984D01*
X0029116Y0172100D01*
X0028883Y0172100D01*
X0028059Y0171969D01*
X0027266Y0171712D01*
X0026522Y0171333D01*
X0025847Y0170843D01*
X0025257Y0170253D01*
X0024767Y0169578D01*
X0024388Y0168834D01*
X0024130Y0168041D01*
X0024815Y0169644D02*
X0021600Y0169644D01*
X0021600Y0171242D02*
X0026397Y0171242D01*
X0029116Y0171242D02*
X0029484Y0171242D01*
X0029484Y0169644D02*
X0029116Y0169644D01*
X0029116Y0168045D02*
X0029484Y0168045D01*
X0029484Y0166447D02*
X0029116Y0166447D01*
X0029116Y0164848D02*
X0029484Y0164848D01*
X0029484Y0163250D02*
X0029116Y0163250D01*
X0033488Y0160053D02*
X0085340Y0160053D01*
X0084465Y0158454D02*
X0034335Y0158454D01*
X0034371Y0155257D02*
X0084419Y0155257D01*
X0084200Y0156856D02*
X0029484Y0156856D01*
X0029484Y0155257D02*
X0029116Y0155257D01*
X0029116Y0153659D02*
X0029484Y0153659D01*
X0029484Y0152060D02*
X0029116Y0152060D01*
X0026928Y0152060D02*
X0021600Y0152060D01*
X0021600Y0150462D02*
X0085749Y0150462D01*
X0087416Y0152060D02*
X0031672Y0152060D01*
X0033569Y0153659D02*
X0085229Y0153659D01*
X0093688Y0144068D02*
X0169912Y0144068D01*
X0171429Y0142469D02*
X0092171Y0142469D01*
X0025031Y0153659D02*
X0021600Y0153659D01*
X0021600Y0155257D02*
X0024229Y0155257D01*
X0161644Y0163250D02*
X0170638Y0163250D01*
X0169588Y0164848D02*
X0163242Y0164848D01*
X0164841Y0166447D02*
X0169200Y0166447D01*
X0169296Y0168045D02*
X0166439Y0168045D01*
X0168038Y0169644D02*
X0169958Y0169644D01*
X0169636Y0171242D02*
X0171698Y0171242D01*
X0188159Y0147265D02*
X0227941Y0147265D01*
X0229540Y0145666D02*
X0186560Y0145666D01*
X0286672Y0152060D02*
X0315646Y0152060D01*
X0314047Y0153659D02*
X0288569Y0153659D01*
X0289371Y0155257D02*
X0312449Y0155257D01*
X0301653Y0172841D02*
X0353201Y0172841D01*
X0353201Y0174439D02*
X0300055Y0174439D01*
X0307957Y0179235D02*
X0353201Y0179235D01*
X0353201Y0180833D02*
X0308700Y0180833D01*
X0346902Y0171242D02*
X0353201Y0171242D01*
X0353201Y0169644D02*
X0348642Y0169644D01*
X0349304Y0168045D02*
X0353201Y0168045D01*
X0353201Y0166447D02*
X0349400Y0166447D01*
X0349012Y0164848D02*
X0353201Y0164848D01*
X0353201Y0163250D02*
X0347962Y0163250D01*
X0345915Y0161651D02*
X0353201Y0161651D01*
X0353201Y0160053D02*
X0348260Y0160053D01*
X0349135Y0158454D02*
X0353201Y0158454D01*
X0353201Y0156856D02*
X0349400Y0156856D01*
X0349181Y0155257D02*
X0353201Y0155257D01*
X0353201Y0153659D02*
X0348371Y0153659D01*
X0338055Y0041053D02*
X0338055Y0041053D01*
M02*
