G75*
%MOIN*%
%OFA0B0*%
%FSLAX25Y25*%
%IPPOS*%
%LPD*%
%AMOC8*
5,1,8,0,0,1.08239X$1,22.5*
%
%ADD10C,0.00000*%
%ADD11C,0.07850*%
%ADD12C,0.07800*%
%ADD13OC8,0.06800*%
%ADD14OC8,0.06000*%
%ADD15C,0.06800*%
%ADD16C,0.13398*%
D10*
X0016800Y0001800D02*
X0016800Y0219261D01*
X0358001Y0219261D01*
X0358001Y0001800D01*
X0016800Y0001800D01*
X0030501Y0024300D02*
X0030503Y0024458D01*
X0030509Y0024616D01*
X0030519Y0024774D01*
X0030533Y0024932D01*
X0030551Y0025089D01*
X0030572Y0025246D01*
X0030598Y0025402D01*
X0030628Y0025558D01*
X0030661Y0025713D01*
X0030699Y0025866D01*
X0030740Y0026019D01*
X0030785Y0026171D01*
X0030834Y0026322D01*
X0030887Y0026471D01*
X0030943Y0026619D01*
X0031003Y0026765D01*
X0031067Y0026910D01*
X0031135Y0027053D01*
X0031206Y0027195D01*
X0031280Y0027335D01*
X0031358Y0027472D01*
X0031440Y0027608D01*
X0031524Y0027742D01*
X0031613Y0027873D01*
X0031704Y0028002D01*
X0031799Y0028129D01*
X0031896Y0028254D01*
X0031997Y0028376D01*
X0032101Y0028495D01*
X0032208Y0028612D01*
X0032318Y0028726D01*
X0032431Y0028837D01*
X0032546Y0028946D01*
X0032664Y0029051D01*
X0032785Y0029153D01*
X0032908Y0029253D01*
X0033034Y0029349D01*
X0033162Y0029442D01*
X0033292Y0029532D01*
X0033425Y0029618D01*
X0033560Y0029702D01*
X0033696Y0029781D01*
X0033835Y0029858D01*
X0033976Y0029930D01*
X0034118Y0030000D01*
X0034262Y0030065D01*
X0034408Y0030127D01*
X0034555Y0030185D01*
X0034704Y0030240D01*
X0034854Y0030291D01*
X0035005Y0030338D01*
X0035157Y0030381D01*
X0035310Y0030420D01*
X0035465Y0030456D01*
X0035620Y0030487D01*
X0035776Y0030515D01*
X0035932Y0030539D01*
X0036089Y0030559D01*
X0036247Y0030575D01*
X0036404Y0030587D01*
X0036563Y0030595D01*
X0036721Y0030599D01*
X0036879Y0030599D01*
X0037037Y0030595D01*
X0037196Y0030587D01*
X0037353Y0030575D01*
X0037511Y0030559D01*
X0037668Y0030539D01*
X0037824Y0030515D01*
X0037980Y0030487D01*
X0038135Y0030456D01*
X0038290Y0030420D01*
X0038443Y0030381D01*
X0038595Y0030338D01*
X0038746Y0030291D01*
X0038896Y0030240D01*
X0039045Y0030185D01*
X0039192Y0030127D01*
X0039338Y0030065D01*
X0039482Y0030000D01*
X0039624Y0029930D01*
X0039765Y0029858D01*
X0039904Y0029781D01*
X0040040Y0029702D01*
X0040175Y0029618D01*
X0040308Y0029532D01*
X0040438Y0029442D01*
X0040566Y0029349D01*
X0040692Y0029253D01*
X0040815Y0029153D01*
X0040936Y0029051D01*
X0041054Y0028946D01*
X0041169Y0028837D01*
X0041282Y0028726D01*
X0041392Y0028612D01*
X0041499Y0028495D01*
X0041603Y0028376D01*
X0041704Y0028254D01*
X0041801Y0028129D01*
X0041896Y0028002D01*
X0041987Y0027873D01*
X0042076Y0027742D01*
X0042160Y0027608D01*
X0042242Y0027472D01*
X0042320Y0027335D01*
X0042394Y0027195D01*
X0042465Y0027053D01*
X0042533Y0026910D01*
X0042597Y0026765D01*
X0042657Y0026619D01*
X0042713Y0026471D01*
X0042766Y0026322D01*
X0042815Y0026171D01*
X0042860Y0026019D01*
X0042901Y0025866D01*
X0042939Y0025713D01*
X0042972Y0025558D01*
X0043002Y0025402D01*
X0043028Y0025246D01*
X0043049Y0025089D01*
X0043067Y0024932D01*
X0043081Y0024774D01*
X0043091Y0024616D01*
X0043097Y0024458D01*
X0043099Y0024300D01*
X0043097Y0024142D01*
X0043091Y0023984D01*
X0043081Y0023826D01*
X0043067Y0023668D01*
X0043049Y0023511D01*
X0043028Y0023354D01*
X0043002Y0023198D01*
X0042972Y0023042D01*
X0042939Y0022887D01*
X0042901Y0022734D01*
X0042860Y0022581D01*
X0042815Y0022429D01*
X0042766Y0022278D01*
X0042713Y0022129D01*
X0042657Y0021981D01*
X0042597Y0021835D01*
X0042533Y0021690D01*
X0042465Y0021547D01*
X0042394Y0021405D01*
X0042320Y0021265D01*
X0042242Y0021128D01*
X0042160Y0020992D01*
X0042076Y0020858D01*
X0041987Y0020727D01*
X0041896Y0020598D01*
X0041801Y0020471D01*
X0041704Y0020346D01*
X0041603Y0020224D01*
X0041499Y0020105D01*
X0041392Y0019988D01*
X0041282Y0019874D01*
X0041169Y0019763D01*
X0041054Y0019654D01*
X0040936Y0019549D01*
X0040815Y0019447D01*
X0040692Y0019347D01*
X0040566Y0019251D01*
X0040438Y0019158D01*
X0040308Y0019068D01*
X0040175Y0018982D01*
X0040040Y0018898D01*
X0039904Y0018819D01*
X0039765Y0018742D01*
X0039624Y0018670D01*
X0039482Y0018600D01*
X0039338Y0018535D01*
X0039192Y0018473D01*
X0039045Y0018415D01*
X0038896Y0018360D01*
X0038746Y0018309D01*
X0038595Y0018262D01*
X0038443Y0018219D01*
X0038290Y0018180D01*
X0038135Y0018144D01*
X0037980Y0018113D01*
X0037824Y0018085D01*
X0037668Y0018061D01*
X0037511Y0018041D01*
X0037353Y0018025D01*
X0037196Y0018013D01*
X0037037Y0018005D01*
X0036879Y0018001D01*
X0036721Y0018001D01*
X0036563Y0018005D01*
X0036404Y0018013D01*
X0036247Y0018025D01*
X0036089Y0018041D01*
X0035932Y0018061D01*
X0035776Y0018085D01*
X0035620Y0018113D01*
X0035465Y0018144D01*
X0035310Y0018180D01*
X0035157Y0018219D01*
X0035005Y0018262D01*
X0034854Y0018309D01*
X0034704Y0018360D01*
X0034555Y0018415D01*
X0034408Y0018473D01*
X0034262Y0018535D01*
X0034118Y0018600D01*
X0033976Y0018670D01*
X0033835Y0018742D01*
X0033696Y0018819D01*
X0033560Y0018898D01*
X0033425Y0018982D01*
X0033292Y0019068D01*
X0033162Y0019158D01*
X0033034Y0019251D01*
X0032908Y0019347D01*
X0032785Y0019447D01*
X0032664Y0019549D01*
X0032546Y0019654D01*
X0032431Y0019763D01*
X0032318Y0019874D01*
X0032208Y0019988D01*
X0032101Y0020105D01*
X0031997Y0020224D01*
X0031896Y0020346D01*
X0031799Y0020471D01*
X0031704Y0020598D01*
X0031613Y0020727D01*
X0031524Y0020858D01*
X0031440Y0020992D01*
X0031358Y0021128D01*
X0031280Y0021265D01*
X0031206Y0021405D01*
X0031135Y0021547D01*
X0031067Y0021690D01*
X0031003Y0021835D01*
X0030943Y0021981D01*
X0030887Y0022129D01*
X0030834Y0022278D01*
X0030785Y0022429D01*
X0030740Y0022581D01*
X0030699Y0022734D01*
X0030661Y0022887D01*
X0030628Y0023042D01*
X0030598Y0023198D01*
X0030572Y0023354D01*
X0030551Y0023511D01*
X0030533Y0023668D01*
X0030519Y0023826D01*
X0030509Y0023984D01*
X0030503Y0024142D01*
X0030501Y0024300D01*
X0030501Y0199300D02*
X0030503Y0199458D01*
X0030509Y0199616D01*
X0030519Y0199774D01*
X0030533Y0199932D01*
X0030551Y0200089D01*
X0030572Y0200246D01*
X0030598Y0200402D01*
X0030628Y0200558D01*
X0030661Y0200713D01*
X0030699Y0200866D01*
X0030740Y0201019D01*
X0030785Y0201171D01*
X0030834Y0201322D01*
X0030887Y0201471D01*
X0030943Y0201619D01*
X0031003Y0201765D01*
X0031067Y0201910D01*
X0031135Y0202053D01*
X0031206Y0202195D01*
X0031280Y0202335D01*
X0031358Y0202472D01*
X0031440Y0202608D01*
X0031524Y0202742D01*
X0031613Y0202873D01*
X0031704Y0203002D01*
X0031799Y0203129D01*
X0031896Y0203254D01*
X0031997Y0203376D01*
X0032101Y0203495D01*
X0032208Y0203612D01*
X0032318Y0203726D01*
X0032431Y0203837D01*
X0032546Y0203946D01*
X0032664Y0204051D01*
X0032785Y0204153D01*
X0032908Y0204253D01*
X0033034Y0204349D01*
X0033162Y0204442D01*
X0033292Y0204532D01*
X0033425Y0204618D01*
X0033560Y0204702D01*
X0033696Y0204781D01*
X0033835Y0204858D01*
X0033976Y0204930D01*
X0034118Y0205000D01*
X0034262Y0205065D01*
X0034408Y0205127D01*
X0034555Y0205185D01*
X0034704Y0205240D01*
X0034854Y0205291D01*
X0035005Y0205338D01*
X0035157Y0205381D01*
X0035310Y0205420D01*
X0035465Y0205456D01*
X0035620Y0205487D01*
X0035776Y0205515D01*
X0035932Y0205539D01*
X0036089Y0205559D01*
X0036247Y0205575D01*
X0036404Y0205587D01*
X0036563Y0205595D01*
X0036721Y0205599D01*
X0036879Y0205599D01*
X0037037Y0205595D01*
X0037196Y0205587D01*
X0037353Y0205575D01*
X0037511Y0205559D01*
X0037668Y0205539D01*
X0037824Y0205515D01*
X0037980Y0205487D01*
X0038135Y0205456D01*
X0038290Y0205420D01*
X0038443Y0205381D01*
X0038595Y0205338D01*
X0038746Y0205291D01*
X0038896Y0205240D01*
X0039045Y0205185D01*
X0039192Y0205127D01*
X0039338Y0205065D01*
X0039482Y0205000D01*
X0039624Y0204930D01*
X0039765Y0204858D01*
X0039904Y0204781D01*
X0040040Y0204702D01*
X0040175Y0204618D01*
X0040308Y0204532D01*
X0040438Y0204442D01*
X0040566Y0204349D01*
X0040692Y0204253D01*
X0040815Y0204153D01*
X0040936Y0204051D01*
X0041054Y0203946D01*
X0041169Y0203837D01*
X0041282Y0203726D01*
X0041392Y0203612D01*
X0041499Y0203495D01*
X0041603Y0203376D01*
X0041704Y0203254D01*
X0041801Y0203129D01*
X0041896Y0203002D01*
X0041987Y0202873D01*
X0042076Y0202742D01*
X0042160Y0202608D01*
X0042242Y0202472D01*
X0042320Y0202335D01*
X0042394Y0202195D01*
X0042465Y0202053D01*
X0042533Y0201910D01*
X0042597Y0201765D01*
X0042657Y0201619D01*
X0042713Y0201471D01*
X0042766Y0201322D01*
X0042815Y0201171D01*
X0042860Y0201019D01*
X0042901Y0200866D01*
X0042939Y0200713D01*
X0042972Y0200558D01*
X0043002Y0200402D01*
X0043028Y0200246D01*
X0043049Y0200089D01*
X0043067Y0199932D01*
X0043081Y0199774D01*
X0043091Y0199616D01*
X0043097Y0199458D01*
X0043099Y0199300D01*
X0043097Y0199142D01*
X0043091Y0198984D01*
X0043081Y0198826D01*
X0043067Y0198668D01*
X0043049Y0198511D01*
X0043028Y0198354D01*
X0043002Y0198198D01*
X0042972Y0198042D01*
X0042939Y0197887D01*
X0042901Y0197734D01*
X0042860Y0197581D01*
X0042815Y0197429D01*
X0042766Y0197278D01*
X0042713Y0197129D01*
X0042657Y0196981D01*
X0042597Y0196835D01*
X0042533Y0196690D01*
X0042465Y0196547D01*
X0042394Y0196405D01*
X0042320Y0196265D01*
X0042242Y0196128D01*
X0042160Y0195992D01*
X0042076Y0195858D01*
X0041987Y0195727D01*
X0041896Y0195598D01*
X0041801Y0195471D01*
X0041704Y0195346D01*
X0041603Y0195224D01*
X0041499Y0195105D01*
X0041392Y0194988D01*
X0041282Y0194874D01*
X0041169Y0194763D01*
X0041054Y0194654D01*
X0040936Y0194549D01*
X0040815Y0194447D01*
X0040692Y0194347D01*
X0040566Y0194251D01*
X0040438Y0194158D01*
X0040308Y0194068D01*
X0040175Y0193982D01*
X0040040Y0193898D01*
X0039904Y0193819D01*
X0039765Y0193742D01*
X0039624Y0193670D01*
X0039482Y0193600D01*
X0039338Y0193535D01*
X0039192Y0193473D01*
X0039045Y0193415D01*
X0038896Y0193360D01*
X0038746Y0193309D01*
X0038595Y0193262D01*
X0038443Y0193219D01*
X0038290Y0193180D01*
X0038135Y0193144D01*
X0037980Y0193113D01*
X0037824Y0193085D01*
X0037668Y0193061D01*
X0037511Y0193041D01*
X0037353Y0193025D01*
X0037196Y0193013D01*
X0037037Y0193005D01*
X0036879Y0193001D01*
X0036721Y0193001D01*
X0036563Y0193005D01*
X0036404Y0193013D01*
X0036247Y0193025D01*
X0036089Y0193041D01*
X0035932Y0193061D01*
X0035776Y0193085D01*
X0035620Y0193113D01*
X0035465Y0193144D01*
X0035310Y0193180D01*
X0035157Y0193219D01*
X0035005Y0193262D01*
X0034854Y0193309D01*
X0034704Y0193360D01*
X0034555Y0193415D01*
X0034408Y0193473D01*
X0034262Y0193535D01*
X0034118Y0193600D01*
X0033976Y0193670D01*
X0033835Y0193742D01*
X0033696Y0193819D01*
X0033560Y0193898D01*
X0033425Y0193982D01*
X0033292Y0194068D01*
X0033162Y0194158D01*
X0033034Y0194251D01*
X0032908Y0194347D01*
X0032785Y0194447D01*
X0032664Y0194549D01*
X0032546Y0194654D01*
X0032431Y0194763D01*
X0032318Y0194874D01*
X0032208Y0194988D01*
X0032101Y0195105D01*
X0031997Y0195224D01*
X0031896Y0195346D01*
X0031799Y0195471D01*
X0031704Y0195598D01*
X0031613Y0195727D01*
X0031524Y0195858D01*
X0031440Y0195992D01*
X0031358Y0196128D01*
X0031280Y0196265D01*
X0031206Y0196405D01*
X0031135Y0196547D01*
X0031067Y0196690D01*
X0031003Y0196835D01*
X0030943Y0196981D01*
X0030887Y0197129D01*
X0030834Y0197278D01*
X0030785Y0197429D01*
X0030740Y0197581D01*
X0030699Y0197734D01*
X0030661Y0197887D01*
X0030628Y0198042D01*
X0030598Y0198198D01*
X0030572Y0198354D01*
X0030551Y0198511D01*
X0030533Y0198668D01*
X0030519Y0198826D01*
X0030509Y0198984D01*
X0030503Y0199142D01*
X0030501Y0199300D01*
X0330501Y0199300D02*
X0330503Y0199458D01*
X0330509Y0199616D01*
X0330519Y0199774D01*
X0330533Y0199932D01*
X0330551Y0200089D01*
X0330572Y0200246D01*
X0330598Y0200402D01*
X0330628Y0200558D01*
X0330661Y0200713D01*
X0330699Y0200866D01*
X0330740Y0201019D01*
X0330785Y0201171D01*
X0330834Y0201322D01*
X0330887Y0201471D01*
X0330943Y0201619D01*
X0331003Y0201765D01*
X0331067Y0201910D01*
X0331135Y0202053D01*
X0331206Y0202195D01*
X0331280Y0202335D01*
X0331358Y0202472D01*
X0331440Y0202608D01*
X0331524Y0202742D01*
X0331613Y0202873D01*
X0331704Y0203002D01*
X0331799Y0203129D01*
X0331896Y0203254D01*
X0331997Y0203376D01*
X0332101Y0203495D01*
X0332208Y0203612D01*
X0332318Y0203726D01*
X0332431Y0203837D01*
X0332546Y0203946D01*
X0332664Y0204051D01*
X0332785Y0204153D01*
X0332908Y0204253D01*
X0333034Y0204349D01*
X0333162Y0204442D01*
X0333292Y0204532D01*
X0333425Y0204618D01*
X0333560Y0204702D01*
X0333696Y0204781D01*
X0333835Y0204858D01*
X0333976Y0204930D01*
X0334118Y0205000D01*
X0334262Y0205065D01*
X0334408Y0205127D01*
X0334555Y0205185D01*
X0334704Y0205240D01*
X0334854Y0205291D01*
X0335005Y0205338D01*
X0335157Y0205381D01*
X0335310Y0205420D01*
X0335465Y0205456D01*
X0335620Y0205487D01*
X0335776Y0205515D01*
X0335932Y0205539D01*
X0336089Y0205559D01*
X0336247Y0205575D01*
X0336404Y0205587D01*
X0336563Y0205595D01*
X0336721Y0205599D01*
X0336879Y0205599D01*
X0337037Y0205595D01*
X0337196Y0205587D01*
X0337353Y0205575D01*
X0337511Y0205559D01*
X0337668Y0205539D01*
X0337824Y0205515D01*
X0337980Y0205487D01*
X0338135Y0205456D01*
X0338290Y0205420D01*
X0338443Y0205381D01*
X0338595Y0205338D01*
X0338746Y0205291D01*
X0338896Y0205240D01*
X0339045Y0205185D01*
X0339192Y0205127D01*
X0339338Y0205065D01*
X0339482Y0205000D01*
X0339624Y0204930D01*
X0339765Y0204858D01*
X0339904Y0204781D01*
X0340040Y0204702D01*
X0340175Y0204618D01*
X0340308Y0204532D01*
X0340438Y0204442D01*
X0340566Y0204349D01*
X0340692Y0204253D01*
X0340815Y0204153D01*
X0340936Y0204051D01*
X0341054Y0203946D01*
X0341169Y0203837D01*
X0341282Y0203726D01*
X0341392Y0203612D01*
X0341499Y0203495D01*
X0341603Y0203376D01*
X0341704Y0203254D01*
X0341801Y0203129D01*
X0341896Y0203002D01*
X0341987Y0202873D01*
X0342076Y0202742D01*
X0342160Y0202608D01*
X0342242Y0202472D01*
X0342320Y0202335D01*
X0342394Y0202195D01*
X0342465Y0202053D01*
X0342533Y0201910D01*
X0342597Y0201765D01*
X0342657Y0201619D01*
X0342713Y0201471D01*
X0342766Y0201322D01*
X0342815Y0201171D01*
X0342860Y0201019D01*
X0342901Y0200866D01*
X0342939Y0200713D01*
X0342972Y0200558D01*
X0343002Y0200402D01*
X0343028Y0200246D01*
X0343049Y0200089D01*
X0343067Y0199932D01*
X0343081Y0199774D01*
X0343091Y0199616D01*
X0343097Y0199458D01*
X0343099Y0199300D01*
X0343097Y0199142D01*
X0343091Y0198984D01*
X0343081Y0198826D01*
X0343067Y0198668D01*
X0343049Y0198511D01*
X0343028Y0198354D01*
X0343002Y0198198D01*
X0342972Y0198042D01*
X0342939Y0197887D01*
X0342901Y0197734D01*
X0342860Y0197581D01*
X0342815Y0197429D01*
X0342766Y0197278D01*
X0342713Y0197129D01*
X0342657Y0196981D01*
X0342597Y0196835D01*
X0342533Y0196690D01*
X0342465Y0196547D01*
X0342394Y0196405D01*
X0342320Y0196265D01*
X0342242Y0196128D01*
X0342160Y0195992D01*
X0342076Y0195858D01*
X0341987Y0195727D01*
X0341896Y0195598D01*
X0341801Y0195471D01*
X0341704Y0195346D01*
X0341603Y0195224D01*
X0341499Y0195105D01*
X0341392Y0194988D01*
X0341282Y0194874D01*
X0341169Y0194763D01*
X0341054Y0194654D01*
X0340936Y0194549D01*
X0340815Y0194447D01*
X0340692Y0194347D01*
X0340566Y0194251D01*
X0340438Y0194158D01*
X0340308Y0194068D01*
X0340175Y0193982D01*
X0340040Y0193898D01*
X0339904Y0193819D01*
X0339765Y0193742D01*
X0339624Y0193670D01*
X0339482Y0193600D01*
X0339338Y0193535D01*
X0339192Y0193473D01*
X0339045Y0193415D01*
X0338896Y0193360D01*
X0338746Y0193309D01*
X0338595Y0193262D01*
X0338443Y0193219D01*
X0338290Y0193180D01*
X0338135Y0193144D01*
X0337980Y0193113D01*
X0337824Y0193085D01*
X0337668Y0193061D01*
X0337511Y0193041D01*
X0337353Y0193025D01*
X0337196Y0193013D01*
X0337037Y0193005D01*
X0336879Y0193001D01*
X0336721Y0193001D01*
X0336563Y0193005D01*
X0336404Y0193013D01*
X0336247Y0193025D01*
X0336089Y0193041D01*
X0335932Y0193061D01*
X0335776Y0193085D01*
X0335620Y0193113D01*
X0335465Y0193144D01*
X0335310Y0193180D01*
X0335157Y0193219D01*
X0335005Y0193262D01*
X0334854Y0193309D01*
X0334704Y0193360D01*
X0334555Y0193415D01*
X0334408Y0193473D01*
X0334262Y0193535D01*
X0334118Y0193600D01*
X0333976Y0193670D01*
X0333835Y0193742D01*
X0333696Y0193819D01*
X0333560Y0193898D01*
X0333425Y0193982D01*
X0333292Y0194068D01*
X0333162Y0194158D01*
X0333034Y0194251D01*
X0332908Y0194347D01*
X0332785Y0194447D01*
X0332664Y0194549D01*
X0332546Y0194654D01*
X0332431Y0194763D01*
X0332318Y0194874D01*
X0332208Y0194988D01*
X0332101Y0195105D01*
X0331997Y0195224D01*
X0331896Y0195346D01*
X0331799Y0195471D01*
X0331704Y0195598D01*
X0331613Y0195727D01*
X0331524Y0195858D01*
X0331440Y0195992D01*
X0331358Y0196128D01*
X0331280Y0196265D01*
X0331206Y0196405D01*
X0331135Y0196547D01*
X0331067Y0196690D01*
X0331003Y0196835D01*
X0330943Y0196981D01*
X0330887Y0197129D01*
X0330834Y0197278D01*
X0330785Y0197429D01*
X0330740Y0197581D01*
X0330699Y0197734D01*
X0330661Y0197887D01*
X0330628Y0198042D01*
X0330598Y0198198D01*
X0330572Y0198354D01*
X0330551Y0198511D01*
X0330533Y0198668D01*
X0330519Y0198826D01*
X0330509Y0198984D01*
X0330503Y0199142D01*
X0330501Y0199300D01*
X0330501Y0024300D02*
X0330503Y0024458D01*
X0330509Y0024616D01*
X0330519Y0024774D01*
X0330533Y0024932D01*
X0330551Y0025089D01*
X0330572Y0025246D01*
X0330598Y0025402D01*
X0330628Y0025558D01*
X0330661Y0025713D01*
X0330699Y0025866D01*
X0330740Y0026019D01*
X0330785Y0026171D01*
X0330834Y0026322D01*
X0330887Y0026471D01*
X0330943Y0026619D01*
X0331003Y0026765D01*
X0331067Y0026910D01*
X0331135Y0027053D01*
X0331206Y0027195D01*
X0331280Y0027335D01*
X0331358Y0027472D01*
X0331440Y0027608D01*
X0331524Y0027742D01*
X0331613Y0027873D01*
X0331704Y0028002D01*
X0331799Y0028129D01*
X0331896Y0028254D01*
X0331997Y0028376D01*
X0332101Y0028495D01*
X0332208Y0028612D01*
X0332318Y0028726D01*
X0332431Y0028837D01*
X0332546Y0028946D01*
X0332664Y0029051D01*
X0332785Y0029153D01*
X0332908Y0029253D01*
X0333034Y0029349D01*
X0333162Y0029442D01*
X0333292Y0029532D01*
X0333425Y0029618D01*
X0333560Y0029702D01*
X0333696Y0029781D01*
X0333835Y0029858D01*
X0333976Y0029930D01*
X0334118Y0030000D01*
X0334262Y0030065D01*
X0334408Y0030127D01*
X0334555Y0030185D01*
X0334704Y0030240D01*
X0334854Y0030291D01*
X0335005Y0030338D01*
X0335157Y0030381D01*
X0335310Y0030420D01*
X0335465Y0030456D01*
X0335620Y0030487D01*
X0335776Y0030515D01*
X0335932Y0030539D01*
X0336089Y0030559D01*
X0336247Y0030575D01*
X0336404Y0030587D01*
X0336563Y0030595D01*
X0336721Y0030599D01*
X0336879Y0030599D01*
X0337037Y0030595D01*
X0337196Y0030587D01*
X0337353Y0030575D01*
X0337511Y0030559D01*
X0337668Y0030539D01*
X0337824Y0030515D01*
X0337980Y0030487D01*
X0338135Y0030456D01*
X0338290Y0030420D01*
X0338443Y0030381D01*
X0338595Y0030338D01*
X0338746Y0030291D01*
X0338896Y0030240D01*
X0339045Y0030185D01*
X0339192Y0030127D01*
X0339338Y0030065D01*
X0339482Y0030000D01*
X0339624Y0029930D01*
X0339765Y0029858D01*
X0339904Y0029781D01*
X0340040Y0029702D01*
X0340175Y0029618D01*
X0340308Y0029532D01*
X0340438Y0029442D01*
X0340566Y0029349D01*
X0340692Y0029253D01*
X0340815Y0029153D01*
X0340936Y0029051D01*
X0341054Y0028946D01*
X0341169Y0028837D01*
X0341282Y0028726D01*
X0341392Y0028612D01*
X0341499Y0028495D01*
X0341603Y0028376D01*
X0341704Y0028254D01*
X0341801Y0028129D01*
X0341896Y0028002D01*
X0341987Y0027873D01*
X0342076Y0027742D01*
X0342160Y0027608D01*
X0342242Y0027472D01*
X0342320Y0027335D01*
X0342394Y0027195D01*
X0342465Y0027053D01*
X0342533Y0026910D01*
X0342597Y0026765D01*
X0342657Y0026619D01*
X0342713Y0026471D01*
X0342766Y0026322D01*
X0342815Y0026171D01*
X0342860Y0026019D01*
X0342901Y0025866D01*
X0342939Y0025713D01*
X0342972Y0025558D01*
X0343002Y0025402D01*
X0343028Y0025246D01*
X0343049Y0025089D01*
X0343067Y0024932D01*
X0343081Y0024774D01*
X0343091Y0024616D01*
X0343097Y0024458D01*
X0343099Y0024300D01*
X0343097Y0024142D01*
X0343091Y0023984D01*
X0343081Y0023826D01*
X0343067Y0023668D01*
X0343049Y0023511D01*
X0343028Y0023354D01*
X0343002Y0023198D01*
X0342972Y0023042D01*
X0342939Y0022887D01*
X0342901Y0022734D01*
X0342860Y0022581D01*
X0342815Y0022429D01*
X0342766Y0022278D01*
X0342713Y0022129D01*
X0342657Y0021981D01*
X0342597Y0021835D01*
X0342533Y0021690D01*
X0342465Y0021547D01*
X0342394Y0021405D01*
X0342320Y0021265D01*
X0342242Y0021128D01*
X0342160Y0020992D01*
X0342076Y0020858D01*
X0341987Y0020727D01*
X0341896Y0020598D01*
X0341801Y0020471D01*
X0341704Y0020346D01*
X0341603Y0020224D01*
X0341499Y0020105D01*
X0341392Y0019988D01*
X0341282Y0019874D01*
X0341169Y0019763D01*
X0341054Y0019654D01*
X0340936Y0019549D01*
X0340815Y0019447D01*
X0340692Y0019347D01*
X0340566Y0019251D01*
X0340438Y0019158D01*
X0340308Y0019068D01*
X0340175Y0018982D01*
X0340040Y0018898D01*
X0339904Y0018819D01*
X0339765Y0018742D01*
X0339624Y0018670D01*
X0339482Y0018600D01*
X0339338Y0018535D01*
X0339192Y0018473D01*
X0339045Y0018415D01*
X0338896Y0018360D01*
X0338746Y0018309D01*
X0338595Y0018262D01*
X0338443Y0018219D01*
X0338290Y0018180D01*
X0338135Y0018144D01*
X0337980Y0018113D01*
X0337824Y0018085D01*
X0337668Y0018061D01*
X0337511Y0018041D01*
X0337353Y0018025D01*
X0337196Y0018013D01*
X0337037Y0018005D01*
X0336879Y0018001D01*
X0336721Y0018001D01*
X0336563Y0018005D01*
X0336404Y0018013D01*
X0336247Y0018025D01*
X0336089Y0018041D01*
X0335932Y0018061D01*
X0335776Y0018085D01*
X0335620Y0018113D01*
X0335465Y0018144D01*
X0335310Y0018180D01*
X0335157Y0018219D01*
X0335005Y0018262D01*
X0334854Y0018309D01*
X0334704Y0018360D01*
X0334555Y0018415D01*
X0334408Y0018473D01*
X0334262Y0018535D01*
X0334118Y0018600D01*
X0333976Y0018670D01*
X0333835Y0018742D01*
X0333696Y0018819D01*
X0333560Y0018898D01*
X0333425Y0018982D01*
X0333292Y0019068D01*
X0333162Y0019158D01*
X0333034Y0019251D01*
X0332908Y0019347D01*
X0332785Y0019447D01*
X0332664Y0019549D01*
X0332546Y0019654D01*
X0332431Y0019763D01*
X0332318Y0019874D01*
X0332208Y0019988D01*
X0332101Y0020105D01*
X0331997Y0020224D01*
X0331896Y0020346D01*
X0331799Y0020471D01*
X0331704Y0020598D01*
X0331613Y0020727D01*
X0331524Y0020858D01*
X0331440Y0020992D01*
X0331358Y0021128D01*
X0331280Y0021265D01*
X0331206Y0021405D01*
X0331135Y0021547D01*
X0331067Y0021690D01*
X0331003Y0021835D01*
X0330943Y0021981D01*
X0330887Y0022129D01*
X0330834Y0022278D01*
X0330785Y0022429D01*
X0330740Y0022581D01*
X0330699Y0022734D01*
X0330661Y0022887D01*
X0330628Y0023042D01*
X0330598Y0023198D01*
X0330572Y0023354D01*
X0330551Y0023511D01*
X0330533Y0023668D01*
X0330519Y0023826D01*
X0330509Y0023984D01*
X0330503Y0024142D01*
X0330501Y0024300D01*
D11*
X0304300Y0022825D02*
X0304300Y0015775D01*
X0284300Y0015775D02*
X0284300Y0022825D01*
X0259300Y0022825D02*
X0259300Y0015775D01*
X0239300Y0015775D02*
X0239300Y0022825D01*
X0134300Y0022825D02*
X0134300Y0015775D01*
X0114300Y0015775D02*
X0114300Y0022825D01*
X0089300Y0022825D02*
X0089300Y0015775D01*
X0069300Y0015775D02*
X0069300Y0022825D01*
X0069300Y0198275D02*
X0069300Y0205325D01*
X0089300Y0205325D02*
X0089300Y0198275D01*
X0109300Y0198275D02*
X0109300Y0205325D01*
X0129300Y0205325D02*
X0129300Y0198275D01*
X0149300Y0198275D02*
X0149300Y0205325D01*
X0169300Y0205325D02*
X0169300Y0198275D01*
D12*
X0174300Y0166800D03*
X0174300Y0156800D03*
X0174300Y0146800D03*
X0199300Y0156800D03*
X0199300Y0166800D03*
X0259300Y0166800D03*
X0259300Y0156800D03*
X0259300Y0146800D03*
X0284300Y0156800D03*
X0284300Y0166800D03*
X0344300Y0166800D03*
X0344300Y0156800D03*
X0344300Y0146800D03*
X0344300Y0066800D03*
X0344300Y0056800D03*
X0284300Y0056800D03*
X0284300Y0066800D03*
X0259300Y0066800D03*
X0259300Y0056800D03*
X0199300Y0056800D03*
X0199300Y0066800D03*
X0174300Y0066800D03*
X0174300Y0056800D03*
X0114300Y0056800D03*
X0114300Y0066800D03*
X0089300Y0066800D03*
X0089300Y0056800D03*
X0029300Y0056800D03*
X0029300Y0066800D03*
X0089300Y0146800D03*
X0089300Y0156800D03*
X0089300Y0166800D03*
X0114300Y0166800D03*
X0114300Y0156800D03*
X0029300Y0156800D03*
X0029300Y0166800D03*
D13*
X0244300Y0181800D03*
X0254300Y0181800D03*
X0254300Y0191800D03*
X0244300Y0191800D03*
X0244300Y0201800D03*
X0254300Y0201800D03*
X0254300Y0211800D03*
X0244300Y0211800D03*
D14*
X0264300Y0211800D03*
X0264300Y0201800D03*
X0264300Y0191800D03*
X0264300Y0181800D03*
X0304300Y0181800D03*
X0304300Y0191800D03*
X0304300Y0201800D03*
X0304300Y0211800D03*
D15*
X0217300Y0211800D02*
X0211300Y0211800D01*
X0211300Y0201800D02*
X0217300Y0201800D01*
X0217300Y0191800D02*
X0211300Y0191800D01*
X0211300Y0181800D02*
X0217300Y0181800D01*
D16*
X0336800Y0199300D03*
X0336800Y0024300D03*
X0036800Y0024300D03*
X0036800Y0199300D03*
M02*
