%
M48
M72
T01C0.0236
T02C0.0320
T03C0.0400
T04C0.0470
T05C0.1260
%
T01
X12680Y9680
X15180Y9430
X15930Y10930
X18180Y9055
X18680Y10930
X19555Y10930
X17430Y13180
X13930Y14180
X19430Y7055
X19430Y6305
X19430Y5180
X16180Y5180
T02
X6180Y6180
X7180Y6180
X8555Y5180
X7080Y8430
X6280Y8430
X8555Y9180
T03
X10680Y5680
X10680Y6680
X10680Y7680
X10680Y10680
X10680Y11680
X10680Y12680
X8680Y10930
X7680Y10930
X6680Y10930
X6180Y13430
X7180Y13430
X6150Y14790
X6150Y16570
X8710Y16570
X8710Y14790
X11180Y15180
X12180Y15180
X13180Y15180
X13180Y16180
X13180Y16180
X12180Y16180
X12180Y16180
X11180Y16180
X11180Y16180
X11180Y17180
X12180Y17180
X13180Y17180
X14900Y16570
X14900Y14790
X17460Y14790
X17460Y16570
X19805Y16180
X19805Y15180
X19805Y17180
X22930Y12680
X22930Y11680
X22930Y10680
X22930Y7680
X22930Y6680
X22930Y5680
T04
X2680Y12930
X2680Y10930
X2680Y8180
X2680Y6180
X5680Y1930
X7680Y1930
X9680Y1930
X11680Y1930
X13680Y1930
X15680Y1930
X17680Y1930
X19680Y1930
T05
X2930Y16055
X2930Y2180
X22430Y2180
X22430Y16180
M30
