G75*
%MOIN*%
%OFA0B0*%
%FSLAX25Y25*%
%IPPOS*%
%LPD*%
%AMOC8*
5,1,8,0,0,1.08239X$1,22.5*
%
%ADD10C,0.00000*%
%ADD11R,0.05118X0.05906*%
%ADD12R,0.05906X0.05118*%
%ADD13C,0.06000*%
%ADD14C,0.07050*%
%ADD15OC8,0.06000*%
%ADD16OC8,0.05200*%
%ADD17C,0.05200*%
%ADD18C,0.01600*%
%ADD19R,0.05000X0.05000*%
%ADD20C,0.05000*%
%ADD21C,0.02400*%
%ADD22R,0.04000X0.04000*%
%ADD23R,0.03962X0.03962*%
D10*
X0009300Y0001800D02*
X0009300Y0181761D01*
X0009300Y0181800D02*
X0243050Y0181800D01*
X0243001Y0181761D02*
X0243001Y0001800D01*
X0009300Y0001800D01*
X0023001Y0021800D02*
X0023003Y0021958D01*
X0023009Y0022116D01*
X0023019Y0022274D01*
X0023033Y0022432D01*
X0023051Y0022589D01*
X0023072Y0022746D01*
X0023098Y0022902D01*
X0023128Y0023058D01*
X0023161Y0023213D01*
X0023199Y0023366D01*
X0023240Y0023519D01*
X0023285Y0023671D01*
X0023334Y0023822D01*
X0023387Y0023971D01*
X0023443Y0024119D01*
X0023503Y0024265D01*
X0023567Y0024410D01*
X0023635Y0024553D01*
X0023706Y0024695D01*
X0023780Y0024835D01*
X0023858Y0024972D01*
X0023940Y0025108D01*
X0024024Y0025242D01*
X0024113Y0025373D01*
X0024204Y0025502D01*
X0024299Y0025629D01*
X0024396Y0025754D01*
X0024497Y0025876D01*
X0024601Y0025995D01*
X0024708Y0026112D01*
X0024818Y0026226D01*
X0024931Y0026337D01*
X0025046Y0026446D01*
X0025164Y0026551D01*
X0025285Y0026653D01*
X0025408Y0026753D01*
X0025534Y0026849D01*
X0025662Y0026942D01*
X0025792Y0027032D01*
X0025925Y0027118D01*
X0026060Y0027202D01*
X0026196Y0027281D01*
X0026335Y0027358D01*
X0026476Y0027430D01*
X0026618Y0027500D01*
X0026762Y0027565D01*
X0026908Y0027627D01*
X0027055Y0027685D01*
X0027204Y0027740D01*
X0027354Y0027791D01*
X0027505Y0027838D01*
X0027657Y0027881D01*
X0027810Y0027920D01*
X0027965Y0027956D01*
X0028120Y0027987D01*
X0028276Y0028015D01*
X0028432Y0028039D01*
X0028589Y0028059D01*
X0028747Y0028075D01*
X0028904Y0028087D01*
X0029063Y0028095D01*
X0029221Y0028099D01*
X0029379Y0028099D01*
X0029537Y0028095D01*
X0029696Y0028087D01*
X0029853Y0028075D01*
X0030011Y0028059D01*
X0030168Y0028039D01*
X0030324Y0028015D01*
X0030480Y0027987D01*
X0030635Y0027956D01*
X0030790Y0027920D01*
X0030943Y0027881D01*
X0031095Y0027838D01*
X0031246Y0027791D01*
X0031396Y0027740D01*
X0031545Y0027685D01*
X0031692Y0027627D01*
X0031838Y0027565D01*
X0031982Y0027500D01*
X0032124Y0027430D01*
X0032265Y0027358D01*
X0032404Y0027281D01*
X0032540Y0027202D01*
X0032675Y0027118D01*
X0032808Y0027032D01*
X0032938Y0026942D01*
X0033066Y0026849D01*
X0033192Y0026753D01*
X0033315Y0026653D01*
X0033436Y0026551D01*
X0033554Y0026446D01*
X0033669Y0026337D01*
X0033782Y0026226D01*
X0033892Y0026112D01*
X0033999Y0025995D01*
X0034103Y0025876D01*
X0034204Y0025754D01*
X0034301Y0025629D01*
X0034396Y0025502D01*
X0034487Y0025373D01*
X0034576Y0025242D01*
X0034660Y0025108D01*
X0034742Y0024972D01*
X0034820Y0024835D01*
X0034894Y0024695D01*
X0034965Y0024553D01*
X0035033Y0024410D01*
X0035097Y0024265D01*
X0035157Y0024119D01*
X0035213Y0023971D01*
X0035266Y0023822D01*
X0035315Y0023671D01*
X0035360Y0023519D01*
X0035401Y0023366D01*
X0035439Y0023213D01*
X0035472Y0023058D01*
X0035502Y0022902D01*
X0035528Y0022746D01*
X0035549Y0022589D01*
X0035567Y0022432D01*
X0035581Y0022274D01*
X0035591Y0022116D01*
X0035597Y0021958D01*
X0035599Y0021800D01*
X0035597Y0021642D01*
X0035591Y0021484D01*
X0035581Y0021326D01*
X0035567Y0021168D01*
X0035549Y0021011D01*
X0035528Y0020854D01*
X0035502Y0020698D01*
X0035472Y0020542D01*
X0035439Y0020387D01*
X0035401Y0020234D01*
X0035360Y0020081D01*
X0035315Y0019929D01*
X0035266Y0019778D01*
X0035213Y0019629D01*
X0035157Y0019481D01*
X0035097Y0019335D01*
X0035033Y0019190D01*
X0034965Y0019047D01*
X0034894Y0018905D01*
X0034820Y0018765D01*
X0034742Y0018628D01*
X0034660Y0018492D01*
X0034576Y0018358D01*
X0034487Y0018227D01*
X0034396Y0018098D01*
X0034301Y0017971D01*
X0034204Y0017846D01*
X0034103Y0017724D01*
X0033999Y0017605D01*
X0033892Y0017488D01*
X0033782Y0017374D01*
X0033669Y0017263D01*
X0033554Y0017154D01*
X0033436Y0017049D01*
X0033315Y0016947D01*
X0033192Y0016847D01*
X0033066Y0016751D01*
X0032938Y0016658D01*
X0032808Y0016568D01*
X0032675Y0016482D01*
X0032540Y0016398D01*
X0032404Y0016319D01*
X0032265Y0016242D01*
X0032124Y0016170D01*
X0031982Y0016100D01*
X0031838Y0016035D01*
X0031692Y0015973D01*
X0031545Y0015915D01*
X0031396Y0015860D01*
X0031246Y0015809D01*
X0031095Y0015762D01*
X0030943Y0015719D01*
X0030790Y0015680D01*
X0030635Y0015644D01*
X0030480Y0015613D01*
X0030324Y0015585D01*
X0030168Y0015561D01*
X0030011Y0015541D01*
X0029853Y0015525D01*
X0029696Y0015513D01*
X0029537Y0015505D01*
X0029379Y0015501D01*
X0029221Y0015501D01*
X0029063Y0015505D01*
X0028904Y0015513D01*
X0028747Y0015525D01*
X0028589Y0015541D01*
X0028432Y0015561D01*
X0028276Y0015585D01*
X0028120Y0015613D01*
X0027965Y0015644D01*
X0027810Y0015680D01*
X0027657Y0015719D01*
X0027505Y0015762D01*
X0027354Y0015809D01*
X0027204Y0015860D01*
X0027055Y0015915D01*
X0026908Y0015973D01*
X0026762Y0016035D01*
X0026618Y0016100D01*
X0026476Y0016170D01*
X0026335Y0016242D01*
X0026196Y0016319D01*
X0026060Y0016398D01*
X0025925Y0016482D01*
X0025792Y0016568D01*
X0025662Y0016658D01*
X0025534Y0016751D01*
X0025408Y0016847D01*
X0025285Y0016947D01*
X0025164Y0017049D01*
X0025046Y0017154D01*
X0024931Y0017263D01*
X0024818Y0017374D01*
X0024708Y0017488D01*
X0024601Y0017605D01*
X0024497Y0017724D01*
X0024396Y0017846D01*
X0024299Y0017971D01*
X0024204Y0018098D01*
X0024113Y0018227D01*
X0024024Y0018358D01*
X0023940Y0018492D01*
X0023858Y0018628D01*
X0023780Y0018765D01*
X0023706Y0018905D01*
X0023635Y0019047D01*
X0023567Y0019190D01*
X0023503Y0019335D01*
X0023443Y0019481D01*
X0023387Y0019629D01*
X0023334Y0019778D01*
X0023285Y0019929D01*
X0023240Y0020081D01*
X0023199Y0020234D01*
X0023161Y0020387D01*
X0023128Y0020542D01*
X0023098Y0020698D01*
X0023072Y0020854D01*
X0023051Y0021011D01*
X0023033Y0021168D01*
X0023019Y0021326D01*
X0023009Y0021484D01*
X0023003Y0021642D01*
X0023001Y0021800D01*
X0023001Y0160550D02*
X0023003Y0160708D01*
X0023009Y0160866D01*
X0023019Y0161024D01*
X0023033Y0161182D01*
X0023051Y0161339D01*
X0023072Y0161496D01*
X0023098Y0161652D01*
X0023128Y0161808D01*
X0023161Y0161963D01*
X0023199Y0162116D01*
X0023240Y0162269D01*
X0023285Y0162421D01*
X0023334Y0162572D01*
X0023387Y0162721D01*
X0023443Y0162869D01*
X0023503Y0163015D01*
X0023567Y0163160D01*
X0023635Y0163303D01*
X0023706Y0163445D01*
X0023780Y0163585D01*
X0023858Y0163722D01*
X0023940Y0163858D01*
X0024024Y0163992D01*
X0024113Y0164123D01*
X0024204Y0164252D01*
X0024299Y0164379D01*
X0024396Y0164504D01*
X0024497Y0164626D01*
X0024601Y0164745D01*
X0024708Y0164862D01*
X0024818Y0164976D01*
X0024931Y0165087D01*
X0025046Y0165196D01*
X0025164Y0165301D01*
X0025285Y0165403D01*
X0025408Y0165503D01*
X0025534Y0165599D01*
X0025662Y0165692D01*
X0025792Y0165782D01*
X0025925Y0165868D01*
X0026060Y0165952D01*
X0026196Y0166031D01*
X0026335Y0166108D01*
X0026476Y0166180D01*
X0026618Y0166250D01*
X0026762Y0166315D01*
X0026908Y0166377D01*
X0027055Y0166435D01*
X0027204Y0166490D01*
X0027354Y0166541D01*
X0027505Y0166588D01*
X0027657Y0166631D01*
X0027810Y0166670D01*
X0027965Y0166706D01*
X0028120Y0166737D01*
X0028276Y0166765D01*
X0028432Y0166789D01*
X0028589Y0166809D01*
X0028747Y0166825D01*
X0028904Y0166837D01*
X0029063Y0166845D01*
X0029221Y0166849D01*
X0029379Y0166849D01*
X0029537Y0166845D01*
X0029696Y0166837D01*
X0029853Y0166825D01*
X0030011Y0166809D01*
X0030168Y0166789D01*
X0030324Y0166765D01*
X0030480Y0166737D01*
X0030635Y0166706D01*
X0030790Y0166670D01*
X0030943Y0166631D01*
X0031095Y0166588D01*
X0031246Y0166541D01*
X0031396Y0166490D01*
X0031545Y0166435D01*
X0031692Y0166377D01*
X0031838Y0166315D01*
X0031982Y0166250D01*
X0032124Y0166180D01*
X0032265Y0166108D01*
X0032404Y0166031D01*
X0032540Y0165952D01*
X0032675Y0165868D01*
X0032808Y0165782D01*
X0032938Y0165692D01*
X0033066Y0165599D01*
X0033192Y0165503D01*
X0033315Y0165403D01*
X0033436Y0165301D01*
X0033554Y0165196D01*
X0033669Y0165087D01*
X0033782Y0164976D01*
X0033892Y0164862D01*
X0033999Y0164745D01*
X0034103Y0164626D01*
X0034204Y0164504D01*
X0034301Y0164379D01*
X0034396Y0164252D01*
X0034487Y0164123D01*
X0034576Y0163992D01*
X0034660Y0163858D01*
X0034742Y0163722D01*
X0034820Y0163585D01*
X0034894Y0163445D01*
X0034965Y0163303D01*
X0035033Y0163160D01*
X0035097Y0163015D01*
X0035157Y0162869D01*
X0035213Y0162721D01*
X0035266Y0162572D01*
X0035315Y0162421D01*
X0035360Y0162269D01*
X0035401Y0162116D01*
X0035439Y0161963D01*
X0035472Y0161808D01*
X0035502Y0161652D01*
X0035528Y0161496D01*
X0035549Y0161339D01*
X0035567Y0161182D01*
X0035581Y0161024D01*
X0035591Y0160866D01*
X0035597Y0160708D01*
X0035599Y0160550D01*
X0035597Y0160392D01*
X0035591Y0160234D01*
X0035581Y0160076D01*
X0035567Y0159918D01*
X0035549Y0159761D01*
X0035528Y0159604D01*
X0035502Y0159448D01*
X0035472Y0159292D01*
X0035439Y0159137D01*
X0035401Y0158984D01*
X0035360Y0158831D01*
X0035315Y0158679D01*
X0035266Y0158528D01*
X0035213Y0158379D01*
X0035157Y0158231D01*
X0035097Y0158085D01*
X0035033Y0157940D01*
X0034965Y0157797D01*
X0034894Y0157655D01*
X0034820Y0157515D01*
X0034742Y0157378D01*
X0034660Y0157242D01*
X0034576Y0157108D01*
X0034487Y0156977D01*
X0034396Y0156848D01*
X0034301Y0156721D01*
X0034204Y0156596D01*
X0034103Y0156474D01*
X0033999Y0156355D01*
X0033892Y0156238D01*
X0033782Y0156124D01*
X0033669Y0156013D01*
X0033554Y0155904D01*
X0033436Y0155799D01*
X0033315Y0155697D01*
X0033192Y0155597D01*
X0033066Y0155501D01*
X0032938Y0155408D01*
X0032808Y0155318D01*
X0032675Y0155232D01*
X0032540Y0155148D01*
X0032404Y0155069D01*
X0032265Y0154992D01*
X0032124Y0154920D01*
X0031982Y0154850D01*
X0031838Y0154785D01*
X0031692Y0154723D01*
X0031545Y0154665D01*
X0031396Y0154610D01*
X0031246Y0154559D01*
X0031095Y0154512D01*
X0030943Y0154469D01*
X0030790Y0154430D01*
X0030635Y0154394D01*
X0030480Y0154363D01*
X0030324Y0154335D01*
X0030168Y0154311D01*
X0030011Y0154291D01*
X0029853Y0154275D01*
X0029696Y0154263D01*
X0029537Y0154255D01*
X0029379Y0154251D01*
X0029221Y0154251D01*
X0029063Y0154255D01*
X0028904Y0154263D01*
X0028747Y0154275D01*
X0028589Y0154291D01*
X0028432Y0154311D01*
X0028276Y0154335D01*
X0028120Y0154363D01*
X0027965Y0154394D01*
X0027810Y0154430D01*
X0027657Y0154469D01*
X0027505Y0154512D01*
X0027354Y0154559D01*
X0027204Y0154610D01*
X0027055Y0154665D01*
X0026908Y0154723D01*
X0026762Y0154785D01*
X0026618Y0154850D01*
X0026476Y0154920D01*
X0026335Y0154992D01*
X0026196Y0155069D01*
X0026060Y0155148D01*
X0025925Y0155232D01*
X0025792Y0155318D01*
X0025662Y0155408D01*
X0025534Y0155501D01*
X0025408Y0155597D01*
X0025285Y0155697D01*
X0025164Y0155799D01*
X0025046Y0155904D01*
X0024931Y0156013D01*
X0024818Y0156124D01*
X0024708Y0156238D01*
X0024601Y0156355D01*
X0024497Y0156474D01*
X0024396Y0156596D01*
X0024299Y0156721D01*
X0024204Y0156848D01*
X0024113Y0156977D01*
X0024024Y0157108D01*
X0023940Y0157242D01*
X0023858Y0157378D01*
X0023780Y0157515D01*
X0023706Y0157655D01*
X0023635Y0157797D01*
X0023567Y0157940D01*
X0023503Y0158085D01*
X0023443Y0158231D01*
X0023387Y0158379D01*
X0023334Y0158528D01*
X0023285Y0158679D01*
X0023240Y0158831D01*
X0023199Y0158984D01*
X0023161Y0159137D01*
X0023128Y0159292D01*
X0023098Y0159448D01*
X0023072Y0159604D01*
X0023051Y0159761D01*
X0023033Y0159918D01*
X0023019Y0160076D01*
X0023009Y0160234D01*
X0023003Y0160392D01*
X0023001Y0160550D01*
X0218001Y0161800D02*
X0218003Y0161958D01*
X0218009Y0162116D01*
X0218019Y0162274D01*
X0218033Y0162432D01*
X0218051Y0162589D01*
X0218072Y0162746D01*
X0218098Y0162902D01*
X0218128Y0163058D01*
X0218161Y0163213D01*
X0218199Y0163366D01*
X0218240Y0163519D01*
X0218285Y0163671D01*
X0218334Y0163822D01*
X0218387Y0163971D01*
X0218443Y0164119D01*
X0218503Y0164265D01*
X0218567Y0164410D01*
X0218635Y0164553D01*
X0218706Y0164695D01*
X0218780Y0164835D01*
X0218858Y0164972D01*
X0218940Y0165108D01*
X0219024Y0165242D01*
X0219113Y0165373D01*
X0219204Y0165502D01*
X0219299Y0165629D01*
X0219396Y0165754D01*
X0219497Y0165876D01*
X0219601Y0165995D01*
X0219708Y0166112D01*
X0219818Y0166226D01*
X0219931Y0166337D01*
X0220046Y0166446D01*
X0220164Y0166551D01*
X0220285Y0166653D01*
X0220408Y0166753D01*
X0220534Y0166849D01*
X0220662Y0166942D01*
X0220792Y0167032D01*
X0220925Y0167118D01*
X0221060Y0167202D01*
X0221196Y0167281D01*
X0221335Y0167358D01*
X0221476Y0167430D01*
X0221618Y0167500D01*
X0221762Y0167565D01*
X0221908Y0167627D01*
X0222055Y0167685D01*
X0222204Y0167740D01*
X0222354Y0167791D01*
X0222505Y0167838D01*
X0222657Y0167881D01*
X0222810Y0167920D01*
X0222965Y0167956D01*
X0223120Y0167987D01*
X0223276Y0168015D01*
X0223432Y0168039D01*
X0223589Y0168059D01*
X0223747Y0168075D01*
X0223904Y0168087D01*
X0224063Y0168095D01*
X0224221Y0168099D01*
X0224379Y0168099D01*
X0224537Y0168095D01*
X0224696Y0168087D01*
X0224853Y0168075D01*
X0225011Y0168059D01*
X0225168Y0168039D01*
X0225324Y0168015D01*
X0225480Y0167987D01*
X0225635Y0167956D01*
X0225790Y0167920D01*
X0225943Y0167881D01*
X0226095Y0167838D01*
X0226246Y0167791D01*
X0226396Y0167740D01*
X0226545Y0167685D01*
X0226692Y0167627D01*
X0226838Y0167565D01*
X0226982Y0167500D01*
X0227124Y0167430D01*
X0227265Y0167358D01*
X0227404Y0167281D01*
X0227540Y0167202D01*
X0227675Y0167118D01*
X0227808Y0167032D01*
X0227938Y0166942D01*
X0228066Y0166849D01*
X0228192Y0166753D01*
X0228315Y0166653D01*
X0228436Y0166551D01*
X0228554Y0166446D01*
X0228669Y0166337D01*
X0228782Y0166226D01*
X0228892Y0166112D01*
X0228999Y0165995D01*
X0229103Y0165876D01*
X0229204Y0165754D01*
X0229301Y0165629D01*
X0229396Y0165502D01*
X0229487Y0165373D01*
X0229576Y0165242D01*
X0229660Y0165108D01*
X0229742Y0164972D01*
X0229820Y0164835D01*
X0229894Y0164695D01*
X0229965Y0164553D01*
X0230033Y0164410D01*
X0230097Y0164265D01*
X0230157Y0164119D01*
X0230213Y0163971D01*
X0230266Y0163822D01*
X0230315Y0163671D01*
X0230360Y0163519D01*
X0230401Y0163366D01*
X0230439Y0163213D01*
X0230472Y0163058D01*
X0230502Y0162902D01*
X0230528Y0162746D01*
X0230549Y0162589D01*
X0230567Y0162432D01*
X0230581Y0162274D01*
X0230591Y0162116D01*
X0230597Y0161958D01*
X0230599Y0161800D01*
X0230597Y0161642D01*
X0230591Y0161484D01*
X0230581Y0161326D01*
X0230567Y0161168D01*
X0230549Y0161011D01*
X0230528Y0160854D01*
X0230502Y0160698D01*
X0230472Y0160542D01*
X0230439Y0160387D01*
X0230401Y0160234D01*
X0230360Y0160081D01*
X0230315Y0159929D01*
X0230266Y0159778D01*
X0230213Y0159629D01*
X0230157Y0159481D01*
X0230097Y0159335D01*
X0230033Y0159190D01*
X0229965Y0159047D01*
X0229894Y0158905D01*
X0229820Y0158765D01*
X0229742Y0158628D01*
X0229660Y0158492D01*
X0229576Y0158358D01*
X0229487Y0158227D01*
X0229396Y0158098D01*
X0229301Y0157971D01*
X0229204Y0157846D01*
X0229103Y0157724D01*
X0228999Y0157605D01*
X0228892Y0157488D01*
X0228782Y0157374D01*
X0228669Y0157263D01*
X0228554Y0157154D01*
X0228436Y0157049D01*
X0228315Y0156947D01*
X0228192Y0156847D01*
X0228066Y0156751D01*
X0227938Y0156658D01*
X0227808Y0156568D01*
X0227675Y0156482D01*
X0227540Y0156398D01*
X0227404Y0156319D01*
X0227265Y0156242D01*
X0227124Y0156170D01*
X0226982Y0156100D01*
X0226838Y0156035D01*
X0226692Y0155973D01*
X0226545Y0155915D01*
X0226396Y0155860D01*
X0226246Y0155809D01*
X0226095Y0155762D01*
X0225943Y0155719D01*
X0225790Y0155680D01*
X0225635Y0155644D01*
X0225480Y0155613D01*
X0225324Y0155585D01*
X0225168Y0155561D01*
X0225011Y0155541D01*
X0224853Y0155525D01*
X0224696Y0155513D01*
X0224537Y0155505D01*
X0224379Y0155501D01*
X0224221Y0155501D01*
X0224063Y0155505D01*
X0223904Y0155513D01*
X0223747Y0155525D01*
X0223589Y0155541D01*
X0223432Y0155561D01*
X0223276Y0155585D01*
X0223120Y0155613D01*
X0222965Y0155644D01*
X0222810Y0155680D01*
X0222657Y0155719D01*
X0222505Y0155762D01*
X0222354Y0155809D01*
X0222204Y0155860D01*
X0222055Y0155915D01*
X0221908Y0155973D01*
X0221762Y0156035D01*
X0221618Y0156100D01*
X0221476Y0156170D01*
X0221335Y0156242D01*
X0221196Y0156319D01*
X0221060Y0156398D01*
X0220925Y0156482D01*
X0220792Y0156568D01*
X0220662Y0156658D01*
X0220534Y0156751D01*
X0220408Y0156847D01*
X0220285Y0156947D01*
X0220164Y0157049D01*
X0220046Y0157154D01*
X0219931Y0157263D01*
X0219818Y0157374D01*
X0219708Y0157488D01*
X0219601Y0157605D01*
X0219497Y0157724D01*
X0219396Y0157846D01*
X0219299Y0157971D01*
X0219204Y0158098D01*
X0219113Y0158227D01*
X0219024Y0158358D01*
X0218940Y0158492D01*
X0218858Y0158628D01*
X0218780Y0158765D01*
X0218706Y0158905D01*
X0218635Y0159047D01*
X0218567Y0159190D01*
X0218503Y0159335D01*
X0218443Y0159481D01*
X0218387Y0159629D01*
X0218334Y0159778D01*
X0218285Y0159929D01*
X0218240Y0160081D01*
X0218199Y0160234D01*
X0218161Y0160387D01*
X0218128Y0160542D01*
X0218098Y0160698D01*
X0218072Y0160854D01*
X0218051Y0161011D01*
X0218033Y0161168D01*
X0218019Y0161326D01*
X0218009Y0161484D01*
X0218003Y0161642D01*
X0218001Y0161800D01*
X0218001Y0021800D02*
X0218003Y0021958D01*
X0218009Y0022116D01*
X0218019Y0022274D01*
X0218033Y0022432D01*
X0218051Y0022589D01*
X0218072Y0022746D01*
X0218098Y0022902D01*
X0218128Y0023058D01*
X0218161Y0023213D01*
X0218199Y0023366D01*
X0218240Y0023519D01*
X0218285Y0023671D01*
X0218334Y0023822D01*
X0218387Y0023971D01*
X0218443Y0024119D01*
X0218503Y0024265D01*
X0218567Y0024410D01*
X0218635Y0024553D01*
X0218706Y0024695D01*
X0218780Y0024835D01*
X0218858Y0024972D01*
X0218940Y0025108D01*
X0219024Y0025242D01*
X0219113Y0025373D01*
X0219204Y0025502D01*
X0219299Y0025629D01*
X0219396Y0025754D01*
X0219497Y0025876D01*
X0219601Y0025995D01*
X0219708Y0026112D01*
X0219818Y0026226D01*
X0219931Y0026337D01*
X0220046Y0026446D01*
X0220164Y0026551D01*
X0220285Y0026653D01*
X0220408Y0026753D01*
X0220534Y0026849D01*
X0220662Y0026942D01*
X0220792Y0027032D01*
X0220925Y0027118D01*
X0221060Y0027202D01*
X0221196Y0027281D01*
X0221335Y0027358D01*
X0221476Y0027430D01*
X0221618Y0027500D01*
X0221762Y0027565D01*
X0221908Y0027627D01*
X0222055Y0027685D01*
X0222204Y0027740D01*
X0222354Y0027791D01*
X0222505Y0027838D01*
X0222657Y0027881D01*
X0222810Y0027920D01*
X0222965Y0027956D01*
X0223120Y0027987D01*
X0223276Y0028015D01*
X0223432Y0028039D01*
X0223589Y0028059D01*
X0223747Y0028075D01*
X0223904Y0028087D01*
X0224063Y0028095D01*
X0224221Y0028099D01*
X0224379Y0028099D01*
X0224537Y0028095D01*
X0224696Y0028087D01*
X0224853Y0028075D01*
X0225011Y0028059D01*
X0225168Y0028039D01*
X0225324Y0028015D01*
X0225480Y0027987D01*
X0225635Y0027956D01*
X0225790Y0027920D01*
X0225943Y0027881D01*
X0226095Y0027838D01*
X0226246Y0027791D01*
X0226396Y0027740D01*
X0226545Y0027685D01*
X0226692Y0027627D01*
X0226838Y0027565D01*
X0226982Y0027500D01*
X0227124Y0027430D01*
X0227265Y0027358D01*
X0227404Y0027281D01*
X0227540Y0027202D01*
X0227675Y0027118D01*
X0227808Y0027032D01*
X0227938Y0026942D01*
X0228066Y0026849D01*
X0228192Y0026753D01*
X0228315Y0026653D01*
X0228436Y0026551D01*
X0228554Y0026446D01*
X0228669Y0026337D01*
X0228782Y0026226D01*
X0228892Y0026112D01*
X0228999Y0025995D01*
X0229103Y0025876D01*
X0229204Y0025754D01*
X0229301Y0025629D01*
X0229396Y0025502D01*
X0229487Y0025373D01*
X0229576Y0025242D01*
X0229660Y0025108D01*
X0229742Y0024972D01*
X0229820Y0024835D01*
X0229894Y0024695D01*
X0229965Y0024553D01*
X0230033Y0024410D01*
X0230097Y0024265D01*
X0230157Y0024119D01*
X0230213Y0023971D01*
X0230266Y0023822D01*
X0230315Y0023671D01*
X0230360Y0023519D01*
X0230401Y0023366D01*
X0230439Y0023213D01*
X0230472Y0023058D01*
X0230502Y0022902D01*
X0230528Y0022746D01*
X0230549Y0022589D01*
X0230567Y0022432D01*
X0230581Y0022274D01*
X0230591Y0022116D01*
X0230597Y0021958D01*
X0230599Y0021800D01*
X0230597Y0021642D01*
X0230591Y0021484D01*
X0230581Y0021326D01*
X0230567Y0021168D01*
X0230549Y0021011D01*
X0230528Y0020854D01*
X0230502Y0020698D01*
X0230472Y0020542D01*
X0230439Y0020387D01*
X0230401Y0020234D01*
X0230360Y0020081D01*
X0230315Y0019929D01*
X0230266Y0019778D01*
X0230213Y0019629D01*
X0230157Y0019481D01*
X0230097Y0019335D01*
X0230033Y0019190D01*
X0229965Y0019047D01*
X0229894Y0018905D01*
X0229820Y0018765D01*
X0229742Y0018628D01*
X0229660Y0018492D01*
X0229576Y0018358D01*
X0229487Y0018227D01*
X0229396Y0018098D01*
X0229301Y0017971D01*
X0229204Y0017846D01*
X0229103Y0017724D01*
X0228999Y0017605D01*
X0228892Y0017488D01*
X0228782Y0017374D01*
X0228669Y0017263D01*
X0228554Y0017154D01*
X0228436Y0017049D01*
X0228315Y0016947D01*
X0228192Y0016847D01*
X0228066Y0016751D01*
X0227938Y0016658D01*
X0227808Y0016568D01*
X0227675Y0016482D01*
X0227540Y0016398D01*
X0227404Y0016319D01*
X0227265Y0016242D01*
X0227124Y0016170D01*
X0226982Y0016100D01*
X0226838Y0016035D01*
X0226692Y0015973D01*
X0226545Y0015915D01*
X0226396Y0015860D01*
X0226246Y0015809D01*
X0226095Y0015762D01*
X0225943Y0015719D01*
X0225790Y0015680D01*
X0225635Y0015644D01*
X0225480Y0015613D01*
X0225324Y0015585D01*
X0225168Y0015561D01*
X0225011Y0015541D01*
X0224853Y0015525D01*
X0224696Y0015513D01*
X0224537Y0015505D01*
X0224379Y0015501D01*
X0224221Y0015501D01*
X0224063Y0015505D01*
X0223904Y0015513D01*
X0223747Y0015525D01*
X0223589Y0015541D01*
X0223432Y0015561D01*
X0223276Y0015585D01*
X0223120Y0015613D01*
X0222965Y0015644D01*
X0222810Y0015680D01*
X0222657Y0015719D01*
X0222505Y0015762D01*
X0222354Y0015809D01*
X0222204Y0015860D01*
X0222055Y0015915D01*
X0221908Y0015973D01*
X0221762Y0016035D01*
X0221618Y0016100D01*
X0221476Y0016170D01*
X0221335Y0016242D01*
X0221196Y0016319D01*
X0221060Y0016398D01*
X0220925Y0016482D01*
X0220792Y0016568D01*
X0220662Y0016658D01*
X0220534Y0016751D01*
X0220408Y0016847D01*
X0220285Y0016947D01*
X0220164Y0017049D01*
X0220046Y0017154D01*
X0219931Y0017263D01*
X0219818Y0017374D01*
X0219708Y0017488D01*
X0219601Y0017605D01*
X0219497Y0017724D01*
X0219396Y0017846D01*
X0219299Y0017971D01*
X0219204Y0018098D01*
X0219113Y0018227D01*
X0219024Y0018358D01*
X0218940Y0018492D01*
X0218858Y0018628D01*
X0218780Y0018765D01*
X0218706Y0018905D01*
X0218635Y0019047D01*
X0218567Y0019190D01*
X0218503Y0019335D01*
X0218443Y0019481D01*
X0218387Y0019629D01*
X0218334Y0019778D01*
X0218285Y0019929D01*
X0218240Y0020081D01*
X0218199Y0020234D01*
X0218161Y0020387D01*
X0218128Y0020542D01*
X0218098Y0020698D01*
X0218072Y0020854D01*
X0218051Y0021011D01*
X0218033Y0021168D01*
X0218019Y0021326D01*
X0218009Y0021484D01*
X0218003Y0021642D01*
X0218001Y0021800D01*
D11*
X0221810Y0045550D03*
X0229290Y0045550D03*
X0178040Y0051800D03*
X0170560Y0051800D03*
X0170560Y0064300D03*
X0178040Y0064300D03*
X0178040Y0076800D03*
X0170560Y0076800D03*
X0136790Y0051800D03*
X0129310Y0051800D03*
X0166810Y0109300D03*
X0174290Y0109300D03*
X0174290Y0121800D03*
X0166810Y0121800D03*
X0130540Y0133050D03*
X0123060Y0133050D03*
X0090540Y0134300D03*
X0083060Y0134300D03*
X0056790Y0118050D03*
X0049310Y0118050D03*
X0221810Y0095550D03*
X0229290Y0095550D03*
D12*
X0151800Y0080540D03*
X0151800Y0073060D03*
X0151800Y0120560D03*
X0151800Y0128040D03*
D13*
X0152000Y0147900D02*
X0146000Y0147900D01*
X0146000Y0165700D02*
X0152000Y0165700D01*
X0171600Y0165700D02*
X0177600Y0165700D01*
X0195050Y0161800D02*
X0201050Y0161800D01*
X0201050Y0151800D02*
X0195050Y0151800D01*
X0177600Y0147900D02*
X0171600Y0147900D01*
X0195050Y0171800D02*
X0201050Y0171800D01*
X0226300Y0126800D02*
X0232300Y0126800D01*
X0232300Y0116800D02*
X0226300Y0116800D01*
X0226300Y0106800D02*
X0232300Y0106800D01*
X0232300Y0076800D02*
X0226300Y0076800D01*
X0226300Y0066800D02*
X0232300Y0066800D01*
X0232300Y0056800D02*
X0226300Y0056800D01*
X0109800Y0056800D02*
X0103800Y0056800D01*
X0103800Y0066800D02*
X0109800Y0066800D01*
X0109800Y0076800D02*
X0103800Y0076800D01*
X0103800Y0106800D02*
X0109800Y0106800D01*
X0109800Y0116800D02*
X0103800Y0116800D01*
X0103800Y0126800D02*
X0109800Y0126800D01*
X0086800Y0112300D02*
X0086800Y0106300D01*
X0076800Y0106300D02*
X0076800Y0112300D01*
X0066800Y0112300D02*
X0066800Y0106300D01*
X0061800Y0131300D02*
X0061800Y0137300D01*
X0071800Y0137300D02*
X0071800Y0131300D01*
X0064500Y0147900D02*
X0058500Y0147900D01*
X0058500Y0165700D02*
X0064500Y0165700D01*
X0084100Y0165700D02*
X0090100Y0165700D01*
X0090100Y0147900D02*
X0084100Y0147900D01*
D14*
X0030325Y0129300D02*
X0023275Y0129300D01*
X0023275Y0109300D02*
X0030325Y0109300D01*
X0030325Y0081800D02*
X0023275Y0081800D01*
X0023275Y0061800D02*
X0030325Y0061800D01*
X0056800Y0022825D02*
X0056800Y0015775D01*
X0076800Y0015775D02*
X0076800Y0022825D01*
X0096800Y0022825D02*
X0096800Y0015775D01*
X0116800Y0015775D02*
X0116800Y0022825D01*
X0136800Y0022825D02*
X0136800Y0015775D01*
X0156800Y0015775D02*
X0156800Y0022825D01*
X0176800Y0022825D02*
X0176800Y0015775D01*
X0196800Y0015775D02*
X0196800Y0022825D01*
D15*
X0131800Y0151800D03*
X0121800Y0151800D03*
X0111800Y0151800D03*
X0111800Y0161800D03*
X0111800Y0161800D03*
X0121800Y0161800D03*
X0121800Y0161800D03*
X0131800Y0161800D03*
X0131800Y0161800D03*
X0131800Y0171800D03*
X0121800Y0171800D03*
X0111800Y0171800D03*
D16*
X0085550Y0091800D03*
X0062800Y0084300D03*
X0061800Y0061800D03*
X0071800Y0061800D03*
X0085550Y0051800D03*
D17*
X0070800Y0084300D03*
D18*
X0067065Y0086258D02*
X0064623Y0088700D01*
X0062800Y0088700D01*
X0062800Y0084300D01*
X0062800Y0084300D01*
X0062800Y0079900D01*
X0064623Y0079900D01*
X0067065Y0082342D01*
X0067239Y0081921D01*
X0068421Y0080739D01*
X0069965Y0080100D01*
X0071635Y0080100D01*
X0073179Y0080739D01*
X0074361Y0081921D01*
X0075000Y0083465D01*
X0075000Y0085135D01*
X0074361Y0086679D01*
X0073179Y0087861D01*
X0071635Y0088500D01*
X0069965Y0088500D01*
X0068421Y0087861D01*
X0067239Y0086679D01*
X0067065Y0086258D01*
X0067174Y0086521D02*
X0066801Y0086521D01*
X0065203Y0088120D02*
X0069046Y0088120D01*
X0072554Y0088120D02*
X0083291Y0088120D01*
X0083810Y0087600D02*
X0081350Y0090060D01*
X0081350Y0093540D01*
X0083810Y0096000D01*
X0087290Y0096000D01*
X0089750Y0093540D01*
X0089750Y0090060D01*
X0087290Y0087600D01*
X0083810Y0087600D01*
X0081692Y0089718D02*
X0014100Y0089718D01*
X0014100Y0088120D02*
X0060397Y0088120D01*
X0060977Y0088700D02*
X0058400Y0086123D01*
X0058400Y0084300D01*
X0062800Y0084300D01*
X0062800Y0084300D01*
X0062800Y0084300D01*
X0062800Y0088700D01*
X0060977Y0088700D01*
X0062800Y0088120D02*
X0062800Y0088120D01*
X0062800Y0086521D02*
X0062800Y0086521D01*
X0062800Y0084923D02*
X0062800Y0084923D01*
X0062800Y0084300D02*
X0058400Y0084300D01*
X0058400Y0082477D01*
X0060977Y0079900D01*
X0062800Y0079900D01*
X0062800Y0084300D01*
X0062800Y0083324D02*
X0062800Y0083324D01*
X0062800Y0081726D02*
X0062800Y0081726D01*
X0062800Y0080127D02*
X0062800Y0080127D01*
X0064850Y0080127D02*
X0069899Y0080127D01*
X0071701Y0080127D02*
X0100622Y0080127D01*
X0101194Y0080700D02*
X0099900Y0079406D01*
X0099200Y0077715D01*
X0099200Y0075885D01*
X0099900Y0074194D01*
X0101194Y0072900D01*
X0102885Y0072200D01*
X0110715Y0072200D01*
X0112406Y0072900D01*
X0113495Y0073989D01*
X0113612Y0073989D01*
X0113617Y0073991D01*
X0118142Y0073998D01*
X0126501Y0065639D01*
X0126507Y0056353D01*
X0126088Y0056353D01*
X0125151Y0055415D01*
X0125151Y0048184D01*
X0126088Y0047247D01*
X0132532Y0047247D01*
X0132909Y0047624D01*
X0133126Y0047407D01*
X0133536Y0047170D01*
X0133994Y0047047D01*
X0136311Y0047047D01*
X0136311Y0051320D01*
X0137270Y0051320D01*
X0137270Y0047047D01*
X0139586Y0047047D01*
X0140044Y0047170D01*
X0140454Y0047407D01*
X0140790Y0047742D01*
X0141027Y0048152D01*
X0141149Y0048610D01*
X0141149Y0051320D01*
X0137270Y0051320D01*
X0137270Y0052280D01*
X0136311Y0052280D01*
X0136311Y0056553D01*
X0133994Y0056553D01*
X0133536Y0056430D01*
X0133126Y0056193D01*
X0132909Y0055976D01*
X0132532Y0056353D01*
X0132107Y0056353D01*
X0132100Y0066796D01*
X0132100Y0067357D01*
X0132100Y0067358D01*
X0132100Y0067359D01*
X0131888Y0067868D01*
X0131674Y0068386D01*
X0131673Y0068387D01*
X0131673Y0068388D01*
X0131279Y0068781D01*
X0121672Y0078388D01*
X0121671Y0078390D01*
X0121277Y0078783D01*
X0120886Y0079174D01*
X0120884Y0079175D01*
X0120882Y0079176D01*
X0120369Y0079388D01*
X0119857Y0079600D01*
X0119855Y0079600D01*
X0119853Y0079601D01*
X0119299Y0079600D01*
X0118743Y0079600D01*
X0118741Y0079599D01*
X0113514Y0079591D01*
X0112406Y0080700D01*
X0110715Y0081400D01*
X0102885Y0081400D01*
X0101194Y0080700D01*
X0099537Y0078529D02*
X0034530Y0078529D01*
X0034387Y0078331D02*
X0034879Y0079009D01*
X0035260Y0079756D01*
X0035519Y0080553D01*
X0035650Y0081381D01*
X0035650Y0081425D01*
X0027175Y0081425D01*
X0027175Y0082175D01*
X0026425Y0082175D01*
X0026425Y0087125D01*
X0022856Y0087125D01*
X0022028Y0086994D01*
X0021231Y0086735D01*
X0020484Y0086354D01*
X0019806Y0085862D01*
X0019213Y0085269D01*
X0018721Y0084591D01*
X0018340Y0083844D01*
X0018081Y0083047D01*
X0017950Y0082219D01*
X0017950Y0082175D01*
X0026425Y0082175D01*
X0026425Y0081425D01*
X0027175Y0081425D01*
X0027175Y0076475D01*
X0030744Y0076475D01*
X0031572Y0076606D01*
X0032369Y0076865D01*
X0033116Y0077246D01*
X0033794Y0077738D01*
X0034387Y0078331D01*
X0035380Y0080127D02*
X0060750Y0080127D01*
X0059152Y0081726D02*
X0027175Y0081726D01*
X0027175Y0082175D02*
X0035650Y0082175D01*
X0035650Y0082219D01*
X0035519Y0083047D01*
X0035260Y0083844D01*
X0034879Y0084591D01*
X0034387Y0085269D01*
X0033794Y0085862D01*
X0033116Y0086354D01*
X0032369Y0086735D01*
X0031572Y0086994D01*
X0030744Y0087125D01*
X0027175Y0087125D01*
X0027175Y0082175D01*
X0026425Y0081726D02*
X0014100Y0081726D01*
X0014100Y0083324D02*
X0018171Y0083324D01*
X0018962Y0084923D02*
X0014100Y0084923D01*
X0014100Y0086521D02*
X0020811Y0086521D01*
X0026425Y0086521D02*
X0027175Y0086521D01*
X0027175Y0084923D02*
X0026425Y0084923D01*
X0026425Y0083324D02*
X0027175Y0083324D01*
X0026425Y0081425D02*
X0017950Y0081425D01*
X0017950Y0081381D01*
X0018081Y0080553D01*
X0018340Y0079756D01*
X0018721Y0079009D01*
X0019213Y0078331D01*
X0019806Y0077738D01*
X0020484Y0077246D01*
X0021231Y0076865D01*
X0022028Y0076606D01*
X0022856Y0076475D01*
X0026425Y0076475D01*
X0026425Y0081425D01*
X0026425Y0080127D02*
X0027175Y0080127D01*
X0027175Y0078529D02*
X0026425Y0078529D01*
X0026425Y0076930D02*
X0027175Y0076930D01*
X0032496Y0076930D02*
X0099200Y0076930D01*
X0099429Y0075332D02*
X0014100Y0075332D01*
X0014100Y0076930D02*
X0021104Y0076930D01*
X0019070Y0078529D02*
X0014100Y0078529D01*
X0014100Y0080127D02*
X0018220Y0080127D01*
X0014100Y0073733D02*
X0100362Y0073733D01*
X0101194Y0070700D02*
X0099900Y0069406D01*
X0099200Y0067715D01*
X0099200Y0065885D01*
X0099900Y0064194D01*
X0101194Y0062900D01*
X0102885Y0062200D01*
X0110715Y0062200D01*
X0111922Y0062700D01*
X0112602Y0062700D01*
X0115200Y0060102D01*
X0115200Y0053498D01*
X0093324Y0031622D01*
X0092700Y0030116D01*
X0092700Y0025973D01*
X0092455Y0025728D01*
X0091675Y0023844D01*
X0091675Y0014756D01*
X0092455Y0012872D01*
X0093897Y0011430D01*
X0095177Y0010900D01*
X0083498Y0010900D01*
X0081257Y0013142D01*
X0081925Y0014756D01*
X0081925Y0023844D01*
X0081145Y0025728D01*
X0080900Y0025973D01*
X0080900Y0035116D01*
X0080276Y0036622D01*
X0075276Y0041622D01*
X0075276Y0041622D01*
X0074122Y0042776D01*
X0072616Y0043400D01*
X0058498Y0043400D01*
X0037776Y0064122D01*
X0036622Y0065276D01*
X0035116Y0065900D01*
X0033473Y0065900D01*
X0033228Y0066145D01*
X0031344Y0066925D01*
X0022256Y0066925D01*
X0020372Y0066145D01*
X0018930Y0064703D01*
X0018150Y0062819D01*
X0018150Y0060781D01*
X0018930Y0058897D01*
X0020372Y0057455D01*
X0022256Y0056675D01*
X0031344Y0056675D01*
X0032958Y0057343D01*
X0054478Y0035824D01*
X0055984Y0035200D01*
X0070102Y0035200D01*
X0072700Y0032602D01*
X0072700Y0025973D01*
X0072455Y0025728D01*
X0071675Y0023844D01*
X0071675Y0014756D01*
X0072455Y0012872D01*
X0072700Y0012627D01*
X0072700Y0010984D01*
X0073324Y0009478D01*
X0076202Y0006600D01*
X0036197Y0006600D01*
X0039775Y0008665D01*
X0043181Y0012336D01*
X0045354Y0016848D01*
X0046100Y0021800D01*
X0045354Y0026752D01*
X0043181Y0031264D01*
X0039775Y0034935D01*
X0039775Y0034935D01*
X0035438Y0037439D01*
X0035438Y0037439D01*
X0030555Y0038553D01*
X0025562Y0038179D01*
X0025562Y0038179D01*
X0020900Y0036349D01*
X0016985Y0033227D01*
X0016985Y0033227D01*
X0016985Y0033227D01*
X0014164Y0029089D01*
X0014100Y0028883D01*
X0014100Y0153467D01*
X0014164Y0153261D01*
X0014164Y0153261D01*
X0016985Y0149123D01*
X0020900Y0146001D01*
X0025562Y0144171D01*
X0030555Y0143797D01*
X0030555Y0143797D01*
X0035438Y0144911D01*
X0039775Y0147415D01*
X0043181Y0151086D01*
X0045354Y0155598D01*
X0046100Y0160550D01*
X0045354Y0165502D01*
X0043181Y0170014D01*
X0039775Y0173685D01*
X0039775Y0173685D01*
X0035438Y0176189D01*
X0035438Y0176189D01*
X0031883Y0177000D01*
X0217558Y0177000D01*
X0215900Y0176349D01*
X0211985Y0173227D01*
X0211985Y0173227D01*
X0209164Y0169089D01*
X0207688Y0164304D01*
X0207688Y0159296D01*
X0209164Y0154511D01*
X0211985Y0150373D01*
X0215900Y0147251D01*
X0215900Y0147251D01*
X0220562Y0145421D01*
X0225555Y0145047D01*
X0225555Y0145047D01*
X0230438Y0146161D01*
X0234775Y0148665D01*
X0238181Y0152336D01*
X0238201Y0152378D01*
X0238201Y0031222D01*
X0238181Y0031264D01*
X0238181Y0031264D01*
X0238181Y0031264D01*
X0234775Y0034935D01*
X0230438Y0037439D01*
X0225555Y0038553D01*
X0220562Y0038179D01*
X0215900Y0036349D01*
X0211985Y0033227D01*
X0211985Y0033227D01*
X0211985Y0033227D01*
X0209164Y0029089D01*
X0207688Y0024304D01*
X0207688Y0019296D01*
X0209164Y0014511D01*
X0209164Y0014511D01*
X0211985Y0010373D01*
X0215900Y0007251D01*
X0217558Y0006600D01*
X0199898Y0006600D01*
X0200276Y0006978D01*
X0200900Y0008484D01*
X0200900Y0012627D01*
X0201145Y0012872D01*
X0201925Y0014756D01*
X0201925Y0023844D01*
X0201145Y0025728D01*
X0199703Y0027170D01*
X0197819Y0027950D01*
X0195781Y0027950D01*
X0193897Y0027170D01*
X0192455Y0025728D01*
X0191675Y0023844D01*
X0191675Y0014756D01*
X0192455Y0012872D01*
X0192700Y0012627D01*
X0192700Y0010998D01*
X0192602Y0010900D01*
X0178423Y0010900D01*
X0179703Y0011430D01*
X0181145Y0012872D01*
X0181925Y0014756D01*
X0181925Y0023844D01*
X0181145Y0025728D01*
X0180900Y0025973D01*
X0180900Y0032602D01*
X0183498Y0035200D01*
X0207616Y0035200D01*
X0209122Y0035824D01*
X0210276Y0036978D01*
X0215276Y0041978D01*
X0215900Y0043484D01*
X0215900Y0055102D01*
X0223498Y0062700D01*
X0224178Y0062700D01*
X0225385Y0062200D01*
X0233215Y0062200D01*
X0234906Y0062900D01*
X0236200Y0064194D01*
X0236900Y0065885D01*
X0236900Y0067715D01*
X0236200Y0069406D01*
X0234906Y0070700D01*
X0233215Y0071400D01*
X0225385Y0071400D01*
X0224178Y0070900D01*
X0220984Y0070900D01*
X0219478Y0070276D01*
X0209478Y0060276D01*
X0209478Y0060276D01*
X0208324Y0059122D01*
X0207700Y0057616D01*
X0207700Y0045998D01*
X0205102Y0043400D01*
X0180984Y0043400D01*
X0179478Y0042776D01*
X0174478Y0037776D01*
X0173324Y0036622D01*
X0172700Y0035116D01*
X0172700Y0025973D01*
X0172455Y0025728D01*
X0171675Y0023844D01*
X0171675Y0014756D01*
X0172455Y0012872D01*
X0173897Y0011430D01*
X0175177Y0010900D01*
X0160900Y0010900D01*
X0160900Y0012627D01*
X0161145Y0012872D01*
X0161925Y0014756D01*
X0161925Y0023844D01*
X0161145Y0025728D01*
X0159703Y0027170D01*
X0157819Y0027950D01*
X0155781Y0027950D01*
X0153897Y0027170D01*
X0152455Y0025728D01*
X0151675Y0023844D01*
X0151675Y0014756D01*
X0152455Y0012872D01*
X0152700Y0012627D01*
X0152700Y0010900D01*
X0138423Y0010900D01*
X0139703Y0011430D01*
X0141145Y0012872D01*
X0141925Y0014756D01*
X0141925Y0023844D01*
X0141145Y0025728D01*
X0139703Y0027170D01*
X0137819Y0027950D01*
X0135781Y0027950D01*
X0133897Y0027170D01*
X0132455Y0025728D01*
X0131675Y0023844D01*
X0131675Y0014756D01*
X0132455Y0012872D01*
X0133897Y0011430D01*
X0135177Y0010900D01*
X0120900Y0010900D01*
X0120900Y0012627D01*
X0121145Y0012872D01*
X0121925Y0014756D01*
X0121925Y0023844D01*
X0121145Y0025728D01*
X0119703Y0027170D01*
X0117819Y0027950D01*
X0115781Y0027950D01*
X0113897Y0027170D01*
X0112455Y0025728D01*
X0111675Y0023844D01*
X0111675Y0014756D01*
X0112455Y0012872D01*
X0112700Y0012627D01*
X0112700Y0010900D01*
X0098423Y0010900D01*
X0099703Y0011430D01*
X0101145Y0012872D01*
X0101925Y0014756D01*
X0101925Y0023844D01*
X0101145Y0025728D01*
X0100900Y0025973D01*
X0100900Y0027602D01*
X0121622Y0048324D01*
X0122776Y0049478D01*
X0123400Y0050984D01*
X0123400Y0062616D01*
X0122776Y0064122D01*
X0117776Y0069122D01*
X0116622Y0070276D01*
X0115116Y0070900D01*
X0111922Y0070900D01*
X0110715Y0071400D01*
X0102885Y0071400D01*
X0101194Y0070700D01*
X0101031Y0070536D02*
X0014100Y0070536D01*
X0014100Y0072134D02*
X0120006Y0072134D01*
X0121604Y0070536D02*
X0115994Y0070536D01*
X0117961Y0068937D02*
X0123203Y0068937D01*
X0124801Y0067339D02*
X0119559Y0067339D01*
X0121158Y0065740D02*
X0126400Y0065740D01*
X0126502Y0064142D02*
X0122756Y0064142D01*
X0123400Y0062543D02*
X0126503Y0062543D01*
X0126504Y0060945D02*
X0123400Y0060945D01*
X0123400Y0059346D02*
X0126505Y0059346D01*
X0126506Y0057748D02*
X0123400Y0057748D01*
X0123400Y0056149D02*
X0125885Y0056149D01*
X0125151Y0054551D02*
X0123400Y0054551D01*
X0123400Y0052952D02*
X0125151Y0052952D01*
X0125151Y0051354D02*
X0123400Y0051354D01*
X0122891Y0049755D02*
X0125151Y0049755D01*
X0125178Y0048157D02*
X0121455Y0048157D01*
X0119857Y0046558D02*
X0207700Y0046558D01*
X0207700Y0048157D02*
X0182278Y0048157D01*
X0182277Y0048152D02*
X0182399Y0048610D01*
X0182399Y0051320D01*
X0178520Y0051320D01*
X0178520Y0047047D01*
X0180836Y0047047D01*
X0181294Y0047170D01*
X0181704Y0047407D01*
X0182040Y0047742D01*
X0182277Y0048152D01*
X0182399Y0049755D02*
X0207700Y0049755D01*
X0207700Y0051354D02*
X0178520Y0051354D01*
X0178520Y0051320D02*
X0178520Y0052280D01*
X0177561Y0052280D01*
X0177561Y0056553D01*
X0175244Y0056553D01*
X0174786Y0056430D01*
X0174376Y0056193D01*
X0174159Y0055976D01*
X0173782Y0056353D01*
X0167338Y0056353D01*
X0166885Y0055900D01*
X0165900Y0055900D01*
X0165900Y0070102D01*
X0168046Y0072247D01*
X0173782Y0072247D01*
X0174300Y0072766D01*
X0174818Y0072247D01*
X0181262Y0072247D01*
X0182199Y0073184D01*
X0182199Y0074000D01*
X0186890Y0074000D01*
X0190719Y0070171D01*
X0190719Y0067906D01*
X0191525Y0067100D01*
X0182199Y0067100D01*
X0182199Y0067915D01*
X0181262Y0068853D01*
X0174818Y0068853D01*
X0174441Y0068476D01*
X0174224Y0068693D01*
X0173814Y0068930D01*
X0173356Y0069053D01*
X0171039Y0069053D01*
X0171039Y0064780D01*
X0170080Y0064780D01*
X0170080Y0069053D01*
X0167764Y0069053D01*
X0167306Y0068930D01*
X0166896Y0068693D01*
X0166560Y0068358D01*
X0166323Y0067948D01*
X0166201Y0067490D01*
X0166201Y0064780D01*
X0170080Y0064780D01*
X0170080Y0063820D01*
X0171039Y0063820D01*
X0171039Y0059547D01*
X0173356Y0059547D01*
X0173814Y0059670D01*
X0174224Y0059907D01*
X0174441Y0060124D01*
X0174818Y0059747D01*
X0181262Y0059747D01*
X0182199Y0060684D01*
X0182199Y0061500D01*
X0190719Y0061500D01*
X0190719Y0060406D01*
X0191656Y0059469D01*
X0196944Y0059469D01*
X0197881Y0060406D01*
X0197881Y0065694D01*
X0196944Y0066631D01*
X0194679Y0066631D01*
X0194636Y0066674D01*
X0193923Y0066969D01*
X0196944Y0066969D01*
X0197881Y0067906D01*
X0197881Y0073194D01*
X0196944Y0074131D01*
X0194679Y0074131D01*
X0189636Y0079174D01*
X0188607Y0079600D01*
X0182199Y0079600D01*
X0182199Y0080415D01*
X0181262Y0081353D01*
X0174818Y0081353D01*
X0174654Y0081188D01*
X0174640Y0090537D01*
X0174640Y0093842D01*
X0176624Y0095826D01*
X0176626Y0095826D01*
X0177202Y0096404D01*
X0177776Y0096978D01*
X0177777Y0096979D01*
X0177778Y0096981D01*
X0178089Y0097735D01*
X0178400Y0098484D01*
X0178400Y0098487D01*
X0178401Y0098488D01*
X0178400Y0099301D01*
X0178400Y0100116D01*
X0178399Y0100117D01*
X0178394Y0105629D01*
X0178449Y0105684D01*
X0178449Y0112915D01*
X0178390Y0112975D01*
X0178390Y0118125D01*
X0178449Y0118184D01*
X0178449Y0125415D01*
X0178390Y0125475D01*
X0178390Y0130961D01*
X0178400Y0130984D01*
X0178400Y0132616D01*
X0177881Y0133868D01*
X0177881Y0134444D01*
X0176944Y0135381D01*
X0176368Y0135381D01*
X0175116Y0135900D01*
X0173484Y0135900D01*
X0172232Y0135381D01*
X0171656Y0135381D01*
X0170719Y0134444D01*
X0170719Y0133882D01*
X0170190Y0132606D01*
X0170190Y0126194D01*
X0170032Y0126353D01*
X0169610Y0126353D01*
X0169610Y0138950D01*
X0173960Y0143300D01*
X0175240Y0143300D01*
X0179000Y0139540D01*
X0179000Y0093975D01*
X0178219Y0093194D01*
X0178219Y0087906D01*
X0179156Y0086969D01*
X0184444Y0086969D01*
X0185381Y0087906D01*
X0185381Y0093194D01*
X0184600Y0093975D01*
X0184600Y0105719D01*
X0189444Y0105719D01*
X0190381Y0106656D01*
X0190381Y0111944D01*
X0189600Y0112725D01*
X0189600Y0158140D01*
X0190460Y0159000D01*
X0191345Y0159000D01*
X0192444Y0157900D01*
X0194135Y0157200D01*
X0201965Y0157200D01*
X0203656Y0157900D01*
X0204950Y0159194D01*
X0205650Y0160885D01*
X0205650Y0162715D01*
X0204950Y0164406D01*
X0203656Y0165700D01*
X0201965Y0166400D01*
X0194135Y0166400D01*
X0192444Y0165700D01*
X0191345Y0164600D01*
X0188743Y0164600D01*
X0187714Y0164174D01*
X0186926Y0163386D01*
X0184426Y0160886D01*
X0184000Y0159857D01*
X0184000Y0142460D01*
X0181333Y0145127D01*
X0181500Y0145294D01*
X0182200Y0146985D01*
X0182200Y0148815D01*
X0181500Y0150506D01*
X0180206Y0151800D01*
X0178515Y0152500D01*
X0170685Y0152500D01*
X0168994Y0151800D01*
X0167895Y0150700D01*
X0155705Y0150700D01*
X0154606Y0151800D01*
X0152915Y0152500D01*
X0145085Y0152500D01*
X0143394Y0151800D01*
X0142100Y0150506D01*
X0141400Y0148815D01*
X0141400Y0146985D01*
X0142100Y0145294D01*
X0143394Y0144000D01*
X0145085Y0143300D01*
X0152915Y0143300D01*
X0154606Y0144000D01*
X0155705Y0145100D01*
X0167840Y0145100D01*
X0164436Y0141696D01*
X0164010Y0140667D01*
X0164010Y0126353D01*
X0163588Y0126353D01*
X0162651Y0125415D01*
X0162651Y0118184D01*
X0163588Y0117247D01*
X0170032Y0117247D01*
X0170190Y0117406D01*
X0170190Y0113694D01*
X0170032Y0113853D01*
X0163588Y0113853D01*
X0162651Y0112915D01*
X0162651Y0112174D01*
X0161944Y0112881D01*
X0156656Y0112881D01*
X0155719Y0111944D01*
X0155719Y0106656D01*
X0156656Y0105719D01*
X0161944Y0105719D01*
X0162651Y0106426D01*
X0162651Y0105684D01*
X0163588Y0104747D01*
X0170032Y0104747D01*
X0170194Y0104910D01*
X0170198Y0100997D01*
X0168218Y0099016D01*
X0167064Y0097863D01*
X0166440Y0096356D01*
X0166440Y0091343D01*
X0166439Y0091340D01*
X0166440Y0090525D01*
X0166440Y0089715D01*
X0166441Y0089712D01*
X0166454Y0080900D01*
X0165984Y0080900D01*
X0164478Y0080276D01*
X0159631Y0075429D01*
X0159626Y0075434D01*
X0158597Y0075860D01*
X0156353Y0075860D01*
X0156353Y0076282D01*
X0155834Y0076800D01*
X0156353Y0077318D01*
X0156353Y0083762D01*
X0155415Y0084699D01*
X0154600Y0084699D01*
X0154600Y0090837D01*
X0155400Y0091637D01*
X0155400Y0096963D01*
X0154600Y0097763D01*
X0154600Y0116401D01*
X0155415Y0116401D01*
X0156353Y0117338D01*
X0156353Y0123782D01*
X0155976Y0124159D01*
X0156193Y0124376D01*
X0156430Y0124786D01*
X0156553Y0125244D01*
X0156553Y0127561D01*
X0152280Y0127561D01*
X0152280Y0128520D01*
X0156553Y0128520D01*
X0156553Y0130836D01*
X0156430Y0131294D01*
X0156193Y0131704D01*
X0155858Y0132040D01*
X0155448Y0132277D01*
X0154990Y0132399D01*
X0152280Y0132399D01*
X0152280Y0128520D01*
X0151320Y0128520D01*
X0151320Y0127561D01*
X0147047Y0127561D01*
X0147047Y0125244D01*
X0147170Y0124786D01*
X0147407Y0124376D01*
X0147624Y0124159D01*
X0147247Y0123782D01*
X0147247Y0117338D01*
X0148184Y0116401D01*
X0149000Y0116401D01*
X0149000Y0097763D01*
X0148200Y0096963D01*
X0148200Y0091637D01*
X0149000Y0090837D01*
X0149000Y0084699D01*
X0148184Y0084699D01*
X0147247Y0083762D01*
X0147247Y0077318D01*
X0147766Y0076800D01*
X0147247Y0076282D01*
X0147247Y0069838D01*
X0148184Y0068901D01*
X0155415Y0068901D01*
X0156353Y0069838D01*
X0156353Y0070260D01*
X0156880Y0070260D01*
X0157700Y0069440D01*
X0157700Y0050984D01*
X0158219Y0049732D01*
X0158219Y0049156D01*
X0159156Y0048219D01*
X0159732Y0048219D01*
X0160984Y0047700D01*
X0166885Y0047700D01*
X0167338Y0047247D01*
X0173782Y0047247D01*
X0174159Y0047624D01*
X0174376Y0047407D01*
X0174786Y0047170D01*
X0175244Y0047047D01*
X0177561Y0047047D01*
X0177561Y0051320D01*
X0178520Y0051320D01*
X0178520Y0052280D02*
X0182399Y0052280D01*
X0182399Y0054990D01*
X0182277Y0055448D01*
X0182040Y0055858D01*
X0181704Y0056193D01*
X0181294Y0056430D01*
X0180836Y0056553D01*
X0178520Y0056553D01*
X0178520Y0052280D01*
X0178520Y0052952D02*
X0177561Y0052952D01*
X0177561Y0054551D02*
X0178520Y0054551D01*
X0178520Y0056149D02*
X0177561Y0056149D01*
X0181748Y0056149D02*
X0207700Y0056149D01*
X0207700Y0054551D02*
X0182399Y0054551D01*
X0182399Y0052952D02*
X0207700Y0052952D01*
X0207755Y0057748D02*
X0165900Y0057748D01*
X0165900Y0059346D02*
X0208548Y0059346D01*
X0210147Y0060945D02*
X0197881Y0060945D01*
X0197881Y0062543D02*
X0211745Y0062543D01*
X0213344Y0064142D02*
X0197881Y0064142D01*
X0197834Y0065740D02*
X0214942Y0065740D01*
X0216541Y0067339D02*
X0197314Y0067339D01*
X0197881Y0068937D02*
X0218139Y0068937D01*
X0220106Y0070536D02*
X0197881Y0070536D01*
X0197881Y0072134D02*
X0225126Y0072134D01*
X0225176Y0072118D02*
X0225922Y0072000D01*
X0229100Y0072000D01*
X0229100Y0076600D01*
X0229500Y0076600D01*
X0229500Y0077000D01*
X0229100Y0077000D01*
X0229100Y0081600D01*
X0225922Y0081600D01*
X0225176Y0081482D01*
X0224457Y0081248D01*
X0223784Y0080905D01*
X0223173Y0080461D01*
X0222639Y0079927D01*
X0222195Y0079316D01*
X0221852Y0078643D01*
X0221618Y0077924D01*
X0221500Y0077178D01*
X0221500Y0077000D01*
X0229100Y0077000D01*
X0229100Y0076600D01*
X0221500Y0076600D01*
X0221500Y0076422D01*
X0221618Y0075676D01*
X0221852Y0074957D01*
X0222195Y0074284D01*
X0222639Y0073673D01*
X0223173Y0073139D01*
X0223784Y0072695D01*
X0224457Y0072352D01*
X0225176Y0072118D01*
X0222595Y0073733D02*
X0197342Y0073733D01*
X0193478Y0075332D02*
X0221730Y0075332D01*
X0221815Y0078529D02*
X0190281Y0078529D01*
X0191880Y0076930D02*
X0229100Y0076930D01*
X0229500Y0076930D02*
X0238201Y0076930D01*
X0237100Y0077000D02*
X0237100Y0077178D01*
X0236982Y0077924D01*
X0236748Y0078643D01*
X0236405Y0079316D01*
X0235961Y0079927D01*
X0235427Y0080461D01*
X0234816Y0080905D01*
X0234143Y0081248D01*
X0233424Y0081482D01*
X0232678Y0081600D01*
X0229500Y0081600D01*
X0229500Y0077000D01*
X0237100Y0077000D01*
X0237100Y0076600D02*
X0229500Y0076600D01*
X0229500Y0072000D01*
X0232678Y0072000D01*
X0233424Y0072118D01*
X0234143Y0072352D01*
X0234816Y0072695D01*
X0235427Y0073139D01*
X0235961Y0073673D01*
X0236405Y0074284D01*
X0236748Y0074957D01*
X0236982Y0075676D01*
X0237100Y0076422D01*
X0237100Y0076600D01*
X0236870Y0075332D02*
X0238201Y0075332D01*
X0238201Y0073733D02*
X0236005Y0073733D01*
X0238201Y0072134D02*
X0233474Y0072134D01*
X0235069Y0070536D02*
X0238201Y0070536D01*
X0238201Y0068937D02*
X0236394Y0068937D01*
X0236900Y0067339D02*
X0238201Y0067339D01*
X0238201Y0065740D02*
X0236840Y0065740D01*
X0236147Y0064142D02*
X0238201Y0064142D01*
X0238201Y0062543D02*
X0234044Y0062543D01*
X0233215Y0061400D02*
X0225385Y0061400D01*
X0223694Y0060700D01*
X0222400Y0059406D01*
X0221700Y0057715D01*
X0221700Y0055885D01*
X0222400Y0054194D01*
X0223694Y0052900D01*
X0225385Y0052200D01*
X0226490Y0052200D01*
X0226490Y0051790D01*
X0226489Y0051239D01*
X0226490Y0051236D01*
X0226490Y0050103D01*
X0226068Y0050103D01*
X0225691Y0049726D01*
X0225474Y0049943D01*
X0225064Y0050180D01*
X0224606Y0050303D01*
X0222289Y0050303D01*
X0222289Y0046030D01*
X0221330Y0046030D01*
X0221330Y0050303D01*
X0219014Y0050303D01*
X0218556Y0050180D01*
X0218146Y0049943D01*
X0217810Y0049608D01*
X0217573Y0049198D01*
X0217451Y0048740D01*
X0217451Y0046030D01*
X0221330Y0046030D01*
X0221330Y0045070D01*
X0222289Y0045070D01*
X0222289Y0040797D01*
X0224606Y0040797D01*
X0225064Y0040920D01*
X0225474Y0041157D01*
X0225691Y0041374D01*
X0226068Y0040997D01*
X0232512Y0040997D01*
X0233449Y0041934D01*
X0233449Y0049165D01*
X0232512Y0050103D01*
X0232090Y0050103D01*
X0232090Y0051785D01*
X0232091Y0052200D01*
X0233215Y0052200D01*
X0234906Y0052900D01*
X0236200Y0054194D01*
X0236900Y0055885D01*
X0236900Y0057715D01*
X0236200Y0059406D01*
X0234906Y0060700D01*
X0233215Y0061400D01*
X0234314Y0060945D02*
X0238201Y0060945D01*
X0238201Y0059346D02*
X0236224Y0059346D01*
X0236886Y0057748D02*
X0238201Y0057748D01*
X0238201Y0056149D02*
X0236900Y0056149D01*
X0236347Y0054551D02*
X0238201Y0054551D01*
X0238201Y0052952D02*
X0234958Y0052952D01*
X0232090Y0051354D02*
X0238201Y0051354D01*
X0238201Y0049755D02*
X0232859Y0049755D01*
X0233449Y0048157D02*
X0238201Y0048157D01*
X0238201Y0046558D02*
X0233449Y0046558D01*
X0233449Y0044960D02*
X0238201Y0044960D01*
X0238201Y0043361D02*
X0233449Y0043361D01*
X0233277Y0041763D02*
X0238201Y0041763D01*
X0238201Y0040164D02*
X0213463Y0040164D01*
X0215061Y0041763D02*
X0217654Y0041763D01*
X0217573Y0041902D02*
X0217810Y0041492D01*
X0218146Y0041157D01*
X0218556Y0040920D01*
X0219014Y0040797D01*
X0221330Y0040797D01*
X0221330Y0045070D01*
X0217451Y0045070D01*
X0217451Y0042360D01*
X0217573Y0041902D01*
X0217451Y0043361D02*
X0215849Y0043361D01*
X0215900Y0044960D02*
X0217451Y0044960D01*
X0217451Y0046558D02*
X0215900Y0046558D01*
X0215900Y0048157D02*
X0217451Y0048157D01*
X0217958Y0049755D02*
X0215900Y0049755D01*
X0215900Y0051354D02*
X0226489Y0051354D01*
X0225721Y0049755D02*
X0225662Y0049755D01*
X0222289Y0049755D02*
X0221330Y0049755D01*
X0221330Y0048157D02*
X0222289Y0048157D01*
X0222289Y0046558D02*
X0221330Y0046558D01*
X0221330Y0044960D02*
X0222289Y0044960D01*
X0222289Y0043361D02*
X0221330Y0043361D01*
X0221330Y0041763D02*
X0222289Y0041763D01*
X0217475Y0036967D02*
X0210266Y0036967D01*
X0211864Y0038566D02*
X0238201Y0038566D01*
X0238201Y0036967D02*
X0231254Y0036967D01*
X0234023Y0035369D02*
X0238201Y0035369D01*
X0238201Y0033770D02*
X0235855Y0033770D01*
X0237338Y0032172D02*
X0238201Y0032172D01*
X0215900Y0036349D02*
X0215900Y0036349D01*
X0214671Y0035369D02*
X0208023Y0035369D01*
X0211265Y0032172D02*
X0180900Y0032172D01*
X0180900Y0030573D02*
X0210175Y0030573D01*
X0209164Y0029089D02*
X0209164Y0029089D01*
X0209128Y0028975D02*
X0180900Y0028975D01*
X0180900Y0027376D02*
X0194395Y0027376D01*
X0192505Y0025778D02*
X0181095Y0025778D01*
X0181786Y0024179D02*
X0191814Y0024179D01*
X0191675Y0022581D02*
X0181925Y0022581D01*
X0181925Y0020982D02*
X0191675Y0020982D01*
X0191675Y0019384D02*
X0181925Y0019384D01*
X0181925Y0017785D02*
X0191675Y0017785D01*
X0191675Y0016187D02*
X0181925Y0016187D01*
X0181856Y0014588D02*
X0191744Y0014588D01*
X0192406Y0012990D02*
X0181193Y0012990D01*
X0179609Y0011391D02*
X0192700Y0011391D01*
X0200900Y0011391D02*
X0211291Y0011391D01*
X0211985Y0010373D02*
X0211985Y0010373D01*
X0211985Y0010373D01*
X0212713Y0009793D02*
X0200900Y0009793D01*
X0200780Y0008194D02*
X0214717Y0008194D01*
X0215900Y0007251D02*
X0215900Y0007251D01*
X0210201Y0012990D02*
X0201193Y0012990D01*
X0201856Y0014588D02*
X0209140Y0014588D01*
X0208647Y0016187D02*
X0201925Y0016187D01*
X0201925Y0017785D02*
X0208154Y0017785D01*
X0207688Y0019384D02*
X0201925Y0019384D01*
X0201925Y0020982D02*
X0207688Y0020982D01*
X0207688Y0022581D02*
X0201925Y0022581D01*
X0201786Y0024179D02*
X0207688Y0024179D01*
X0208142Y0025778D02*
X0201095Y0025778D01*
X0199205Y0027376D02*
X0208635Y0027376D01*
X0212666Y0033770D02*
X0182068Y0033770D01*
X0175267Y0038566D02*
X0111864Y0038566D01*
X0113463Y0040164D02*
X0176866Y0040164D01*
X0178465Y0041763D02*
X0115061Y0041763D01*
X0116660Y0043361D02*
X0180891Y0043361D01*
X0178520Y0048157D02*
X0177561Y0048157D01*
X0177561Y0049755D02*
X0178520Y0049755D01*
X0174332Y0056149D02*
X0173985Y0056149D01*
X0170080Y0059547D02*
X0167764Y0059547D01*
X0167306Y0059670D01*
X0166896Y0059907D01*
X0166560Y0060242D01*
X0166323Y0060652D01*
X0166201Y0061110D01*
X0166201Y0063820D01*
X0170080Y0063820D01*
X0170080Y0059547D01*
X0170080Y0060945D02*
X0171039Y0060945D01*
X0171039Y0062543D02*
X0170080Y0062543D01*
X0170080Y0064142D02*
X0165900Y0064142D01*
X0165900Y0065740D02*
X0166201Y0065740D01*
X0166201Y0067339D02*
X0165900Y0067339D01*
X0165900Y0068937D02*
X0167334Y0068937D01*
X0166334Y0070536D02*
X0190354Y0070536D01*
X0190719Y0068937D02*
X0173786Y0068937D01*
X0171039Y0068937D02*
X0170080Y0068937D01*
X0170080Y0067339D02*
X0171039Y0067339D01*
X0171039Y0065740D02*
X0170080Y0065740D01*
X0166201Y0062543D02*
X0165900Y0062543D01*
X0165900Y0060945D02*
X0166245Y0060945D01*
X0165900Y0056149D02*
X0167135Y0056149D01*
X0157700Y0056149D02*
X0140498Y0056149D01*
X0140454Y0056193D02*
X0140044Y0056430D01*
X0139586Y0056553D01*
X0137270Y0056553D01*
X0137270Y0052280D01*
X0141149Y0052280D01*
X0141149Y0054990D01*
X0141027Y0055448D01*
X0140790Y0055858D01*
X0140454Y0056193D01*
X0141149Y0054551D02*
X0157700Y0054551D01*
X0157700Y0052952D02*
X0141149Y0052952D01*
X0141149Y0049755D02*
X0158209Y0049755D01*
X0157700Y0051354D02*
X0137270Y0051354D01*
X0137270Y0052952D02*
X0136311Y0052952D01*
X0136311Y0054551D02*
X0137270Y0054551D01*
X0137270Y0056149D02*
X0136311Y0056149D01*
X0133082Y0056149D02*
X0132735Y0056149D01*
X0132106Y0057748D02*
X0157700Y0057748D01*
X0157700Y0059346D02*
X0132105Y0059346D01*
X0132104Y0060945D02*
X0157700Y0060945D01*
X0157700Y0062543D02*
X0132103Y0062543D01*
X0132102Y0064142D02*
X0157700Y0064142D01*
X0157700Y0065740D02*
X0132101Y0065740D01*
X0132100Y0067339D02*
X0157700Y0067339D01*
X0157700Y0068937D02*
X0155452Y0068937D01*
X0148148Y0068937D02*
X0131122Y0068937D01*
X0129524Y0070536D02*
X0147247Y0070536D01*
X0147247Y0072134D02*
X0127925Y0072134D01*
X0126327Y0073733D02*
X0147247Y0073733D01*
X0147247Y0075332D02*
X0124728Y0075332D01*
X0123130Y0076930D02*
X0147636Y0076930D01*
X0147247Y0078529D02*
X0121532Y0078529D01*
X0118407Y0073733D02*
X0113238Y0073733D01*
X0112978Y0080127D02*
X0147247Y0080127D01*
X0147247Y0081726D02*
X0074165Y0081726D01*
X0074942Y0083324D02*
X0147247Y0083324D01*
X0149000Y0084923D02*
X0075000Y0084923D01*
X0074426Y0086521D02*
X0149000Y0086521D01*
X0149000Y0088120D02*
X0087809Y0088120D01*
X0089408Y0089718D02*
X0149000Y0089718D01*
X0148521Y0091317D02*
X0089750Y0091317D01*
X0089750Y0092915D02*
X0148200Y0092915D01*
X0148200Y0094514D02*
X0130381Y0094514D01*
X0130381Y0094156D02*
X0130381Y0099444D01*
X0129444Y0100381D01*
X0124156Y0100381D01*
X0123375Y0099600D01*
X0100460Y0099600D01*
X0097100Y0102960D01*
X0097100Y0121107D01*
X0096674Y0122136D01*
X0092924Y0125886D01*
X0092136Y0126674D01*
X0091107Y0127100D01*
X0077960Y0127100D01*
X0075895Y0129165D01*
X0076400Y0130385D01*
X0076400Y0138215D01*
X0075700Y0139906D01*
X0074406Y0141200D01*
X0072715Y0141900D01*
X0070885Y0141900D01*
X0069194Y0141200D01*
X0067900Y0139906D01*
X0067200Y0138215D01*
X0067200Y0130385D01*
X0067900Y0128694D01*
X0069194Y0127400D01*
X0070126Y0127015D01*
X0070214Y0126926D01*
X0075214Y0121926D01*
X0076243Y0121500D01*
X0089390Y0121500D01*
X0091500Y0119390D01*
X0091500Y0113309D01*
X0091482Y0113424D01*
X0091248Y0114143D01*
X0090905Y0114816D01*
X0090461Y0115427D01*
X0089927Y0115961D01*
X0089316Y0116405D01*
X0088643Y0116748D01*
X0087924Y0116982D01*
X0087178Y0117100D01*
X0087000Y0117100D01*
X0087000Y0109500D01*
X0086600Y0109500D01*
X0086600Y0117100D01*
X0086422Y0117100D01*
X0085676Y0116982D01*
X0084957Y0116748D01*
X0084284Y0116405D01*
X0083673Y0115961D01*
X0083139Y0115427D01*
X0082695Y0114816D01*
X0082352Y0114143D01*
X0082118Y0113424D01*
X0082000Y0112678D01*
X0082000Y0109500D01*
X0086600Y0109500D01*
X0086600Y0109100D01*
X0087000Y0109100D01*
X0087000Y0101500D01*
X0087178Y0101500D01*
X0087924Y0101618D01*
X0088643Y0101852D01*
X0089316Y0102195D01*
X0089927Y0102639D01*
X0090461Y0103173D01*
X0090905Y0103784D01*
X0091248Y0104457D01*
X0091482Y0105176D01*
X0091500Y0105291D01*
X0091500Y0101243D01*
X0091926Y0100214D01*
X0092714Y0099426D01*
X0097714Y0094426D01*
X0098743Y0094000D01*
X0123375Y0094000D01*
X0124156Y0093219D01*
X0129444Y0093219D01*
X0130381Y0094156D01*
X0130381Y0096112D02*
X0148200Y0096112D01*
X0148948Y0097711D02*
X0130381Y0097711D01*
X0130381Y0099309D02*
X0149000Y0099309D01*
X0149000Y0100908D02*
X0099152Y0100908D01*
X0097554Y0102506D02*
X0101654Y0102506D01*
X0101957Y0102352D02*
X0102676Y0102118D01*
X0103422Y0102000D01*
X0106600Y0102000D01*
X0106600Y0106600D01*
X0107000Y0106600D01*
X0107000Y0107000D01*
X0106600Y0107000D01*
X0106600Y0111600D01*
X0103422Y0111600D01*
X0102676Y0111482D01*
X0101957Y0111248D01*
X0101284Y0110905D01*
X0100673Y0110461D01*
X0100139Y0109927D01*
X0099695Y0109316D01*
X0099352Y0108643D01*
X0099118Y0107924D01*
X0099000Y0107178D01*
X0099000Y0107000D01*
X0106600Y0107000D01*
X0106600Y0106600D01*
X0099000Y0106600D01*
X0099000Y0106422D01*
X0099118Y0105676D01*
X0099352Y0104957D01*
X0099695Y0104284D01*
X0100139Y0103673D01*
X0100673Y0103139D01*
X0101284Y0102695D01*
X0101957Y0102352D01*
X0099825Y0104105D02*
X0097100Y0104105D01*
X0097100Y0105703D02*
X0099114Y0105703D01*
X0099020Y0107302D02*
X0097100Y0107302D01*
X0097100Y0108900D02*
X0099483Y0108900D01*
X0100725Y0110499D02*
X0097100Y0110499D01*
X0097100Y0112097D02*
X0149000Y0112097D01*
X0149000Y0110499D02*
X0112875Y0110499D01*
X0112927Y0110461D02*
X0112316Y0110905D01*
X0111643Y0111248D01*
X0110924Y0111482D01*
X0110178Y0111600D01*
X0107000Y0111600D01*
X0107000Y0107000D01*
X0114600Y0107000D01*
X0114600Y0107178D01*
X0114482Y0107924D01*
X0114248Y0108643D01*
X0113905Y0109316D01*
X0113461Y0109927D01*
X0112927Y0110461D01*
X0114117Y0108900D02*
X0149000Y0108900D01*
X0149000Y0107302D02*
X0114580Y0107302D01*
X0114600Y0106600D02*
X0107000Y0106600D01*
X0107000Y0102000D01*
X0110178Y0102000D01*
X0110924Y0102118D01*
X0111643Y0102352D01*
X0112316Y0102695D01*
X0112927Y0103139D01*
X0113461Y0103673D01*
X0113905Y0104284D01*
X0114248Y0104957D01*
X0114482Y0105676D01*
X0114600Y0106422D01*
X0114600Y0106600D01*
X0114486Y0105703D02*
X0149000Y0105703D01*
X0149000Y0104105D02*
X0113775Y0104105D01*
X0111946Y0102506D02*
X0149000Y0102506D01*
X0154600Y0102506D02*
X0170197Y0102506D01*
X0170195Y0104105D02*
X0154600Y0104105D01*
X0154600Y0105703D02*
X0162651Y0105703D01*
X0155719Y0107302D02*
X0154600Y0107302D01*
X0154600Y0108900D02*
X0155719Y0108900D01*
X0155719Y0110499D02*
X0154600Y0110499D01*
X0154600Y0112097D02*
X0155872Y0112097D01*
X0154600Y0113696D02*
X0163431Y0113696D01*
X0162651Y0118491D02*
X0156353Y0118491D01*
X0156353Y0120090D02*
X0162651Y0120090D01*
X0162651Y0121688D02*
X0156353Y0121688D01*
X0156353Y0123287D02*
X0162651Y0123287D01*
X0162651Y0124885D02*
X0156457Y0124885D01*
X0156553Y0126484D02*
X0164010Y0126484D01*
X0164010Y0128082D02*
X0152280Y0128082D01*
X0151320Y0128082D02*
X0114248Y0128082D01*
X0114400Y0127715D02*
X0113700Y0129406D01*
X0113533Y0129573D01*
X0114210Y0130250D01*
X0118901Y0130250D01*
X0118901Y0129434D01*
X0119838Y0128497D01*
X0126282Y0128497D01*
X0126659Y0128874D01*
X0126876Y0128657D01*
X0127286Y0128420D01*
X0127744Y0128297D01*
X0130061Y0128297D01*
X0130061Y0132570D01*
X0131020Y0132570D01*
X0131020Y0128297D01*
X0133336Y0128297D01*
X0133794Y0128420D01*
X0134204Y0128657D01*
X0134540Y0128992D01*
X0134777Y0129402D01*
X0134899Y0129860D01*
X0134899Y0132570D01*
X0131020Y0132570D01*
X0131020Y0133530D01*
X0130061Y0133530D01*
X0130061Y0137803D01*
X0127744Y0137803D01*
X0127286Y0137680D01*
X0126876Y0137443D01*
X0126659Y0137226D01*
X0126282Y0137603D01*
X0119838Y0137603D01*
X0118901Y0136665D01*
X0118901Y0135850D01*
X0112493Y0135850D01*
X0111464Y0135424D01*
X0107440Y0131400D01*
X0102885Y0131400D01*
X0101194Y0130700D01*
X0099900Y0129406D01*
X0099200Y0127715D01*
X0099200Y0125885D01*
X0099900Y0124194D01*
X0101194Y0122900D01*
X0102885Y0122200D01*
X0110715Y0122200D01*
X0112406Y0122900D01*
X0113700Y0124194D01*
X0114400Y0125885D01*
X0114400Y0127715D01*
X0114400Y0126484D02*
X0147047Y0126484D01*
X0147143Y0124885D02*
X0113986Y0124885D01*
X0112792Y0123287D02*
X0147247Y0123287D01*
X0147247Y0121688D02*
X0096859Y0121688D01*
X0097100Y0120090D02*
X0100584Y0120090D01*
X0101194Y0120700D02*
X0099900Y0119406D01*
X0099200Y0117715D01*
X0099200Y0115885D01*
X0099900Y0114194D01*
X0101194Y0112900D01*
X0102885Y0112200D01*
X0110715Y0112200D01*
X0112406Y0112900D01*
X0113700Y0114194D01*
X0114400Y0115885D01*
X0114400Y0117715D01*
X0113700Y0119406D01*
X0112406Y0120700D01*
X0110715Y0121400D01*
X0102885Y0121400D01*
X0101194Y0120700D01*
X0099522Y0118491D02*
X0097100Y0118491D01*
X0097100Y0116893D02*
X0099200Y0116893D01*
X0099445Y0115294D02*
X0097100Y0115294D01*
X0097100Y0113696D02*
X0100399Y0113696D01*
X0106600Y0110499D02*
X0107000Y0110499D01*
X0107000Y0108900D02*
X0106600Y0108900D01*
X0106600Y0107302D02*
X0107000Y0107302D01*
X0107000Y0105703D02*
X0106600Y0105703D01*
X0106600Y0104105D02*
X0107000Y0104105D01*
X0107000Y0102506D02*
X0106600Y0102506D01*
X0097627Y0094514D02*
X0088776Y0094514D01*
X0092831Y0099309D02*
X0014100Y0099309D01*
X0014100Y0097711D02*
X0094430Y0097711D01*
X0096028Y0096112D02*
X0014100Y0096112D01*
X0014100Y0094514D02*
X0082324Y0094514D01*
X0081350Y0092915D02*
X0014100Y0092915D01*
X0014100Y0091317D02*
X0081350Y0091317D01*
X0077715Y0101700D02*
X0075885Y0101700D01*
X0074194Y0102400D01*
X0072900Y0103694D01*
X0072200Y0105385D01*
X0072200Y0113215D01*
X0072900Y0114906D01*
X0074194Y0116200D01*
X0075885Y0116900D01*
X0077715Y0116900D01*
X0079406Y0116200D01*
X0080700Y0114906D01*
X0081400Y0113215D01*
X0081400Y0105385D01*
X0080700Y0103694D01*
X0079406Y0102400D01*
X0077715Y0101700D01*
X0079512Y0102506D02*
X0083855Y0102506D01*
X0083673Y0102639D02*
X0084284Y0102195D01*
X0084957Y0101852D01*
X0085676Y0101618D01*
X0086422Y0101500D01*
X0086600Y0101500D01*
X0086600Y0109100D01*
X0082000Y0109100D01*
X0082000Y0105922D01*
X0082118Y0105176D01*
X0082352Y0104457D01*
X0082695Y0103784D01*
X0083139Y0103173D01*
X0083673Y0102639D01*
X0082531Y0104105D02*
X0080870Y0104105D01*
X0081400Y0105703D02*
X0082035Y0105703D01*
X0082000Y0107302D02*
X0081400Y0107302D01*
X0081400Y0108900D02*
X0082000Y0108900D01*
X0082000Y0110499D02*
X0081400Y0110499D01*
X0081400Y0112097D02*
X0082000Y0112097D01*
X0082207Y0113696D02*
X0081201Y0113696D01*
X0080311Y0115294D02*
X0083042Y0115294D01*
X0085402Y0116893D02*
X0077732Y0116893D01*
X0075868Y0116893D02*
X0067732Y0116893D01*
X0067715Y0116900D02*
X0065885Y0116900D01*
X0064194Y0116200D01*
X0064027Y0116033D01*
X0060949Y0119111D01*
X0060949Y0121665D01*
X0060012Y0122603D01*
X0053568Y0122603D01*
X0053191Y0122226D01*
X0052974Y0122443D01*
X0052564Y0122680D01*
X0052106Y0122803D01*
X0049789Y0122803D01*
X0049789Y0118530D01*
X0048830Y0118530D01*
X0048830Y0122803D01*
X0046514Y0122803D01*
X0046056Y0122680D01*
X0045646Y0122443D01*
X0045310Y0122108D01*
X0045073Y0121698D01*
X0044951Y0121240D01*
X0044951Y0118530D01*
X0048830Y0118530D01*
X0048830Y0117570D01*
X0049789Y0117570D01*
X0049789Y0113297D01*
X0052106Y0113297D01*
X0052564Y0113420D01*
X0052974Y0113657D01*
X0053191Y0113874D01*
X0053568Y0113497D01*
X0058643Y0113497D01*
X0062200Y0109940D01*
X0062200Y0105385D01*
X0062900Y0103694D01*
X0064194Y0102400D01*
X0065885Y0101700D01*
X0067715Y0101700D01*
X0069406Y0102400D01*
X0070700Y0103694D01*
X0071400Y0105385D01*
X0071400Y0113215D01*
X0070700Y0114906D01*
X0069406Y0116200D01*
X0067715Y0116900D01*
X0065868Y0116893D02*
X0063167Y0116893D01*
X0061568Y0118491D02*
X0091500Y0118491D01*
X0091500Y0116893D02*
X0088198Y0116893D01*
X0087000Y0116893D02*
X0086600Y0116893D01*
X0086600Y0115294D02*
X0087000Y0115294D01*
X0087000Y0113696D02*
X0086600Y0113696D01*
X0086600Y0112097D02*
X0087000Y0112097D01*
X0087000Y0110499D02*
X0086600Y0110499D01*
X0086600Y0108900D02*
X0087000Y0108900D01*
X0087000Y0107302D02*
X0086600Y0107302D01*
X0086600Y0105703D02*
X0087000Y0105703D01*
X0087000Y0104105D02*
X0086600Y0104105D01*
X0086600Y0102506D02*
X0087000Y0102506D01*
X0089745Y0102506D02*
X0091500Y0102506D01*
X0091500Y0104105D02*
X0091069Y0104105D01*
X0091639Y0100908D02*
X0014100Y0100908D01*
X0014100Y0102506D02*
X0064088Y0102506D01*
X0062730Y0104105D02*
X0014100Y0104105D01*
X0014100Y0105703D02*
X0019624Y0105703D01*
X0018930Y0106397D02*
X0020372Y0104955D01*
X0022256Y0104175D01*
X0031344Y0104175D01*
X0033228Y0104955D01*
X0034670Y0106397D01*
X0035450Y0108281D01*
X0035450Y0110319D01*
X0034670Y0112203D01*
X0033228Y0113645D01*
X0031344Y0114425D01*
X0022256Y0114425D01*
X0020372Y0113645D01*
X0018930Y0112203D01*
X0018150Y0110319D01*
X0018150Y0108281D01*
X0018930Y0106397D01*
X0018555Y0107302D02*
X0014100Y0107302D01*
X0014100Y0108900D02*
X0018150Y0108900D01*
X0018224Y0110499D02*
X0014100Y0110499D01*
X0014100Y0112097D02*
X0018886Y0112097D01*
X0020495Y0113696D02*
X0014100Y0113696D01*
X0014100Y0115294D02*
X0044951Y0115294D01*
X0044951Y0114860D02*
X0045073Y0114402D01*
X0045310Y0113992D01*
X0045646Y0113657D01*
X0046056Y0113420D01*
X0046514Y0113297D01*
X0048830Y0113297D01*
X0048830Y0117570D01*
X0044951Y0117570D01*
X0044951Y0114860D01*
X0045607Y0113696D02*
X0033105Y0113696D01*
X0034714Y0112097D02*
X0060043Y0112097D01*
X0061641Y0110499D02*
X0035376Y0110499D01*
X0035450Y0108900D02*
X0062200Y0108900D01*
X0062200Y0107302D02*
X0035045Y0107302D01*
X0033976Y0105703D02*
X0062200Y0105703D01*
X0069512Y0102506D02*
X0074088Y0102506D01*
X0072730Y0104105D02*
X0070870Y0104105D01*
X0071400Y0105703D02*
X0072200Y0105703D01*
X0072200Y0107302D02*
X0071400Y0107302D01*
X0071400Y0108900D02*
X0072200Y0108900D01*
X0072200Y0110499D02*
X0071400Y0110499D01*
X0071400Y0112097D02*
X0072200Y0112097D01*
X0072399Y0113696D02*
X0071201Y0113696D01*
X0070311Y0115294D02*
X0073289Y0115294D01*
X0075788Y0121688D02*
X0060926Y0121688D01*
X0060949Y0120090D02*
X0090800Y0120090D01*
X0090558Y0115294D02*
X0091500Y0115294D01*
X0091500Y0113696D02*
X0091393Y0113696D01*
X0095523Y0123287D02*
X0100808Y0123287D01*
X0099614Y0124885D02*
X0093924Y0124885D01*
X0092326Y0126484D02*
X0099200Y0126484D01*
X0099352Y0128082D02*
X0076977Y0128082D01*
X0076108Y0129681D02*
X0087267Y0129681D01*
X0087286Y0129670D02*
X0087744Y0129547D01*
X0090061Y0129547D01*
X0090061Y0133820D01*
X0091020Y0133820D01*
X0091020Y0129547D01*
X0093336Y0129547D01*
X0093794Y0129670D01*
X0094204Y0129907D01*
X0094540Y0130242D01*
X0094777Y0130652D01*
X0094899Y0131110D01*
X0094899Y0133820D01*
X0091020Y0133820D01*
X0091020Y0134780D01*
X0090061Y0134780D01*
X0090061Y0139053D01*
X0087744Y0139053D01*
X0087286Y0138930D01*
X0086876Y0138693D01*
X0086659Y0138476D01*
X0086282Y0138853D01*
X0085860Y0138853D01*
X0085860Y0142700D01*
X0086460Y0143300D01*
X0087740Y0143300D01*
X0091614Y0139426D01*
X0092516Y0139053D01*
X0091020Y0139053D01*
X0091020Y0134780D01*
X0094899Y0134780D01*
X0094899Y0137490D01*
X0094777Y0137948D01*
X0094540Y0138358D01*
X0094204Y0138693D01*
X0093794Y0138930D01*
X0093533Y0139000D01*
X0135875Y0139000D01*
X0136656Y0138219D01*
X0141944Y0138219D01*
X0142881Y0139156D01*
X0142881Y0144444D01*
X0141944Y0145381D01*
X0136656Y0145381D01*
X0135875Y0144600D01*
X0094360Y0144600D01*
X0093833Y0145127D01*
X0094000Y0145294D01*
X0094700Y0146985D01*
X0094700Y0148815D01*
X0094000Y0150506D01*
X0092706Y0151800D01*
X0091015Y0152500D01*
X0083185Y0152500D01*
X0081494Y0151800D01*
X0080395Y0150700D01*
X0068205Y0150700D01*
X0067106Y0151800D01*
X0065415Y0152500D01*
X0057585Y0152500D01*
X0055894Y0151800D01*
X0054600Y0150506D01*
X0053900Y0148815D01*
X0053900Y0146985D01*
X0054600Y0145294D01*
X0055894Y0144000D01*
X0057585Y0143300D01*
X0059000Y0143300D01*
X0059000Y0141005D01*
X0057900Y0139906D01*
X0057200Y0138215D01*
X0057200Y0130385D01*
X0057900Y0128694D01*
X0059194Y0127400D01*
X0060885Y0126700D01*
X0062715Y0126700D01*
X0064406Y0127400D01*
X0065700Y0128694D01*
X0066400Y0130385D01*
X0066400Y0138215D01*
X0065700Y0139906D01*
X0064600Y0141005D01*
X0064600Y0143300D01*
X0065415Y0143300D01*
X0067106Y0144000D01*
X0068205Y0145100D01*
X0080395Y0145100D01*
X0080499Y0144995D01*
X0080260Y0144417D01*
X0080260Y0138853D01*
X0079838Y0138853D01*
X0078901Y0137915D01*
X0078901Y0130684D01*
X0079838Y0129747D01*
X0086282Y0129747D01*
X0086659Y0130124D01*
X0086876Y0129907D01*
X0087286Y0129670D01*
X0090061Y0129681D02*
X0091020Y0129681D01*
X0091020Y0131279D02*
X0090061Y0131279D01*
X0090061Y0132878D02*
X0091020Y0132878D01*
X0091020Y0134476D02*
X0110517Y0134476D01*
X0108918Y0132878D02*
X0094899Y0132878D01*
X0094899Y0131279D02*
X0102594Y0131279D01*
X0100176Y0129681D02*
X0093813Y0129681D01*
X0094899Y0136075D02*
X0118901Y0136075D01*
X0127275Y0137673D02*
X0094850Y0137673D01*
X0091986Y0139272D02*
X0085860Y0139272D01*
X0085860Y0140870D02*
X0090170Y0140870D01*
X0088571Y0142469D02*
X0085860Y0142469D01*
X0080260Y0142469D02*
X0064600Y0142469D01*
X0064735Y0140870D02*
X0068865Y0140870D01*
X0067638Y0139272D02*
X0065962Y0139272D01*
X0066400Y0137673D02*
X0067200Y0137673D01*
X0067200Y0136075D02*
X0066400Y0136075D01*
X0066400Y0134476D02*
X0067200Y0134476D01*
X0067200Y0132878D02*
X0066400Y0132878D01*
X0066400Y0131279D02*
X0067200Y0131279D01*
X0067492Y0129681D02*
X0066108Y0129681D01*
X0065088Y0128082D02*
X0068512Y0128082D01*
X0070656Y0126484D02*
X0034861Y0126484D01*
X0034879Y0126509D02*
X0035260Y0127256D01*
X0035519Y0128053D01*
X0035650Y0128881D01*
X0035650Y0128925D01*
X0027175Y0128925D01*
X0027175Y0129675D01*
X0026425Y0129675D01*
X0026425Y0134625D01*
X0022856Y0134625D01*
X0022028Y0134494D01*
X0021231Y0134235D01*
X0020484Y0133854D01*
X0019806Y0133362D01*
X0019213Y0132769D01*
X0018721Y0132091D01*
X0018340Y0131344D01*
X0018081Y0130547D01*
X0017950Y0129719D01*
X0017950Y0129675D01*
X0026425Y0129675D01*
X0026425Y0128925D01*
X0027175Y0128925D01*
X0027175Y0123975D01*
X0030744Y0123975D01*
X0031572Y0124106D01*
X0032369Y0124365D01*
X0033116Y0124746D01*
X0033794Y0125238D01*
X0034387Y0125831D01*
X0034879Y0126509D01*
X0035524Y0128082D02*
X0058512Y0128082D01*
X0057492Y0129681D02*
X0035650Y0129681D01*
X0035650Y0129675D02*
X0035650Y0129719D01*
X0035519Y0130547D01*
X0035260Y0131344D01*
X0034879Y0132091D01*
X0034387Y0132769D01*
X0033794Y0133362D01*
X0033116Y0133854D01*
X0032369Y0134235D01*
X0031572Y0134494D01*
X0030744Y0134625D01*
X0027175Y0134625D01*
X0027175Y0129675D01*
X0035650Y0129675D01*
X0035281Y0131279D02*
X0057200Y0131279D01*
X0057200Y0132878D02*
X0034278Y0132878D01*
X0031626Y0134476D02*
X0057200Y0134476D01*
X0057200Y0136075D02*
X0014100Y0136075D01*
X0014100Y0137673D02*
X0057200Y0137673D01*
X0057638Y0139272D02*
X0014100Y0139272D01*
X0014100Y0140870D02*
X0058865Y0140870D01*
X0059000Y0142469D02*
X0014100Y0142469D01*
X0014100Y0144068D02*
X0026945Y0144068D01*
X0025562Y0144171D02*
X0025562Y0144171D01*
X0021753Y0145666D02*
X0014100Y0145666D01*
X0014100Y0147265D02*
X0019315Y0147265D01*
X0020900Y0146001D02*
X0020900Y0146001D01*
X0017311Y0148863D02*
X0014100Y0148863D01*
X0014100Y0150462D02*
X0016072Y0150462D01*
X0016985Y0149123D02*
X0016985Y0149123D01*
X0016985Y0149123D01*
X0014982Y0152060D02*
X0014100Y0152060D01*
X0031741Y0144068D02*
X0055827Y0144068D01*
X0054446Y0145666D02*
X0036745Y0145666D01*
X0035438Y0144911D02*
X0035438Y0144911D01*
X0039514Y0147265D02*
X0053900Y0147265D01*
X0053920Y0148863D02*
X0041118Y0148863D01*
X0039775Y0147415D02*
X0039775Y0147415D01*
X0042601Y0150462D02*
X0054582Y0150462D01*
X0056523Y0152060D02*
X0043650Y0152060D01*
X0043181Y0151086D02*
X0043181Y0151086D01*
X0044420Y0153659D02*
X0107200Y0153659D01*
X0107200Y0153705D02*
X0107200Y0149895D01*
X0109895Y0147200D01*
X0113705Y0147200D01*
X0116400Y0149895D01*
X0116400Y0153705D01*
X0113705Y0156400D01*
X0109895Y0156400D01*
X0107200Y0153705D01*
X0107200Y0152060D02*
X0092077Y0152060D01*
X0094018Y0150462D02*
X0107200Y0150462D01*
X0108232Y0148863D02*
X0094680Y0148863D01*
X0094700Y0147265D02*
X0109830Y0147265D01*
X0113770Y0147265D02*
X0119830Y0147265D01*
X0119895Y0147200D02*
X0123705Y0147200D01*
X0126400Y0149895D01*
X0126400Y0153705D01*
X0123705Y0156400D01*
X0119895Y0156400D01*
X0117200Y0153705D01*
X0117200Y0149895D01*
X0119895Y0147200D01*
X0118232Y0148863D02*
X0115368Y0148863D01*
X0116400Y0150462D02*
X0117200Y0150462D01*
X0117200Y0152060D02*
X0116400Y0152060D01*
X0116400Y0153659D02*
X0117200Y0153659D01*
X0118752Y0155257D02*
X0114848Y0155257D01*
X0113705Y0157200D02*
X0116400Y0159895D01*
X0116400Y0163705D01*
X0113705Y0166400D01*
X0109895Y0166400D01*
X0107200Y0163705D01*
X0107200Y0159895D01*
X0109895Y0157200D01*
X0113705Y0157200D01*
X0114959Y0158454D02*
X0118641Y0158454D01*
X0119895Y0157200D02*
X0123705Y0157200D01*
X0126400Y0159895D01*
X0126400Y0163705D01*
X0123705Y0166400D01*
X0119895Y0166400D01*
X0117200Y0163705D01*
X0117200Y0159895D01*
X0119895Y0157200D01*
X0117200Y0160053D02*
X0116400Y0160053D01*
X0116400Y0161651D02*
X0117200Y0161651D01*
X0117200Y0163250D02*
X0116400Y0163250D01*
X0115257Y0164848D02*
X0118343Y0164848D01*
X0119812Y0167000D02*
X0121600Y0167000D01*
X0121600Y0171600D01*
X0122000Y0171600D01*
X0122000Y0172000D01*
X0126600Y0172000D01*
X0126600Y0173788D01*
X0123788Y0176600D01*
X0122000Y0176600D01*
X0122000Y0172000D01*
X0121600Y0172000D01*
X0121600Y0176600D01*
X0119812Y0176600D01*
X0117000Y0173788D01*
X0117000Y0172000D01*
X0121600Y0172000D01*
X0121600Y0171600D01*
X0117000Y0171600D01*
X0117000Y0169812D01*
X0119812Y0167000D01*
X0118767Y0168045D02*
X0114833Y0168045D01*
X0113788Y0167000D02*
X0112000Y0167000D01*
X0112000Y0171600D01*
X0112000Y0172000D01*
X0116600Y0172000D01*
X0116600Y0173788D01*
X0113788Y0176600D01*
X0112000Y0176600D01*
X0112000Y0172000D01*
X0111600Y0172000D01*
X0111600Y0176600D01*
X0109812Y0176600D01*
X0107000Y0173788D01*
X0107000Y0172000D01*
X0111600Y0172000D01*
X0111600Y0171600D01*
X0112000Y0171600D01*
X0116600Y0171600D01*
X0116600Y0169812D01*
X0113788Y0167000D01*
X0112000Y0168045D02*
X0111600Y0168045D01*
X0111600Y0167000D02*
X0109812Y0167000D01*
X0107000Y0169812D01*
X0107000Y0171600D01*
X0111600Y0171600D01*
X0111600Y0167000D01*
X0111600Y0169644D02*
X0112000Y0169644D01*
X0112000Y0171242D02*
X0111600Y0171242D01*
X0111600Y0172841D02*
X0112000Y0172841D01*
X0112000Y0174439D02*
X0111600Y0174439D01*
X0111600Y0176038D02*
X0112000Y0176038D01*
X0114350Y0176038D02*
X0119250Y0176038D01*
X0117651Y0174439D02*
X0115949Y0174439D01*
X0116600Y0172841D02*
X0117000Y0172841D01*
X0117000Y0171242D02*
X0116600Y0171242D01*
X0116432Y0169644D02*
X0117168Y0169644D01*
X0121600Y0169644D02*
X0122000Y0169644D01*
X0122000Y0171242D02*
X0121600Y0171242D01*
X0122000Y0171600D02*
X0122000Y0167000D01*
X0123788Y0167000D01*
X0126600Y0169812D01*
X0126600Y0171600D01*
X0122000Y0171600D01*
X0122000Y0172841D02*
X0121600Y0172841D01*
X0121600Y0174439D02*
X0122000Y0174439D01*
X0122000Y0176038D02*
X0121600Y0176038D01*
X0124350Y0176038D02*
X0129250Y0176038D01*
X0129812Y0176600D02*
X0127000Y0173788D01*
X0127000Y0172000D01*
X0131600Y0172000D01*
X0131600Y0176600D01*
X0129812Y0176600D01*
X0131600Y0176038D02*
X0132000Y0176038D01*
X0132000Y0176600D02*
X0133788Y0176600D01*
X0136600Y0173788D01*
X0136600Y0172000D01*
X0132000Y0172000D01*
X0132000Y0171600D01*
X0136600Y0171600D01*
X0136600Y0169812D01*
X0133788Y0167000D01*
X0132000Y0167000D01*
X0132000Y0171600D01*
X0131600Y0171600D01*
X0131600Y0167000D01*
X0129812Y0167000D01*
X0127000Y0169812D01*
X0127000Y0171600D01*
X0131600Y0171600D01*
X0131600Y0172000D01*
X0132000Y0172000D01*
X0132000Y0176600D01*
X0132000Y0174439D02*
X0131600Y0174439D01*
X0131600Y0172841D02*
X0132000Y0172841D01*
X0132000Y0171242D02*
X0131600Y0171242D01*
X0131600Y0169644D02*
X0132000Y0169644D01*
X0132000Y0168045D02*
X0131600Y0168045D01*
X0129895Y0166400D02*
X0127200Y0163705D01*
X0127200Y0159895D01*
X0129895Y0157200D01*
X0133705Y0157200D01*
X0136400Y0159895D01*
X0136400Y0163705D01*
X0133705Y0166400D01*
X0129895Y0166400D01*
X0128767Y0168045D02*
X0124833Y0168045D01*
X0126432Y0169644D02*
X0127168Y0169644D01*
X0127000Y0171242D02*
X0126600Y0171242D01*
X0126600Y0172841D02*
X0127000Y0172841D01*
X0127651Y0174439D02*
X0125949Y0174439D01*
X0122000Y0168045D02*
X0121600Y0168045D01*
X0125257Y0164848D02*
X0128343Y0164848D01*
X0127200Y0163250D02*
X0126400Y0163250D01*
X0126400Y0161651D02*
X0127200Y0161651D01*
X0127200Y0160053D02*
X0126400Y0160053D01*
X0124959Y0158454D02*
X0128641Y0158454D01*
X0129895Y0156400D02*
X0127200Y0153705D01*
X0127200Y0149895D01*
X0129895Y0147200D01*
X0133705Y0147200D01*
X0136400Y0149895D01*
X0136400Y0153705D01*
X0133705Y0156400D01*
X0129895Y0156400D01*
X0128752Y0155257D02*
X0124848Y0155257D01*
X0126400Y0153659D02*
X0127200Y0153659D01*
X0127200Y0152060D02*
X0126400Y0152060D01*
X0126400Y0150462D02*
X0127200Y0150462D01*
X0128232Y0148863D02*
X0125368Y0148863D01*
X0123770Y0147265D02*
X0129830Y0147265D01*
X0133770Y0147265D02*
X0141400Y0147265D01*
X0141420Y0148863D02*
X0135368Y0148863D01*
X0136400Y0150462D02*
X0142082Y0150462D01*
X0144023Y0152060D02*
X0136400Y0152060D01*
X0136400Y0153659D02*
X0184000Y0153659D01*
X0184000Y0155257D02*
X0134848Y0155257D01*
X0134959Y0158454D02*
X0184000Y0158454D01*
X0184000Y0156856D02*
X0045543Y0156856D01*
X0045354Y0155598D02*
X0045354Y0155598D01*
X0045189Y0155257D02*
X0108752Y0155257D01*
X0108641Y0158454D02*
X0045784Y0158454D01*
X0046025Y0160053D02*
X0107200Y0160053D01*
X0107200Y0161651D02*
X0092693Y0161651D01*
X0092616Y0161595D02*
X0093227Y0162039D01*
X0093761Y0162573D01*
X0094205Y0163184D01*
X0094548Y0163857D01*
X0094782Y0164576D01*
X0094900Y0165322D01*
X0094900Y0165500D01*
X0087300Y0165500D01*
X0087300Y0165900D01*
X0086900Y0165900D01*
X0086900Y0170500D01*
X0083722Y0170500D01*
X0082976Y0170382D01*
X0082257Y0170148D01*
X0081584Y0169805D01*
X0080973Y0169361D01*
X0080439Y0168827D01*
X0079995Y0168216D01*
X0079652Y0167543D01*
X0079418Y0166824D01*
X0079300Y0166078D01*
X0079300Y0165900D01*
X0086900Y0165900D01*
X0086900Y0165500D01*
X0087300Y0165500D01*
X0087300Y0160900D01*
X0090478Y0160900D01*
X0091224Y0161018D01*
X0091943Y0161252D01*
X0092616Y0161595D01*
X0094239Y0163250D02*
X0107200Y0163250D01*
X0108343Y0164848D02*
X0094825Y0164848D01*
X0094900Y0165900D02*
X0094900Y0166078D01*
X0094782Y0166824D01*
X0094548Y0167543D01*
X0094205Y0168216D01*
X0093761Y0168827D01*
X0093227Y0169361D01*
X0092616Y0169805D01*
X0091943Y0170148D01*
X0091224Y0170382D01*
X0090478Y0170500D01*
X0087300Y0170500D01*
X0087300Y0165900D01*
X0094900Y0165900D01*
X0094842Y0166447D02*
X0141258Y0166447D01*
X0141200Y0166078D02*
X0141200Y0165900D01*
X0148800Y0165900D01*
X0148800Y0170500D01*
X0145622Y0170500D01*
X0144876Y0170382D01*
X0144157Y0170148D01*
X0143484Y0169805D01*
X0142873Y0169361D01*
X0142339Y0168827D01*
X0141895Y0168216D01*
X0141552Y0167543D01*
X0141318Y0166824D01*
X0141200Y0166078D01*
X0141200Y0165500D02*
X0141200Y0165322D01*
X0141318Y0164576D01*
X0141552Y0163857D01*
X0141895Y0163184D01*
X0142339Y0162573D01*
X0142873Y0162039D01*
X0143484Y0161595D01*
X0144157Y0161252D01*
X0144876Y0161018D01*
X0145622Y0160900D01*
X0148800Y0160900D01*
X0148800Y0165500D01*
X0149200Y0165500D01*
X0149200Y0165900D01*
X0148800Y0165900D01*
X0148800Y0165500D01*
X0141200Y0165500D01*
X0141275Y0164848D02*
X0135257Y0164848D01*
X0136400Y0163250D02*
X0141861Y0163250D01*
X0143407Y0161651D02*
X0136400Y0161651D01*
X0136400Y0160053D02*
X0184081Y0160053D01*
X0185191Y0161651D02*
X0180193Y0161651D01*
X0180116Y0161595D02*
X0180727Y0162039D01*
X0181261Y0162573D01*
X0181705Y0163184D01*
X0182048Y0163857D01*
X0182282Y0164576D01*
X0182400Y0165322D01*
X0182400Y0165500D01*
X0174800Y0165500D01*
X0174800Y0165900D01*
X0174400Y0165900D01*
X0174400Y0170500D01*
X0171222Y0170500D01*
X0170476Y0170382D01*
X0169757Y0170148D01*
X0169084Y0169805D01*
X0168473Y0169361D01*
X0167939Y0168827D01*
X0167495Y0168216D01*
X0167152Y0167543D01*
X0166918Y0166824D01*
X0166800Y0166078D01*
X0166800Y0165900D01*
X0174400Y0165900D01*
X0174400Y0165500D01*
X0174800Y0165500D01*
X0174800Y0160900D01*
X0177978Y0160900D01*
X0178724Y0161018D01*
X0179443Y0161252D01*
X0180116Y0161595D01*
X0181739Y0163250D02*
X0186790Y0163250D01*
X0182325Y0164848D02*
X0191593Y0164848D01*
X0193207Y0167352D02*
X0193926Y0167118D01*
X0194672Y0167000D01*
X0197850Y0167000D01*
X0197850Y0171600D01*
X0198250Y0171600D01*
X0198250Y0172000D01*
X0197850Y0172000D01*
X0197850Y0176600D01*
X0194672Y0176600D01*
X0193926Y0176482D01*
X0193207Y0176248D01*
X0192534Y0175905D01*
X0191923Y0175461D01*
X0191389Y0174927D01*
X0190945Y0174316D01*
X0190602Y0173643D01*
X0190368Y0172924D01*
X0190250Y0172178D01*
X0190250Y0172000D01*
X0197850Y0172000D01*
X0197850Y0171600D01*
X0190250Y0171600D01*
X0190250Y0171422D01*
X0190368Y0170676D01*
X0190602Y0169957D01*
X0190945Y0169284D01*
X0191389Y0168673D01*
X0191923Y0168139D01*
X0192534Y0167695D01*
X0193207Y0167352D01*
X0192052Y0168045D02*
X0181792Y0168045D01*
X0181705Y0168216D02*
X0181261Y0168827D01*
X0180727Y0169361D01*
X0180116Y0169805D01*
X0179443Y0170148D01*
X0178724Y0170382D01*
X0177978Y0170500D01*
X0174800Y0170500D01*
X0174800Y0165900D01*
X0182400Y0165900D01*
X0182400Y0166078D01*
X0182282Y0166824D01*
X0182048Y0167543D01*
X0181705Y0168216D01*
X0182342Y0166447D02*
X0208349Y0166447D01*
X0208842Y0168045D02*
X0204048Y0168045D01*
X0204177Y0168139D02*
X0204711Y0168673D01*
X0205155Y0169284D01*
X0205498Y0169957D01*
X0205732Y0170676D01*
X0205850Y0171422D01*
X0205850Y0171600D01*
X0198250Y0171600D01*
X0198250Y0167000D01*
X0201428Y0167000D01*
X0202174Y0167118D01*
X0202893Y0167352D01*
X0203566Y0167695D01*
X0204177Y0168139D01*
X0205338Y0169644D02*
X0209542Y0169644D01*
X0209164Y0169089D02*
X0209164Y0169089D01*
X0210632Y0171242D02*
X0205821Y0171242D01*
X0205850Y0172000D02*
X0205850Y0172178D01*
X0205732Y0172924D01*
X0205498Y0173643D01*
X0205155Y0174316D01*
X0204711Y0174927D01*
X0204177Y0175461D01*
X0203566Y0175905D01*
X0202893Y0176248D01*
X0202174Y0176482D01*
X0201428Y0176600D01*
X0198250Y0176600D01*
X0198250Y0172000D01*
X0205850Y0172000D01*
X0205745Y0172841D02*
X0211721Y0172841D01*
X0213505Y0174439D02*
X0205066Y0174439D01*
X0203306Y0176038D02*
X0215509Y0176038D01*
X0215900Y0176349D02*
X0215900Y0176349D01*
X0207856Y0164848D02*
X0204507Y0164848D01*
X0205429Y0163250D02*
X0207688Y0163250D01*
X0207688Y0161651D02*
X0205650Y0161651D01*
X0205305Y0160053D02*
X0207688Y0160053D01*
X0207947Y0158454D02*
X0204209Y0158454D01*
X0203656Y0155700D02*
X0201965Y0156400D01*
X0194135Y0156400D01*
X0192444Y0155700D01*
X0191150Y0154406D01*
X0190450Y0152715D01*
X0190450Y0150885D01*
X0191150Y0149194D01*
X0192444Y0147900D01*
X0192750Y0147774D01*
X0192750Y0112725D01*
X0191969Y0111944D01*
X0191969Y0106656D01*
X0192906Y0105719D01*
X0198194Y0105719D01*
X0199131Y0106656D01*
X0199131Y0111944D01*
X0198350Y0112725D01*
X0198350Y0147200D01*
X0201965Y0147200D01*
X0203656Y0147900D01*
X0204950Y0149194D01*
X0205650Y0150885D01*
X0205650Y0152715D01*
X0204950Y0154406D01*
X0203656Y0155700D01*
X0204098Y0155257D02*
X0208934Y0155257D01*
X0208440Y0156856D02*
X0189600Y0156856D01*
X0189600Y0155257D02*
X0192002Y0155257D01*
X0190841Y0153659D02*
X0189600Y0153659D01*
X0189600Y0152060D02*
X0190450Y0152060D01*
X0190625Y0150462D02*
X0189600Y0150462D01*
X0189600Y0148863D02*
X0191482Y0148863D01*
X0192750Y0147265D02*
X0189600Y0147265D01*
X0189600Y0145666D02*
X0192750Y0145666D01*
X0192750Y0144068D02*
X0189600Y0144068D01*
X0189600Y0142469D02*
X0192750Y0142469D01*
X0192750Y0140870D02*
X0189600Y0140870D01*
X0189600Y0139272D02*
X0192750Y0139272D01*
X0192750Y0137673D02*
X0189600Y0137673D01*
X0189600Y0136075D02*
X0192750Y0136075D01*
X0192750Y0134476D02*
X0189600Y0134476D01*
X0189600Y0132878D02*
X0192750Y0132878D01*
X0192750Y0131279D02*
X0189600Y0131279D01*
X0189600Y0129681D02*
X0192750Y0129681D01*
X0192750Y0128082D02*
X0189600Y0128082D01*
X0189600Y0126484D02*
X0192750Y0126484D01*
X0192750Y0124885D02*
X0189600Y0124885D01*
X0189600Y0123287D02*
X0192750Y0123287D01*
X0192750Y0121688D02*
X0189600Y0121688D01*
X0189600Y0120090D02*
X0192750Y0120090D01*
X0192750Y0118491D02*
X0189600Y0118491D01*
X0189600Y0116893D02*
X0192750Y0116893D01*
X0192750Y0115294D02*
X0189600Y0115294D01*
X0189600Y0113696D02*
X0192750Y0113696D01*
X0192122Y0112097D02*
X0190228Y0112097D01*
X0190381Y0110499D02*
X0191969Y0110499D01*
X0191969Y0108900D02*
X0190381Y0108900D01*
X0190381Y0107302D02*
X0191969Y0107302D01*
X0199131Y0107302D02*
X0221700Y0107302D01*
X0221700Y0107715D02*
X0221700Y0105885D01*
X0222400Y0104194D01*
X0223694Y0102900D01*
X0225385Y0102200D01*
X0226496Y0102200D01*
X0226494Y0100103D01*
X0226068Y0100103D01*
X0225691Y0099726D01*
X0225474Y0099943D01*
X0225064Y0100180D01*
X0224606Y0100303D01*
X0222289Y0100303D01*
X0222289Y0096030D01*
X0221330Y0096030D01*
X0221330Y0100303D01*
X0219014Y0100303D01*
X0218556Y0100180D01*
X0218146Y0099943D01*
X0217810Y0099608D01*
X0217573Y0099198D01*
X0217451Y0098740D01*
X0217451Y0096030D01*
X0221330Y0096030D01*
X0221330Y0095070D01*
X0222289Y0095070D01*
X0222289Y0090797D01*
X0224606Y0090797D01*
X0225064Y0090920D01*
X0225474Y0091157D01*
X0225691Y0091374D01*
X0226068Y0090997D01*
X0232512Y0090997D01*
X0233449Y0091934D01*
X0233449Y0099165D01*
X0232512Y0100103D01*
X0232094Y0100103D01*
X0232096Y0102200D01*
X0233215Y0102200D01*
X0234906Y0102900D01*
X0236200Y0104194D01*
X0236900Y0105885D01*
X0236900Y0107715D01*
X0236200Y0109406D01*
X0234906Y0110700D01*
X0233215Y0111400D01*
X0225385Y0111400D01*
X0223694Y0110700D01*
X0222400Y0109406D01*
X0221700Y0107715D01*
X0222191Y0108900D02*
X0199131Y0108900D01*
X0199131Y0110499D02*
X0223493Y0110499D01*
X0223694Y0112900D02*
X0225385Y0112200D01*
X0233215Y0112200D01*
X0234906Y0112900D01*
X0236200Y0114194D01*
X0236900Y0115885D01*
X0236900Y0117715D01*
X0236200Y0119406D01*
X0234906Y0120700D01*
X0233215Y0121400D01*
X0225385Y0121400D01*
X0223694Y0120700D01*
X0222400Y0119406D01*
X0221700Y0117715D01*
X0221700Y0115885D01*
X0222400Y0114194D01*
X0223694Y0112900D01*
X0222899Y0113696D02*
X0198350Y0113696D01*
X0198350Y0115294D02*
X0221945Y0115294D01*
X0221700Y0116893D02*
X0198350Y0116893D01*
X0198350Y0118491D02*
X0222022Y0118491D01*
X0223084Y0120090D02*
X0198350Y0120090D01*
X0198350Y0121688D02*
X0238201Y0121688D01*
X0238201Y0120090D02*
X0235516Y0120090D01*
X0236578Y0118491D02*
X0238201Y0118491D01*
X0238201Y0116893D02*
X0236900Y0116893D01*
X0236655Y0115294D02*
X0238201Y0115294D01*
X0238201Y0113696D02*
X0235701Y0113696D01*
X0238201Y0112097D02*
X0198978Y0112097D01*
X0184600Y0105703D02*
X0221775Y0105703D01*
X0222490Y0104105D02*
X0184600Y0104105D01*
X0184600Y0102506D02*
X0224646Y0102506D01*
X0226495Y0100908D02*
X0184600Y0100908D01*
X0184600Y0099309D02*
X0217638Y0099309D01*
X0217451Y0097711D02*
X0184600Y0097711D01*
X0184600Y0096112D02*
X0217451Y0096112D01*
X0217451Y0095070D02*
X0217451Y0092360D01*
X0217573Y0091902D01*
X0217810Y0091492D01*
X0218146Y0091157D01*
X0218556Y0090920D01*
X0219014Y0090797D01*
X0221330Y0090797D01*
X0221330Y0095070D01*
X0217451Y0095070D01*
X0217451Y0094514D02*
X0184600Y0094514D01*
X0185381Y0092915D02*
X0217451Y0092915D01*
X0217986Y0091317D02*
X0185381Y0091317D01*
X0185381Y0089718D02*
X0238201Y0089718D01*
X0238201Y0088120D02*
X0185381Y0088120D01*
X0178219Y0088120D02*
X0174644Y0088120D01*
X0174641Y0089718D02*
X0178219Y0089718D01*
X0178219Y0091317D02*
X0174640Y0091317D01*
X0174640Y0092915D02*
X0178219Y0092915D01*
X0179000Y0094514D02*
X0175312Y0094514D01*
X0176911Y0096112D02*
X0179000Y0096112D01*
X0179000Y0097711D02*
X0178079Y0097711D01*
X0178400Y0099309D02*
X0179000Y0099309D01*
X0179000Y0100908D02*
X0178398Y0100908D01*
X0178397Y0102506D02*
X0179000Y0102506D01*
X0179000Y0104105D02*
X0178395Y0104105D01*
X0178449Y0105703D02*
X0179000Y0105703D01*
X0179000Y0107302D02*
X0178449Y0107302D01*
X0178449Y0108900D02*
X0179000Y0108900D01*
X0179000Y0110499D02*
X0178449Y0110499D01*
X0178449Y0112097D02*
X0179000Y0112097D01*
X0179000Y0113696D02*
X0178390Y0113696D01*
X0178390Y0115294D02*
X0179000Y0115294D01*
X0179000Y0116893D02*
X0178390Y0116893D01*
X0178449Y0118491D02*
X0179000Y0118491D01*
X0179000Y0120090D02*
X0178449Y0120090D01*
X0178449Y0121688D02*
X0179000Y0121688D01*
X0179000Y0123287D02*
X0178449Y0123287D01*
X0178449Y0124885D02*
X0179000Y0124885D01*
X0179000Y0126484D02*
X0178390Y0126484D01*
X0178390Y0128082D02*
X0179000Y0128082D01*
X0179000Y0129681D02*
X0178390Y0129681D01*
X0178400Y0131279D02*
X0179000Y0131279D01*
X0179000Y0132878D02*
X0178291Y0132878D01*
X0177848Y0134476D02*
X0179000Y0134476D01*
X0179000Y0136075D02*
X0169610Y0136075D01*
X0169610Y0137673D02*
X0179000Y0137673D01*
X0179000Y0139272D02*
X0169932Y0139272D01*
X0171530Y0140870D02*
X0177670Y0140870D01*
X0176071Y0142469D02*
X0173129Y0142469D01*
X0166808Y0144068D02*
X0154673Y0144068D01*
X0153977Y0152060D02*
X0169623Y0152060D01*
X0179577Y0152060D02*
X0184000Y0152060D01*
X0184000Y0150462D02*
X0181518Y0150462D01*
X0182180Y0148863D02*
X0184000Y0148863D01*
X0184000Y0147265D02*
X0182200Y0147265D01*
X0181654Y0145666D02*
X0184000Y0145666D01*
X0184000Y0144068D02*
X0182392Y0144068D01*
X0183991Y0142469D02*
X0184000Y0142469D01*
X0170752Y0134476D02*
X0169610Y0134476D01*
X0169610Y0132878D02*
X0170303Y0132878D01*
X0170190Y0131279D02*
X0169610Y0131279D01*
X0169610Y0129681D02*
X0170190Y0129681D01*
X0170190Y0128082D02*
X0169610Y0128082D01*
X0169610Y0126484D02*
X0170190Y0126484D01*
X0164010Y0129681D02*
X0156553Y0129681D01*
X0156434Y0131279D02*
X0164010Y0131279D01*
X0164010Y0132878D02*
X0131020Y0132878D01*
X0131020Y0133530D02*
X0134899Y0133530D01*
X0134899Y0136240D01*
X0134777Y0136698D01*
X0134540Y0137108D01*
X0134204Y0137443D01*
X0133794Y0137680D01*
X0133336Y0137803D01*
X0131020Y0137803D01*
X0131020Y0133530D01*
X0131020Y0134476D02*
X0130061Y0134476D01*
X0130061Y0136075D02*
X0131020Y0136075D01*
X0131020Y0137673D02*
X0130061Y0137673D01*
X0133805Y0137673D02*
X0164010Y0137673D01*
X0164010Y0136075D02*
X0134899Y0136075D01*
X0134899Y0134476D02*
X0164010Y0134476D01*
X0164010Y0139272D02*
X0142881Y0139272D01*
X0142881Y0140870D02*
X0164094Y0140870D01*
X0165209Y0142469D02*
X0142881Y0142469D01*
X0142881Y0144068D02*
X0143327Y0144068D01*
X0141946Y0145666D02*
X0094154Y0145666D01*
X0091020Y0137673D02*
X0090061Y0137673D01*
X0090061Y0136075D02*
X0091020Y0136075D01*
X0080260Y0139272D02*
X0075962Y0139272D01*
X0076400Y0137673D02*
X0078901Y0137673D01*
X0078901Y0136075D02*
X0076400Y0136075D01*
X0076400Y0134476D02*
X0078901Y0134476D01*
X0078901Y0132878D02*
X0076400Y0132878D01*
X0076400Y0131279D02*
X0078901Y0131279D01*
X0072255Y0124885D02*
X0033308Y0124885D01*
X0027175Y0124885D02*
X0026425Y0124885D01*
X0026425Y0123975D02*
X0022856Y0123975D01*
X0022028Y0124106D01*
X0021231Y0124365D01*
X0020484Y0124746D01*
X0019806Y0125238D01*
X0019213Y0125831D01*
X0018721Y0126509D01*
X0018340Y0127256D01*
X0018081Y0128053D01*
X0017950Y0128881D01*
X0017950Y0128925D01*
X0026425Y0128925D01*
X0026425Y0123975D01*
X0026425Y0126484D02*
X0027175Y0126484D01*
X0027175Y0128082D02*
X0026425Y0128082D01*
X0026425Y0129681D02*
X0027175Y0129681D01*
X0027175Y0131279D02*
X0026425Y0131279D01*
X0026425Y0132878D02*
X0027175Y0132878D01*
X0027175Y0134476D02*
X0026425Y0134476D01*
X0021974Y0134476D02*
X0014100Y0134476D01*
X0014100Y0132878D02*
X0019322Y0132878D01*
X0018319Y0131279D02*
X0014100Y0131279D01*
X0014100Y0129681D02*
X0017950Y0129681D01*
X0018076Y0128082D02*
X0014100Y0128082D01*
X0014100Y0126484D02*
X0018739Y0126484D01*
X0020292Y0124885D02*
X0014100Y0124885D01*
X0014100Y0123287D02*
X0073853Y0123287D01*
X0074735Y0140870D02*
X0080260Y0140870D01*
X0080260Y0144068D02*
X0067173Y0144068D01*
X0066477Y0152060D02*
X0082123Y0152060D01*
X0083722Y0160900D02*
X0082976Y0161018D01*
X0082257Y0161252D01*
X0081584Y0161595D01*
X0080973Y0162039D01*
X0080439Y0162573D01*
X0079995Y0163184D01*
X0079652Y0163857D01*
X0079418Y0164576D01*
X0079300Y0165322D01*
X0079300Y0165500D01*
X0086900Y0165500D01*
X0086900Y0160900D01*
X0083722Y0160900D01*
X0081507Y0161651D02*
X0067093Y0161651D01*
X0067016Y0161595D02*
X0067627Y0162039D01*
X0068161Y0162573D01*
X0068605Y0163184D01*
X0068948Y0163857D01*
X0069182Y0164576D01*
X0069300Y0165322D01*
X0069300Y0165500D01*
X0061700Y0165500D01*
X0061700Y0165900D01*
X0061300Y0165900D01*
X0061300Y0170500D01*
X0058122Y0170500D01*
X0057376Y0170382D01*
X0056657Y0170148D01*
X0055984Y0169805D01*
X0055373Y0169361D01*
X0054839Y0168827D01*
X0054395Y0168216D01*
X0054052Y0167543D01*
X0053818Y0166824D01*
X0053700Y0166078D01*
X0053700Y0165900D01*
X0061300Y0165900D01*
X0061300Y0165500D01*
X0061700Y0165500D01*
X0061700Y0160900D01*
X0064878Y0160900D01*
X0065624Y0161018D01*
X0066343Y0161252D01*
X0067016Y0161595D01*
X0068639Y0163250D02*
X0079961Y0163250D01*
X0079375Y0164848D02*
X0069225Y0164848D01*
X0069300Y0165900D02*
X0069300Y0166078D01*
X0069182Y0166824D01*
X0068948Y0167543D01*
X0068605Y0168216D01*
X0068161Y0168827D01*
X0067627Y0169361D01*
X0067016Y0169805D01*
X0066343Y0170148D01*
X0065624Y0170382D01*
X0064878Y0170500D01*
X0061700Y0170500D01*
X0061700Y0165900D01*
X0069300Y0165900D01*
X0069242Y0166447D02*
X0079358Y0166447D01*
X0079908Y0168045D02*
X0068692Y0168045D01*
X0067238Y0169644D02*
X0081362Y0169644D01*
X0086900Y0169644D02*
X0087300Y0169644D01*
X0087300Y0168045D02*
X0086900Y0168045D01*
X0086900Y0166447D02*
X0087300Y0166447D01*
X0087300Y0164848D02*
X0086900Y0164848D01*
X0086900Y0163250D02*
X0087300Y0163250D01*
X0087300Y0161651D02*
X0086900Y0161651D01*
X0094292Y0168045D02*
X0108767Y0168045D01*
X0107168Y0169644D02*
X0092838Y0169644D01*
X0107000Y0171242D02*
X0042041Y0171242D01*
X0043181Y0170014D02*
X0043181Y0170014D01*
X0043359Y0169644D02*
X0055762Y0169644D01*
X0054308Y0168045D02*
X0044129Y0168045D01*
X0044899Y0166447D02*
X0053758Y0166447D01*
X0053700Y0165500D02*
X0053700Y0165322D01*
X0053818Y0164576D01*
X0054052Y0163857D01*
X0054395Y0163184D01*
X0054839Y0162573D01*
X0055373Y0162039D01*
X0055984Y0161595D01*
X0056657Y0161252D01*
X0057376Y0161018D01*
X0058122Y0160900D01*
X0061300Y0160900D01*
X0061300Y0165500D01*
X0053700Y0165500D01*
X0053775Y0164848D02*
X0045452Y0164848D01*
X0045354Y0165502D02*
X0045354Y0165502D01*
X0045693Y0163250D02*
X0054361Y0163250D01*
X0055907Y0161651D02*
X0045934Y0161651D01*
X0040558Y0172841D02*
X0107000Y0172841D01*
X0107651Y0174439D02*
X0038468Y0174439D01*
X0035699Y0176038D02*
X0109250Y0176038D01*
X0134350Y0176038D02*
X0192794Y0176038D01*
X0191034Y0174439D02*
X0135949Y0174439D01*
X0136600Y0172841D02*
X0190355Y0172841D01*
X0190279Y0171242D02*
X0136600Y0171242D01*
X0136432Y0169644D02*
X0143262Y0169644D01*
X0141808Y0168045D02*
X0134833Y0168045D01*
X0148800Y0168045D02*
X0149200Y0168045D01*
X0149200Y0166447D02*
X0148800Y0166447D01*
X0149200Y0165900D02*
X0149200Y0170500D01*
X0152378Y0170500D01*
X0153124Y0170382D01*
X0153843Y0170148D01*
X0154516Y0169805D01*
X0155127Y0169361D01*
X0155661Y0168827D01*
X0156105Y0168216D01*
X0156448Y0167543D01*
X0156682Y0166824D01*
X0156800Y0166078D01*
X0156800Y0165900D01*
X0149200Y0165900D01*
X0149200Y0165500D02*
X0156800Y0165500D01*
X0156800Y0165322D01*
X0156682Y0164576D01*
X0156448Y0163857D01*
X0156105Y0163184D01*
X0155661Y0162573D01*
X0155127Y0162039D01*
X0154516Y0161595D01*
X0153843Y0161252D01*
X0153124Y0161018D01*
X0152378Y0160900D01*
X0149200Y0160900D01*
X0149200Y0165500D01*
X0149200Y0164848D02*
X0148800Y0164848D01*
X0148800Y0163250D02*
X0149200Y0163250D01*
X0149200Y0161651D02*
X0148800Y0161651D01*
X0154593Y0161651D02*
X0169007Y0161651D01*
X0169084Y0161595D02*
X0169757Y0161252D01*
X0170476Y0161018D01*
X0171222Y0160900D01*
X0174400Y0160900D01*
X0174400Y0165500D01*
X0166800Y0165500D01*
X0166800Y0165322D01*
X0166918Y0164576D01*
X0167152Y0163857D01*
X0167495Y0163184D01*
X0167939Y0162573D01*
X0168473Y0162039D01*
X0169084Y0161595D01*
X0167461Y0163250D02*
X0156139Y0163250D01*
X0156725Y0164848D02*
X0166875Y0164848D01*
X0166858Y0166447D02*
X0156742Y0166447D01*
X0156192Y0168045D02*
X0167408Y0168045D01*
X0168862Y0169644D02*
X0154738Y0169644D01*
X0149200Y0169644D02*
X0148800Y0169644D01*
X0174400Y0169644D02*
X0174800Y0169644D01*
X0174800Y0168045D02*
X0174400Y0168045D01*
X0174400Y0166447D02*
X0174800Y0166447D01*
X0174800Y0164848D02*
X0174400Y0164848D01*
X0174400Y0163250D02*
X0174800Y0163250D01*
X0174800Y0161651D02*
X0174400Y0161651D01*
X0180338Y0169644D02*
X0190762Y0169644D01*
X0197850Y0169644D02*
X0198250Y0169644D01*
X0198250Y0171242D02*
X0197850Y0171242D01*
X0197850Y0172841D02*
X0198250Y0172841D01*
X0198250Y0174439D02*
X0197850Y0174439D01*
X0197850Y0176038D02*
X0198250Y0176038D01*
X0198250Y0168045D02*
X0197850Y0168045D01*
X0191891Y0158454D02*
X0189914Y0158454D01*
X0205259Y0153659D02*
X0209745Y0153659D01*
X0210835Y0152060D02*
X0205650Y0152060D01*
X0205475Y0150462D02*
X0211924Y0150462D01*
X0211985Y0150373D02*
X0211985Y0150373D01*
X0213878Y0148863D02*
X0204618Y0148863D01*
X0202121Y0147265D02*
X0215883Y0147265D01*
X0219938Y0145666D02*
X0198350Y0145666D01*
X0198350Y0144068D02*
X0238201Y0144068D01*
X0238201Y0145666D02*
X0228268Y0145666D01*
X0230438Y0146161D02*
X0230438Y0146161D01*
X0232349Y0147265D02*
X0238201Y0147265D01*
X0238201Y0148863D02*
X0234958Y0148863D01*
X0234775Y0148665D02*
X0234775Y0148665D01*
X0236441Y0150462D02*
X0238201Y0150462D01*
X0238201Y0152060D02*
X0237925Y0152060D01*
X0238181Y0152336D02*
X0238181Y0152336D01*
X0238201Y0142469D02*
X0198350Y0142469D01*
X0198350Y0140870D02*
X0238201Y0140870D01*
X0238201Y0139272D02*
X0198350Y0139272D01*
X0198350Y0137673D02*
X0238201Y0137673D01*
X0238201Y0136075D02*
X0198350Y0136075D01*
X0198350Y0134476D02*
X0238201Y0134476D01*
X0238201Y0132878D02*
X0198350Y0132878D01*
X0198350Y0131279D02*
X0224553Y0131279D01*
X0224457Y0131248D02*
X0223784Y0130905D01*
X0223173Y0130461D01*
X0222639Y0129927D01*
X0222195Y0129316D01*
X0221852Y0128643D01*
X0221618Y0127924D01*
X0221500Y0127178D01*
X0221500Y0127000D01*
X0229100Y0127000D01*
X0229100Y0131600D01*
X0225922Y0131600D01*
X0225176Y0131482D01*
X0224457Y0131248D01*
X0222460Y0129681D02*
X0198350Y0129681D01*
X0198350Y0128082D02*
X0221670Y0128082D01*
X0221500Y0126600D02*
X0221500Y0126422D01*
X0221618Y0125676D01*
X0221852Y0124957D01*
X0222195Y0124284D01*
X0222639Y0123673D01*
X0223173Y0123139D01*
X0223784Y0122695D01*
X0224457Y0122352D01*
X0225176Y0122118D01*
X0225922Y0122000D01*
X0229100Y0122000D01*
X0229100Y0126600D01*
X0229500Y0126600D01*
X0229500Y0127000D01*
X0229100Y0127000D01*
X0229100Y0126600D01*
X0221500Y0126600D01*
X0221500Y0126484D02*
X0198350Y0126484D01*
X0198350Y0124885D02*
X0221888Y0124885D01*
X0223025Y0123287D02*
X0198350Y0123287D01*
X0170190Y0116893D02*
X0155908Y0116893D01*
X0154600Y0115294D02*
X0170190Y0115294D01*
X0170189Y0113696D02*
X0170190Y0113696D01*
X0170109Y0100908D02*
X0154600Y0100908D01*
X0154600Y0099309D02*
X0168511Y0099309D01*
X0167001Y0097711D02*
X0154652Y0097711D01*
X0155400Y0096112D02*
X0166440Y0096112D01*
X0166440Y0094514D02*
X0155400Y0094514D01*
X0155400Y0092915D02*
X0166440Y0092915D01*
X0166439Y0091317D02*
X0155079Y0091317D01*
X0154600Y0089718D02*
X0166440Y0089718D01*
X0166444Y0088120D02*
X0154600Y0088120D01*
X0154600Y0086521D02*
X0166446Y0086521D01*
X0166448Y0084923D02*
X0154600Y0084923D01*
X0156353Y0083324D02*
X0166450Y0083324D01*
X0166453Y0081726D02*
X0156353Y0081726D01*
X0156353Y0080127D02*
X0164329Y0080127D01*
X0162730Y0078529D02*
X0156353Y0078529D01*
X0155964Y0076930D02*
X0161132Y0076930D01*
X0167933Y0072134D02*
X0188756Y0072134D01*
X0187157Y0073733D02*
X0182199Y0073733D01*
X0182199Y0080127D02*
X0222839Y0080127D01*
X0229100Y0080127D02*
X0229500Y0080127D01*
X0229500Y0078529D02*
X0229100Y0078529D01*
X0229100Y0075332D02*
X0229500Y0075332D01*
X0229500Y0073733D02*
X0229100Y0073733D01*
X0229100Y0072134D02*
X0229500Y0072134D01*
X0236785Y0078529D02*
X0238201Y0078529D01*
X0238201Y0080127D02*
X0235761Y0080127D01*
X0238201Y0081726D02*
X0174653Y0081726D01*
X0174650Y0083324D02*
X0238201Y0083324D01*
X0238201Y0084923D02*
X0174648Y0084923D01*
X0174646Y0086521D02*
X0238201Y0086521D01*
X0238201Y0091317D02*
X0232831Y0091317D01*
X0233449Y0092915D02*
X0238201Y0092915D01*
X0238201Y0094514D02*
X0233449Y0094514D01*
X0233449Y0096112D02*
X0238201Y0096112D01*
X0238201Y0097711D02*
X0233449Y0097711D01*
X0233305Y0099309D02*
X0238201Y0099309D01*
X0238201Y0100908D02*
X0232095Y0100908D01*
X0233954Y0102506D02*
X0238201Y0102506D01*
X0238201Y0104105D02*
X0236110Y0104105D01*
X0236825Y0105703D02*
X0238201Y0105703D01*
X0238201Y0107302D02*
X0236900Y0107302D01*
X0236409Y0108900D02*
X0238201Y0108900D01*
X0238201Y0110499D02*
X0235107Y0110499D01*
X0233424Y0122118D02*
X0234143Y0122352D01*
X0234816Y0122695D01*
X0235427Y0123139D01*
X0235961Y0123673D01*
X0236405Y0124284D01*
X0236748Y0124957D01*
X0236982Y0125676D01*
X0237100Y0126422D01*
X0237100Y0126600D01*
X0229500Y0126600D01*
X0229500Y0122000D01*
X0232678Y0122000D01*
X0233424Y0122118D01*
X0235575Y0123287D02*
X0238201Y0123287D01*
X0238201Y0124885D02*
X0236712Y0124885D01*
X0237100Y0126484D02*
X0238201Y0126484D01*
X0237100Y0127000D02*
X0237100Y0127178D01*
X0236982Y0127924D01*
X0236748Y0128643D01*
X0236405Y0129316D01*
X0235961Y0129927D01*
X0235427Y0130461D01*
X0234816Y0130905D01*
X0234143Y0131248D01*
X0233424Y0131482D01*
X0232678Y0131600D01*
X0229500Y0131600D01*
X0229500Y0127000D01*
X0237100Y0127000D01*
X0236930Y0128082D02*
X0238201Y0128082D01*
X0238201Y0129681D02*
X0236140Y0129681D01*
X0238201Y0131279D02*
X0234047Y0131279D01*
X0229500Y0131279D02*
X0229100Y0131279D01*
X0229100Y0129681D02*
X0229500Y0129681D01*
X0229500Y0128082D02*
X0229100Y0128082D01*
X0229100Y0126484D02*
X0229500Y0126484D01*
X0229500Y0124885D02*
X0229100Y0124885D01*
X0229100Y0123287D02*
X0229500Y0123287D01*
X0220562Y0145421D02*
X0220562Y0145421D01*
X0221330Y0099309D02*
X0222289Y0099309D01*
X0222289Y0097711D02*
X0221330Y0097711D01*
X0221330Y0096112D02*
X0222289Y0096112D01*
X0222289Y0094514D02*
X0221330Y0094514D01*
X0221330Y0092915D02*
X0222289Y0092915D01*
X0222289Y0091317D02*
X0221330Y0091317D01*
X0225634Y0091317D02*
X0225749Y0091317D01*
X0191286Y0067339D02*
X0182199Y0067339D01*
X0182199Y0060945D02*
X0190719Y0060945D01*
X0206662Y0044960D02*
X0118258Y0044960D01*
X0111457Y0049755D02*
X0089445Y0049755D01*
X0089750Y0050060D02*
X0087290Y0047600D01*
X0083810Y0047600D01*
X0081350Y0050060D01*
X0081350Y0053540D01*
X0083810Y0056000D01*
X0087290Y0056000D01*
X0089750Y0053540D01*
X0089750Y0050060D01*
X0089750Y0051354D02*
X0113056Y0051354D01*
X0112316Y0052695D02*
X0112927Y0053139D01*
X0113461Y0053673D01*
X0113905Y0054284D01*
X0114248Y0054957D01*
X0114482Y0055676D01*
X0114600Y0056422D01*
X0114600Y0056600D01*
X0107000Y0056600D01*
X0107000Y0057000D01*
X0106600Y0057000D01*
X0106600Y0061600D01*
X0103422Y0061600D01*
X0102676Y0061482D01*
X0101957Y0061248D01*
X0101284Y0060905D01*
X0100673Y0060461D01*
X0100139Y0059927D01*
X0099695Y0059316D01*
X0099352Y0058643D01*
X0099118Y0057924D01*
X0099000Y0057178D01*
X0099000Y0057000D01*
X0106600Y0057000D01*
X0106600Y0056600D01*
X0107000Y0056600D01*
X0107000Y0052000D01*
X0110178Y0052000D01*
X0110924Y0052118D01*
X0111643Y0052352D01*
X0112316Y0052695D01*
X0112670Y0052952D02*
X0114654Y0052952D01*
X0115200Y0054551D02*
X0114041Y0054551D01*
X0114557Y0056149D02*
X0115200Y0056149D01*
X0114600Y0057000D02*
X0114600Y0057178D01*
X0114482Y0057924D01*
X0114248Y0058643D01*
X0113905Y0059316D01*
X0113461Y0059927D01*
X0112927Y0060461D01*
X0112316Y0060905D01*
X0111643Y0061248D01*
X0110924Y0061482D01*
X0110178Y0061600D01*
X0107000Y0061600D01*
X0107000Y0057000D01*
X0114600Y0057000D01*
X0114510Y0057748D02*
X0115200Y0057748D01*
X0115200Y0059346D02*
X0113883Y0059346D01*
X0114357Y0060945D02*
X0112238Y0060945D01*
X0112758Y0062543D02*
X0111544Y0062543D01*
X0107000Y0060945D02*
X0106600Y0060945D01*
X0106600Y0059346D02*
X0107000Y0059346D01*
X0107000Y0057748D02*
X0106600Y0057748D01*
X0106600Y0056600D02*
X0099000Y0056600D01*
X0099000Y0056422D01*
X0099118Y0055676D01*
X0099352Y0054957D01*
X0099695Y0054284D01*
X0100139Y0053673D01*
X0100673Y0053139D01*
X0101284Y0052695D01*
X0101957Y0052352D01*
X0102676Y0052118D01*
X0103422Y0052000D01*
X0106600Y0052000D01*
X0106600Y0056600D01*
X0106600Y0056149D02*
X0107000Y0056149D01*
X0107000Y0054551D02*
X0106600Y0054551D01*
X0106600Y0052952D02*
X0107000Y0052952D01*
X0100930Y0052952D02*
X0089750Y0052952D01*
X0088739Y0054551D02*
X0099559Y0054551D01*
X0099043Y0056149D02*
X0045749Y0056149D01*
X0047347Y0054551D02*
X0082361Y0054551D01*
X0081350Y0052952D02*
X0048946Y0052952D01*
X0050544Y0051354D02*
X0081350Y0051354D01*
X0081655Y0049755D02*
X0052143Y0049755D01*
X0053741Y0048157D02*
X0083253Y0048157D01*
X0087847Y0048157D02*
X0109859Y0048157D01*
X0108260Y0046558D02*
X0055340Y0046558D01*
X0056938Y0044960D02*
X0106662Y0044960D01*
X0105063Y0043361D02*
X0072709Y0043361D01*
X0075135Y0041763D02*
X0103465Y0041763D01*
X0101866Y0040164D02*
X0076734Y0040164D01*
X0078332Y0038566D02*
X0100267Y0038566D01*
X0098669Y0036967D02*
X0079931Y0036967D01*
X0080795Y0035369D02*
X0097070Y0035369D01*
X0095472Y0033770D02*
X0080900Y0033770D01*
X0080900Y0032172D02*
X0093873Y0032172D01*
X0092890Y0030573D02*
X0080900Y0030573D01*
X0080900Y0028975D02*
X0092700Y0028975D01*
X0092700Y0027376D02*
X0080900Y0027376D01*
X0081095Y0025778D02*
X0092505Y0025778D01*
X0091814Y0024179D02*
X0081786Y0024179D01*
X0081925Y0022581D02*
X0091675Y0022581D01*
X0091675Y0020982D02*
X0081925Y0020982D01*
X0081925Y0019384D02*
X0091675Y0019384D01*
X0091675Y0017785D02*
X0081925Y0017785D01*
X0081925Y0016187D02*
X0091675Y0016187D01*
X0091744Y0014588D02*
X0081856Y0014588D01*
X0081409Y0012990D02*
X0092406Y0012990D01*
X0093991Y0011391D02*
X0083007Y0011391D01*
X0074608Y0008194D02*
X0038958Y0008194D01*
X0039775Y0008665D02*
X0039775Y0008665D01*
X0039775Y0008665D01*
X0040821Y0009793D02*
X0073194Y0009793D01*
X0072700Y0011391D02*
X0059609Y0011391D01*
X0059703Y0011430D02*
X0061145Y0012872D01*
X0061925Y0014756D01*
X0061925Y0023844D01*
X0061145Y0025728D01*
X0059703Y0027170D01*
X0057819Y0027950D01*
X0055781Y0027950D01*
X0053897Y0027170D01*
X0052455Y0025728D01*
X0051675Y0023844D01*
X0051675Y0014756D01*
X0052455Y0012872D01*
X0053897Y0011430D01*
X0055781Y0010650D01*
X0057819Y0010650D01*
X0059703Y0011430D01*
X0061193Y0012990D02*
X0072406Y0012990D01*
X0071744Y0014588D02*
X0061856Y0014588D01*
X0061925Y0016187D02*
X0071675Y0016187D01*
X0071675Y0017785D02*
X0061925Y0017785D01*
X0061925Y0019384D02*
X0071675Y0019384D01*
X0071675Y0020982D02*
X0061925Y0020982D01*
X0061925Y0022581D02*
X0071675Y0022581D01*
X0071814Y0024179D02*
X0061786Y0024179D01*
X0061095Y0025778D02*
X0072505Y0025778D01*
X0072700Y0027376D02*
X0059205Y0027376D01*
X0054395Y0027376D02*
X0045053Y0027376D01*
X0045354Y0026752D02*
X0045354Y0026752D01*
X0045500Y0025778D02*
X0052505Y0025778D01*
X0051814Y0024179D02*
X0045741Y0024179D01*
X0045982Y0022581D02*
X0051675Y0022581D01*
X0051675Y0020982D02*
X0045977Y0020982D01*
X0045736Y0019384D02*
X0051675Y0019384D01*
X0051675Y0017785D02*
X0045495Y0017785D01*
X0045354Y0016848D02*
X0045354Y0016848D01*
X0045035Y0016187D02*
X0051675Y0016187D01*
X0051744Y0014588D02*
X0044265Y0014588D01*
X0043495Y0012990D02*
X0052406Y0012990D01*
X0053991Y0011391D02*
X0042304Y0011391D01*
X0043181Y0012336D02*
X0043181Y0012336D01*
X0044283Y0028975D02*
X0072700Y0028975D01*
X0072700Y0030573D02*
X0043513Y0030573D01*
X0043181Y0031264D02*
X0043181Y0031264D01*
X0042338Y0032172D02*
X0072700Y0032172D01*
X0071531Y0033770D02*
X0040855Y0033770D01*
X0039023Y0035369D02*
X0055577Y0035369D01*
X0053334Y0036967D02*
X0036254Y0036967D01*
X0030555Y0038553D02*
X0030555Y0038553D01*
X0022475Y0036967D02*
X0014100Y0036967D01*
X0014100Y0035369D02*
X0019671Y0035369D01*
X0020900Y0036349D02*
X0020900Y0036349D01*
X0017666Y0033770D02*
X0014100Y0033770D01*
X0014100Y0032172D02*
X0016265Y0032172D01*
X0015175Y0030573D02*
X0014100Y0030573D01*
X0014164Y0029089D02*
X0014164Y0029089D01*
X0014128Y0028975D02*
X0014100Y0028975D01*
X0014100Y0038566D02*
X0051736Y0038566D01*
X0050137Y0040164D02*
X0014100Y0040164D01*
X0014100Y0041763D02*
X0048539Y0041763D01*
X0046940Y0043361D02*
X0014100Y0043361D01*
X0014100Y0044960D02*
X0045342Y0044960D01*
X0043743Y0046558D02*
X0014100Y0046558D01*
X0014100Y0048157D02*
X0042145Y0048157D01*
X0040546Y0049755D02*
X0014100Y0049755D01*
X0014100Y0051354D02*
X0038948Y0051354D01*
X0037349Y0052952D02*
X0014100Y0052952D01*
X0014100Y0054551D02*
X0035751Y0054551D01*
X0034152Y0056149D02*
X0014100Y0056149D01*
X0014100Y0057748D02*
X0020079Y0057748D01*
X0018744Y0059346D02*
X0014100Y0059346D01*
X0014100Y0060945D02*
X0018150Y0060945D01*
X0018150Y0062543D02*
X0014100Y0062543D01*
X0014100Y0064142D02*
X0018698Y0064142D01*
X0019968Y0065740D02*
X0014100Y0065740D01*
X0014100Y0067339D02*
X0099200Y0067339D01*
X0099260Y0065740D02*
X0073799Y0065740D01*
X0073540Y0066000D02*
X0070060Y0066000D01*
X0067600Y0063540D01*
X0067600Y0060060D01*
X0070060Y0057600D01*
X0073540Y0057600D01*
X0076000Y0060060D01*
X0076000Y0063540D01*
X0073540Y0066000D01*
X0075398Y0064142D02*
X0099953Y0064142D01*
X0102056Y0062543D02*
X0076000Y0062543D01*
X0076000Y0060945D02*
X0101362Y0060945D01*
X0099717Y0059346D02*
X0075286Y0059346D01*
X0073688Y0057748D02*
X0099090Y0057748D01*
X0099706Y0068937D02*
X0014100Y0068937D01*
X0035501Y0065740D02*
X0059518Y0065740D01*
X0059977Y0066200D02*
X0057400Y0063623D01*
X0057400Y0061800D01*
X0061800Y0061800D01*
X0066200Y0061800D01*
X0066200Y0063623D01*
X0063623Y0066200D01*
X0061800Y0066200D01*
X0061800Y0061800D01*
X0061800Y0061800D01*
X0061800Y0061800D01*
X0066200Y0061800D01*
X0066200Y0059977D01*
X0063623Y0057400D01*
X0061800Y0057400D01*
X0061800Y0061800D01*
X0061800Y0061800D01*
X0061800Y0061800D01*
X0061800Y0066200D01*
X0059977Y0066200D01*
X0061800Y0065740D02*
X0061800Y0065740D01*
X0061800Y0064142D02*
X0061800Y0064142D01*
X0061800Y0062543D02*
X0061800Y0062543D01*
X0061800Y0061800D02*
X0057400Y0061800D01*
X0057400Y0059977D01*
X0059977Y0057400D01*
X0061800Y0057400D01*
X0061800Y0061800D01*
X0061800Y0060945D02*
X0061800Y0060945D01*
X0061800Y0059346D02*
X0061800Y0059346D01*
X0061800Y0057748D02*
X0061800Y0057748D01*
X0063970Y0057748D02*
X0069912Y0057748D01*
X0068314Y0059346D02*
X0065569Y0059346D01*
X0066200Y0060945D02*
X0067600Y0060945D01*
X0067600Y0062543D02*
X0066200Y0062543D01*
X0065681Y0064142D02*
X0068202Y0064142D01*
X0069801Y0065740D02*
X0064082Y0065740D01*
X0057919Y0064142D02*
X0037756Y0064142D01*
X0039355Y0062543D02*
X0057400Y0062543D01*
X0057400Y0060945D02*
X0040953Y0060945D01*
X0042552Y0059346D02*
X0058031Y0059346D01*
X0059630Y0057748D02*
X0044150Y0057748D01*
X0066448Y0081726D02*
X0067435Y0081726D01*
X0058400Y0083324D02*
X0035429Y0083324D01*
X0034638Y0084923D02*
X0058400Y0084923D01*
X0058799Y0086521D02*
X0032789Y0086521D01*
X0048830Y0113696D02*
X0049789Y0113696D01*
X0049789Y0115294D02*
X0048830Y0115294D01*
X0048830Y0116893D02*
X0049789Y0116893D01*
X0048830Y0118491D02*
X0014100Y0118491D01*
X0014100Y0116893D02*
X0044951Y0116893D01*
X0044951Y0120090D02*
X0014100Y0120090D01*
X0014100Y0121688D02*
X0045071Y0121688D01*
X0048830Y0121688D02*
X0049789Y0121688D01*
X0049789Y0120090D02*
X0048830Y0120090D01*
X0053013Y0113696D02*
X0053370Y0113696D01*
X0113201Y0113696D02*
X0149000Y0113696D01*
X0149000Y0115294D02*
X0114155Y0115294D01*
X0114400Y0116893D02*
X0147692Y0116893D01*
X0147247Y0118491D02*
X0114078Y0118491D01*
X0113016Y0120090D02*
X0147247Y0120090D01*
X0147047Y0128520D02*
X0151320Y0128520D01*
X0151320Y0132399D01*
X0148610Y0132399D01*
X0148152Y0132277D01*
X0147742Y0132040D01*
X0147407Y0131704D01*
X0147170Y0131294D01*
X0147047Y0130836D01*
X0147047Y0128520D01*
X0147047Y0129681D02*
X0134851Y0129681D01*
X0134899Y0131279D02*
X0147166Y0131279D01*
X0151320Y0131279D02*
X0152280Y0131279D01*
X0152280Y0129681D02*
X0151320Y0129681D01*
X0131020Y0129681D02*
X0130061Y0129681D01*
X0130061Y0131279D02*
X0131020Y0131279D01*
X0118901Y0129681D02*
X0113641Y0129681D01*
X0061700Y0161651D02*
X0061300Y0161651D01*
X0061300Y0163250D02*
X0061700Y0163250D01*
X0061700Y0164848D02*
X0061300Y0164848D01*
X0061300Y0166447D02*
X0061700Y0166447D01*
X0061700Y0168045D02*
X0061300Y0168045D01*
X0061300Y0169644D02*
X0061700Y0169644D01*
X0215900Y0054551D02*
X0222253Y0054551D01*
X0221700Y0056149D02*
X0216948Y0056149D01*
X0218546Y0057748D02*
X0221714Y0057748D01*
X0222376Y0059346D02*
X0220145Y0059346D01*
X0221743Y0060945D02*
X0224286Y0060945D01*
X0224556Y0062543D02*
X0223342Y0062543D01*
X0223642Y0052952D02*
X0215900Y0052952D01*
X0173669Y0036967D02*
X0110266Y0036967D01*
X0108667Y0035369D02*
X0172805Y0035369D01*
X0172700Y0033770D02*
X0107068Y0033770D01*
X0105470Y0032172D02*
X0172700Y0032172D01*
X0172700Y0030573D02*
X0103871Y0030573D01*
X0102273Y0028975D02*
X0172700Y0028975D01*
X0172700Y0027376D02*
X0159205Y0027376D01*
X0161095Y0025778D02*
X0172505Y0025778D01*
X0171814Y0024179D02*
X0161786Y0024179D01*
X0161925Y0022581D02*
X0171675Y0022581D01*
X0171675Y0020982D02*
X0161925Y0020982D01*
X0161925Y0019384D02*
X0171675Y0019384D01*
X0171675Y0017785D02*
X0161925Y0017785D01*
X0161925Y0016187D02*
X0171675Y0016187D01*
X0171744Y0014588D02*
X0161856Y0014588D01*
X0161193Y0012990D02*
X0172406Y0012990D01*
X0173991Y0011391D02*
X0160900Y0011391D01*
X0152700Y0011391D02*
X0139609Y0011391D01*
X0141193Y0012990D02*
X0152406Y0012990D01*
X0151744Y0014588D02*
X0141856Y0014588D01*
X0141925Y0016187D02*
X0151675Y0016187D01*
X0151675Y0017785D02*
X0141925Y0017785D01*
X0141925Y0019384D02*
X0151675Y0019384D01*
X0151675Y0020982D02*
X0141925Y0020982D01*
X0141925Y0022581D02*
X0151675Y0022581D01*
X0151814Y0024179D02*
X0141786Y0024179D01*
X0141095Y0025778D02*
X0152505Y0025778D01*
X0154395Y0027376D02*
X0139205Y0027376D01*
X0134395Y0027376D02*
X0119205Y0027376D01*
X0121095Y0025778D02*
X0132505Y0025778D01*
X0131814Y0024179D02*
X0121786Y0024179D01*
X0121925Y0022581D02*
X0131675Y0022581D01*
X0131675Y0020982D02*
X0121925Y0020982D01*
X0121925Y0019384D02*
X0131675Y0019384D01*
X0131675Y0017785D02*
X0121925Y0017785D01*
X0121925Y0016187D02*
X0131675Y0016187D01*
X0131744Y0014588D02*
X0121856Y0014588D01*
X0121193Y0012990D02*
X0132406Y0012990D01*
X0133991Y0011391D02*
X0120900Y0011391D01*
X0112700Y0011391D02*
X0099609Y0011391D01*
X0101193Y0012990D02*
X0112406Y0012990D01*
X0111744Y0014588D02*
X0101856Y0014588D01*
X0101925Y0016187D02*
X0111675Y0016187D01*
X0111675Y0017785D02*
X0101925Y0017785D01*
X0101925Y0019384D02*
X0111675Y0019384D01*
X0111675Y0020982D02*
X0101925Y0020982D01*
X0101925Y0022581D02*
X0111675Y0022581D01*
X0111814Y0024179D02*
X0101786Y0024179D01*
X0101095Y0025778D02*
X0112505Y0025778D01*
X0114395Y0027376D02*
X0100900Y0027376D01*
X0136311Y0048157D02*
X0137270Y0048157D01*
X0137270Y0049755D02*
X0136311Y0049755D01*
X0141028Y0048157D02*
X0159882Y0048157D01*
D19*
X0194300Y0051800D03*
D20*
X0181800Y0039300D02*
X0176800Y0034300D01*
X0176800Y0019300D01*
X0194300Y0006800D02*
X0196800Y0009300D01*
X0196800Y0019300D01*
X0194300Y0006800D02*
X0156800Y0006800D01*
X0156800Y0019300D01*
X0156800Y0006800D02*
X0116800Y0006800D01*
X0116800Y0019300D01*
X0116800Y0006800D02*
X0081800Y0006800D01*
X0076800Y0011800D01*
X0076800Y0019300D01*
X0076800Y0034300D01*
X0071800Y0039300D01*
X0056800Y0039300D01*
X0034300Y0061800D01*
X0026800Y0061800D01*
X0096800Y0029300D02*
X0096800Y0019300D01*
X0096800Y0029300D02*
X0119300Y0051800D01*
X0119300Y0061800D01*
X0114300Y0066800D01*
X0106800Y0066800D01*
X0161800Y0069300D02*
X0161800Y0051800D01*
X0170560Y0051800D01*
X0181800Y0039300D02*
X0206800Y0039300D01*
X0211800Y0044300D01*
X0211800Y0056800D01*
X0221800Y0066800D01*
X0229300Y0066800D01*
X0174300Y0099300D02*
X0170540Y0095540D01*
X0170540Y0090530D01*
X0170560Y0076800D01*
X0166800Y0076800D01*
X0161800Y0071800D01*
X0161800Y0069300D01*
X0174300Y0099300D02*
X0174290Y0109300D01*
X0174290Y0121800D01*
X0174290Y0131790D01*
X0174300Y0131800D01*
D21*
X0166810Y0140110D02*
X0166810Y0121800D01*
X0151800Y0120560D02*
X0151800Y0094300D01*
X0151800Y0080540D01*
X0151800Y0073060D02*
X0158040Y0073060D01*
X0161800Y0069300D01*
X0178040Y0064300D02*
X0193050Y0064300D01*
X0194300Y0063050D01*
X0194300Y0070550D02*
X0188050Y0076800D01*
X0178040Y0076800D01*
X0181800Y0090550D02*
X0181800Y0140700D01*
X0174600Y0147900D01*
X0166810Y0140110D01*
X0174600Y0147900D02*
X0149000Y0147900D01*
X0139300Y0141800D02*
X0093200Y0141800D01*
X0087100Y0147900D01*
X0083060Y0143860D01*
X0083060Y0134300D01*
X0071800Y0134300D02*
X0071800Y0129300D01*
X0076800Y0124300D01*
X0090550Y0124300D01*
X0094300Y0120550D01*
X0094300Y0101800D01*
X0099300Y0096800D01*
X0126800Y0096800D01*
X0119300Y0076800D02*
X0113060Y0076790D01*
X0106800Y0076800D01*
X0119300Y0076800D02*
X0129300Y0066800D01*
X0129310Y0051800D01*
X0159300Y0109300D02*
X0166810Y0109300D01*
X0186800Y0109300D02*
X0186800Y0159300D01*
X0189300Y0161800D01*
X0198050Y0161800D01*
X0198050Y0151800D02*
X0195550Y0149300D01*
X0195550Y0109300D01*
X0229300Y0106800D02*
X0229290Y0095550D01*
X0229300Y0056800D02*
X0229290Y0051790D01*
X0229290Y0045550D01*
X0123060Y0133050D02*
X0113050Y0133050D01*
X0106800Y0126800D01*
X0087100Y0147900D02*
X0061500Y0147900D01*
X0061800Y0145700D01*
X0061800Y0134300D01*
X0058050Y0118050D02*
X0066800Y0109300D01*
X0058050Y0118050D02*
X0056790Y0118050D01*
D22*
X0151800Y0094300D03*
D23*
X0159300Y0109300D03*
X0181800Y0090550D03*
X0186800Y0109300D03*
X0195550Y0109300D03*
X0174300Y0131800D03*
X0139300Y0141800D03*
X0126800Y0096800D03*
X0161800Y0051800D03*
X0194300Y0063050D03*
X0194300Y0070550D03*
M02*
