G75*
%MOIN*%
%OFA0B0*%
%FSLAX25Y25*%
%IPPOS*%
%LPD*%
%AMOC8*
5,1,8,0,0,1.08239X$1,22.5*
%
%ADD10C,0.00000*%
%ADD11C,0.00300*%
%ADD12C,0.00500*%
%ADD13C,0.00600*%
%ADD14R,0.02400X0.03400*%
%ADD15C,0.00200*%
%ADD16C,0.01200*%
%ADD17C,0.00800*%
D10*
X0006600Y0001600D02*
X0006600Y0191561D01*
X0201551Y0191561D01*
X0201551Y0001600D01*
X0006600Y0001600D01*
X0020301Y0021600D02*
X0020303Y0021758D01*
X0020309Y0021916D01*
X0020319Y0022074D01*
X0020333Y0022232D01*
X0020351Y0022389D01*
X0020372Y0022546D01*
X0020398Y0022702D01*
X0020428Y0022858D01*
X0020461Y0023013D01*
X0020499Y0023166D01*
X0020540Y0023319D01*
X0020585Y0023471D01*
X0020634Y0023622D01*
X0020687Y0023771D01*
X0020743Y0023919D01*
X0020803Y0024065D01*
X0020867Y0024210D01*
X0020935Y0024353D01*
X0021006Y0024495D01*
X0021080Y0024635D01*
X0021158Y0024772D01*
X0021240Y0024908D01*
X0021324Y0025042D01*
X0021413Y0025173D01*
X0021504Y0025302D01*
X0021599Y0025429D01*
X0021696Y0025554D01*
X0021797Y0025676D01*
X0021901Y0025795D01*
X0022008Y0025912D01*
X0022118Y0026026D01*
X0022231Y0026137D01*
X0022346Y0026246D01*
X0022464Y0026351D01*
X0022585Y0026453D01*
X0022708Y0026553D01*
X0022834Y0026649D01*
X0022962Y0026742D01*
X0023092Y0026832D01*
X0023225Y0026918D01*
X0023360Y0027002D01*
X0023496Y0027081D01*
X0023635Y0027158D01*
X0023776Y0027230D01*
X0023918Y0027300D01*
X0024062Y0027365D01*
X0024208Y0027427D01*
X0024355Y0027485D01*
X0024504Y0027540D01*
X0024654Y0027591D01*
X0024805Y0027638D01*
X0024957Y0027681D01*
X0025110Y0027720D01*
X0025265Y0027756D01*
X0025420Y0027787D01*
X0025576Y0027815D01*
X0025732Y0027839D01*
X0025889Y0027859D01*
X0026047Y0027875D01*
X0026204Y0027887D01*
X0026363Y0027895D01*
X0026521Y0027899D01*
X0026679Y0027899D01*
X0026837Y0027895D01*
X0026996Y0027887D01*
X0027153Y0027875D01*
X0027311Y0027859D01*
X0027468Y0027839D01*
X0027624Y0027815D01*
X0027780Y0027787D01*
X0027935Y0027756D01*
X0028090Y0027720D01*
X0028243Y0027681D01*
X0028395Y0027638D01*
X0028546Y0027591D01*
X0028696Y0027540D01*
X0028845Y0027485D01*
X0028992Y0027427D01*
X0029138Y0027365D01*
X0029282Y0027300D01*
X0029424Y0027230D01*
X0029565Y0027158D01*
X0029704Y0027081D01*
X0029840Y0027002D01*
X0029975Y0026918D01*
X0030108Y0026832D01*
X0030238Y0026742D01*
X0030366Y0026649D01*
X0030492Y0026553D01*
X0030615Y0026453D01*
X0030736Y0026351D01*
X0030854Y0026246D01*
X0030969Y0026137D01*
X0031082Y0026026D01*
X0031192Y0025912D01*
X0031299Y0025795D01*
X0031403Y0025676D01*
X0031504Y0025554D01*
X0031601Y0025429D01*
X0031696Y0025302D01*
X0031787Y0025173D01*
X0031876Y0025042D01*
X0031960Y0024908D01*
X0032042Y0024772D01*
X0032120Y0024635D01*
X0032194Y0024495D01*
X0032265Y0024353D01*
X0032333Y0024210D01*
X0032397Y0024065D01*
X0032457Y0023919D01*
X0032513Y0023771D01*
X0032566Y0023622D01*
X0032615Y0023471D01*
X0032660Y0023319D01*
X0032701Y0023166D01*
X0032739Y0023013D01*
X0032772Y0022858D01*
X0032802Y0022702D01*
X0032828Y0022546D01*
X0032849Y0022389D01*
X0032867Y0022232D01*
X0032881Y0022074D01*
X0032891Y0021916D01*
X0032897Y0021758D01*
X0032899Y0021600D01*
X0032897Y0021442D01*
X0032891Y0021284D01*
X0032881Y0021126D01*
X0032867Y0020968D01*
X0032849Y0020811D01*
X0032828Y0020654D01*
X0032802Y0020498D01*
X0032772Y0020342D01*
X0032739Y0020187D01*
X0032701Y0020034D01*
X0032660Y0019881D01*
X0032615Y0019729D01*
X0032566Y0019578D01*
X0032513Y0019429D01*
X0032457Y0019281D01*
X0032397Y0019135D01*
X0032333Y0018990D01*
X0032265Y0018847D01*
X0032194Y0018705D01*
X0032120Y0018565D01*
X0032042Y0018428D01*
X0031960Y0018292D01*
X0031876Y0018158D01*
X0031787Y0018027D01*
X0031696Y0017898D01*
X0031601Y0017771D01*
X0031504Y0017646D01*
X0031403Y0017524D01*
X0031299Y0017405D01*
X0031192Y0017288D01*
X0031082Y0017174D01*
X0030969Y0017063D01*
X0030854Y0016954D01*
X0030736Y0016849D01*
X0030615Y0016747D01*
X0030492Y0016647D01*
X0030366Y0016551D01*
X0030238Y0016458D01*
X0030108Y0016368D01*
X0029975Y0016282D01*
X0029840Y0016198D01*
X0029704Y0016119D01*
X0029565Y0016042D01*
X0029424Y0015970D01*
X0029282Y0015900D01*
X0029138Y0015835D01*
X0028992Y0015773D01*
X0028845Y0015715D01*
X0028696Y0015660D01*
X0028546Y0015609D01*
X0028395Y0015562D01*
X0028243Y0015519D01*
X0028090Y0015480D01*
X0027935Y0015444D01*
X0027780Y0015413D01*
X0027624Y0015385D01*
X0027468Y0015361D01*
X0027311Y0015341D01*
X0027153Y0015325D01*
X0026996Y0015313D01*
X0026837Y0015305D01*
X0026679Y0015301D01*
X0026521Y0015301D01*
X0026363Y0015305D01*
X0026204Y0015313D01*
X0026047Y0015325D01*
X0025889Y0015341D01*
X0025732Y0015361D01*
X0025576Y0015385D01*
X0025420Y0015413D01*
X0025265Y0015444D01*
X0025110Y0015480D01*
X0024957Y0015519D01*
X0024805Y0015562D01*
X0024654Y0015609D01*
X0024504Y0015660D01*
X0024355Y0015715D01*
X0024208Y0015773D01*
X0024062Y0015835D01*
X0023918Y0015900D01*
X0023776Y0015970D01*
X0023635Y0016042D01*
X0023496Y0016119D01*
X0023360Y0016198D01*
X0023225Y0016282D01*
X0023092Y0016368D01*
X0022962Y0016458D01*
X0022834Y0016551D01*
X0022708Y0016647D01*
X0022585Y0016747D01*
X0022464Y0016849D01*
X0022346Y0016954D01*
X0022231Y0017063D01*
X0022118Y0017174D01*
X0022008Y0017288D01*
X0021901Y0017405D01*
X0021797Y0017524D01*
X0021696Y0017646D01*
X0021599Y0017771D01*
X0021504Y0017898D01*
X0021413Y0018027D01*
X0021324Y0018158D01*
X0021240Y0018292D01*
X0021158Y0018428D01*
X0021080Y0018565D01*
X0021006Y0018705D01*
X0020935Y0018847D01*
X0020867Y0018990D01*
X0020803Y0019135D01*
X0020743Y0019281D01*
X0020687Y0019429D01*
X0020634Y0019578D01*
X0020585Y0019729D01*
X0020540Y0019881D01*
X0020499Y0020034D01*
X0020461Y0020187D01*
X0020428Y0020342D01*
X0020398Y0020498D01*
X0020372Y0020654D01*
X0020351Y0020811D01*
X0020333Y0020968D01*
X0020319Y0021126D01*
X0020309Y0021284D01*
X0020303Y0021442D01*
X0020301Y0021600D01*
X0020301Y0171600D02*
X0020303Y0171758D01*
X0020309Y0171916D01*
X0020319Y0172074D01*
X0020333Y0172232D01*
X0020351Y0172389D01*
X0020372Y0172546D01*
X0020398Y0172702D01*
X0020428Y0172858D01*
X0020461Y0173013D01*
X0020499Y0173166D01*
X0020540Y0173319D01*
X0020585Y0173471D01*
X0020634Y0173622D01*
X0020687Y0173771D01*
X0020743Y0173919D01*
X0020803Y0174065D01*
X0020867Y0174210D01*
X0020935Y0174353D01*
X0021006Y0174495D01*
X0021080Y0174635D01*
X0021158Y0174772D01*
X0021240Y0174908D01*
X0021324Y0175042D01*
X0021413Y0175173D01*
X0021504Y0175302D01*
X0021599Y0175429D01*
X0021696Y0175554D01*
X0021797Y0175676D01*
X0021901Y0175795D01*
X0022008Y0175912D01*
X0022118Y0176026D01*
X0022231Y0176137D01*
X0022346Y0176246D01*
X0022464Y0176351D01*
X0022585Y0176453D01*
X0022708Y0176553D01*
X0022834Y0176649D01*
X0022962Y0176742D01*
X0023092Y0176832D01*
X0023225Y0176918D01*
X0023360Y0177002D01*
X0023496Y0177081D01*
X0023635Y0177158D01*
X0023776Y0177230D01*
X0023918Y0177300D01*
X0024062Y0177365D01*
X0024208Y0177427D01*
X0024355Y0177485D01*
X0024504Y0177540D01*
X0024654Y0177591D01*
X0024805Y0177638D01*
X0024957Y0177681D01*
X0025110Y0177720D01*
X0025265Y0177756D01*
X0025420Y0177787D01*
X0025576Y0177815D01*
X0025732Y0177839D01*
X0025889Y0177859D01*
X0026047Y0177875D01*
X0026204Y0177887D01*
X0026363Y0177895D01*
X0026521Y0177899D01*
X0026679Y0177899D01*
X0026837Y0177895D01*
X0026996Y0177887D01*
X0027153Y0177875D01*
X0027311Y0177859D01*
X0027468Y0177839D01*
X0027624Y0177815D01*
X0027780Y0177787D01*
X0027935Y0177756D01*
X0028090Y0177720D01*
X0028243Y0177681D01*
X0028395Y0177638D01*
X0028546Y0177591D01*
X0028696Y0177540D01*
X0028845Y0177485D01*
X0028992Y0177427D01*
X0029138Y0177365D01*
X0029282Y0177300D01*
X0029424Y0177230D01*
X0029565Y0177158D01*
X0029704Y0177081D01*
X0029840Y0177002D01*
X0029975Y0176918D01*
X0030108Y0176832D01*
X0030238Y0176742D01*
X0030366Y0176649D01*
X0030492Y0176553D01*
X0030615Y0176453D01*
X0030736Y0176351D01*
X0030854Y0176246D01*
X0030969Y0176137D01*
X0031082Y0176026D01*
X0031192Y0175912D01*
X0031299Y0175795D01*
X0031403Y0175676D01*
X0031504Y0175554D01*
X0031601Y0175429D01*
X0031696Y0175302D01*
X0031787Y0175173D01*
X0031876Y0175042D01*
X0031960Y0174908D01*
X0032042Y0174772D01*
X0032120Y0174635D01*
X0032194Y0174495D01*
X0032265Y0174353D01*
X0032333Y0174210D01*
X0032397Y0174065D01*
X0032457Y0173919D01*
X0032513Y0173771D01*
X0032566Y0173622D01*
X0032615Y0173471D01*
X0032660Y0173319D01*
X0032701Y0173166D01*
X0032739Y0173013D01*
X0032772Y0172858D01*
X0032802Y0172702D01*
X0032828Y0172546D01*
X0032849Y0172389D01*
X0032867Y0172232D01*
X0032881Y0172074D01*
X0032891Y0171916D01*
X0032897Y0171758D01*
X0032899Y0171600D01*
X0032897Y0171442D01*
X0032891Y0171284D01*
X0032881Y0171126D01*
X0032867Y0170968D01*
X0032849Y0170811D01*
X0032828Y0170654D01*
X0032802Y0170498D01*
X0032772Y0170342D01*
X0032739Y0170187D01*
X0032701Y0170034D01*
X0032660Y0169881D01*
X0032615Y0169729D01*
X0032566Y0169578D01*
X0032513Y0169429D01*
X0032457Y0169281D01*
X0032397Y0169135D01*
X0032333Y0168990D01*
X0032265Y0168847D01*
X0032194Y0168705D01*
X0032120Y0168565D01*
X0032042Y0168428D01*
X0031960Y0168292D01*
X0031876Y0168158D01*
X0031787Y0168027D01*
X0031696Y0167898D01*
X0031601Y0167771D01*
X0031504Y0167646D01*
X0031403Y0167524D01*
X0031299Y0167405D01*
X0031192Y0167288D01*
X0031082Y0167174D01*
X0030969Y0167063D01*
X0030854Y0166954D01*
X0030736Y0166849D01*
X0030615Y0166747D01*
X0030492Y0166647D01*
X0030366Y0166551D01*
X0030238Y0166458D01*
X0030108Y0166368D01*
X0029975Y0166282D01*
X0029840Y0166198D01*
X0029704Y0166119D01*
X0029565Y0166042D01*
X0029424Y0165970D01*
X0029282Y0165900D01*
X0029138Y0165835D01*
X0028992Y0165773D01*
X0028845Y0165715D01*
X0028696Y0165660D01*
X0028546Y0165609D01*
X0028395Y0165562D01*
X0028243Y0165519D01*
X0028090Y0165480D01*
X0027935Y0165444D01*
X0027780Y0165413D01*
X0027624Y0165385D01*
X0027468Y0165361D01*
X0027311Y0165341D01*
X0027153Y0165325D01*
X0026996Y0165313D01*
X0026837Y0165305D01*
X0026679Y0165301D01*
X0026521Y0165301D01*
X0026363Y0165305D01*
X0026204Y0165313D01*
X0026047Y0165325D01*
X0025889Y0165341D01*
X0025732Y0165361D01*
X0025576Y0165385D01*
X0025420Y0165413D01*
X0025265Y0165444D01*
X0025110Y0165480D01*
X0024957Y0165519D01*
X0024805Y0165562D01*
X0024654Y0165609D01*
X0024504Y0165660D01*
X0024355Y0165715D01*
X0024208Y0165773D01*
X0024062Y0165835D01*
X0023918Y0165900D01*
X0023776Y0165970D01*
X0023635Y0166042D01*
X0023496Y0166119D01*
X0023360Y0166198D01*
X0023225Y0166282D01*
X0023092Y0166368D01*
X0022962Y0166458D01*
X0022834Y0166551D01*
X0022708Y0166647D01*
X0022585Y0166747D01*
X0022464Y0166849D01*
X0022346Y0166954D01*
X0022231Y0167063D01*
X0022118Y0167174D01*
X0022008Y0167288D01*
X0021901Y0167405D01*
X0021797Y0167524D01*
X0021696Y0167646D01*
X0021599Y0167771D01*
X0021504Y0167898D01*
X0021413Y0168027D01*
X0021324Y0168158D01*
X0021240Y0168292D01*
X0021158Y0168428D01*
X0021080Y0168565D01*
X0021006Y0168705D01*
X0020935Y0168847D01*
X0020867Y0168990D01*
X0020803Y0169135D01*
X0020743Y0169281D01*
X0020687Y0169429D01*
X0020634Y0169578D01*
X0020585Y0169729D01*
X0020540Y0169881D01*
X0020499Y0170034D01*
X0020461Y0170187D01*
X0020428Y0170342D01*
X0020398Y0170498D01*
X0020372Y0170654D01*
X0020351Y0170811D01*
X0020333Y0170968D01*
X0020319Y0171126D01*
X0020309Y0171284D01*
X0020303Y0171442D01*
X0020301Y0171600D01*
X0175301Y0171600D02*
X0175303Y0171758D01*
X0175309Y0171916D01*
X0175319Y0172074D01*
X0175333Y0172232D01*
X0175351Y0172389D01*
X0175372Y0172546D01*
X0175398Y0172702D01*
X0175428Y0172858D01*
X0175461Y0173013D01*
X0175499Y0173166D01*
X0175540Y0173319D01*
X0175585Y0173471D01*
X0175634Y0173622D01*
X0175687Y0173771D01*
X0175743Y0173919D01*
X0175803Y0174065D01*
X0175867Y0174210D01*
X0175935Y0174353D01*
X0176006Y0174495D01*
X0176080Y0174635D01*
X0176158Y0174772D01*
X0176240Y0174908D01*
X0176324Y0175042D01*
X0176413Y0175173D01*
X0176504Y0175302D01*
X0176599Y0175429D01*
X0176696Y0175554D01*
X0176797Y0175676D01*
X0176901Y0175795D01*
X0177008Y0175912D01*
X0177118Y0176026D01*
X0177231Y0176137D01*
X0177346Y0176246D01*
X0177464Y0176351D01*
X0177585Y0176453D01*
X0177708Y0176553D01*
X0177834Y0176649D01*
X0177962Y0176742D01*
X0178092Y0176832D01*
X0178225Y0176918D01*
X0178360Y0177002D01*
X0178496Y0177081D01*
X0178635Y0177158D01*
X0178776Y0177230D01*
X0178918Y0177300D01*
X0179062Y0177365D01*
X0179208Y0177427D01*
X0179355Y0177485D01*
X0179504Y0177540D01*
X0179654Y0177591D01*
X0179805Y0177638D01*
X0179957Y0177681D01*
X0180110Y0177720D01*
X0180265Y0177756D01*
X0180420Y0177787D01*
X0180576Y0177815D01*
X0180732Y0177839D01*
X0180889Y0177859D01*
X0181047Y0177875D01*
X0181204Y0177887D01*
X0181363Y0177895D01*
X0181521Y0177899D01*
X0181679Y0177899D01*
X0181837Y0177895D01*
X0181996Y0177887D01*
X0182153Y0177875D01*
X0182311Y0177859D01*
X0182468Y0177839D01*
X0182624Y0177815D01*
X0182780Y0177787D01*
X0182935Y0177756D01*
X0183090Y0177720D01*
X0183243Y0177681D01*
X0183395Y0177638D01*
X0183546Y0177591D01*
X0183696Y0177540D01*
X0183845Y0177485D01*
X0183992Y0177427D01*
X0184138Y0177365D01*
X0184282Y0177300D01*
X0184424Y0177230D01*
X0184565Y0177158D01*
X0184704Y0177081D01*
X0184840Y0177002D01*
X0184975Y0176918D01*
X0185108Y0176832D01*
X0185238Y0176742D01*
X0185366Y0176649D01*
X0185492Y0176553D01*
X0185615Y0176453D01*
X0185736Y0176351D01*
X0185854Y0176246D01*
X0185969Y0176137D01*
X0186082Y0176026D01*
X0186192Y0175912D01*
X0186299Y0175795D01*
X0186403Y0175676D01*
X0186504Y0175554D01*
X0186601Y0175429D01*
X0186696Y0175302D01*
X0186787Y0175173D01*
X0186876Y0175042D01*
X0186960Y0174908D01*
X0187042Y0174772D01*
X0187120Y0174635D01*
X0187194Y0174495D01*
X0187265Y0174353D01*
X0187333Y0174210D01*
X0187397Y0174065D01*
X0187457Y0173919D01*
X0187513Y0173771D01*
X0187566Y0173622D01*
X0187615Y0173471D01*
X0187660Y0173319D01*
X0187701Y0173166D01*
X0187739Y0173013D01*
X0187772Y0172858D01*
X0187802Y0172702D01*
X0187828Y0172546D01*
X0187849Y0172389D01*
X0187867Y0172232D01*
X0187881Y0172074D01*
X0187891Y0171916D01*
X0187897Y0171758D01*
X0187899Y0171600D01*
X0187897Y0171442D01*
X0187891Y0171284D01*
X0187881Y0171126D01*
X0187867Y0170968D01*
X0187849Y0170811D01*
X0187828Y0170654D01*
X0187802Y0170498D01*
X0187772Y0170342D01*
X0187739Y0170187D01*
X0187701Y0170034D01*
X0187660Y0169881D01*
X0187615Y0169729D01*
X0187566Y0169578D01*
X0187513Y0169429D01*
X0187457Y0169281D01*
X0187397Y0169135D01*
X0187333Y0168990D01*
X0187265Y0168847D01*
X0187194Y0168705D01*
X0187120Y0168565D01*
X0187042Y0168428D01*
X0186960Y0168292D01*
X0186876Y0168158D01*
X0186787Y0168027D01*
X0186696Y0167898D01*
X0186601Y0167771D01*
X0186504Y0167646D01*
X0186403Y0167524D01*
X0186299Y0167405D01*
X0186192Y0167288D01*
X0186082Y0167174D01*
X0185969Y0167063D01*
X0185854Y0166954D01*
X0185736Y0166849D01*
X0185615Y0166747D01*
X0185492Y0166647D01*
X0185366Y0166551D01*
X0185238Y0166458D01*
X0185108Y0166368D01*
X0184975Y0166282D01*
X0184840Y0166198D01*
X0184704Y0166119D01*
X0184565Y0166042D01*
X0184424Y0165970D01*
X0184282Y0165900D01*
X0184138Y0165835D01*
X0183992Y0165773D01*
X0183845Y0165715D01*
X0183696Y0165660D01*
X0183546Y0165609D01*
X0183395Y0165562D01*
X0183243Y0165519D01*
X0183090Y0165480D01*
X0182935Y0165444D01*
X0182780Y0165413D01*
X0182624Y0165385D01*
X0182468Y0165361D01*
X0182311Y0165341D01*
X0182153Y0165325D01*
X0181996Y0165313D01*
X0181837Y0165305D01*
X0181679Y0165301D01*
X0181521Y0165301D01*
X0181363Y0165305D01*
X0181204Y0165313D01*
X0181047Y0165325D01*
X0180889Y0165341D01*
X0180732Y0165361D01*
X0180576Y0165385D01*
X0180420Y0165413D01*
X0180265Y0165444D01*
X0180110Y0165480D01*
X0179957Y0165519D01*
X0179805Y0165562D01*
X0179654Y0165609D01*
X0179504Y0165660D01*
X0179355Y0165715D01*
X0179208Y0165773D01*
X0179062Y0165835D01*
X0178918Y0165900D01*
X0178776Y0165970D01*
X0178635Y0166042D01*
X0178496Y0166119D01*
X0178360Y0166198D01*
X0178225Y0166282D01*
X0178092Y0166368D01*
X0177962Y0166458D01*
X0177834Y0166551D01*
X0177708Y0166647D01*
X0177585Y0166747D01*
X0177464Y0166849D01*
X0177346Y0166954D01*
X0177231Y0167063D01*
X0177118Y0167174D01*
X0177008Y0167288D01*
X0176901Y0167405D01*
X0176797Y0167524D01*
X0176696Y0167646D01*
X0176599Y0167771D01*
X0176504Y0167898D01*
X0176413Y0168027D01*
X0176324Y0168158D01*
X0176240Y0168292D01*
X0176158Y0168428D01*
X0176080Y0168565D01*
X0176006Y0168705D01*
X0175935Y0168847D01*
X0175867Y0168990D01*
X0175803Y0169135D01*
X0175743Y0169281D01*
X0175687Y0169429D01*
X0175634Y0169578D01*
X0175585Y0169729D01*
X0175540Y0169881D01*
X0175499Y0170034D01*
X0175461Y0170187D01*
X0175428Y0170342D01*
X0175398Y0170498D01*
X0175372Y0170654D01*
X0175351Y0170811D01*
X0175333Y0170968D01*
X0175319Y0171126D01*
X0175309Y0171284D01*
X0175303Y0171442D01*
X0175301Y0171600D01*
X0175301Y0021600D02*
X0175303Y0021758D01*
X0175309Y0021916D01*
X0175319Y0022074D01*
X0175333Y0022232D01*
X0175351Y0022389D01*
X0175372Y0022546D01*
X0175398Y0022702D01*
X0175428Y0022858D01*
X0175461Y0023013D01*
X0175499Y0023166D01*
X0175540Y0023319D01*
X0175585Y0023471D01*
X0175634Y0023622D01*
X0175687Y0023771D01*
X0175743Y0023919D01*
X0175803Y0024065D01*
X0175867Y0024210D01*
X0175935Y0024353D01*
X0176006Y0024495D01*
X0176080Y0024635D01*
X0176158Y0024772D01*
X0176240Y0024908D01*
X0176324Y0025042D01*
X0176413Y0025173D01*
X0176504Y0025302D01*
X0176599Y0025429D01*
X0176696Y0025554D01*
X0176797Y0025676D01*
X0176901Y0025795D01*
X0177008Y0025912D01*
X0177118Y0026026D01*
X0177231Y0026137D01*
X0177346Y0026246D01*
X0177464Y0026351D01*
X0177585Y0026453D01*
X0177708Y0026553D01*
X0177834Y0026649D01*
X0177962Y0026742D01*
X0178092Y0026832D01*
X0178225Y0026918D01*
X0178360Y0027002D01*
X0178496Y0027081D01*
X0178635Y0027158D01*
X0178776Y0027230D01*
X0178918Y0027300D01*
X0179062Y0027365D01*
X0179208Y0027427D01*
X0179355Y0027485D01*
X0179504Y0027540D01*
X0179654Y0027591D01*
X0179805Y0027638D01*
X0179957Y0027681D01*
X0180110Y0027720D01*
X0180265Y0027756D01*
X0180420Y0027787D01*
X0180576Y0027815D01*
X0180732Y0027839D01*
X0180889Y0027859D01*
X0181047Y0027875D01*
X0181204Y0027887D01*
X0181363Y0027895D01*
X0181521Y0027899D01*
X0181679Y0027899D01*
X0181837Y0027895D01*
X0181996Y0027887D01*
X0182153Y0027875D01*
X0182311Y0027859D01*
X0182468Y0027839D01*
X0182624Y0027815D01*
X0182780Y0027787D01*
X0182935Y0027756D01*
X0183090Y0027720D01*
X0183243Y0027681D01*
X0183395Y0027638D01*
X0183546Y0027591D01*
X0183696Y0027540D01*
X0183845Y0027485D01*
X0183992Y0027427D01*
X0184138Y0027365D01*
X0184282Y0027300D01*
X0184424Y0027230D01*
X0184565Y0027158D01*
X0184704Y0027081D01*
X0184840Y0027002D01*
X0184975Y0026918D01*
X0185108Y0026832D01*
X0185238Y0026742D01*
X0185366Y0026649D01*
X0185492Y0026553D01*
X0185615Y0026453D01*
X0185736Y0026351D01*
X0185854Y0026246D01*
X0185969Y0026137D01*
X0186082Y0026026D01*
X0186192Y0025912D01*
X0186299Y0025795D01*
X0186403Y0025676D01*
X0186504Y0025554D01*
X0186601Y0025429D01*
X0186696Y0025302D01*
X0186787Y0025173D01*
X0186876Y0025042D01*
X0186960Y0024908D01*
X0187042Y0024772D01*
X0187120Y0024635D01*
X0187194Y0024495D01*
X0187265Y0024353D01*
X0187333Y0024210D01*
X0187397Y0024065D01*
X0187457Y0023919D01*
X0187513Y0023771D01*
X0187566Y0023622D01*
X0187615Y0023471D01*
X0187660Y0023319D01*
X0187701Y0023166D01*
X0187739Y0023013D01*
X0187772Y0022858D01*
X0187802Y0022702D01*
X0187828Y0022546D01*
X0187849Y0022389D01*
X0187867Y0022232D01*
X0187881Y0022074D01*
X0187891Y0021916D01*
X0187897Y0021758D01*
X0187899Y0021600D01*
X0187897Y0021442D01*
X0187891Y0021284D01*
X0187881Y0021126D01*
X0187867Y0020968D01*
X0187849Y0020811D01*
X0187828Y0020654D01*
X0187802Y0020498D01*
X0187772Y0020342D01*
X0187739Y0020187D01*
X0187701Y0020034D01*
X0187660Y0019881D01*
X0187615Y0019729D01*
X0187566Y0019578D01*
X0187513Y0019429D01*
X0187457Y0019281D01*
X0187397Y0019135D01*
X0187333Y0018990D01*
X0187265Y0018847D01*
X0187194Y0018705D01*
X0187120Y0018565D01*
X0187042Y0018428D01*
X0186960Y0018292D01*
X0186876Y0018158D01*
X0186787Y0018027D01*
X0186696Y0017898D01*
X0186601Y0017771D01*
X0186504Y0017646D01*
X0186403Y0017524D01*
X0186299Y0017405D01*
X0186192Y0017288D01*
X0186082Y0017174D01*
X0185969Y0017063D01*
X0185854Y0016954D01*
X0185736Y0016849D01*
X0185615Y0016747D01*
X0185492Y0016647D01*
X0185366Y0016551D01*
X0185238Y0016458D01*
X0185108Y0016368D01*
X0184975Y0016282D01*
X0184840Y0016198D01*
X0184704Y0016119D01*
X0184565Y0016042D01*
X0184424Y0015970D01*
X0184282Y0015900D01*
X0184138Y0015835D01*
X0183992Y0015773D01*
X0183845Y0015715D01*
X0183696Y0015660D01*
X0183546Y0015609D01*
X0183395Y0015562D01*
X0183243Y0015519D01*
X0183090Y0015480D01*
X0182935Y0015444D01*
X0182780Y0015413D01*
X0182624Y0015385D01*
X0182468Y0015361D01*
X0182311Y0015341D01*
X0182153Y0015325D01*
X0181996Y0015313D01*
X0181837Y0015305D01*
X0181679Y0015301D01*
X0181521Y0015301D01*
X0181363Y0015305D01*
X0181204Y0015313D01*
X0181047Y0015325D01*
X0180889Y0015341D01*
X0180732Y0015361D01*
X0180576Y0015385D01*
X0180420Y0015413D01*
X0180265Y0015444D01*
X0180110Y0015480D01*
X0179957Y0015519D01*
X0179805Y0015562D01*
X0179654Y0015609D01*
X0179504Y0015660D01*
X0179355Y0015715D01*
X0179208Y0015773D01*
X0179062Y0015835D01*
X0178918Y0015900D01*
X0178776Y0015970D01*
X0178635Y0016042D01*
X0178496Y0016119D01*
X0178360Y0016198D01*
X0178225Y0016282D01*
X0178092Y0016368D01*
X0177962Y0016458D01*
X0177834Y0016551D01*
X0177708Y0016647D01*
X0177585Y0016747D01*
X0177464Y0016849D01*
X0177346Y0016954D01*
X0177231Y0017063D01*
X0177118Y0017174D01*
X0177008Y0017288D01*
X0176901Y0017405D01*
X0176797Y0017524D01*
X0176696Y0017646D01*
X0176599Y0017771D01*
X0176504Y0017898D01*
X0176413Y0018027D01*
X0176324Y0018158D01*
X0176240Y0018292D01*
X0176158Y0018428D01*
X0176080Y0018565D01*
X0176006Y0018705D01*
X0175935Y0018847D01*
X0175867Y0018990D01*
X0175803Y0019135D01*
X0175743Y0019281D01*
X0175687Y0019429D01*
X0175634Y0019578D01*
X0175585Y0019729D01*
X0175540Y0019881D01*
X0175499Y0020034D01*
X0175461Y0020187D01*
X0175428Y0020342D01*
X0175398Y0020498D01*
X0175372Y0020654D01*
X0175351Y0020811D01*
X0175333Y0020968D01*
X0175319Y0021126D01*
X0175309Y0021284D01*
X0175303Y0021442D01*
X0175301Y0021600D01*
D11*
X0175694Y0040351D02*
X0173759Y0040351D01*
X0166854Y0039384D02*
X0166854Y0041319D01*
X0166371Y0041802D01*
X0165403Y0041802D01*
X0164919Y0041319D01*
X0164919Y0039384D01*
X0165403Y0038900D01*
X0166371Y0038900D01*
X0166854Y0039384D01*
X0163922Y0038900D02*
X0162955Y0038900D01*
X0163439Y0038900D02*
X0163439Y0041802D01*
X0163922Y0041802D02*
X0162955Y0041802D01*
X0182598Y0040351D02*
X0184533Y0040351D01*
X0183566Y0039384D02*
X0183566Y0041319D01*
X0193447Y0048134D02*
X0193930Y0047650D01*
X0194898Y0047650D01*
X0195381Y0048134D01*
X0195381Y0049101D01*
X0194898Y0049585D01*
X0194414Y0049585D01*
X0193447Y0049101D01*
X0193447Y0050552D01*
X0195381Y0050552D01*
X0194898Y0057650D02*
X0195381Y0058134D01*
X0195381Y0060069D01*
X0194898Y0060552D01*
X0193447Y0060552D01*
X0193447Y0057650D01*
X0194898Y0057650D01*
X0196393Y0058134D02*
X0196877Y0057650D01*
X0197844Y0057650D01*
X0198328Y0058134D01*
X0198328Y0060069D02*
X0197844Y0060552D01*
X0196877Y0060552D01*
X0196393Y0060069D01*
X0196393Y0058134D01*
X0192435Y0057650D02*
X0192435Y0059585D01*
X0191467Y0060552D01*
X0190500Y0059585D01*
X0190500Y0057650D01*
X0190500Y0059101D02*
X0192435Y0059101D01*
X0194898Y0067650D02*
X0194898Y0070552D01*
X0193447Y0069101D01*
X0195381Y0069101D01*
X0194898Y0077650D02*
X0195381Y0078134D01*
X0195381Y0078617D01*
X0194898Y0079101D01*
X0193447Y0079101D01*
X0193447Y0078134D01*
X0193930Y0077650D01*
X0194898Y0077650D01*
X0193447Y0079101D02*
X0194414Y0080069D01*
X0195381Y0080552D01*
X0191467Y0080552D02*
X0191467Y0077650D01*
X0190500Y0077650D02*
X0192435Y0077650D01*
X0190500Y0079585D02*
X0191467Y0080552D01*
X0191467Y0087650D02*
X0191467Y0090552D01*
X0190500Y0089585D01*
X0190500Y0087650D02*
X0192435Y0087650D01*
X0193447Y0089101D02*
X0195381Y0089101D01*
X0194898Y0087650D02*
X0194898Y0090552D01*
X0193447Y0089101D01*
X0193447Y0097650D02*
X0195381Y0099585D01*
X0195381Y0100069D01*
X0194898Y0100552D01*
X0193930Y0100552D01*
X0193447Y0100069D01*
X0191467Y0100552D02*
X0191467Y0097650D01*
X0190500Y0097650D02*
X0192435Y0097650D01*
X0193447Y0097650D02*
X0195381Y0097650D01*
X0191467Y0100552D02*
X0190500Y0099585D01*
X0190500Y0107650D02*
X0192435Y0107650D01*
X0191467Y0107650D02*
X0191467Y0110552D01*
X0190500Y0109585D01*
X0193447Y0110069D02*
X0193930Y0110552D01*
X0194898Y0110552D01*
X0195381Y0110069D01*
X0195381Y0109585D01*
X0194898Y0109101D01*
X0195381Y0108617D01*
X0195381Y0108134D01*
X0194898Y0107650D01*
X0193930Y0107650D01*
X0193447Y0108134D01*
X0194414Y0109101D02*
X0194898Y0109101D01*
X0194898Y0117650D02*
X0193930Y0117650D01*
X0193447Y0118134D01*
X0193447Y0119101D02*
X0194414Y0119585D01*
X0194898Y0119585D01*
X0195381Y0119101D01*
X0195381Y0118134D01*
X0194898Y0117650D01*
X0193447Y0119101D02*
X0193447Y0120552D01*
X0195381Y0120552D01*
X0191467Y0120552D02*
X0191467Y0117650D01*
X0190500Y0117650D02*
X0192435Y0117650D01*
X0190500Y0119585D02*
X0191467Y0120552D01*
X0185605Y0136400D02*
X0185605Y0137851D01*
X0185121Y0138335D01*
X0183670Y0138335D01*
X0183670Y0136400D01*
X0182658Y0137367D02*
X0180723Y0137367D01*
X0180723Y0136884D02*
X0180723Y0137851D01*
X0181207Y0138335D01*
X0182174Y0138335D01*
X0182658Y0137851D01*
X0182658Y0137367D01*
X0182174Y0136400D02*
X0181207Y0136400D01*
X0180723Y0136884D01*
X0179712Y0135916D02*
X0177777Y0135916D01*
X0176765Y0136884D02*
X0176281Y0137367D01*
X0175314Y0137367D01*
X0174830Y0137851D01*
X0175314Y0138335D01*
X0176765Y0138335D01*
X0176765Y0136884D02*
X0176281Y0136400D01*
X0174830Y0136400D01*
X0173819Y0136400D02*
X0172367Y0136400D01*
X0171884Y0136884D01*
X0171884Y0137851D01*
X0172367Y0138335D01*
X0173819Y0138335D01*
X0173819Y0139302D02*
X0173819Y0136400D01*
X0134083Y0091719D02*
X0134700Y0091102D01*
X0134700Y0089867D01*
X0134083Y0089250D01*
X0132848Y0089250D02*
X0132231Y0090484D01*
X0132231Y0091102D01*
X0132848Y0091719D01*
X0134083Y0091719D01*
X0132848Y0089250D02*
X0130997Y0089250D01*
X0130997Y0091719D01*
X0131614Y0088036D02*
X0132848Y0088036D01*
X0133466Y0087418D01*
X0133466Y0085567D01*
X0134700Y0085567D02*
X0130997Y0085567D01*
X0130997Y0087418D01*
X0131614Y0088036D01*
X0133466Y0086801D02*
X0134700Y0088036D01*
X0122200Y0088036D02*
X0120966Y0086801D01*
X0120966Y0087418D02*
X0120966Y0085567D01*
X0122200Y0085567D02*
X0118497Y0085567D01*
X0118497Y0087418D01*
X0119114Y0088036D01*
X0120348Y0088036D01*
X0120966Y0087418D01*
X0120348Y0089250D02*
X0120348Y0091719D01*
X0118497Y0091102D02*
X0120348Y0089250D01*
X0118497Y0091102D02*
X0122200Y0091102D01*
X0111719Y0087836D02*
X0111102Y0088453D01*
X0109867Y0088453D01*
X0109250Y0087836D01*
X0108036Y0087836D02*
X0107418Y0088453D01*
X0106184Y0088453D01*
X0105567Y0087836D01*
X0105567Y0085367D01*
X0106184Y0084750D01*
X0107418Y0084750D01*
X0108036Y0085367D01*
X0109250Y0084750D02*
X0111719Y0087219D01*
X0111719Y0087836D01*
X0111719Y0084750D02*
X0109250Y0084750D01*
X0099700Y0085567D02*
X0095997Y0085567D01*
X0095997Y0087418D01*
X0096614Y0088036D01*
X0097848Y0088036D01*
X0098466Y0087418D01*
X0098466Y0085567D01*
X0098466Y0086801D02*
X0099700Y0088036D01*
X0099083Y0089250D02*
X0099700Y0089867D01*
X0099700Y0091102D01*
X0099083Y0091719D01*
X0098466Y0091719D01*
X0097848Y0091102D01*
X0097848Y0090484D01*
X0097848Y0091102D02*
X0097231Y0091719D01*
X0096614Y0091719D01*
X0095997Y0091102D01*
X0095997Y0089867D01*
X0096614Y0089250D01*
X0088450Y0089250D02*
X0085981Y0091719D01*
X0085364Y0091719D01*
X0084747Y0091102D01*
X0084747Y0089867D01*
X0085364Y0089250D01*
X0085364Y0088036D02*
X0084747Y0087418D01*
X0084747Y0085567D01*
X0088450Y0085567D01*
X0087216Y0085567D02*
X0087216Y0087418D01*
X0086598Y0088036D01*
X0085364Y0088036D01*
X0087216Y0086801D02*
X0088450Y0088036D01*
X0088450Y0089250D02*
X0088450Y0091719D01*
X0077200Y0095567D02*
X0073497Y0095567D01*
X0073497Y0097418D01*
X0074114Y0098036D01*
X0075348Y0098036D01*
X0075966Y0097418D01*
X0075966Y0095567D01*
X0075966Y0096801D02*
X0077200Y0098036D01*
X0077200Y0099250D02*
X0077200Y0101719D01*
X0077200Y0100484D02*
X0073497Y0100484D01*
X0074731Y0099250D01*
X0050738Y0099101D02*
X0048803Y0099101D01*
X0047792Y0099101D02*
X0047792Y0097650D01*
X0047792Y0099101D02*
X0047308Y0099585D01*
X0045857Y0099585D01*
X0045857Y0097650D01*
X0044860Y0097650D02*
X0043893Y0097650D01*
X0044376Y0097650D02*
X0044376Y0100552D01*
X0043893Y0100552D02*
X0044860Y0100552D01*
X0049098Y0119473D02*
X0049098Y0121942D01*
X0047864Y0120707D02*
X0050333Y0120707D01*
X0049716Y0126839D02*
X0047247Y0126839D01*
X0049716Y0126839D02*
X0050950Y0128074D01*
X0049716Y0129308D01*
X0047247Y0129308D01*
X0047247Y0130522D02*
X0047247Y0131757D01*
X0047247Y0131139D02*
X0050950Y0131139D01*
X0050950Y0130522D02*
X0050950Y0131757D01*
X0050950Y0132978D02*
X0047247Y0132978D01*
X0050950Y0135446D01*
X0047247Y0135446D01*
X0049098Y0140344D02*
X0049098Y0142813D01*
X0061225Y0182250D02*
X0061225Y0185953D01*
X0063077Y0185953D01*
X0063694Y0185336D01*
X0063694Y0184102D01*
X0063077Y0183484D01*
X0061225Y0183484D01*
X0064908Y0183484D02*
X0066760Y0183484D01*
X0067377Y0184102D01*
X0067377Y0185336D01*
X0066760Y0185953D01*
X0064908Y0185953D01*
X0064908Y0182250D01*
X0066143Y0183484D02*
X0067377Y0182250D01*
X0068592Y0182867D02*
X0069209Y0182250D01*
X0070443Y0182250D01*
X0071060Y0182867D01*
X0071060Y0184102D01*
X0069826Y0184102D01*
X0071060Y0185336D02*
X0070443Y0185953D01*
X0069209Y0185953D01*
X0068592Y0185336D01*
X0068592Y0182867D01*
X0091426Y0184102D02*
X0093895Y0184102D01*
X0092660Y0185336D02*
X0092660Y0182867D01*
X0098792Y0182250D02*
X0098792Y0185953D01*
X0100644Y0185953D01*
X0101261Y0185336D01*
X0101261Y0184102D01*
X0100644Y0183484D01*
X0098792Y0183484D01*
X0100027Y0183484D02*
X0101261Y0182250D01*
X0102475Y0182250D02*
X0104944Y0185953D01*
X0102475Y0185953D02*
X0104944Y0182250D01*
X0111076Y0182250D02*
X0111076Y0185953D01*
X0109842Y0185953D02*
X0112310Y0185953D01*
X0113525Y0185953D02*
X0115993Y0182250D01*
X0113525Y0182250D02*
X0115993Y0185953D01*
X0120891Y0184102D02*
X0123360Y0184102D01*
X0143725Y0183484D02*
X0145577Y0183484D01*
X0146194Y0184102D01*
X0146194Y0185336D01*
X0145577Y0185953D01*
X0143725Y0185953D01*
X0143725Y0182250D01*
X0144960Y0183484D02*
X0146194Y0182250D01*
X0147408Y0182867D02*
X0148026Y0182250D01*
X0149260Y0182250D01*
X0149877Y0182867D01*
X0149877Y0183484D01*
X0149260Y0184102D01*
X0148026Y0184102D01*
X0147408Y0184719D01*
X0147408Y0185336D01*
X0148026Y0185953D01*
X0149260Y0185953D01*
X0149877Y0185336D01*
X0151092Y0185953D02*
X0153560Y0185953D01*
X0152326Y0185953D02*
X0152326Y0182250D01*
X0110484Y0118453D02*
X0110484Y0114750D01*
X0109250Y0114750D02*
X0111719Y0114750D01*
X0109250Y0117219D02*
X0110484Y0118453D01*
X0108036Y0117836D02*
X0107418Y0118453D01*
X0106184Y0118453D01*
X0105567Y0117836D01*
X0105567Y0115367D01*
X0106184Y0114750D01*
X0107418Y0114750D01*
X0108036Y0115367D01*
X0050738Y0052851D02*
X0048803Y0052851D01*
X0047807Y0053335D02*
X0046839Y0053335D01*
X0047323Y0053819D02*
X0047323Y0051884D01*
X0047807Y0051400D01*
X0045828Y0051400D02*
X0045828Y0053335D01*
X0045828Y0051400D02*
X0044376Y0051400D01*
X0043893Y0051884D01*
X0043893Y0053335D01*
X0042881Y0053819D02*
X0042397Y0054302D01*
X0041430Y0054302D01*
X0040946Y0053819D01*
X0040946Y0051884D01*
X0041430Y0051400D01*
X0042397Y0051400D01*
X0042881Y0051884D01*
X0042881Y0053819D01*
X0048643Y0039086D02*
X0048643Y0036617D01*
X0049877Y0037852D02*
X0047408Y0037852D01*
X0021542Y0052851D02*
X0019607Y0052851D01*
X0018611Y0053335D02*
X0017643Y0053335D01*
X0018127Y0053819D02*
X0018127Y0051884D01*
X0018611Y0051400D01*
X0016631Y0051400D02*
X0016631Y0053335D01*
X0014697Y0053335D02*
X0014697Y0051884D01*
X0015180Y0051400D01*
X0016631Y0051400D01*
X0013685Y0051884D02*
X0013685Y0053819D01*
X0013201Y0054302D01*
X0012234Y0054302D01*
X0011750Y0053819D01*
X0011750Y0051884D01*
X0012234Y0051400D01*
X0013201Y0051400D01*
X0013685Y0051884D01*
X0020575Y0051884D02*
X0020575Y0053819D01*
X0019696Y0072650D02*
X0019696Y0075552D01*
X0020664Y0074585D01*
X0021631Y0075552D01*
X0021631Y0072650D01*
X0022643Y0072650D02*
X0023610Y0072650D01*
X0023126Y0072650D02*
X0023126Y0074585D01*
X0022643Y0074585D01*
X0023126Y0075552D02*
X0023126Y0076036D01*
X0024607Y0074585D02*
X0026058Y0074585D01*
X0026542Y0074101D01*
X0026542Y0072650D01*
X0027553Y0072650D02*
X0028521Y0072650D01*
X0028037Y0072650D02*
X0028037Y0074585D01*
X0027553Y0074585D01*
X0028037Y0075552D02*
X0028037Y0076036D01*
X0029518Y0074101D02*
X0031453Y0074101D01*
X0032464Y0073134D02*
X0032948Y0072650D01*
X0033916Y0072650D01*
X0034399Y0073134D01*
X0034399Y0073617D01*
X0033916Y0074101D01*
X0033432Y0074101D01*
X0033916Y0074101D02*
X0034399Y0074585D01*
X0034399Y0075069D01*
X0033916Y0075552D01*
X0032948Y0075552D01*
X0032464Y0075069D01*
X0035411Y0074101D02*
X0035411Y0073134D01*
X0035895Y0072650D01*
X0036862Y0072650D01*
X0037346Y0073134D01*
X0037346Y0073617D01*
X0036862Y0074101D01*
X0035411Y0074101D01*
X0036378Y0075069D01*
X0037346Y0075552D01*
X0038357Y0075069D02*
X0038841Y0075552D01*
X0039809Y0075552D01*
X0040292Y0075069D01*
X0038357Y0073134D01*
X0038841Y0072650D01*
X0039809Y0072650D01*
X0040292Y0073134D01*
X0040292Y0075069D01*
X0038357Y0075069D02*
X0038357Y0073134D01*
X0024607Y0072650D02*
X0024607Y0074585D01*
X0017628Y0098134D02*
X0017628Y0100069D01*
X0016661Y0099101D02*
X0018596Y0099101D01*
X0015649Y0099101D02*
X0015649Y0097650D01*
X0015649Y0099101D02*
X0015166Y0099585D01*
X0013714Y0099585D01*
X0013714Y0097650D01*
X0012717Y0097650D02*
X0011750Y0097650D01*
X0012234Y0097650D02*
X0012234Y0100552D01*
X0012717Y0100552D02*
X0011750Y0100552D01*
X0044342Y0009703D02*
X0045577Y0009703D01*
X0046194Y0009086D01*
X0046194Y0008469D01*
X0045577Y0007852D01*
X0046194Y0007234D01*
X0046194Y0006617D01*
X0045577Y0006000D01*
X0044342Y0006000D01*
X0043725Y0006617D01*
X0044960Y0007852D02*
X0045577Y0007852D01*
X0047408Y0007234D02*
X0048643Y0006000D01*
X0049877Y0007234D01*
X0049877Y0009703D01*
X0051092Y0009086D02*
X0051709Y0009703D01*
X0052943Y0009703D01*
X0053560Y0009086D01*
X0053560Y0008469D01*
X0052943Y0007852D01*
X0053560Y0007234D01*
X0053560Y0006617D01*
X0052943Y0006000D01*
X0051709Y0006000D01*
X0051092Y0006617D01*
X0052326Y0007852D02*
X0052943Y0007852D01*
X0047408Y0007234D02*
X0047408Y0009703D01*
X0044342Y0009703D02*
X0043725Y0009086D01*
X0116817Y0039117D02*
X0117434Y0038500D01*
X0118668Y0038500D01*
X0119286Y0039117D01*
X0120500Y0039117D02*
X0121117Y0038500D01*
X0122352Y0038500D01*
X0122969Y0039117D01*
X0122969Y0039734D01*
X0122352Y0040352D01*
X0121734Y0040352D01*
X0122352Y0040352D02*
X0122969Y0040969D01*
X0122969Y0041586D01*
X0122352Y0042203D01*
X0121117Y0042203D01*
X0120500Y0041586D01*
X0119286Y0041586D02*
X0118668Y0042203D01*
X0117434Y0042203D01*
X0116817Y0041586D01*
X0116817Y0039117D01*
D12*
X0155035Y0011600D02*
X0155035Y0143411D01*
X0055350Y0143411D01*
X0055350Y0011600D01*
X0155035Y0011600D01*
X0052850Y0042171D02*
X0052850Y0109100D01*
X0009543Y0109100D01*
X0009543Y0042171D01*
X0052850Y0042171D01*
D13*
X0051600Y0034100D02*
X0046600Y0034100D01*
X0044100Y0031600D01*
X0044100Y0026600D01*
X0046600Y0024100D01*
X0044100Y0021600D01*
X0044100Y0016600D01*
X0046600Y0014100D01*
X0051600Y0014100D01*
X0054100Y0016600D01*
X0054100Y0021600D01*
X0051600Y0024100D01*
X0046600Y0024100D01*
X0051600Y0024100D02*
X0054100Y0026600D01*
X0054100Y0031600D01*
X0051600Y0034100D01*
X0013100Y0021600D02*
X0013104Y0021931D01*
X0013116Y0022262D01*
X0013137Y0022593D01*
X0013165Y0022923D01*
X0013202Y0023253D01*
X0013246Y0023581D01*
X0013299Y0023908D01*
X0013359Y0024234D01*
X0013428Y0024558D01*
X0013505Y0024880D01*
X0013589Y0025201D01*
X0013681Y0025519D01*
X0013781Y0025835D01*
X0013889Y0026148D01*
X0014005Y0026459D01*
X0014128Y0026766D01*
X0014258Y0027071D01*
X0014396Y0027372D01*
X0014541Y0027670D01*
X0014694Y0027964D01*
X0014854Y0028254D01*
X0015021Y0028540D01*
X0015194Y0028822D01*
X0015375Y0029100D01*
X0015563Y0029373D01*
X0015757Y0029642D01*
X0015957Y0029906D01*
X0016164Y0030164D01*
X0016378Y0030418D01*
X0016597Y0030666D01*
X0016823Y0030909D01*
X0017054Y0031146D01*
X0017291Y0031377D01*
X0017534Y0031603D01*
X0017782Y0031822D01*
X0018036Y0032036D01*
X0018294Y0032243D01*
X0018558Y0032443D01*
X0018827Y0032637D01*
X0019100Y0032825D01*
X0019378Y0033006D01*
X0019660Y0033179D01*
X0019946Y0033346D01*
X0020236Y0033506D01*
X0020530Y0033659D01*
X0020828Y0033804D01*
X0021129Y0033942D01*
X0021434Y0034072D01*
X0021741Y0034195D01*
X0022052Y0034311D01*
X0022365Y0034419D01*
X0022681Y0034519D01*
X0022999Y0034611D01*
X0023320Y0034695D01*
X0023642Y0034772D01*
X0023966Y0034841D01*
X0024292Y0034901D01*
X0024619Y0034954D01*
X0024947Y0034998D01*
X0025277Y0035035D01*
X0025607Y0035063D01*
X0025938Y0035084D01*
X0026269Y0035096D01*
X0026600Y0035100D01*
X0026931Y0035096D01*
X0027262Y0035084D01*
X0027593Y0035063D01*
X0027923Y0035035D01*
X0028253Y0034998D01*
X0028581Y0034954D01*
X0028908Y0034901D01*
X0029234Y0034841D01*
X0029558Y0034772D01*
X0029880Y0034695D01*
X0030201Y0034611D01*
X0030519Y0034519D01*
X0030835Y0034419D01*
X0031148Y0034311D01*
X0031459Y0034195D01*
X0031766Y0034072D01*
X0032071Y0033942D01*
X0032372Y0033804D01*
X0032670Y0033659D01*
X0032964Y0033506D01*
X0033254Y0033346D01*
X0033540Y0033179D01*
X0033822Y0033006D01*
X0034100Y0032825D01*
X0034373Y0032637D01*
X0034642Y0032443D01*
X0034906Y0032243D01*
X0035164Y0032036D01*
X0035418Y0031822D01*
X0035666Y0031603D01*
X0035909Y0031377D01*
X0036146Y0031146D01*
X0036377Y0030909D01*
X0036603Y0030666D01*
X0036822Y0030418D01*
X0037036Y0030164D01*
X0037243Y0029906D01*
X0037443Y0029642D01*
X0037637Y0029373D01*
X0037825Y0029100D01*
X0038006Y0028822D01*
X0038179Y0028540D01*
X0038346Y0028254D01*
X0038506Y0027964D01*
X0038659Y0027670D01*
X0038804Y0027372D01*
X0038942Y0027071D01*
X0039072Y0026766D01*
X0039195Y0026459D01*
X0039311Y0026148D01*
X0039419Y0025835D01*
X0039519Y0025519D01*
X0039611Y0025201D01*
X0039695Y0024880D01*
X0039772Y0024558D01*
X0039841Y0024234D01*
X0039901Y0023908D01*
X0039954Y0023581D01*
X0039998Y0023253D01*
X0040035Y0022923D01*
X0040063Y0022593D01*
X0040084Y0022262D01*
X0040096Y0021931D01*
X0040100Y0021600D01*
X0040096Y0021269D01*
X0040084Y0020938D01*
X0040063Y0020607D01*
X0040035Y0020277D01*
X0039998Y0019947D01*
X0039954Y0019619D01*
X0039901Y0019292D01*
X0039841Y0018966D01*
X0039772Y0018642D01*
X0039695Y0018320D01*
X0039611Y0017999D01*
X0039519Y0017681D01*
X0039419Y0017365D01*
X0039311Y0017052D01*
X0039195Y0016741D01*
X0039072Y0016434D01*
X0038942Y0016129D01*
X0038804Y0015828D01*
X0038659Y0015530D01*
X0038506Y0015236D01*
X0038346Y0014946D01*
X0038179Y0014660D01*
X0038006Y0014378D01*
X0037825Y0014100D01*
X0037637Y0013827D01*
X0037443Y0013558D01*
X0037243Y0013294D01*
X0037036Y0013036D01*
X0036822Y0012782D01*
X0036603Y0012534D01*
X0036377Y0012291D01*
X0036146Y0012054D01*
X0035909Y0011823D01*
X0035666Y0011597D01*
X0035418Y0011378D01*
X0035164Y0011164D01*
X0034906Y0010957D01*
X0034642Y0010757D01*
X0034373Y0010563D01*
X0034100Y0010375D01*
X0033822Y0010194D01*
X0033540Y0010021D01*
X0033254Y0009854D01*
X0032964Y0009694D01*
X0032670Y0009541D01*
X0032372Y0009396D01*
X0032071Y0009258D01*
X0031766Y0009128D01*
X0031459Y0009005D01*
X0031148Y0008889D01*
X0030835Y0008781D01*
X0030519Y0008681D01*
X0030201Y0008589D01*
X0029880Y0008505D01*
X0029558Y0008428D01*
X0029234Y0008359D01*
X0028908Y0008299D01*
X0028581Y0008246D01*
X0028253Y0008202D01*
X0027923Y0008165D01*
X0027593Y0008137D01*
X0027262Y0008116D01*
X0026931Y0008104D01*
X0026600Y0008100D01*
X0026269Y0008104D01*
X0025938Y0008116D01*
X0025607Y0008137D01*
X0025277Y0008165D01*
X0024947Y0008202D01*
X0024619Y0008246D01*
X0024292Y0008299D01*
X0023966Y0008359D01*
X0023642Y0008428D01*
X0023320Y0008505D01*
X0022999Y0008589D01*
X0022681Y0008681D01*
X0022365Y0008781D01*
X0022052Y0008889D01*
X0021741Y0009005D01*
X0021434Y0009128D01*
X0021129Y0009258D01*
X0020828Y0009396D01*
X0020530Y0009541D01*
X0020236Y0009694D01*
X0019946Y0009854D01*
X0019660Y0010021D01*
X0019378Y0010194D01*
X0019100Y0010375D01*
X0018827Y0010563D01*
X0018558Y0010757D01*
X0018294Y0010957D01*
X0018036Y0011164D01*
X0017782Y0011378D01*
X0017534Y0011597D01*
X0017291Y0011823D01*
X0017054Y0012054D01*
X0016823Y0012291D01*
X0016597Y0012534D01*
X0016378Y0012782D01*
X0016164Y0013036D01*
X0015957Y0013294D01*
X0015757Y0013558D01*
X0015563Y0013827D01*
X0015375Y0014100D01*
X0015194Y0014378D01*
X0015021Y0014660D01*
X0014854Y0014946D01*
X0014694Y0015236D01*
X0014541Y0015530D01*
X0014396Y0015828D01*
X0014258Y0016129D01*
X0014128Y0016434D01*
X0014005Y0016741D01*
X0013889Y0017052D01*
X0013781Y0017365D01*
X0013681Y0017681D01*
X0013589Y0017999D01*
X0013505Y0018320D01*
X0013428Y0018642D01*
X0013359Y0018966D01*
X0013299Y0019292D01*
X0013246Y0019619D01*
X0013202Y0019947D01*
X0013165Y0020277D01*
X0013137Y0020607D01*
X0013116Y0020938D01*
X0013104Y0021269D01*
X0013100Y0021600D01*
X0071850Y0086600D02*
X0078850Y0086600D01*
X0078910Y0086602D01*
X0078971Y0086607D01*
X0079030Y0086616D01*
X0079089Y0086629D01*
X0079148Y0086645D01*
X0079205Y0086665D01*
X0079260Y0086688D01*
X0079315Y0086715D01*
X0079367Y0086744D01*
X0079418Y0086777D01*
X0079467Y0086813D01*
X0079513Y0086851D01*
X0079557Y0086893D01*
X0079599Y0086937D01*
X0079637Y0086983D01*
X0079673Y0087032D01*
X0079706Y0087083D01*
X0079735Y0087135D01*
X0079762Y0087190D01*
X0079785Y0087245D01*
X0079805Y0087302D01*
X0079821Y0087361D01*
X0079834Y0087420D01*
X0079843Y0087479D01*
X0079848Y0087540D01*
X0079850Y0087600D01*
X0079850Y0089100D01*
X0079350Y0089600D01*
X0079350Y0108600D01*
X0079850Y0109100D01*
X0079850Y0110600D01*
X0079848Y0110660D01*
X0079843Y0110721D01*
X0079834Y0110780D01*
X0079821Y0110839D01*
X0079805Y0110898D01*
X0079785Y0110955D01*
X0079762Y0111010D01*
X0079735Y0111065D01*
X0079706Y0111117D01*
X0079673Y0111168D01*
X0079637Y0111217D01*
X0079599Y0111263D01*
X0079557Y0111307D01*
X0079513Y0111349D01*
X0079467Y0111387D01*
X0079418Y0111423D01*
X0079367Y0111456D01*
X0079315Y0111485D01*
X0079260Y0111512D01*
X0079205Y0111535D01*
X0079148Y0111555D01*
X0079089Y0111571D01*
X0079030Y0111584D01*
X0078971Y0111593D01*
X0078910Y0111598D01*
X0078850Y0111600D01*
X0071850Y0111600D01*
X0071790Y0111598D01*
X0071729Y0111593D01*
X0071670Y0111584D01*
X0071611Y0111571D01*
X0071552Y0111555D01*
X0071495Y0111535D01*
X0071440Y0111512D01*
X0071385Y0111485D01*
X0071333Y0111456D01*
X0071282Y0111423D01*
X0071233Y0111387D01*
X0071187Y0111349D01*
X0071143Y0111307D01*
X0071101Y0111263D01*
X0071063Y0111217D01*
X0071027Y0111168D01*
X0070994Y0111117D01*
X0070965Y0111065D01*
X0070938Y0111010D01*
X0070915Y0110955D01*
X0070895Y0110898D01*
X0070879Y0110839D01*
X0070866Y0110780D01*
X0070857Y0110721D01*
X0070852Y0110660D01*
X0070850Y0110600D01*
X0070850Y0109100D01*
X0071350Y0108600D01*
X0071350Y0089600D01*
X0070850Y0089100D01*
X0070850Y0087600D01*
X0070852Y0087540D01*
X0070857Y0087479D01*
X0070866Y0087420D01*
X0070879Y0087361D01*
X0070895Y0087302D01*
X0070915Y0087245D01*
X0070938Y0087190D01*
X0070965Y0087135D01*
X0070994Y0087083D01*
X0071027Y0087032D01*
X0071063Y0086983D01*
X0071101Y0086937D01*
X0071143Y0086893D01*
X0071187Y0086851D01*
X0071233Y0086813D01*
X0071282Y0086777D01*
X0071333Y0086744D01*
X0071385Y0086715D01*
X0071440Y0086688D01*
X0071495Y0086665D01*
X0071552Y0086645D01*
X0071611Y0086629D01*
X0071670Y0086616D01*
X0071729Y0086607D01*
X0071790Y0086602D01*
X0071850Y0086600D01*
X0082100Y0079100D02*
X0082100Y0077600D01*
X0082102Y0077540D01*
X0082107Y0077479D01*
X0082116Y0077420D01*
X0082129Y0077361D01*
X0082145Y0077302D01*
X0082165Y0077245D01*
X0082188Y0077190D01*
X0082215Y0077135D01*
X0082244Y0077083D01*
X0082277Y0077032D01*
X0082313Y0076983D01*
X0082351Y0076937D01*
X0082393Y0076893D01*
X0082437Y0076851D01*
X0082483Y0076813D01*
X0082532Y0076777D01*
X0082583Y0076744D01*
X0082635Y0076715D01*
X0082690Y0076688D01*
X0082745Y0076665D01*
X0082802Y0076645D01*
X0082861Y0076629D01*
X0082920Y0076616D01*
X0082979Y0076607D01*
X0083040Y0076602D01*
X0083100Y0076600D01*
X0090100Y0076600D01*
X0090160Y0076602D01*
X0090221Y0076607D01*
X0090280Y0076616D01*
X0090339Y0076629D01*
X0090398Y0076645D01*
X0090455Y0076665D01*
X0090510Y0076688D01*
X0090565Y0076715D01*
X0090617Y0076744D01*
X0090668Y0076777D01*
X0090717Y0076813D01*
X0090763Y0076851D01*
X0090807Y0076893D01*
X0090849Y0076937D01*
X0090887Y0076983D01*
X0090923Y0077032D01*
X0090956Y0077083D01*
X0090985Y0077135D01*
X0091012Y0077190D01*
X0091035Y0077245D01*
X0091055Y0077302D01*
X0091071Y0077361D01*
X0091084Y0077420D01*
X0091093Y0077479D01*
X0091098Y0077540D01*
X0091100Y0077600D01*
X0091100Y0079100D01*
X0090600Y0079600D01*
X0090600Y0098600D01*
X0091100Y0099100D01*
X0091100Y0100600D01*
X0091098Y0100660D01*
X0091093Y0100721D01*
X0091084Y0100780D01*
X0091071Y0100839D01*
X0091055Y0100898D01*
X0091035Y0100955D01*
X0091012Y0101010D01*
X0090985Y0101065D01*
X0090956Y0101117D01*
X0090923Y0101168D01*
X0090887Y0101217D01*
X0090849Y0101263D01*
X0090807Y0101307D01*
X0090763Y0101349D01*
X0090717Y0101387D01*
X0090668Y0101423D01*
X0090617Y0101456D01*
X0090565Y0101485D01*
X0090510Y0101512D01*
X0090455Y0101535D01*
X0090398Y0101555D01*
X0090339Y0101571D01*
X0090280Y0101584D01*
X0090221Y0101593D01*
X0090160Y0101598D01*
X0090100Y0101600D01*
X0083100Y0101600D01*
X0083040Y0101598D01*
X0082979Y0101593D01*
X0082920Y0101584D01*
X0082861Y0101571D01*
X0082802Y0101555D01*
X0082745Y0101535D01*
X0082690Y0101512D01*
X0082635Y0101485D01*
X0082583Y0101456D01*
X0082532Y0101423D01*
X0082483Y0101387D01*
X0082437Y0101349D01*
X0082393Y0101307D01*
X0082351Y0101263D01*
X0082313Y0101217D01*
X0082277Y0101168D01*
X0082244Y0101117D01*
X0082215Y0101065D01*
X0082188Y0101010D01*
X0082165Y0100955D01*
X0082145Y0100898D01*
X0082129Y0100839D01*
X0082116Y0100780D01*
X0082107Y0100721D01*
X0082102Y0100660D01*
X0082100Y0100600D01*
X0082100Y0099100D01*
X0082600Y0098600D01*
X0082600Y0079600D01*
X0082100Y0079100D01*
X0093350Y0079100D02*
X0093350Y0077600D01*
X0093352Y0077540D01*
X0093357Y0077479D01*
X0093366Y0077420D01*
X0093379Y0077361D01*
X0093395Y0077302D01*
X0093415Y0077245D01*
X0093438Y0077190D01*
X0093465Y0077135D01*
X0093494Y0077083D01*
X0093527Y0077032D01*
X0093563Y0076983D01*
X0093601Y0076937D01*
X0093643Y0076893D01*
X0093687Y0076851D01*
X0093733Y0076813D01*
X0093782Y0076777D01*
X0093833Y0076744D01*
X0093885Y0076715D01*
X0093940Y0076688D01*
X0093995Y0076665D01*
X0094052Y0076645D01*
X0094111Y0076629D01*
X0094170Y0076616D01*
X0094229Y0076607D01*
X0094290Y0076602D01*
X0094350Y0076600D01*
X0101350Y0076600D01*
X0101410Y0076602D01*
X0101471Y0076607D01*
X0101530Y0076616D01*
X0101589Y0076629D01*
X0101648Y0076645D01*
X0101705Y0076665D01*
X0101760Y0076688D01*
X0101815Y0076715D01*
X0101867Y0076744D01*
X0101918Y0076777D01*
X0101967Y0076813D01*
X0102013Y0076851D01*
X0102057Y0076893D01*
X0102099Y0076937D01*
X0102137Y0076983D01*
X0102173Y0077032D01*
X0102206Y0077083D01*
X0102235Y0077135D01*
X0102262Y0077190D01*
X0102285Y0077245D01*
X0102305Y0077302D01*
X0102321Y0077361D01*
X0102334Y0077420D01*
X0102343Y0077479D01*
X0102348Y0077540D01*
X0102350Y0077600D01*
X0102350Y0079100D01*
X0101850Y0079600D01*
X0101850Y0098600D01*
X0102350Y0099100D01*
X0102350Y0100600D01*
X0102348Y0100660D01*
X0102343Y0100721D01*
X0102334Y0100780D01*
X0102321Y0100839D01*
X0102305Y0100898D01*
X0102285Y0100955D01*
X0102262Y0101010D01*
X0102235Y0101065D01*
X0102206Y0101117D01*
X0102173Y0101168D01*
X0102137Y0101217D01*
X0102099Y0101263D01*
X0102057Y0101307D01*
X0102013Y0101349D01*
X0101967Y0101387D01*
X0101918Y0101423D01*
X0101867Y0101456D01*
X0101815Y0101485D01*
X0101760Y0101512D01*
X0101705Y0101535D01*
X0101648Y0101555D01*
X0101589Y0101571D01*
X0101530Y0101584D01*
X0101471Y0101593D01*
X0101410Y0101598D01*
X0101350Y0101600D01*
X0094350Y0101600D01*
X0094290Y0101598D01*
X0094229Y0101593D01*
X0094170Y0101584D01*
X0094111Y0101571D01*
X0094052Y0101555D01*
X0093995Y0101535D01*
X0093940Y0101512D01*
X0093885Y0101485D01*
X0093833Y0101456D01*
X0093782Y0101423D01*
X0093733Y0101387D01*
X0093687Y0101349D01*
X0093643Y0101307D01*
X0093601Y0101263D01*
X0093563Y0101217D01*
X0093527Y0101168D01*
X0093494Y0101117D01*
X0093465Y0101065D01*
X0093438Y0101010D01*
X0093415Y0100955D01*
X0093395Y0100898D01*
X0093379Y0100839D01*
X0093366Y0100780D01*
X0093357Y0100721D01*
X0093352Y0100660D01*
X0093350Y0100600D01*
X0093350Y0099100D01*
X0093850Y0098600D01*
X0093850Y0079600D01*
X0093350Y0079100D01*
X0104600Y0080600D02*
X0104600Y0067600D01*
X0104602Y0067513D01*
X0104608Y0067426D01*
X0104617Y0067339D01*
X0104630Y0067253D01*
X0104647Y0067167D01*
X0104668Y0067082D01*
X0104693Y0066999D01*
X0104721Y0066916D01*
X0104752Y0066835D01*
X0104787Y0066755D01*
X0104826Y0066677D01*
X0104868Y0066600D01*
X0104913Y0066525D01*
X0104962Y0066453D01*
X0105013Y0066382D01*
X0105068Y0066314D01*
X0105125Y0066249D01*
X0105186Y0066186D01*
X0105249Y0066125D01*
X0105314Y0066068D01*
X0105382Y0066013D01*
X0105453Y0065962D01*
X0105525Y0065913D01*
X0105600Y0065868D01*
X0105677Y0065826D01*
X0105755Y0065787D01*
X0105835Y0065752D01*
X0105916Y0065721D01*
X0105999Y0065693D01*
X0106082Y0065668D01*
X0106167Y0065647D01*
X0106253Y0065630D01*
X0106339Y0065617D01*
X0106426Y0065608D01*
X0106513Y0065602D01*
X0106600Y0065600D01*
X0111600Y0065600D01*
X0111687Y0065602D01*
X0111774Y0065608D01*
X0111861Y0065617D01*
X0111947Y0065630D01*
X0112033Y0065647D01*
X0112118Y0065668D01*
X0112201Y0065693D01*
X0112284Y0065721D01*
X0112365Y0065752D01*
X0112445Y0065787D01*
X0112523Y0065826D01*
X0112600Y0065868D01*
X0112675Y0065913D01*
X0112747Y0065962D01*
X0112818Y0066013D01*
X0112886Y0066068D01*
X0112951Y0066125D01*
X0113014Y0066186D01*
X0113075Y0066249D01*
X0113132Y0066314D01*
X0113187Y0066382D01*
X0113238Y0066453D01*
X0113287Y0066525D01*
X0113332Y0066600D01*
X0113374Y0066677D01*
X0113413Y0066755D01*
X0113448Y0066835D01*
X0113479Y0066916D01*
X0113507Y0066999D01*
X0113532Y0067082D01*
X0113553Y0067167D01*
X0113570Y0067253D01*
X0113583Y0067339D01*
X0113592Y0067426D01*
X0113598Y0067513D01*
X0113600Y0067600D01*
X0113600Y0080600D01*
X0113598Y0080687D01*
X0113592Y0080774D01*
X0113583Y0080861D01*
X0113570Y0080947D01*
X0113553Y0081033D01*
X0113532Y0081118D01*
X0113507Y0081201D01*
X0113479Y0081284D01*
X0113448Y0081365D01*
X0113413Y0081445D01*
X0113374Y0081523D01*
X0113332Y0081600D01*
X0113287Y0081675D01*
X0113238Y0081747D01*
X0113187Y0081818D01*
X0113132Y0081886D01*
X0113075Y0081951D01*
X0113014Y0082014D01*
X0112951Y0082075D01*
X0112886Y0082132D01*
X0112818Y0082187D01*
X0112747Y0082238D01*
X0112675Y0082287D01*
X0112600Y0082332D01*
X0112523Y0082374D01*
X0112445Y0082413D01*
X0112365Y0082448D01*
X0112284Y0082479D01*
X0112201Y0082507D01*
X0112118Y0082532D01*
X0112033Y0082553D01*
X0111947Y0082570D01*
X0111861Y0082583D01*
X0111774Y0082592D01*
X0111687Y0082598D01*
X0111600Y0082600D01*
X0106600Y0082600D01*
X0106513Y0082598D01*
X0106426Y0082592D01*
X0106339Y0082583D01*
X0106253Y0082570D01*
X0106167Y0082553D01*
X0106082Y0082532D01*
X0105999Y0082507D01*
X0105916Y0082479D01*
X0105835Y0082448D01*
X0105755Y0082413D01*
X0105677Y0082374D01*
X0105600Y0082332D01*
X0105525Y0082287D01*
X0105453Y0082238D01*
X0105382Y0082187D01*
X0105314Y0082132D01*
X0105249Y0082075D01*
X0105186Y0082014D01*
X0105125Y0081951D01*
X0105068Y0081886D01*
X0105013Y0081818D01*
X0104962Y0081747D01*
X0104913Y0081675D01*
X0104868Y0081600D01*
X0104826Y0081523D01*
X0104787Y0081445D01*
X0104752Y0081365D01*
X0104721Y0081284D01*
X0104693Y0081201D01*
X0104668Y0081118D01*
X0104647Y0081033D01*
X0104630Y0080947D01*
X0104617Y0080861D01*
X0104608Y0080774D01*
X0104602Y0080687D01*
X0104600Y0080600D01*
X0115850Y0079100D02*
X0115850Y0077600D01*
X0115852Y0077540D01*
X0115857Y0077479D01*
X0115866Y0077420D01*
X0115879Y0077361D01*
X0115895Y0077302D01*
X0115915Y0077245D01*
X0115938Y0077190D01*
X0115965Y0077135D01*
X0115994Y0077083D01*
X0116027Y0077032D01*
X0116063Y0076983D01*
X0116101Y0076937D01*
X0116143Y0076893D01*
X0116187Y0076851D01*
X0116233Y0076813D01*
X0116282Y0076777D01*
X0116333Y0076744D01*
X0116385Y0076715D01*
X0116440Y0076688D01*
X0116495Y0076665D01*
X0116552Y0076645D01*
X0116611Y0076629D01*
X0116670Y0076616D01*
X0116729Y0076607D01*
X0116790Y0076602D01*
X0116850Y0076600D01*
X0123850Y0076600D01*
X0123910Y0076602D01*
X0123971Y0076607D01*
X0124030Y0076616D01*
X0124089Y0076629D01*
X0124148Y0076645D01*
X0124205Y0076665D01*
X0124260Y0076688D01*
X0124315Y0076715D01*
X0124367Y0076744D01*
X0124418Y0076777D01*
X0124467Y0076813D01*
X0124513Y0076851D01*
X0124557Y0076893D01*
X0124599Y0076937D01*
X0124637Y0076983D01*
X0124673Y0077032D01*
X0124706Y0077083D01*
X0124735Y0077135D01*
X0124762Y0077190D01*
X0124785Y0077245D01*
X0124805Y0077302D01*
X0124821Y0077361D01*
X0124834Y0077420D01*
X0124843Y0077479D01*
X0124848Y0077540D01*
X0124850Y0077600D01*
X0124850Y0079100D01*
X0124350Y0079600D01*
X0124350Y0098600D01*
X0124850Y0099100D01*
X0124850Y0100600D01*
X0124848Y0100660D01*
X0124843Y0100721D01*
X0124834Y0100780D01*
X0124821Y0100839D01*
X0124805Y0100898D01*
X0124785Y0100955D01*
X0124762Y0101010D01*
X0124735Y0101065D01*
X0124706Y0101117D01*
X0124673Y0101168D01*
X0124637Y0101217D01*
X0124599Y0101263D01*
X0124557Y0101307D01*
X0124513Y0101349D01*
X0124467Y0101387D01*
X0124418Y0101423D01*
X0124367Y0101456D01*
X0124315Y0101485D01*
X0124260Y0101512D01*
X0124205Y0101535D01*
X0124148Y0101555D01*
X0124089Y0101571D01*
X0124030Y0101584D01*
X0123971Y0101593D01*
X0123910Y0101598D01*
X0123850Y0101600D01*
X0116850Y0101600D01*
X0116790Y0101598D01*
X0116729Y0101593D01*
X0116670Y0101584D01*
X0116611Y0101571D01*
X0116552Y0101555D01*
X0116495Y0101535D01*
X0116440Y0101512D01*
X0116385Y0101485D01*
X0116333Y0101456D01*
X0116282Y0101423D01*
X0116233Y0101387D01*
X0116187Y0101349D01*
X0116143Y0101307D01*
X0116101Y0101263D01*
X0116063Y0101217D01*
X0116027Y0101168D01*
X0115994Y0101117D01*
X0115965Y0101065D01*
X0115938Y0101010D01*
X0115915Y0100955D01*
X0115895Y0100898D01*
X0115879Y0100839D01*
X0115866Y0100780D01*
X0115857Y0100721D01*
X0115852Y0100660D01*
X0115850Y0100600D01*
X0115850Y0099100D01*
X0116350Y0098600D01*
X0116350Y0079600D01*
X0115850Y0079100D01*
X0128350Y0079100D02*
X0128350Y0077600D01*
X0128352Y0077540D01*
X0128357Y0077479D01*
X0128366Y0077420D01*
X0128379Y0077361D01*
X0128395Y0077302D01*
X0128415Y0077245D01*
X0128438Y0077190D01*
X0128465Y0077135D01*
X0128494Y0077083D01*
X0128527Y0077032D01*
X0128563Y0076983D01*
X0128601Y0076937D01*
X0128643Y0076893D01*
X0128687Y0076851D01*
X0128733Y0076813D01*
X0128782Y0076777D01*
X0128833Y0076744D01*
X0128885Y0076715D01*
X0128940Y0076688D01*
X0128995Y0076665D01*
X0129052Y0076645D01*
X0129111Y0076629D01*
X0129170Y0076616D01*
X0129229Y0076607D01*
X0129290Y0076602D01*
X0129350Y0076600D01*
X0136350Y0076600D01*
X0136410Y0076602D01*
X0136471Y0076607D01*
X0136530Y0076616D01*
X0136589Y0076629D01*
X0136648Y0076645D01*
X0136705Y0076665D01*
X0136760Y0076688D01*
X0136815Y0076715D01*
X0136867Y0076744D01*
X0136918Y0076777D01*
X0136967Y0076813D01*
X0137013Y0076851D01*
X0137057Y0076893D01*
X0137099Y0076937D01*
X0137137Y0076983D01*
X0137173Y0077032D01*
X0137206Y0077083D01*
X0137235Y0077135D01*
X0137262Y0077190D01*
X0137285Y0077245D01*
X0137305Y0077302D01*
X0137321Y0077361D01*
X0137334Y0077420D01*
X0137343Y0077479D01*
X0137348Y0077540D01*
X0137350Y0077600D01*
X0137350Y0079100D01*
X0136850Y0079600D01*
X0136850Y0098600D01*
X0137350Y0099100D01*
X0137350Y0100600D01*
X0137348Y0100660D01*
X0137343Y0100721D01*
X0137334Y0100780D01*
X0137321Y0100839D01*
X0137305Y0100898D01*
X0137285Y0100955D01*
X0137262Y0101010D01*
X0137235Y0101065D01*
X0137206Y0101117D01*
X0137173Y0101168D01*
X0137137Y0101217D01*
X0137099Y0101263D01*
X0137057Y0101307D01*
X0137013Y0101349D01*
X0136967Y0101387D01*
X0136918Y0101423D01*
X0136867Y0101456D01*
X0136815Y0101485D01*
X0136760Y0101512D01*
X0136705Y0101535D01*
X0136648Y0101555D01*
X0136589Y0101571D01*
X0136530Y0101584D01*
X0136471Y0101593D01*
X0136410Y0101598D01*
X0136350Y0101600D01*
X0129350Y0101600D01*
X0129290Y0101598D01*
X0129229Y0101593D01*
X0129170Y0101584D01*
X0129111Y0101571D01*
X0129052Y0101555D01*
X0128995Y0101535D01*
X0128940Y0101512D01*
X0128885Y0101485D01*
X0128833Y0101456D01*
X0128782Y0101423D01*
X0128733Y0101387D01*
X0128687Y0101349D01*
X0128643Y0101307D01*
X0128601Y0101263D01*
X0128563Y0101217D01*
X0128527Y0101168D01*
X0128494Y0101117D01*
X0128465Y0101065D01*
X0128438Y0101010D01*
X0128415Y0100955D01*
X0128395Y0100898D01*
X0128379Y0100839D01*
X0128366Y0100780D01*
X0128357Y0100721D01*
X0128352Y0100660D01*
X0128350Y0100600D01*
X0128350Y0099100D01*
X0128850Y0098600D01*
X0128850Y0079600D01*
X0128350Y0079100D01*
X0111600Y0095600D02*
X0106600Y0095600D01*
X0106513Y0095602D01*
X0106426Y0095608D01*
X0106339Y0095617D01*
X0106253Y0095630D01*
X0106167Y0095647D01*
X0106082Y0095668D01*
X0105999Y0095693D01*
X0105916Y0095721D01*
X0105835Y0095752D01*
X0105755Y0095787D01*
X0105677Y0095826D01*
X0105600Y0095868D01*
X0105525Y0095913D01*
X0105453Y0095962D01*
X0105382Y0096013D01*
X0105314Y0096068D01*
X0105249Y0096125D01*
X0105186Y0096186D01*
X0105125Y0096249D01*
X0105068Y0096314D01*
X0105013Y0096382D01*
X0104962Y0096453D01*
X0104913Y0096525D01*
X0104868Y0096600D01*
X0104826Y0096677D01*
X0104787Y0096755D01*
X0104752Y0096835D01*
X0104721Y0096916D01*
X0104693Y0096999D01*
X0104668Y0097082D01*
X0104647Y0097167D01*
X0104630Y0097253D01*
X0104617Y0097339D01*
X0104608Y0097426D01*
X0104602Y0097513D01*
X0104600Y0097600D01*
X0104600Y0110600D01*
X0104602Y0110687D01*
X0104608Y0110774D01*
X0104617Y0110861D01*
X0104630Y0110947D01*
X0104647Y0111033D01*
X0104668Y0111118D01*
X0104693Y0111201D01*
X0104721Y0111284D01*
X0104752Y0111365D01*
X0104787Y0111445D01*
X0104826Y0111523D01*
X0104868Y0111600D01*
X0104913Y0111675D01*
X0104962Y0111747D01*
X0105013Y0111818D01*
X0105068Y0111886D01*
X0105125Y0111951D01*
X0105186Y0112014D01*
X0105249Y0112075D01*
X0105314Y0112132D01*
X0105382Y0112187D01*
X0105453Y0112238D01*
X0105525Y0112287D01*
X0105600Y0112332D01*
X0105677Y0112374D01*
X0105755Y0112413D01*
X0105835Y0112448D01*
X0105916Y0112479D01*
X0105999Y0112507D01*
X0106082Y0112532D01*
X0106167Y0112553D01*
X0106253Y0112570D01*
X0106339Y0112583D01*
X0106426Y0112592D01*
X0106513Y0112598D01*
X0106600Y0112600D01*
X0111600Y0112600D01*
X0111687Y0112598D01*
X0111774Y0112592D01*
X0111861Y0112583D01*
X0111947Y0112570D01*
X0112033Y0112553D01*
X0112118Y0112532D01*
X0112201Y0112507D01*
X0112284Y0112479D01*
X0112365Y0112448D01*
X0112445Y0112413D01*
X0112523Y0112374D01*
X0112600Y0112332D01*
X0112675Y0112287D01*
X0112747Y0112238D01*
X0112818Y0112187D01*
X0112886Y0112132D01*
X0112951Y0112075D01*
X0113014Y0112014D01*
X0113075Y0111951D01*
X0113132Y0111886D01*
X0113187Y0111818D01*
X0113238Y0111747D01*
X0113287Y0111675D01*
X0113332Y0111600D01*
X0113374Y0111523D01*
X0113413Y0111445D01*
X0113448Y0111365D01*
X0113479Y0111284D01*
X0113507Y0111201D01*
X0113532Y0111118D01*
X0113553Y0111033D01*
X0113570Y0110947D01*
X0113583Y0110861D01*
X0113592Y0110774D01*
X0113598Y0110687D01*
X0113600Y0110600D01*
X0113600Y0097600D01*
X0113598Y0097513D01*
X0113592Y0097426D01*
X0113583Y0097339D01*
X0113570Y0097253D01*
X0113553Y0097167D01*
X0113532Y0097082D01*
X0113507Y0096999D01*
X0113479Y0096916D01*
X0113448Y0096835D01*
X0113413Y0096755D01*
X0113374Y0096677D01*
X0113332Y0096600D01*
X0113287Y0096525D01*
X0113238Y0096453D01*
X0113187Y0096382D01*
X0113132Y0096314D01*
X0113075Y0096249D01*
X0113014Y0096186D01*
X0112951Y0096125D01*
X0112886Y0096068D01*
X0112818Y0096013D01*
X0112747Y0095962D01*
X0112675Y0095913D01*
X0112600Y0095868D01*
X0112523Y0095826D01*
X0112445Y0095787D01*
X0112365Y0095752D01*
X0112284Y0095721D01*
X0112201Y0095693D01*
X0112118Y0095668D01*
X0112033Y0095647D01*
X0111947Y0095630D01*
X0111861Y0095617D01*
X0111774Y0095608D01*
X0111687Y0095602D01*
X0111600Y0095600D01*
X0159100Y0096600D02*
X0159100Y0101600D01*
X0161600Y0104100D01*
X0176600Y0104100D01*
X0179100Y0101600D01*
X0179100Y0096600D01*
X0176600Y0094100D01*
X0161600Y0094100D01*
X0159100Y0091600D01*
X0159100Y0086600D01*
X0161600Y0084100D01*
X0176600Y0084100D01*
X0179100Y0081600D01*
X0179100Y0076600D01*
X0176600Y0074100D01*
X0161600Y0074100D01*
X0159100Y0071600D01*
X0159100Y0066600D01*
X0161600Y0064100D01*
X0176600Y0064100D01*
X0179100Y0061600D01*
X0179100Y0056600D01*
X0176600Y0054100D01*
X0179100Y0051600D01*
X0179100Y0046600D01*
X0176600Y0044100D01*
X0161600Y0044100D01*
X0159100Y0046600D01*
X0159100Y0051600D01*
X0161600Y0054100D01*
X0176600Y0054100D01*
X0171600Y0054100D02*
X0169100Y0051600D01*
X0169100Y0046600D01*
X0171600Y0044100D01*
X0186600Y0044100D01*
X0189100Y0046600D01*
X0189100Y0051600D01*
X0186600Y0054100D01*
X0171600Y0054100D01*
X0169100Y0056600D01*
X0169100Y0061600D01*
X0171600Y0064100D01*
X0186600Y0064100D01*
X0189100Y0061600D01*
X0189100Y0056600D01*
X0186600Y0054100D01*
X0186600Y0064100D02*
X0189100Y0066600D01*
X0189100Y0071600D01*
X0186600Y0074100D01*
X0171600Y0074100D01*
X0169100Y0071600D01*
X0169100Y0066600D01*
X0171600Y0064100D01*
X0176600Y0064100D02*
X0179100Y0066600D01*
X0179100Y0071600D01*
X0176600Y0074100D01*
X0171600Y0074100D02*
X0169100Y0076600D01*
X0169100Y0081600D01*
X0171600Y0084100D01*
X0186600Y0084100D01*
X0189100Y0081600D01*
X0189100Y0076600D01*
X0186600Y0074100D01*
X0186600Y0084100D02*
X0189100Y0086600D01*
X0189100Y0091600D01*
X0186600Y0094100D01*
X0171600Y0094100D01*
X0169100Y0091600D01*
X0169100Y0086600D01*
X0171600Y0084100D01*
X0176600Y0084100D02*
X0179100Y0086600D01*
X0179100Y0091600D01*
X0176600Y0094100D01*
X0171600Y0094100D02*
X0169100Y0096600D01*
X0169100Y0101600D01*
X0171600Y0104100D01*
X0186600Y0104100D01*
X0189100Y0101600D01*
X0189100Y0096600D01*
X0186600Y0094100D01*
X0186600Y0104100D02*
X0189100Y0106600D01*
X0189100Y0111600D01*
X0186600Y0114100D01*
X0171600Y0114100D01*
X0169100Y0111600D01*
X0169100Y0106600D01*
X0171600Y0104100D01*
X0176600Y0104100D02*
X0179100Y0106600D01*
X0179100Y0111600D01*
X0176600Y0114100D01*
X0161600Y0114100D01*
X0159100Y0111600D01*
X0159100Y0106600D01*
X0161600Y0104100D01*
X0159100Y0096600D02*
X0161600Y0094100D01*
X0161600Y0084100D02*
X0159100Y0081600D01*
X0159100Y0076600D01*
X0161600Y0074100D01*
X0161600Y0064100D02*
X0159100Y0061600D01*
X0159100Y0056600D01*
X0161600Y0054100D01*
X0168100Y0021600D02*
X0168104Y0021931D01*
X0168116Y0022262D01*
X0168137Y0022593D01*
X0168165Y0022923D01*
X0168202Y0023253D01*
X0168246Y0023581D01*
X0168299Y0023908D01*
X0168359Y0024234D01*
X0168428Y0024558D01*
X0168505Y0024880D01*
X0168589Y0025201D01*
X0168681Y0025519D01*
X0168781Y0025835D01*
X0168889Y0026148D01*
X0169005Y0026459D01*
X0169128Y0026766D01*
X0169258Y0027071D01*
X0169396Y0027372D01*
X0169541Y0027670D01*
X0169694Y0027964D01*
X0169854Y0028254D01*
X0170021Y0028540D01*
X0170194Y0028822D01*
X0170375Y0029100D01*
X0170563Y0029373D01*
X0170757Y0029642D01*
X0170957Y0029906D01*
X0171164Y0030164D01*
X0171378Y0030418D01*
X0171597Y0030666D01*
X0171823Y0030909D01*
X0172054Y0031146D01*
X0172291Y0031377D01*
X0172534Y0031603D01*
X0172782Y0031822D01*
X0173036Y0032036D01*
X0173294Y0032243D01*
X0173558Y0032443D01*
X0173827Y0032637D01*
X0174100Y0032825D01*
X0174378Y0033006D01*
X0174660Y0033179D01*
X0174946Y0033346D01*
X0175236Y0033506D01*
X0175530Y0033659D01*
X0175828Y0033804D01*
X0176129Y0033942D01*
X0176434Y0034072D01*
X0176741Y0034195D01*
X0177052Y0034311D01*
X0177365Y0034419D01*
X0177681Y0034519D01*
X0177999Y0034611D01*
X0178320Y0034695D01*
X0178642Y0034772D01*
X0178966Y0034841D01*
X0179292Y0034901D01*
X0179619Y0034954D01*
X0179947Y0034998D01*
X0180277Y0035035D01*
X0180607Y0035063D01*
X0180938Y0035084D01*
X0181269Y0035096D01*
X0181600Y0035100D01*
X0181931Y0035096D01*
X0182262Y0035084D01*
X0182593Y0035063D01*
X0182923Y0035035D01*
X0183253Y0034998D01*
X0183581Y0034954D01*
X0183908Y0034901D01*
X0184234Y0034841D01*
X0184558Y0034772D01*
X0184880Y0034695D01*
X0185201Y0034611D01*
X0185519Y0034519D01*
X0185835Y0034419D01*
X0186148Y0034311D01*
X0186459Y0034195D01*
X0186766Y0034072D01*
X0187071Y0033942D01*
X0187372Y0033804D01*
X0187670Y0033659D01*
X0187964Y0033506D01*
X0188254Y0033346D01*
X0188540Y0033179D01*
X0188822Y0033006D01*
X0189100Y0032825D01*
X0189373Y0032637D01*
X0189642Y0032443D01*
X0189906Y0032243D01*
X0190164Y0032036D01*
X0190418Y0031822D01*
X0190666Y0031603D01*
X0190909Y0031377D01*
X0191146Y0031146D01*
X0191377Y0030909D01*
X0191603Y0030666D01*
X0191822Y0030418D01*
X0192036Y0030164D01*
X0192243Y0029906D01*
X0192443Y0029642D01*
X0192637Y0029373D01*
X0192825Y0029100D01*
X0193006Y0028822D01*
X0193179Y0028540D01*
X0193346Y0028254D01*
X0193506Y0027964D01*
X0193659Y0027670D01*
X0193804Y0027372D01*
X0193942Y0027071D01*
X0194072Y0026766D01*
X0194195Y0026459D01*
X0194311Y0026148D01*
X0194419Y0025835D01*
X0194519Y0025519D01*
X0194611Y0025201D01*
X0194695Y0024880D01*
X0194772Y0024558D01*
X0194841Y0024234D01*
X0194901Y0023908D01*
X0194954Y0023581D01*
X0194998Y0023253D01*
X0195035Y0022923D01*
X0195063Y0022593D01*
X0195084Y0022262D01*
X0195096Y0021931D01*
X0195100Y0021600D01*
X0195096Y0021269D01*
X0195084Y0020938D01*
X0195063Y0020607D01*
X0195035Y0020277D01*
X0194998Y0019947D01*
X0194954Y0019619D01*
X0194901Y0019292D01*
X0194841Y0018966D01*
X0194772Y0018642D01*
X0194695Y0018320D01*
X0194611Y0017999D01*
X0194519Y0017681D01*
X0194419Y0017365D01*
X0194311Y0017052D01*
X0194195Y0016741D01*
X0194072Y0016434D01*
X0193942Y0016129D01*
X0193804Y0015828D01*
X0193659Y0015530D01*
X0193506Y0015236D01*
X0193346Y0014946D01*
X0193179Y0014660D01*
X0193006Y0014378D01*
X0192825Y0014100D01*
X0192637Y0013827D01*
X0192443Y0013558D01*
X0192243Y0013294D01*
X0192036Y0013036D01*
X0191822Y0012782D01*
X0191603Y0012534D01*
X0191377Y0012291D01*
X0191146Y0012054D01*
X0190909Y0011823D01*
X0190666Y0011597D01*
X0190418Y0011378D01*
X0190164Y0011164D01*
X0189906Y0010957D01*
X0189642Y0010757D01*
X0189373Y0010563D01*
X0189100Y0010375D01*
X0188822Y0010194D01*
X0188540Y0010021D01*
X0188254Y0009854D01*
X0187964Y0009694D01*
X0187670Y0009541D01*
X0187372Y0009396D01*
X0187071Y0009258D01*
X0186766Y0009128D01*
X0186459Y0009005D01*
X0186148Y0008889D01*
X0185835Y0008781D01*
X0185519Y0008681D01*
X0185201Y0008589D01*
X0184880Y0008505D01*
X0184558Y0008428D01*
X0184234Y0008359D01*
X0183908Y0008299D01*
X0183581Y0008246D01*
X0183253Y0008202D01*
X0182923Y0008165D01*
X0182593Y0008137D01*
X0182262Y0008116D01*
X0181931Y0008104D01*
X0181600Y0008100D01*
X0181269Y0008104D01*
X0180938Y0008116D01*
X0180607Y0008137D01*
X0180277Y0008165D01*
X0179947Y0008202D01*
X0179619Y0008246D01*
X0179292Y0008299D01*
X0178966Y0008359D01*
X0178642Y0008428D01*
X0178320Y0008505D01*
X0177999Y0008589D01*
X0177681Y0008681D01*
X0177365Y0008781D01*
X0177052Y0008889D01*
X0176741Y0009005D01*
X0176434Y0009128D01*
X0176129Y0009258D01*
X0175828Y0009396D01*
X0175530Y0009541D01*
X0175236Y0009694D01*
X0174946Y0009854D01*
X0174660Y0010021D01*
X0174378Y0010194D01*
X0174100Y0010375D01*
X0173827Y0010563D01*
X0173558Y0010757D01*
X0173294Y0010957D01*
X0173036Y0011164D01*
X0172782Y0011378D01*
X0172534Y0011597D01*
X0172291Y0011823D01*
X0172054Y0012054D01*
X0171823Y0012291D01*
X0171597Y0012534D01*
X0171378Y0012782D01*
X0171164Y0013036D01*
X0170957Y0013294D01*
X0170757Y0013558D01*
X0170563Y0013827D01*
X0170375Y0014100D01*
X0170194Y0014378D01*
X0170021Y0014660D01*
X0169854Y0014946D01*
X0169694Y0015236D01*
X0169541Y0015530D01*
X0169396Y0015828D01*
X0169258Y0016129D01*
X0169128Y0016434D01*
X0169005Y0016741D01*
X0168889Y0017052D01*
X0168781Y0017365D01*
X0168681Y0017681D01*
X0168589Y0017999D01*
X0168505Y0018320D01*
X0168428Y0018642D01*
X0168359Y0018966D01*
X0168299Y0019292D01*
X0168246Y0019619D01*
X0168202Y0019947D01*
X0168165Y0020277D01*
X0168137Y0020607D01*
X0168116Y0020938D01*
X0168104Y0021269D01*
X0168100Y0021600D01*
X0129282Y0014664D02*
X0125012Y0014664D01*
X0127147Y0014664D02*
X0127147Y0021069D01*
X0125012Y0018934D01*
X0122837Y0020002D02*
X0122837Y0015731D01*
X0121769Y0014664D01*
X0119634Y0014664D01*
X0118566Y0015731D01*
X0122837Y0020002D01*
X0121769Y0021069D01*
X0119634Y0021069D01*
X0118566Y0020002D01*
X0118566Y0015731D01*
X0116391Y0014664D02*
X0112121Y0014664D01*
X0116391Y0018934D01*
X0116391Y0020002D01*
X0115323Y0021069D01*
X0113188Y0021069D01*
X0112121Y0020002D01*
X0109946Y0017867D02*
X0105675Y0017867D01*
X0103500Y0017867D02*
X0102432Y0016799D01*
X0099230Y0016799D01*
X0099230Y0014664D02*
X0099230Y0021069D01*
X0102432Y0021069D01*
X0103500Y0020002D01*
X0103500Y0017867D01*
X0097055Y0016799D02*
X0097055Y0015731D01*
X0095987Y0014664D01*
X0093852Y0014664D01*
X0092784Y0015731D01*
X0093852Y0017867D02*
X0092784Y0018934D01*
X0092784Y0020002D01*
X0093852Y0021069D01*
X0095987Y0021069D01*
X0097055Y0020002D01*
X0095987Y0017867D02*
X0093852Y0017867D01*
X0095987Y0017867D02*
X0097055Y0016799D01*
X0090609Y0014664D02*
X0086339Y0014664D01*
X0086339Y0021069D01*
X0090609Y0021069D01*
X0088474Y0017867D02*
X0086339Y0017867D01*
X0101100Y0036850D02*
X0101100Y0037850D01*
X0101100Y0038850D01*
X0101100Y0037850D02*
X0102100Y0037850D01*
X0101100Y0037850D02*
X0100100Y0037850D01*
X0096600Y0032850D02*
X0096603Y0033095D01*
X0096612Y0033341D01*
X0096627Y0033586D01*
X0096648Y0033830D01*
X0096675Y0034074D01*
X0096708Y0034317D01*
X0096747Y0034560D01*
X0096792Y0034801D01*
X0096843Y0035041D01*
X0096900Y0035280D01*
X0096962Y0035517D01*
X0097031Y0035753D01*
X0097105Y0035987D01*
X0097185Y0036219D01*
X0097270Y0036449D01*
X0097361Y0036677D01*
X0097458Y0036902D01*
X0097560Y0037126D01*
X0097668Y0037346D01*
X0097781Y0037564D01*
X0097899Y0037779D01*
X0098023Y0037991D01*
X0098151Y0038200D01*
X0098285Y0038406D01*
X0098424Y0038608D01*
X0098568Y0038807D01*
X0098717Y0039002D01*
X0098870Y0039194D01*
X0099028Y0039382D01*
X0099190Y0039566D01*
X0099358Y0039745D01*
X0099529Y0039921D01*
X0099705Y0040092D01*
X0099884Y0040260D01*
X0100068Y0040422D01*
X0100256Y0040580D01*
X0100448Y0040733D01*
X0100643Y0040882D01*
X0100842Y0041026D01*
X0101044Y0041165D01*
X0101250Y0041299D01*
X0101459Y0041427D01*
X0101671Y0041551D01*
X0101886Y0041669D01*
X0102104Y0041782D01*
X0102324Y0041890D01*
X0102548Y0041992D01*
X0102773Y0042089D01*
X0103001Y0042180D01*
X0103231Y0042265D01*
X0103463Y0042345D01*
X0103697Y0042419D01*
X0103933Y0042488D01*
X0104170Y0042550D01*
X0104409Y0042607D01*
X0104649Y0042658D01*
X0104890Y0042703D01*
X0105133Y0042742D01*
X0105376Y0042775D01*
X0105620Y0042802D01*
X0105864Y0042823D01*
X0106109Y0042838D01*
X0106355Y0042847D01*
X0106600Y0042850D01*
X0106845Y0042847D01*
X0107091Y0042838D01*
X0107336Y0042823D01*
X0107580Y0042802D01*
X0107824Y0042775D01*
X0108067Y0042742D01*
X0108310Y0042703D01*
X0108551Y0042658D01*
X0108791Y0042607D01*
X0109030Y0042550D01*
X0109267Y0042488D01*
X0109503Y0042419D01*
X0109737Y0042345D01*
X0109969Y0042265D01*
X0110199Y0042180D01*
X0110427Y0042089D01*
X0110652Y0041992D01*
X0110876Y0041890D01*
X0111096Y0041782D01*
X0111314Y0041669D01*
X0111529Y0041551D01*
X0111741Y0041427D01*
X0111950Y0041299D01*
X0112156Y0041165D01*
X0112358Y0041026D01*
X0112557Y0040882D01*
X0112752Y0040733D01*
X0112944Y0040580D01*
X0113132Y0040422D01*
X0113316Y0040260D01*
X0113495Y0040092D01*
X0113671Y0039921D01*
X0113842Y0039745D01*
X0114010Y0039566D01*
X0114172Y0039382D01*
X0114330Y0039194D01*
X0114483Y0039002D01*
X0114632Y0038807D01*
X0114776Y0038608D01*
X0114915Y0038406D01*
X0115049Y0038200D01*
X0115177Y0037991D01*
X0115301Y0037779D01*
X0115419Y0037564D01*
X0115532Y0037346D01*
X0115640Y0037126D01*
X0115742Y0036902D01*
X0115839Y0036677D01*
X0115930Y0036449D01*
X0116015Y0036219D01*
X0116095Y0035987D01*
X0116169Y0035753D01*
X0116238Y0035517D01*
X0116300Y0035280D01*
X0116357Y0035041D01*
X0116408Y0034801D01*
X0116453Y0034560D01*
X0116492Y0034317D01*
X0116525Y0034074D01*
X0116552Y0033830D01*
X0116573Y0033586D01*
X0116588Y0033341D01*
X0116597Y0033095D01*
X0116600Y0032850D01*
X0116597Y0032605D01*
X0116588Y0032359D01*
X0116573Y0032114D01*
X0116552Y0031870D01*
X0116525Y0031626D01*
X0116492Y0031383D01*
X0116453Y0031140D01*
X0116408Y0030899D01*
X0116357Y0030659D01*
X0116300Y0030420D01*
X0116238Y0030183D01*
X0116169Y0029947D01*
X0116095Y0029713D01*
X0116015Y0029481D01*
X0115930Y0029251D01*
X0115839Y0029023D01*
X0115742Y0028798D01*
X0115640Y0028574D01*
X0115532Y0028354D01*
X0115419Y0028136D01*
X0115301Y0027921D01*
X0115177Y0027709D01*
X0115049Y0027500D01*
X0114915Y0027294D01*
X0114776Y0027092D01*
X0114632Y0026893D01*
X0114483Y0026698D01*
X0114330Y0026506D01*
X0114172Y0026318D01*
X0114010Y0026134D01*
X0113842Y0025955D01*
X0113671Y0025779D01*
X0113495Y0025608D01*
X0113316Y0025440D01*
X0113132Y0025278D01*
X0112944Y0025120D01*
X0112752Y0024967D01*
X0112557Y0024818D01*
X0112358Y0024674D01*
X0112156Y0024535D01*
X0111950Y0024401D01*
X0111741Y0024273D01*
X0111529Y0024149D01*
X0111314Y0024031D01*
X0111096Y0023918D01*
X0110876Y0023810D01*
X0110652Y0023708D01*
X0110427Y0023611D01*
X0110199Y0023520D01*
X0109969Y0023435D01*
X0109737Y0023355D01*
X0109503Y0023281D01*
X0109267Y0023212D01*
X0109030Y0023150D01*
X0108791Y0023093D01*
X0108551Y0023042D01*
X0108310Y0022997D01*
X0108067Y0022958D01*
X0107824Y0022925D01*
X0107580Y0022898D01*
X0107336Y0022877D01*
X0107091Y0022862D01*
X0106845Y0022853D01*
X0106600Y0022850D01*
X0106355Y0022853D01*
X0106109Y0022862D01*
X0105864Y0022877D01*
X0105620Y0022898D01*
X0105376Y0022925D01*
X0105133Y0022958D01*
X0104890Y0022997D01*
X0104649Y0023042D01*
X0104409Y0023093D01*
X0104170Y0023150D01*
X0103933Y0023212D01*
X0103697Y0023281D01*
X0103463Y0023355D01*
X0103231Y0023435D01*
X0103001Y0023520D01*
X0102773Y0023611D01*
X0102548Y0023708D01*
X0102324Y0023810D01*
X0102104Y0023918D01*
X0101886Y0024031D01*
X0101671Y0024149D01*
X0101459Y0024273D01*
X0101250Y0024401D01*
X0101044Y0024535D01*
X0100842Y0024674D01*
X0100643Y0024818D01*
X0100448Y0024967D01*
X0100256Y0025120D01*
X0100068Y0025278D01*
X0099884Y0025440D01*
X0099705Y0025608D01*
X0099529Y0025779D01*
X0099358Y0025955D01*
X0099190Y0026134D01*
X0099028Y0026318D01*
X0098870Y0026506D01*
X0098717Y0026698D01*
X0098568Y0026893D01*
X0098424Y0027092D01*
X0098285Y0027294D01*
X0098151Y0027500D01*
X0098023Y0027709D01*
X0097899Y0027921D01*
X0097781Y0028136D01*
X0097668Y0028354D01*
X0097560Y0028574D01*
X0097458Y0028798D01*
X0097361Y0029023D01*
X0097270Y0029251D01*
X0097185Y0029481D01*
X0097105Y0029713D01*
X0097031Y0029947D01*
X0096962Y0030183D01*
X0096900Y0030420D01*
X0096843Y0030659D01*
X0096792Y0030899D01*
X0096747Y0031140D01*
X0096708Y0031383D01*
X0096675Y0031626D01*
X0096648Y0031870D01*
X0096627Y0032114D01*
X0096612Y0032359D01*
X0096603Y0032605D01*
X0096600Y0032850D01*
X0044100Y0111600D02*
X0043100Y0111600D01*
X0017100Y0111600D01*
X0017100Y0118100D01*
X0017100Y0125100D02*
X0017100Y0138100D01*
X0017100Y0145100D02*
X0017100Y0151600D01*
X0007600Y0151600D01*
X0007600Y0111600D01*
X0017100Y0111600D01*
X0035800Y0121600D02*
X0035802Y0121689D01*
X0035808Y0121778D01*
X0035818Y0121867D01*
X0035832Y0121955D01*
X0035849Y0122042D01*
X0035871Y0122128D01*
X0035897Y0122214D01*
X0035926Y0122298D01*
X0035959Y0122381D01*
X0035995Y0122462D01*
X0036036Y0122542D01*
X0036079Y0122619D01*
X0036126Y0122695D01*
X0036177Y0122768D01*
X0036230Y0122839D01*
X0036287Y0122908D01*
X0036347Y0122974D01*
X0036410Y0123038D01*
X0036475Y0123098D01*
X0036543Y0123156D01*
X0036614Y0123210D01*
X0036687Y0123261D01*
X0036762Y0123309D01*
X0036839Y0123354D01*
X0036918Y0123395D01*
X0036999Y0123432D01*
X0037081Y0123466D01*
X0037165Y0123497D01*
X0037250Y0123523D01*
X0037336Y0123546D01*
X0037423Y0123564D01*
X0037511Y0123579D01*
X0037600Y0123590D01*
X0037689Y0123597D01*
X0037778Y0123600D01*
X0037867Y0123599D01*
X0037956Y0123594D01*
X0038044Y0123585D01*
X0038133Y0123572D01*
X0038220Y0123555D01*
X0038307Y0123535D01*
X0038393Y0123510D01*
X0038477Y0123482D01*
X0038560Y0123450D01*
X0038642Y0123414D01*
X0038722Y0123375D01*
X0038800Y0123332D01*
X0038876Y0123286D01*
X0038950Y0123236D01*
X0039022Y0123183D01*
X0039091Y0123127D01*
X0039158Y0123068D01*
X0039222Y0123006D01*
X0039283Y0122942D01*
X0039342Y0122874D01*
X0039397Y0122804D01*
X0039449Y0122732D01*
X0039498Y0122657D01*
X0039543Y0122581D01*
X0039585Y0122502D01*
X0039623Y0122422D01*
X0039658Y0122340D01*
X0039689Y0122256D01*
X0039717Y0122171D01*
X0039740Y0122085D01*
X0039760Y0121998D01*
X0039776Y0121911D01*
X0039788Y0121822D01*
X0039796Y0121734D01*
X0039800Y0121645D01*
X0039800Y0121555D01*
X0039796Y0121466D01*
X0039788Y0121378D01*
X0039776Y0121289D01*
X0039760Y0121202D01*
X0039740Y0121115D01*
X0039717Y0121029D01*
X0039689Y0120944D01*
X0039658Y0120860D01*
X0039623Y0120778D01*
X0039585Y0120698D01*
X0039543Y0120619D01*
X0039498Y0120543D01*
X0039449Y0120468D01*
X0039397Y0120396D01*
X0039342Y0120326D01*
X0039283Y0120258D01*
X0039222Y0120194D01*
X0039158Y0120132D01*
X0039091Y0120073D01*
X0039022Y0120017D01*
X0038950Y0119964D01*
X0038876Y0119914D01*
X0038800Y0119868D01*
X0038722Y0119825D01*
X0038642Y0119786D01*
X0038560Y0119750D01*
X0038477Y0119718D01*
X0038393Y0119690D01*
X0038307Y0119665D01*
X0038220Y0119645D01*
X0038133Y0119628D01*
X0038044Y0119615D01*
X0037956Y0119606D01*
X0037867Y0119601D01*
X0037778Y0119600D01*
X0037689Y0119603D01*
X0037600Y0119610D01*
X0037511Y0119621D01*
X0037423Y0119636D01*
X0037336Y0119654D01*
X0037250Y0119677D01*
X0037165Y0119703D01*
X0037081Y0119734D01*
X0036999Y0119768D01*
X0036918Y0119805D01*
X0036839Y0119846D01*
X0036762Y0119891D01*
X0036687Y0119939D01*
X0036614Y0119990D01*
X0036543Y0120044D01*
X0036475Y0120102D01*
X0036410Y0120162D01*
X0036347Y0120226D01*
X0036287Y0120292D01*
X0036230Y0120361D01*
X0036177Y0120432D01*
X0036126Y0120505D01*
X0036079Y0120581D01*
X0036036Y0120658D01*
X0035995Y0120738D01*
X0035959Y0120819D01*
X0035926Y0120902D01*
X0035897Y0120986D01*
X0035871Y0121072D01*
X0035849Y0121158D01*
X0035832Y0121245D01*
X0035818Y0121333D01*
X0035808Y0121422D01*
X0035802Y0121511D01*
X0035800Y0121600D01*
X0043100Y0111600D02*
X0043100Y0151600D01*
X0044100Y0151600D01*
X0044100Y0111600D01*
X0035800Y0141600D02*
X0035802Y0141689D01*
X0035808Y0141778D01*
X0035818Y0141867D01*
X0035832Y0141955D01*
X0035849Y0142042D01*
X0035871Y0142128D01*
X0035897Y0142214D01*
X0035926Y0142298D01*
X0035959Y0142381D01*
X0035995Y0142462D01*
X0036036Y0142542D01*
X0036079Y0142619D01*
X0036126Y0142695D01*
X0036177Y0142768D01*
X0036230Y0142839D01*
X0036287Y0142908D01*
X0036347Y0142974D01*
X0036410Y0143038D01*
X0036475Y0143098D01*
X0036543Y0143156D01*
X0036614Y0143210D01*
X0036687Y0143261D01*
X0036762Y0143309D01*
X0036839Y0143354D01*
X0036918Y0143395D01*
X0036999Y0143432D01*
X0037081Y0143466D01*
X0037165Y0143497D01*
X0037250Y0143523D01*
X0037336Y0143546D01*
X0037423Y0143564D01*
X0037511Y0143579D01*
X0037600Y0143590D01*
X0037689Y0143597D01*
X0037778Y0143600D01*
X0037867Y0143599D01*
X0037956Y0143594D01*
X0038044Y0143585D01*
X0038133Y0143572D01*
X0038220Y0143555D01*
X0038307Y0143535D01*
X0038393Y0143510D01*
X0038477Y0143482D01*
X0038560Y0143450D01*
X0038642Y0143414D01*
X0038722Y0143375D01*
X0038800Y0143332D01*
X0038876Y0143286D01*
X0038950Y0143236D01*
X0039022Y0143183D01*
X0039091Y0143127D01*
X0039158Y0143068D01*
X0039222Y0143006D01*
X0039283Y0142942D01*
X0039342Y0142874D01*
X0039397Y0142804D01*
X0039449Y0142732D01*
X0039498Y0142657D01*
X0039543Y0142581D01*
X0039585Y0142502D01*
X0039623Y0142422D01*
X0039658Y0142340D01*
X0039689Y0142256D01*
X0039717Y0142171D01*
X0039740Y0142085D01*
X0039760Y0141998D01*
X0039776Y0141911D01*
X0039788Y0141822D01*
X0039796Y0141734D01*
X0039800Y0141645D01*
X0039800Y0141555D01*
X0039796Y0141466D01*
X0039788Y0141378D01*
X0039776Y0141289D01*
X0039760Y0141202D01*
X0039740Y0141115D01*
X0039717Y0141029D01*
X0039689Y0140944D01*
X0039658Y0140860D01*
X0039623Y0140778D01*
X0039585Y0140698D01*
X0039543Y0140619D01*
X0039498Y0140543D01*
X0039449Y0140468D01*
X0039397Y0140396D01*
X0039342Y0140326D01*
X0039283Y0140258D01*
X0039222Y0140194D01*
X0039158Y0140132D01*
X0039091Y0140073D01*
X0039022Y0140017D01*
X0038950Y0139964D01*
X0038876Y0139914D01*
X0038800Y0139868D01*
X0038722Y0139825D01*
X0038642Y0139786D01*
X0038560Y0139750D01*
X0038477Y0139718D01*
X0038393Y0139690D01*
X0038307Y0139665D01*
X0038220Y0139645D01*
X0038133Y0139628D01*
X0038044Y0139615D01*
X0037956Y0139606D01*
X0037867Y0139601D01*
X0037778Y0139600D01*
X0037689Y0139603D01*
X0037600Y0139610D01*
X0037511Y0139621D01*
X0037423Y0139636D01*
X0037336Y0139654D01*
X0037250Y0139677D01*
X0037165Y0139703D01*
X0037081Y0139734D01*
X0036999Y0139768D01*
X0036918Y0139805D01*
X0036839Y0139846D01*
X0036762Y0139891D01*
X0036687Y0139939D01*
X0036614Y0139990D01*
X0036543Y0140044D01*
X0036475Y0140102D01*
X0036410Y0140162D01*
X0036347Y0140226D01*
X0036287Y0140292D01*
X0036230Y0140361D01*
X0036177Y0140432D01*
X0036126Y0140505D01*
X0036079Y0140581D01*
X0036036Y0140658D01*
X0035995Y0140738D01*
X0035959Y0140819D01*
X0035926Y0140902D01*
X0035897Y0140986D01*
X0035871Y0141072D01*
X0035849Y0141158D01*
X0035832Y0141245D01*
X0035818Y0141333D01*
X0035808Y0141422D01*
X0035802Y0141511D01*
X0035800Y0141600D01*
X0043100Y0151600D02*
X0017100Y0151600D01*
X0013100Y0171600D02*
X0013104Y0171931D01*
X0013116Y0172262D01*
X0013137Y0172593D01*
X0013165Y0172923D01*
X0013202Y0173253D01*
X0013246Y0173581D01*
X0013299Y0173908D01*
X0013359Y0174234D01*
X0013428Y0174558D01*
X0013505Y0174880D01*
X0013589Y0175201D01*
X0013681Y0175519D01*
X0013781Y0175835D01*
X0013889Y0176148D01*
X0014005Y0176459D01*
X0014128Y0176766D01*
X0014258Y0177071D01*
X0014396Y0177372D01*
X0014541Y0177670D01*
X0014694Y0177964D01*
X0014854Y0178254D01*
X0015021Y0178540D01*
X0015194Y0178822D01*
X0015375Y0179100D01*
X0015563Y0179373D01*
X0015757Y0179642D01*
X0015957Y0179906D01*
X0016164Y0180164D01*
X0016378Y0180418D01*
X0016597Y0180666D01*
X0016823Y0180909D01*
X0017054Y0181146D01*
X0017291Y0181377D01*
X0017534Y0181603D01*
X0017782Y0181822D01*
X0018036Y0182036D01*
X0018294Y0182243D01*
X0018558Y0182443D01*
X0018827Y0182637D01*
X0019100Y0182825D01*
X0019378Y0183006D01*
X0019660Y0183179D01*
X0019946Y0183346D01*
X0020236Y0183506D01*
X0020530Y0183659D01*
X0020828Y0183804D01*
X0021129Y0183942D01*
X0021434Y0184072D01*
X0021741Y0184195D01*
X0022052Y0184311D01*
X0022365Y0184419D01*
X0022681Y0184519D01*
X0022999Y0184611D01*
X0023320Y0184695D01*
X0023642Y0184772D01*
X0023966Y0184841D01*
X0024292Y0184901D01*
X0024619Y0184954D01*
X0024947Y0184998D01*
X0025277Y0185035D01*
X0025607Y0185063D01*
X0025938Y0185084D01*
X0026269Y0185096D01*
X0026600Y0185100D01*
X0026931Y0185096D01*
X0027262Y0185084D01*
X0027593Y0185063D01*
X0027923Y0185035D01*
X0028253Y0184998D01*
X0028581Y0184954D01*
X0028908Y0184901D01*
X0029234Y0184841D01*
X0029558Y0184772D01*
X0029880Y0184695D01*
X0030201Y0184611D01*
X0030519Y0184519D01*
X0030835Y0184419D01*
X0031148Y0184311D01*
X0031459Y0184195D01*
X0031766Y0184072D01*
X0032071Y0183942D01*
X0032372Y0183804D01*
X0032670Y0183659D01*
X0032964Y0183506D01*
X0033254Y0183346D01*
X0033540Y0183179D01*
X0033822Y0183006D01*
X0034100Y0182825D01*
X0034373Y0182637D01*
X0034642Y0182443D01*
X0034906Y0182243D01*
X0035164Y0182036D01*
X0035418Y0181822D01*
X0035666Y0181603D01*
X0035909Y0181377D01*
X0036146Y0181146D01*
X0036377Y0180909D01*
X0036603Y0180666D01*
X0036822Y0180418D01*
X0037036Y0180164D01*
X0037243Y0179906D01*
X0037443Y0179642D01*
X0037637Y0179373D01*
X0037825Y0179100D01*
X0038006Y0178822D01*
X0038179Y0178540D01*
X0038346Y0178254D01*
X0038506Y0177964D01*
X0038659Y0177670D01*
X0038804Y0177372D01*
X0038942Y0177071D01*
X0039072Y0176766D01*
X0039195Y0176459D01*
X0039311Y0176148D01*
X0039419Y0175835D01*
X0039519Y0175519D01*
X0039611Y0175201D01*
X0039695Y0174880D01*
X0039772Y0174558D01*
X0039841Y0174234D01*
X0039901Y0173908D01*
X0039954Y0173581D01*
X0039998Y0173253D01*
X0040035Y0172923D01*
X0040063Y0172593D01*
X0040084Y0172262D01*
X0040096Y0171931D01*
X0040100Y0171600D01*
X0040096Y0171269D01*
X0040084Y0170938D01*
X0040063Y0170607D01*
X0040035Y0170277D01*
X0039998Y0169947D01*
X0039954Y0169619D01*
X0039901Y0169292D01*
X0039841Y0168966D01*
X0039772Y0168642D01*
X0039695Y0168320D01*
X0039611Y0167999D01*
X0039519Y0167681D01*
X0039419Y0167365D01*
X0039311Y0167052D01*
X0039195Y0166741D01*
X0039072Y0166434D01*
X0038942Y0166129D01*
X0038804Y0165828D01*
X0038659Y0165530D01*
X0038506Y0165236D01*
X0038346Y0164946D01*
X0038179Y0164660D01*
X0038006Y0164378D01*
X0037825Y0164100D01*
X0037637Y0163827D01*
X0037443Y0163558D01*
X0037243Y0163294D01*
X0037036Y0163036D01*
X0036822Y0162782D01*
X0036603Y0162534D01*
X0036377Y0162291D01*
X0036146Y0162054D01*
X0035909Y0161823D01*
X0035666Y0161597D01*
X0035418Y0161378D01*
X0035164Y0161164D01*
X0034906Y0160957D01*
X0034642Y0160757D01*
X0034373Y0160563D01*
X0034100Y0160375D01*
X0033822Y0160194D01*
X0033540Y0160021D01*
X0033254Y0159854D01*
X0032964Y0159694D01*
X0032670Y0159541D01*
X0032372Y0159396D01*
X0032071Y0159258D01*
X0031766Y0159128D01*
X0031459Y0159005D01*
X0031148Y0158889D01*
X0030835Y0158781D01*
X0030519Y0158681D01*
X0030201Y0158589D01*
X0029880Y0158505D01*
X0029558Y0158428D01*
X0029234Y0158359D01*
X0028908Y0158299D01*
X0028581Y0158246D01*
X0028253Y0158202D01*
X0027923Y0158165D01*
X0027593Y0158137D01*
X0027262Y0158116D01*
X0026931Y0158104D01*
X0026600Y0158100D01*
X0026269Y0158104D01*
X0025938Y0158116D01*
X0025607Y0158137D01*
X0025277Y0158165D01*
X0024947Y0158202D01*
X0024619Y0158246D01*
X0024292Y0158299D01*
X0023966Y0158359D01*
X0023642Y0158428D01*
X0023320Y0158505D01*
X0022999Y0158589D01*
X0022681Y0158681D01*
X0022365Y0158781D01*
X0022052Y0158889D01*
X0021741Y0159005D01*
X0021434Y0159128D01*
X0021129Y0159258D01*
X0020828Y0159396D01*
X0020530Y0159541D01*
X0020236Y0159694D01*
X0019946Y0159854D01*
X0019660Y0160021D01*
X0019378Y0160194D01*
X0019100Y0160375D01*
X0018827Y0160563D01*
X0018558Y0160757D01*
X0018294Y0160957D01*
X0018036Y0161164D01*
X0017782Y0161378D01*
X0017534Y0161597D01*
X0017291Y0161823D01*
X0017054Y0162054D01*
X0016823Y0162291D01*
X0016597Y0162534D01*
X0016378Y0162782D01*
X0016164Y0163036D01*
X0015957Y0163294D01*
X0015757Y0163558D01*
X0015563Y0163827D01*
X0015375Y0164100D01*
X0015194Y0164378D01*
X0015021Y0164660D01*
X0014854Y0164946D01*
X0014694Y0165236D01*
X0014541Y0165530D01*
X0014396Y0165828D01*
X0014258Y0166129D01*
X0014128Y0166434D01*
X0014005Y0166741D01*
X0013889Y0167052D01*
X0013781Y0167365D01*
X0013681Y0167681D01*
X0013589Y0167999D01*
X0013505Y0168320D01*
X0013428Y0168642D01*
X0013359Y0168966D01*
X0013299Y0169292D01*
X0013246Y0169619D01*
X0013202Y0169947D01*
X0013165Y0170277D01*
X0013137Y0170607D01*
X0013116Y0170938D01*
X0013104Y0171269D01*
X0013100Y0171600D01*
X0054600Y0168850D02*
X0054600Y0165350D01*
X0054600Y0155350D01*
X0054600Y0151850D01*
X0062600Y0148350D02*
X0063600Y0148350D01*
X0063600Y0147350D01*
X0069600Y0147350D01*
X0069600Y0148350D01*
X0070600Y0148350D01*
X0078600Y0151850D02*
X0078600Y0155350D01*
X0078600Y0164850D01*
X0078600Y0168850D01*
X0070600Y0172350D02*
X0069600Y0172350D01*
X0069600Y0173350D01*
X0063600Y0173350D01*
X0063600Y0172350D01*
X0062600Y0172350D01*
X0065600Y0160350D02*
X0065602Y0160413D01*
X0065608Y0160475D01*
X0065618Y0160537D01*
X0065631Y0160599D01*
X0065649Y0160659D01*
X0065670Y0160718D01*
X0065695Y0160776D01*
X0065724Y0160832D01*
X0065756Y0160886D01*
X0065791Y0160938D01*
X0065829Y0160987D01*
X0065871Y0161035D01*
X0065915Y0161079D01*
X0065963Y0161121D01*
X0066012Y0161159D01*
X0066064Y0161194D01*
X0066118Y0161226D01*
X0066174Y0161255D01*
X0066232Y0161280D01*
X0066291Y0161301D01*
X0066351Y0161319D01*
X0066413Y0161332D01*
X0066475Y0161342D01*
X0066537Y0161348D01*
X0066600Y0161350D01*
X0066663Y0161348D01*
X0066725Y0161342D01*
X0066787Y0161332D01*
X0066849Y0161319D01*
X0066909Y0161301D01*
X0066968Y0161280D01*
X0067026Y0161255D01*
X0067082Y0161226D01*
X0067136Y0161194D01*
X0067188Y0161159D01*
X0067237Y0161121D01*
X0067285Y0161079D01*
X0067329Y0161035D01*
X0067371Y0160987D01*
X0067409Y0160938D01*
X0067444Y0160886D01*
X0067476Y0160832D01*
X0067505Y0160776D01*
X0067530Y0160718D01*
X0067551Y0160659D01*
X0067569Y0160599D01*
X0067582Y0160537D01*
X0067592Y0160475D01*
X0067598Y0160413D01*
X0067600Y0160350D01*
X0067598Y0160287D01*
X0067592Y0160225D01*
X0067582Y0160163D01*
X0067569Y0160101D01*
X0067551Y0160041D01*
X0067530Y0159982D01*
X0067505Y0159924D01*
X0067476Y0159868D01*
X0067444Y0159814D01*
X0067409Y0159762D01*
X0067371Y0159713D01*
X0067329Y0159665D01*
X0067285Y0159621D01*
X0067237Y0159579D01*
X0067188Y0159541D01*
X0067136Y0159506D01*
X0067082Y0159474D01*
X0067026Y0159445D01*
X0066968Y0159420D01*
X0066909Y0159399D01*
X0066849Y0159381D01*
X0066787Y0159368D01*
X0066725Y0159358D01*
X0066663Y0159352D01*
X0066600Y0159350D01*
X0066537Y0159352D01*
X0066475Y0159358D01*
X0066413Y0159368D01*
X0066351Y0159381D01*
X0066291Y0159399D01*
X0066232Y0159420D01*
X0066174Y0159445D01*
X0066118Y0159474D01*
X0066064Y0159506D01*
X0066012Y0159541D01*
X0065963Y0159579D01*
X0065915Y0159621D01*
X0065871Y0159665D01*
X0065829Y0159713D01*
X0065791Y0159762D01*
X0065756Y0159814D01*
X0065724Y0159868D01*
X0065695Y0159924D01*
X0065670Y0159982D01*
X0065649Y0160041D01*
X0065631Y0160101D01*
X0065618Y0160163D01*
X0065608Y0160225D01*
X0065602Y0160287D01*
X0065600Y0160350D01*
X0059600Y0160350D02*
X0059602Y0160522D01*
X0059608Y0160693D01*
X0059619Y0160865D01*
X0059634Y0161036D01*
X0059653Y0161207D01*
X0059676Y0161377D01*
X0059703Y0161547D01*
X0059735Y0161716D01*
X0059770Y0161884D01*
X0059810Y0162051D01*
X0059854Y0162217D01*
X0059901Y0162382D01*
X0059953Y0162546D01*
X0060009Y0162708D01*
X0060069Y0162869D01*
X0060133Y0163029D01*
X0060201Y0163187D01*
X0060272Y0163343D01*
X0060347Y0163497D01*
X0060427Y0163650D01*
X0060509Y0163800D01*
X0060596Y0163949D01*
X0060686Y0164095D01*
X0060780Y0164239D01*
X0060877Y0164381D01*
X0060978Y0164520D01*
X0061082Y0164657D01*
X0061189Y0164791D01*
X0061300Y0164922D01*
X0061413Y0165051D01*
X0061530Y0165177D01*
X0061650Y0165300D01*
X0061773Y0165420D01*
X0061899Y0165537D01*
X0062028Y0165650D01*
X0062159Y0165761D01*
X0062293Y0165868D01*
X0062430Y0165972D01*
X0062569Y0166073D01*
X0062711Y0166170D01*
X0062855Y0166264D01*
X0063001Y0166354D01*
X0063150Y0166441D01*
X0063300Y0166523D01*
X0063453Y0166603D01*
X0063607Y0166678D01*
X0063763Y0166749D01*
X0063921Y0166817D01*
X0064081Y0166881D01*
X0064242Y0166941D01*
X0064404Y0166997D01*
X0064568Y0167049D01*
X0064733Y0167096D01*
X0064899Y0167140D01*
X0065066Y0167180D01*
X0065234Y0167215D01*
X0065403Y0167247D01*
X0065573Y0167274D01*
X0065743Y0167297D01*
X0065914Y0167316D01*
X0066085Y0167331D01*
X0066257Y0167342D01*
X0066428Y0167348D01*
X0066600Y0167350D01*
X0066772Y0167348D01*
X0066943Y0167342D01*
X0067115Y0167331D01*
X0067286Y0167316D01*
X0067457Y0167297D01*
X0067627Y0167274D01*
X0067797Y0167247D01*
X0067966Y0167215D01*
X0068134Y0167180D01*
X0068301Y0167140D01*
X0068467Y0167096D01*
X0068632Y0167049D01*
X0068796Y0166997D01*
X0068958Y0166941D01*
X0069119Y0166881D01*
X0069279Y0166817D01*
X0069437Y0166749D01*
X0069593Y0166678D01*
X0069747Y0166603D01*
X0069900Y0166523D01*
X0070050Y0166441D01*
X0070199Y0166354D01*
X0070345Y0166264D01*
X0070489Y0166170D01*
X0070631Y0166073D01*
X0070770Y0165972D01*
X0070907Y0165868D01*
X0071041Y0165761D01*
X0071172Y0165650D01*
X0071301Y0165537D01*
X0071427Y0165420D01*
X0071550Y0165300D01*
X0071670Y0165177D01*
X0071787Y0165051D01*
X0071900Y0164922D01*
X0072011Y0164791D01*
X0072118Y0164657D01*
X0072222Y0164520D01*
X0072323Y0164381D01*
X0072420Y0164239D01*
X0072514Y0164095D01*
X0072604Y0163949D01*
X0072691Y0163800D01*
X0072773Y0163650D01*
X0072853Y0163497D01*
X0072928Y0163343D01*
X0072999Y0163187D01*
X0073067Y0163029D01*
X0073131Y0162869D01*
X0073191Y0162708D01*
X0073247Y0162546D01*
X0073299Y0162382D01*
X0073346Y0162217D01*
X0073390Y0162051D01*
X0073430Y0161884D01*
X0073465Y0161716D01*
X0073497Y0161547D01*
X0073524Y0161377D01*
X0073547Y0161207D01*
X0073566Y0161036D01*
X0073581Y0160865D01*
X0073592Y0160693D01*
X0073598Y0160522D01*
X0073600Y0160350D01*
X0073598Y0160178D01*
X0073592Y0160007D01*
X0073581Y0159835D01*
X0073566Y0159664D01*
X0073547Y0159493D01*
X0073524Y0159323D01*
X0073497Y0159153D01*
X0073465Y0158984D01*
X0073430Y0158816D01*
X0073390Y0158649D01*
X0073346Y0158483D01*
X0073299Y0158318D01*
X0073247Y0158154D01*
X0073191Y0157992D01*
X0073131Y0157831D01*
X0073067Y0157671D01*
X0072999Y0157513D01*
X0072928Y0157357D01*
X0072853Y0157203D01*
X0072773Y0157050D01*
X0072691Y0156900D01*
X0072604Y0156751D01*
X0072514Y0156605D01*
X0072420Y0156461D01*
X0072323Y0156319D01*
X0072222Y0156180D01*
X0072118Y0156043D01*
X0072011Y0155909D01*
X0071900Y0155778D01*
X0071787Y0155649D01*
X0071670Y0155523D01*
X0071550Y0155400D01*
X0071427Y0155280D01*
X0071301Y0155163D01*
X0071172Y0155050D01*
X0071041Y0154939D01*
X0070907Y0154832D01*
X0070770Y0154728D01*
X0070631Y0154627D01*
X0070489Y0154530D01*
X0070345Y0154436D01*
X0070199Y0154346D01*
X0070050Y0154259D01*
X0069900Y0154177D01*
X0069747Y0154097D01*
X0069593Y0154022D01*
X0069437Y0153951D01*
X0069279Y0153883D01*
X0069119Y0153819D01*
X0068958Y0153759D01*
X0068796Y0153703D01*
X0068632Y0153651D01*
X0068467Y0153604D01*
X0068301Y0153560D01*
X0068134Y0153520D01*
X0067966Y0153485D01*
X0067797Y0153453D01*
X0067627Y0153426D01*
X0067457Y0153403D01*
X0067286Y0153384D01*
X0067115Y0153369D01*
X0066943Y0153358D01*
X0066772Y0153352D01*
X0066600Y0153350D01*
X0066428Y0153352D01*
X0066257Y0153358D01*
X0066085Y0153369D01*
X0065914Y0153384D01*
X0065743Y0153403D01*
X0065573Y0153426D01*
X0065403Y0153453D01*
X0065234Y0153485D01*
X0065066Y0153520D01*
X0064899Y0153560D01*
X0064733Y0153604D01*
X0064568Y0153651D01*
X0064404Y0153703D01*
X0064242Y0153759D01*
X0064081Y0153819D01*
X0063921Y0153883D01*
X0063763Y0153951D01*
X0063607Y0154022D01*
X0063453Y0154097D01*
X0063300Y0154177D01*
X0063150Y0154259D01*
X0063001Y0154346D01*
X0062855Y0154436D01*
X0062711Y0154530D01*
X0062569Y0154627D01*
X0062430Y0154728D01*
X0062293Y0154832D01*
X0062159Y0154939D01*
X0062028Y0155050D01*
X0061899Y0155163D01*
X0061773Y0155280D01*
X0061650Y0155400D01*
X0061530Y0155523D01*
X0061413Y0155649D01*
X0061300Y0155778D01*
X0061189Y0155909D01*
X0061082Y0156043D01*
X0060978Y0156180D01*
X0060877Y0156319D01*
X0060780Y0156461D01*
X0060686Y0156605D01*
X0060596Y0156751D01*
X0060509Y0156900D01*
X0060427Y0157050D01*
X0060347Y0157203D01*
X0060272Y0157357D01*
X0060201Y0157513D01*
X0060133Y0157671D01*
X0060069Y0157831D01*
X0060009Y0157992D01*
X0059953Y0158154D01*
X0059901Y0158318D01*
X0059854Y0158483D01*
X0059810Y0158649D01*
X0059770Y0158816D01*
X0059735Y0158984D01*
X0059703Y0159153D01*
X0059676Y0159323D01*
X0059653Y0159493D01*
X0059634Y0159664D01*
X0059619Y0159835D01*
X0059608Y0160007D01*
X0059602Y0160178D01*
X0059600Y0160350D01*
X0087850Y0169100D02*
X0090350Y0166600D01*
X0095350Y0166600D01*
X0097850Y0169100D01*
X0100350Y0166600D01*
X0105350Y0166600D01*
X0107850Y0169100D01*
X0107850Y0174100D01*
X0105350Y0176600D01*
X0100350Y0176600D01*
X0097850Y0174100D01*
X0097850Y0169100D01*
X0097850Y0174100D02*
X0095350Y0176600D01*
X0090350Y0176600D01*
X0087850Y0174100D01*
X0087850Y0169100D01*
X0107850Y0169100D02*
X0110350Y0166600D01*
X0115350Y0166600D01*
X0117850Y0169100D01*
X0120350Y0166600D01*
X0125350Y0166600D01*
X0127850Y0169100D01*
X0127850Y0174100D01*
X0125350Y0176600D01*
X0120350Y0176600D01*
X0117850Y0174100D01*
X0117850Y0169100D01*
X0117850Y0174100D02*
X0115350Y0176600D01*
X0110350Y0176600D01*
X0107850Y0174100D01*
X0137100Y0168850D02*
X0137100Y0165350D01*
X0137100Y0155350D01*
X0137100Y0151850D01*
X0145100Y0148350D02*
X0146100Y0148350D01*
X0146100Y0147350D01*
X0152100Y0147350D01*
X0152100Y0148350D01*
X0153100Y0148350D01*
X0161100Y0151850D02*
X0161100Y0155350D01*
X0161100Y0164850D01*
X0161100Y0168850D01*
X0153100Y0172350D02*
X0152100Y0172350D01*
X0152100Y0173350D01*
X0146100Y0173350D01*
X0146100Y0172350D01*
X0145100Y0172350D01*
X0148100Y0160350D02*
X0148102Y0160413D01*
X0148108Y0160475D01*
X0148118Y0160537D01*
X0148131Y0160599D01*
X0148149Y0160659D01*
X0148170Y0160718D01*
X0148195Y0160776D01*
X0148224Y0160832D01*
X0148256Y0160886D01*
X0148291Y0160938D01*
X0148329Y0160987D01*
X0148371Y0161035D01*
X0148415Y0161079D01*
X0148463Y0161121D01*
X0148512Y0161159D01*
X0148564Y0161194D01*
X0148618Y0161226D01*
X0148674Y0161255D01*
X0148732Y0161280D01*
X0148791Y0161301D01*
X0148851Y0161319D01*
X0148913Y0161332D01*
X0148975Y0161342D01*
X0149037Y0161348D01*
X0149100Y0161350D01*
X0149163Y0161348D01*
X0149225Y0161342D01*
X0149287Y0161332D01*
X0149349Y0161319D01*
X0149409Y0161301D01*
X0149468Y0161280D01*
X0149526Y0161255D01*
X0149582Y0161226D01*
X0149636Y0161194D01*
X0149688Y0161159D01*
X0149737Y0161121D01*
X0149785Y0161079D01*
X0149829Y0161035D01*
X0149871Y0160987D01*
X0149909Y0160938D01*
X0149944Y0160886D01*
X0149976Y0160832D01*
X0150005Y0160776D01*
X0150030Y0160718D01*
X0150051Y0160659D01*
X0150069Y0160599D01*
X0150082Y0160537D01*
X0150092Y0160475D01*
X0150098Y0160413D01*
X0150100Y0160350D01*
X0150098Y0160287D01*
X0150092Y0160225D01*
X0150082Y0160163D01*
X0150069Y0160101D01*
X0150051Y0160041D01*
X0150030Y0159982D01*
X0150005Y0159924D01*
X0149976Y0159868D01*
X0149944Y0159814D01*
X0149909Y0159762D01*
X0149871Y0159713D01*
X0149829Y0159665D01*
X0149785Y0159621D01*
X0149737Y0159579D01*
X0149688Y0159541D01*
X0149636Y0159506D01*
X0149582Y0159474D01*
X0149526Y0159445D01*
X0149468Y0159420D01*
X0149409Y0159399D01*
X0149349Y0159381D01*
X0149287Y0159368D01*
X0149225Y0159358D01*
X0149163Y0159352D01*
X0149100Y0159350D01*
X0149037Y0159352D01*
X0148975Y0159358D01*
X0148913Y0159368D01*
X0148851Y0159381D01*
X0148791Y0159399D01*
X0148732Y0159420D01*
X0148674Y0159445D01*
X0148618Y0159474D01*
X0148564Y0159506D01*
X0148512Y0159541D01*
X0148463Y0159579D01*
X0148415Y0159621D01*
X0148371Y0159665D01*
X0148329Y0159713D01*
X0148291Y0159762D01*
X0148256Y0159814D01*
X0148224Y0159868D01*
X0148195Y0159924D01*
X0148170Y0159982D01*
X0148149Y0160041D01*
X0148131Y0160101D01*
X0148118Y0160163D01*
X0148108Y0160225D01*
X0148102Y0160287D01*
X0148100Y0160350D01*
X0142100Y0160350D02*
X0142102Y0160522D01*
X0142108Y0160693D01*
X0142119Y0160865D01*
X0142134Y0161036D01*
X0142153Y0161207D01*
X0142176Y0161377D01*
X0142203Y0161547D01*
X0142235Y0161716D01*
X0142270Y0161884D01*
X0142310Y0162051D01*
X0142354Y0162217D01*
X0142401Y0162382D01*
X0142453Y0162546D01*
X0142509Y0162708D01*
X0142569Y0162869D01*
X0142633Y0163029D01*
X0142701Y0163187D01*
X0142772Y0163343D01*
X0142847Y0163497D01*
X0142927Y0163650D01*
X0143009Y0163800D01*
X0143096Y0163949D01*
X0143186Y0164095D01*
X0143280Y0164239D01*
X0143377Y0164381D01*
X0143478Y0164520D01*
X0143582Y0164657D01*
X0143689Y0164791D01*
X0143800Y0164922D01*
X0143913Y0165051D01*
X0144030Y0165177D01*
X0144150Y0165300D01*
X0144273Y0165420D01*
X0144399Y0165537D01*
X0144528Y0165650D01*
X0144659Y0165761D01*
X0144793Y0165868D01*
X0144930Y0165972D01*
X0145069Y0166073D01*
X0145211Y0166170D01*
X0145355Y0166264D01*
X0145501Y0166354D01*
X0145650Y0166441D01*
X0145800Y0166523D01*
X0145953Y0166603D01*
X0146107Y0166678D01*
X0146263Y0166749D01*
X0146421Y0166817D01*
X0146581Y0166881D01*
X0146742Y0166941D01*
X0146904Y0166997D01*
X0147068Y0167049D01*
X0147233Y0167096D01*
X0147399Y0167140D01*
X0147566Y0167180D01*
X0147734Y0167215D01*
X0147903Y0167247D01*
X0148073Y0167274D01*
X0148243Y0167297D01*
X0148414Y0167316D01*
X0148585Y0167331D01*
X0148757Y0167342D01*
X0148928Y0167348D01*
X0149100Y0167350D01*
X0149272Y0167348D01*
X0149443Y0167342D01*
X0149615Y0167331D01*
X0149786Y0167316D01*
X0149957Y0167297D01*
X0150127Y0167274D01*
X0150297Y0167247D01*
X0150466Y0167215D01*
X0150634Y0167180D01*
X0150801Y0167140D01*
X0150967Y0167096D01*
X0151132Y0167049D01*
X0151296Y0166997D01*
X0151458Y0166941D01*
X0151619Y0166881D01*
X0151779Y0166817D01*
X0151937Y0166749D01*
X0152093Y0166678D01*
X0152247Y0166603D01*
X0152400Y0166523D01*
X0152550Y0166441D01*
X0152699Y0166354D01*
X0152845Y0166264D01*
X0152989Y0166170D01*
X0153131Y0166073D01*
X0153270Y0165972D01*
X0153407Y0165868D01*
X0153541Y0165761D01*
X0153672Y0165650D01*
X0153801Y0165537D01*
X0153927Y0165420D01*
X0154050Y0165300D01*
X0154170Y0165177D01*
X0154287Y0165051D01*
X0154400Y0164922D01*
X0154511Y0164791D01*
X0154618Y0164657D01*
X0154722Y0164520D01*
X0154823Y0164381D01*
X0154920Y0164239D01*
X0155014Y0164095D01*
X0155104Y0163949D01*
X0155191Y0163800D01*
X0155273Y0163650D01*
X0155353Y0163497D01*
X0155428Y0163343D01*
X0155499Y0163187D01*
X0155567Y0163029D01*
X0155631Y0162869D01*
X0155691Y0162708D01*
X0155747Y0162546D01*
X0155799Y0162382D01*
X0155846Y0162217D01*
X0155890Y0162051D01*
X0155930Y0161884D01*
X0155965Y0161716D01*
X0155997Y0161547D01*
X0156024Y0161377D01*
X0156047Y0161207D01*
X0156066Y0161036D01*
X0156081Y0160865D01*
X0156092Y0160693D01*
X0156098Y0160522D01*
X0156100Y0160350D01*
X0156098Y0160178D01*
X0156092Y0160007D01*
X0156081Y0159835D01*
X0156066Y0159664D01*
X0156047Y0159493D01*
X0156024Y0159323D01*
X0155997Y0159153D01*
X0155965Y0158984D01*
X0155930Y0158816D01*
X0155890Y0158649D01*
X0155846Y0158483D01*
X0155799Y0158318D01*
X0155747Y0158154D01*
X0155691Y0157992D01*
X0155631Y0157831D01*
X0155567Y0157671D01*
X0155499Y0157513D01*
X0155428Y0157357D01*
X0155353Y0157203D01*
X0155273Y0157050D01*
X0155191Y0156900D01*
X0155104Y0156751D01*
X0155014Y0156605D01*
X0154920Y0156461D01*
X0154823Y0156319D01*
X0154722Y0156180D01*
X0154618Y0156043D01*
X0154511Y0155909D01*
X0154400Y0155778D01*
X0154287Y0155649D01*
X0154170Y0155523D01*
X0154050Y0155400D01*
X0153927Y0155280D01*
X0153801Y0155163D01*
X0153672Y0155050D01*
X0153541Y0154939D01*
X0153407Y0154832D01*
X0153270Y0154728D01*
X0153131Y0154627D01*
X0152989Y0154530D01*
X0152845Y0154436D01*
X0152699Y0154346D01*
X0152550Y0154259D01*
X0152400Y0154177D01*
X0152247Y0154097D01*
X0152093Y0154022D01*
X0151937Y0153951D01*
X0151779Y0153883D01*
X0151619Y0153819D01*
X0151458Y0153759D01*
X0151296Y0153703D01*
X0151132Y0153651D01*
X0150967Y0153604D01*
X0150801Y0153560D01*
X0150634Y0153520D01*
X0150466Y0153485D01*
X0150297Y0153453D01*
X0150127Y0153426D01*
X0149957Y0153403D01*
X0149786Y0153384D01*
X0149615Y0153369D01*
X0149443Y0153358D01*
X0149272Y0153352D01*
X0149100Y0153350D01*
X0148928Y0153352D01*
X0148757Y0153358D01*
X0148585Y0153369D01*
X0148414Y0153384D01*
X0148243Y0153403D01*
X0148073Y0153426D01*
X0147903Y0153453D01*
X0147734Y0153485D01*
X0147566Y0153520D01*
X0147399Y0153560D01*
X0147233Y0153604D01*
X0147068Y0153651D01*
X0146904Y0153703D01*
X0146742Y0153759D01*
X0146581Y0153819D01*
X0146421Y0153883D01*
X0146263Y0153951D01*
X0146107Y0154022D01*
X0145953Y0154097D01*
X0145800Y0154177D01*
X0145650Y0154259D01*
X0145501Y0154346D01*
X0145355Y0154436D01*
X0145211Y0154530D01*
X0145069Y0154627D01*
X0144930Y0154728D01*
X0144793Y0154832D01*
X0144659Y0154939D01*
X0144528Y0155050D01*
X0144399Y0155163D01*
X0144273Y0155280D01*
X0144150Y0155400D01*
X0144030Y0155523D01*
X0143913Y0155649D01*
X0143800Y0155778D01*
X0143689Y0155909D01*
X0143582Y0156043D01*
X0143478Y0156180D01*
X0143377Y0156319D01*
X0143280Y0156461D01*
X0143186Y0156605D01*
X0143096Y0156751D01*
X0143009Y0156900D01*
X0142927Y0157050D01*
X0142847Y0157203D01*
X0142772Y0157357D01*
X0142701Y0157513D01*
X0142633Y0157671D01*
X0142569Y0157831D01*
X0142509Y0157992D01*
X0142453Y0158154D01*
X0142401Y0158318D01*
X0142354Y0158483D01*
X0142310Y0158649D01*
X0142270Y0158816D01*
X0142235Y0158984D01*
X0142203Y0159153D01*
X0142176Y0159323D01*
X0142153Y0159493D01*
X0142134Y0159664D01*
X0142119Y0159835D01*
X0142108Y0160007D01*
X0142102Y0160178D01*
X0142100Y0160350D01*
X0169100Y0149100D02*
X0169100Y0144100D01*
X0171600Y0141600D01*
X0176600Y0141600D01*
X0179100Y0144100D01*
X0179100Y0149100D01*
X0176600Y0151600D01*
X0171600Y0151600D01*
X0169100Y0149100D01*
X0179100Y0149100D02*
X0181600Y0151600D01*
X0186600Y0151600D01*
X0189100Y0149100D01*
X0189100Y0144100D01*
X0186600Y0141600D01*
X0181600Y0141600D01*
X0179100Y0144100D01*
X0176600Y0124100D02*
X0161600Y0124100D01*
X0159100Y0121600D01*
X0159100Y0116600D01*
X0161600Y0114100D01*
X0169100Y0116600D02*
X0169100Y0121600D01*
X0171600Y0124100D01*
X0186600Y0124100D01*
X0189100Y0121600D01*
X0189100Y0116600D01*
X0186600Y0114100D01*
X0179100Y0116600D02*
X0179100Y0121600D01*
X0176600Y0124100D01*
X0179100Y0116600D02*
X0176600Y0114100D01*
X0171600Y0114100D02*
X0169100Y0116600D01*
X0168100Y0171600D02*
X0168104Y0171931D01*
X0168116Y0172262D01*
X0168137Y0172593D01*
X0168165Y0172923D01*
X0168202Y0173253D01*
X0168246Y0173581D01*
X0168299Y0173908D01*
X0168359Y0174234D01*
X0168428Y0174558D01*
X0168505Y0174880D01*
X0168589Y0175201D01*
X0168681Y0175519D01*
X0168781Y0175835D01*
X0168889Y0176148D01*
X0169005Y0176459D01*
X0169128Y0176766D01*
X0169258Y0177071D01*
X0169396Y0177372D01*
X0169541Y0177670D01*
X0169694Y0177964D01*
X0169854Y0178254D01*
X0170021Y0178540D01*
X0170194Y0178822D01*
X0170375Y0179100D01*
X0170563Y0179373D01*
X0170757Y0179642D01*
X0170957Y0179906D01*
X0171164Y0180164D01*
X0171378Y0180418D01*
X0171597Y0180666D01*
X0171823Y0180909D01*
X0172054Y0181146D01*
X0172291Y0181377D01*
X0172534Y0181603D01*
X0172782Y0181822D01*
X0173036Y0182036D01*
X0173294Y0182243D01*
X0173558Y0182443D01*
X0173827Y0182637D01*
X0174100Y0182825D01*
X0174378Y0183006D01*
X0174660Y0183179D01*
X0174946Y0183346D01*
X0175236Y0183506D01*
X0175530Y0183659D01*
X0175828Y0183804D01*
X0176129Y0183942D01*
X0176434Y0184072D01*
X0176741Y0184195D01*
X0177052Y0184311D01*
X0177365Y0184419D01*
X0177681Y0184519D01*
X0177999Y0184611D01*
X0178320Y0184695D01*
X0178642Y0184772D01*
X0178966Y0184841D01*
X0179292Y0184901D01*
X0179619Y0184954D01*
X0179947Y0184998D01*
X0180277Y0185035D01*
X0180607Y0185063D01*
X0180938Y0185084D01*
X0181269Y0185096D01*
X0181600Y0185100D01*
X0181931Y0185096D01*
X0182262Y0185084D01*
X0182593Y0185063D01*
X0182923Y0185035D01*
X0183253Y0184998D01*
X0183581Y0184954D01*
X0183908Y0184901D01*
X0184234Y0184841D01*
X0184558Y0184772D01*
X0184880Y0184695D01*
X0185201Y0184611D01*
X0185519Y0184519D01*
X0185835Y0184419D01*
X0186148Y0184311D01*
X0186459Y0184195D01*
X0186766Y0184072D01*
X0187071Y0183942D01*
X0187372Y0183804D01*
X0187670Y0183659D01*
X0187964Y0183506D01*
X0188254Y0183346D01*
X0188540Y0183179D01*
X0188822Y0183006D01*
X0189100Y0182825D01*
X0189373Y0182637D01*
X0189642Y0182443D01*
X0189906Y0182243D01*
X0190164Y0182036D01*
X0190418Y0181822D01*
X0190666Y0181603D01*
X0190909Y0181377D01*
X0191146Y0181146D01*
X0191377Y0180909D01*
X0191603Y0180666D01*
X0191822Y0180418D01*
X0192036Y0180164D01*
X0192243Y0179906D01*
X0192443Y0179642D01*
X0192637Y0179373D01*
X0192825Y0179100D01*
X0193006Y0178822D01*
X0193179Y0178540D01*
X0193346Y0178254D01*
X0193506Y0177964D01*
X0193659Y0177670D01*
X0193804Y0177372D01*
X0193942Y0177071D01*
X0194072Y0176766D01*
X0194195Y0176459D01*
X0194311Y0176148D01*
X0194419Y0175835D01*
X0194519Y0175519D01*
X0194611Y0175201D01*
X0194695Y0174880D01*
X0194772Y0174558D01*
X0194841Y0174234D01*
X0194901Y0173908D01*
X0194954Y0173581D01*
X0194998Y0173253D01*
X0195035Y0172923D01*
X0195063Y0172593D01*
X0195084Y0172262D01*
X0195096Y0171931D01*
X0195100Y0171600D01*
X0195096Y0171269D01*
X0195084Y0170938D01*
X0195063Y0170607D01*
X0195035Y0170277D01*
X0194998Y0169947D01*
X0194954Y0169619D01*
X0194901Y0169292D01*
X0194841Y0168966D01*
X0194772Y0168642D01*
X0194695Y0168320D01*
X0194611Y0167999D01*
X0194519Y0167681D01*
X0194419Y0167365D01*
X0194311Y0167052D01*
X0194195Y0166741D01*
X0194072Y0166434D01*
X0193942Y0166129D01*
X0193804Y0165828D01*
X0193659Y0165530D01*
X0193506Y0165236D01*
X0193346Y0164946D01*
X0193179Y0164660D01*
X0193006Y0164378D01*
X0192825Y0164100D01*
X0192637Y0163827D01*
X0192443Y0163558D01*
X0192243Y0163294D01*
X0192036Y0163036D01*
X0191822Y0162782D01*
X0191603Y0162534D01*
X0191377Y0162291D01*
X0191146Y0162054D01*
X0190909Y0161823D01*
X0190666Y0161597D01*
X0190418Y0161378D01*
X0190164Y0161164D01*
X0189906Y0160957D01*
X0189642Y0160757D01*
X0189373Y0160563D01*
X0189100Y0160375D01*
X0188822Y0160194D01*
X0188540Y0160021D01*
X0188254Y0159854D01*
X0187964Y0159694D01*
X0187670Y0159541D01*
X0187372Y0159396D01*
X0187071Y0159258D01*
X0186766Y0159128D01*
X0186459Y0159005D01*
X0186148Y0158889D01*
X0185835Y0158781D01*
X0185519Y0158681D01*
X0185201Y0158589D01*
X0184880Y0158505D01*
X0184558Y0158428D01*
X0184234Y0158359D01*
X0183908Y0158299D01*
X0183581Y0158246D01*
X0183253Y0158202D01*
X0182923Y0158165D01*
X0182593Y0158137D01*
X0182262Y0158116D01*
X0181931Y0158104D01*
X0181600Y0158100D01*
X0181269Y0158104D01*
X0180938Y0158116D01*
X0180607Y0158137D01*
X0180277Y0158165D01*
X0179947Y0158202D01*
X0179619Y0158246D01*
X0179292Y0158299D01*
X0178966Y0158359D01*
X0178642Y0158428D01*
X0178320Y0158505D01*
X0177999Y0158589D01*
X0177681Y0158681D01*
X0177365Y0158781D01*
X0177052Y0158889D01*
X0176741Y0159005D01*
X0176434Y0159128D01*
X0176129Y0159258D01*
X0175828Y0159396D01*
X0175530Y0159541D01*
X0175236Y0159694D01*
X0174946Y0159854D01*
X0174660Y0160021D01*
X0174378Y0160194D01*
X0174100Y0160375D01*
X0173827Y0160563D01*
X0173558Y0160757D01*
X0173294Y0160957D01*
X0173036Y0161164D01*
X0172782Y0161378D01*
X0172534Y0161597D01*
X0172291Y0161823D01*
X0172054Y0162054D01*
X0171823Y0162291D01*
X0171597Y0162534D01*
X0171378Y0162782D01*
X0171164Y0163036D01*
X0170957Y0163294D01*
X0170757Y0163558D01*
X0170563Y0163827D01*
X0170375Y0164100D01*
X0170194Y0164378D01*
X0170021Y0164660D01*
X0169854Y0164946D01*
X0169694Y0165236D01*
X0169541Y0165530D01*
X0169396Y0165828D01*
X0169258Y0166129D01*
X0169128Y0166434D01*
X0169005Y0166741D01*
X0168889Y0167052D01*
X0168781Y0167365D01*
X0168681Y0167681D01*
X0168589Y0167999D01*
X0168505Y0168320D01*
X0168428Y0168642D01*
X0168359Y0168966D01*
X0168299Y0169292D01*
X0168246Y0169619D01*
X0168202Y0169947D01*
X0168165Y0170277D01*
X0168137Y0170607D01*
X0168116Y0170938D01*
X0168104Y0171269D01*
X0168100Y0171600D01*
D14*
X0132850Y0103300D03*
X0120350Y0103300D03*
X0097850Y0103300D03*
X0086600Y0103300D03*
X0075350Y0113300D03*
X0075350Y0084900D03*
X0086600Y0074900D03*
X0097850Y0074900D03*
X0120350Y0074900D03*
X0132850Y0074900D03*
D15*
X0137100Y0155350D02*
X0138100Y0155350D01*
X0138100Y0165350D01*
X0137100Y0165350D01*
X0160100Y0164850D02*
X0160100Y0155350D01*
X0161100Y0155350D01*
X0161100Y0164850D02*
X0160100Y0164850D01*
X0078600Y0164850D02*
X0077600Y0164850D01*
X0077600Y0155350D01*
X0078600Y0155350D01*
X0055600Y0155350D02*
X0055600Y0165350D01*
X0054600Y0165350D01*
X0054600Y0155350D02*
X0055600Y0155350D01*
D16*
X0106100Y0105300D02*
X0112100Y0105300D01*
X0112100Y0102800D02*
X0106100Y0102800D01*
X0106100Y0075300D02*
X0112100Y0075300D01*
X0112100Y0072800D02*
X0106100Y0072800D01*
D17*
X0174907Y0021600D02*
X0174909Y0021764D01*
X0174915Y0021928D01*
X0174925Y0022092D01*
X0174939Y0022256D01*
X0174957Y0022419D01*
X0174979Y0022582D01*
X0175006Y0022744D01*
X0175036Y0022906D01*
X0175070Y0023066D01*
X0175108Y0023226D01*
X0175149Y0023385D01*
X0175195Y0023543D01*
X0175245Y0023699D01*
X0175298Y0023855D01*
X0175355Y0024009D01*
X0175416Y0024161D01*
X0175481Y0024312D01*
X0175550Y0024462D01*
X0175622Y0024609D01*
X0175697Y0024755D01*
X0175777Y0024899D01*
X0175859Y0025041D01*
X0175945Y0025181D01*
X0176035Y0025318D01*
X0176128Y0025454D01*
X0176224Y0025587D01*
X0176324Y0025718D01*
X0176426Y0025846D01*
X0176532Y0025972D01*
X0176641Y0026095D01*
X0176753Y0026215D01*
X0176867Y0026333D01*
X0176985Y0026447D01*
X0177105Y0026559D01*
X0177228Y0026668D01*
X0177354Y0026774D01*
X0177482Y0026876D01*
X0177613Y0026976D01*
X0177746Y0027072D01*
X0177882Y0027165D01*
X0178019Y0027255D01*
X0178159Y0027341D01*
X0178301Y0027423D01*
X0178445Y0027503D01*
X0178591Y0027578D01*
X0178738Y0027650D01*
X0178888Y0027719D01*
X0179039Y0027784D01*
X0179191Y0027845D01*
X0179345Y0027902D01*
X0179501Y0027955D01*
X0179657Y0028005D01*
X0179815Y0028051D01*
X0179974Y0028092D01*
X0180134Y0028130D01*
X0180294Y0028164D01*
X0180456Y0028194D01*
X0180618Y0028221D01*
X0180781Y0028243D01*
X0180944Y0028261D01*
X0181108Y0028275D01*
X0181272Y0028285D01*
X0181436Y0028291D01*
X0181600Y0028293D01*
X0181764Y0028291D01*
X0181928Y0028285D01*
X0182092Y0028275D01*
X0182256Y0028261D01*
X0182419Y0028243D01*
X0182582Y0028221D01*
X0182744Y0028194D01*
X0182906Y0028164D01*
X0183066Y0028130D01*
X0183226Y0028092D01*
X0183385Y0028051D01*
X0183543Y0028005D01*
X0183699Y0027955D01*
X0183855Y0027902D01*
X0184009Y0027845D01*
X0184161Y0027784D01*
X0184312Y0027719D01*
X0184462Y0027650D01*
X0184609Y0027578D01*
X0184755Y0027503D01*
X0184899Y0027423D01*
X0185041Y0027341D01*
X0185181Y0027255D01*
X0185318Y0027165D01*
X0185454Y0027072D01*
X0185587Y0026976D01*
X0185718Y0026876D01*
X0185846Y0026774D01*
X0185972Y0026668D01*
X0186095Y0026559D01*
X0186215Y0026447D01*
X0186333Y0026333D01*
X0186447Y0026215D01*
X0186559Y0026095D01*
X0186668Y0025972D01*
X0186774Y0025846D01*
X0186876Y0025718D01*
X0186976Y0025587D01*
X0187072Y0025454D01*
X0187165Y0025318D01*
X0187255Y0025181D01*
X0187341Y0025041D01*
X0187423Y0024899D01*
X0187503Y0024755D01*
X0187578Y0024609D01*
X0187650Y0024462D01*
X0187719Y0024312D01*
X0187784Y0024161D01*
X0187845Y0024009D01*
X0187902Y0023855D01*
X0187955Y0023699D01*
X0188005Y0023543D01*
X0188051Y0023385D01*
X0188092Y0023226D01*
X0188130Y0023066D01*
X0188164Y0022906D01*
X0188194Y0022744D01*
X0188221Y0022582D01*
X0188243Y0022419D01*
X0188261Y0022256D01*
X0188275Y0022092D01*
X0188285Y0021928D01*
X0188291Y0021764D01*
X0188293Y0021600D01*
X0188291Y0021436D01*
X0188285Y0021272D01*
X0188275Y0021108D01*
X0188261Y0020944D01*
X0188243Y0020781D01*
X0188221Y0020618D01*
X0188194Y0020456D01*
X0188164Y0020294D01*
X0188130Y0020134D01*
X0188092Y0019974D01*
X0188051Y0019815D01*
X0188005Y0019657D01*
X0187955Y0019501D01*
X0187902Y0019345D01*
X0187845Y0019191D01*
X0187784Y0019039D01*
X0187719Y0018888D01*
X0187650Y0018738D01*
X0187578Y0018591D01*
X0187503Y0018445D01*
X0187423Y0018301D01*
X0187341Y0018159D01*
X0187255Y0018019D01*
X0187165Y0017882D01*
X0187072Y0017746D01*
X0186976Y0017613D01*
X0186876Y0017482D01*
X0186774Y0017354D01*
X0186668Y0017228D01*
X0186559Y0017105D01*
X0186447Y0016985D01*
X0186333Y0016867D01*
X0186215Y0016753D01*
X0186095Y0016641D01*
X0185972Y0016532D01*
X0185846Y0016426D01*
X0185718Y0016324D01*
X0185587Y0016224D01*
X0185454Y0016128D01*
X0185318Y0016035D01*
X0185181Y0015945D01*
X0185041Y0015859D01*
X0184899Y0015777D01*
X0184755Y0015697D01*
X0184609Y0015622D01*
X0184462Y0015550D01*
X0184312Y0015481D01*
X0184161Y0015416D01*
X0184009Y0015355D01*
X0183855Y0015298D01*
X0183699Y0015245D01*
X0183543Y0015195D01*
X0183385Y0015149D01*
X0183226Y0015108D01*
X0183066Y0015070D01*
X0182906Y0015036D01*
X0182744Y0015006D01*
X0182582Y0014979D01*
X0182419Y0014957D01*
X0182256Y0014939D01*
X0182092Y0014925D01*
X0181928Y0014915D01*
X0181764Y0014909D01*
X0181600Y0014907D01*
X0181436Y0014909D01*
X0181272Y0014915D01*
X0181108Y0014925D01*
X0180944Y0014939D01*
X0180781Y0014957D01*
X0180618Y0014979D01*
X0180456Y0015006D01*
X0180294Y0015036D01*
X0180134Y0015070D01*
X0179974Y0015108D01*
X0179815Y0015149D01*
X0179657Y0015195D01*
X0179501Y0015245D01*
X0179345Y0015298D01*
X0179191Y0015355D01*
X0179039Y0015416D01*
X0178888Y0015481D01*
X0178738Y0015550D01*
X0178591Y0015622D01*
X0178445Y0015697D01*
X0178301Y0015777D01*
X0178159Y0015859D01*
X0178019Y0015945D01*
X0177882Y0016035D01*
X0177746Y0016128D01*
X0177613Y0016224D01*
X0177482Y0016324D01*
X0177354Y0016426D01*
X0177228Y0016532D01*
X0177105Y0016641D01*
X0176985Y0016753D01*
X0176867Y0016867D01*
X0176753Y0016985D01*
X0176641Y0017105D01*
X0176532Y0017228D01*
X0176426Y0017354D01*
X0176324Y0017482D01*
X0176224Y0017613D01*
X0176128Y0017746D01*
X0176035Y0017882D01*
X0175945Y0018019D01*
X0175859Y0018159D01*
X0175777Y0018301D01*
X0175697Y0018445D01*
X0175622Y0018591D01*
X0175550Y0018738D01*
X0175481Y0018888D01*
X0175416Y0019039D01*
X0175355Y0019191D01*
X0175298Y0019345D01*
X0175245Y0019501D01*
X0175195Y0019657D01*
X0175149Y0019815D01*
X0175108Y0019974D01*
X0175070Y0020134D01*
X0175036Y0020294D01*
X0175006Y0020456D01*
X0174979Y0020618D01*
X0174957Y0020781D01*
X0174939Y0020944D01*
X0174925Y0021108D01*
X0174915Y0021272D01*
X0174909Y0021436D01*
X0174907Y0021600D01*
X0019907Y0021600D02*
X0019909Y0021764D01*
X0019915Y0021928D01*
X0019925Y0022092D01*
X0019939Y0022256D01*
X0019957Y0022419D01*
X0019979Y0022582D01*
X0020006Y0022744D01*
X0020036Y0022906D01*
X0020070Y0023066D01*
X0020108Y0023226D01*
X0020149Y0023385D01*
X0020195Y0023543D01*
X0020245Y0023699D01*
X0020298Y0023855D01*
X0020355Y0024009D01*
X0020416Y0024161D01*
X0020481Y0024312D01*
X0020550Y0024462D01*
X0020622Y0024609D01*
X0020697Y0024755D01*
X0020777Y0024899D01*
X0020859Y0025041D01*
X0020945Y0025181D01*
X0021035Y0025318D01*
X0021128Y0025454D01*
X0021224Y0025587D01*
X0021324Y0025718D01*
X0021426Y0025846D01*
X0021532Y0025972D01*
X0021641Y0026095D01*
X0021753Y0026215D01*
X0021867Y0026333D01*
X0021985Y0026447D01*
X0022105Y0026559D01*
X0022228Y0026668D01*
X0022354Y0026774D01*
X0022482Y0026876D01*
X0022613Y0026976D01*
X0022746Y0027072D01*
X0022882Y0027165D01*
X0023019Y0027255D01*
X0023159Y0027341D01*
X0023301Y0027423D01*
X0023445Y0027503D01*
X0023591Y0027578D01*
X0023738Y0027650D01*
X0023888Y0027719D01*
X0024039Y0027784D01*
X0024191Y0027845D01*
X0024345Y0027902D01*
X0024501Y0027955D01*
X0024657Y0028005D01*
X0024815Y0028051D01*
X0024974Y0028092D01*
X0025134Y0028130D01*
X0025294Y0028164D01*
X0025456Y0028194D01*
X0025618Y0028221D01*
X0025781Y0028243D01*
X0025944Y0028261D01*
X0026108Y0028275D01*
X0026272Y0028285D01*
X0026436Y0028291D01*
X0026600Y0028293D01*
X0026764Y0028291D01*
X0026928Y0028285D01*
X0027092Y0028275D01*
X0027256Y0028261D01*
X0027419Y0028243D01*
X0027582Y0028221D01*
X0027744Y0028194D01*
X0027906Y0028164D01*
X0028066Y0028130D01*
X0028226Y0028092D01*
X0028385Y0028051D01*
X0028543Y0028005D01*
X0028699Y0027955D01*
X0028855Y0027902D01*
X0029009Y0027845D01*
X0029161Y0027784D01*
X0029312Y0027719D01*
X0029462Y0027650D01*
X0029609Y0027578D01*
X0029755Y0027503D01*
X0029899Y0027423D01*
X0030041Y0027341D01*
X0030181Y0027255D01*
X0030318Y0027165D01*
X0030454Y0027072D01*
X0030587Y0026976D01*
X0030718Y0026876D01*
X0030846Y0026774D01*
X0030972Y0026668D01*
X0031095Y0026559D01*
X0031215Y0026447D01*
X0031333Y0026333D01*
X0031447Y0026215D01*
X0031559Y0026095D01*
X0031668Y0025972D01*
X0031774Y0025846D01*
X0031876Y0025718D01*
X0031976Y0025587D01*
X0032072Y0025454D01*
X0032165Y0025318D01*
X0032255Y0025181D01*
X0032341Y0025041D01*
X0032423Y0024899D01*
X0032503Y0024755D01*
X0032578Y0024609D01*
X0032650Y0024462D01*
X0032719Y0024312D01*
X0032784Y0024161D01*
X0032845Y0024009D01*
X0032902Y0023855D01*
X0032955Y0023699D01*
X0033005Y0023543D01*
X0033051Y0023385D01*
X0033092Y0023226D01*
X0033130Y0023066D01*
X0033164Y0022906D01*
X0033194Y0022744D01*
X0033221Y0022582D01*
X0033243Y0022419D01*
X0033261Y0022256D01*
X0033275Y0022092D01*
X0033285Y0021928D01*
X0033291Y0021764D01*
X0033293Y0021600D01*
X0033291Y0021436D01*
X0033285Y0021272D01*
X0033275Y0021108D01*
X0033261Y0020944D01*
X0033243Y0020781D01*
X0033221Y0020618D01*
X0033194Y0020456D01*
X0033164Y0020294D01*
X0033130Y0020134D01*
X0033092Y0019974D01*
X0033051Y0019815D01*
X0033005Y0019657D01*
X0032955Y0019501D01*
X0032902Y0019345D01*
X0032845Y0019191D01*
X0032784Y0019039D01*
X0032719Y0018888D01*
X0032650Y0018738D01*
X0032578Y0018591D01*
X0032503Y0018445D01*
X0032423Y0018301D01*
X0032341Y0018159D01*
X0032255Y0018019D01*
X0032165Y0017882D01*
X0032072Y0017746D01*
X0031976Y0017613D01*
X0031876Y0017482D01*
X0031774Y0017354D01*
X0031668Y0017228D01*
X0031559Y0017105D01*
X0031447Y0016985D01*
X0031333Y0016867D01*
X0031215Y0016753D01*
X0031095Y0016641D01*
X0030972Y0016532D01*
X0030846Y0016426D01*
X0030718Y0016324D01*
X0030587Y0016224D01*
X0030454Y0016128D01*
X0030318Y0016035D01*
X0030181Y0015945D01*
X0030041Y0015859D01*
X0029899Y0015777D01*
X0029755Y0015697D01*
X0029609Y0015622D01*
X0029462Y0015550D01*
X0029312Y0015481D01*
X0029161Y0015416D01*
X0029009Y0015355D01*
X0028855Y0015298D01*
X0028699Y0015245D01*
X0028543Y0015195D01*
X0028385Y0015149D01*
X0028226Y0015108D01*
X0028066Y0015070D01*
X0027906Y0015036D01*
X0027744Y0015006D01*
X0027582Y0014979D01*
X0027419Y0014957D01*
X0027256Y0014939D01*
X0027092Y0014925D01*
X0026928Y0014915D01*
X0026764Y0014909D01*
X0026600Y0014907D01*
X0026436Y0014909D01*
X0026272Y0014915D01*
X0026108Y0014925D01*
X0025944Y0014939D01*
X0025781Y0014957D01*
X0025618Y0014979D01*
X0025456Y0015006D01*
X0025294Y0015036D01*
X0025134Y0015070D01*
X0024974Y0015108D01*
X0024815Y0015149D01*
X0024657Y0015195D01*
X0024501Y0015245D01*
X0024345Y0015298D01*
X0024191Y0015355D01*
X0024039Y0015416D01*
X0023888Y0015481D01*
X0023738Y0015550D01*
X0023591Y0015622D01*
X0023445Y0015697D01*
X0023301Y0015777D01*
X0023159Y0015859D01*
X0023019Y0015945D01*
X0022882Y0016035D01*
X0022746Y0016128D01*
X0022613Y0016224D01*
X0022482Y0016324D01*
X0022354Y0016426D01*
X0022228Y0016532D01*
X0022105Y0016641D01*
X0021985Y0016753D01*
X0021867Y0016867D01*
X0021753Y0016985D01*
X0021641Y0017105D01*
X0021532Y0017228D01*
X0021426Y0017354D01*
X0021324Y0017482D01*
X0021224Y0017613D01*
X0021128Y0017746D01*
X0021035Y0017882D01*
X0020945Y0018019D01*
X0020859Y0018159D01*
X0020777Y0018301D01*
X0020697Y0018445D01*
X0020622Y0018591D01*
X0020550Y0018738D01*
X0020481Y0018888D01*
X0020416Y0019039D01*
X0020355Y0019191D01*
X0020298Y0019345D01*
X0020245Y0019501D01*
X0020195Y0019657D01*
X0020149Y0019815D01*
X0020108Y0019974D01*
X0020070Y0020134D01*
X0020036Y0020294D01*
X0020006Y0020456D01*
X0019979Y0020618D01*
X0019957Y0020781D01*
X0019939Y0020944D01*
X0019925Y0021108D01*
X0019915Y0021272D01*
X0019909Y0021436D01*
X0019907Y0021600D01*
X0019907Y0171600D02*
X0019909Y0171764D01*
X0019915Y0171928D01*
X0019925Y0172092D01*
X0019939Y0172256D01*
X0019957Y0172419D01*
X0019979Y0172582D01*
X0020006Y0172744D01*
X0020036Y0172906D01*
X0020070Y0173066D01*
X0020108Y0173226D01*
X0020149Y0173385D01*
X0020195Y0173543D01*
X0020245Y0173699D01*
X0020298Y0173855D01*
X0020355Y0174009D01*
X0020416Y0174161D01*
X0020481Y0174312D01*
X0020550Y0174462D01*
X0020622Y0174609D01*
X0020697Y0174755D01*
X0020777Y0174899D01*
X0020859Y0175041D01*
X0020945Y0175181D01*
X0021035Y0175318D01*
X0021128Y0175454D01*
X0021224Y0175587D01*
X0021324Y0175718D01*
X0021426Y0175846D01*
X0021532Y0175972D01*
X0021641Y0176095D01*
X0021753Y0176215D01*
X0021867Y0176333D01*
X0021985Y0176447D01*
X0022105Y0176559D01*
X0022228Y0176668D01*
X0022354Y0176774D01*
X0022482Y0176876D01*
X0022613Y0176976D01*
X0022746Y0177072D01*
X0022882Y0177165D01*
X0023019Y0177255D01*
X0023159Y0177341D01*
X0023301Y0177423D01*
X0023445Y0177503D01*
X0023591Y0177578D01*
X0023738Y0177650D01*
X0023888Y0177719D01*
X0024039Y0177784D01*
X0024191Y0177845D01*
X0024345Y0177902D01*
X0024501Y0177955D01*
X0024657Y0178005D01*
X0024815Y0178051D01*
X0024974Y0178092D01*
X0025134Y0178130D01*
X0025294Y0178164D01*
X0025456Y0178194D01*
X0025618Y0178221D01*
X0025781Y0178243D01*
X0025944Y0178261D01*
X0026108Y0178275D01*
X0026272Y0178285D01*
X0026436Y0178291D01*
X0026600Y0178293D01*
X0026764Y0178291D01*
X0026928Y0178285D01*
X0027092Y0178275D01*
X0027256Y0178261D01*
X0027419Y0178243D01*
X0027582Y0178221D01*
X0027744Y0178194D01*
X0027906Y0178164D01*
X0028066Y0178130D01*
X0028226Y0178092D01*
X0028385Y0178051D01*
X0028543Y0178005D01*
X0028699Y0177955D01*
X0028855Y0177902D01*
X0029009Y0177845D01*
X0029161Y0177784D01*
X0029312Y0177719D01*
X0029462Y0177650D01*
X0029609Y0177578D01*
X0029755Y0177503D01*
X0029899Y0177423D01*
X0030041Y0177341D01*
X0030181Y0177255D01*
X0030318Y0177165D01*
X0030454Y0177072D01*
X0030587Y0176976D01*
X0030718Y0176876D01*
X0030846Y0176774D01*
X0030972Y0176668D01*
X0031095Y0176559D01*
X0031215Y0176447D01*
X0031333Y0176333D01*
X0031447Y0176215D01*
X0031559Y0176095D01*
X0031668Y0175972D01*
X0031774Y0175846D01*
X0031876Y0175718D01*
X0031976Y0175587D01*
X0032072Y0175454D01*
X0032165Y0175318D01*
X0032255Y0175181D01*
X0032341Y0175041D01*
X0032423Y0174899D01*
X0032503Y0174755D01*
X0032578Y0174609D01*
X0032650Y0174462D01*
X0032719Y0174312D01*
X0032784Y0174161D01*
X0032845Y0174009D01*
X0032902Y0173855D01*
X0032955Y0173699D01*
X0033005Y0173543D01*
X0033051Y0173385D01*
X0033092Y0173226D01*
X0033130Y0173066D01*
X0033164Y0172906D01*
X0033194Y0172744D01*
X0033221Y0172582D01*
X0033243Y0172419D01*
X0033261Y0172256D01*
X0033275Y0172092D01*
X0033285Y0171928D01*
X0033291Y0171764D01*
X0033293Y0171600D01*
X0033291Y0171436D01*
X0033285Y0171272D01*
X0033275Y0171108D01*
X0033261Y0170944D01*
X0033243Y0170781D01*
X0033221Y0170618D01*
X0033194Y0170456D01*
X0033164Y0170294D01*
X0033130Y0170134D01*
X0033092Y0169974D01*
X0033051Y0169815D01*
X0033005Y0169657D01*
X0032955Y0169501D01*
X0032902Y0169345D01*
X0032845Y0169191D01*
X0032784Y0169039D01*
X0032719Y0168888D01*
X0032650Y0168738D01*
X0032578Y0168591D01*
X0032503Y0168445D01*
X0032423Y0168301D01*
X0032341Y0168159D01*
X0032255Y0168019D01*
X0032165Y0167882D01*
X0032072Y0167746D01*
X0031976Y0167613D01*
X0031876Y0167482D01*
X0031774Y0167354D01*
X0031668Y0167228D01*
X0031559Y0167105D01*
X0031447Y0166985D01*
X0031333Y0166867D01*
X0031215Y0166753D01*
X0031095Y0166641D01*
X0030972Y0166532D01*
X0030846Y0166426D01*
X0030718Y0166324D01*
X0030587Y0166224D01*
X0030454Y0166128D01*
X0030318Y0166035D01*
X0030181Y0165945D01*
X0030041Y0165859D01*
X0029899Y0165777D01*
X0029755Y0165697D01*
X0029609Y0165622D01*
X0029462Y0165550D01*
X0029312Y0165481D01*
X0029161Y0165416D01*
X0029009Y0165355D01*
X0028855Y0165298D01*
X0028699Y0165245D01*
X0028543Y0165195D01*
X0028385Y0165149D01*
X0028226Y0165108D01*
X0028066Y0165070D01*
X0027906Y0165036D01*
X0027744Y0165006D01*
X0027582Y0164979D01*
X0027419Y0164957D01*
X0027256Y0164939D01*
X0027092Y0164925D01*
X0026928Y0164915D01*
X0026764Y0164909D01*
X0026600Y0164907D01*
X0026436Y0164909D01*
X0026272Y0164915D01*
X0026108Y0164925D01*
X0025944Y0164939D01*
X0025781Y0164957D01*
X0025618Y0164979D01*
X0025456Y0165006D01*
X0025294Y0165036D01*
X0025134Y0165070D01*
X0024974Y0165108D01*
X0024815Y0165149D01*
X0024657Y0165195D01*
X0024501Y0165245D01*
X0024345Y0165298D01*
X0024191Y0165355D01*
X0024039Y0165416D01*
X0023888Y0165481D01*
X0023738Y0165550D01*
X0023591Y0165622D01*
X0023445Y0165697D01*
X0023301Y0165777D01*
X0023159Y0165859D01*
X0023019Y0165945D01*
X0022882Y0166035D01*
X0022746Y0166128D01*
X0022613Y0166224D01*
X0022482Y0166324D01*
X0022354Y0166426D01*
X0022228Y0166532D01*
X0022105Y0166641D01*
X0021985Y0166753D01*
X0021867Y0166867D01*
X0021753Y0166985D01*
X0021641Y0167105D01*
X0021532Y0167228D01*
X0021426Y0167354D01*
X0021324Y0167482D01*
X0021224Y0167613D01*
X0021128Y0167746D01*
X0021035Y0167882D01*
X0020945Y0168019D01*
X0020859Y0168159D01*
X0020777Y0168301D01*
X0020697Y0168445D01*
X0020622Y0168591D01*
X0020550Y0168738D01*
X0020481Y0168888D01*
X0020416Y0169039D01*
X0020355Y0169191D01*
X0020298Y0169345D01*
X0020245Y0169501D01*
X0020195Y0169657D01*
X0020149Y0169815D01*
X0020108Y0169974D01*
X0020070Y0170134D01*
X0020036Y0170294D01*
X0020006Y0170456D01*
X0019979Y0170618D01*
X0019957Y0170781D01*
X0019939Y0170944D01*
X0019925Y0171108D01*
X0019915Y0171272D01*
X0019909Y0171436D01*
X0019907Y0171600D01*
X0174907Y0171600D02*
X0174909Y0171764D01*
X0174915Y0171928D01*
X0174925Y0172092D01*
X0174939Y0172256D01*
X0174957Y0172419D01*
X0174979Y0172582D01*
X0175006Y0172744D01*
X0175036Y0172906D01*
X0175070Y0173066D01*
X0175108Y0173226D01*
X0175149Y0173385D01*
X0175195Y0173543D01*
X0175245Y0173699D01*
X0175298Y0173855D01*
X0175355Y0174009D01*
X0175416Y0174161D01*
X0175481Y0174312D01*
X0175550Y0174462D01*
X0175622Y0174609D01*
X0175697Y0174755D01*
X0175777Y0174899D01*
X0175859Y0175041D01*
X0175945Y0175181D01*
X0176035Y0175318D01*
X0176128Y0175454D01*
X0176224Y0175587D01*
X0176324Y0175718D01*
X0176426Y0175846D01*
X0176532Y0175972D01*
X0176641Y0176095D01*
X0176753Y0176215D01*
X0176867Y0176333D01*
X0176985Y0176447D01*
X0177105Y0176559D01*
X0177228Y0176668D01*
X0177354Y0176774D01*
X0177482Y0176876D01*
X0177613Y0176976D01*
X0177746Y0177072D01*
X0177882Y0177165D01*
X0178019Y0177255D01*
X0178159Y0177341D01*
X0178301Y0177423D01*
X0178445Y0177503D01*
X0178591Y0177578D01*
X0178738Y0177650D01*
X0178888Y0177719D01*
X0179039Y0177784D01*
X0179191Y0177845D01*
X0179345Y0177902D01*
X0179501Y0177955D01*
X0179657Y0178005D01*
X0179815Y0178051D01*
X0179974Y0178092D01*
X0180134Y0178130D01*
X0180294Y0178164D01*
X0180456Y0178194D01*
X0180618Y0178221D01*
X0180781Y0178243D01*
X0180944Y0178261D01*
X0181108Y0178275D01*
X0181272Y0178285D01*
X0181436Y0178291D01*
X0181600Y0178293D01*
X0181764Y0178291D01*
X0181928Y0178285D01*
X0182092Y0178275D01*
X0182256Y0178261D01*
X0182419Y0178243D01*
X0182582Y0178221D01*
X0182744Y0178194D01*
X0182906Y0178164D01*
X0183066Y0178130D01*
X0183226Y0178092D01*
X0183385Y0178051D01*
X0183543Y0178005D01*
X0183699Y0177955D01*
X0183855Y0177902D01*
X0184009Y0177845D01*
X0184161Y0177784D01*
X0184312Y0177719D01*
X0184462Y0177650D01*
X0184609Y0177578D01*
X0184755Y0177503D01*
X0184899Y0177423D01*
X0185041Y0177341D01*
X0185181Y0177255D01*
X0185318Y0177165D01*
X0185454Y0177072D01*
X0185587Y0176976D01*
X0185718Y0176876D01*
X0185846Y0176774D01*
X0185972Y0176668D01*
X0186095Y0176559D01*
X0186215Y0176447D01*
X0186333Y0176333D01*
X0186447Y0176215D01*
X0186559Y0176095D01*
X0186668Y0175972D01*
X0186774Y0175846D01*
X0186876Y0175718D01*
X0186976Y0175587D01*
X0187072Y0175454D01*
X0187165Y0175318D01*
X0187255Y0175181D01*
X0187341Y0175041D01*
X0187423Y0174899D01*
X0187503Y0174755D01*
X0187578Y0174609D01*
X0187650Y0174462D01*
X0187719Y0174312D01*
X0187784Y0174161D01*
X0187845Y0174009D01*
X0187902Y0173855D01*
X0187955Y0173699D01*
X0188005Y0173543D01*
X0188051Y0173385D01*
X0188092Y0173226D01*
X0188130Y0173066D01*
X0188164Y0172906D01*
X0188194Y0172744D01*
X0188221Y0172582D01*
X0188243Y0172419D01*
X0188261Y0172256D01*
X0188275Y0172092D01*
X0188285Y0171928D01*
X0188291Y0171764D01*
X0188293Y0171600D01*
X0188291Y0171436D01*
X0188285Y0171272D01*
X0188275Y0171108D01*
X0188261Y0170944D01*
X0188243Y0170781D01*
X0188221Y0170618D01*
X0188194Y0170456D01*
X0188164Y0170294D01*
X0188130Y0170134D01*
X0188092Y0169974D01*
X0188051Y0169815D01*
X0188005Y0169657D01*
X0187955Y0169501D01*
X0187902Y0169345D01*
X0187845Y0169191D01*
X0187784Y0169039D01*
X0187719Y0168888D01*
X0187650Y0168738D01*
X0187578Y0168591D01*
X0187503Y0168445D01*
X0187423Y0168301D01*
X0187341Y0168159D01*
X0187255Y0168019D01*
X0187165Y0167882D01*
X0187072Y0167746D01*
X0186976Y0167613D01*
X0186876Y0167482D01*
X0186774Y0167354D01*
X0186668Y0167228D01*
X0186559Y0167105D01*
X0186447Y0166985D01*
X0186333Y0166867D01*
X0186215Y0166753D01*
X0186095Y0166641D01*
X0185972Y0166532D01*
X0185846Y0166426D01*
X0185718Y0166324D01*
X0185587Y0166224D01*
X0185454Y0166128D01*
X0185318Y0166035D01*
X0185181Y0165945D01*
X0185041Y0165859D01*
X0184899Y0165777D01*
X0184755Y0165697D01*
X0184609Y0165622D01*
X0184462Y0165550D01*
X0184312Y0165481D01*
X0184161Y0165416D01*
X0184009Y0165355D01*
X0183855Y0165298D01*
X0183699Y0165245D01*
X0183543Y0165195D01*
X0183385Y0165149D01*
X0183226Y0165108D01*
X0183066Y0165070D01*
X0182906Y0165036D01*
X0182744Y0165006D01*
X0182582Y0164979D01*
X0182419Y0164957D01*
X0182256Y0164939D01*
X0182092Y0164925D01*
X0181928Y0164915D01*
X0181764Y0164909D01*
X0181600Y0164907D01*
X0181436Y0164909D01*
X0181272Y0164915D01*
X0181108Y0164925D01*
X0180944Y0164939D01*
X0180781Y0164957D01*
X0180618Y0164979D01*
X0180456Y0165006D01*
X0180294Y0165036D01*
X0180134Y0165070D01*
X0179974Y0165108D01*
X0179815Y0165149D01*
X0179657Y0165195D01*
X0179501Y0165245D01*
X0179345Y0165298D01*
X0179191Y0165355D01*
X0179039Y0165416D01*
X0178888Y0165481D01*
X0178738Y0165550D01*
X0178591Y0165622D01*
X0178445Y0165697D01*
X0178301Y0165777D01*
X0178159Y0165859D01*
X0178019Y0165945D01*
X0177882Y0166035D01*
X0177746Y0166128D01*
X0177613Y0166224D01*
X0177482Y0166324D01*
X0177354Y0166426D01*
X0177228Y0166532D01*
X0177105Y0166641D01*
X0176985Y0166753D01*
X0176867Y0166867D01*
X0176753Y0166985D01*
X0176641Y0167105D01*
X0176532Y0167228D01*
X0176426Y0167354D01*
X0176324Y0167482D01*
X0176224Y0167613D01*
X0176128Y0167746D01*
X0176035Y0167882D01*
X0175945Y0168019D01*
X0175859Y0168159D01*
X0175777Y0168301D01*
X0175697Y0168445D01*
X0175622Y0168591D01*
X0175550Y0168738D01*
X0175481Y0168888D01*
X0175416Y0169039D01*
X0175355Y0169191D01*
X0175298Y0169345D01*
X0175245Y0169501D01*
X0175195Y0169657D01*
X0175149Y0169815D01*
X0175108Y0169974D01*
X0175070Y0170134D01*
X0175036Y0170294D01*
X0175006Y0170456D01*
X0174979Y0170618D01*
X0174957Y0170781D01*
X0174939Y0170944D01*
X0174925Y0171108D01*
X0174915Y0171272D01*
X0174909Y0171436D01*
X0174907Y0171600D01*
M02*
