%
M48
M72
T01C0.0315
T02C0.0320
T03C0.0400
T04C0.0470
T05C0.1260
%
T01
X1334Y10530
X4905Y10530
X4905Y4597
X1334Y4597
T02
X7535Y11910
X8660Y10910
X9785Y11410
X10910Y10910
X10910Y9910
X12035Y10910
X13285Y10910
X10910Y8410
X10910Y7410
X9785Y7410
X8660Y6910
X7535Y7910
X10160Y5785
X11160Y5785
X12035Y6910
X13285Y6910
T03
X5770Y17315
X7550Y17315
X9285Y17160
X10285Y17160
X11285Y17160
X12285Y17160
X14020Y17315
X15800Y17315
X15800Y14755
X17410Y14660
X18410Y14660
X18410Y11910
X18410Y10910
X18410Y9910
X18410Y8910
X17410Y8910
X17410Y8910
X17410Y9910
X17410Y9910
X17410Y10910
X17410Y10910
X17410Y11910
X17410Y11910
X16410Y11910
X16410Y10910
X16410Y9910
X16410Y8910
X16410Y7910
X16410Y6910
X16410Y5910
X16410Y4910
X17410Y4910
X17410Y4910
X17410Y5910
X17410Y5910
X17410Y6910
X17410Y6910
X17410Y7910
X17410Y7910
X18410Y7910
X18410Y6910
X18410Y5910
X18410Y4910
X14785Y1910
X14785Y2910
X14785Y3910
X14785Y4910
X14785Y5910
X14785Y6910
X14785Y7910
X14785Y8910
X14785Y9910
X14785Y10910
X14785Y11910
X12285Y12910
X11285Y12910
X10285Y12910
X9285Y12910
X7550Y14755
X5770Y14755
X6285Y11910
X6285Y10910
X6285Y9910
X6285Y8910
X6285Y7910
X6285Y6910
X6285Y5910
X6285Y4910
X6285Y3910
X6285Y2910
X6285Y1910
X14020Y14755
T04
X2410Y14160
X2410Y12160
T05
X2660Y17160
X2660Y2160
X18160Y2160
X18160Y17160
M30
