G75*
%MOIN*%
%OFA0B0*%
%FSLAX25Y25*%
%IPPOS*%
%LPD*%
%AMOC8*
5,1,8,0,0,1.08239X$1,22.5*
%
%ADD10C,0.00000*%
D10*
X0006600Y0001600D02*
X0006600Y0191561D01*
X0201551Y0191561D01*
X0201551Y0001600D01*
X0006600Y0001600D01*
X0020301Y0021600D02*
X0020303Y0021758D01*
X0020309Y0021916D01*
X0020319Y0022074D01*
X0020333Y0022232D01*
X0020351Y0022389D01*
X0020372Y0022546D01*
X0020398Y0022702D01*
X0020428Y0022858D01*
X0020461Y0023013D01*
X0020499Y0023166D01*
X0020540Y0023319D01*
X0020585Y0023471D01*
X0020634Y0023622D01*
X0020687Y0023771D01*
X0020743Y0023919D01*
X0020803Y0024065D01*
X0020867Y0024210D01*
X0020935Y0024353D01*
X0021006Y0024495D01*
X0021080Y0024635D01*
X0021158Y0024772D01*
X0021240Y0024908D01*
X0021324Y0025042D01*
X0021413Y0025173D01*
X0021504Y0025302D01*
X0021599Y0025429D01*
X0021696Y0025554D01*
X0021797Y0025676D01*
X0021901Y0025795D01*
X0022008Y0025912D01*
X0022118Y0026026D01*
X0022231Y0026137D01*
X0022346Y0026246D01*
X0022464Y0026351D01*
X0022585Y0026453D01*
X0022708Y0026553D01*
X0022834Y0026649D01*
X0022962Y0026742D01*
X0023092Y0026832D01*
X0023225Y0026918D01*
X0023360Y0027002D01*
X0023496Y0027081D01*
X0023635Y0027158D01*
X0023776Y0027230D01*
X0023918Y0027300D01*
X0024062Y0027365D01*
X0024208Y0027427D01*
X0024355Y0027485D01*
X0024504Y0027540D01*
X0024654Y0027591D01*
X0024805Y0027638D01*
X0024957Y0027681D01*
X0025110Y0027720D01*
X0025265Y0027756D01*
X0025420Y0027787D01*
X0025576Y0027815D01*
X0025732Y0027839D01*
X0025889Y0027859D01*
X0026047Y0027875D01*
X0026204Y0027887D01*
X0026363Y0027895D01*
X0026521Y0027899D01*
X0026679Y0027899D01*
X0026837Y0027895D01*
X0026996Y0027887D01*
X0027153Y0027875D01*
X0027311Y0027859D01*
X0027468Y0027839D01*
X0027624Y0027815D01*
X0027780Y0027787D01*
X0027935Y0027756D01*
X0028090Y0027720D01*
X0028243Y0027681D01*
X0028395Y0027638D01*
X0028546Y0027591D01*
X0028696Y0027540D01*
X0028845Y0027485D01*
X0028992Y0027427D01*
X0029138Y0027365D01*
X0029282Y0027300D01*
X0029424Y0027230D01*
X0029565Y0027158D01*
X0029704Y0027081D01*
X0029840Y0027002D01*
X0029975Y0026918D01*
X0030108Y0026832D01*
X0030238Y0026742D01*
X0030366Y0026649D01*
X0030492Y0026553D01*
X0030615Y0026453D01*
X0030736Y0026351D01*
X0030854Y0026246D01*
X0030969Y0026137D01*
X0031082Y0026026D01*
X0031192Y0025912D01*
X0031299Y0025795D01*
X0031403Y0025676D01*
X0031504Y0025554D01*
X0031601Y0025429D01*
X0031696Y0025302D01*
X0031787Y0025173D01*
X0031876Y0025042D01*
X0031960Y0024908D01*
X0032042Y0024772D01*
X0032120Y0024635D01*
X0032194Y0024495D01*
X0032265Y0024353D01*
X0032333Y0024210D01*
X0032397Y0024065D01*
X0032457Y0023919D01*
X0032513Y0023771D01*
X0032566Y0023622D01*
X0032615Y0023471D01*
X0032660Y0023319D01*
X0032701Y0023166D01*
X0032739Y0023013D01*
X0032772Y0022858D01*
X0032802Y0022702D01*
X0032828Y0022546D01*
X0032849Y0022389D01*
X0032867Y0022232D01*
X0032881Y0022074D01*
X0032891Y0021916D01*
X0032897Y0021758D01*
X0032899Y0021600D01*
X0032897Y0021442D01*
X0032891Y0021284D01*
X0032881Y0021126D01*
X0032867Y0020968D01*
X0032849Y0020811D01*
X0032828Y0020654D01*
X0032802Y0020498D01*
X0032772Y0020342D01*
X0032739Y0020187D01*
X0032701Y0020034D01*
X0032660Y0019881D01*
X0032615Y0019729D01*
X0032566Y0019578D01*
X0032513Y0019429D01*
X0032457Y0019281D01*
X0032397Y0019135D01*
X0032333Y0018990D01*
X0032265Y0018847D01*
X0032194Y0018705D01*
X0032120Y0018565D01*
X0032042Y0018428D01*
X0031960Y0018292D01*
X0031876Y0018158D01*
X0031787Y0018027D01*
X0031696Y0017898D01*
X0031601Y0017771D01*
X0031504Y0017646D01*
X0031403Y0017524D01*
X0031299Y0017405D01*
X0031192Y0017288D01*
X0031082Y0017174D01*
X0030969Y0017063D01*
X0030854Y0016954D01*
X0030736Y0016849D01*
X0030615Y0016747D01*
X0030492Y0016647D01*
X0030366Y0016551D01*
X0030238Y0016458D01*
X0030108Y0016368D01*
X0029975Y0016282D01*
X0029840Y0016198D01*
X0029704Y0016119D01*
X0029565Y0016042D01*
X0029424Y0015970D01*
X0029282Y0015900D01*
X0029138Y0015835D01*
X0028992Y0015773D01*
X0028845Y0015715D01*
X0028696Y0015660D01*
X0028546Y0015609D01*
X0028395Y0015562D01*
X0028243Y0015519D01*
X0028090Y0015480D01*
X0027935Y0015444D01*
X0027780Y0015413D01*
X0027624Y0015385D01*
X0027468Y0015361D01*
X0027311Y0015341D01*
X0027153Y0015325D01*
X0026996Y0015313D01*
X0026837Y0015305D01*
X0026679Y0015301D01*
X0026521Y0015301D01*
X0026363Y0015305D01*
X0026204Y0015313D01*
X0026047Y0015325D01*
X0025889Y0015341D01*
X0025732Y0015361D01*
X0025576Y0015385D01*
X0025420Y0015413D01*
X0025265Y0015444D01*
X0025110Y0015480D01*
X0024957Y0015519D01*
X0024805Y0015562D01*
X0024654Y0015609D01*
X0024504Y0015660D01*
X0024355Y0015715D01*
X0024208Y0015773D01*
X0024062Y0015835D01*
X0023918Y0015900D01*
X0023776Y0015970D01*
X0023635Y0016042D01*
X0023496Y0016119D01*
X0023360Y0016198D01*
X0023225Y0016282D01*
X0023092Y0016368D01*
X0022962Y0016458D01*
X0022834Y0016551D01*
X0022708Y0016647D01*
X0022585Y0016747D01*
X0022464Y0016849D01*
X0022346Y0016954D01*
X0022231Y0017063D01*
X0022118Y0017174D01*
X0022008Y0017288D01*
X0021901Y0017405D01*
X0021797Y0017524D01*
X0021696Y0017646D01*
X0021599Y0017771D01*
X0021504Y0017898D01*
X0021413Y0018027D01*
X0021324Y0018158D01*
X0021240Y0018292D01*
X0021158Y0018428D01*
X0021080Y0018565D01*
X0021006Y0018705D01*
X0020935Y0018847D01*
X0020867Y0018990D01*
X0020803Y0019135D01*
X0020743Y0019281D01*
X0020687Y0019429D01*
X0020634Y0019578D01*
X0020585Y0019729D01*
X0020540Y0019881D01*
X0020499Y0020034D01*
X0020461Y0020187D01*
X0020428Y0020342D01*
X0020398Y0020498D01*
X0020372Y0020654D01*
X0020351Y0020811D01*
X0020333Y0020968D01*
X0020319Y0021126D01*
X0020309Y0021284D01*
X0020303Y0021442D01*
X0020301Y0021600D01*
X0020301Y0171600D02*
X0020303Y0171758D01*
X0020309Y0171916D01*
X0020319Y0172074D01*
X0020333Y0172232D01*
X0020351Y0172389D01*
X0020372Y0172546D01*
X0020398Y0172702D01*
X0020428Y0172858D01*
X0020461Y0173013D01*
X0020499Y0173166D01*
X0020540Y0173319D01*
X0020585Y0173471D01*
X0020634Y0173622D01*
X0020687Y0173771D01*
X0020743Y0173919D01*
X0020803Y0174065D01*
X0020867Y0174210D01*
X0020935Y0174353D01*
X0021006Y0174495D01*
X0021080Y0174635D01*
X0021158Y0174772D01*
X0021240Y0174908D01*
X0021324Y0175042D01*
X0021413Y0175173D01*
X0021504Y0175302D01*
X0021599Y0175429D01*
X0021696Y0175554D01*
X0021797Y0175676D01*
X0021901Y0175795D01*
X0022008Y0175912D01*
X0022118Y0176026D01*
X0022231Y0176137D01*
X0022346Y0176246D01*
X0022464Y0176351D01*
X0022585Y0176453D01*
X0022708Y0176553D01*
X0022834Y0176649D01*
X0022962Y0176742D01*
X0023092Y0176832D01*
X0023225Y0176918D01*
X0023360Y0177002D01*
X0023496Y0177081D01*
X0023635Y0177158D01*
X0023776Y0177230D01*
X0023918Y0177300D01*
X0024062Y0177365D01*
X0024208Y0177427D01*
X0024355Y0177485D01*
X0024504Y0177540D01*
X0024654Y0177591D01*
X0024805Y0177638D01*
X0024957Y0177681D01*
X0025110Y0177720D01*
X0025265Y0177756D01*
X0025420Y0177787D01*
X0025576Y0177815D01*
X0025732Y0177839D01*
X0025889Y0177859D01*
X0026047Y0177875D01*
X0026204Y0177887D01*
X0026363Y0177895D01*
X0026521Y0177899D01*
X0026679Y0177899D01*
X0026837Y0177895D01*
X0026996Y0177887D01*
X0027153Y0177875D01*
X0027311Y0177859D01*
X0027468Y0177839D01*
X0027624Y0177815D01*
X0027780Y0177787D01*
X0027935Y0177756D01*
X0028090Y0177720D01*
X0028243Y0177681D01*
X0028395Y0177638D01*
X0028546Y0177591D01*
X0028696Y0177540D01*
X0028845Y0177485D01*
X0028992Y0177427D01*
X0029138Y0177365D01*
X0029282Y0177300D01*
X0029424Y0177230D01*
X0029565Y0177158D01*
X0029704Y0177081D01*
X0029840Y0177002D01*
X0029975Y0176918D01*
X0030108Y0176832D01*
X0030238Y0176742D01*
X0030366Y0176649D01*
X0030492Y0176553D01*
X0030615Y0176453D01*
X0030736Y0176351D01*
X0030854Y0176246D01*
X0030969Y0176137D01*
X0031082Y0176026D01*
X0031192Y0175912D01*
X0031299Y0175795D01*
X0031403Y0175676D01*
X0031504Y0175554D01*
X0031601Y0175429D01*
X0031696Y0175302D01*
X0031787Y0175173D01*
X0031876Y0175042D01*
X0031960Y0174908D01*
X0032042Y0174772D01*
X0032120Y0174635D01*
X0032194Y0174495D01*
X0032265Y0174353D01*
X0032333Y0174210D01*
X0032397Y0174065D01*
X0032457Y0173919D01*
X0032513Y0173771D01*
X0032566Y0173622D01*
X0032615Y0173471D01*
X0032660Y0173319D01*
X0032701Y0173166D01*
X0032739Y0173013D01*
X0032772Y0172858D01*
X0032802Y0172702D01*
X0032828Y0172546D01*
X0032849Y0172389D01*
X0032867Y0172232D01*
X0032881Y0172074D01*
X0032891Y0171916D01*
X0032897Y0171758D01*
X0032899Y0171600D01*
X0032897Y0171442D01*
X0032891Y0171284D01*
X0032881Y0171126D01*
X0032867Y0170968D01*
X0032849Y0170811D01*
X0032828Y0170654D01*
X0032802Y0170498D01*
X0032772Y0170342D01*
X0032739Y0170187D01*
X0032701Y0170034D01*
X0032660Y0169881D01*
X0032615Y0169729D01*
X0032566Y0169578D01*
X0032513Y0169429D01*
X0032457Y0169281D01*
X0032397Y0169135D01*
X0032333Y0168990D01*
X0032265Y0168847D01*
X0032194Y0168705D01*
X0032120Y0168565D01*
X0032042Y0168428D01*
X0031960Y0168292D01*
X0031876Y0168158D01*
X0031787Y0168027D01*
X0031696Y0167898D01*
X0031601Y0167771D01*
X0031504Y0167646D01*
X0031403Y0167524D01*
X0031299Y0167405D01*
X0031192Y0167288D01*
X0031082Y0167174D01*
X0030969Y0167063D01*
X0030854Y0166954D01*
X0030736Y0166849D01*
X0030615Y0166747D01*
X0030492Y0166647D01*
X0030366Y0166551D01*
X0030238Y0166458D01*
X0030108Y0166368D01*
X0029975Y0166282D01*
X0029840Y0166198D01*
X0029704Y0166119D01*
X0029565Y0166042D01*
X0029424Y0165970D01*
X0029282Y0165900D01*
X0029138Y0165835D01*
X0028992Y0165773D01*
X0028845Y0165715D01*
X0028696Y0165660D01*
X0028546Y0165609D01*
X0028395Y0165562D01*
X0028243Y0165519D01*
X0028090Y0165480D01*
X0027935Y0165444D01*
X0027780Y0165413D01*
X0027624Y0165385D01*
X0027468Y0165361D01*
X0027311Y0165341D01*
X0027153Y0165325D01*
X0026996Y0165313D01*
X0026837Y0165305D01*
X0026679Y0165301D01*
X0026521Y0165301D01*
X0026363Y0165305D01*
X0026204Y0165313D01*
X0026047Y0165325D01*
X0025889Y0165341D01*
X0025732Y0165361D01*
X0025576Y0165385D01*
X0025420Y0165413D01*
X0025265Y0165444D01*
X0025110Y0165480D01*
X0024957Y0165519D01*
X0024805Y0165562D01*
X0024654Y0165609D01*
X0024504Y0165660D01*
X0024355Y0165715D01*
X0024208Y0165773D01*
X0024062Y0165835D01*
X0023918Y0165900D01*
X0023776Y0165970D01*
X0023635Y0166042D01*
X0023496Y0166119D01*
X0023360Y0166198D01*
X0023225Y0166282D01*
X0023092Y0166368D01*
X0022962Y0166458D01*
X0022834Y0166551D01*
X0022708Y0166647D01*
X0022585Y0166747D01*
X0022464Y0166849D01*
X0022346Y0166954D01*
X0022231Y0167063D01*
X0022118Y0167174D01*
X0022008Y0167288D01*
X0021901Y0167405D01*
X0021797Y0167524D01*
X0021696Y0167646D01*
X0021599Y0167771D01*
X0021504Y0167898D01*
X0021413Y0168027D01*
X0021324Y0168158D01*
X0021240Y0168292D01*
X0021158Y0168428D01*
X0021080Y0168565D01*
X0021006Y0168705D01*
X0020935Y0168847D01*
X0020867Y0168990D01*
X0020803Y0169135D01*
X0020743Y0169281D01*
X0020687Y0169429D01*
X0020634Y0169578D01*
X0020585Y0169729D01*
X0020540Y0169881D01*
X0020499Y0170034D01*
X0020461Y0170187D01*
X0020428Y0170342D01*
X0020398Y0170498D01*
X0020372Y0170654D01*
X0020351Y0170811D01*
X0020333Y0170968D01*
X0020319Y0171126D01*
X0020309Y0171284D01*
X0020303Y0171442D01*
X0020301Y0171600D01*
X0175301Y0171600D02*
X0175303Y0171758D01*
X0175309Y0171916D01*
X0175319Y0172074D01*
X0175333Y0172232D01*
X0175351Y0172389D01*
X0175372Y0172546D01*
X0175398Y0172702D01*
X0175428Y0172858D01*
X0175461Y0173013D01*
X0175499Y0173166D01*
X0175540Y0173319D01*
X0175585Y0173471D01*
X0175634Y0173622D01*
X0175687Y0173771D01*
X0175743Y0173919D01*
X0175803Y0174065D01*
X0175867Y0174210D01*
X0175935Y0174353D01*
X0176006Y0174495D01*
X0176080Y0174635D01*
X0176158Y0174772D01*
X0176240Y0174908D01*
X0176324Y0175042D01*
X0176413Y0175173D01*
X0176504Y0175302D01*
X0176599Y0175429D01*
X0176696Y0175554D01*
X0176797Y0175676D01*
X0176901Y0175795D01*
X0177008Y0175912D01*
X0177118Y0176026D01*
X0177231Y0176137D01*
X0177346Y0176246D01*
X0177464Y0176351D01*
X0177585Y0176453D01*
X0177708Y0176553D01*
X0177834Y0176649D01*
X0177962Y0176742D01*
X0178092Y0176832D01*
X0178225Y0176918D01*
X0178360Y0177002D01*
X0178496Y0177081D01*
X0178635Y0177158D01*
X0178776Y0177230D01*
X0178918Y0177300D01*
X0179062Y0177365D01*
X0179208Y0177427D01*
X0179355Y0177485D01*
X0179504Y0177540D01*
X0179654Y0177591D01*
X0179805Y0177638D01*
X0179957Y0177681D01*
X0180110Y0177720D01*
X0180265Y0177756D01*
X0180420Y0177787D01*
X0180576Y0177815D01*
X0180732Y0177839D01*
X0180889Y0177859D01*
X0181047Y0177875D01*
X0181204Y0177887D01*
X0181363Y0177895D01*
X0181521Y0177899D01*
X0181679Y0177899D01*
X0181837Y0177895D01*
X0181996Y0177887D01*
X0182153Y0177875D01*
X0182311Y0177859D01*
X0182468Y0177839D01*
X0182624Y0177815D01*
X0182780Y0177787D01*
X0182935Y0177756D01*
X0183090Y0177720D01*
X0183243Y0177681D01*
X0183395Y0177638D01*
X0183546Y0177591D01*
X0183696Y0177540D01*
X0183845Y0177485D01*
X0183992Y0177427D01*
X0184138Y0177365D01*
X0184282Y0177300D01*
X0184424Y0177230D01*
X0184565Y0177158D01*
X0184704Y0177081D01*
X0184840Y0177002D01*
X0184975Y0176918D01*
X0185108Y0176832D01*
X0185238Y0176742D01*
X0185366Y0176649D01*
X0185492Y0176553D01*
X0185615Y0176453D01*
X0185736Y0176351D01*
X0185854Y0176246D01*
X0185969Y0176137D01*
X0186082Y0176026D01*
X0186192Y0175912D01*
X0186299Y0175795D01*
X0186403Y0175676D01*
X0186504Y0175554D01*
X0186601Y0175429D01*
X0186696Y0175302D01*
X0186787Y0175173D01*
X0186876Y0175042D01*
X0186960Y0174908D01*
X0187042Y0174772D01*
X0187120Y0174635D01*
X0187194Y0174495D01*
X0187265Y0174353D01*
X0187333Y0174210D01*
X0187397Y0174065D01*
X0187457Y0173919D01*
X0187513Y0173771D01*
X0187566Y0173622D01*
X0187615Y0173471D01*
X0187660Y0173319D01*
X0187701Y0173166D01*
X0187739Y0173013D01*
X0187772Y0172858D01*
X0187802Y0172702D01*
X0187828Y0172546D01*
X0187849Y0172389D01*
X0187867Y0172232D01*
X0187881Y0172074D01*
X0187891Y0171916D01*
X0187897Y0171758D01*
X0187899Y0171600D01*
X0187897Y0171442D01*
X0187891Y0171284D01*
X0187881Y0171126D01*
X0187867Y0170968D01*
X0187849Y0170811D01*
X0187828Y0170654D01*
X0187802Y0170498D01*
X0187772Y0170342D01*
X0187739Y0170187D01*
X0187701Y0170034D01*
X0187660Y0169881D01*
X0187615Y0169729D01*
X0187566Y0169578D01*
X0187513Y0169429D01*
X0187457Y0169281D01*
X0187397Y0169135D01*
X0187333Y0168990D01*
X0187265Y0168847D01*
X0187194Y0168705D01*
X0187120Y0168565D01*
X0187042Y0168428D01*
X0186960Y0168292D01*
X0186876Y0168158D01*
X0186787Y0168027D01*
X0186696Y0167898D01*
X0186601Y0167771D01*
X0186504Y0167646D01*
X0186403Y0167524D01*
X0186299Y0167405D01*
X0186192Y0167288D01*
X0186082Y0167174D01*
X0185969Y0167063D01*
X0185854Y0166954D01*
X0185736Y0166849D01*
X0185615Y0166747D01*
X0185492Y0166647D01*
X0185366Y0166551D01*
X0185238Y0166458D01*
X0185108Y0166368D01*
X0184975Y0166282D01*
X0184840Y0166198D01*
X0184704Y0166119D01*
X0184565Y0166042D01*
X0184424Y0165970D01*
X0184282Y0165900D01*
X0184138Y0165835D01*
X0183992Y0165773D01*
X0183845Y0165715D01*
X0183696Y0165660D01*
X0183546Y0165609D01*
X0183395Y0165562D01*
X0183243Y0165519D01*
X0183090Y0165480D01*
X0182935Y0165444D01*
X0182780Y0165413D01*
X0182624Y0165385D01*
X0182468Y0165361D01*
X0182311Y0165341D01*
X0182153Y0165325D01*
X0181996Y0165313D01*
X0181837Y0165305D01*
X0181679Y0165301D01*
X0181521Y0165301D01*
X0181363Y0165305D01*
X0181204Y0165313D01*
X0181047Y0165325D01*
X0180889Y0165341D01*
X0180732Y0165361D01*
X0180576Y0165385D01*
X0180420Y0165413D01*
X0180265Y0165444D01*
X0180110Y0165480D01*
X0179957Y0165519D01*
X0179805Y0165562D01*
X0179654Y0165609D01*
X0179504Y0165660D01*
X0179355Y0165715D01*
X0179208Y0165773D01*
X0179062Y0165835D01*
X0178918Y0165900D01*
X0178776Y0165970D01*
X0178635Y0166042D01*
X0178496Y0166119D01*
X0178360Y0166198D01*
X0178225Y0166282D01*
X0178092Y0166368D01*
X0177962Y0166458D01*
X0177834Y0166551D01*
X0177708Y0166647D01*
X0177585Y0166747D01*
X0177464Y0166849D01*
X0177346Y0166954D01*
X0177231Y0167063D01*
X0177118Y0167174D01*
X0177008Y0167288D01*
X0176901Y0167405D01*
X0176797Y0167524D01*
X0176696Y0167646D01*
X0176599Y0167771D01*
X0176504Y0167898D01*
X0176413Y0168027D01*
X0176324Y0168158D01*
X0176240Y0168292D01*
X0176158Y0168428D01*
X0176080Y0168565D01*
X0176006Y0168705D01*
X0175935Y0168847D01*
X0175867Y0168990D01*
X0175803Y0169135D01*
X0175743Y0169281D01*
X0175687Y0169429D01*
X0175634Y0169578D01*
X0175585Y0169729D01*
X0175540Y0169881D01*
X0175499Y0170034D01*
X0175461Y0170187D01*
X0175428Y0170342D01*
X0175398Y0170498D01*
X0175372Y0170654D01*
X0175351Y0170811D01*
X0175333Y0170968D01*
X0175319Y0171126D01*
X0175309Y0171284D01*
X0175303Y0171442D01*
X0175301Y0171600D01*
X0175301Y0021600D02*
X0175303Y0021758D01*
X0175309Y0021916D01*
X0175319Y0022074D01*
X0175333Y0022232D01*
X0175351Y0022389D01*
X0175372Y0022546D01*
X0175398Y0022702D01*
X0175428Y0022858D01*
X0175461Y0023013D01*
X0175499Y0023166D01*
X0175540Y0023319D01*
X0175585Y0023471D01*
X0175634Y0023622D01*
X0175687Y0023771D01*
X0175743Y0023919D01*
X0175803Y0024065D01*
X0175867Y0024210D01*
X0175935Y0024353D01*
X0176006Y0024495D01*
X0176080Y0024635D01*
X0176158Y0024772D01*
X0176240Y0024908D01*
X0176324Y0025042D01*
X0176413Y0025173D01*
X0176504Y0025302D01*
X0176599Y0025429D01*
X0176696Y0025554D01*
X0176797Y0025676D01*
X0176901Y0025795D01*
X0177008Y0025912D01*
X0177118Y0026026D01*
X0177231Y0026137D01*
X0177346Y0026246D01*
X0177464Y0026351D01*
X0177585Y0026453D01*
X0177708Y0026553D01*
X0177834Y0026649D01*
X0177962Y0026742D01*
X0178092Y0026832D01*
X0178225Y0026918D01*
X0178360Y0027002D01*
X0178496Y0027081D01*
X0178635Y0027158D01*
X0178776Y0027230D01*
X0178918Y0027300D01*
X0179062Y0027365D01*
X0179208Y0027427D01*
X0179355Y0027485D01*
X0179504Y0027540D01*
X0179654Y0027591D01*
X0179805Y0027638D01*
X0179957Y0027681D01*
X0180110Y0027720D01*
X0180265Y0027756D01*
X0180420Y0027787D01*
X0180576Y0027815D01*
X0180732Y0027839D01*
X0180889Y0027859D01*
X0181047Y0027875D01*
X0181204Y0027887D01*
X0181363Y0027895D01*
X0181521Y0027899D01*
X0181679Y0027899D01*
X0181837Y0027895D01*
X0181996Y0027887D01*
X0182153Y0027875D01*
X0182311Y0027859D01*
X0182468Y0027839D01*
X0182624Y0027815D01*
X0182780Y0027787D01*
X0182935Y0027756D01*
X0183090Y0027720D01*
X0183243Y0027681D01*
X0183395Y0027638D01*
X0183546Y0027591D01*
X0183696Y0027540D01*
X0183845Y0027485D01*
X0183992Y0027427D01*
X0184138Y0027365D01*
X0184282Y0027300D01*
X0184424Y0027230D01*
X0184565Y0027158D01*
X0184704Y0027081D01*
X0184840Y0027002D01*
X0184975Y0026918D01*
X0185108Y0026832D01*
X0185238Y0026742D01*
X0185366Y0026649D01*
X0185492Y0026553D01*
X0185615Y0026453D01*
X0185736Y0026351D01*
X0185854Y0026246D01*
X0185969Y0026137D01*
X0186082Y0026026D01*
X0186192Y0025912D01*
X0186299Y0025795D01*
X0186403Y0025676D01*
X0186504Y0025554D01*
X0186601Y0025429D01*
X0186696Y0025302D01*
X0186787Y0025173D01*
X0186876Y0025042D01*
X0186960Y0024908D01*
X0187042Y0024772D01*
X0187120Y0024635D01*
X0187194Y0024495D01*
X0187265Y0024353D01*
X0187333Y0024210D01*
X0187397Y0024065D01*
X0187457Y0023919D01*
X0187513Y0023771D01*
X0187566Y0023622D01*
X0187615Y0023471D01*
X0187660Y0023319D01*
X0187701Y0023166D01*
X0187739Y0023013D01*
X0187772Y0022858D01*
X0187802Y0022702D01*
X0187828Y0022546D01*
X0187849Y0022389D01*
X0187867Y0022232D01*
X0187881Y0022074D01*
X0187891Y0021916D01*
X0187897Y0021758D01*
X0187899Y0021600D01*
X0187897Y0021442D01*
X0187891Y0021284D01*
X0187881Y0021126D01*
X0187867Y0020968D01*
X0187849Y0020811D01*
X0187828Y0020654D01*
X0187802Y0020498D01*
X0187772Y0020342D01*
X0187739Y0020187D01*
X0187701Y0020034D01*
X0187660Y0019881D01*
X0187615Y0019729D01*
X0187566Y0019578D01*
X0187513Y0019429D01*
X0187457Y0019281D01*
X0187397Y0019135D01*
X0187333Y0018990D01*
X0187265Y0018847D01*
X0187194Y0018705D01*
X0187120Y0018565D01*
X0187042Y0018428D01*
X0186960Y0018292D01*
X0186876Y0018158D01*
X0186787Y0018027D01*
X0186696Y0017898D01*
X0186601Y0017771D01*
X0186504Y0017646D01*
X0186403Y0017524D01*
X0186299Y0017405D01*
X0186192Y0017288D01*
X0186082Y0017174D01*
X0185969Y0017063D01*
X0185854Y0016954D01*
X0185736Y0016849D01*
X0185615Y0016747D01*
X0185492Y0016647D01*
X0185366Y0016551D01*
X0185238Y0016458D01*
X0185108Y0016368D01*
X0184975Y0016282D01*
X0184840Y0016198D01*
X0184704Y0016119D01*
X0184565Y0016042D01*
X0184424Y0015970D01*
X0184282Y0015900D01*
X0184138Y0015835D01*
X0183992Y0015773D01*
X0183845Y0015715D01*
X0183696Y0015660D01*
X0183546Y0015609D01*
X0183395Y0015562D01*
X0183243Y0015519D01*
X0183090Y0015480D01*
X0182935Y0015444D01*
X0182780Y0015413D01*
X0182624Y0015385D01*
X0182468Y0015361D01*
X0182311Y0015341D01*
X0182153Y0015325D01*
X0181996Y0015313D01*
X0181837Y0015305D01*
X0181679Y0015301D01*
X0181521Y0015301D01*
X0181363Y0015305D01*
X0181204Y0015313D01*
X0181047Y0015325D01*
X0180889Y0015341D01*
X0180732Y0015361D01*
X0180576Y0015385D01*
X0180420Y0015413D01*
X0180265Y0015444D01*
X0180110Y0015480D01*
X0179957Y0015519D01*
X0179805Y0015562D01*
X0179654Y0015609D01*
X0179504Y0015660D01*
X0179355Y0015715D01*
X0179208Y0015773D01*
X0179062Y0015835D01*
X0178918Y0015900D01*
X0178776Y0015970D01*
X0178635Y0016042D01*
X0178496Y0016119D01*
X0178360Y0016198D01*
X0178225Y0016282D01*
X0178092Y0016368D01*
X0177962Y0016458D01*
X0177834Y0016551D01*
X0177708Y0016647D01*
X0177585Y0016747D01*
X0177464Y0016849D01*
X0177346Y0016954D01*
X0177231Y0017063D01*
X0177118Y0017174D01*
X0177008Y0017288D01*
X0176901Y0017405D01*
X0176797Y0017524D01*
X0176696Y0017646D01*
X0176599Y0017771D01*
X0176504Y0017898D01*
X0176413Y0018027D01*
X0176324Y0018158D01*
X0176240Y0018292D01*
X0176158Y0018428D01*
X0176080Y0018565D01*
X0176006Y0018705D01*
X0175935Y0018847D01*
X0175867Y0018990D01*
X0175803Y0019135D01*
X0175743Y0019281D01*
X0175687Y0019429D01*
X0175634Y0019578D01*
X0175585Y0019729D01*
X0175540Y0019881D01*
X0175499Y0020034D01*
X0175461Y0020187D01*
X0175428Y0020342D01*
X0175398Y0020498D01*
X0175372Y0020654D01*
X0175351Y0020811D01*
X0175333Y0020968D01*
X0175319Y0021126D01*
X0175309Y0021284D01*
X0175303Y0021442D01*
X0175301Y0021600D01*
M02*
