%
M48
M72
T01C0.0320
T02C0.0400
T03C0.1260
%
T01
X6900Y1900
X8150Y1400
X8150Y2400
X8150Y3400
X8150Y4400
X8150Y5400
X6900Y5900
X8150Y6400
X8150Y7400
X8150Y8400
X6900Y8900
X5900Y8900
X8150Y9400
X8150Y10400
X8150Y11400
X8150Y12400
X6900Y12900
X5900Y12900
X8150Y13400
X8150Y14400
X11150Y14400
X11150Y13400
X11150Y12400
X11150Y11400
X11150Y10400
X11150Y9400
X11150Y8400
X11150Y7400
X11150Y6400
X11150Y5400
X11150Y4400
X11150Y3400
X11150Y2400
X11150Y1400
T02
X4650Y12900
X4650Y11900
X4650Y10400
X4650Y9400
X4650Y7900
X4650Y6900
X4650Y5900
X4650Y4900
X12650Y2400
X13650Y2400
X13650Y2400
X14650Y2400
X14650Y3400
X13650Y3400
X13650Y3400
X12650Y3400
X12650Y4400
X13650Y4400
X13650Y4400
X14650Y4400
X16900Y4900
X16900Y5900
X16900Y6900
X16900Y7900
X16900Y9400
X16900Y10400
X16900Y11900
X16900Y12900
X14650Y12400
X14650Y11400
X14650Y10400
X14650Y9400
X14650Y8400
X14650Y7400
X12650Y7400
X12650Y8400
X12650Y9400
X12650Y10400
X12650Y11400
X12650Y12400
X12650Y13400
X12650Y14400
X14650Y14400
X14650Y13400
T03
X4150Y2400
X17400Y2400
X17400Y15400
X4150Y15400
M30
