G75*
%MOIN*%
%OFA0B0*%
%FSLAX25Y25*%
%IPPOS*%
%LPD*%
%AMOC8*
5,1,8,0,0,1.08239X$1,22.5*
%
%ADD10C,0.00000*%
D10*
X0021500Y0004000D02*
X0021500Y0173961D01*
X0192701Y0173961D01*
X0192701Y0004000D01*
X0021500Y0004000D01*
X0035201Y0024000D02*
X0035203Y0024158D01*
X0035209Y0024316D01*
X0035219Y0024474D01*
X0035233Y0024632D01*
X0035251Y0024789D01*
X0035272Y0024946D01*
X0035298Y0025102D01*
X0035328Y0025258D01*
X0035361Y0025413D01*
X0035399Y0025566D01*
X0035440Y0025719D01*
X0035485Y0025871D01*
X0035534Y0026022D01*
X0035587Y0026171D01*
X0035643Y0026319D01*
X0035703Y0026465D01*
X0035767Y0026610D01*
X0035835Y0026753D01*
X0035906Y0026895D01*
X0035980Y0027035D01*
X0036058Y0027172D01*
X0036140Y0027308D01*
X0036224Y0027442D01*
X0036313Y0027573D01*
X0036404Y0027702D01*
X0036499Y0027829D01*
X0036596Y0027954D01*
X0036697Y0028076D01*
X0036801Y0028195D01*
X0036908Y0028312D01*
X0037018Y0028426D01*
X0037131Y0028537D01*
X0037246Y0028646D01*
X0037364Y0028751D01*
X0037485Y0028853D01*
X0037608Y0028953D01*
X0037734Y0029049D01*
X0037862Y0029142D01*
X0037992Y0029232D01*
X0038125Y0029318D01*
X0038260Y0029402D01*
X0038396Y0029481D01*
X0038535Y0029558D01*
X0038676Y0029630D01*
X0038818Y0029700D01*
X0038962Y0029765D01*
X0039108Y0029827D01*
X0039255Y0029885D01*
X0039404Y0029940D01*
X0039554Y0029991D01*
X0039705Y0030038D01*
X0039857Y0030081D01*
X0040010Y0030120D01*
X0040165Y0030156D01*
X0040320Y0030187D01*
X0040476Y0030215D01*
X0040632Y0030239D01*
X0040789Y0030259D01*
X0040947Y0030275D01*
X0041104Y0030287D01*
X0041263Y0030295D01*
X0041421Y0030299D01*
X0041579Y0030299D01*
X0041737Y0030295D01*
X0041896Y0030287D01*
X0042053Y0030275D01*
X0042211Y0030259D01*
X0042368Y0030239D01*
X0042524Y0030215D01*
X0042680Y0030187D01*
X0042835Y0030156D01*
X0042990Y0030120D01*
X0043143Y0030081D01*
X0043295Y0030038D01*
X0043446Y0029991D01*
X0043596Y0029940D01*
X0043745Y0029885D01*
X0043892Y0029827D01*
X0044038Y0029765D01*
X0044182Y0029700D01*
X0044324Y0029630D01*
X0044465Y0029558D01*
X0044604Y0029481D01*
X0044740Y0029402D01*
X0044875Y0029318D01*
X0045008Y0029232D01*
X0045138Y0029142D01*
X0045266Y0029049D01*
X0045392Y0028953D01*
X0045515Y0028853D01*
X0045636Y0028751D01*
X0045754Y0028646D01*
X0045869Y0028537D01*
X0045982Y0028426D01*
X0046092Y0028312D01*
X0046199Y0028195D01*
X0046303Y0028076D01*
X0046404Y0027954D01*
X0046501Y0027829D01*
X0046596Y0027702D01*
X0046687Y0027573D01*
X0046776Y0027442D01*
X0046860Y0027308D01*
X0046942Y0027172D01*
X0047020Y0027035D01*
X0047094Y0026895D01*
X0047165Y0026753D01*
X0047233Y0026610D01*
X0047297Y0026465D01*
X0047357Y0026319D01*
X0047413Y0026171D01*
X0047466Y0026022D01*
X0047515Y0025871D01*
X0047560Y0025719D01*
X0047601Y0025566D01*
X0047639Y0025413D01*
X0047672Y0025258D01*
X0047702Y0025102D01*
X0047728Y0024946D01*
X0047749Y0024789D01*
X0047767Y0024632D01*
X0047781Y0024474D01*
X0047791Y0024316D01*
X0047797Y0024158D01*
X0047799Y0024000D01*
X0047797Y0023842D01*
X0047791Y0023684D01*
X0047781Y0023526D01*
X0047767Y0023368D01*
X0047749Y0023211D01*
X0047728Y0023054D01*
X0047702Y0022898D01*
X0047672Y0022742D01*
X0047639Y0022587D01*
X0047601Y0022434D01*
X0047560Y0022281D01*
X0047515Y0022129D01*
X0047466Y0021978D01*
X0047413Y0021829D01*
X0047357Y0021681D01*
X0047297Y0021535D01*
X0047233Y0021390D01*
X0047165Y0021247D01*
X0047094Y0021105D01*
X0047020Y0020965D01*
X0046942Y0020828D01*
X0046860Y0020692D01*
X0046776Y0020558D01*
X0046687Y0020427D01*
X0046596Y0020298D01*
X0046501Y0020171D01*
X0046404Y0020046D01*
X0046303Y0019924D01*
X0046199Y0019805D01*
X0046092Y0019688D01*
X0045982Y0019574D01*
X0045869Y0019463D01*
X0045754Y0019354D01*
X0045636Y0019249D01*
X0045515Y0019147D01*
X0045392Y0019047D01*
X0045266Y0018951D01*
X0045138Y0018858D01*
X0045008Y0018768D01*
X0044875Y0018682D01*
X0044740Y0018598D01*
X0044604Y0018519D01*
X0044465Y0018442D01*
X0044324Y0018370D01*
X0044182Y0018300D01*
X0044038Y0018235D01*
X0043892Y0018173D01*
X0043745Y0018115D01*
X0043596Y0018060D01*
X0043446Y0018009D01*
X0043295Y0017962D01*
X0043143Y0017919D01*
X0042990Y0017880D01*
X0042835Y0017844D01*
X0042680Y0017813D01*
X0042524Y0017785D01*
X0042368Y0017761D01*
X0042211Y0017741D01*
X0042053Y0017725D01*
X0041896Y0017713D01*
X0041737Y0017705D01*
X0041579Y0017701D01*
X0041421Y0017701D01*
X0041263Y0017705D01*
X0041104Y0017713D01*
X0040947Y0017725D01*
X0040789Y0017741D01*
X0040632Y0017761D01*
X0040476Y0017785D01*
X0040320Y0017813D01*
X0040165Y0017844D01*
X0040010Y0017880D01*
X0039857Y0017919D01*
X0039705Y0017962D01*
X0039554Y0018009D01*
X0039404Y0018060D01*
X0039255Y0018115D01*
X0039108Y0018173D01*
X0038962Y0018235D01*
X0038818Y0018300D01*
X0038676Y0018370D01*
X0038535Y0018442D01*
X0038396Y0018519D01*
X0038260Y0018598D01*
X0038125Y0018682D01*
X0037992Y0018768D01*
X0037862Y0018858D01*
X0037734Y0018951D01*
X0037608Y0019047D01*
X0037485Y0019147D01*
X0037364Y0019249D01*
X0037246Y0019354D01*
X0037131Y0019463D01*
X0037018Y0019574D01*
X0036908Y0019688D01*
X0036801Y0019805D01*
X0036697Y0019924D01*
X0036596Y0020046D01*
X0036499Y0020171D01*
X0036404Y0020298D01*
X0036313Y0020427D01*
X0036224Y0020558D01*
X0036140Y0020692D01*
X0036058Y0020828D01*
X0035980Y0020965D01*
X0035906Y0021105D01*
X0035835Y0021247D01*
X0035767Y0021390D01*
X0035703Y0021535D01*
X0035643Y0021681D01*
X0035587Y0021829D01*
X0035534Y0021978D01*
X0035485Y0022129D01*
X0035440Y0022281D01*
X0035399Y0022434D01*
X0035361Y0022587D01*
X0035328Y0022742D01*
X0035298Y0022898D01*
X0035272Y0023054D01*
X0035251Y0023211D01*
X0035233Y0023368D01*
X0035219Y0023526D01*
X0035209Y0023684D01*
X0035203Y0023842D01*
X0035201Y0024000D01*
X0167701Y0024000D02*
X0167703Y0024158D01*
X0167709Y0024316D01*
X0167719Y0024474D01*
X0167733Y0024632D01*
X0167751Y0024789D01*
X0167772Y0024946D01*
X0167798Y0025102D01*
X0167828Y0025258D01*
X0167861Y0025413D01*
X0167899Y0025566D01*
X0167940Y0025719D01*
X0167985Y0025871D01*
X0168034Y0026022D01*
X0168087Y0026171D01*
X0168143Y0026319D01*
X0168203Y0026465D01*
X0168267Y0026610D01*
X0168335Y0026753D01*
X0168406Y0026895D01*
X0168480Y0027035D01*
X0168558Y0027172D01*
X0168640Y0027308D01*
X0168724Y0027442D01*
X0168813Y0027573D01*
X0168904Y0027702D01*
X0168999Y0027829D01*
X0169096Y0027954D01*
X0169197Y0028076D01*
X0169301Y0028195D01*
X0169408Y0028312D01*
X0169518Y0028426D01*
X0169631Y0028537D01*
X0169746Y0028646D01*
X0169864Y0028751D01*
X0169985Y0028853D01*
X0170108Y0028953D01*
X0170234Y0029049D01*
X0170362Y0029142D01*
X0170492Y0029232D01*
X0170625Y0029318D01*
X0170760Y0029402D01*
X0170896Y0029481D01*
X0171035Y0029558D01*
X0171176Y0029630D01*
X0171318Y0029700D01*
X0171462Y0029765D01*
X0171608Y0029827D01*
X0171755Y0029885D01*
X0171904Y0029940D01*
X0172054Y0029991D01*
X0172205Y0030038D01*
X0172357Y0030081D01*
X0172510Y0030120D01*
X0172665Y0030156D01*
X0172820Y0030187D01*
X0172976Y0030215D01*
X0173132Y0030239D01*
X0173289Y0030259D01*
X0173447Y0030275D01*
X0173604Y0030287D01*
X0173763Y0030295D01*
X0173921Y0030299D01*
X0174079Y0030299D01*
X0174237Y0030295D01*
X0174396Y0030287D01*
X0174553Y0030275D01*
X0174711Y0030259D01*
X0174868Y0030239D01*
X0175024Y0030215D01*
X0175180Y0030187D01*
X0175335Y0030156D01*
X0175490Y0030120D01*
X0175643Y0030081D01*
X0175795Y0030038D01*
X0175946Y0029991D01*
X0176096Y0029940D01*
X0176245Y0029885D01*
X0176392Y0029827D01*
X0176538Y0029765D01*
X0176682Y0029700D01*
X0176824Y0029630D01*
X0176965Y0029558D01*
X0177104Y0029481D01*
X0177240Y0029402D01*
X0177375Y0029318D01*
X0177508Y0029232D01*
X0177638Y0029142D01*
X0177766Y0029049D01*
X0177892Y0028953D01*
X0178015Y0028853D01*
X0178136Y0028751D01*
X0178254Y0028646D01*
X0178369Y0028537D01*
X0178482Y0028426D01*
X0178592Y0028312D01*
X0178699Y0028195D01*
X0178803Y0028076D01*
X0178904Y0027954D01*
X0179001Y0027829D01*
X0179096Y0027702D01*
X0179187Y0027573D01*
X0179276Y0027442D01*
X0179360Y0027308D01*
X0179442Y0027172D01*
X0179520Y0027035D01*
X0179594Y0026895D01*
X0179665Y0026753D01*
X0179733Y0026610D01*
X0179797Y0026465D01*
X0179857Y0026319D01*
X0179913Y0026171D01*
X0179966Y0026022D01*
X0180015Y0025871D01*
X0180060Y0025719D01*
X0180101Y0025566D01*
X0180139Y0025413D01*
X0180172Y0025258D01*
X0180202Y0025102D01*
X0180228Y0024946D01*
X0180249Y0024789D01*
X0180267Y0024632D01*
X0180281Y0024474D01*
X0180291Y0024316D01*
X0180297Y0024158D01*
X0180299Y0024000D01*
X0180297Y0023842D01*
X0180291Y0023684D01*
X0180281Y0023526D01*
X0180267Y0023368D01*
X0180249Y0023211D01*
X0180228Y0023054D01*
X0180202Y0022898D01*
X0180172Y0022742D01*
X0180139Y0022587D01*
X0180101Y0022434D01*
X0180060Y0022281D01*
X0180015Y0022129D01*
X0179966Y0021978D01*
X0179913Y0021829D01*
X0179857Y0021681D01*
X0179797Y0021535D01*
X0179733Y0021390D01*
X0179665Y0021247D01*
X0179594Y0021105D01*
X0179520Y0020965D01*
X0179442Y0020828D01*
X0179360Y0020692D01*
X0179276Y0020558D01*
X0179187Y0020427D01*
X0179096Y0020298D01*
X0179001Y0020171D01*
X0178904Y0020046D01*
X0178803Y0019924D01*
X0178699Y0019805D01*
X0178592Y0019688D01*
X0178482Y0019574D01*
X0178369Y0019463D01*
X0178254Y0019354D01*
X0178136Y0019249D01*
X0178015Y0019147D01*
X0177892Y0019047D01*
X0177766Y0018951D01*
X0177638Y0018858D01*
X0177508Y0018768D01*
X0177375Y0018682D01*
X0177240Y0018598D01*
X0177104Y0018519D01*
X0176965Y0018442D01*
X0176824Y0018370D01*
X0176682Y0018300D01*
X0176538Y0018235D01*
X0176392Y0018173D01*
X0176245Y0018115D01*
X0176096Y0018060D01*
X0175946Y0018009D01*
X0175795Y0017962D01*
X0175643Y0017919D01*
X0175490Y0017880D01*
X0175335Y0017844D01*
X0175180Y0017813D01*
X0175024Y0017785D01*
X0174868Y0017761D01*
X0174711Y0017741D01*
X0174553Y0017725D01*
X0174396Y0017713D01*
X0174237Y0017705D01*
X0174079Y0017701D01*
X0173921Y0017701D01*
X0173763Y0017705D01*
X0173604Y0017713D01*
X0173447Y0017725D01*
X0173289Y0017741D01*
X0173132Y0017761D01*
X0172976Y0017785D01*
X0172820Y0017813D01*
X0172665Y0017844D01*
X0172510Y0017880D01*
X0172357Y0017919D01*
X0172205Y0017962D01*
X0172054Y0018009D01*
X0171904Y0018060D01*
X0171755Y0018115D01*
X0171608Y0018173D01*
X0171462Y0018235D01*
X0171318Y0018300D01*
X0171176Y0018370D01*
X0171035Y0018442D01*
X0170896Y0018519D01*
X0170760Y0018598D01*
X0170625Y0018682D01*
X0170492Y0018768D01*
X0170362Y0018858D01*
X0170234Y0018951D01*
X0170108Y0019047D01*
X0169985Y0019147D01*
X0169864Y0019249D01*
X0169746Y0019354D01*
X0169631Y0019463D01*
X0169518Y0019574D01*
X0169408Y0019688D01*
X0169301Y0019805D01*
X0169197Y0019924D01*
X0169096Y0020046D01*
X0168999Y0020171D01*
X0168904Y0020298D01*
X0168813Y0020427D01*
X0168724Y0020558D01*
X0168640Y0020692D01*
X0168558Y0020828D01*
X0168480Y0020965D01*
X0168406Y0021105D01*
X0168335Y0021247D01*
X0168267Y0021390D01*
X0168203Y0021535D01*
X0168143Y0021681D01*
X0168087Y0021829D01*
X0168034Y0021978D01*
X0167985Y0022129D01*
X0167940Y0022281D01*
X0167899Y0022434D01*
X0167861Y0022587D01*
X0167828Y0022742D01*
X0167798Y0022898D01*
X0167772Y0023054D01*
X0167751Y0023211D01*
X0167733Y0023368D01*
X0167719Y0023526D01*
X0167709Y0023684D01*
X0167703Y0023842D01*
X0167701Y0024000D01*
X0167701Y0154000D02*
X0167703Y0154158D01*
X0167709Y0154316D01*
X0167719Y0154474D01*
X0167733Y0154632D01*
X0167751Y0154789D01*
X0167772Y0154946D01*
X0167798Y0155102D01*
X0167828Y0155258D01*
X0167861Y0155413D01*
X0167899Y0155566D01*
X0167940Y0155719D01*
X0167985Y0155871D01*
X0168034Y0156022D01*
X0168087Y0156171D01*
X0168143Y0156319D01*
X0168203Y0156465D01*
X0168267Y0156610D01*
X0168335Y0156753D01*
X0168406Y0156895D01*
X0168480Y0157035D01*
X0168558Y0157172D01*
X0168640Y0157308D01*
X0168724Y0157442D01*
X0168813Y0157573D01*
X0168904Y0157702D01*
X0168999Y0157829D01*
X0169096Y0157954D01*
X0169197Y0158076D01*
X0169301Y0158195D01*
X0169408Y0158312D01*
X0169518Y0158426D01*
X0169631Y0158537D01*
X0169746Y0158646D01*
X0169864Y0158751D01*
X0169985Y0158853D01*
X0170108Y0158953D01*
X0170234Y0159049D01*
X0170362Y0159142D01*
X0170492Y0159232D01*
X0170625Y0159318D01*
X0170760Y0159402D01*
X0170896Y0159481D01*
X0171035Y0159558D01*
X0171176Y0159630D01*
X0171318Y0159700D01*
X0171462Y0159765D01*
X0171608Y0159827D01*
X0171755Y0159885D01*
X0171904Y0159940D01*
X0172054Y0159991D01*
X0172205Y0160038D01*
X0172357Y0160081D01*
X0172510Y0160120D01*
X0172665Y0160156D01*
X0172820Y0160187D01*
X0172976Y0160215D01*
X0173132Y0160239D01*
X0173289Y0160259D01*
X0173447Y0160275D01*
X0173604Y0160287D01*
X0173763Y0160295D01*
X0173921Y0160299D01*
X0174079Y0160299D01*
X0174237Y0160295D01*
X0174396Y0160287D01*
X0174553Y0160275D01*
X0174711Y0160259D01*
X0174868Y0160239D01*
X0175024Y0160215D01*
X0175180Y0160187D01*
X0175335Y0160156D01*
X0175490Y0160120D01*
X0175643Y0160081D01*
X0175795Y0160038D01*
X0175946Y0159991D01*
X0176096Y0159940D01*
X0176245Y0159885D01*
X0176392Y0159827D01*
X0176538Y0159765D01*
X0176682Y0159700D01*
X0176824Y0159630D01*
X0176965Y0159558D01*
X0177104Y0159481D01*
X0177240Y0159402D01*
X0177375Y0159318D01*
X0177508Y0159232D01*
X0177638Y0159142D01*
X0177766Y0159049D01*
X0177892Y0158953D01*
X0178015Y0158853D01*
X0178136Y0158751D01*
X0178254Y0158646D01*
X0178369Y0158537D01*
X0178482Y0158426D01*
X0178592Y0158312D01*
X0178699Y0158195D01*
X0178803Y0158076D01*
X0178904Y0157954D01*
X0179001Y0157829D01*
X0179096Y0157702D01*
X0179187Y0157573D01*
X0179276Y0157442D01*
X0179360Y0157308D01*
X0179442Y0157172D01*
X0179520Y0157035D01*
X0179594Y0156895D01*
X0179665Y0156753D01*
X0179733Y0156610D01*
X0179797Y0156465D01*
X0179857Y0156319D01*
X0179913Y0156171D01*
X0179966Y0156022D01*
X0180015Y0155871D01*
X0180060Y0155719D01*
X0180101Y0155566D01*
X0180139Y0155413D01*
X0180172Y0155258D01*
X0180202Y0155102D01*
X0180228Y0154946D01*
X0180249Y0154789D01*
X0180267Y0154632D01*
X0180281Y0154474D01*
X0180291Y0154316D01*
X0180297Y0154158D01*
X0180299Y0154000D01*
X0180297Y0153842D01*
X0180291Y0153684D01*
X0180281Y0153526D01*
X0180267Y0153368D01*
X0180249Y0153211D01*
X0180228Y0153054D01*
X0180202Y0152898D01*
X0180172Y0152742D01*
X0180139Y0152587D01*
X0180101Y0152434D01*
X0180060Y0152281D01*
X0180015Y0152129D01*
X0179966Y0151978D01*
X0179913Y0151829D01*
X0179857Y0151681D01*
X0179797Y0151535D01*
X0179733Y0151390D01*
X0179665Y0151247D01*
X0179594Y0151105D01*
X0179520Y0150965D01*
X0179442Y0150828D01*
X0179360Y0150692D01*
X0179276Y0150558D01*
X0179187Y0150427D01*
X0179096Y0150298D01*
X0179001Y0150171D01*
X0178904Y0150046D01*
X0178803Y0149924D01*
X0178699Y0149805D01*
X0178592Y0149688D01*
X0178482Y0149574D01*
X0178369Y0149463D01*
X0178254Y0149354D01*
X0178136Y0149249D01*
X0178015Y0149147D01*
X0177892Y0149047D01*
X0177766Y0148951D01*
X0177638Y0148858D01*
X0177508Y0148768D01*
X0177375Y0148682D01*
X0177240Y0148598D01*
X0177104Y0148519D01*
X0176965Y0148442D01*
X0176824Y0148370D01*
X0176682Y0148300D01*
X0176538Y0148235D01*
X0176392Y0148173D01*
X0176245Y0148115D01*
X0176096Y0148060D01*
X0175946Y0148009D01*
X0175795Y0147962D01*
X0175643Y0147919D01*
X0175490Y0147880D01*
X0175335Y0147844D01*
X0175180Y0147813D01*
X0175024Y0147785D01*
X0174868Y0147761D01*
X0174711Y0147741D01*
X0174553Y0147725D01*
X0174396Y0147713D01*
X0174237Y0147705D01*
X0174079Y0147701D01*
X0173921Y0147701D01*
X0173763Y0147705D01*
X0173604Y0147713D01*
X0173447Y0147725D01*
X0173289Y0147741D01*
X0173132Y0147761D01*
X0172976Y0147785D01*
X0172820Y0147813D01*
X0172665Y0147844D01*
X0172510Y0147880D01*
X0172357Y0147919D01*
X0172205Y0147962D01*
X0172054Y0148009D01*
X0171904Y0148060D01*
X0171755Y0148115D01*
X0171608Y0148173D01*
X0171462Y0148235D01*
X0171318Y0148300D01*
X0171176Y0148370D01*
X0171035Y0148442D01*
X0170896Y0148519D01*
X0170760Y0148598D01*
X0170625Y0148682D01*
X0170492Y0148768D01*
X0170362Y0148858D01*
X0170234Y0148951D01*
X0170108Y0149047D01*
X0169985Y0149147D01*
X0169864Y0149249D01*
X0169746Y0149354D01*
X0169631Y0149463D01*
X0169518Y0149574D01*
X0169408Y0149688D01*
X0169301Y0149805D01*
X0169197Y0149924D01*
X0169096Y0150046D01*
X0168999Y0150171D01*
X0168904Y0150298D01*
X0168813Y0150427D01*
X0168724Y0150558D01*
X0168640Y0150692D01*
X0168558Y0150828D01*
X0168480Y0150965D01*
X0168406Y0151105D01*
X0168335Y0151247D01*
X0168267Y0151390D01*
X0168203Y0151535D01*
X0168143Y0151681D01*
X0168087Y0151829D01*
X0168034Y0151978D01*
X0167985Y0152129D01*
X0167940Y0152281D01*
X0167899Y0152434D01*
X0167861Y0152587D01*
X0167828Y0152742D01*
X0167798Y0152898D01*
X0167772Y0153054D01*
X0167751Y0153211D01*
X0167733Y0153368D01*
X0167719Y0153526D01*
X0167709Y0153684D01*
X0167703Y0153842D01*
X0167701Y0154000D01*
X0035201Y0154000D02*
X0035203Y0154158D01*
X0035209Y0154316D01*
X0035219Y0154474D01*
X0035233Y0154632D01*
X0035251Y0154789D01*
X0035272Y0154946D01*
X0035298Y0155102D01*
X0035328Y0155258D01*
X0035361Y0155413D01*
X0035399Y0155566D01*
X0035440Y0155719D01*
X0035485Y0155871D01*
X0035534Y0156022D01*
X0035587Y0156171D01*
X0035643Y0156319D01*
X0035703Y0156465D01*
X0035767Y0156610D01*
X0035835Y0156753D01*
X0035906Y0156895D01*
X0035980Y0157035D01*
X0036058Y0157172D01*
X0036140Y0157308D01*
X0036224Y0157442D01*
X0036313Y0157573D01*
X0036404Y0157702D01*
X0036499Y0157829D01*
X0036596Y0157954D01*
X0036697Y0158076D01*
X0036801Y0158195D01*
X0036908Y0158312D01*
X0037018Y0158426D01*
X0037131Y0158537D01*
X0037246Y0158646D01*
X0037364Y0158751D01*
X0037485Y0158853D01*
X0037608Y0158953D01*
X0037734Y0159049D01*
X0037862Y0159142D01*
X0037992Y0159232D01*
X0038125Y0159318D01*
X0038260Y0159402D01*
X0038396Y0159481D01*
X0038535Y0159558D01*
X0038676Y0159630D01*
X0038818Y0159700D01*
X0038962Y0159765D01*
X0039108Y0159827D01*
X0039255Y0159885D01*
X0039404Y0159940D01*
X0039554Y0159991D01*
X0039705Y0160038D01*
X0039857Y0160081D01*
X0040010Y0160120D01*
X0040165Y0160156D01*
X0040320Y0160187D01*
X0040476Y0160215D01*
X0040632Y0160239D01*
X0040789Y0160259D01*
X0040947Y0160275D01*
X0041104Y0160287D01*
X0041263Y0160295D01*
X0041421Y0160299D01*
X0041579Y0160299D01*
X0041737Y0160295D01*
X0041896Y0160287D01*
X0042053Y0160275D01*
X0042211Y0160259D01*
X0042368Y0160239D01*
X0042524Y0160215D01*
X0042680Y0160187D01*
X0042835Y0160156D01*
X0042990Y0160120D01*
X0043143Y0160081D01*
X0043295Y0160038D01*
X0043446Y0159991D01*
X0043596Y0159940D01*
X0043745Y0159885D01*
X0043892Y0159827D01*
X0044038Y0159765D01*
X0044182Y0159700D01*
X0044324Y0159630D01*
X0044465Y0159558D01*
X0044604Y0159481D01*
X0044740Y0159402D01*
X0044875Y0159318D01*
X0045008Y0159232D01*
X0045138Y0159142D01*
X0045266Y0159049D01*
X0045392Y0158953D01*
X0045515Y0158853D01*
X0045636Y0158751D01*
X0045754Y0158646D01*
X0045869Y0158537D01*
X0045982Y0158426D01*
X0046092Y0158312D01*
X0046199Y0158195D01*
X0046303Y0158076D01*
X0046404Y0157954D01*
X0046501Y0157829D01*
X0046596Y0157702D01*
X0046687Y0157573D01*
X0046776Y0157442D01*
X0046860Y0157308D01*
X0046942Y0157172D01*
X0047020Y0157035D01*
X0047094Y0156895D01*
X0047165Y0156753D01*
X0047233Y0156610D01*
X0047297Y0156465D01*
X0047357Y0156319D01*
X0047413Y0156171D01*
X0047466Y0156022D01*
X0047515Y0155871D01*
X0047560Y0155719D01*
X0047601Y0155566D01*
X0047639Y0155413D01*
X0047672Y0155258D01*
X0047702Y0155102D01*
X0047728Y0154946D01*
X0047749Y0154789D01*
X0047767Y0154632D01*
X0047781Y0154474D01*
X0047791Y0154316D01*
X0047797Y0154158D01*
X0047799Y0154000D01*
X0047797Y0153842D01*
X0047791Y0153684D01*
X0047781Y0153526D01*
X0047767Y0153368D01*
X0047749Y0153211D01*
X0047728Y0153054D01*
X0047702Y0152898D01*
X0047672Y0152742D01*
X0047639Y0152587D01*
X0047601Y0152434D01*
X0047560Y0152281D01*
X0047515Y0152129D01*
X0047466Y0151978D01*
X0047413Y0151829D01*
X0047357Y0151681D01*
X0047297Y0151535D01*
X0047233Y0151390D01*
X0047165Y0151247D01*
X0047094Y0151105D01*
X0047020Y0150965D01*
X0046942Y0150828D01*
X0046860Y0150692D01*
X0046776Y0150558D01*
X0046687Y0150427D01*
X0046596Y0150298D01*
X0046501Y0150171D01*
X0046404Y0150046D01*
X0046303Y0149924D01*
X0046199Y0149805D01*
X0046092Y0149688D01*
X0045982Y0149574D01*
X0045869Y0149463D01*
X0045754Y0149354D01*
X0045636Y0149249D01*
X0045515Y0149147D01*
X0045392Y0149047D01*
X0045266Y0148951D01*
X0045138Y0148858D01*
X0045008Y0148768D01*
X0044875Y0148682D01*
X0044740Y0148598D01*
X0044604Y0148519D01*
X0044465Y0148442D01*
X0044324Y0148370D01*
X0044182Y0148300D01*
X0044038Y0148235D01*
X0043892Y0148173D01*
X0043745Y0148115D01*
X0043596Y0148060D01*
X0043446Y0148009D01*
X0043295Y0147962D01*
X0043143Y0147919D01*
X0042990Y0147880D01*
X0042835Y0147844D01*
X0042680Y0147813D01*
X0042524Y0147785D01*
X0042368Y0147761D01*
X0042211Y0147741D01*
X0042053Y0147725D01*
X0041896Y0147713D01*
X0041737Y0147705D01*
X0041579Y0147701D01*
X0041421Y0147701D01*
X0041263Y0147705D01*
X0041104Y0147713D01*
X0040947Y0147725D01*
X0040789Y0147741D01*
X0040632Y0147761D01*
X0040476Y0147785D01*
X0040320Y0147813D01*
X0040165Y0147844D01*
X0040010Y0147880D01*
X0039857Y0147919D01*
X0039705Y0147962D01*
X0039554Y0148009D01*
X0039404Y0148060D01*
X0039255Y0148115D01*
X0039108Y0148173D01*
X0038962Y0148235D01*
X0038818Y0148300D01*
X0038676Y0148370D01*
X0038535Y0148442D01*
X0038396Y0148519D01*
X0038260Y0148598D01*
X0038125Y0148682D01*
X0037992Y0148768D01*
X0037862Y0148858D01*
X0037734Y0148951D01*
X0037608Y0149047D01*
X0037485Y0149147D01*
X0037364Y0149249D01*
X0037246Y0149354D01*
X0037131Y0149463D01*
X0037018Y0149574D01*
X0036908Y0149688D01*
X0036801Y0149805D01*
X0036697Y0149924D01*
X0036596Y0150046D01*
X0036499Y0150171D01*
X0036404Y0150298D01*
X0036313Y0150427D01*
X0036224Y0150558D01*
X0036140Y0150692D01*
X0036058Y0150828D01*
X0035980Y0150965D01*
X0035906Y0151105D01*
X0035835Y0151247D01*
X0035767Y0151390D01*
X0035703Y0151535D01*
X0035643Y0151681D01*
X0035587Y0151829D01*
X0035534Y0151978D01*
X0035485Y0152129D01*
X0035440Y0152281D01*
X0035399Y0152434D01*
X0035361Y0152587D01*
X0035328Y0152742D01*
X0035298Y0152898D01*
X0035272Y0153054D01*
X0035251Y0153211D01*
X0035233Y0153368D01*
X0035219Y0153526D01*
X0035209Y0153684D01*
X0035203Y0153842D01*
X0035201Y0154000D01*
M02*
