G75*
%MOIN*%
%OFA0B0*%
%FSLAX25Y25*%
%IPPOS*%
%LPD*%
%AMOC8*
5,1,8,0,0,1.08239X$1,22.5*
%
%ADD10C,0.00000*%
%ADD11C,0.00300*%
%ADD12C,0.00400*%
%ADD13C,0.00600*%
%ADD14C,0.00800*%
%ADD15R,0.02400X0.03400*%
D10*
X0021500Y0004000D02*
X0021500Y0173961D01*
X0192701Y0173961D01*
X0192701Y0004000D01*
X0021500Y0004000D01*
X0035201Y0024000D02*
X0035203Y0024158D01*
X0035209Y0024316D01*
X0035219Y0024474D01*
X0035233Y0024632D01*
X0035251Y0024789D01*
X0035272Y0024946D01*
X0035298Y0025102D01*
X0035328Y0025258D01*
X0035361Y0025413D01*
X0035399Y0025566D01*
X0035440Y0025719D01*
X0035485Y0025871D01*
X0035534Y0026022D01*
X0035587Y0026171D01*
X0035643Y0026319D01*
X0035703Y0026465D01*
X0035767Y0026610D01*
X0035835Y0026753D01*
X0035906Y0026895D01*
X0035980Y0027035D01*
X0036058Y0027172D01*
X0036140Y0027308D01*
X0036224Y0027442D01*
X0036313Y0027573D01*
X0036404Y0027702D01*
X0036499Y0027829D01*
X0036596Y0027954D01*
X0036697Y0028076D01*
X0036801Y0028195D01*
X0036908Y0028312D01*
X0037018Y0028426D01*
X0037131Y0028537D01*
X0037246Y0028646D01*
X0037364Y0028751D01*
X0037485Y0028853D01*
X0037608Y0028953D01*
X0037734Y0029049D01*
X0037862Y0029142D01*
X0037992Y0029232D01*
X0038125Y0029318D01*
X0038260Y0029402D01*
X0038396Y0029481D01*
X0038535Y0029558D01*
X0038676Y0029630D01*
X0038818Y0029700D01*
X0038962Y0029765D01*
X0039108Y0029827D01*
X0039255Y0029885D01*
X0039404Y0029940D01*
X0039554Y0029991D01*
X0039705Y0030038D01*
X0039857Y0030081D01*
X0040010Y0030120D01*
X0040165Y0030156D01*
X0040320Y0030187D01*
X0040476Y0030215D01*
X0040632Y0030239D01*
X0040789Y0030259D01*
X0040947Y0030275D01*
X0041104Y0030287D01*
X0041263Y0030295D01*
X0041421Y0030299D01*
X0041579Y0030299D01*
X0041737Y0030295D01*
X0041896Y0030287D01*
X0042053Y0030275D01*
X0042211Y0030259D01*
X0042368Y0030239D01*
X0042524Y0030215D01*
X0042680Y0030187D01*
X0042835Y0030156D01*
X0042990Y0030120D01*
X0043143Y0030081D01*
X0043295Y0030038D01*
X0043446Y0029991D01*
X0043596Y0029940D01*
X0043745Y0029885D01*
X0043892Y0029827D01*
X0044038Y0029765D01*
X0044182Y0029700D01*
X0044324Y0029630D01*
X0044465Y0029558D01*
X0044604Y0029481D01*
X0044740Y0029402D01*
X0044875Y0029318D01*
X0045008Y0029232D01*
X0045138Y0029142D01*
X0045266Y0029049D01*
X0045392Y0028953D01*
X0045515Y0028853D01*
X0045636Y0028751D01*
X0045754Y0028646D01*
X0045869Y0028537D01*
X0045982Y0028426D01*
X0046092Y0028312D01*
X0046199Y0028195D01*
X0046303Y0028076D01*
X0046404Y0027954D01*
X0046501Y0027829D01*
X0046596Y0027702D01*
X0046687Y0027573D01*
X0046776Y0027442D01*
X0046860Y0027308D01*
X0046942Y0027172D01*
X0047020Y0027035D01*
X0047094Y0026895D01*
X0047165Y0026753D01*
X0047233Y0026610D01*
X0047297Y0026465D01*
X0047357Y0026319D01*
X0047413Y0026171D01*
X0047466Y0026022D01*
X0047515Y0025871D01*
X0047560Y0025719D01*
X0047601Y0025566D01*
X0047639Y0025413D01*
X0047672Y0025258D01*
X0047702Y0025102D01*
X0047728Y0024946D01*
X0047749Y0024789D01*
X0047767Y0024632D01*
X0047781Y0024474D01*
X0047791Y0024316D01*
X0047797Y0024158D01*
X0047799Y0024000D01*
X0047797Y0023842D01*
X0047791Y0023684D01*
X0047781Y0023526D01*
X0047767Y0023368D01*
X0047749Y0023211D01*
X0047728Y0023054D01*
X0047702Y0022898D01*
X0047672Y0022742D01*
X0047639Y0022587D01*
X0047601Y0022434D01*
X0047560Y0022281D01*
X0047515Y0022129D01*
X0047466Y0021978D01*
X0047413Y0021829D01*
X0047357Y0021681D01*
X0047297Y0021535D01*
X0047233Y0021390D01*
X0047165Y0021247D01*
X0047094Y0021105D01*
X0047020Y0020965D01*
X0046942Y0020828D01*
X0046860Y0020692D01*
X0046776Y0020558D01*
X0046687Y0020427D01*
X0046596Y0020298D01*
X0046501Y0020171D01*
X0046404Y0020046D01*
X0046303Y0019924D01*
X0046199Y0019805D01*
X0046092Y0019688D01*
X0045982Y0019574D01*
X0045869Y0019463D01*
X0045754Y0019354D01*
X0045636Y0019249D01*
X0045515Y0019147D01*
X0045392Y0019047D01*
X0045266Y0018951D01*
X0045138Y0018858D01*
X0045008Y0018768D01*
X0044875Y0018682D01*
X0044740Y0018598D01*
X0044604Y0018519D01*
X0044465Y0018442D01*
X0044324Y0018370D01*
X0044182Y0018300D01*
X0044038Y0018235D01*
X0043892Y0018173D01*
X0043745Y0018115D01*
X0043596Y0018060D01*
X0043446Y0018009D01*
X0043295Y0017962D01*
X0043143Y0017919D01*
X0042990Y0017880D01*
X0042835Y0017844D01*
X0042680Y0017813D01*
X0042524Y0017785D01*
X0042368Y0017761D01*
X0042211Y0017741D01*
X0042053Y0017725D01*
X0041896Y0017713D01*
X0041737Y0017705D01*
X0041579Y0017701D01*
X0041421Y0017701D01*
X0041263Y0017705D01*
X0041104Y0017713D01*
X0040947Y0017725D01*
X0040789Y0017741D01*
X0040632Y0017761D01*
X0040476Y0017785D01*
X0040320Y0017813D01*
X0040165Y0017844D01*
X0040010Y0017880D01*
X0039857Y0017919D01*
X0039705Y0017962D01*
X0039554Y0018009D01*
X0039404Y0018060D01*
X0039255Y0018115D01*
X0039108Y0018173D01*
X0038962Y0018235D01*
X0038818Y0018300D01*
X0038676Y0018370D01*
X0038535Y0018442D01*
X0038396Y0018519D01*
X0038260Y0018598D01*
X0038125Y0018682D01*
X0037992Y0018768D01*
X0037862Y0018858D01*
X0037734Y0018951D01*
X0037608Y0019047D01*
X0037485Y0019147D01*
X0037364Y0019249D01*
X0037246Y0019354D01*
X0037131Y0019463D01*
X0037018Y0019574D01*
X0036908Y0019688D01*
X0036801Y0019805D01*
X0036697Y0019924D01*
X0036596Y0020046D01*
X0036499Y0020171D01*
X0036404Y0020298D01*
X0036313Y0020427D01*
X0036224Y0020558D01*
X0036140Y0020692D01*
X0036058Y0020828D01*
X0035980Y0020965D01*
X0035906Y0021105D01*
X0035835Y0021247D01*
X0035767Y0021390D01*
X0035703Y0021535D01*
X0035643Y0021681D01*
X0035587Y0021829D01*
X0035534Y0021978D01*
X0035485Y0022129D01*
X0035440Y0022281D01*
X0035399Y0022434D01*
X0035361Y0022587D01*
X0035328Y0022742D01*
X0035298Y0022898D01*
X0035272Y0023054D01*
X0035251Y0023211D01*
X0035233Y0023368D01*
X0035219Y0023526D01*
X0035209Y0023684D01*
X0035203Y0023842D01*
X0035201Y0024000D01*
X0167701Y0024000D02*
X0167703Y0024158D01*
X0167709Y0024316D01*
X0167719Y0024474D01*
X0167733Y0024632D01*
X0167751Y0024789D01*
X0167772Y0024946D01*
X0167798Y0025102D01*
X0167828Y0025258D01*
X0167861Y0025413D01*
X0167899Y0025566D01*
X0167940Y0025719D01*
X0167985Y0025871D01*
X0168034Y0026022D01*
X0168087Y0026171D01*
X0168143Y0026319D01*
X0168203Y0026465D01*
X0168267Y0026610D01*
X0168335Y0026753D01*
X0168406Y0026895D01*
X0168480Y0027035D01*
X0168558Y0027172D01*
X0168640Y0027308D01*
X0168724Y0027442D01*
X0168813Y0027573D01*
X0168904Y0027702D01*
X0168999Y0027829D01*
X0169096Y0027954D01*
X0169197Y0028076D01*
X0169301Y0028195D01*
X0169408Y0028312D01*
X0169518Y0028426D01*
X0169631Y0028537D01*
X0169746Y0028646D01*
X0169864Y0028751D01*
X0169985Y0028853D01*
X0170108Y0028953D01*
X0170234Y0029049D01*
X0170362Y0029142D01*
X0170492Y0029232D01*
X0170625Y0029318D01*
X0170760Y0029402D01*
X0170896Y0029481D01*
X0171035Y0029558D01*
X0171176Y0029630D01*
X0171318Y0029700D01*
X0171462Y0029765D01*
X0171608Y0029827D01*
X0171755Y0029885D01*
X0171904Y0029940D01*
X0172054Y0029991D01*
X0172205Y0030038D01*
X0172357Y0030081D01*
X0172510Y0030120D01*
X0172665Y0030156D01*
X0172820Y0030187D01*
X0172976Y0030215D01*
X0173132Y0030239D01*
X0173289Y0030259D01*
X0173447Y0030275D01*
X0173604Y0030287D01*
X0173763Y0030295D01*
X0173921Y0030299D01*
X0174079Y0030299D01*
X0174237Y0030295D01*
X0174396Y0030287D01*
X0174553Y0030275D01*
X0174711Y0030259D01*
X0174868Y0030239D01*
X0175024Y0030215D01*
X0175180Y0030187D01*
X0175335Y0030156D01*
X0175490Y0030120D01*
X0175643Y0030081D01*
X0175795Y0030038D01*
X0175946Y0029991D01*
X0176096Y0029940D01*
X0176245Y0029885D01*
X0176392Y0029827D01*
X0176538Y0029765D01*
X0176682Y0029700D01*
X0176824Y0029630D01*
X0176965Y0029558D01*
X0177104Y0029481D01*
X0177240Y0029402D01*
X0177375Y0029318D01*
X0177508Y0029232D01*
X0177638Y0029142D01*
X0177766Y0029049D01*
X0177892Y0028953D01*
X0178015Y0028853D01*
X0178136Y0028751D01*
X0178254Y0028646D01*
X0178369Y0028537D01*
X0178482Y0028426D01*
X0178592Y0028312D01*
X0178699Y0028195D01*
X0178803Y0028076D01*
X0178904Y0027954D01*
X0179001Y0027829D01*
X0179096Y0027702D01*
X0179187Y0027573D01*
X0179276Y0027442D01*
X0179360Y0027308D01*
X0179442Y0027172D01*
X0179520Y0027035D01*
X0179594Y0026895D01*
X0179665Y0026753D01*
X0179733Y0026610D01*
X0179797Y0026465D01*
X0179857Y0026319D01*
X0179913Y0026171D01*
X0179966Y0026022D01*
X0180015Y0025871D01*
X0180060Y0025719D01*
X0180101Y0025566D01*
X0180139Y0025413D01*
X0180172Y0025258D01*
X0180202Y0025102D01*
X0180228Y0024946D01*
X0180249Y0024789D01*
X0180267Y0024632D01*
X0180281Y0024474D01*
X0180291Y0024316D01*
X0180297Y0024158D01*
X0180299Y0024000D01*
X0180297Y0023842D01*
X0180291Y0023684D01*
X0180281Y0023526D01*
X0180267Y0023368D01*
X0180249Y0023211D01*
X0180228Y0023054D01*
X0180202Y0022898D01*
X0180172Y0022742D01*
X0180139Y0022587D01*
X0180101Y0022434D01*
X0180060Y0022281D01*
X0180015Y0022129D01*
X0179966Y0021978D01*
X0179913Y0021829D01*
X0179857Y0021681D01*
X0179797Y0021535D01*
X0179733Y0021390D01*
X0179665Y0021247D01*
X0179594Y0021105D01*
X0179520Y0020965D01*
X0179442Y0020828D01*
X0179360Y0020692D01*
X0179276Y0020558D01*
X0179187Y0020427D01*
X0179096Y0020298D01*
X0179001Y0020171D01*
X0178904Y0020046D01*
X0178803Y0019924D01*
X0178699Y0019805D01*
X0178592Y0019688D01*
X0178482Y0019574D01*
X0178369Y0019463D01*
X0178254Y0019354D01*
X0178136Y0019249D01*
X0178015Y0019147D01*
X0177892Y0019047D01*
X0177766Y0018951D01*
X0177638Y0018858D01*
X0177508Y0018768D01*
X0177375Y0018682D01*
X0177240Y0018598D01*
X0177104Y0018519D01*
X0176965Y0018442D01*
X0176824Y0018370D01*
X0176682Y0018300D01*
X0176538Y0018235D01*
X0176392Y0018173D01*
X0176245Y0018115D01*
X0176096Y0018060D01*
X0175946Y0018009D01*
X0175795Y0017962D01*
X0175643Y0017919D01*
X0175490Y0017880D01*
X0175335Y0017844D01*
X0175180Y0017813D01*
X0175024Y0017785D01*
X0174868Y0017761D01*
X0174711Y0017741D01*
X0174553Y0017725D01*
X0174396Y0017713D01*
X0174237Y0017705D01*
X0174079Y0017701D01*
X0173921Y0017701D01*
X0173763Y0017705D01*
X0173604Y0017713D01*
X0173447Y0017725D01*
X0173289Y0017741D01*
X0173132Y0017761D01*
X0172976Y0017785D01*
X0172820Y0017813D01*
X0172665Y0017844D01*
X0172510Y0017880D01*
X0172357Y0017919D01*
X0172205Y0017962D01*
X0172054Y0018009D01*
X0171904Y0018060D01*
X0171755Y0018115D01*
X0171608Y0018173D01*
X0171462Y0018235D01*
X0171318Y0018300D01*
X0171176Y0018370D01*
X0171035Y0018442D01*
X0170896Y0018519D01*
X0170760Y0018598D01*
X0170625Y0018682D01*
X0170492Y0018768D01*
X0170362Y0018858D01*
X0170234Y0018951D01*
X0170108Y0019047D01*
X0169985Y0019147D01*
X0169864Y0019249D01*
X0169746Y0019354D01*
X0169631Y0019463D01*
X0169518Y0019574D01*
X0169408Y0019688D01*
X0169301Y0019805D01*
X0169197Y0019924D01*
X0169096Y0020046D01*
X0168999Y0020171D01*
X0168904Y0020298D01*
X0168813Y0020427D01*
X0168724Y0020558D01*
X0168640Y0020692D01*
X0168558Y0020828D01*
X0168480Y0020965D01*
X0168406Y0021105D01*
X0168335Y0021247D01*
X0168267Y0021390D01*
X0168203Y0021535D01*
X0168143Y0021681D01*
X0168087Y0021829D01*
X0168034Y0021978D01*
X0167985Y0022129D01*
X0167940Y0022281D01*
X0167899Y0022434D01*
X0167861Y0022587D01*
X0167828Y0022742D01*
X0167798Y0022898D01*
X0167772Y0023054D01*
X0167751Y0023211D01*
X0167733Y0023368D01*
X0167719Y0023526D01*
X0167709Y0023684D01*
X0167703Y0023842D01*
X0167701Y0024000D01*
X0167701Y0154000D02*
X0167703Y0154158D01*
X0167709Y0154316D01*
X0167719Y0154474D01*
X0167733Y0154632D01*
X0167751Y0154789D01*
X0167772Y0154946D01*
X0167798Y0155102D01*
X0167828Y0155258D01*
X0167861Y0155413D01*
X0167899Y0155566D01*
X0167940Y0155719D01*
X0167985Y0155871D01*
X0168034Y0156022D01*
X0168087Y0156171D01*
X0168143Y0156319D01*
X0168203Y0156465D01*
X0168267Y0156610D01*
X0168335Y0156753D01*
X0168406Y0156895D01*
X0168480Y0157035D01*
X0168558Y0157172D01*
X0168640Y0157308D01*
X0168724Y0157442D01*
X0168813Y0157573D01*
X0168904Y0157702D01*
X0168999Y0157829D01*
X0169096Y0157954D01*
X0169197Y0158076D01*
X0169301Y0158195D01*
X0169408Y0158312D01*
X0169518Y0158426D01*
X0169631Y0158537D01*
X0169746Y0158646D01*
X0169864Y0158751D01*
X0169985Y0158853D01*
X0170108Y0158953D01*
X0170234Y0159049D01*
X0170362Y0159142D01*
X0170492Y0159232D01*
X0170625Y0159318D01*
X0170760Y0159402D01*
X0170896Y0159481D01*
X0171035Y0159558D01*
X0171176Y0159630D01*
X0171318Y0159700D01*
X0171462Y0159765D01*
X0171608Y0159827D01*
X0171755Y0159885D01*
X0171904Y0159940D01*
X0172054Y0159991D01*
X0172205Y0160038D01*
X0172357Y0160081D01*
X0172510Y0160120D01*
X0172665Y0160156D01*
X0172820Y0160187D01*
X0172976Y0160215D01*
X0173132Y0160239D01*
X0173289Y0160259D01*
X0173447Y0160275D01*
X0173604Y0160287D01*
X0173763Y0160295D01*
X0173921Y0160299D01*
X0174079Y0160299D01*
X0174237Y0160295D01*
X0174396Y0160287D01*
X0174553Y0160275D01*
X0174711Y0160259D01*
X0174868Y0160239D01*
X0175024Y0160215D01*
X0175180Y0160187D01*
X0175335Y0160156D01*
X0175490Y0160120D01*
X0175643Y0160081D01*
X0175795Y0160038D01*
X0175946Y0159991D01*
X0176096Y0159940D01*
X0176245Y0159885D01*
X0176392Y0159827D01*
X0176538Y0159765D01*
X0176682Y0159700D01*
X0176824Y0159630D01*
X0176965Y0159558D01*
X0177104Y0159481D01*
X0177240Y0159402D01*
X0177375Y0159318D01*
X0177508Y0159232D01*
X0177638Y0159142D01*
X0177766Y0159049D01*
X0177892Y0158953D01*
X0178015Y0158853D01*
X0178136Y0158751D01*
X0178254Y0158646D01*
X0178369Y0158537D01*
X0178482Y0158426D01*
X0178592Y0158312D01*
X0178699Y0158195D01*
X0178803Y0158076D01*
X0178904Y0157954D01*
X0179001Y0157829D01*
X0179096Y0157702D01*
X0179187Y0157573D01*
X0179276Y0157442D01*
X0179360Y0157308D01*
X0179442Y0157172D01*
X0179520Y0157035D01*
X0179594Y0156895D01*
X0179665Y0156753D01*
X0179733Y0156610D01*
X0179797Y0156465D01*
X0179857Y0156319D01*
X0179913Y0156171D01*
X0179966Y0156022D01*
X0180015Y0155871D01*
X0180060Y0155719D01*
X0180101Y0155566D01*
X0180139Y0155413D01*
X0180172Y0155258D01*
X0180202Y0155102D01*
X0180228Y0154946D01*
X0180249Y0154789D01*
X0180267Y0154632D01*
X0180281Y0154474D01*
X0180291Y0154316D01*
X0180297Y0154158D01*
X0180299Y0154000D01*
X0180297Y0153842D01*
X0180291Y0153684D01*
X0180281Y0153526D01*
X0180267Y0153368D01*
X0180249Y0153211D01*
X0180228Y0153054D01*
X0180202Y0152898D01*
X0180172Y0152742D01*
X0180139Y0152587D01*
X0180101Y0152434D01*
X0180060Y0152281D01*
X0180015Y0152129D01*
X0179966Y0151978D01*
X0179913Y0151829D01*
X0179857Y0151681D01*
X0179797Y0151535D01*
X0179733Y0151390D01*
X0179665Y0151247D01*
X0179594Y0151105D01*
X0179520Y0150965D01*
X0179442Y0150828D01*
X0179360Y0150692D01*
X0179276Y0150558D01*
X0179187Y0150427D01*
X0179096Y0150298D01*
X0179001Y0150171D01*
X0178904Y0150046D01*
X0178803Y0149924D01*
X0178699Y0149805D01*
X0178592Y0149688D01*
X0178482Y0149574D01*
X0178369Y0149463D01*
X0178254Y0149354D01*
X0178136Y0149249D01*
X0178015Y0149147D01*
X0177892Y0149047D01*
X0177766Y0148951D01*
X0177638Y0148858D01*
X0177508Y0148768D01*
X0177375Y0148682D01*
X0177240Y0148598D01*
X0177104Y0148519D01*
X0176965Y0148442D01*
X0176824Y0148370D01*
X0176682Y0148300D01*
X0176538Y0148235D01*
X0176392Y0148173D01*
X0176245Y0148115D01*
X0176096Y0148060D01*
X0175946Y0148009D01*
X0175795Y0147962D01*
X0175643Y0147919D01*
X0175490Y0147880D01*
X0175335Y0147844D01*
X0175180Y0147813D01*
X0175024Y0147785D01*
X0174868Y0147761D01*
X0174711Y0147741D01*
X0174553Y0147725D01*
X0174396Y0147713D01*
X0174237Y0147705D01*
X0174079Y0147701D01*
X0173921Y0147701D01*
X0173763Y0147705D01*
X0173604Y0147713D01*
X0173447Y0147725D01*
X0173289Y0147741D01*
X0173132Y0147761D01*
X0172976Y0147785D01*
X0172820Y0147813D01*
X0172665Y0147844D01*
X0172510Y0147880D01*
X0172357Y0147919D01*
X0172205Y0147962D01*
X0172054Y0148009D01*
X0171904Y0148060D01*
X0171755Y0148115D01*
X0171608Y0148173D01*
X0171462Y0148235D01*
X0171318Y0148300D01*
X0171176Y0148370D01*
X0171035Y0148442D01*
X0170896Y0148519D01*
X0170760Y0148598D01*
X0170625Y0148682D01*
X0170492Y0148768D01*
X0170362Y0148858D01*
X0170234Y0148951D01*
X0170108Y0149047D01*
X0169985Y0149147D01*
X0169864Y0149249D01*
X0169746Y0149354D01*
X0169631Y0149463D01*
X0169518Y0149574D01*
X0169408Y0149688D01*
X0169301Y0149805D01*
X0169197Y0149924D01*
X0169096Y0150046D01*
X0168999Y0150171D01*
X0168904Y0150298D01*
X0168813Y0150427D01*
X0168724Y0150558D01*
X0168640Y0150692D01*
X0168558Y0150828D01*
X0168480Y0150965D01*
X0168406Y0151105D01*
X0168335Y0151247D01*
X0168267Y0151390D01*
X0168203Y0151535D01*
X0168143Y0151681D01*
X0168087Y0151829D01*
X0168034Y0151978D01*
X0167985Y0152129D01*
X0167940Y0152281D01*
X0167899Y0152434D01*
X0167861Y0152587D01*
X0167828Y0152742D01*
X0167798Y0152898D01*
X0167772Y0153054D01*
X0167751Y0153211D01*
X0167733Y0153368D01*
X0167719Y0153526D01*
X0167709Y0153684D01*
X0167703Y0153842D01*
X0167701Y0154000D01*
X0035201Y0154000D02*
X0035203Y0154158D01*
X0035209Y0154316D01*
X0035219Y0154474D01*
X0035233Y0154632D01*
X0035251Y0154789D01*
X0035272Y0154946D01*
X0035298Y0155102D01*
X0035328Y0155258D01*
X0035361Y0155413D01*
X0035399Y0155566D01*
X0035440Y0155719D01*
X0035485Y0155871D01*
X0035534Y0156022D01*
X0035587Y0156171D01*
X0035643Y0156319D01*
X0035703Y0156465D01*
X0035767Y0156610D01*
X0035835Y0156753D01*
X0035906Y0156895D01*
X0035980Y0157035D01*
X0036058Y0157172D01*
X0036140Y0157308D01*
X0036224Y0157442D01*
X0036313Y0157573D01*
X0036404Y0157702D01*
X0036499Y0157829D01*
X0036596Y0157954D01*
X0036697Y0158076D01*
X0036801Y0158195D01*
X0036908Y0158312D01*
X0037018Y0158426D01*
X0037131Y0158537D01*
X0037246Y0158646D01*
X0037364Y0158751D01*
X0037485Y0158853D01*
X0037608Y0158953D01*
X0037734Y0159049D01*
X0037862Y0159142D01*
X0037992Y0159232D01*
X0038125Y0159318D01*
X0038260Y0159402D01*
X0038396Y0159481D01*
X0038535Y0159558D01*
X0038676Y0159630D01*
X0038818Y0159700D01*
X0038962Y0159765D01*
X0039108Y0159827D01*
X0039255Y0159885D01*
X0039404Y0159940D01*
X0039554Y0159991D01*
X0039705Y0160038D01*
X0039857Y0160081D01*
X0040010Y0160120D01*
X0040165Y0160156D01*
X0040320Y0160187D01*
X0040476Y0160215D01*
X0040632Y0160239D01*
X0040789Y0160259D01*
X0040947Y0160275D01*
X0041104Y0160287D01*
X0041263Y0160295D01*
X0041421Y0160299D01*
X0041579Y0160299D01*
X0041737Y0160295D01*
X0041896Y0160287D01*
X0042053Y0160275D01*
X0042211Y0160259D01*
X0042368Y0160239D01*
X0042524Y0160215D01*
X0042680Y0160187D01*
X0042835Y0160156D01*
X0042990Y0160120D01*
X0043143Y0160081D01*
X0043295Y0160038D01*
X0043446Y0159991D01*
X0043596Y0159940D01*
X0043745Y0159885D01*
X0043892Y0159827D01*
X0044038Y0159765D01*
X0044182Y0159700D01*
X0044324Y0159630D01*
X0044465Y0159558D01*
X0044604Y0159481D01*
X0044740Y0159402D01*
X0044875Y0159318D01*
X0045008Y0159232D01*
X0045138Y0159142D01*
X0045266Y0159049D01*
X0045392Y0158953D01*
X0045515Y0158853D01*
X0045636Y0158751D01*
X0045754Y0158646D01*
X0045869Y0158537D01*
X0045982Y0158426D01*
X0046092Y0158312D01*
X0046199Y0158195D01*
X0046303Y0158076D01*
X0046404Y0157954D01*
X0046501Y0157829D01*
X0046596Y0157702D01*
X0046687Y0157573D01*
X0046776Y0157442D01*
X0046860Y0157308D01*
X0046942Y0157172D01*
X0047020Y0157035D01*
X0047094Y0156895D01*
X0047165Y0156753D01*
X0047233Y0156610D01*
X0047297Y0156465D01*
X0047357Y0156319D01*
X0047413Y0156171D01*
X0047466Y0156022D01*
X0047515Y0155871D01*
X0047560Y0155719D01*
X0047601Y0155566D01*
X0047639Y0155413D01*
X0047672Y0155258D01*
X0047702Y0155102D01*
X0047728Y0154946D01*
X0047749Y0154789D01*
X0047767Y0154632D01*
X0047781Y0154474D01*
X0047791Y0154316D01*
X0047797Y0154158D01*
X0047799Y0154000D01*
X0047797Y0153842D01*
X0047791Y0153684D01*
X0047781Y0153526D01*
X0047767Y0153368D01*
X0047749Y0153211D01*
X0047728Y0153054D01*
X0047702Y0152898D01*
X0047672Y0152742D01*
X0047639Y0152587D01*
X0047601Y0152434D01*
X0047560Y0152281D01*
X0047515Y0152129D01*
X0047466Y0151978D01*
X0047413Y0151829D01*
X0047357Y0151681D01*
X0047297Y0151535D01*
X0047233Y0151390D01*
X0047165Y0151247D01*
X0047094Y0151105D01*
X0047020Y0150965D01*
X0046942Y0150828D01*
X0046860Y0150692D01*
X0046776Y0150558D01*
X0046687Y0150427D01*
X0046596Y0150298D01*
X0046501Y0150171D01*
X0046404Y0150046D01*
X0046303Y0149924D01*
X0046199Y0149805D01*
X0046092Y0149688D01*
X0045982Y0149574D01*
X0045869Y0149463D01*
X0045754Y0149354D01*
X0045636Y0149249D01*
X0045515Y0149147D01*
X0045392Y0149047D01*
X0045266Y0148951D01*
X0045138Y0148858D01*
X0045008Y0148768D01*
X0044875Y0148682D01*
X0044740Y0148598D01*
X0044604Y0148519D01*
X0044465Y0148442D01*
X0044324Y0148370D01*
X0044182Y0148300D01*
X0044038Y0148235D01*
X0043892Y0148173D01*
X0043745Y0148115D01*
X0043596Y0148060D01*
X0043446Y0148009D01*
X0043295Y0147962D01*
X0043143Y0147919D01*
X0042990Y0147880D01*
X0042835Y0147844D01*
X0042680Y0147813D01*
X0042524Y0147785D01*
X0042368Y0147761D01*
X0042211Y0147741D01*
X0042053Y0147725D01*
X0041896Y0147713D01*
X0041737Y0147705D01*
X0041579Y0147701D01*
X0041421Y0147701D01*
X0041263Y0147705D01*
X0041104Y0147713D01*
X0040947Y0147725D01*
X0040789Y0147741D01*
X0040632Y0147761D01*
X0040476Y0147785D01*
X0040320Y0147813D01*
X0040165Y0147844D01*
X0040010Y0147880D01*
X0039857Y0147919D01*
X0039705Y0147962D01*
X0039554Y0148009D01*
X0039404Y0148060D01*
X0039255Y0148115D01*
X0039108Y0148173D01*
X0038962Y0148235D01*
X0038818Y0148300D01*
X0038676Y0148370D01*
X0038535Y0148442D01*
X0038396Y0148519D01*
X0038260Y0148598D01*
X0038125Y0148682D01*
X0037992Y0148768D01*
X0037862Y0148858D01*
X0037734Y0148951D01*
X0037608Y0149047D01*
X0037485Y0149147D01*
X0037364Y0149249D01*
X0037246Y0149354D01*
X0037131Y0149463D01*
X0037018Y0149574D01*
X0036908Y0149688D01*
X0036801Y0149805D01*
X0036697Y0149924D01*
X0036596Y0150046D01*
X0036499Y0150171D01*
X0036404Y0150298D01*
X0036313Y0150427D01*
X0036224Y0150558D01*
X0036140Y0150692D01*
X0036058Y0150828D01*
X0035980Y0150965D01*
X0035906Y0151105D01*
X0035835Y0151247D01*
X0035767Y0151390D01*
X0035703Y0151535D01*
X0035643Y0151681D01*
X0035587Y0151829D01*
X0035534Y0151978D01*
X0035485Y0152129D01*
X0035440Y0152281D01*
X0035399Y0152434D01*
X0035361Y0152587D01*
X0035328Y0152742D01*
X0035298Y0152898D01*
X0035272Y0153054D01*
X0035251Y0153211D01*
X0035233Y0153368D01*
X0035219Y0153526D01*
X0035209Y0153684D01*
X0035203Y0153842D01*
X0035201Y0154000D01*
D11*
X0035467Y0128853D02*
X0037318Y0128853D01*
X0037936Y0128236D01*
X0037936Y0127002D01*
X0037318Y0126384D01*
X0035467Y0126384D01*
X0035467Y0125150D02*
X0035467Y0128853D01*
X0034252Y0128853D02*
X0034252Y0125767D01*
X0033635Y0125150D01*
X0032401Y0125150D01*
X0031784Y0125767D01*
X0031784Y0128853D01*
X0030569Y0128236D02*
X0030569Y0127002D01*
X0029952Y0126384D01*
X0028101Y0126384D01*
X0028101Y0125150D02*
X0028101Y0128853D01*
X0029952Y0128853D01*
X0030569Y0128236D01*
X0029952Y0122853D02*
X0028718Y0122853D01*
X0028101Y0122236D01*
X0028101Y0121619D01*
X0028718Y0121002D01*
X0029952Y0121002D01*
X0030569Y0120384D01*
X0030569Y0119767D01*
X0029952Y0119150D01*
X0028718Y0119150D01*
X0028101Y0119767D01*
X0030569Y0122236D02*
X0029952Y0122853D01*
X0031784Y0122236D02*
X0031784Y0119767D01*
X0032401Y0119150D01*
X0033635Y0119150D01*
X0034252Y0119767D01*
X0035467Y0119150D02*
X0037936Y0119150D01*
X0035467Y0119150D02*
X0035467Y0122853D01*
X0034252Y0122236D02*
X0033635Y0122853D01*
X0032401Y0122853D01*
X0031784Y0122236D01*
X0036701Y0126384D02*
X0037936Y0125150D01*
X0057147Y0111298D02*
X0060850Y0111298D01*
X0059616Y0111298D02*
X0058381Y0113150D01*
X0059616Y0111298D02*
X0060850Y0113150D01*
X0060233Y0110084D02*
X0057764Y0110084D01*
X0060233Y0107615D01*
X0060850Y0108233D01*
X0060850Y0109467D01*
X0060233Y0110084D01*
X0060233Y0107615D02*
X0057764Y0107615D01*
X0057147Y0108233D01*
X0057147Y0109467D01*
X0057764Y0110084D01*
X0060850Y0106401D02*
X0060850Y0103932D01*
X0060850Y0105167D02*
X0057147Y0105167D01*
X0058381Y0103932D01*
X0067147Y0105167D02*
X0070850Y0105167D01*
X0070850Y0106401D02*
X0070850Y0103932D01*
X0068381Y0103932D02*
X0067147Y0105167D01*
X0067764Y0107615D02*
X0067147Y0108233D01*
X0067147Y0109467D01*
X0067764Y0110084D01*
X0070233Y0107615D01*
X0070850Y0108233D01*
X0070850Y0109467D01*
X0070233Y0110084D01*
X0067764Y0110084D01*
X0067147Y0111298D02*
X0070850Y0111298D01*
X0069616Y0111298D02*
X0068381Y0113150D01*
X0069616Y0111298D02*
X0070850Y0113150D01*
X0070233Y0107615D02*
X0067764Y0107615D01*
X0037936Y0103236D02*
X0037936Y0102002D01*
X0037318Y0101384D01*
X0035467Y0101384D01*
X0035467Y0100150D02*
X0035467Y0103853D01*
X0037318Y0103853D01*
X0037936Y0103236D01*
X0036701Y0101384D02*
X0037936Y0100150D01*
X0036701Y0097853D02*
X0037936Y0096619D01*
X0037936Y0094150D01*
X0037936Y0096002D02*
X0035467Y0096002D01*
X0035467Y0096619D02*
X0035467Y0094150D01*
X0034252Y0094767D02*
X0034252Y0097236D01*
X0033635Y0097853D01*
X0031784Y0097853D01*
X0031784Y0094150D01*
X0033635Y0094150D01*
X0034252Y0094767D01*
X0035467Y0096619D02*
X0036701Y0097853D01*
X0034252Y0100767D02*
X0034252Y0103853D01*
X0031784Y0103853D02*
X0031784Y0100767D01*
X0032401Y0100150D01*
X0033635Y0100150D01*
X0034252Y0100767D01*
X0030569Y0102002D02*
X0029952Y0101384D01*
X0028101Y0101384D01*
X0028101Y0100150D02*
X0028101Y0103853D01*
X0029952Y0103853D01*
X0030569Y0103236D01*
X0030569Y0102002D01*
X0029952Y0097853D02*
X0028718Y0097853D01*
X0028101Y0097236D01*
X0028101Y0096619D01*
X0028718Y0096002D01*
X0029952Y0096002D01*
X0030569Y0095384D01*
X0030569Y0094767D01*
X0029952Y0094150D01*
X0028718Y0094150D01*
X0028101Y0094767D01*
X0030569Y0097236D02*
X0029952Y0097853D01*
X0030569Y0080853D02*
X0030569Y0078384D01*
X0029335Y0077150D01*
X0028101Y0078384D01*
X0028101Y0080853D01*
X0031784Y0080236D02*
X0031784Y0077767D01*
X0032401Y0077150D01*
X0033635Y0077150D01*
X0034252Y0077767D01*
X0035467Y0077767D02*
X0036084Y0077150D01*
X0037318Y0077150D01*
X0037936Y0077767D01*
X0037936Y0080236D02*
X0037318Y0080853D01*
X0036084Y0080853D01*
X0035467Y0080236D01*
X0035467Y0077767D01*
X0034252Y0080236D02*
X0033635Y0080853D01*
X0032401Y0080853D01*
X0031784Y0080236D01*
X0032401Y0070853D02*
X0031784Y0070236D01*
X0031784Y0067767D01*
X0032401Y0067150D01*
X0033635Y0067150D01*
X0034252Y0067767D01*
X0035467Y0067150D02*
X0037936Y0067150D01*
X0035467Y0067150D02*
X0035467Y0070853D01*
X0034252Y0070236D02*
X0033635Y0070853D01*
X0032401Y0070853D01*
X0030569Y0070236D02*
X0029952Y0070853D01*
X0028718Y0070853D01*
X0028101Y0070236D01*
X0028101Y0069619D01*
X0028718Y0069002D01*
X0029952Y0069002D01*
X0030569Y0068384D01*
X0030569Y0067767D01*
X0029952Y0067150D01*
X0028718Y0067150D01*
X0028101Y0067767D01*
X0028718Y0060853D02*
X0028101Y0060236D01*
X0028101Y0059619D01*
X0028718Y0059002D01*
X0029952Y0059002D01*
X0030569Y0058384D01*
X0030569Y0057767D01*
X0029952Y0057150D01*
X0028718Y0057150D01*
X0028101Y0057767D01*
X0028718Y0060853D02*
X0029952Y0060853D01*
X0030569Y0060236D01*
X0031784Y0060853D02*
X0033635Y0060853D01*
X0034252Y0060236D01*
X0034252Y0057767D01*
X0033635Y0057150D01*
X0031784Y0057150D01*
X0031784Y0060853D01*
X0035467Y0059619D02*
X0035467Y0057150D01*
X0035467Y0059002D02*
X0037936Y0059002D01*
X0037936Y0059619D02*
X0037936Y0057150D01*
X0037936Y0059619D02*
X0036701Y0060853D01*
X0035467Y0059619D01*
X0035467Y0050853D02*
X0037318Y0050853D01*
X0037936Y0050236D01*
X0037936Y0047767D01*
X0037318Y0047150D01*
X0035467Y0047150D01*
X0035467Y0050853D01*
X0034252Y0050853D02*
X0034252Y0047150D01*
X0031784Y0050853D01*
X0031784Y0047150D01*
X0030569Y0047767D02*
X0030569Y0049002D01*
X0029335Y0049002D01*
X0030569Y0050236D02*
X0029952Y0050853D01*
X0028718Y0050853D01*
X0028101Y0050236D01*
X0028101Y0047767D01*
X0028718Y0047150D01*
X0029952Y0047150D01*
X0030569Y0047767D01*
X0067147Y0041298D02*
X0070850Y0041298D01*
X0069616Y0041298D02*
X0068381Y0043150D01*
X0069616Y0041298D02*
X0070850Y0043150D01*
X0070233Y0040084D02*
X0067764Y0040084D01*
X0070233Y0037615D01*
X0070850Y0038233D01*
X0070850Y0039467D01*
X0070233Y0040084D01*
X0070233Y0037615D02*
X0067764Y0037615D01*
X0067147Y0038233D01*
X0067147Y0039467D01*
X0067764Y0040084D01*
X0070850Y0036401D02*
X0070850Y0033932D01*
X0070850Y0035167D02*
X0067147Y0035167D01*
X0068381Y0033932D01*
X0119769Y0059017D02*
X0120386Y0058400D01*
X0121620Y0058400D01*
X0122238Y0059017D01*
X0122238Y0060252D01*
X0121003Y0060252D01*
X0119769Y0061486D02*
X0119769Y0059017D01*
X0123452Y0058400D02*
X0123452Y0062103D01*
X0125304Y0062103D01*
X0125921Y0061486D01*
X0125921Y0060252D01*
X0125304Y0059634D01*
X0123452Y0059634D01*
X0122238Y0061486D02*
X0121620Y0062103D01*
X0120386Y0062103D01*
X0119769Y0061486D01*
X0124808Y0063400D02*
X0124808Y0065869D01*
X0126043Y0067103D01*
X0127277Y0065869D01*
X0127277Y0063400D01*
X0127135Y0062103D02*
X0128370Y0062103D01*
X0127752Y0062103D02*
X0127752Y0058400D01*
X0127135Y0058400D02*
X0128370Y0058400D01*
X0129591Y0059017D02*
X0130208Y0058400D01*
X0131442Y0058400D01*
X0132059Y0059017D01*
X0132059Y0061486D01*
X0131442Y0062103D01*
X0130208Y0062103D01*
X0129591Y0061486D01*
X0129591Y0059017D01*
X0127277Y0065252D02*
X0124808Y0065252D01*
X0134808Y0072150D02*
X0134808Y0072767D01*
X0137277Y0075236D01*
X0137277Y0075853D01*
X0134808Y0075853D01*
X0135426Y0082150D02*
X0136660Y0082150D01*
X0137277Y0082767D01*
X0137277Y0083384D01*
X0136660Y0084002D01*
X0134808Y0084002D01*
X0134808Y0082767D01*
X0135426Y0082150D01*
X0134808Y0084002D02*
X0136043Y0085236D01*
X0137277Y0085853D01*
X0136660Y0092150D02*
X0135426Y0092150D01*
X0134808Y0092767D01*
X0134808Y0094002D02*
X0136043Y0094619D01*
X0136660Y0094619D01*
X0137277Y0094002D01*
X0137277Y0092767D01*
X0136660Y0092150D01*
X0134808Y0094002D02*
X0134808Y0095853D01*
X0137277Y0095853D01*
X0136660Y0102150D02*
X0136660Y0105853D01*
X0134808Y0104002D01*
X0137277Y0104002D01*
X0136660Y0112150D02*
X0135426Y0112150D01*
X0134808Y0112767D01*
X0136043Y0114002D02*
X0136660Y0114002D01*
X0137277Y0113384D01*
X0137277Y0112767D01*
X0136660Y0112150D01*
X0136660Y0114002D02*
X0137277Y0114619D01*
X0137277Y0115236D01*
X0136660Y0115853D01*
X0135426Y0115853D01*
X0134808Y0115236D01*
X0134808Y0122150D02*
X0137277Y0124619D01*
X0137277Y0125236D01*
X0136660Y0125853D01*
X0135426Y0125853D01*
X0134808Y0125236D01*
X0134808Y0122150D02*
X0137277Y0122150D01*
X0137277Y0132150D02*
X0134808Y0132150D01*
X0136043Y0132150D02*
X0136043Y0135853D01*
X0134808Y0134619D01*
X0135426Y0142150D02*
X0134808Y0142767D01*
X0137277Y0145236D01*
X0137277Y0142767D01*
X0136660Y0142150D01*
X0135426Y0142150D01*
X0134808Y0142767D02*
X0134808Y0145236D01*
X0135426Y0145853D01*
X0136660Y0145853D01*
X0137277Y0145236D01*
X0176650Y0130853D02*
X0177884Y0130853D01*
X0177267Y0130853D02*
X0177267Y0127150D01*
X0176650Y0127150D02*
X0177884Y0127150D01*
X0179105Y0127150D02*
X0179105Y0130853D01*
X0181574Y0127150D01*
X0181574Y0130853D01*
X0182789Y0130853D02*
X0185257Y0130853D01*
X0184023Y0130853D02*
X0184023Y0127150D01*
X0186472Y0127150D02*
X0186472Y0129619D01*
X0187706Y0130853D01*
X0188940Y0129619D01*
X0188940Y0127150D01*
X0188940Y0129002D02*
X0186472Y0129002D01*
X0186472Y0120853D02*
X0188323Y0120853D01*
X0188940Y0120236D01*
X0188940Y0119619D01*
X0188323Y0119002D01*
X0186472Y0119002D01*
X0186472Y0120853D02*
X0186472Y0117150D01*
X0188323Y0117150D01*
X0188940Y0117767D01*
X0188940Y0118384D01*
X0188323Y0119002D01*
X0185257Y0120853D02*
X0182789Y0120853D01*
X0181574Y0120853D02*
X0181574Y0117150D01*
X0179105Y0120853D01*
X0179105Y0117150D01*
X0177884Y0117150D02*
X0176650Y0117150D01*
X0177267Y0117150D02*
X0177267Y0120853D01*
X0176650Y0120853D02*
X0177884Y0120853D01*
X0184023Y0120853D02*
X0184023Y0117150D01*
X0184016Y0105853D02*
X0185868Y0105853D01*
X0186485Y0105236D01*
X0186485Y0102767D01*
X0185868Y0102150D01*
X0184016Y0102150D01*
X0184016Y0105853D01*
X0182802Y0105853D02*
X0182802Y0102150D01*
X0180333Y0105853D01*
X0180333Y0102150D01*
X0179119Y0102767D02*
X0179119Y0104002D01*
X0177884Y0104002D01*
X0176650Y0105236D02*
X0176650Y0102767D01*
X0177267Y0102150D01*
X0178502Y0102150D01*
X0179119Y0102767D01*
X0179119Y0105236D02*
X0178502Y0105853D01*
X0177267Y0105853D01*
X0176650Y0105236D01*
X0177267Y0095853D02*
X0176650Y0095236D01*
X0176650Y0092767D01*
X0177267Y0092150D01*
X0178502Y0092150D01*
X0179119Y0092767D01*
X0179119Y0094002D01*
X0177884Y0094002D01*
X0179119Y0095236D02*
X0178502Y0095853D01*
X0177267Y0095853D01*
X0180333Y0095853D02*
X0182802Y0092150D01*
X0182802Y0095853D01*
X0184016Y0095853D02*
X0185868Y0095853D01*
X0186485Y0095236D01*
X0186485Y0092767D01*
X0185868Y0092150D01*
X0184016Y0092150D01*
X0184016Y0095853D01*
X0180333Y0095853D02*
X0180333Y0092150D01*
X0180950Y0080853D02*
X0180333Y0080236D01*
X0180333Y0077767D01*
X0180950Y0077150D01*
X0182185Y0077150D01*
X0182802Y0077767D01*
X0184016Y0077767D02*
X0184633Y0077150D01*
X0185868Y0077150D01*
X0186485Y0077767D01*
X0184016Y0077767D02*
X0184016Y0080236D01*
X0184633Y0080853D01*
X0185868Y0080853D01*
X0186485Y0080236D01*
X0182802Y0080236D02*
X0182185Y0080853D01*
X0180950Y0080853D01*
X0179119Y0080853D02*
X0179119Y0078384D01*
X0177884Y0077150D01*
X0176650Y0078384D01*
X0176650Y0080853D01*
X0177267Y0070853D02*
X0176650Y0070236D01*
X0176650Y0069619D01*
X0177267Y0069002D01*
X0178502Y0069002D01*
X0179119Y0068384D01*
X0179119Y0067767D01*
X0178502Y0067150D01*
X0177267Y0067150D01*
X0176650Y0067767D01*
X0180333Y0067767D02*
X0180950Y0067150D01*
X0182185Y0067150D01*
X0182802Y0067767D01*
X0184016Y0067150D02*
X0186485Y0067150D01*
X0184016Y0067150D02*
X0184016Y0070853D01*
X0182802Y0070236D02*
X0182185Y0070853D01*
X0180950Y0070853D01*
X0180333Y0070236D01*
X0180333Y0067767D01*
X0179119Y0070236D02*
X0178502Y0070853D01*
X0177267Y0070853D01*
X0177267Y0060853D02*
X0176650Y0060236D01*
X0176650Y0059619D01*
X0177267Y0059002D01*
X0178502Y0059002D01*
X0179119Y0058384D01*
X0179119Y0057767D01*
X0178502Y0057150D01*
X0177267Y0057150D01*
X0176650Y0057767D01*
X0180333Y0057150D02*
X0182185Y0057150D01*
X0182802Y0057767D01*
X0182802Y0060236D01*
X0182185Y0060853D01*
X0180333Y0060853D01*
X0180333Y0057150D01*
X0179119Y0060236D02*
X0178502Y0060853D01*
X0177267Y0060853D01*
X0184016Y0059619D02*
X0184016Y0057150D01*
X0184016Y0059002D02*
X0186485Y0059002D01*
X0186485Y0059619D02*
X0186485Y0057150D01*
X0186485Y0059619D02*
X0185251Y0060853D01*
X0184016Y0059619D01*
X0184016Y0050853D02*
X0185868Y0050853D01*
X0186485Y0050236D01*
X0186485Y0047767D01*
X0185868Y0047150D01*
X0184016Y0047150D01*
X0184016Y0050853D01*
X0182802Y0050853D02*
X0182802Y0047150D01*
X0180333Y0050853D01*
X0180333Y0047150D01*
X0179119Y0047767D02*
X0179119Y0049002D01*
X0177884Y0049002D01*
X0176650Y0050236D02*
X0176650Y0047767D01*
X0177267Y0047150D01*
X0178502Y0047150D01*
X0179119Y0047767D01*
X0179119Y0050236D02*
X0178502Y0050853D01*
X0177267Y0050853D01*
X0176650Y0050236D01*
X0156619Y0042150D02*
X0154150Y0042150D01*
X0155384Y0042150D02*
X0155384Y0045853D01*
X0154150Y0044619D01*
X0151699Y0058400D02*
X0149848Y0058400D01*
X0148627Y0058400D02*
X0148010Y0059017D01*
X0148010Y0061486D01*
X0148627Y0060869D02*
X0147392Y0060869D01*
X0146175Y0060869D02*
X0145558Y0060869D01*
X0144323Y0059634D01*
X0144323Y0058400D02*
X0144323Y0060869D01*
X0143109Y0060252D02*
X0143109Y0059017D01*
X0142492Y0058400D01*
X0141257Y0058400D01*
X0140640Y0059017D01*
X0140640Y0060252D01*
X0141257Y0060869D01*
X0142492Y0060869D01*
X0143109Y0060252D01*
X0139426Y0060252D02*
X0139426Y0061486D01*
X0138808Y0062103D01*
X0136957Y0062103D01*
X0136957Y0058400D01*
X0136957Y0059634D02*
X0138808Y0059634D01*
X0139426Y0060252D01*
X0144808Y0063400D02*
X0146660Y0063400D01*
X0147277Y0064017D01*
X0147277Y0064634D01*
X0146660Y0065252D01*
X0144808Y0065252D01*
X0144808Y0067103D02*
X0144808Y0063400D01*
X0146660Y0065252D02*
X0147277Y0065869D01*
X0147277Y0066486D01*
X0146660Y0067103D01*
X0144808Y0067103D01*
X0150465Y0060869D02*
X0149848Y0060252D01*
X0150465Y0059634D01*
X0151699Y0059634D01*
X0152317Y0059017D01*
X0151699Y0058400D01*
X0152317Y0060869D02*
X0150465Y0060869D01*
X0154767Y0025853D02*
X0154150Y0025236D01*
X0154150Y0022767D01*
X0156619Y0025236D01*
X0156619Y0022767D01*
X0156002Y0022150D01*
X0154767Y0022150D01*
X0154150Y0022767D01*
X0154767Y0025853D02*
X0156002Y0025853D01*
X0156619Y0025236D01*
X0147277Y0017736D02*
X0144808Y0015267D01*
X0145426Y0014650D01*
X0146660Y0014650D01*
X0147277Y0015267D01*
X0147277Y0017736D01*
X0146660Y0018353D01*
X0145426Y0018353D01*
X0144808Y0017736D01*
X0144808Y0015267D01*
X0144337Y0012119D02*
X0142485Y0012119D01*
X0141868Y0011502D01*
X0142485Y0010884D01*
X0143719Y0010884D01*
X0144337Y0010267D01*
X0143719Y0009650D01*
X0141868Y0009650D01*
X0140653Y0010884D02*
X0138185Y0010884D01*
X0138185Y0010267D02*
X0138185Y0011502D01*
X0138802Y0012119D01*
X0140036Y0012119D01*
X0140653Y0011502D01*
X0140653Y0010884D01*
X0140036Y0009650D02*
X0138802Y0009650D01*
X0138185Y0010267D01*
X0136967Y0012119D02*
X0136350Y0012119D01*
X0135115Y0010884D01*
X0135115Y0009650D02*
X0135115Y0012119D01*
X0133901Y0012119D02*
X0132049Y0012119D01*
X0131432Y0011502D01*
X0131432Y0010267D01*
X0132049Y0009650D01*
X0133901Y0009650D01*
X0133901Y0013353D01*
X0134808Y0014650D02*
X0137277Y0014650D01*
X0136043Y0014650D02*
X0136043Y0018353D01*
X0134808Y0017119D01*
X0130218Y0013353D02*
X0130218Y0009650D01*
X0128366Y0009650D01*
X0127749Y0010267D01*
X0127749Y0011502D01*
X0128366Y0012119D01*
X0130218Y0012119D01*
X0126535Y0012119D02*
X0126535Y0009650D01*
X0126535Y0011502D02*
X0124066Y0011502D01*
X0124066Y0012119D02*
X0125300Y0013353D01*
X0126535Y0012119D01*
X0124066Y0012119D02*
X0124066Y0009650D01*
X0124808Y0014650D02*
X0127277Y0017119D01*
X0127277Y0017736D01*
X0126660Y0018353D01*
X0125426Y0018353D01*
X0124808Y0017736D01*
X0124808Y0014650D02*
X0127277Y0014650D01*
X0145551Y0011502D02*
X0146168Y0012119D01*
X0148020Y0012119D01*
X0147402Y0010884D02*
X0148020Y0010267D01*
X0147402Y0009650D01*
X0145551Y0009650D01*
X0146168Y0010884D02*
X0145551Y0011502D01*
X0146168Y0010884D02*
X0147402Y0010884D01*
D12*
X0098350Y0061534D02*
X0094747Y0061534D01*
X0095948Y0062735D01*
X0094747Y0063936D01*
X0098350Y0063936D01*
X0097749Y0065217D02*
X0095347Y0065217D01*
X0094747Y0065818D01*
X0094747Y0067019D01*
X0095347Y0067619D01*
X0094747Y0068901D02*
X0094747Y0070702D01*
X0095347Y0071303D01*
X0096548Y0071303D01*
X0097149Y0070702D01*
X0097149Y0068901D01*
X0098350Y0068901D02*
X0094747Y0068901D01*
X0097749Y0067619D02*
X0098350Y0067019D01*
X0098350Y0065818D01*
X0097749Y0065217D01*
X0098350Y0072584D02*
X0095948Y0074986D01*
X0095347Y0074986D01*
X0094747Y0074385D01*
X0094747Y0073184D01*
X0095347Y0072584D01*
X0098350Y0072584D02*
X0098350Y0074986D01*
X0097749Y0076267D02*
X0098350Y0076867D01*
X0098350Y0078068D01*
X0097749Y0078669D01*
X0097149Y0078669D01*
X0096548Y0078068D01*
X0096548Y0077468D01*
X0096548Y0078068D02*
X0095948Y0078669D01*
X0095347Y0078669D01*
X0094747Y0078068D01*
X0094747Y0076867D01*
X0095347Y0076267D01*
X0095347Y0079950D02*
X0094747Y0080550D01*
X0094747Y0081752D01*
X0095347Y0082352D01*
X0097749Y0079950D01*
X0098350Y0080550D01*
X0098350Y0081752D01*
X0097749Y0082352D01*
X0095347Y0082352D01*
X0095948Y0083633D02*
X0094747Y0084834D01*
X0098350Y0084834D01*
X0098350Y0083633D02*
X0098350Y0086035D01*
X0098350Y0087316D02*
X0097749Y0087316D01*
X0095347Y0089718D01*
X0094747Y0089718D01*
X0094747Y0087316D01*
X0095347Y0090999D02*
X0095948Y0090999D01*
X0096548Y0091600D01*
X0096548Y0092801D01*
X0097149Y0093401D01*
X0097749Y0093401D01*
X0098350Y0092801D01*
X0098350Y0091600D01*
X0097749Y0090999D01*
X0095347Y0090999D02*
X0094747Y0091600D01*
X0094747Y0092801D01*
X0095347Y0093401D01*
X0094747Y0094683D02*
X0094747Y0096484D01*
X0095347Y0097085D01*
X0096548Y0097085D01*
X0097149Y0096484D01*
X0097149Y0094683D01*
X0098350Y0094683D02*
X0094747Y0094683D01*
X0095347Y0079950D02*
X0097749Y0079950D01*
X0087133Y0153915D02*
X0087901Y0154683D01*
X0087901Y0158519D01*
X0085599Y0158519D01*
X0084831Y0157752D01*
X0084831Y0156217D01*
X0085599Y0155450D01*
X0087901Y0155450D01*
X0089435Y0155450D02*
X0091737Y0155450D01*
X0092504Y0156217D01*
X0091737Y0156985D01*
X0090203Y0156985D01*
X0089435Y0157752D01*
X0090203Y0158519D01*
X0092504Y0158519D01*
X0094039Y0159287D02*
X0094039Y0156217D01*
X0094806Y0155450D01*
X0096341Y0155450D01*
X0097108Y0156217D01*
X0096341Y0156985D02*
X0097108Y0157752D01*
X0097108Y0159287D01*
X0096341Y0160054D01*
X0094806Y0160054D01*
X0094039Y0159287D01*
X0094806Y0158519D02*
X0096341Y0158519D01*
X0096341Y0156985D01*
X0094806Y0156985D01*
X0094806Y0158519D01*
X0098643Y0158519D02*
X0098643Y0155450D01*
X0100178Y0155450D02*
X0100178Y0157752D01*
X0100945Y0158519D01*
X0101712Y0157752D01*
X0101712Y0155450D01*
X0103247Y0155450D02*
X0104782Y0155450D01*
X0104014Y0155450D02*
X0104014Y0158519D01*
X0103247Y0158519D01*
X0104014Y0160054D02*
X0104014Y0160821D01*
X0104782Y0162950D02*
X0106316Y0162950D01*
X0105549Y0162950D02*
X0105549Y0167554D01*
X0104782Y0167554D02*
X0106316Y0167554D01*
X0110920Y0167554D02*
X0107851Y0162950D01*
X0108618Y0158519D02*
X0106316Y0158519D01*
X0106316Y0155450D01*
X0109386Y0155450D02*
X0109386Y0157752D01*
X0108618Y0158519D01*
X0110920Y0157752D02*
X0111687Y0158519D01*
X0113989Y0158519D01*
X0113989Y0160054D02*
X0113989Y0155450D01*
X0111687Y0155450D01*
X0110920Y0156217D01*
X0110920Y0157752D01*
X0115524Y0158519D02*
X0118593Y0158519D01*
X0115524Y0155450D01*
X0118593Y0155450D01*
X0120128Y0156217D02*
X0120895Y0155450D01*
X0122430Y0155450D01*
X0123197Y0156217D01*
X0123197Y0157752D01*
X0122430Y0158519D01*
X0120895Y0158519D01*
X0120128Y0157752D01*
X0120128Y0156217D01*
X0124732Y0156217D02*
X0125499Y0155450D01*
X0127034Y0155450D01*
X0127801Y0156217D01*
X0127801Y0157752D01*
X0127034Y0158519D01*
X0125499Y0158519D01*
X0124732Y0157752D01*
X0124732Y0156217D01*
X0129336Y0156217D02*
X0129336Y0155450D01*
X0130103Y0155450D01*
X0130103Y0156217D01*
X0129336Y0156217D01*
X0131638Y0156217D02*
X0131638Y0157752D01*
X0132405Y0158519D01*
X0134707Y0158519D01*
X0134707Y0160054D02*
X0134707Y0155450D01*
X0132405Y0155450D01*
X0131638Y0156217D01*
X0136242Y0156217D02*
X0136242Y0157752D01*
X0137009Y0158519D01*
X0138544Y0158519D01*
X0139311Y0157752D01*
X0139311Y0156985D01*
X0136242Y0156985D01*
X0136242Y0156217D02*
X0137009Y0155450D01*
X0138544Y0155450D01*
X0130870Y0161415D02*
X0130870Y0166019D01*
X0133172Y0166019D01*
X0133940Y0165252D01*
X0133940Y0163717D01*
X0133172Y0162950D01*
X0130870Y0162950D01*
X0129336Y0162950D02*
X0126267Y0166019D01*
X0124732Y0165252D02*
X0124732Y0164485D01*
X0121663Y0164485D01*
X0121663Y0165252D02*
X0121663Y0163717D01*
X0122430Y0162950D01*
X0123965Y0162950D01*
X0126267Y0162950D02*
X0129336Y0166019D01*
X0124732Y0165252D02*
X0123965Y0166019D01*
X0122430Y0166019D01*
X0121663Y0165252D01*
X0115524Y0163717D02*
X0115524Y0166787D01*
X0114757Y0167554D01*
X0113222Y0167554D01*
X0112455Y0166787D01*
X0112455Y0163717D01*
X0113222Y0162950D01*
X0114757Y0162950D01*
X0115524Y0163717D01*
X0100178Y0157752D02*
X0099410Y0158519D01*
X0098643Y0158519D01*
X0098643Y0162950D02*
X0097108Y0162950D01*
X0097876Y0162950D02*
X0097876Y0167554D01*
X0097108Y0167554D01*
X0094806Y0166019D02*
X0095574Y0165252D01*
X0095574Y0164485D01*
X0092504Y0164485D01*
X0092504Y0165252D02*
X0092504Y0163717D01*
X0093272Y0162950D01*
X0094806Y0162950D01*
X0090970Y0162950D02*
X0090970Y0165252D01*
X0090202Y0166019D01*
X0087901Y0166019D01*
X0087901Y0162950D01*
X0086366Y0162950D02*
X0086366Y0165252D01*
X0085599Y0166019D01*
X0083297Y0166019D01*
X0083297Y0162950D01*
X0081762Y0162950D02*
X0079460Y0162950D01*
X0078693Y0163717D01*
X0079460Y0164485D01*
X0081762Y0164485D01*
X0081762Y0165252D02*
X0080995Y0166019D01*
X0079460Y0166019D01*
X0081762Y0165252D02*
X0081762Y0162950D01*
X0080227Y0158519D02*
X0080227Y0156217D01*
X0080995Y0155450D01*
X0083297Y0155450D01*
X0083297Y0158519D01*
X0078693Y0157752D02*
X0077925Y0158519D01*
X0076391Y0158519D01*
X0075623Y0157752D01*
X0075623Y0156217D01*
X0076391Y0155450D01*
X0077925Y0155450D01*
X0078693Y0156217D01*
X0078693Y0157752D01*
X0074089Y0158519D02*
X0074089Y0154683D01*
X0073321Y0153915D01*
X0072554Y0153915D01*
X0074089Y0160054D02*
X0074089Y0160821D01*
X0074089Y0162950D02*
X0074089Y0167554D01*
X0074856Y0166019D02*
X0076391Y0166019D01*
X0077158Y0165252D01*
X0077158Y0162950D01*
X0074089Y0165252D02*
X0074856Y0166019D01*
X0072554Y0166019D02*
X0070252Y0166019D01*
X0069485Y0165252D01*
X0069485Y0163717D01*
X0070252Y0162950D01*
X0072554Y0162950D01*
X0063346Y0163717D02*
X0062579Y0162950D01*
X0061044Y0162950D01*
X0060277Y0163717D01*
X0060277Y0165252D01*
X0062579Y0165252D01*
X0063346Y0164485D01*
X0063346Y0163717D01*
X0061812Y0166787D02*
X0060277Y0165252D01*
X0061812Y0166787D02*
X0063346Y0167554D01*
X0057208Y0167554D02*
X0057208Y0162950D01*
X0058742Y0162950D02*
X0055673Y0162950D01*
X0055673Y0166019D02*
X0057208Y0167554D01*
X0086366Y0153915D02*
X0087133Y0153915D01*
X0092504Y0165252D02*
X0093272Y0166019D01*
X0094806Y0166019D01*
X0135474Y0163717D02*
X0136242Y0162950D01*
X0138544Y0162950D01*
X0138544Y0165252D01*
X0137776Y0166019D01*
X0136242Y0166019D01*
X0136242Y0164485D02*
X0138544Y0164485D01*
X0140078Y0166019D02*
X0140078Y0162950D01*
X0143148Y0162950D02*
X0143148Y0165252D01*
X0142380Y0166019D01*
X0140078Y0166019D01*
X0136242Y0164485D02*
X0135474Y0163717D01*
X0144682Y0163717D02*
X0145450Y0162950D01*
X0147752Y0162950D01*
X0147752Y0167554D01*
X0147752Y0166019D02*
X0145450Y0166019D01*
X0144682Y0165252D01*
X0144682Y0163717D01*
X0149286Y0163717D02*
X0149286Y0165252D01*
X0150053Y0166019D01*
X0151588Y0166019D01*
X0152355Y0165252D01*
X0152355Y0164485D01*
X0149286Y0164485D01*
X0149286Y0163717D02*
X0150053Y0162950D01*
X0151588Y0162950D01*
X0153890Y0162950D02*
X0153890Y0166019D01*
X0153890Y0164485D02*
X0155425Y0166019D01*
X0156192Y0166019D01*
D13*
X0160500Y0154000D02*
X0160504Y0154331D01*
X0160516Y0154662D01*
X0160537Y0154993D01*
X0160565Y0155323D01*
X0160602Y0155653D01*
X0160646Y0155981D01*
X0160699Y0156308D01*
X0160759Y0156634D01*
X0160828Y0156958D01*
X0160905Y0157280D01*
X0160989Y0157601D01*
X0161081Y0157919D01*
X0161181Y0158235D01*
X0161289Y0158548D01*
X0161405Y0158859D01*
X0161528Y0159166D01*
X0161658Y0159471D01*
X0161796Y0159772D01*
X0161941Y0160070D01*
X0162094Y0160364D01*
X0162254Y0160654D01*
X0162421Y0160940D01*
X0162594Y0161222D01*
X0162775Y0161500D01*
X0162963Y0161773D01*
X0163157Y0162042D01*
X0163357Y0162306D01*
X0163564Y0162564D01*
X0163778Y0162818D01*
X0163997Y0163066D01*
X0164223Y0163309D01*
X0164454Y0163546D01*
X0164691Y0163777D01*
X0164934Y0164003D01*
X0165182Y0164222D01*
X0165436Y0164436D01*
X0165694Y0164643D01*
X0165958Y0164843D01*
X0166227Y0165037D01*
X0166500Y0165225D01*
X0166778Y0165406D01*
X0167060Y0165579D01*
X0167346Y0165746D01*
X0167636Y0165906D01*
X0167930Y0166059D01*
X0168228Y0166204D01*
X0168529Y0166342D01*
X0168834Y0166472D01*
X0169141Y0166595D01*
X0169452Y0166711D01*
X0169765Y0166819D01*
X0170081Y0166919D01*
X0170399Y0167011D01*
X0170720Y0167095D01*
X0171042Y0167172D01*
X0171366Y0167241D01*
X0171692Y0167301D01*
X0172019Y0167354D01*
X0172347Y0167398D01*
X0172677Y0167435D01*
X0173007Y0167463D01*
X0173338Y0167484D01*
X0173669Y0167496D01*
X0174000Y0167500D01*
X0174331Y0167496D01*
X0174662Y0167484D01*
X0174993Y0167463D01*
X0175323Y0167435D01*
X0175653Y0167398D01*
X0175981Y0167354D01*
X0176308Y0167301D01*
X0176634Y0167241D01*
X0176958Y0167172D01*
X0177280Y0167095D01*
X0177601Y0167011D01*
X0177919Y0166919D01*
X0178235Y0166819D01*
X0178548Y0166711D01*
X0178859Y0166595D01*
X0179166Y0166472D01*
X0179471Y0166342D01*
X0179772Y0166204D01*
X0180070Y0166059D01*
X0180364Y0165906D01*
X0180654Y0165746D01*
X0180940Y0165579D01*
X0181222Y0165406D01*
X0181500Y0165225D01*
X0181773Y0165037D01*
X0182042Y0164843D01*
X0182306Y0164643D01*
X0182564Y0164436D01*
X0182818Y0164222D01*
X0183066Y0164003D01*
X0183309Y0163777D01*
X0183546Y0163546D01*
X0183777Y0163309D01*
X0184003Y0163066D01*
X0184222Y0162818D01*
X0184436Y0162564D01*
X0184643Y0162306D01*
X0184843Y0162042D01*
X0185037Y0161773D01*
X0185225Y0161500D01*
X0185406Y0161222D01*
X0185579Y0160940D01*
X0185746Y0160654D01*
X0185906Y0160364D01*
X0186059Y0160070D01*
X0186204Y0159772D01*
X0186342Y0159471D01*
X0186472Y0159166D01*
X0186595Y0158859D01*
X0186711Y0158548D01*
X0186819Y0158235D01*
X0186919Y0157919D01*
X0187011Y0157601D01*
X0187095Y0157280D01*
X0187172Y0156958D01*
X0187241Y0156634D01*
X0187301Y0156308D01*
X0187354Y0155981D01*
X0187398Y0155653D01*
X0187435Y0155323D01*
X0187463Y0154993D01*
X0187484Y0154662D01*
X0187496Y0154331D01*
X0187500Y0154000D01*
X0187496Y0153669D01*
X0187484Y0153338D01*
X0187463Y0153007D01*
X0187435Y0152677D01*
X0187398Y0152347D01*
X0187354Y0152019D01*
X0187301Y0151692D01*
X0187241Y0151366D01*
X0187172Y0151042D01*
X0187095Y0150720D01*
X0187011Y0150399D01*
X0186919Y0150081D01*
X0186819Y0149765D01*
X0186711Y0149452D01*
X0186595Y0149141D01*
X0186472Y0148834D01*
X0186342Y0148529D01*
X0186204Y0148228D01*
X0186059Y0147930D01*
X0185906Y0147636D01*
X0185746Y0147346D01*
X0185579Y0147060D01*
X0185406Y0146778D01*
X0185225Y0146500D01*
X0185037Y0146227D01*
X0184843Y0145958D01*
X0184643Y0145694D01*
X0184436Y0145436D01*
X0184222Y0145182D01*
X0184003Y0144934D01*
X0183777Y0144691D01*
X0183546Y0144454D01*
X0183309Y0144223D01*
X0183066Y0143997D01*
X0182818Y0143778D01*
X0182564Y0143564D01*
X0182306Y0143357D01*
X0182042Y0143157D01*
X0181773Y0142963D01*
X0181500Y0142775D01*
X0181222Y0142594D01*
X0180940Y0142421D01*
X0180654Y0142254D01*
X0180364Y0142094D01*
X0180070Y0141941D01*
X0179772Y0141796D01*
X0179471Y0141658D01*
X0179166Y0141528D01*
X0178859Y0141405D01*
X0178548Y0141289D01*
X0178235Y0141181D01*
X0177919Y0141081D01*
X0177601Y0140989D01*
X0177280Y0140905D01*
X0176958Y0140828D01*
X0176634Y0140759D01*
X0176308Y0140699D01*
X0175981Y0140646D01*
X0175653Y0140602D01*
X0175323Y0140565D01*
X0174993Y0140537D01*
X0174662Y0140516D01*
X0174331Y0140504D01*
X0174000Y0140500D01*
X0173669Y0140504D01*
X0173338Y0140516D01*
X0173007Y0140537D01*
X0172677Y0140565D01*
X0172347Y0140602D01*
X0172019Y0140646D01*
X0171692Y0140699D01*
X0171366Y0140759D01*
X0171042Y0140828D01*
X0170720Y0140905D01*
X0170399Y0140989D01*
X0170081Y0141081D01*
X0169765Y0141181D01*
X0169452Y0141289D01*
X0169141Y0141405D01*
X0168834Y0141528D01*
X0168529Y0141658D01*
X0168228Y0141796D01*
X0167930Y0141941D01*
X0167636Y0142094D01*
X0167346Y0142254D01*
X0167060Y0142421D01*
X0166778Y0142594D01*
X0166500Y0142775D01*
X0166227Y0142963D01*
X0165958Y0143157D01*
X0165694Y0143357D01*
X0165436Y0143564D01*
X0165182Y0143778D01*
X0164934Y0143997D01*
X0164691Y0144223D01*
X0164454Y0144454D01*
X0164223Y0144691D01*
X0163997Y0144934D01*
X0163778Y0145182D01*
X0163564Y0145436D01*
X0163357Y0145694D01*
X0163157Y0145958D01*
X0162963Y0146227D01*
X0162775Y0146500D01*
X0162594Y0146778D01*
X0162421Y0147060D01*
X0162254Y0147346D01*
X0162094Y0147636D01*
X0161941Y0147930D01*
X0161796Y0148228D01*
X0161658Y0148529D01*
X0161528Y0148834D01*
X0161405Y0149141D01*
X0161289Y0149452D01*
X0161181Y0149765D01*
X0161081Y0150081D01*
X0160989Y0150399D01*
X0160905Y0150720D01*
X0160828Y0151042D01*
X0160759Y0151366D01*
X0160699Y0151692D01*
X0160646Y0152019D01*
X0160602Y0152347D01*
X0160565Y0152677D01*
X0160537Y0153007D01*
X0160516Y0153338D01*
X0160504Y0153669D01*
X0160500Y0154000D01*
X0151500Y0146500D02*
X0151500Y0141500D01*
X0149000Y0139000D01*
X0151500Y0136500D01*
X0151500Y0131500D01*
X0149000Y0129000D01*
X0151500Y0126500D01*
X0151500Y0121500D01*
X0149000Y0119000D01*
X0151500Y0116500D01*
X0151500Y0111500D01*
X0149000Y0109000D01*
X0151500Y0106500D01*
X0151500Y0101500D01*
X0149000Y0099000D01*
X0151500Y0096500D01*
X0151500Y0091500D01*
X0149000Y0089000D01*
X0151500Y0086500D01*
X0151500Y0081500D01*
X0149000Y0079000D01*
X0151500Y0076500D01*
X0151500Y0071500D01*
X0149000Y0069000D01*
X0144000Y0069000D01*
X0141500Y0071500D01*
X0141500Y0076500D01*
X0144000Y0079000D01*
X0141500Y0081500D01*
X0141500Y0086500D01*
X0144000Y0089000D01*
X0149000Y0089000D01*
X0144000Y0089000D02*
X0141500Y0091500D01*
X0141500Y0096500D01*
X0144000Y0099000D01*
X0141500Y0101500D01*
X0141500Y0106500D01*
X0144000Y0109000D01*
X0141500Y0111500D01*
X0141500Y0116500D01*
X0144000Y0119000D01*
X0149000Y0119000D01*
X0144000Y0119000D02*
X0141500Y0121500D01*
X0141500Y0126500D01*
X0144000Y0129000D01*
X0141500Y0131500D01*
X0141500Y0136500D01*
X0144000Y0139000D01*
X0141500Y0141500D01*
X0141500Y0146500D01*
X0144000Y0149000D01*
X0149000Y0149000D01*
X0151500Y0146500D01*
X0149000Y0139000D02*
X0144000Y0139000D01*
X0144000Y0129000D02*
X0149000Y0129000D01*
X0164000Y0126500D02*
X0164000Y0131500D01*
X0166500Y0134000D01*
X0171500Y0134000D01*
X0174000Y0131500D01*
X0174000Y0126500D01*
X0171500Y0124000D01*
X0174000Y0121500D01*
X0174000Y0116500D01*
X0171500Y0114000D01*
X0166500Y0114000D01*
X0164000Y0116500D01*
X0164000Y0121500D01*
X0166500Y0124000D01*
X0164000Y0126500D01*
X0166500Y0124000D02*
X0171500Y0124000D01*
X0171500Y0109000D02*
X0166500Y0109000D01*
X0164000Y0106500D01*
X0164000Y0101500D01*
X0166500Y0099000D01*
X0164000Y0096500D01*
X0164000Y0091500D01*
X0166500Y0089000D01*
X0171500Y0089000D01*
X0174000Y0091500D01*
X0174000Y0096500D01*
X0171500Y0099000D01*
X0166500Y0099000D01*
X0171500Y0099000D02*
X0174000Y0101500D01*
X0174000Y0106500D01*
X0171500Y0109000D01*
X0149000Y0109000D02*
X0144000Y0109000D01*
X0144000Y0099000D02*
X0149000Y0099000D01*
X0131500Y0096500D02*
X0131500Y0091500D01*
X0129000Y0089000D01*
X0131500Y0086500D01*
X0131500Y0081500D01*
X0129000Y0079000D01*
X0131500Y0076500D01*
X0131500Y0071500D01*
X0129000Y0069000D01*
X0124000Y0069000D01*
X0121500Y0071500D01*
X0121500Y0076500D01*
X0124000Y0079000D01*
X0121500Y0081500D01*
X0121500Y0086500D01*
X0124000Y0089000D01*
X0129000Y0089000D01*
X0124000Y0089000D02*
X0121500Y0091500D01*
X0121500Y0096500D01*
X0124000Y0099000D01*
X0121500Y0101500D01*
X0121500Y0106500D01*
X0124000Y0109000D01*
X0121500Y0111500D01*
X0121500Y0116500D01*
X0124000Y0119000D01*
X0129000Y0119000D01*
X0131500Y0116500D01*
X0131500Y0111500D01*
X0129000Y0109000D01*
X0131500Y0106500D01*
X0131500Y0101500D01*
X0129000Y0099000D01*
X0131500Y0096500D01*
X0129000Y0099000D02*
X0124000Y0099000D01*
X0124000Y0109000D02*
X0129000Y0109000D01*
X0129000Y0119000D02*
X0131500Y0121500D01*
X0131500Y0126500D01*
X0129000Y0129000D01*
X0131500Y0131500D01*
X0131500Y0136500D01*
X0129000Y0139000D01*
X0131500Y0141500D01*
X0131500Y0146500D01*
X0129000Y0149000D01*
X0124000Y0149000D01*
X0121500Y0146500D01*
X0121500Y0141500D01*
X0124000Y0139000D01*
X0129000Y0139000D01*
X0124000Y0139000D02*
X0121500Y0136500D01*
X0121500Y0131500D01*
X0124000Y0129000D01*
X0129000Y0129000D01*
X0124000Y0129000D02*
X0121500Y0126500D01*
X0121500Y0121500D01*
X0124000Y0119000D01*
X0106500Y0149000D02*
X0101500Y0149000D01*
X0106500Y0149000D02*
X0106500Y0009000D01*
X0086500Y0009000D01*
X0086500Y0148500D01*
X0086500Y0149000D02*
X0091500Y0149000D01*
X0091502Y0148860D01*
X0091508Y0148720D01*
X0091518Y0148580D01*
X0091531Y0148440D01*
X0091549Y0148301D01*
X0091571Y0148162D01*
X0091596Y0148025D01*
X0091625Y0147887D01*
X0091658Y0147751D01*
X0091695Y0147616D01*
X0091736Y0147482D01*
X0091781Y0147349D01*
X0091829Y0147217D01*
X0091881Y0147087D01*
X0091936Y0146958D01*
X0091995Y0146831D01*
X0092058Y0146705D01*
X0092124Y0146581D01*
X0092193Y0146460D01*
X0092266Y0146340D01*
X0092343Y0146222D01*
X0092422Y0146107D01*
X0092505Y0145993D01*
X0092591Y0145883D01*
X0092680Y0145774D01*
X0092772Y0145668D01*
X0092867Y0145565D01*
X0092964Y0145464D01*
X0093065Y0145367D01*
X0093168Y0145272D01*
X0093274Y0145180D01*
X0093383Y0145091D01*
X0093493Y0145005D01*
X0093607Y0144922D01*
X0093722Y0144843D01*
X0093840Y0144766D01*
X0093960Y0144693D01*
X0094081Y0144624D01*
X0094205Y0144558D01*
X0094331Y0144495D01*
X0094458Y0144436D01*
X0094587Y0144381D01*
X0094717Y0144329D01*
X0094849Y0144281D01*
X0094982Y0144236D01*
X0095116Y0144195D01*
X0095251Y0144158D01*
X0095387Y0144125D01*
X0095525Y0144096D01*
X0095662Y0144071D01*
X0095801Y0144049D01*
X0095940Y0144031D01*
X0096080Y0144018D01*
X0096220Y0144008D01*
X0096360Y0144002D01*
X0096500Y0144000D01*
X0096640Y0144002D01*
X0096780Y0144008D01*
X0096920Y0144018D01*
X0097060Y0144031D01*
X0097199Y0144049D01*
X0097338Y0144071D01*
X0097475Y0144096D01*
X0097613Y0144125D01*
X0097749Y0144158D01*
X0097884Y0144195D01*
X0098018Y0144236D01*
X0098151Y0144281D01*
X0098283Y0144329D01*
X0098413Y0144381D01*
X0098542Y0144436D01*
X0098669Y0144495D01*
X0098795Y0144558D01*
X0098919Y0144624D01*
X0099040Y0144693D01*
X0099160Y0144766D01*
X0099278Y0144843D01*
X0099393Y0144922D01*
X0099507Y0145005D01*
X0099617Y0145091D01*
X0099726Y0145180D01*
X0099832Y0145272D01*
X0099935Y0145367D01*
X0100036Y0145464D01*
X0100133Y0145565D01*
X0100228Y0145668D01*
X0100320Y0145774D01*
X0100409Y0145883D01*
X0100495Y0145993D01*
X0100578Y0146107D01*
X0100657Y0146222D01*
X0100734Y0146340D01*
X0100807Y0146460D01*
X0100876Y0146581D01*
X0100942Y0146705D01*
X0101005Y0146831D01*
X0101064Y0146958D01*
X0101119Y0147087D01*
X0101171Y0147217D01*
X0101219Y0147349D01*
X0101264Y0147482D01*
X0101305Y0147616D01*
X0101342Y0147751D01*
X0101375Y0147887D01*
X0101404Y0148025D01*
X0101429Y0148162D01*
X0101451Y0148301D01*
X0101469Y0148440D01*
X0101482Y0148580D01*
X0101492Y0148720D01*
X0101498Y0148860D01*
X0101500Y0149000D01*
X0072500Y0121500D02*
X0065500Y0121500D01*
X0065440Y0121498D01*
X0065379Y0121493D01*
X0065320Y0121484D01*
X0065261Y0121471D01*
X0065202Y0121455D01*
X0065145Y0121435D01*
X0065090Y0121412D01*
X0065035Y0121385D01*
X0064983Y0121356D01*
X0064932Y0121323D01*
X0064883Y0121287D01*
X0064837Y0121249D01*
X0064793Y0121207D01*
X0064751Y0121163D01*
X0064713Y0121117D01*
X0064677Y0121068D01*
X0064644Y0121017D01*
X0064615Y0120965D01*
X0064588Y0120910D01*
X0064565Y0120855D01*
X0064545Y0120798D01*
X0064529Y0120739D01*
X0064516Y0120680D01*
X0064507Y0120621D01*
X0064502Y0120560D01*
X0064500Y0120500D01*
X0064500Y0119000D01*
X0065000Y0118500D01*
X0065000Y0099500D01*
X0064500Y0099000D01*
X0064500Y0097500D01*
X0064502Y0097440D01*
X0064507Y0097379D01*
X0064516Y0097320D01*
X0064529Y0097261D01*
X0064545Y0097202D01*
X0064565Y0097145D01*
X0064588Y0097090D01*
X0064615Y0097035D01*
X0064644Y0096983D01*
X0064677Y0096932D01*
X0064713Y0096883D01*
X0064751Y0096837D01*
X0064793Y0096793D01*
X0064837Y0096751D01*
X0064883Y0096713D01*
X0064932Y0096677D01*
X0064983Y0096644D01*
X0065035Y0096615D01*
X0065090Y0096588D01*
X0065145Y0096565D01*
X0065202Y0096545D01*
X0065261Y0096529D01*
X0065320Y0096516D01*
X0065379Y0096507D01*
X0065440Y0096502D01*
X0065500Y0096500D01*
X0072500Y0096500D01*
X0072560Y0096502D01*
X0072621Y0096507D01*
X0072680Y0096516D01*
X0072739Y0096529D01*
X0072798Y0096545D01*
X0072855Y0096565D01*
X0072910Y0096588D01*
X0072965Y0096615D01*
X0073017Y0096644D01*
X0073068Y0096677D01*
X0073117Y0096713D01*
X0073163Y0096751D01*
X0073207Y0096793D01*
X0073249Y0096837D01*
X0073287Y0096883D01*
X0073323Y0096932D01*
X0073356Y0096983D01*
X0073385Y0097035D01*
X0073412Y0097090D01*
X0073435Y0097145D01*
X0073455Y0097202D01*
X0073471Y0097261D01*
X0073484Y0097320D01*
X0073493Y0097379D01*
X0073498Y0097440D01*
X0073500Y0097500D01*
X0073500Y0099000D01*
X0073000Y0099500D01*
X0073000Y0118500D01*
X0073500Y0119000D01*
X0073500Y0120500D01*
X0073498Y0120560D01*
X0073493Y0120621D01*
X0073484Y0120680D01*
X0073471Y0120739D01*
X0073455Y0120798D01*
X0073435Y0120855D01*
X0073412Y0120910D01*
X0073385Y0120965D01*
X0073356Y0121017D01*
X0073323Y0121068D01*
X0073287Y0121117D01*
X0073249Y0121163D01*
X0073207Y0121207D01*
X0073163Y0121249D01*
X0073117Y0121287D01*
X0073068Y0121323D01*
X0073017Y0121356D01*
X0072965Y0121385D01*
X0072910Y0121412D01*
X0072855Y0121435D01*
X0072798Y0121455D01*
X0072739Y0121471D01*
X0072680Y0121484D01*
X0072621Y0121493D01*
X0072560Y0121498D01*
X0072500Y0121500D01*
X0063500Y0120500D02*
X0063500Y0119000D01*
X0063000Y0118500D01*
X0063000Y0099500D01*
X0063500Y0099000D01*
X0063500Y0097500D01*
X0063498Y0097440D01*
X0063493Y0097379D01*
X0063484Y0097320D01*
X0063471Y0097261D01*
X0063455Y0097202D01*
X0063435Y0097145D01*
X0063412Y0097090D01*
X0063385Y0097035D01*
X0063356Y0096983D01*
X0063323Y0096932D01*
X0063287Y0096883D01*
X0063249Y0096837D01*
X0063207Y0096793D01*
X0063163Y0096751D01*
X0063117Y0096713D01*
X0063068Y0096677D01*
X0063017Y0096644D01*
X0062965Y0096615D01*
X0062910Y0096588D01*
X0062855Y0096565D01*
X0062798Y0096545D01*
X0062739Y0096529D01*
X0062680Y0096516D01*
X0062621Y0096507D01*
X0062560Y0096502D01*
X0062500Y0096500D01*
X0055500Y0096500D01*
X0055440Y0096502D01*
X0055379Y0096507D01*
X0055320Y0096516D01*
X0055261Y0096529D01*
X0055202Y0096545D01*
X0055145Y0096565D01*
X0055090Y0096588D01*
X0055035Y0096615D01*
X0054983Y0096644D01*
X0054932Y0096677D01*
X0054883Y0096713D01*
X0054837Y0096751D01*
X0054793Y0096793D01*
X0054751Y0096837D01*
X0054713Y0096883D01*
X0054677Y0096932D01*
X0054644Y0096983D01*
X0054615Y0097035D01*
X0054588Y0097090D01*
X0054565Y0097145D01*
X0054545Y0097202D01*
X0054529Y0097261D01*
X0054516Y0097320D01*
X0054507Y0097379D01*
X0054502Y0097440D01*
X0054500Y0097500D01*
X0054500Y0099000D01*
X0055000Y0099500D01*
X0055000Y0118500D01*
X0054500Y0119000D01*
X0054500Y0120500D01*
X0054502Y0120560D01*
X0054507Y0120621D01*
X0054516Y0120680D01*
X0054529Y0120739D01*
X0054545Y0120798D01*
X0054565Y0120855D01*
X0054588Y0120910D01*
X0054615Y0120965D01*
X0054644Y0121017D01*
X0054677Y0121068D01*
X0054713Y0121117D01*
X0054751Y0121163D01*
X0054793Y0121207D01*
X0054837Y0121249D01*
X0054883Y0121287D01*
X0054932Y0121323D01*
X0054983Y0121356D01*
X0055035Y0121385D01*
X0055090Y0121412D01*
X0055145Y0121435D01*
X0055202Y0121455D01*
X0055261Y0121471D01*
X0055320Y0121484D01*
X0055379Y0121493D01*
X0055440Y0121498D01*
X0055500Y0121500D01*
X0062500Y0121500D01*
X0062560Y0121498D01*
X0062621Y0121493D01*
X0062680Y0121484D01*
X0062739Y0121471D01*
X0062798Y0121455D01*
X0062855Y0121435D01*
X0062910Y0121412D01*
X0062965Y0121385D01*
X0063017Y0121356D01*
X0063068Y0121323D01*
X0063117Y0121287D01*
X0063163Y0121249D01*
X0063207Y0121207D01*
X0063249Y0121163D01*
X0063287Y0121117D01*
X0063323Y0121068D01*
X0063356Y0121017D01*
X0063385Y0120965D01*
X0063412Y0120910D01*
X0063435Y0120855D01*
X0063455Y0120798D01*
X0063471Y0120739D01*
X0063484Y0120680D01*
X0063493Y0120621D01*
X0063498Y0120560D01*
X0063500Y0120500D01*
X0051500Y0121500D02*
X0051500Y0116500D01*
X0049000Y0114000D01*
X0044000Y0114000D01*
X0041500Y0116500D01*
X0041500Y0121500D01*
X0044000Y0124000D01*
X0041500Y0126500D01*
X0041500Y0131500D01*
X0044000Y0134000D01*
X0049000Y0134000D01*
X0051500Y0131500D01*
X0051500Y0126500D01*
X0049000Y0124000D01*
X0051500Y0121500D01*
X0049000Y0124000D02*
X0044000Y0124000D01*
X0044000Y0109000D02*
X0049000Y0109000D01*
X0051500Y0106500D01*
X0051500Y0101500D01*
X0049000Y0099000D01*
X0051500Y0096500D01*
X0051500Y0091500D01*
X0049000Y0089000D01*
X0044000Y0089000D01*
X0041500Y0091500D01*
X0041500Y0096500D01*
X0044000Y0099000D01*
X0041500Y0101500D01*
X0041500Y0106500D01*
X0044000Y0109000D01*
X0044000Y0099000D02*
X0049000Y0099000D01*
X0049000Y0084000D02*
X0044000Y0084000D01*
X0041500Y0081500D01*
X0041500Y0076500D01*
X0044000Y0074000D01*
X0049000Y0074000D01*
X0051500Y0076500D01*
X0051500Y0081500D01*
X0049000Y0084000D01*
X0049000Y0074000D02*
X0051500Y0071500D01*
X0051500Y0066500D01*
X0049000Y0064000D01*
X0051500Y0061500D01*
X0051500Y0056500D01*
X0049000Y0054000D01*
X0051500Y0051500D01*
X0051500Y0046500D01*
X0049000Y0044000D01*
X0044000Y0044000D01*
X0041500Y0046500D01*
X0041500Y0051500D01*
X0044000Y0054000D01*
X0041500Y0056500D01*
X0041500Y0061500D01*
X0044000Y0064000D01*
X0049000Y0064000D01*
X0044000Y0064000D02*
X0041500Y0066500D01*
X0041500Y0071500D01*
X0044000Y0074000D01*
X0044000Y0054000D02*
X0049000Y0054000D01*
X0064500Y0050500D02*
X0064500Y0049000D01*
X0065000Y0048500D01*
X0065000Y0029500D01*
X0064500Y0029000D01*
X0064500Y0027500D01*
X0064502Y0027440D01*
X0064507Y0027379D01*
X0064516Y0027320D01*
X0064529Y0027261D01*
X0064545Y0027202D01*
X0064565Y0027145D01*
X0064588Y0027090D01*
X0064615Y0027035D01*
X0064644Y0026983D01*
X0064677Y0026932D01*
X0064713Y0026883D01*
X0064751Y0026837D01*
X0064793Y0026793D01*
X0064837Y0026751D01*
X0064883Y0026713D01*
X0064932Y0026677D01*
X0064983Y0026644D01*
X0065035Y0026615D01*
X0065090Y0026588D01*
X0065145Y0026565D01*
X0065202Y0026545D01*
X0065261Y0026529D01*
X0065320Y0026516D01*
X0065379Y0026507D01*
X0065440Y0026502D01*
X0065500Y0026500D01*
X0072500Y0026500D01*
X0072560Y0026502D01*
X0072621Y0026507D01*
X0072680Y0026516D01*
X0072739Y0026529D01*
X0072798Y0026545D01*
X0072855Y0026565D01*
X0072910Y0026588D01*
X0072965Y0026615D01*
X0073017Y0026644D01*
X0073068Y0026677D01*
X0073117Y0026713D01*
X0073163Y0026751D01*
X0073207Y0026793D01*
X0073249Y0026837D01*
X0073287Y0026883D01*
X0073323Y0026932D01*
X0073356Y0026983D01*
X0073385Y0027035D01*
X0073412Y0027090D01*
X0073435Y0027145D01*
X0073455Y0027202D01*
X0073471Y0027261D01*
X0073484Y0027320D01*
X0073493Y0027379D01*
X0073498Y0027440D01*
X0073500Y0027500D01*
X0073500Y0029000D01*
X0073000Y0029500D01*
X0073000Y0048500D01*
X0073500Y0049000D01*
X0073500Y0050500D01*
X0073498Y0050560D01*
X0073493Y0050621D01*
X0073484Y0050680D01*
X0073471Y0050739D01*
X0073455Y0050798D01*
X0073435Y0050855D01*
X0073412Y0050910D01*
X0073385Y0050965D01*
X0073356Y0051017D01*
X0073323Y0051068D01*
X0073287Y0051117D01*
X0073249Y0051163D01*
X0073207Y0051207D01*
X0073163Y0051249D01*
X0073117Y0051287D01*
X0073068Y0051323D01*
X0073017Y0051356D01*
X0072965Y0051385D01*
X0072910Y0051412D01*
X0072855Y0051435D01*
X0072798Y0051455D01*
X0072739Y0051471D01*
X0072680Y0051484D01*
X0072621Y0051493D01*
X0072560Y0051498D01*
X0072500Y0051500D01*
X0065500Y0051500D01*
X0065440Y0051498D01*
X0065379Y0051493D01*
X0065320Y0051484D01*
X0065261Y0051471D01*
X0065202Y0051455D01*
X0065145Y0051435D01*
X0065090Y0051412D01*
X0065035Y0051385D01*
X0064983Y0051356D01*
X0064932Y0051323D01*
X0064883Y0051287D01*
X0064837Y0051249D01*
X0064793Y0051207D01*
X0064751Y0051163D01*
X0064713Y0051117D01*
X0064677Y0051068D01*
X0064644Y0051017D01*
X0064615Y0050965D01*
X0064588Y0050910D01*
X0064565Y0050855D01*
X0064545Y0050798D01*
X0064529Y0050739D01*
X0064516Y0050680D01*
X0064507Y0050621D01*
X0064502Y0050560D01*
X0064500Y0050500D01*
X0028000Y0024000D02*
X0028004Y0024331D01*
X0028016Y0024662D01*
X0028037Y0024993D01*
X0028065Y0025323D01*
X0028102Y0025653D01*
X0028146Y0025981D01*
X0028199Y0026308D01*
X0028259Y0026634D01*
X0028328Y0026958D01*
X0028405Y0027280D01*
X0028489Y0027601D01*
X0028581Y0027919D01*
X0028681Y0028235D01*
X0028789Y0028548D01*
X0028905Y0028859D01*
X0029028Y0029166D01*
X0029158Y0029471D01*
X0029296Y0029772D01*
X0029441Y0030070D01*
X0029594Y0030364D01*
X0029754Y0030654D01*
X0029921Y0030940D01*
X0030094Y0031222D01*
X0030275Y0031500D01*
X0030463Y0031773D01*
X0030657Y0032042D01*
X0030857Y0032306D01*
X0031064Y0032564D01*
X0031278Y0032818D01*
X0031497Y0033066D01*
X0031723Y0033309D01*
X0031954Y0033546D01*
X0032191Y0033777D01*
X0032434Y0034003D01*
X0032682Y0034222D01*
X0032936Y0034436D01*
X0033194Y0034643D01*
X0033458Y0034843D01*
X0033727Y0035037D01*
X0034000Y0035225D01*
X0034278Y0035406D01*
X0034560Y0035579D01*
X0034846Y0035746D01*
X0035136Y0035906D01*
X0035430Y0036059D01*
X0035728Y0036204D01*
X0036029Y0036342D01*
X0036334Y0036472D01*
X0036641Y0036595D01*
X0036952Y0036711D01*
X0037265Y0036819D01*
X0037581Y0036919D01*
X0037899Y0037011D01*
X0038220Y0037095D01*
X0038542Y0037172D01*
X0038866Y0037241D01*
X0039192Y0037301D01*
X0039519Y0037354D01*
X0039847Y0037398D01*
X0040177Y0037435D01*
X0040507Y0037463D01*
X0040838Y0037484D01*
X0041169Y0037496D01*
X0041500Y0037500D01*
X0041831Y0037496D01*
X0042162Y0037484D01*
X0042493Y0037463D01*
X0042823Y0037435D01*
X0043153Y0037398D01*
X0043481Y0037354D01*
X0043808Y0037301D01*
X0044134Y0037241D01*
X0044458Y0037172D01*
X0044780Y0037095D01*
X0045101Y0037011D01*
X0045419Y0036919D01*
X0045735Y0036819D01*
X0046048Y0036711D01*
X0046359Y0036595D01*
X0046666Y0036472D01*
X0046971Y0036342D01*
X0047272Y0036204D01*
X0047570Y0036059D01*
X0047864Y0035906D01*
X0048154Y0035746D01*
X0048440Y0035579D01*
X0048722Y0035406D01*
X0049000Y0035225D01*
X0049273Y0035037D01*
X0049542Y0034843D01*
X0049806Y0034643D01*
X0050064Y0034436D01*
X0050318Y0034222D01*
X0050566Y0034003D01*
X0050809Y0033777D01*
X0051046Y0033546D01*
X0051277Y0033309D01*
X0051503Y0033066D01*
X0051722Y0032818D01*
X0051936Y0032564D01*
X0052143Y0032306D01*
X0052343Y0032042D01*
X0052537Y0031773D01*
X0052725Y0031500D01*
X0052906Y0031222D01*
X0053079Y0030940D01*
X0053246Y0030654D01*
X0053406Y0030364D01*
X0053559Y0030070D01*
X0053704Y0029772D01*
X0053842Y0029471D01*
X0053972Y0029166D01*
X0054095Y0028859D01*
X0054211Y0028548D01*
X0054319Y0028235D01*
X0054419Y0027919D01*
X0054511Y0027601D01*
X0054595Y0027280D01*
X0054672Y0026958D01*
X0054741Y0026634D01*
X0054801Y0026308D01*
X0054854Y0025981D01*
X0054898Y0025653D01*
X0054935Y0025323D01*
X0054963Y0024993D01*
X0054984Y0024662D01*
X0054996Y0024331D01*
X0055000Y0024000D01*
X0054996Y0023669D01*
X0054984Y0023338D01*
X0054963Y0023007D01*
X0054935Y0022677D01*
X0054898Y0022347D01*
X0054854Y0022019D01*
X0054801Y0021692D01*
X0054741Y0021366D01*
X0054672Y0021042D01*
X0054595Y0020720D01*
X0054511Y0020399D01*
X0054419Y0020081D01*
X0054319Y0019765D01*
X0054211Y0019452D01*
X0054095Y0019141D01*
X0053972Y0018834D01*
X0053842Y0018529D01*
X0053704Y0018228D01*
X0053559Y0017930D01*
X0053406Y0017636D01*
X0053246Y0017346D01*
X0053079Y0017060D01*
X0052906Y0016778D01*
X0052725Y0016500D01*
X0052537Y0016227D01*
X0052343Y0015958D01*
X0052143Y0015694D01*
X0051936Y0015436D01*
X0051722Y0015182D01*
X0051503Y0014934D01*
X0051277Y0014691D01*
X0051046Y0014454D01*
X0050809Y0014223D01*
X0050566Y0013997D01*
X0050318Y0013778D01*
X0050064Y0013564D01*
X0049806Y0013357D01*
X0049542Y0013157D01*
X0049273Y0012963D01*
X0049000Y0012775D01*
X0048722Y0012594D01*
X0048440Y0012421D01*
X0048154Y0012254D01*
X0047864Y0012094D01*
X0047570Y0011941D01*
X0047272Y0011796D01*
X0046971Y0011658D01*
X0046666Y0011528D01*
X0046359Y0011405D01*
X0046048Y0011289D01*
X0045735Y0011181D01*
X0045419Y0011081D01*
X0045101Y0010989D01*
X0044780Y0010905D01*
X0044458Y0010828D01*
X0044134Y0010759D01*
X0043808Y0010699D01*
X0043481Y0010646D01*
X0043153Y0010602D01*
X0042823Y0010565D01*
X0042493Y0010537D01*
X0042162Y0010516D01*
X0041831Y0010504D01*
X0041500Y0010500D01*
X0041169Y0010504D01*
X0040838Y0010516D01*
X0040507Y0010537D01*
X0040177Y0010565D01*
X0039847Y0010602D01*
X0039519Y0010646D01*
X0039192Y0010699D01*
X0038866Y0010759D01*
X0038542Y0010828D01*
X0038220Y0010905D01*
X0037899Y0010989D01*
X0037581Y0011081D01*
X0037265Y0011181D01*
X0036952Y0011289D01*
X0036641Y0011405D01*
X0036334Y0011528D01*
X0036029Y0011658D01*
X0035728Y0011796D01*
X0035430Y0011941D01*
X0035136Y0012094D01*
X0034846Y0012254D01*
X0034560Y0012421D01*
X0034278Y0012594D01*
X0034000Y0012775D01*
X0033727Y0012963D01*
X0033458Y0013157D01*
X0033194Y0013357D01*
X0032936Y0013564D01*
X0032682Y0013778D01*
X0032434Y0013997D01*
X0032191Y0014223D01*
X0031954Y0014454D01*
X0031723Y0014691D01*
X0031497Y0014934D01*
X0031278Y0015182D01*
X0031064Y0015436D01*
X0030857Y0015694D01*
X0030657Y0015958D01*
X0030463Y0016227D01*
X0030275Y0016500D01*
X0030094Y0016778D01*
X0029921Y0017060D01*
X0029754Y0017346D01*
X0029594Y0017636D01*
X0029441Y0017930D01*
X0029296Y0018228D01*
X0029158Y0018529D01*
X0029028Y0018834D01*
X0028905Y0019141D01*
X0028789Y0019452D01*
X0028681Y0019765D01*
X0028581Y0020081D01*
X0028489Y0020399D01*
X0028405Y0020720D01*
X0028328Y0021042D01*
X0028259Y0021366D01*
X0028199Y0021692D01*
X0028146Y0022019D01*
X0028102Y0022347D01*
X0028065Y0022677D01*
X0028037Y0023007D01*
X0028016Y0023338D01*
X0028004Y0023669D01*
X0028000Y0024000D01*
X0121500Y0021500D02*
X0121500Y0026500D01*
X0124000Y0029000D01*
X0139000Y0029000D01*
X0141500Y0031500D01*
X0141500Y0036500D01*
X0139000Y0039000D01*
X0141500Y0041500D01*
X0141500Y0046500D01*
X0139000Y0049000D01*
X0124000Y0049000D01*
X0121500Y0046500D01*
X0121500Y0041500D01*
X0124000Y0039000D01*
X0139000Y0039000D01*
X0134000Y0039000D02*
X0131500Y0041500D01*
X0131500Y0046500D01*
X0134000Y0049000D01*
X0149000Y0049000D01*
X0151500Y0046500D01*
X0151500Y0041500D01*
X0149000Y0039000D01*
X0134000Y0039000D01*
X0131500Y0036500D01*
X0131500Y0031500D01*
X0134000Y0029000D01*
X0149000Y0029000D01*
X0151500Y0031500D01*
X0151500Y0036500D01*
X0149000Y0039000D01*
X0149000Y0029000D02*
X0151500Y0026500D01*
X0151500Y0021500D01*
X0149000Y0019000D01*
X0134000Y0019000D01*
X0131500Y0021500D01*
X0131500Y0026500D01*
X0134000Y0029000D01*
X0139000Y0029000D02*
X0141500Y0026500D01*
X0141500Y0021500D01*
X0139000Y0019000D01*
X0124000Y0019000D01*
X0121500Y0021500D01*
X0124000Y0029000D02*
X0121500Y0031500D01*
X0121500Y0036500D01*
X0124000Y0039000D01*
X0164000Y0046500D02*
X0166500Y0044000D01*
X0171500Y0044000D01*
X0174000Y0046500D01*
X0174000Y0051500D01*
X0171500Y0054000D01*
X0174000Y0056500D01*
X0174000Y0061500D01*
X0171500Y0064000D01*
X0166500Y0064000D01*
X0164000Y0061500D01*
X0164000Y0056500D01*
X0166500Y0054000D01*
X0171500Y0054000D01*
X0166500Y0054000D02*
X0164000Y0051500D01*
X0164000Y0046500D01*
X0166500Y0064000D02*
X0164000Y0066500D01*
X0164000Y0071500D01*
X0166500Y0074000D01*
X0164000Y0076500D01*
X0164000Y0081500D01*
X0166500Y0084000D01*
X0171500Y0084000D01*
X0174000Y0081500D01*
X0174000Y0076500D01*
X0171500Y0074000D01*
X0174000Y0071500D01*
X0174000Y0066500D01*
X0171500Y0064000D01*
X0171500Y0074000D02*
X0166500Y0074000D01*
X0149000Y0079000D02*
X0144000Y0079000D01*
X0129000Y0079000D02*
X0124000Y0079000D01*
X0160500Y0024000D02*
X0160504Y0024331D01*
X0160516Y0024662D01*
X0160537Y0024993D01*
X0160565Y0025323D01*
X0160602Y0025653D01*
X0160646Y0025981D01*
X0160699Y0026308D01*
X0160759Y0026634D01*
X0160828Y0026958D01*
X0160905Y0027280D01*
X0160989Y0027601D01*
X0161081Y0027919D01*
X0161181Y0028235D01*
X0161289Y0028548D01*
X0161405Y0028859D01*
X0161528Y0029166D01*
X0161658Y0029471D01*
X0161796Y0029772D01*
X0161941Y0030070D01*
X0162094Y0030364D01*
X0162254Y0030654D01*
X0162421Y0030940D01*
X0162594Y0031222D01*
X0162775Y0031500D01*
X0162963Y0031773D01*
X0163157Y0032042D01*
X0163357Y0032306D01*
X0163564Y0032564D01*
X0163778Y0032818D01*
X0163997Y0033066D01*
X0164223Y0033309D01*
X0164454Y0033546D01*
X0164691Y0033777D01*
X0164934Y0034003D01*
X0165182Y0034222D01*
X0165436Y0034436D01*
X0165694Y0034643D01*
X0165958Y0034843D01*
X0166227Y0035037D01*
X0166500Y0035225D01*
X0166778Y0035406D01*
X0167060Y0035579D01*
X0167346Y0035746D01*
X0167636Y0035906D01*
X0167930Y0036059D01*
X0168228Y0036204D01*
X0168529Y0036342D01*
X0168834Y0036472D01*
X0169141Y0036595D01*
X0169452Y0036711D01*
X0169765Y0036819D01*
X0170081Y0036919D01*
X0170399Y0037011D01*
X0170720Y0037095D01*
X0171042Y0037172D01*
X0171366Y0037241D01*
X0171692Y0037301D01*
X0172019Y0037354D01*
X0172347Y0037398D01*
X0172677Y0037435D01*
X0173007Y0037463D01*
X0173338Y0037484D01*
X0173669Y0037496D01*
X0174000Y0037500D01*
X0174331Y0037496D01*
X0174662Y0037484D01*
X0174993Y0037463D01*
X0175323Y0037435D01*
X0175653Y0037398D01*
X0175981Y0037354D01*
X0176308Y0037301D01*
X0176634Y0037241D01*
X0176958Y0037172D01*
X0177280Y0037095D01*
X0177601Y0037011D01*
X0177919Y0036919D01*
X0178235Y0036819D01*
X0178548Y0036711D01*
X0178859Y0036595D01*
X0179166Y0036472D01*
X0179471Y0036342D01*
X0179772Y0036204D01*
X0180070Y0036059D01*
X0180364Y0035906D01*
X0180654Y0035746D01*
X0180940Y0035579D01*
X0181222Y0035406D01*
X0181500Y0035225D01*
X0181773Y0035037D01*
X0182042Y0034843D01*
X0182306Y0034643D01*
X0182564Y0034436D01*
X0182818Y0034222D01*
X0183066Y0034003D01*
X0183309Y0033777D01*
X0183546Y0033546D01*
X0183777Y0033309D01*
X0184003Y0033066D01*
X0184222Y0032818D01*
X0184436Y0032564D01*
X0184643Y0032306D01*
X0184843Y0032042D01*
X0185037Y0031773D01*
X0185225Y0031500D01*
X0185406Y0031222D01*
X0185579Y0030940D01*
X0185746Y0030654D01*
X0185906Y0030364D01*
X0186059Y0030070D01*
X0186204Y0029772D01*
X0186342Y0029471D01*
X0186472Y0029166D01*
X0186595Y0028859D01*
X0186711Y0028548D01*
X0186819Y0028235D01*
X0186919Y0027919D01*
X0187011Y0027601D01*
X0187095Y0027280D01*
X0187172Y0026958D01*
X0187241Y0026634D01*
X0187301Y0026308D01*
X0187354Y0025981D01*
X0187398Y0025653D01*
X0187435Y0025323D01*
X0187463Y0024993D01*
X0187484Y0024662D01*
X0187496Y0024331D01*
X0187500Y0024000D01*
X0187496Y0023669D01*
X0187484Y0023338D01*
X0187463Y0023007D01*
X0187435Y0022677D01*
X0187398Y0022347D01*
X0187354Y0022019D01*
X0187301Y0021692D01*
X0187241Y0021366D01*
X0187172Y0021042D01*
X0187095Y0020720D01*
X0187011Y0020399D01*
X0186919Y0020081D01*
X0186819Y0019765D01*
X0186711Y0019452D01*
X0186595Y0019141D01*
X0186472Y0018834D01*
X0186342Y0018529D01*
X0186204Y0018228D01*
X0186059Y0017930D01*
X0185906Y0017636D01*
X0185746Y0017346D01*
X0185579Y0017060D01*
X0185406Y0016778D01*
X0185225Y0016500D01*
X0185037Y0016227D01*
X0184843Y0015958D01*
X0184643Y0015694D01*
X0184436Y0015436D01*
X0184222Y0015182D01*
X0184003Y0014934D01*
X0183777Y0014691D01*
X0183546Y0014454D01*
X0183309Y0014223D01*
X0183066Y0013997D01*
X0182818Y0013778D01*
X0182564Y0013564D01*
X0182306Y0013357D01*
X0182042Y0013157D01*
X0181773Y0012963D01*
X0181500Y0012775D01*
X0181222Y0012594D01*
X0180940Y0012421D01*
X0180654Y0012254D01*
X0180364Y0012094D01*
X0180070Y0011941D01*
X0179772Y0011796D01*
X0179471Y0011658D01*
X0179166Y0011528D01*
X0178859Y0011405D01*
X0178548Y0011289D01*
X0178235Y0011181D01*
X0177919Y0011081D01*
X0177601Y0010989D01*
X0177280Y0010905D01*
X0176958Y0010828D01*
X0176634Y0010759D01*
X0176308Y0010699D01*
X0175981Y0010646D01*
X0175653Y0010602D01*
X0175323Y0010565D01*
X0174993Y0010537D01*
X0174662Y0010516D01*
X0174331Y0010504D01*
X0174000Y0010500D01*
X0173669Y0010504D01*
X0173338Y0010516D01*
X0173007Y0010537D01*
X0172677Y0010565D01*
X0172347Y0010602D01*
X0172019Y0010646D01*
X0171692Y0010699D01*
X0171366Y0010759D01*
X0171042Y0010828D01*
X0170720Y0010905D01*
X0170399Y0010989D01*
X0170081Y0011081D01*
X0169765Y0011181D01*
X0169452Y0011289D01*
X0169141Y0011405D01*
X0168834Y0011528D01*
X0168529Y0011658D01*
X0168228Y0011796D01*
X0167930Y0011941D01*
X0167636Y0012094D01*
X0167346Y0012254D01*
X0167060Y0012421D01*
X0166778Y0012594D01*
X0166500Y0012775D01*
X0166227Y0012963D01*
X0165958Y0013157D01*
X0165694Y0013357D01*
X0165436Y0013564D01*
X0165182Y0013778D01*
X0164934Y0013997D01*
X0164691Y0014223D01*
X0164454Y0014454D01*
X0164223Y0014691D01*
X0163997Y0014934D01*
X0163778Y0015182D01*
X0163564Y0015436D01*
X0163357Y0015694D01*
X0163157Y0015958D01*
X0162963Y0016227D01*
X0162775Y0016500D01*
X0162594Y0016778D01*
X0162421Y0017060D01*
X0162254Y0017346D01*
X0162094Y0017636D01*
X0161941Y0017930D01*
X0161796Y0018228D01*
X0161658Y0018529D01*
X0161528Y0018834D01*
X0161405Y0019141D01*
X0161289Y0019452D01*
X0161181Y0019765D01*
X0161081Y0020081D01*
X0160989Y0020399D01*
X0160905Y0020720D01*
X0160828Y0021042D01*
X0160759Y0021366D01*
X0160699Y0021692D01*
X0160646Y0022019D01*
X0160602Y0022347D01*
X0160565Y0022677D01*
X0160537Y0023007D01*
X0160516Y0023338D01*
X0160504Y0023669D01*
X0160500Y0024000D01*
X0028000Y0154000D02*
X0028004Y0154331D01*
X0028016Y0154662D01*
X0028037Y0154993D01*
X0028065Y0155323D01*
X0028102Y0155653D01*
X0028146Y0155981D01*
X0028199Y0156308D01*
X0028259Y0156634D01*
X0028328Y0156958D01*
X0028405Y0157280D01*
X0028489Y0157601D01*
X0028581Y0157919D01*
X0028681Y0158235D01*
X0028789Y0158548D01*
X0028905Y0158859D01*
X0029028Y0159166D01*
X0029158Y0159471D01*
X0029296Y0159772D01*
X0029441Y0160070D01*
X0029594Y0160364D01*
X0029754Y0160654D01*
X0029921Y0160940D01*
X0030094Y0161222D01*
X0030275Y0161500D01*
X0030463Y0161773D01*
X0030657Y0162042D01*
X0030857Y0162306D01*
X0031064Y0162564D01*
X0031278Y0162818D01*
X0031497Y0163066D01*
X0031723Y0163309D01*
X0031954Y0163546D01*
X0032191Y0163777D01*
X0032434Y0164003D01*
X0032682Y0164222D01*
X0032936Y0164436D01*
X0033194Y0164643D01*
X0033458Y0164843D01*
X0033727Y0165037D01*
X0034000Y0165225D01*
X0034278Y0165406D01*
X0034560Y0165579D01*
X0034846Y0165746D01*
X0035136Y0165906D01*
X0035430Y0166059D01*
X0035728Y0166204D01*
X0036029Y0166342D01*
X0036334Y0166472D01*
X0036641Y0166595D01*
X0036952Y0166711D01*
X0037265Y0166819D01*
X0037581Y0166919D01*
X0037899Y0167011D01*
X0038220Y0167095D01*
X0038542Y0167172D01*
X0038866Y0167241D01*
X0039192Y0167301D01*
X0039519Y0167354D01*
X0039847Y0167398D01*
X0040177Y0167435D01*
X0040507Y0167463D01*
X0040838Y0167484D01*
X0041169Y0167496D01*
X0041500Y0167500D01*
X0041831Y0167496D01*
X0042162Y0167484D01*
X0042493Y0167463D01*
X0042823Y0167435D01*
X0043153Y0167398D01*
X0043481Y0167354D01*
X0043808Y0167301D01*
X0044134Y0167241D01*
X0044458Y0167172D01*
X0044780Y0167095D01*
X0045101Y0167011D01*
X0045419Y0166919D01*
X0045735Y0166819D01*
X0046048Y0166711D01*
X0046359Y0166595D01*
X0046666Y0166472D01*
X0046971Y0166342D01*
X0047272Y0166204D01*
X0047570Y0166059D01*
X0047864Y0165906D01*
X0048154Y0165746D01*
X0048440Y0165579D01*
X0048722Y0165406D01*
X0049000Y0165225D01*
X0049273Y0165037D01*
X0049542Y0164843D01*
X0049806Y0164643D01*
X0050064Y0164436D01*
X0050318Y0164222D01*
X0050566Y0164003D01*
X0050809Y0163777D01*
X0051046Y0163546D01*
X0051277Y0163309D01*
X0051503Y0163066D01*
X0051722Y0162818D01*
X0051936Y0162564D01*
X0052143Y0162306D01*
X0052343Y0162042D01*
X0052537Y0161773D01*
X0052725Y0161500D01*
X0052906Y0161222D01*
X0053079Y0160940D01*
X0053246Y0160654D01*
X0053406Y0160364D01*
X0053559Y0160070D01*
X0053704Y0159772D01*
X0053842Y0159471D01*
X0053972Y0159166D01*
X0054095Y0158859D01*
X0054211Y0158548D01*
X0054319Y0158235D01*
X0054419Y0157919D01*
X0054511Y0157601D01*
X0054595Y0157280D01*
X0054672Y0156958D01*
X0054741Y0156634D01*
X0054801Y0156308D01*
X0054854Y0155981D01*
X0054898Y0155653D01*
X0054935Y0155323D01*
X0054963Y0154993D01*
X0054984Y0154662D01*
X0054996Y0154331D01*
X0055000Y0154000D01*
X0054996Y0153669D01*
X0054984Y0153338D01*
X0054963Y0153007D01*
X0054935Y0152677D01*
X0054898Y0152347D01*
X0054854Y0152019D01*
X0054801Y0151692D01*
X0054741Y0151366D01*
X0054672Y0151042D01*
X0054595Y0150720D01*
X0054511Y0150399D01*
X0054419Y0150081D01*
X0054319Y0149765D01*
X0054211Y0149452D01*
X0054095Y0149141D01*
X0053972Y0148834D01*
X0053842Y0148529D01*
X0053704Y0148228D01*
X0053559Y0147930D01*
X0053406Y0147636D01*
X0053246Y0147346D01*
X0053079Y0147060D01*
X0052906Y0146778D01*
X0052725Y0146500D01*
X0052537Y0146227D01*
X0052343Y0145958D01*
X0052143Y0145694D01*
X0051936Y0145436D01*
X0051722Y0145182D01*
X0051503Y0144934D01*
X0051277Y0144691D01*
X0051046Y0144454D01*
X0050809Y0144223D01*
X0050566Y0143997D01*
X0050318Y0143778D01*
X0050064Y0143564D01*
X0049806Y0143357D01*
X0049542Y0143157D01*
X0049273Y0142963D01*
X0049000Y0142775D01*
X0048722Y0142594D01*
X0048440Y0142421D01*
X0048154Y0142254D01*
X0047864Y0142094D01*
X0047570Y0141941D01*
X0047272Y0141796D01*
X0046971Y0141658D01*
X0046666Y0141528D01*
X0046359Y0141405D01*
X0046048Y0141289D01*
X0045735Y0141181D01*
X0045419Y0141081D01*
X0045101Y0140989D01*
X0044780Y0140905D01*
X0044458Y0140828D01*
X0044134Y0140759D01*
X0043808Y0140699D01*
X0043481Y0140646D01*
X0043153Y0140602D01*
X0042823Y0140565D01*
X0042493Y0140537D01*
X0042162Y0140516D01*
X0041831Y0140504D01*
X0041500Y0140500D01*
X0041169Y0140504D01*
X0040838Y0140516D01*
X0040507Y0140537D01*
X0040177Y0140565D01*
X0039847Y0140602D01*
X0039519Y0140646D01*
X0039192Y0140699D01*
X0038866Y0140759D01*
X0038542Y0140828D01*
X0038220Y0140905D01*
X0037899Y0140989D01*
X0037581Y0141081D01*
X0037265Y0141181D01*
X0036952Y0141289D01*
X0036641Y0141405D01*
X0036334Y0141528D01*
X0036029Y0141658D01*
X0035728Y0141796D01*
X0035430Y0141941D01*
X0035136Y0142094D01*
X0034846Y0142254D01*
X0034560Y0142421D01*
X0034278Y0142594D01*
X0034000Y0142775D01*
X0033727Y0142963D01*
X0033458Y0143157D01*
X0033194Y0143357D01*
X0032936Y0143564D01*
X0032682Y0143778D01*
X0032434Y0143997D01*
X0032191Y0144223D01*
X0031954Y0144454D01*
X0031723Y0144691D01*
X0031497Y0144934D01*
X0031278Y0145182D01*
X0031064Y0145436D01*
X0030857Y0145694D01*
X0030657Y0145958D01*
X0030463Y0146227D01*
X0030275Y0146500D01*
X0030094Y0146778D01*
X0029921Y0147060D01*
X0029754Y0147346D01*
X0029594Y0147636D01*
X0029441Y0147930D01*
X0029296Y0148228D01*
X0029158Y0148529D01*
X0029028Y0148834D01*
X0028905Y0149141D01*
X0028789Y0149452D01*
X0028681Y0149765D01*
X0028581Y0150081D01*
X0028489Y0150399D01*
X0028405Y0150720D01*
X0028328Y0151042D01*
X0028259Y0151366D01*
X0028199Y0151692D01*
X0028146Y0152019D01*
X0028102Y0152347D01*
X0028065Y0152677D01*
X0028037Y0153007D01*
X0028016Y0153338D01*
X0028004Y0153669D01*
X0028000Y0154000D01*
D14*
X0034807Y0154000D02*
X0034809Y0154164D01*
X0034815Y0154328D01*
X0034825Y0154492D01*
X0034839Y0154656D01*
X0034857Y0154819D01*
X0034879Y0154982D01*
X0034906Y0155144D01*
X0034936Y0155306D01*
X0034970Y0155466D01*
X0035008Y0155626D01*
X0035049Y0155785D01*
X0035095Y0155943D01*
X0035145Y0156099D01*
X0035198Y0156255D01*
X0035255Y0156409D01*
X0035316Y0156561D01*
X0035381Y0156712D01*
X0035450Y0156862D01*
X0035522Y0157009D01*
X0035597Y0157155D01*
X0035677Y0157299D01*
X0035759Y0157441D01*
X0035845Y0157581D01*
X0035935Y0157718D01*
X0036028Y0157854D01*
X0036124Y0157987D01*
X0036224Y0158118D01*
X0036326Y0158246D01*
X0036432Y0158372D01*
X0036541Y0158495D01*
X0036653Y0158615D01*
X0036767Y0158733D01*
X0036885Y0158847D01*
X0037005Y0158959D01*
X0037128Y0159068D01*
X0037254Y0159174D01*
X0037382Y0159276D01*
X0037513Y0159376D01*
X0037646Y0159472D01*
X0037782Y0159565D01*
X0037919Y0159655D01*
X0038059Y0159741D01*
X0038201Y0159823D01*
X0038345Y0159903D01*
X0038491Y0159978D01*
X0038638Y0160050D01*
X0038788Y0160119D01*
X0038939Y0160184D01*
X0039091Y0160245D01*
X0039245Y0160302D01*
X0039401Y0160355D01*
X0039557Y0160405D01*
X0039715Y0160451D01*
X0039874Y0160492D01*
X0040034Y0160530D01*
X0040194Y0160564D01*
X0040356Y0160594D01*
X0040518Y0160621D01*
X0040681Y0160643D01*
X0040844Y0160661D01*
X0041008Y0160675D01*
X0041172Y0160685D01*
X0041336Y0160691D01*
X0041500Y0160693D01*
X0041664Y0160691D01*
X0041828Y0160685D01*
X0041992Y0160675D01*
X0042156Y0160661D01*
X0042319Y0160643D01*
X0042482Y0160621D01*
X0042644Y0160594D01*
X0042806Y0160564D01*
X0042966Y0160530D01*
X0043126Y0160492D01*
X0043285Y0160451D01*
X0043443Y0160405D01*
X0043599Y0160355D01*
X0043755Y0160302D01*
X0043909Y0160245D01*
X0044061Y0160184D01*
X0044212Y0160119D01*
X0044362Y0160050D01*
X0044509Y0159978D01*
X0044655Y0159903D01*
X0044799Y0159823D01*
X0044941Y0159741D01*
X0045081Y0159655D01*
X0045218Y0159565D01*
X0045354Y0159472D01*
X0045487Y0159376D01*
X0045618Y0159276D01*
X0045746Y0159174D01*
X0045872Y0159068D01*
X0045995Y0158959D01*
X0046115Y0158847D01*
X0046233Y0158733D01*
X0046347Y0158615D01*
X0046459Y0158495D01*
X0046568Y0158372D01*
X0046674Y0158246D01*
X0046776Y0158118D01*
X0046876Y0157987D01*
X0046972Y0157854D01*
X0047065Y0157718D01*
X0047155Y0157581D01*
X0047241Y0157441D01*
X0047323Y0157299D01*
X0047403Y0157155D01*
X0047478Y0157009D01*
X0047550Y0156862D01*
X0047619Y0156712D01*
X0047684Y0156561D01*
X0047745Y0156409D01*
X0047802Y0156255D01*
X0047855Y0156099D01*
X0047905Y0155943D01*
X0047951Y0155785D01*
X0047992Y0155626D01*
X0048030Y0155466D01*
X0048064Y0155306D01*
X0048094Y0155144D01*
X0048121Y0154982D01*
X0048143Y0154819D01*
X0048161Y0154656D01*
X0048175Y0154492D01*
X0048185Y0154328D01*
X0048191Y0154164D01*
X0048193Y0154000D01*
X0048191Y0153836D01*
X0048185Y0153672D01*
X0048175Y0153508D01*
X0048161Y0153344D01*
X0048143Y0153181D01*
X0048121Y0153018D01*
X0048094Y0152856D01*
X0048064Y0152694D01*
X0048030Y0152534D01*
X0047992Y0152374D01*
X0047951Y0152215D01*
X0047905Y0152057D01*
X0047855Y0151901D01*
X0047802Y0151745D01*
X0047745Y0151591D01*
X0047684Y0151439D01*
X0047619Y0151288D01*
X0047550Y0151138D01*
X0047478Y0150991D01*
X0047403Y0150845D01*
X0047323Y0150701D01*
X0047241Y0150559D01*
X0047155Y0150419D01*
X0047065Y0150282D01*
X0046972Y0150146D01*
X0046876Y0150013D01*
X0046776Y0149882D01*
X0046674Y0149754D01*
X0046568Y0149628D01*
X0046459Y0149505D01*
X0046347Y0149385D01*
X0046233Y0149267D01*
X0046115Y0149153D01*
X0045995Y0149041D01*
X0045872Y0148932D01*
X0045746Y0148826D01*
X0045618Y0148724D01*
X0045487Y0148624D01*
X0045354Y0148528D01*
X0045218Y0148435D01*
X0045081Y0148345D01*
X0044941Y0148259D01*
X0044799Y0148177D01*
X0044655Y0148097D01*
X0044509Y0148022D01*
X0044362Y0147950D01*
X0044212Y0147881D01*
X0044061Y0147816D01*
X0043909Y0147755D01*
X0043755Y0147698D01*
X0043599Y0147645D01*
X0043443Y0147595D01*
X0043285Y0147549D01*
X0043126Y0147508D01*
X0042966Y0147470D01*
X0042806Y0147436D01*
X0042644Y0147406D01*
X0042482Y0147379D01*
X0042319Y0147357D01*
X0042156Y0147339D01*
X0041992Y0147325D01*
X0041828Y0147315D01*
X0041664Y0147309D01*
X0041500Y0147307D01*
X0041336Y0147309D01*
X0041172Y0147315D01*
X0041008Y0147325D01*
X0040844Y0147339D01*
X0040681Y0147357D01*
X0040518Y0147379D01*
X0040356Y0147406D01*
X0040194Y0147436D01*
X0040034Y0147470D01*
X0039874Y0147508D01*
X0039715Y0147549D01*
X0039557Y0147595D01*
X0039401Y0147645D01*
X0039245Y0147698D01*
X0039091Y0147755D01*
X0038939Y0147816D01*
X0038788Y0147881D01*
X0038638Y0147950D01*
X0038491Y0148022D01*
X0038345Y0148097D01*
X0038201Y0148177D01*
X0038059Y0148259D01*
X0037919Y0148345D01*
X0037782Y0148435D01*
X0037646Y0148528D01*
X0037513Y0148624D01*
X0037382Y0148724D01*
X0037254Y0148826D01*
X0037128Y0148932D01*
X0037005Y0149041D01*
X0036885Y0149153D01*
X0036767Y0149267D01*
X0036653Y0149385D01*
X0036541Y0149505D01*
X0036432Y0149628D01*
X0036326Y0149754D01*
X0036224Y0149882D01*
X0036124Y0150013D01*
X0036028Y0150146D01*
X0035935Y0150282D01*
X0035845Y0150419D01*
X0035759Y0150559D01*
X0035677Y0150701D01*
X0035597Y0150845D01*
X0035522Y0150991D01*
X0035450Y0151138D01*
X0035381Y0151288D01*
X0035316Y0151439D01*
X0035255Y0151591D01*
X0035198Y0151745D01*
X0035145Y0151901D01*
X0035095Y0152057D01*
X0035049Y0152215D01*
X0035008Y0152374D01*
X0034970Y0152534D01*
X0034936Y0152694D01*
X0034906Y0152856D01*
X0034879Y0153018D01*
X0034857Y0153181D01*
X0034839Y0153344D01*
X0034825Y0153508D01*
X0034815Y0153672D01*
X0034809Y0153836D01*
X0034807Y0154000D01*
X0167307Y0154000D02*
X0167309Y0154164D01*
X0167315Y0154328D01*
X0167325Y0154492D01*
X0167339Y0154656D01*
X0167357Y0154819D01*
X0167379Y0154982D01*
X0167406Y0155144D01*
X0167436Y0155306D01*
X0167470Y0155466D01*
X0167508Y0155626D01*
X0167549Y0155785D01*
X0167595Y0155943D01*
X0167645Y0156099D01*
X0167698Y0156255D01*
X0167755Y0156409D01*
X0167816Y0156561D01*
X0167881Y0156712D01*
X0167950Y0156862D01*
X0168022Y0157009D01*
X0168097Y0157155D01*
X0168177Y0157299D01*
X0168259Y0157441D01*
X0168345Y0157581D01*
X0168435Y0157718D01*
X0168528Y0157854D01*
X0168624Y0157987D01*
X0168724Y0158118D01*
X0168826Y0158246D01*
X0168932Y0158372D01*
X0169041Y0158495D01*
X0169153Y0158615D01*
X0169267Y0158733D01*
X0169385Y0158847D01*
X0169505Y0158959D01*
X0169628Y0159068D01*
X0169754Y0159174D01*
X0169882Y0159276D01*
X0170013Y0159376D01*
X0170146Y0159472D01*
X0170282Y0159565D01*
X0170419Y0159655D01*
X0170559Y0159741D01*
X0170701Y0159823D01*
X0170845Y0159903D01*
X0170991Y0159978D01*
X0171138Y0160050D01*
X0171288Y0160119D01*
X0171439Y0160184D01*
X0171591Y0160245D01*
X0171745Y0160302D01*
X0171901Y0160355D01*
X0172057Y0160405D01*
X0172215Y0160451D01*
X0172374Y0160492D01*
X0172534Y0160530D01*
X0172694Y0160564D01*
X0172856Y0160594D01*
X0173018Y0160621D01*
X0173181Y0160643D01*
X0173344Y0160661D01*
X0173508Y0160675D01*
X0173672Y0160685D01*
X0173836Y0160691D01*
X0174000Y0160693D01*
X0174164Y0160691D01*
X0174328Y0160685D01*
X0174492Y0160675D01*
X0174656Y0160661D01*
X0174819Y0160643D01*
X0174982Y0160621D01*
X0175144Y0160594D01*
X0175306Y0160564D01*
X0175466Y0160530D01*
X0175626Y0160492D01*
X0175785Y0160451D01*
X0175943Y0160405D01*
X0176099Y0160355D01*
X0176255Y0160302D01*
X0176409Y0160245D01*
X0176561Y0160184D01*
X0176712Y0160119D01*
X0176862Y0160050D01*
X0177009Y0159978D01*
X0177155Y0159903D01*
X0177299Y0159823D01*
X0177441Y0159741D01*
X0177581Y0159655D01*
X0177718Y0159565D01*
X0177854Y0159472D01*
X0177987Y0159376D01*
X0178118Y0159276D01*
X0178246Y0159174D01*
X0178372Y0159068D01*
X0178495Y0158959D01*
X0178615Y0158847D01*
X0178733Y0158733D01*
X0178847Y0158615D01*
X0178959Y0158495D01*
X0179068Y0158372D01*
X0179174Y0158246D01*
X0179276Y0158118D01*
X0179376Y0157987D01*
X0179472Y0157854D01*
X0179565Y0157718D01*
X0179655Y0157581D01*
X0179741Y0157441D01*
X0179823Y0157299D01*
X0179903Y0157155D01*
X0179978Y0157009D01*
X0180050Y0156862D01*
X0180119Y0156712D01*
X0180184Y0156561D01*
X0180245Y0156409D01*
X0180302Y0156255D01*
X0180355Y0156099D01*
X0180405Y0155943D01*
X0180451Y0155785D01*
X0180492Y0155626D01*
X0180530Y0155466D01*
X0180564Y0155306D01*
X0180594Y0155144D01*
X0180621Y0154982D01*
X0180643Y0154819D01*
X0180661Y0154656D01*
X0180675Y0154492D01*
X0180685Y0154328D01*
X0180691Y0154164D01*
X0180693Y0154000D01*
X0180691Y0153836D01*
X0180685Y0153672D01*
X0180675Y0153508D01*
X0180661Y0153344D01*
X0180643Y0153181D01*
X0180621Y0153018D01*
X0180594Y0152856D01*
X0180564Y0152694D01*
X0180530Y0152534D01*
X0180492Y0152374D01*
X0180451Y0152215D01*
X0180405Y0152057D01*
X0180355Y0151901D01*
X0180302Y0151745D01*
X0180245Y0151591D01*
X0180184Y0151439D01*
X0180119Y0151288D01*
X0180050Y0151138D01*
X0179978Y0150991D01*
X0179903Y0150845D01*
X0179823Y0150701D01*
X0179741Y0150559D01*
X0179655Y0150419D01*
X0179565Y0150282D01*
X0179472Y0150146D01*
X0179376Y0150013D01*
X0179276Y0149882D01*
X0179174Y0149754D01*
X0179068Y0149628D01*
X0178959Y0149505D01*
X0178847Y0149385D01*
X0178733Y0149267D01*
X0178615Y0149153D01*
X0178495Y0149041D01*
X0178372Y0148932D01*
X0178246Y0148826D01*
X0178118Y0148724D01*
X0177987Y0148624D01*
X0177854Y0148528D01*
X0177718Y0148435D01*
X0177581Y0148345D01*
X0177441Y0148259D01*
X0177299Y0148177D01*
X0177155Y0148097D01*
X0177009Y0148022D01*
X0176862Y0147950D01*
X0176712Y0147881D01*
X0176561Y0147816D01*
X0176409Y0147755D01*
X0176255Y0147698D01*
X0176099Y0147645D01*
X0175943Y0147595D01*
X0175785Y0147549D01*
X0175626Y0147508D01*
X0175466Y0147470D01*
X0175306Y0147436D01*
X0175144Y0147406D01*
X0174982Y0147379D01*
X0174819Y0147357D01*
X0174656Y0147339D01*
X0174492Y0147325D01*
X0174328Y0147315D01*
X0174164Y0147309D01*
X0174000Y0147307D01*
X0173836Y0147309D01*
X0173672Y0147315D01*
X0173508Y0147325D01*
X0173344Y0147339D01*
X0173181Y0147357D01*
X0173018Y0147379D01*
X0172856Y0147406D01*
X0172694Y0147436D01*
X0172534Y0147470D01*
X0172374Y0147508D01*
X0172215Y0147549D01*
X0172057Y0147595D01*
X0171901Y0147645D01*
X0171745Y0147698D01*
X0171591Y0147755D01*
X0171439Y0147816D01*
X0171288Y0147881D01*
X0171138Y0147950D01*
X0170991Y0148022D01*
X0170845Y0148097D01*
X0170701Y0148177D01*
X0170559Y0148259D01*
X0170419Y0148345D01*
X0170282Y0148435D01*
X0170146Y0148528D01*
X0170013Y0148624D01*
X0169882Y0148724D01*
X0169754Y0148826D01*
X0169628Y0148932D01*
X0169505Y0149041D01*
X0169385Y0149153D01*
X0169267Y0149267D01*
X0169153Y0149385D01*
X0169041Y0149505D01*
X0168932Y0149628D01*
X0168826Y0149754D01*
X0168724Y0149882D01*
X0168624Y0150013D01*
X0168528Y0150146D01*
X0168435Y0150282D01*
X0168345Y0150419D01*
X0168259Y0150559D01*
X0168177Y0150701D01*
X0168097Y0150845D01*
X0168022Y0150991D01*
X0167950Y0151138D01*
X0167881Y0151288D01*
X0167816Y0151439D01*
X0167755Y0151591D01*
X0167698Y0151745D01*
X0167645Y0151901D01*
X0167595Y0152057D01*
X0167549Y0152215D01*
X0167508Y0152374D01*
X0167470Y0152534D01*
X0167436Y0152694D01*
X0167406Y0152856D01*
X0167379Y0153018D01*
X0167357Y0153181D01*
X0167339Y0153344D01*
X0167325Y0153508D01*
X0167315Y0153672D01*
X0167309Y0153836D01*
X0167307Y0154000D01*
X0167307Y0024000D02*
X0167309Y0024164D01*
X0167315Y0024328D01*
X0167325Y0024492D01*
X0167339Y0024656D01*
X0167357Y0024819D01*
X0167379Y0024982D01*
X0167406Y0025144D01*
X0167436Y0025306D01*
X0167470Y0025466D01*
X0167508Y0025626D01*
X0167549Y0025785D01*
X0167595Y0025943D01*
X0167645Y0026099D01*
X0167698Y0026255D01*
X0167755Y0026409D01*
X0167816Y0026561D01*
X0167881Y0026712D01*
X0167950Y0026862D01*
X0168022Y0027009D01*
X0168097Y0027155D01*
X0168177Y0027299D01*
X0168259Y0027441D01*
X0168345Y0027581D01*
X0168435Y0027718D01*
X0168528Y0027854D01*
X0168624Y0027987D01*
X0168724Y0028118D01*
X0168826Y0028246D01*
X0168932Y0028372D01*
X0169041Y0028495D01*
X0169153Y0028615D01*
X0169267Y0028733D01*
X0169385Y0028847D01*
X0169505Y0028959D01*
X0169628Y0029068D01*
X0169754Y0029174D01*
X0169882Y0029276D01*
X0170013Y0029376D01*
X0170146Y0029472D01*
X0170282Y0029565D01*
X0170419Y0029655D01*
X0170559Y0029741D01*
X0170701Y0029823D01*
X0170845Y0029903D01*
X0170991Y0029978D01*
X0171138Y0030050D01*
X0171288Y0030119D01*
X0171439Y0030184D01*
X0171591Y0030245D01*
X0171745Y0030302D01*
X0171901Y0030355D01*
X0172057Y0030405D01*
X0172215Y0030451D01*
X0172374Y0030492D01*
X0172534Y0030530D01*
X0172694Y0030564D01*
X0172856Y0030594D01*
X0173018Y0030621D01*
X0173181Y0030643D01*
X0173344Y0030661D01*
X0173508Y0030675D01*
X0173672Y0030685D01*
X0173836Y0030691D01*
X0174000Y0030693D01*
X0174164Y0030691D01*
X0174328Y0030685D01*
X0174492Y0030675D01*
X0174656Y0030661D01*
X0174819Y0030643D01*
X0174982Y0030621D01*
X0175144Y0030594D01*
X0175306Y0030564D01*
X0175466Y0030530D01*
X0175626Y0030492D01*
X0175785Y0030451D01*
X0175943Y0030405D01*
X0176099Y0030355D01*
X0176255Y0030302D01*
X0176409Y0030245D01*
X0176561Y0030184D01*
X0176712Y0030119D01*
X0176862Y0030050D01*
X0177009Y0029978D01*
X0177155Y0029903D01*
X0177299Y0029823D01*
X0177441Y0029741D01*
X0177581Y0029655D01*
X0177718Y0029565D01*
X0177854Y0029472D01*
X0177987Y0029376D01*
X0178118Y0029276D01*
X0178246Y0029174D01*
X0178372Y0029068D01*
X0178495Y0028959D01*
X0178615Y0028847D01*
X0178733Y0028733D01*
X0178847Y0028615D01*
X0178959Y0028495D01*
X0179068Y0028372D01*
X0179174Y0028246D01*
X0179276Y0028118D01*
X0179376Y0027987D01*
X0179472Y0027854D01*
X0179565Y0027718D01*
X0179655Y0027581D01*
X0179741Y0027441D01*
X0179823Y0027299D01*
X0179903Y0027155D01*
X0179978Y0027009D01*
X0180050Y0026862D01*
X0180119Y0026712D01*
X0180184Y0026561D01*
X0180245Y0026409D01*
X0180302Y0026255D01*
X0180355Y0026099D01*
X0180405Y0025943D01*
X0180451Y0025785D01*
X0180492Y0025626D01*
X0180530Y0025466D01*
X0180564Y0025306D01*
X0180594Y0025144D01*
X0180621Y0024982D01*
X0180643Y0024819D01*
X0180661Y0024656D01*
X0180675Y0024492D01*
X0180685Y0024328D01*
X0180691Y0024164D01*
X0180693Y0024000D01*
X0180691Y0023836D01*
X0180685Y0023672D01*
X0180675Y0023508D01*
X0180661Y0023344D01*
X0180643Y0023181D01*
X0180621Y0023018D01*
X0180594Y0022856D01*
X0180564Y0022694D01*
X0180530Y0022534D01*
X0180492Y0022374D01*
X0180451Y0022215D01*
X0180405Y0022057D01*
X0180355Y0021901D01*
X0180302Y0021745D01*
X0180245Y0021591D01*
X0180184Y0021439D01*
X0180119Y0021288D01*
X0180050Y0021138D01*
X0179978Y0020991D01*
X0179903Y0020845D01*
X0179823Y0020701D01*
X0179741Y0020559D01*
X0179655Y0020419D01*
X0179565Y0020282D01*
X0179472Y0020146D01*
X0179376Y0020013D01*
X0179276Y0019882D01*
X0179174Y0019754D01*
X0179068Y0019628D01*
X0178959Y0019505D01*
X0178847Y0019385D01*
X0178733Y0019267D01*
X0178615Y0019153D01*
X0178495Y0019041D01*
X0178372Y0018932D01*
X0178246Y0018826D01*
X0178118Y0018724D01*
X0177987Y0018624D01*
X0177854Y0018528D01*
X0177718Y0018435D01*
X0177581Y0018345D01*
X0177441Y0018259D01*
X0177299Y0018177D01*
X0177155Y0018097D01*
X0177009Y0018022D01*
X0176862Y0017950D01*
X0176712Y0017881D01*
X0176561Y0017816D01*
X0176409Y0017755D01*
X0176255Y0017698D01*
X0176099Y0017645D01*
X0175943Y0017595D01*
X0175785Y0017549D01*
X0175626Y0017508D01*
X0175466Y0017470D01*
X0175306Y0017436D01*
X0175144Y0017406D01*
X0174982Y0017379D01*
X0174819Y0017357D01*
X0174656Y0017339D01*
X0174492Y0017325D01*
X0174328Y0017315D01*
X0174164Y0017309D01*
X0174000Y0017307D01*
X0173836Y0017309D01*
X0173672Y0017315D01*
X0173508Y0017325D01*
X0173344Y0017339D01*
X0173181Y0017357D01*
X0173018Y0017379D01*
X0172856Y0017406D01*
X0172694Y0017436D01*
X0172534Y0017470D01*
X0172374Y0017508D01*
X0172215Y0017549D01*
X0172057Y0017595D01*
X0171901Y0017645D01*
X0171745Y0017698D01*
X0171591Y0017755D01*
X0171439Y0017816D01*
X0171288Y0017881D01*
X0171138Y0017950D01*
X0170991Y0018022D01*
X0170845Y0018097D01*
X0170701Y0018177D01*
X0170559Y0018259D01*
X0170419Y0018345D01*
X0170282Y0018435D01*
X0170146Y0018528D01*
X0170013Y0018624D01*
X0169882Y0018724D01*
X0169754Y0018826D01*
X0169628Y0018932D01*
X0169505Y0019041D01*
X0169385Y0019153D01*
X0169267Y0019267D01*
X0169153Y0019385D01*
X0169041Y0019505D01*
X0168932Y0019628D01*
X0168826Y0019754D01*
X0168724Y0019882D01*
X0168624Y0020013D01*
X0168528Y0020146D01*
X0168435Y0020282D01*
X0168345Y0020419D01*
X0168259Y0020559D01*
X0168177Y0020701D01*
X0168097Y0020845D01*
X0168022Y0020991D01*
X0167950Y0021138D01*
X0167881Y0021288D01*
X0167816Y0021439D01*
X0167755Y0021591D01*
X0167698Y0021745D01*
X0167645Y0021901D01*
X0167595Y0022057D01*
X0167549Y0022215D01*
X0167508Y0022374D01*
X0167470Y0022534D01*
X0167436Y0022694D01*
X0167406Y0022856D01*
X0167379Y0023018D01*
X0167357Y0023181D01*
X0167339Y0023344D01*
X0167325Y0023508D01*
X0167315Y0023672D01*
X0167309Y0023836D01*
X0167307Y0024000D01*
X0034807Y0024000D02*
X0034809Y0024164D01*
X0034815Y0024328D01*
X0034825Y0024492D01*
X0034839Y0024656D01*
X0034857Y0024819D01*
X0034879Y0024982D01*
X0034906Y0025144D01*
X0034936Y0025306D01*
X0034970Y0025466D01*
X0035008Y0025626D01*
X0035049Y0025785D01*
X0035095Y0025943D01*
X0035145Y0026099D01*
X0035198Y0026255D01*
X0035255Y0026409D01*
X0035316Y0026561D01*
X0035381Y0026712D01*
X0035450Y0026862D01*
X0035522Y0027009D01*
X0035597Y0027155D01*
X0035677Y0027299D01*
X0035759Y0027441D01*
X0035845Y0027581D01*
X0035935Y0027718D01*
X0036028Y0027854D01*
X0036124Y0027987D01*
X0036224Y0028118D01*
X0036326Y0028246D01*
X0036432Y0028372D01*
X0036541Y0028495D01*
X0036653Y0028615D01*
X0036767Y0028733D01*
X0036885Y0028847D01*
X0037005Y0028959D01*
X0037128Y0029068D01*
X0037254Y0029174D01*
X0037382Y0029276D01*
X0037513Y0029376D01*
X0037646Y0029472D01*
X0037782Y0029565D01*
X0037919Y0029655D01*
X0038059Y0029741D01*
X0038201Y0029823D01*
X0038345Y0029903D01*
X0038491Y0029978D01*
X0038638Y0030050D01*
X0038788Y0030119D01*
X0038939Y0030184D01*
X0039091Y0030245D01*
X0039245Y0030302D01*
X0039401Y0030355D01*
X0039557Y0030405D01*
X0039715Y0030451D01*
X0039874Y0030492D01*
X0040034Y0030530D01*
X0040194Y0030564D01*
X0040356Y0030594D01*
X0040518Y0030621D01*
X0040681Y0030643D01*
X0040844Y0030661D01*
X0041008Y0030675D01*
X0041172Y0030685D01*
X0041336Y0030691D01*
X0041500Y0030693D01*
X0041664Y0030691D01*
X0041828Y0030685D01*
X0041992Y0030675D01*
X0042156Y0030661D01*
X0042319Y0030643D01*
X0042482Y0030621D01*
X0042644Y0030594D01*
X0042806Y0030564D01*
X0042966Y0030530D01*
X0043126Y0030492D01*
X0043285Y0030451D01*
X0043443Y0030405D01*
X0043599Y0030355D01*
X0043755Y0030302D01*
X0043909Y0030245D01*
X0044061Y0030184D01*
X0044212Y0030119D01*
X0044362Y0030050D01*
X0044509Y0029978D01*
X0044655Y0029903D01*
X0044799Y0029823D01*
X0044941Y0029741D01*
X0045081Y0029655D01*
X0045218Y0029565D01*
X0045354Y0029472D01*
X0045487Y0029376D01*
X0045618Y0029276D01*
X0045746Y0029174D01*
X0045872Y0029068D01*
X0045995Y0028959D01*
X0046115Y0028847D01*
X0046233Y0028733D01*
X0046347Y0028615D01*
X0046459Y0028495D01*
X0046568Y0028372D01*
X0046674Y0028246D01*
X0046776Y0028118D01*
X0046876Y0027987D01*
X0046972Y0027854D01*
X0047065Y0027718D01*
X0047155Y0027581D01*
X0047241Y0027441D01*
X0047323Y0027299D01*
X0047403Y0027155D01*
X0047478Y0027009D01*
X0047550Y0026862D01*
X0047619Y0026712D01*
X0047684Y0026561D01*
X0047745Y0026409D01*
X0047802Y0026255D01*
X0047855Y0026099D01*
X0047905Y0025943D01*
X0047951Y0025785D01*
X0047992Y0025626D01*
X0048030Y0025466D01*
X0048064Y0025306D01*
X0048094Y0025144D01*
X0048121Y0024982D01*
X0048143Y0024819D01*
X0048161Y0024656D01*
X0048175Y0024492D01*
X0048185Y0024328D01*
X0048191Y0024164D01*
X0048193Y0024000D01*
X0048191Y0023836D01*
X0048185Y0023672D01*
X0048175Y0023508D01*
X0048161Y0023344D01*
X0048143Y0023181D01*
X0048121Y0023018D01*
X0048094Y0022856D01*
X0048064Y0022694D01*
X0048030Y0022534D01*
X0047992Y0022374D01*
X0047951Y0022215D01*
X0047905Y0022057D01*
X0047855Y0021901D01*
X0047802Y0021745D01*
X0047745Y0021591D01*
X0047684Y0021439D01*
X0047619Y0021288D01*
X0047550Y0021138D01*
X0047478Y0020991D01*
X0047403Y0020845D01*
X0047323Y0020701D01*
X0047241Y0020559D01*
X0047155Y0020419D01*
X0047065Y0020282D01*
X0046972Y0020146D01*
X0046876Y0020013D01*
X0046776Y0019882D01*
X0046674Y0019754D01*
X0046568Y0019628D01*
X0046459Y0019505D01*
X0046347Y0019385D01*
X0046233Y0019267D01*
X0046115Y0019153D01*
X0045995Y0019041D01*
X0045872Y0018932D01*
X0045746Y0018826D01*
X0045618Y0018724D01*
X0045487Y0018624D01*
X0045354Y0018528D01*
X0045218Y0018435D01*
X0045081Y0018345D01*
X0044941Y0018259D01*
X0044799Y0018177D01*
X0044655Y0018097D01*
X0044509Y0018022D01*
X0044362Y0017950D01*
X0044212Y0017881D01*
X0044061Y0017816D01*
X0043909Y0017755D01*
X0043755Y0017698D01*
X0043599Y0017645D01*
X0043443Y0017595D01*
X0043285Y0017549D01*
X0043126Y0017508D01*
X0042966Y0017470D01*
X0042806Y0017436D01*
X0042644Y0017406D01*
X0042482Y0017379D01*
X0042319Y0017357D01*
X0042156Y0017339D01*
X0041992Y0017325D01*
X0041828Y0017315D01*
X0041664Y0017309D01*
X0041500Y0017307D01*
X0041336Y0017309D01*
X0041172Y0017315D01*
X0041008Y0017325D01*
X0040844Y0017339D01*
X0040681Y0017357D01*
X0040518Y0017379D01*
X0040356Y0017406D01*
X0040194Y0017436D01*
X0040034Y0017470D01*
X0039874Y0017508D01*
X0039715Y0017549D01*
X0039557Y0017595D01*
X0039401Y0017645D01*
X0039245Y0017698D01*
X0039091Y0017755D01*
X0038939Y0017816D01*
X0038788Y0017881D01*
X0038638Y0017950D01*
X0038491Y0018022D01*
X0038345Y0018097D01*
X0038201Y0018177D01*
X0038059Y0018259D01*
X0037919Y0018345D01*
X0037782Y0018435D01*
X0037646Y0018528D01*
X0037513Y0018624D01*
X0037382Y0018724D01*
X0037254Y0018826D01*
X0037128Y0018932D01*
X0037005Y0019041D01*
X0036885Y0019153D01*
X0036767Y0019267D01*
X0036653Y0019385D01*
X0036541Y0019505D01*
X0036432Y0019628D01*
X0036326Y0019754D01*
X0036224Y0019882D01*
X0036124Y0020013D01*
X0036028Y0020146D01*
X0035935Y0020282D01*
X0035845Y0020419D01*
X0035759Y0020559D01*
X0035677Y0020701D01*
X0035597Y0020845D01*
X0035522Y0020991D01*
X0035450Y0021138D01*
X0035381Y0021288D01*
X0035316Y0021439D01*
X0035255Y0021591D01*
X0035198Y0021745D01*
X0035145Y0021901D01*
X0035095Y0022057D01*
X0035049Y0022215D01*
X0035008Y0022374D01*
X0034970Y0022534D01*
X0034936Y0022694D01*
X0034906Y0022856D01*
X0034879Y0023018D01*
X0034857Y0023181D01*
X0034839Y0023344D01*
X0034825Y0023508D01*
X0034815Y0023672D01*
X0034809Y0023836D01*
X0034807Y0024000D01*
D15*
X0069000Y0024800D03*
X0069000Y0053200D03*
X0069000Y0094800D03*
X0059000Y0094800D03*
X0059000Y0123200D03*
X0069000Y0123200D03*
M02*
