G75*
%MOIN*%
%OFA0B0*%
%FSLAX25Y25*%
%IPPOS*%
%LPD*%
%AMOC8*
5,1,8,0,0,1.08239X$1,22.5*
%
%ADD10C,0.00000*%
%ADD11C,0.05200*%
%ADD12C,0.06000*%
%ADD13OC8,0.06000*%
%ADD14OC8,0.05200*%
%ADD15C,0.01600*%
%ADD16C,0.03200*%
%ADD17C,0.01000*%
D10*
X0021500Y0004000D02*
X0021500Y0173961D01*
X0192701Y0173961D01*
X0192701Y0004000D01*
X0021500Y0004000D01*
X0035201Y0024000D02*
X0035203Y0024158D01*
X0035209Y0024316D01*
X0035219Y0024474D01*
X0035233Y0024632D01*
X0035251Y0024789D01*
X0035272Y0024946D01*
X0035298Y0025102D01*
X0035328Y0025258D01*
X0035361Y0025413D01*
X0035399Y0025566D01*
X0035440Y0025719D01*
X0035485Y0025871D01*
X0035534Y0026022D01*
X0035587Y0026171D01*
X0035643Y0026319D01*
X0035703Y0026465D01*
X0035767Y0026610D01*
X0035835Y0026753D01*
X0035906Y0026895D01*
X0035980Y0027035D01*
X0036058Y0027172D01*
X0036140Y0027308D01*
X0036224Y0027442D01*
X0036313Y0027573D01*
X0036404Y0027702D01*
X0036499Y0027829D01*
X0036596Y0027954D01*
X0036697Y0028076D01*
X0036801Y0028195D01*
X0036908Y0028312D01*
X0037018Y0028426D01*
X0037131Y0028537D01*
X0037246Y0028646D01*
X0037364Y0028751D01*
X0037485Y0028853D01*
X0037608Y0028953D01*
X0037734Y0029049D01*
X0037862Y0029142D01*
X0037992Y0029232D01*
X0038125Y0029318D01*
X0038260Y0029402D01*
X0038396Y0029481D01*
X0038535Y0029558D01*
X0038676Y0029630D01*
X0038818Y0029700D01*
X0038962Y0029765D01*
X0039108Y0029827D01*
X0039255Y0029885D01*
X0039404Y0029940D01*
X0039554Y0029991D01*
X0039705Y0030038D01*
X0039857Y0030081D01*
X0040010Y0030120D01*
X0040165Y0030156D01*
X0040320Y0030187D01*
X0040476Y0030215D01*
X0040632Y0030239D01*
X0040789Y0030259D01*
X0040947Y0030275D01*
X0041104Y0030287D01*
X0041263Y0030295D01*
X0041421Y0030299D01*
X0041579Y0030299D01*
X0041737Y0030295D01*
X0041896Y0030287D01*
X0042053Y0030275D01*
X0042211Y0030259D01*
X0042368Y0030239D01*
X0042524Y0030215D01*
X0042680Y0030187D01*
X0042835Y0030156D01*
X0042990Y0030120D01*
X0043143Y0030081D01*
X0043295Y0030038D01*
X0043446Y0029991D01*
X0043596Y0029940D01*
X0043745Y0029885D01*
X0043892Y0029827D01*
X0044038Y0029765D01*
X0044182Y0029700D01*
X0044324Y0029630D01*
X0044465Y0029558D01*
X0044604Y0029481D01*
X0044740Y0029402D01*
X0044875Y0029318D01*
X0045008Y0029232D01*
X0045138Y0029142D01*
X0045266Y0029049D01*
X0045392Y0028953D01*
X0045515Y0028853D01*
X0045636Y0028751D01*
X0045754Y0028646D01*
X0045869Y0028537D01*
X0045982Y0028426D01*
X0046092Y0028312D01*
X0046199Y0028195D01*
X0046303Y0028076D01*
X0046404Y0027954D01*
X0046501Y0027829D01*
X0046596Y0027702D01*
X0046687Y0027573D01*
X0046776Y0027442D01*
X0046860Y0027308D01*
X0046942Y0027172D01*
X0047020Y0027035D01*
X0047094Y0026895D01*
X0047165Y0026753D01*
X0047233Y0026610D01*
X0047297Y0026465D01*
X0047357Y0026319D01*
X0047413Y0026171D01*
X0047466Y0026022D01*
X0047515Y0025871D01*
X0047560Y0025719D01*
X0047601Y0025566D01*
X0047639Y0025413D01*
X0047672Y0025258D01*
X0047702Y0025102D01*
X0047728Y0024946D01*
X0047749Y0024789D01*
X0047767Y0024632D01*
X0047781Y0024474D01*
X0047791Y0024316D01*
X0047797Y0024158D01*
X0047799Y0024000D01*
X0047797Y0023842D01*
X0047791Y0023684D01*
X0047781Y0023526D01*
X0047767Y0023368D01*
X0047749Y0023211D01*
X0047728Y0023054D01*
X0047702Y0022898D01*
X0047672Y0022742D01*
X0047639Y0022587D01*
X0047601Y0022434D01*
X0047560Y0022281D01*
X0047515Y0022129D01*
X0047466Y0021978D01*
X0047413Y0021829D01*
X0047357Y0021681D01*
X0047297Y0021535D01*
X0047233Y0021390D01*
X0047165Y0021247D01*
X0047094Y0021105D01*
X0047020Y0020965D01*
X0046942Y0020828D01*
X0046860Y0020692D01*
X0046776Y0020558D01*
X0046687Y0020427D01*
X0046596Y0020298D01*
X0046501Y0020171D01*
X0046404Y0020046D01*
X0046303Y0019924D01*
X0046199Y0019805D01*
X0046092Y0019688D01*
X0045982Y0019574D01*
X0045869Y0019463D01*
X0045754Y0019354D01*
X0045636Y0019249D01*
X0045515Y0019147D01*
X0045392Y0019047D01*
X0045266Y0018951D01*
X0045138Y0018858D01*
X0045008Y0018768D01*
X0044875Y0018682D01*
X0044740Y0018598D01*
X0044604Y0018519D01*
X0044465Y0018442D01*
X0044324Y0018370D01*
X0044182Y0018300D01*
X0044038Y0018235D01*
X0043892Y0018173D01*
X0043745Y0018115D01*
X0043596Y0018060D01*
X0043446Y0018009D01*
X0043295Y0017962D01*
X0043143Y0017919D01*
X0042990Y0017880D01*
X0042835Y0017844D01*
X0042680Y0017813D01*
X0042524Y0017785D01*
X0042368Y0017761D01*
X0042211Y0017741D01*
X0042053Y0017725D01*
X0041896Y0017713D01*
X0041737Y0017705D01*
X0041579Y0017701D01*
X0041421Y0017701D01*
X0041263Y0017705D01*
X0041104Y0017713D01*
X0040947Y0017725D01*
X0040789Y0017741D01*
X0040632Y0017761D01*
X0040476Y0017785D01*
X0040320Y0017813D01*
X0040165Y0017844D01*
X0040010Y0017880D01*
X0039857Y0017919D01*
X0039705Y0017962D01*
X0039554Y0018009D01*
X0039404Y0018060D01*
X0039255Y0018115D01*
X0039108Y0018173D01*
X0038962Y0018235D01*
X0038818Y0018300D01*
X0038676Y0018370D01*
X0038535Y0018442D01*
X0038396Y0018519D01*
X0038260Y0018598D01*
X0038125Y0018682D01*
X0037992Y0018768D01*
X0037862Y0018858D01*
X0037734Y0018951D01*
X0037608Y0019047D01*
X0037485Y0019147D01*
X0037364Y0019249D01*
X0037246Y0019354D01*
X0037131Y0019463D01*
X0037018Y0019574D01*
X0036908Y0019688D01*
X0036801Y0019805D01*
X0036697Y0019924D01*
X0036596Y0020046D01*
X0036499Y0020171D01*
X0036404Y0020298D01*
X0036313Y0020427D01*
X0036224Y0020558D01*
X0036140Y0020692D01*
X0036058Y0020828D01*
X0035980Y0020965D01*
X0035906Y0021105D01*
X0035835Y0021247D01*
X0035767Y0021390D01*
X0035703Y0021535D01*
X0035643Y0021681D01*
X0035587Y0021829D01*
X0035534Y0021978D01*
X0035485Y0022129D01*
X0035440Y0022281D01*
X0035399Y0022434D01*
X0035361Y0022587D01*
X0035328Y0022742D01*
X0035298Y0022898D01*
X0035272Y0023054D01*
X0035251Y0023211D01*
X0035233Y0023368D01*
X0035219Y0023526D01*
X0035209Y0023684D01*
X0035203Y0023842D01*
X0035201Y0024000D01*
X0167701Y0024000D02*
X0167703Y0024158D01*
X0167709Y0024316D01*
X0167719Y0024474D01*
X0167733Y0024632D01*
X0167751Y0024789D01*
X0167772Y0024946D01*
X0167798Y0025102D01*
X0167828Y0025258D01*
X0167861Y0025413D01*
X0167899Y0025566D01*
X0167940Y0025719D01*
X0167985Y0025871D01*
X0168034Y0026022D01*
X0168087Y0026171D01*
X0168143Y0026319D01*
X0168203Y0026465D01*
X0168267Y0026610D01*
X0168335Y0026753D01*
X0168406Y0026895D01*
X0168480Y0027035D01*
X0168558Y0027172D01*
X0168640Y0027308D01*
X0168724Y0027442D01*
X0168813Y0027573D01*
X0168904Y0027702D01*
X0168999Y0027829D01*
X0169096Y0027954D01*
X0169197Y0028076D01*
X0169301Y0028195D01*
X0169408Y0028312D01*
X0169518Y0028426D01*
X0169631Y0028537D01*
X0169746Y0028646D01*
X0169864Y0028751D01*
X0169985Y0028853D01*
X0170108Y0028953D01*
X0170234Y0029049D01*
X0170362Y0029142D01*
X0170492Y0029232D01*
X0170625Y0029318D01*
X0170760Y0029402D01*
X0170896Y0029481D01*
X0171035Y0029558D01*
X0171176Y0029630D01*
X0171318Y0029700D01*
X0171462Y0029765D01*
X0171608Y0029827D01*
X0171755Y0029885D01*
X0171904Y0029940D01*
X0172054Y0029991D01*
X0172205Y0030038D01*
X0172357Y0030081D01*
X0172510Y0030120D01*
X0172665Y0030156D01*
X0172820Y0030187D01*
X0172976Y0030215D01*
X0173132Y0030239D01*
X0173289Y0030259D01*
X0173447Y0030275D01*
X0173604Y0030287D01*
X0173763Y0030295D01*
X0173921Y0030299D01*
X0174079Y0030299D01*
X0174237Y0030295D01*
X0174396Y0030287D01*
X0174553Y0030275D01*
X0174711Y0030259D01*
X0174868Y0030239D01*
X0175024Y0030215D01*
X0175180Y0030187D01*
X0175335Y0030156D01*
X0175490Y0030120D01*
X0175643Y0030081D01*
X0175795Y0030038D01*
X0175946Y0029991D01*
X0176096Y0029940D01*
X0176245Y0029885D01*
X0176392Y0029827D01*
X0176538Y0029765D01*
X0176682Y0029700D01*
X0176824Y0029630D01*
X0176965Y0029558D01*
X0177104Y0029481D01*
X0177240Y0029402D01*
X0177375Y0029318D01*
X0177508Y0029232D01*
X0177638Y0029142D01*
X0177766Y0029049D01*
X0177892Y0028953D01*
X0178015Y0028853D01*
X0178136Y0028751D01*
X0178254Y0028646D01*
X0178369Y0028537D01*
X0178482Y0028426D01*
X0178592Y0028312D01*
X0178699Y0028195D01*
X0178803Y0028076D01*
X0178904Y0027954D01*
X0179001Y0027829D01*
X0179096Y0027702D01*
X0179187Y0027573D01*
X0179276Y0027442D01*
X0179360Y0027308D01*
X0179442Y0027172D01*
X0179520Y0027035D01*
X0179594Y0026895D01*
X0179665Y0026753D01*
X0179733Y0026610D01*
X0179797Y0026465D01*
X0179857Y0026319D01*
X0179913Y0026171D01*
X0179966Y0026022D01*
X0180015Y0025871D01*
X0180060Y0025719D01*
X0180101Y0025566D01*
X0180139Y0025413D01*
X0180172Y0025258D01*
X0180202Y0025102D01*
X0180228Y0024946D01*
X0180249Y0024789D01*
X0180267Y0024632D01*
X0180281Y0024474D01*
X0180291Y0024316D01*
X0180297Y0024158D01*
X0180299Y0024000D01*
X0180297Y0023842D01*
X0180291Y0023684D01*
X0180281Y0023526D01*
X0180267Y0023368D01*
X0180249Y0023211D01*
X0180228Y0023054D01*
X0180202Y0022898D01*
X0180172Y0022742D01*
X0180139Y0022587D01*
X0180101Y0022434D01*
X0180060Y0022281D01*
X0180015Y0022129D01*
X0179966Y0021978D01*
X0179913Y0021829D01*
X0179857Y0021681D01*
X0179797Y0021535D01*
X0179733Y0021390D01*
X0179665Y0021247D01*
X0179594Y0021105D01*
X0179520Y0020965D01*
X0179442Y0020828D01*
X0179360Y0020692D01*
X0179276Y0020558D01*
X0179187Y0020427D01*
X0179096Y0020298D01*
X0179001Y0020171D01*
X0178904Y0020046D01*
X0178803Y0019924D01*
X0178699Y0019805D01*
X0178592Y0019688D01*
X0178482Y0019574D01*
X0178369Y0019463D01*
X0178254Y0019354D01*
X0178136Y0019249D01*
X0178015Y0019147D01*
X0177892Y0019047D01*
X0177766Y0018951D01*
X0177638Y0018858D01*
X0177508Y0018768D01*
X0177375Y0018682D01*
X0177240Y0018598D01*
X0177104Y0018519D01*
X0176965Y0018442D01*
X0176824Y0018370D01*
X0176682Y0018300D01*
X0176538Y0018235D01*
X0176392Y0018173D01*
X0176245Y0018115D01*
X0176096Y0018060D01*
X0175946Y0018009D01*
X0175795Y0017962D01*
X0175643Y0017919D01*
X0175490Y0017880D01*
X0175335Y0017844D01*
X0175180Y0017813D01*
X0175024Y0017785D01*
X0174868Y0017761D01*
X0174711Y0017741D01*
X0174553Y0017725D01*
X0174396Y0017713D01*
X0174237Y0017705D01*
X0174079Y0017701D01*
X0173921Y0017701D01*
X0173763Y0017705D01*
X0173604Y0017713D01*
X0173447Y0017725D01*
X0173289Y0017741D01*
X0173132Y0017761D01*
X0172976Y0017785D01*
X0172820Y0017813D01*
X0172665Y0017844D01*
X0172510Y0017880D01*
X0172357Y0017919D01*
X0172205Y0017962D01*
X0172054Y0018009D01*
X0171904Y0018060D01*
X0171755Y0018115D01*
X0171608Y0018173D01*
X0171462Y0018235D01*
X0171318Y0018300D01*
X0171176Y0018370D01*
X0171035Y0018442D01*
X0170896Y0018519D01*
X0170760Y0018598D01*
X0170625Y0018682D01*
X0170492Y0018768D01*
X0170362Y0018858D01*
X0170234Y0018951D01*
X0170108Y0019047D01*
X0169985Y0019147D01*
X0169864Y0019249D01*
X0169746Y0019354D01*
X0169631Y0019463D01*
X0169518Y0019574D01*
X0169408Y0019688D01*
X0169301Y0019805D01*
X0169197Y0019924D01*
X0169096Y0020046D01*
X0168999Y0020171D01*
X0168904Y0020298D01*
X0168813Y0020427D01*
X0168724Y0020558D01*
X0168640Y0020692D01*
X0168558Y0020828D01*
X0168480Y0020965D01*
X0168406Y0021105D01*
X0168335Y0021247D01*
X0168267Y0021390D01*
X0168203Y0021535D01*
X0168143Y0021681D01*
X0168087Y0021829D01*
X0168034Y0021978D01*
X0167985Y0022129D01*
X0167940Y0022281D01*
X0167899Y0022434D01*
X0167861Y0022587D01*
X0167828Y0022742D01*
X0167798Y0022898D01*
X0167772Y0023054D01*
X0167751Y0023211D01*
X0167733Y0023368D01*
X0167719Y0023526D01*
X0167709Y0023684D01*
X0167703Y0023842D01*
X0167701Y0024000D01*
X0167701Y0154000D02*
X0167703Y0154158D01*
X0167709Y0154316D01*
X0167719Y0154474D01*
X0167733Y0154632D01*
X0167751Y0154789D01*
X0167772Y0154946D01*
X0167798Y0155102D01*
X0167828Y0155258D01*
X0167861Y0155413D01*
X0167899Y0155566D01*
X0167940Y0155719D01*
X0167985Y0155871D01*
X0168034Y0156022D01*
X0168087Y0156171D01*
X0168143Y0156319D01*
X0168203Y0156465D01*
X0168267Y0156610D01*
X0168335Y0156753D01*
X0168406Y0156895D01*
X0168480Y0157035D01*
X0168558Y0157172D01*
X0168640Y0157308D01*
X0168724Y0157442D01*
X0168813Y0157573D01*
X0168904Y0157702D01*
X0168999Y0157829D01*
X0169096Y0157954D01*
X0169197Y0158076D01*
X0169301Y0158195D01*
X0169408Y0158312D01*
X0169518Y0158426D01*
X0169631Y0158537D01*
X0169746Y0158646D01*
X0169864Y0158751D01*
X0169985Y0158853D01*
X0170108Y0158953D01*
X0170234Y0159049D01*
X0170362Y0159142D01*
X0170492Y0159232D01*
X0170625Y0159318D01*
X0170760Y0159402D01*
X0170896Y0159481D01*
X0171035Y0159558D01*
X0171176Y0159630D01*
X0171318Y0159700D01*
X0171462Y0159765D01*
X0171608Y0159827D01*
X0171755Y0159885D01*
X0171904Y0159940D01*
X0172054Y0159991D01*
X0172205Y0160038D01*
X0172357Y0160081D01*
X0172510Y0160120D01*
X0172665Y0160156D01*
X0172820Y0160187D01*
X0172976Y0160215D01*
X0173132Y0160239D01*
X0173289Y0160259D01*
X0173447Y0160275D01*
X0173604Y0160287D01*
X0173763Y0160295D01*
X0173921Y0160299D01*
X0174079Y0160299D01*
X0174237Y0160295D01*
X0174396Y0160287D01*
X0174553Y0160275D01*
X0174711Y0160259D01*
X0174868Y0160239D01*
X0175024Y0160215D01*
X0175180Y0160187D01*
X0175335Y0160156D01*
X0175490Y0160120D01*
X0175643Y0160081D01*
X0175795Y0160038D01*
X0175946Y0159991D01*
X0176096Y0159940D01*
X0176245Y0159885D01*
X0176392Y0159827D01*
X0176538Y0159765D01*
X0176682Y0159700D01*
X0176824Y0159630D01*
X0176965Y0159558D01*
X0177104Y0159481D01*
X0177240Y0159402D01*
X0177375Y0159318D01*
X0177508Y0159232D01*
X0177638Y0159142D01*
X0177766Y0159049D01*
X0177892Y0158953D01*
X0178015Y0158853D01*
X0178136Y0158751D01*
X0178254Y0158646D01*
X0178369Y0158537D01*
X0178482Y0158426D01*
X0178592Y0158312D01*
X0178699Y0158195D01*
X0178803Y0158076D01*
X0178904Y0157954D01*
X0179001Y0157829D01*
X0179096Y0157702D01*
X0179187Y0157573D01*
X0179276Y0157442D01*
X0179360Y0157308D01*
X0179442Y0157172D01*
X0179520Y0157035D01*
X0179594Y0156895D01*
X0179665Y0156753D01*
X0179733Y0156610D01*
X0179797Y0156465D01*
X0179857Y0156319D01*
X0179913Y0156171D01*
X0179966Y0156022D01*
X0180015Y0155871D01*
X0180060Y0155719D01*
X0180101Y0155566D01*
X0180139Y0155413D01*
X0180172Y0155258D01*
X0180202Y0155102D01*
X0180228Y0154946D01*
X0180249Y0154789D01*
X0180267Y0154632D01*
X0180281Y0154474D01*
X0180291Y0154316D01*
X0180297Y0154158D01*
X0180299Y0154000D01*
X0180297Y0153842D01*
X0180291Y0153684D01*
X0180281Y0153526D01*
X0180267Y0153368D01*
X0180249Y0153211D01*
X0180228Y0153054D01*
X0180202Y0152898D01*
X0180172Y0152742D01*
X0180139Y0152587D01*
X0180101Y0152434D01*
X0180060Y0152281D01*
X0180015Y0152129D01*
X0179966Y0151978D01*
X0179913Y0151829D01*
X0179857Y0151681D01*
X0179797Y0151535D01*
X0179733Y0151390D01*
X0179665Y0151247D01*
X0179594Y0151105D01*
X0179520Y0150965D01*
X0179442Y0150828D01*
X0179360Y0150692D01*
X0179276Y0150558D01*
X0179187Y0150427D01*
X0179096Y0150298D01*
X0179001Y0150171D01*
X0178904Y0150046D01*
X0178803Y0149924D01*
X0178699Y0149805D01*
X0178592Y0149688D01*
X0178482Y0149574D01*
X0178369Y0149463D01*
X0178254Y0149354D01*
X0178136Y0149249D01*
X0178015Y0149147D01*
X0177892Y0149047D01*
X0177766Y0148951D01*
X0177638Y0148858D01*
X0177508Y0148768D01*
X0177375Y0148682D01*
X0177240Y0148598D01*
X0177104Y0148519D01*
X0176965Y0148442D01*
X0176824Y0148370D01*
X0176682Y0148300D01*
X0176538Y0148235D01*
X0176392Y0148173D01*
X0176245Y0148115D01*
X0176096Y0148060D01*
X0175946Y0148009D01*
X0175795Y0147962D01*
X0175643Y0147919D01*
X0175490Y0147880D01*
X0175335Y0147844D01*
X0175180Y0147813D01*
X0175024Y0147785D01*
X0174868Y0147761D01*
X0174711Y0147741D01*
X0174553Y0147725D01*
X0174396Y0147713D01*
X0174237Y0147705D01*
X0174079Y0147701D01*
X0173921Y0147701D01*
X0173763Y0147705D01*
X0173604Y0147713D01*
X0173447Y0147725D01*
X0173289Y0147741D01*
X0173132Y0147761D01*
X0172976Y0147785D01*
X0172820Y0147813D01*
X0172665Y0147844D01*
X0172510Y0147880D01*
X0172357Y0147919D01*
X0172205Y0147962D01*
X0172054Y0148009D01*
X0171904Y0148060D01*
X0171755Y0148115D01*
X0171608Y0148173D01*
X0171462Y0148235D01*
X0171318Y0148300D01*
X0171176Y0148370D01*
X0171035Y0148442D01*
X0170896Y0148519D01*
X0170760Y0148598D01*
X0170625Y0148682D01*
X0170492Y0148768D01*
X0170362Y0148858D01*
X0170234Y0148951D01*
X0170108Y0149047D01*
X0169985Y0149147D01*
X0169864Y0149249D01*
X0169746Y0149354D01*
X0169631Y0149463D01*
X0169518Y0149574D01*
X0169408Y0149688D01*
X0169301Y0149805D01*
X0169197Y0149924D01*
X0169096Y0150046D01*
X0168999Y0150171D01*
X0168904Y0150298D01*
X0168813Y0150427D01*
X0168724Y0150558D01*
X0168640Y0150692D01*
X0168558Y0150828D01*
X0168480Y0150965D01*
X0168406Y0151105D01*
X0168335Y0151247D01*
X0168267Y0151390D01*
X0168203Y0151535D01*
X0168143Y0151681D01*
X0168087Y0151829D01*
X0168034Y0151978D01*
X0167985Y0152129D01*
X0167940Y0152281D01*
X0167899Y0152434D01*
X0167861Y0152587D01*
X0167828Y0152742D01*
X0167798Y0152898D01*
X0167772Y0153054D01*
X0167751Y0153211D01*
X0167733Y0153368D01*
X0167719Y0153526D01*
X0167709Y0153684D01*
X0167703Y0153842D01*
X0167701Y0154000D01*
X0035201Y0154000D02*
X0035203Y0154158D01*
X0035209Y0154316D01*
X0035219Y0154474D01*
X0035233Y0154632D01*
X0035251Y0154789D01*
X0035272Y0154946D01*
X0035298Y0155102D01*
X0035328Y0155258D01*
X0035361Y0155413D01*
X0035399Y0155566D01*
X0035440Y0155719D01*
X0035485Y0155871D01*
X0035534Y0156022D01*
X0035587Y0156171D01*
X0035643Y0156319D01*
X0035703Y0156465D01*
X0035767Y0156610D01*
X0035835Y0156753D01*
X0035906Y0156895D01*
X0035980Y0157035D01*
X0036058Y0157172D01*
X0036140Y0157308D01*
X0036224Y0157442D01*
X0036313Y0157573D01*
X0036404Y0157702D01*
X0036499Y0157829D01*
X0036596Y0157954D01*
X0036697Y0158076D01*
X0036801Y0158195D01*
X0036908Y0158312D01*
X0037018Y0158426D01*
X0037131Y0158537D01*
X0037246Y0158646D01*
X0037364Y0158751D01*
X0037485Y0158853D01*
X0037608Y0158953D01*
X0037734Y0159049D01*
X0037862Y0159142D01*
X0037992Y0159232D01*
X0038125Y0159318D01*
X0038260Y0159402D01*
X0038396Y0159481D01*
X0038535Y0159558D01*
X0038676Y0159630D01*
X0038818Y0159700D01*
X0038962Y0159765D01*
X0039108Y0159827D01*
X0039255Y0159885D01*
X0039404Y0159940D01*
X0039554Y0159991D01*
X0039705Y0160038D01*
X0039857Y0160081D01*
X0040010Y0160120D01*
X0040165Y0160156D01*
X0040320Y0160187D01*
X0040476Y0160215D01*
X0040632Y0160239D01*
X0040789Y0160259D01*
X0040947Y0160275D01*
X0041104Y0160287D01*
X0041263Y0160295D01*
X0041421Y0160299D01*
X0041579Y0160299D01*
X0041737Y0160295D01*
X0041896Y0160287D01*
X0042053Y0160275D01*
X0042211Y0160259D01*
X0042368Y0160239D01*
X0042524Y0160215D01*
X0042680Y0160187D01*
X0042835Y0160156D01*
X0042990Y0160120D01*
X0043143Y0160081D01*
X0043295Y0160038D01*
X0043446Y0159991D01*
X0043596Y0159940D01*
X0043745Y0159885D01*
X0043892Y0159827D01*
X0044038Y0159765D01*
X0044182Y0159700D01*
X0044324Y0159630D01*
X0044465Y0159558D01*
X0044604Y0159481D01*
X0044740Y0159402D01*
X0044875Y0159318D01*
X0045008Y0159232D01*
X0045138Y0159142D01*
X0045266Y0159049D01*
X0045392Y0158953D01*
X0045515Y0158853D01*
X0045636Y0158751D01*
X0045754Y0158646D01*
X0045869Y0158537D01*
X0045982Y0158426D01*
X0046092Y0158312D01*
X0046199Y0158195D01*
X0046303Y0158076D01*
X0046404Y0157954D01*
X0046501Y0157829D01*
X0046596Y0157702D01*
X0046687Y0157573D01*
X0046776Y0157442D01*
X0046860Y0157308D01*
X0046942Y0157172D01*
X0047020Y0157035D01*
X0047094Y0156895D01*
X0047165Y0156753D01*
X0047233Y0156610D01*
X0047297Y0156465D01*
X0047357Y0156319D01*
X0047413Y0156171D01*
X0047466Y0156022D01*
X0047515Y0155871D01*
X0047560Y0155719D01*
X0047601Y0155566D01*
X0047639Y0155413D01*
X0047672Y0155258D01*
X0047702Y0155102D01*
X0047728Y0154946D01*
X0047749Y0154789D01*
X0047767Y0154632D01*
X0047781Y0154474D01*
X0047791Y0154316D01*
X0047797Y0154158D01*
X0047799Y0154000D01*
X0047797Y0153842D01*
X0047791Y0153684D01*
X0047781Y0153526D01*
X0047767Y0153368D01*
X0047749Y0153211D01*
X0047728Y0153054D01*
X0047702Y0152898D01*
X0047672Y0152742D01*
X0047639Y0152587D01*
X0047601Y0152434D01*
X0047560Y0152281D01*
X0047515Y0152129D01*
X0047466Y0151978D01*
X0047413Y0151829D01*
X0047357Y0151681D01*
X0047297Y0151535D01*
X0047233Y0151390D01*
X0047165Y0151247D01*
X0047094Y0151105D01*
X0047020Y0150965D01*
X0046942Y0150828D01*
X0046860Y0150692D01*
X0046776Y0150558D01*
X0046687Y0150427D01*
X0046596Y0150298D01*
X0046501Y0150171D01*
X0046404Y0150046D01*
X0046303Y0149924D01*
X0046199Y0149805D01*
X0046092Y0149688D01*
X0045982Y0149574D01*
X0045869Y0149463D01*
X0045754Y0149354D01*
X0045636Y0149249D01*
X0045515Y0149147D01*
X0045392Y0149047D01*
X0045266Y0148951D01*
X0045138Y0148858D01*
X0045008Y0148768D01*
X0044875Y0148682D01*
X0044740Y0148598D01*
X0044604Y0148519D01*
X0044465Y0148442D01*
X0044324Y0148370D01*
X0044182Y0148300D01*
X0044038Y0148235D01*
X0043892Y0148173D01*
X0043745Y0148115D01*
X0043596Y0148060D01*
X0043446Y0148009D01*
X0043295Y0147962D01*
X0043143Y0147919D01*
X0042990Y0147880D01*
X0042835Y0147844D01*
X0042680Y0147813D01*
X0042524Y0147785D01*
X0042368Y0147761D01*
X0042211Y0147741D01*
X0042053Y0147725D01*
X0041896Y0147713D01*
X0041737Y0147705D01*
X0041579Y0147701D01*
X0041421Y0147701D01*
X0041263Y0147705D01*
X0041104Y0147713D01*
X0040947Y0147725D01*
X0040789Y0147741D01*
X0040632Y0147761D01*
X0040476Y0147785D01*
X0040320Y0147813D01*
X0040165Y0147844D01*
X0040010Y0147880D01*
X0039857Y0147919D01*
X0039705Y0147962D01*
X0039554Y0148009D01*
X0039404Y0148060D01*
X0039255Y0148115D01*
X0039108Y0148173D01*
X0038962Y0148235D01*
X0038818Y0148300D01*
X0038676Y0148370D01*
X0038535Y0148442D01*
X0038396Y0148519D01*
X0038260Y0148598D01*
X0038125Y0148682D01*
X0037992Y0148768D01*
X0037862Y0148858D01*
X0037734Y0148951D01*
X0037608Y0149047D01*
X0037485Y0149147D01*
X0037364Y0149249D01*
X0037246Y0149354D01*
X0037131Y0149463D01*
X0037018Y0149574D01*
X0036908Y0149688D01*
X0036801Y0149805D01*
X0036697Y0149924D01*
X0036596Y0150046D01*
X0036499Y0150171D01*
X0036404Y0150298D01*
X0036313Y0150427D01*
X0036224Y0150558D01*
X0036140Y0150692D01*
X0036058Y0150828D01*
X0035980Y0150965D01*
X0035906Y0151105D01*
X0035835Y0151247D01*
X0035767Y0151390D01*
X0035703Y0151535D01*
X0035643Y0151681D01*
X0035587Y0151829D01*
X0035534Y0151978D01*
X0035485Y0152129D01*
X0035440Y0152281D01*
X0035399Y0152434D01*
X0035361Y0152587D01*
X0035328Y0152742D01*
X0035298Y0152898D01*
X0035272Y0153054D01*
X0035251Y0153211D01*
X0035233Y0153368D01*
X0035219Y0153526D01*
X0035209Y0153684D01*
X0035203Y0153842D01*
X0035201Y0154000D01*
D11*
X0078900Y0144000D02*
X0084100Y0144000D01*
X0084100Y0134000D02*
X0078900Y0134000D01*
X0078900Y0124000D02*
X0084100Y0124000D01*
X0084100Y0114000D02*
X0078900Y0114000D01*
X0078900Y0104000D02*
X0084100Y0104000D01*
X0084100Y0094000D02*
X0078900Y0094000D01*
X0078900Y0084000D02*
X0084100Y0084000D01*
X0084100Y0074000D02*
X0078900Y0074000D01*
X0078900Y0064000D02*
X0084100Y0064000D01*
X0084100Y0054000D02*
X0078900Y0054000D01*
X0078900Y0044000D02*
X0084100Y0044000D01*
X0084100Y0034000D02*
X0078900Y0034000D01*
X0078900Y0024000D02*
X0084100Y0024000D01*
X0084100Y0014000D02*
X0078900Y0014000D01*
X0108900Y0014000D02*
X0114100Y0014000D01*
X0114100Y0024000D02*
X0108900Y0024000D01*
X0108900Y0034000D02*
X0114100Y0034000D01*
X0114100Y0044000D02*
X0108900Y0044000D01*
X0108900Y0054000D02*
X0114100Y0054000D01*
X0114100Y0064000D02*
X0108900Y0064000D01*
X0108900Y0074000D02*
X0114100Y0074000D01*
X0114100Y0084000D02*
X0108900Y0084000D01*
X0108900Y0094000D02*
X0114100Y0094000D01*
X0114100Y0104000D02*
X0108900Y0104000D01*
X0108900Y0114000D02*
X0114100Y0114000D01*
X0114100Y0124000D02*
X0108900Y0124000D01*
X0108900Y0134000D02*
X0114100Y0134000D01*
X0114100Y0144000D02*
X0108900Y0144000D01*
D12*
X0123500Y0144000D02*
X0129500Y0144000D01*
X0129500Y0134000D02*
X0123500Y0134000D01*
X0123500Y0124000D02*
X0129500Y0124000D01*
X0129500Y0114000D02*
X0123500Y0114000D01*
X0123500Y0104000D02*
X0129500Y0104000D01*
X0129500Y0094000D02*
X0123500Y0094000D01*
X0123500Y0084000D02*
X0129500Y0084000D01*
X0129500Y0074000D02*
X0123500Y0074000D01*
X0143500Y0074000D02*
X0149500Y0074000D01*
X0149500Y0084000D02*
X0143500Y0084000D01*
X0143500Y0094000D02*
X0149500Y0094000D01*
X0149500Y0104000D02*
X0143500Y0104000D01*
X0143500Y0114000D02*
X0149500Y0114000D01*
X0149500Y0124000D02*
X0143500Y0124000D01*
X0143500Y0134000D02*
X0149500Y0134000D01*
X0149500Y0144000D02*
X0143500Y0144000D01*
X0166000Y0129000D02*
X0172000Y0129000D01*
X0172000Y0119000D02*
X0166000Y0119000D01*
X0166000Y0104000D02*
X0172000Y0104000D01*
X0172000Y0094000D02*
X0166000Y0094000D01*
X0166000Y0079000D02*
X0172000Y0079000D01*
X0172000Y0069000D02*
X0166000Y0069000D01*
X0166000Y0059000D02*
X0172000Y0059000D01*
X0172000Y0049000D02*
X0166000Y0049000D01*
X0049500Y0049000D02*
X0043500Y0049000D01*
X0043500Y0059000D02*
X0049500Y0059000D01*
X0049500Y0069000D02*
X0043500Y0069000D01*
X0043500Y0079000D02*
X0049500Y0079000D01*
X0049500Y0094000D02*
X0043500Y0094000D01*
X0043500Y0104000D02*
X0049500Y0104000D01*
X0049500Y0119000D02*
X0043500Y0119000D01*
X0043500Y0129000D02*
X0049500Y0129000D01*
D13*
X0126500Y0044000D03*
X0136500Y0044000D03*
X0136500Y0044000D03*
X0146500Y0044000D03*
X0146500Y0034000D03*
X0136500Y0034000D03*
X0136500Y0034000D03*
X0126500Y0034000D03*
X0126500Y0024000D03*
X0136500Y0024000D03*
X0136500Y0024000D03*
X0146500Y0024000D03*
D14*
X0069000Y0019000D03*
X0069000Y0059000D03*
X0069000Y0089000D03*
X0059000Y0089000D03*
X0059000Y0129000D03*
X0069000Y0129000D03*
D15*
X0089000Y0126500D02*
X0089000Y0086500D01*
X0106500Y0069000D01*
X0116500Y0069000D01*
X0121500Y0074000D01*
X0126500Y0074000D01*
X0136500Y0069000D02*
X0136500Y0124000D01*
X0141500Y0129000D01*
X0169000Y0129000D01*
X0126500Y0124000D02*
X0121500Y0124000D01*
X0116500Y0119000D01*
X0106500Y0119000D01*
X0101500Y0114000D01*
X0101500Y0099000D01*
X0106500Y0094000D01*
X0111500Y0094000D01*
X0106500Y0089000D02*
X0116500Y0089000D01*
X0121500Y0094000D01*
X0126500Y0094000D01*
X0116500Y0099000D02*
X0121500Y0104000D01*
X0126500Y0104000D01*
X0126500Y0114000D02*
X0124000Y0114000D01*
X0114000Y0104000D01*
X0111500Y0104000D01*
X0106500Y0099000D02*
X0116500Y0099000D01*
X0106500Y0099000D02*
X0104000Y0101500D01*
X0104000Y0111500D01*
X0106500Y0114000D01*
X0111500Y0114000D01*
X0111500Y0124000D02*
X0106500Y0124000D01*
X0099000Y0116500D01*
X0099000Y0096500D01*
X0106500Y0089000D01*
X0106500Y0084000D02*
X0096500Y0094000D01*
X0096500Y0119000D01*
X0106500Y0129000D01*
X0116500Y0129000D01*
X0121500Y0134000D01*
X0126500Y0134000D01*
X0116500Y0139000D02*
X0121500Y0144000D01*
X0126500Y0144000D01*
X0116500Y0139000D02*
X0106500Y0139000D01*
X0091500Y0124000D01*
X0091500Y0089000D01*
X0106500Y0074000D01*
X0111500Y0074000D01*
X0106500Y0079000D02*
X0116500Y0079000D01*
X0121500Y0084000D01*
X0126500Y0084000D01*
X0111500Y0084000D02*
X0106500Y0084000D01*
X0106500Y0079000D02*
X0094000Y0091500D01*
X0094000Y0121500D01*
X0106500Y0134000D01*
X0111500Y0134000D01*
X0111500Y0144000D02*
X0106500Y0144000D01*
X0089000Y0126500D01*
X0046500Y0119000D02*
X0041500Y0119000D01*
X0036500Y0114000D01*
X0036500Y0074000D01*
X0041500Y0069000D01*
X0046500Y0069000D01*
X0081500Y0034000D01*
X0081500Y0024000D02*
X0046500Y0059000D01*
X0069000Y0059000D02*
X0069000Y0064000D01*
X0049000Y0079000D02*
X0059000Y0089000D01*
X0069000Y0089000D01*
X0049000Y0079000D02*
X0046500Y0079000D01*
X0111500Y0064000D02*
X0131500Y0064000D01*
X0136500Y0069000D01*
X0136500Y0059000D02*
X0136500Y0044000D01*
X0126500Y0044000D02*
X0126500Y0059000D01*
X0146500Y0059000D02*
X0146500Y0044000D01*
X0146500Y0034000D02*
X0141500Y0029000D01*
X0141500Y0019000D01*
X0136500Y0014000D01*
X0111500Y0014000D01*
X0111500Y0024000D02*
X0116500Y0024000D01*
X0121500Y0029000D01*
X0131500Y0029000D01*
X0136500Y0034000D01*
X0126500Y0034000D02*
X0111500Y0034000D01*
D16*
X0126500Y0059000D02*
X0091500Y0059000D01*
X0086500Y0064000D01*
X0081500Y0064000D01*
X0069000Y0064000D01*
X0054000Y0079000D01*
X0046500Y0079000D01*
X0126500Y0059000D02*
X0136500Y0059000D01*
X0146500Y0059000D01*
X0166500Y0079000D01*
X0169000Y0079000D01*
D17*
X0165145Y0083300D02*
X0163564Y0082645D01*
X0162355Y0081436D01*
X0161700Y0079855D01*
X0161700Y0078301D01*
X0145299Y0061900D01*
X0117451Y0061900D01*
X0132370Y0061900D01*
X0137370Y0066900D01*
X0138600Y0068130D01*
X0138600Y0123130D01*
X0139200Y0123730D01*
X0139200Y0123145D01*
X0139855Y0121564D01*
X0141064Y0120355D01*
X0142645Y0119700D01*
X0150355Y0119700D01*
X0151936Y0120355D01*
X0153145Y0121564D01*
X0153800Y0123145D01*
X0153800Y0124855D01*
X0153145Y0126436D01*
X0152681Y0126900D01*
X0162216Y0126900D01*
X0162355Y0126564D01*
X0163564Y0125355D01*
X0165145Y0124700D01*
X0172855Y0124700D01*
X0174436Y0125355D01*
X0175645Y0126564D01*
X0176300Y0128145D01*
X0176300Y0129855D01*
X0175645Y0131436D01*
X0174436Y0132645D01*
X0172855Y0133300D01*
X0165145Y0133300D01*
X0163564Y0132645D01*
X0162355Y0131436D01*
X0162216Y0131100D01*
X0152681Y0131100D01*
X0153145Y0131564D01*
X0153800Y0133145D01*
X0153800Y0134855D01*
X0153145Y0136436D01*
X0151936Y0137645D01*
X0150355Y0138300D01*
X0142645Y0138300D01*
X0141064Y0137645D01*
X0139855Y0136436D01*
X0139200Y0134855D01*
X0139200Y0133145D01*
X0139855Y0131564D01*
X0140475Y0130944D01*
X0139400Y0129870D01*
X0134400Y0124870D01*
X0134400Y0069870D01*
X0130630Y0066100D01*
X0117451Y0066100D01*
X0117406Y0066209D01*
X0116715Y0066900D01*
X0117370Y0066900D01*
X0120944Y0070475D01*
X0121064Y0070355D01*
X0122645Y0069700D01*
X0130355Y0069700D01*
X0131936Y0070355D01*
X0133145Y0071564D01*
X0133800Y0073145D01*
X0133800Y0074855D01*
X0133145Y0076436D01*
X0131936Y0077645D01*
X0130355Y0078300D01*
X0122645Y0078300D01*
X0121064Y0077645D01*
X0119855Y0076436D01*
X0119200Y0074855D01*
X0119200Y0074670D01*
X0118000Y0073470D01*
X0118000Y0074776D01*
X0117406Y0076209D01*
X0116715Y0076900D01*
X0117370Y0076900D01*
X0120944Y0080475D01*
X0121064Y0080355D01*
X0122645Y0079700D01*
X0130355Y0079700D01*
X0131936Y0080355D01*
X0133145Y0081564D01*
X0133800Y0083145D01*
X0133800Y0084855D01*
X0133145Y0086436D01*
X0131936Y0087645D01*
X0130355Y0088300D01*
X0122645Y0088300D01*
X0121064Y0087645D01*
X0119855Y0086436D01*
X0119200Y0084855D01*
X0119200Y0084670D01*
X0118000Y0083470D01*
X0118000Y0084776D01*
X0117406Y0086209D01*
X0116715Y0086900D01*
X0117370Y0086900D01*
X0120944Y0090475D01*
X0121064Y0090355D01*
X0122645Y0089700D01*
X0130355Y0089700D01*
X0131936Y0090355D01*
X0133145Y0091564D01*
X0133800Y0093145D01*
X0133800Y0094855D01*
X0133145Y0096436D01*
X0131936Y0097645D01*
X0130355Y0098300D01*
X0122645Y0098300D01*
X0121064Y0097645D01*
X0119855Y0096436D01*
X0119200Y0094855D01*
X0119200Y0094670D01*
X0118000Y0093470D01*
X0118000Y0094776D01*
X0117406Y0096209D01*
X0116715Y0096900D01*
X0117370Y0096900D01*
X0120944Y0100475D01*
X0121064Y0100355D01*
X0122645Y0099700D01*
X0130355Y0099700D01*
X0131936Y0100355D01*
X0133145Y0101564D01*
X0133800Y0103145D01*
X0133800Y0104855D01*
X0133145Y0106436D01*
X0131936Y0107645D01*
X0130355Y0108300D01*
X0122645Y0108300D01*
X0121064Y0107645D01*
X0119855Y0106436D01*
X0119200Y0104855D01*
X0119200Y0104670D01*
X0118000Y0103470D01*
X0118000Y0104776D01*
X0117925Y0104956D01*
X0122670Y0109700D01*
X0130355Y0109700D01*
X0131936Y0110355D01*
X0133145Y0111564D01*
X0133800Y0113145D01*
X0133800Y0114855D01*
X0133145Y0116436D01*
X0131936Y0117645D01*
X0130355Y0118300D01*
X0122645Y0118300D01*
X0121064Y0117645D01*
X0119855Y0116436D01*
X0119200Y0114855D01*
X0119200Y0113145D01*
X0119486Y0112455D01*
X0114914Y0107884D01*
X0114876Y0107900D01*
X0108124Y0107900D01*
X0106691Y0107306D01*
X0106100Y0106715D01*
X0106100Y0110630D01*
X0106427Y0110957D01*
X0106691Y0110694D01*
X0108124Y0110100D01*
X0114876Y0110100D01*
X0116309Y0110694D01*
X0117406Y0111791D01*
X0118000Y0113224D01*
X0118000Y0114776D01*
X0117406Y0116209D01*
X0116715Y0116900D01*
X0117370Y0116900D01*
X0120944Y0120475D01*
X0121064Y0120355D01*
X0122645Y0119700D01*
X0130355Y0119700D01*
X0131936Y0120355D01*
X0133145Y0121564D01*
X0133800Y0123145D01*
X0133800Y0124855D01*
X0133145Y0126436D01*
X0131936Y0127645D01*
X0130355Y0128300D01*
X0122645Y0128300D01*
X0121064Y0127645D01*
X0119855Y0126436D01*
X0119200Y0124855D01*
X0119200Y0124670D01*
X0118000Y0123470D01*
X0118000Y0124776D01*
X0117406Y0126209D01*
X0116715Y0126900D01*
X0117370Y0126900D01*
X0120944Y0130475D01*
X0121064Y0130355D01*
X0122645Y0129700D01*
X0130355Y0129700D01*
X0131936Y0130355D01*
X0133145Y0131564D01*
X0133800Y0133145D01*
X0133800Y0134855D01*
X0133145Y0136436D01*
X0131936Y0137645D01*
X0130355Y0138300D01*
X0122645Y0138300D01*
X0121064Y0137645D01*
X0119855Y0136436D01*
X0119200Y0134855D01*
X0119200Y0134670D01*
X0118000Y0133470D01*
X0118000Y0134776D01*
X0117406Y0136209D01*
X0116715Y0136900D01*
X0117370Y0136900D01*
X0120944Y0140475D01*
X0121064Y0140355D01*
X0122645Y0139700D01*
X0130355Y0139700D01*
X0131936Y0140355D01*
X0133145Y0141564D01*
X0133800Y0143145D01*
X0133800Y0144855D01*
X0133145Y0146436D01*
X0131936Y0147645D01*
X0130355Y0148300D01*
X0122645Y0148300D01*
X0121064Y0147645D01*
X0119855Y0146436D01*
X0119200Y0144855D01*
X0119200Y0144670D01*
X0118000Y0143470D01*
X0118000Y0144776D01*
X0117406Y0146209D01*
X0116309Y0147306D01*
X0114876Y0147900D01*
X0108124Y0147900D01*
X0106691Y0147306D01*
X0105594Y0146209D01*
X0105491Y0145961D01*
X0086900Y0127370D01*
X0086900Y0126715D01*
X0086309Y0127306D01*
X0084876Y0127900D01*
X0078124Y0127900D01*
X0076691Y0127306D01*
X0075594Y0126209D01*
X0075000Y0124776D01*
X0075000Y0123224D01*
X0075594Y0121791D01*
X0076691Y0120694D01*
X0078124Y0120100D01*
X0084876Y0120100D01*
X0086309Y0120694D01*
X0086900Y0121285D01*
X0086900Y0116715D01*
X0086309Y0117306D01*
X0084876Y0117900D01*
X0078124Y0117900D01*
X0076691Y0117306D01*
X0075594Y0116209D01*
X0075000Y0114776D01*
X0075000Y0113224D01*
X0075594Y0111791D01*
X0076691Y0110694D01*
X0078124Y0110100D01*
X0084876Y0110100D01*
X0086309Y0110694D01*
X0086900Y0111285D01*
X0086900Y0106715D01*
X0086309Y0107306D01*
X0084876Y0107900D01*
X0078124Y0107900D01*
X0076691Y0107306D01*
X0075594Y0106209D01*
X0075000Y0104776D01*
X0075000Y0103224D01*
X0075594Y0101791D01*
X0076691Y0100694D01*
X0078124Y0100100D01*
X0084876Y0100100D01*
X0086309Y0100694D01*
X0086900Y0101285D01*
X0086900Y0096715D01*
X0086309Y0097306D01*
X0084876Y0097900D01*
X0078124Y0097900D01*
X0076691Y0097306D01*
X0075594Y0096209D01*
X0075000Y0094776D01*
X0075000Y0093224D01*
X0075594Y0091791D01*
X0076691Y0090694D01*
X0078124Y0090100D01*
X0084876Y0090100D01*
X0086309Y0090694D01*
X0086900Y0091285D01*
X0086900Y0086715D01*
X0086309Y0087306D01*
X0084876Y0087900D01*
X0078124Y0087900D01*
X0076691Y0087306D01*
X0075594Y0086209D01*
X0075000Y0084776D01*
X0075000Y0083224D01*
X0075594Y0081791D01*
X0076691Y0080694D01*
X0078124Y0080100D01*
X0084876Y0080100D01*
X0086309Y0080694D01*
X0087406Y0081791D01*
X0088000Y0083224D01*
X0088000Y0084530D01*
X0104400Y0068130D01*
X0105630Y0066900D01*
X0106285Y0066900D01*
X0105594Y0066209D01*
X0105000Y0064776D01*
X0105000Y0063224D01*
X0105549Y0061900D01*
X0092701Y0061900D01*
X0088143Y0066458D01*
X0087077Y0066900D01*
X0086715Y0066900D01*
X0086309Y0067306D01*
X0084876Y0067900D01*
X0078124Y0067900D01*
X0076691Y0067306D01*
X0076285Y0066900D01*
X0070201Y0066900D01*
X0056458Y0080643D01*
X0055643Y0081458D01*
X0054784Y0081814D01*
X0058070Y0085100D01*
X0060615Y0085100D01*
X0062415Y0086900D01*
X0065585Y0086900D01*
X0067385Y0085100D01*
X0070615Y0085100D01*
X0072900Y0087385D01*
X0072900Y0090615D01*
X0070615Y0092900D01*
X0067385Y0092900D01*
X0065585Y0091100D01*
X0062415Y0091100D01*
X0060615Y0092900D01*
X0057385Y0092900D01*
X0055100Y0090615D01*
X0055100Y0088070D01*
X0050330Y0083300D01*
X0042645Y0083300D01*
X0041064Y0082645D01*
X0039855Y0081436D01*
X0039200Y0079855D01*
X0039200Y0078145D01*
X0039855Y0076564D01*
X0041064Y0075355D01*
X0042645Y0074700D01*
X0050355Y0074700D01*
X0051936Y0075355D01*
X0052681Y0076100D01*
X0052799Y0076100D01*
X0066692Y0062207D01*
X0065100Y0060615D01*
X0065100Y0057385D01*
X0067385Y0055100D01*
X0070615Y0055100D01*
X0072900Y0057385D01*
X0072900Y0060615D01*
X0072415Y0061100D01*
X0076285Y0061100D01*
X0076691Y0060694D01*
X0078124Y0060100D01*
X0084876Y0060100D01*
X0085882Y0060517D01*
X0089041Y0057357D01*
X0089857Y0056541D01*
X0090923Y0056100D01*
X0105549Y0056100D01*
X0105000Y0054776D01*
X0105000Y0053224D01*
X0105594Y0051791D01*
X0106691Y0050694D01*
X0108124Y0050100D01*
X0114876Y0050100D01*
X0116309Y0050694D01*
X0117406Y0051791D01*
X0118000Y0053224D01*
X0118000Y0054776D01*
X0117451Y0056100D01*
X0124400Y0056100D01*
X0124400Y0047981D01*
X0122200Y0045781D01*
X0122200Y0042219D01*
X0124719Y0039700D01*
X0128281Y0039700D01*
X0130800Y0042219D01*
X0130800Y0045781D01*
X0128600Y0047981D01*
X0128600Y0056100D01*
X0134400Y0056100D01*
X0134400Y0047981D01*
X0132200Y0045781D01*
X0132200Y0042219D01*
X0134719Y0039700D01*
X0138281Y0039700D01*
X0140800Y0042219D01*
X0140800Y0045781D01*
X0138600Y0047981D01*
X0138600Y0056100D01*
X0144400Y0056100D01*
X0144400Y0047981D01*
X0142200Y0045781D01*
X0142200Y0042219D01*
X0144719Y0039700D01*
X0148281Y0039700D01*
X0150800Y0042219D01*
X0150800Y0045781D01*
X0148600Y0047981D01*
X0148600Y0056999D01*
X0161872Y0070271D01*
X0161700Y0069855D01*
X0161700Y0068145D01*
X0162355Y0066564D01*
X0163564Y0065355D01*
X0165145Y0064700D01*
X0172855Y0064700D01*
X0174436Y0065355D01*
X0175645Y0066564D01*
X0176300Y0068145D01*
X0176300Y0069855D01*
X0175645Y0071436D01*
X0174436Y0072645D01*
X0172855Y0073300D01*
X0165145Y0073300D01*
X0164729Y0073128D01*
X0166301Y0074700D01*
X0172855Y0074700D01*
X0174436Y0075355D01*
X0175645Y0076564D01*
X0176300Y0078145D01*
X0176300Y0079855D01*
X0175645Y0081436D01*
X0174436Y0082645D01*
X0172855Y0083300D01*
X0165145Y0083300D01*
X0164137Y0082882D02*
X0153691Y0082882D01*
X0153800Y0083145D02*
X0153800Y0084855D01*
X0153145Y0086436D01*
X0151936Y0087645D01*
X0150355Y0088300D01*
X0142645Y0088300D01*
X0141064Y0087645D01*
X0139855Y0086436D01*
X0139200Y0084855D01*
X0139200Y0083145D01*
X0139855Y0081564D01*
X0141064Y0080355D01*
X0142645Y0079700D01*
X0150355Y0079700D01*
X0151936Y0080355D01*
X0153145Y0081564D01*
X0153800Y0083145D01*
X0153800Y0083881D02*
X0188201Y0083881D01*
X0188201Y0084879D02*
X0153790Y0084879D01*
X0153376Y0085878D02*
X0188201Y0085878D01*
X0188201Y0086876D02*
X0152705Y0086876D01*
X0151381Y0087875D02*
X0188201Y0087875D01*
X0188201Y0088873D02*
X0138600Y0088873D01*
X0138600Y0087875D02*
X0141619Y0087875D01*
X0140295Y0086876D02*
X0138600Y0086876D01*
X0138600Y0085878D02*
X0139624Y0085878D01*
X0139210Y0084879D02*
X0138600Y0084879D01*
X0138600Y0083881D02*
X0139200Y0083881D01*
X0139309Y0082882D02*
X0138600Y0082882D01*
X0138600Y0081884D02*
X0139722Y0081884D01*
X0140534Y0080885D02*
X0138600Y0080885D01*
X0138600Y0079887D02*
X0142194Y0079887D01*
X0142645Y0078300D02*
X0141064Y0077645D01*
X0139855Y0076436D01*
X0139200Y0074855D01*
X0139200Y0073145D01*
X0139855Y0071564D01*
X0141064Y0070355D01*
X0142645Y0069700D01*
X0150355Y0069700D01*
X0151936Y0070355D01*
X0153145Y0071564D01*
X0153800Y0073145D01*
X0153800Y0074855D01*
X0153145Y0076436D01*
X0151936Y0077645D01*
X0150355Y0078300D01*
X0142645Y0078300D01*
X0141654Y0077890D02*
X0138600Y0077890D01*
X0138600Y0078888D02*
X0161700Y0078888D01*
X0161713Y0079887D02*
X0150806Y0079887D01*
X0152466Y0080885D02*
X0162127Y0080885D01*
X0162803Y0081884D02*
X0153278Y0081884D01*
X0151346Y0077890D02*
X0161289Y0077890D01*
X0160290Y0076891D02*
X0152690Y0076891D01*
X0153370Y0075893D02*
X0159292Y0075893D01*
X0158293Y0074894D02*
X0153784Y0074894D01*
X0153800Y0073896D02*
X0157295Y0073896D01*
X0156296Y0072897D02*
X0153698Y0072897D01*
X0153284Y0071899D02*
X0155298Y0071899D01*
X0154299Y0070900D02*
X0152481Y0070900D01*
X0153301Y0069902D02*
X0150842Y0069902D01*
X0152302Y0068903D02*
X0138600Y0068903D01*
X0138600Y0069902D02*
X0142158Y0069902D01*
X0140519Y0070900D02*
X0138600Y0070900D01*
X0138600Y0071899D02*
X0139716Y0071899D01*
X0139302Y0072897D02*
X0138600Y0072897D01*
X0138600Y0073896D02*
X0139200Y0073896D01*
X0139216Y0074894D02*
X0138600Y0074894D01*
X0138600Y0075893D02*
X0139630Y0075893D01*
X0140310Y0076891D02*
X0138600Y0076891D01*
X0134400Y0076891D02*
X0132690Y0076891D01*
X0133370Y0075893D02*
X0134400Y0075893D01*
X0134400Y0074894D02*
X0133784Y0074894D01*
X0133800Y0073896D02*
X0134400Y0073896D01*
X0134400Y0072897D02*
X0133698Y0072897D01*
X0133284Y0071899D02*
X0134400Y0071899D01*
X0134400Y0070900D02*
X0132481Y0070900D01*
X0130842Y0069902D02*
X0134400Y0069902D01*
X0133433Y0068903D02*
X0119373Y0068903D01*
X0118375Y0067905D02*
X0132435Y0067905D01*
X0131436Y0066906D02*
X0117376Y0066906D01*
X0120372Y0069902D02*
X0122158Y0069902D01*
X0118426Y0073896D02*
X0118000Y0073896D01*
X0117951Y0074894D02*
X0119216Y0074894D01*
X0119630Y0075893D02*
X0117537Y0075893D01*
X0116724Y0076891D02*
X0120310Y0076891D01*
X0121654Y0077890D02*
X0118360Y0077890D01*
X0119358Y0078888D02*
X0134400Y0078888D01*
X0134400Y0077890D02*
X0131346Y0077890D01*
X0130806Y0079887D02*
X0134400Y0079887D01*
X0134400Y0080885D02*
X0132466Y0080885D01*
X0133278Y0081884D02*
X0134400Y0081884D01*
X0134400Y0082882D02*
X0133691Y0082882D01*
X0133800Y0083881D02*
X0134400Y0083881D01*
X0134400Y0084879D02*
X0133790Y0084879D01*
X0133376Y0085878D02*
X0134400Y0085878D01*
X0134400Y0086876D02*
X0132705Y0086876D01*
X0131381Y0087875D02*
X0134400Y0087875D01*
X0134400Y0088873D02*
X0119343Y0088873D01*
X0118345Y0087875D02*
X0121619Y0087875D01*
X0120295Y0086876D02*
X0116739Y0086876D01*
X0117543Y0085878D02*
X0119624Y0085878D01*
X0119210Y0084879D02*
X0117957Y0084879D01*
X0118000Y0083881D02*
X0118411Y0083881D01*
X0120357Y0079887D02*
X0122194Y0079887D01*
X0122229Y0089872D02*
X0120342Y0089872D01*
X0118396Y0093866D02*
X0118000Y0093866D01*
X0117963Y0094865D02*
X0119204Y0094865D01*
X0119617Y0095863D02*
X0117550Y0095863D01*
X0116754Y0096862D02*
X0120280Y0096862D01*
X0121583Y0097860D02*
X0118330Y0097860D01*
X0119328Y0098859D02*
X0134400Y0098859D01*
X0134400Y0099857D02*
X0130735Y0099857D01*
X0132437Y0100856D02*
X0134400Y0100856D01*
X0134400Y0101854D02*
X0133265Y0101854D01*
X0133679Y0102853D02*
X0134400Y0102853D01*
X0134400Y0103851D02*
X0133800Y0103851D01*
X0133800Y0104850D02*
X0134400Y0104850D01*
X0134400Y0105848D02*
X0133389Y0105848D01*
X0132734Y0106847D02*
X0134400Y0106847D01*
X0134400Y0107845D02*
X0131453Y0107845D01*
X0130699Y0109842D02*
X0134400Y0109842D01*
X0134400Y0108844D02*
X0121814Y0108844D01*
X0121547Y0107845D02*
X0120815Y0107845D01*
X0120266Y0106847D02*
X0119816Y0106847D01*
X0119611Y0105848D02*
X0118818Y0105848D01*
X0119200Y0104850D02*
X0117969Y0104850D01*
X0118000Y0103851D02*
X0118381Y0103851D01*
X0120327Y0099857D02*
X0122265Y0099857D01*
X0131417Y0097860D02*
X0134400Y0097860D01*
X0134400Y0096862D02*
X0132720Y0096862D01*
X0133383Y0095863D02*
X0134400Y0095863D01*
X0134400Y0094865D02*
X0133796Y0094865D01*
X0133800Y0093866D02*
X0134400Y0093866D01*
X0134400Y0092868D02*
X0133685Y0092868D01*
X0133272Y0091869D02*
X0134400Y0091869D01*
X0134400Y0090870D02*
X0132452Y0090870D01*
X0130770Y0089872D02*
X0134400Y0089872D01*
X0138600Y0089872D02*
X0142229Y0089872D01*
X0142645Y0089700D02*
X0141064Y0090355D01*
X0139855Y0091564D01*
X0139200Y0093145D01*
X0139200Y0094855D01*
X0139855Y0096436D01*
X0141064Y0097645D01*
X0142645Y0098300D01*
X0150355Y0098300D01*
X0151936Y0097645D01*
X0153145Y0096436D01*
X0153800Y0094855D01*
X0153800Y0093145D01*
X0153145Y0091564D01*
X0151936Y0090355D01*
X0150355Y0089700D01*
X0142645Y0089700D01*
X0140548Y0090870D02*
X0138600Y0090870D01*
X0138600Y0091869D02*
X0139728Y0091869D01*
X0139315Y0092868D02*
X0138600Y0092868D01*
X0138600Y0093866D02*
X0139200Y0093866D01*
X0139204Y0094865D02*
X0138600Y0094865D01*
X0138600Y0095863D02*
X0139617Y0095863D01*
X0140280Y0096862D02*
X0138600Y0096862D01*
X0138600Y0097860D02*
X0141583Y0097860D01*
X0142265Y0099857D02*
X0138600Y0099857D01*
X0138600Y0098859D02*
X0188201Y0098859D01*
X0188201Y0099857D02*
X0173781Y0099857D01*
X0173727Y0099830D02*
X0174359Y0100151D01*
X0174932Y0100568D01*
X0175432Y0101068D01*
X0175849Y0101641D01*
X0176170Y0102273D01*
X0176389Y0102946D01*
X0176477Y0103500D01*
X0169500Y0103500D01*
X0169500Y0104500D01*
X0168500Y0104500D01*
X0168500Y0108500D01*
X0165646Y0108500D01*
X0164946Y0108389D01*
X0164273Y0108170D01*
X0163641Y0107849D01*
X0163068Y0107432D01*
X0162568Y0106932D01*
X0162151Y0106359D01*
X0161830Y0105727D01*
X0161611Y0105054D01*
X0161523Y0104500D01*
X0168500Y0104500D01*
X0168500Y0103500D01*
X0169500Y0103500D01*
X0169500Y0099500D01*
X0172354Y0099500D01*
X0173054Y0099611D01*
X0173727Y0099830D01*
X0173054Y0098389D02*
X0172354Y0098500D01*
X0169500Y0098500D01*
X0169500Y0094500D01*
X0168500Y0094500D01*
X0168500Y0098500D01*
X0165646Y0098500D01*
X0164946Y0098389D01*
X0164273Y0098170D01*
X0163641Y0097849D01*
X0163068Y0097432D01*
X0162568Y0096932D01*
X0162151Y0096359D01*
X0161830Y0095727D01*
X0161611Y0095054D01*
X0161523Y0094500D01*
X0168500Y0094500D01*
X0168500Y0093500D01*
X0169500Y0093500D01*
X0169500Y0094500D01*
X0176477Y0094500D01*
X0176389Y0095054D01*
X0176170Y0095727D01*
X0175849Y0096359D01*
X0175432Y0096932D01*
X0174932Y0097432D01*
X0174359Y0097849D01*
X0173727Y0098170D01*
X0173054Y0098389D01*
X0174336Y0097860D02*
X0188201Y0097860D01*
X0188201Y0096862D02*
X0175483Y0096862D01*
X0176101Y0095863D02*
X0188201Y0095863D01*
X0188201Y0094865D02*
X0176419Y0094865D01*
X0176477Y0093500D02*
X0169500Y0093500D01*
X0169500Y0089500D01*
X0172354Y0089500D01*
X0173054Y0089611D01*
X0173727Y0089830D01*
X0174359Y0090151D01*
X0174932Y0090568D01*
X0175432Y0091068D01*
X0175849Y0091641D01*
X0176170Y0092273D01*
X0176389Y0092946D01*
X0176477Y0093500D01*
X0176364Y0092868D02*
X0188201Y0092868D01*
X0188201Y0093866D02*
X0169500Y0093866D01*
X0169500Y0092868D02*
X0168500Y0092868D01*
X0168500Y0093500D02*
X0168500Y0089500D01*
X0165646Y0089500D01*
X0164946Y0089611D01*
X0164273Y0089830D01*
X0163641Y0090151D01*
X0163068Y0090568D01*
X0162568Y0091068D01*
X0162151Y0091641D01*
X0161830Y0092273D01*
X0161611Y0092946D01*
X0161523Y0093500D01*
X0168500Y0093500D01*
X0168500Y0093866D02*
X0153800Y0093866D01*
X0153796Y0094865D02*
X0161581Y0094865D01*
X0161899Y0095863D02*
X0153383Y0095863D01*
X0152720Y0096862D02*
X0162517Y0096862D01*
X0163664Y0097860D02*
X0151417Y0097860D01*
X0150735Y0099857D02*
X0164219Y0099857D01*
X0164273Y0099830D02*
X0164946Y0099611D01*
X0165646Y0099500D01*
X0168500Y0099500D01*
X0168500Y0103500D01*
X0161523Y0103500D01*
X0161611Y0102946D01*
X0161830Y0102273D01*
X0162151Y0101641D01*
X0162568Y0101068D01*
X0163068Y0100568D01*
X0163641Y0100151D01*
X0164273Y0099830D01*
X0162780Y0100856D02*
X0152437Y0100856D01*
X0151936Y0100355D02*
X0153145Y0101564D01*
X0153800Y0103145D01*
X0153800Y0104855D01*
X0153145Y0106436D01*
X0151936Y0107645D01*
X0150355Y0108300D01*
X0142645Y0108300D01*
X0141064Y0107645D01*
X0139855Y0106436D01*
X0139200Y0104855D01*
X0139200Y0103145D01*
X0139855Y0101564D01*
X0141064Y0100355D01*
X0142645Y0099700D01*
X0150355Y0099700D01*
X0151936Y0100355D01*
X0153265Y0101854D02*
X0162043Y0101854D01*
X0161641Y0102853D02*
X0153679Y0102853D01*
X0153800Y0103851D02*
X0168500Y0103851D01*
X0168500Y0102853D02*
X0169500Y0102853D01*
X0169500Y0103851D02*
X0188201Y0103851D01*
X0188201Y0102853D02*
X0176359Y0102853D01*
X0175957Y0101854D02*
X0188201Y0101854D01*
X0188201Y0100856D02*
X0175220Y0100856D01*
X0176477Y0104500D02*
X0176389Y0105054D01*
X0176170Y0105727D01*
X0175849Y0106359D01*
X0175432Y0106932D01*
X0174932Y0107432D01*
X0174359Y0107849D01*
X0173727Y0108170D01*
X0173054Y0108389D01*
X0172354Y0108500D01*
X0169500Y0108500D01*
X0169500Y0104500D01*
X0176477Y0104500D01*
X0176422Y0104850D02*
X0188201Y0104850D01*
X0188201Y0105848D02*
X0176109Y0105848D01*
X0175494Y0106847D02*
X0188201Y0106847D01*
X0188201Y0107845D02*
X0174363Y0107845D01*
X0169500Y0107845D02*
X0168500Y0107845D01*
X0168500Y0106847D02*
X0169500Y0106847D01*
X0169500Y0105848D02*
X0168500Y0105848D01*
X0168500Y0104850D02*
X0169500Y0104850D01*
X0169500Y0101854D02*
X0168500Y0101854D01*
X0168500Y0100856D02*
X0169500Y0100856D01*
X0169500Y0099857D02*
X0168500Y0099857D01*
X0168500Y0097860D02*
X0169500Y0097860D01*
X0169500Y0096862D02*
X0168500Y0096862D01*
X0168500Y0095863D02*
X0169500Y0095863D01*
X0169500Y0094865D02*
X0168500Y0094865D01*
X0168500Y0091869D02*
X0169500Y0091869D01*
X0169500Y0090870D02*
X0168500Y0090870D01*
X0168500Y0089872D02*
X0169500Y0089872D01*
X0173810Y0089872D02*
X0188201Y0089872D01*
X0188201Y0090870D02*
X0175234Y0090870D01*
X0175965Y0091869D02*
X0188201Y0091869D01*
X0188201Y0082882D02*
X0173863Y0082882D01*
X0175197Y0081884D02*
X0188201Y0081884D01*
X0188201Y0080885D02*
X0175873Y0080885D01*
X0176287Y0079887D02*
X0188201Y0079887D01*
X0188201Y0078888D02*
X0176300Y0078888D01*
X0176194Y0077890D02*
X0188201Y0077890D01*
X0188201Y0076891D02*
X0175781Y0076891D01*
X0174974Y0075893D02*
X0188201Y0075893D01*
X0188201Y0074894D02*
X0173324Y0074894D01*
X0173828Y0072897D02*
X0188201Y0072897D01*
X0188201Y0071899D02*
X0175182Y0071899D01*
X0175867Y0070900D02*
X0188201Y0070900D01*
X0188201Y0069902D02*
X0176281Y0069902D01*
X0176300Y0068903D02*
X0188201Y0068903D01*
X0188201Y0067905D02*
X0176201Y0067905D01*
X0175787Y0066906D02*
X0188201Y0066906D01*
X0188201Y0065908D02*
X0174989Y0065908D01*
X0173360Y0064909D02*
X0188201Y0064909D01*
X0188201Y0063911D02*
X0155512Y0063911D01*
X0156510Y0064909D02*
X0164640Y0064909D01*
X0165145Y0063300D02*
X0163564Y0062645D01*
X0162355Y0061436D01*
X0161700Y0059855D01*
X0161700Y0058145D01*
X0162355Y0056564D01*
X0163564Y0055355D01*
X0165145Y0054700D01*
X0172855Y0054700D01*
X0174436Y0055355D01*
X0175645Y0056564D01*
X0176300Y0058145D01*
X0176300Y0059855D01*
X0175645Y0061436D01*
X0174436Y0062645D01*
X0172855Y0063300D01*
X0165145Y0063300D01*
X0164208Y0062912D02*
X0154513Y0062912D01*
X0153515Y0061914D02*
X0162833Y0061914D01*
X0162139Y0060915D02*
X0152516Y0060915D01*
X0151518Y0059917D02*
X0161725Y0059917D01*
X0161700Y0058918D02*
X0150519Y0058918D01*
X0149521Y0057920D02*
X0161793Y0057920D01*
X0162207Y0056921D02*
X0148600Y0056921D01*
X0148600Y0055923D02*
X0162996Y0055923D01*
X0164604Y0054924D02*
X0148600Y0054924D01*
X0148600Y0053926D02*
X0188201Y0053926D01*
X0188201Y0054924D02*
X0173396Y0054924D01*
X0173054Y0053389D02*
X0172354Y0053500D01*
X0169500Y0053500D01*
X0169500Y0049500D01*
X0168500Y0049500D01*
X0168500Y0053500D01*
X0165646Y0053500D01*
X0164946Y0053389D01*
X0164273Y0053170D01*
X0163641Y0052849D01*
X0163068Y0052432D01*
X0162568Y0051932D01*
X0162151Y0051359D01*
X0161830Y0050727D01*
X0161611Y0050054D01*
X0161523Y0049500D01*
X0168500Y0049500D01*
X0168500Y0048500D01*
X0169500Y0048500D01*
X0169500Y0049500D01*
X0176477Y0049500D01*
X0176389Y0050054D01*
X0176170Y0050727D01*
X0175849Y0051359D01*
X0175432Y0051932D01*
X0174932Y0052432D01*
X0174359Y0052849D01*
X0173727Y0053170D01*
X0173054Y0053389D01*
X0174205Y0052927D02*
X0188201Y0052927D01*
X0188201Y0051929D02*
X0175435Y0051929D01*
X0176067Y0050930D02*
X0188201Y0050930D01*
X0188201Y0049932D02*
X0176409Y0049932D01*
X0176477Y0048500D02*
X0176389Y0047946D01*
X0176170Y0047273D01*
X0175849Y0046641D01*
X0175432Y0046068D01*
X0174932Y0045568D01*
X0174359Y0045151D01*
X0173727Y0044830D01*
X0173054Y0044611D01*
X0172354Y0044500D01*
X0169500Y0044500D01*
X0169500Y0048500D01*
X0176477Y0048500D01*
X0176385Y0047934D02*
X0188201Y0047934D01*
X0188201Y0046936D02*
X0175999Y0046936D01*
X0175301Y0045937D02*
X0188201Y0045937D01*
X0188201Y0044939D02*
X0173942Y0044939D01*
X0169500Y0044939D02*
X0168500Y0044939D01*
X0168500Y0044500D02*
X0168500Y0048500D01*
X0161523Y0048500D01*
X0161611Y0047946D01*
X0161830Y0047273D01*
X0162151Y0046641D01*
X0162568Y0046068D01*
X0163068Y0045568D01*
X0163641Y0045151D01*
X0164273Y0044830D01*
X0164946Y0044611D01*
X0165646Y0044500D01*
X0168500Y0044500D01*
X0168500Y0045937D02*
X0169500Y0045937D01*
X0169500Y0046936D02*
X0168500Y0046936D01*
X0168500Y0047934D02*
X0169500Y0047934D01*
X0169500Y0048933D02*
X0188201Y0048933D01*
X0188201Y0043940D02*
X0150800Y0043940D01*
X0150800Y0042942D02*
X0188201Y0042942D01*
X0188201Y0041943D02*
X0150525Y0041943D01*
X0149526Y0040945D02*
X0188201Y0040945D01*
X0188201Y0039946D02*
X0177456Y0039946D01*
X0175233Y0040454D02*
X0175233Y0040454D01*
X0170328Y0040086D01*
X0165750Y0038289D01*
X0161905Y0035223D01*
X0159134Y0031159D01*
X0157684Y0026459D01*
X0157684Y0021541D01*
X0159134Y0016841D01*
X0159134Y0016841D01*
X0161905Y0012777D01*
X0165750Y0009711D01*
X0168835Y0008500D01*
X0046912Y0008500D01*
X0047528Y0008641D01*
X0051788Y0011100D01*
X0055133Y0014705D01*
X0055133Y0014705D01*
X0057267Y0019137D01*
X0058000Y0024000D01*
X0057267Y0028863D01*
X0057267Y0028863D01*
X0055133Y0033295D01*
X0051788Y0036900D01*
X0051788Y0036900D01*
X0047528Y0039359D01*
X0042733Y0040454D01*
X0037828Y0040086D01*
X0033250Y0038289D01*
X0029405Y0035223D01*
X0026634Y0031159D01*
X0026000Y0029104D01*
X0026000Y0148896D01*
X0026634Y0146841D01*
X0026634Y0146841D01*
X0029405Y0142777D01*
X0033250Y0139711D01*
X0037828Y0137914D01*
X0037828Y0137914D01*
X0042733Y0137546D01*
X0047528Y0138641D01*
X0051788Y0141100D01*
X0055133Y0144705D01*
X0055133Y0144705D01*
X0057267Y0149137D01*
X0058000Y0154000D01*
X0057267Y0158863D01*
X0057267Y0158863D01*
X0055133Y0163295D01*
X0051788Y0166900D01*
X0051788Y0166900D01*
X0047528Y0169359D01*
X0047085Y0169461D01*
X0168734Y0169461D01*
X0165750Y0168289D01*
X0161905Y0165223D01*
X0161905Y0165223D01*
X0159134Y0161159D01*
X0157684Y0156459D01*
X0157684Y0151541D01*
X0159134Y0146841D01*
X0159134Y0146841D01*
X0161905Y0142777D01*
X0165750Y0139711D01*
X0170328Y0137914D01*
X0170328Y0137914D01*
X0175233Y0137546D01*
X0180028Y0138641D01*
X0184288Y0141100D01*
X0187633Y0144705D01*
X0187633Y0144705D01*
X0188201Y0145884D01*
X0188201Y0032116D01*
X0187633Y0033295D01*
X0184288Y0036900D01*
X0184288Y0036900D01*
X0180028Y0039359D01*
X0175233Y0040454D01*
X0170328Y0040086D02*
X0170328Y0040086D01*
X0169972Y0039946D02*
X0148528Y0039946D01*
X0148281Y0038300D02*
X0144719Y0038300D01*
X0142200Y0035781D01*
X0142200Y0032670D01*
X0139400Y0029870D01*
X0139400Y0027464D01*
X0138364Y0028500D01*
X0137000Y0028500D01*
X0137000Y0024500D01*
X0136000Y0024500D01*
X0136000Y0028500D01*
X0134636Y0028500D01*
X0132000Y0025864D01*
X0132000Y0024500D01*
X0136000Y0024500D01*
X0136000Y0023500D01*
X0137000Y0023500D01*
X0139400Y0023500D01*
X0139400Y0024500D01*
X0137000Y0024500D01*
X0137000Y0023500D01*
X0137000Y0019500D01*
X0138364Y0019500D01*
X0139400Y0020536D01*
X0139400Y0019870D01*
X0135630Y0016100D01*
X0117451Y0016100D01*
X0117406Y0016209D01*
X0116309Y0017306D01*
X0114876Y0017900D01*
X0108124Y0017900D01*
X0106691Y0017306D01*
X0105594Y0016209D01*
X0105000Y0014776D01*
X0105000Y0013224D01*
X0105594Y0011791D01*
X0106691Y0010694D01*
X0108124Y0010100D01*
X0114876Y0010100D01*
X0116309Y0010694D01*
X0117406Y0011791D01*
X0117451Y0011900D01*
X0137370Y0011900D01*
X0142370Y0016900D01*
X0143600Y0018130D01*
X0143600Y0020536D01*
X0144636Y0019500D01*
X0146000Y0019500D01*
X0146000Y0023500D01*
X0147000Y0023500D01*
X0147000Y0024500D01*
X0146000Y0024500D01*
X0146000Y0028500D01*
X0144636Y0028500D01*
X0143600Y0027464D01*
X0143600Y0028130D01*
X0145170Y0029700D01*
X0148281Y0029700D01*
X0150800Y0032219D01*
X0150800Y0035781D01*
X0148281Y0038300D01*
X0148632Y0037949D02*
X0165324Y0037949D01*
X0164072Y0036951D02*
X0149630Y0036951D01*
X0150629Y0035952D02*
X0162819Y0035952D01*
X0161905Y0035223D02*
X0161905Y0035223D01*
X0161721Y0034954D02*
X0150800Y0034954D01*
X0150800Y0033955D02*
X0161040Y0033955D01*
X0160360Y0032957D02*
X0150800Y0032957D01*
X0150539Y0031958D02*
X0159679Y0031958D01*
X0159073Y0030960D02*
X0149541Y0030960D01*
X0148542Y0029961D02*
X0158765Y0029961D01*
X0158457Y0028963D02*
X0144433Y0028963D01*
X0144100Y0027964D02*
X0143600Y0027964D01*
X0146000Y0027964D02*
X0147000Y0027964D01*
X0147000Y0028500D02*
X0147000Y0024500D01*
X0151000Y0024500D01*
X0151000Y0025864D01*
X0148364Y0028500D01*
X0147000Y0028500D01*
X0147000Y0026966D02*
X0146000Y0026966D01*
X0146000Y0025967D02*
X0147000Y0025967D01*
X0147000Y0024969D02*
X0146000Y0024969D01*
X0147000Y0023970D02*
X0157684Y0023970D01*
X0157684Y0022972D02*
X0151000Y0022972D01*
X0151000Y0023500D02*
X0147000Y0023500D01*
X0147000Y0019500D01*
X0148364Y0019500D01*
X0151000Y0022136D01*
X0151000Y0023500D01*
X0151000Y0024969D02*
X0157684Y0024969D01*
X0157684Y0025967D02*
X0150897Y0025967D01*
X0149898Y0026966D02*
X0157841Y0026966D01*
X0157684Y0026459D02*
X0157684Y0026459D01*
X0158149Y0027964D02*
X0148900Y0027964D01*
X0147000Y0022972D02*
X0146000Y0022972D01*
X0146000Y0021973D02*
X0147000Y0021973D01*
X0147000Y0020975D02*
X0146000Y0020975D01*
X0146000Y0019976D02*
X0147000Y0019976D01*
X0148840Y0019976D02*
X0158167Y0019976D01*
X0158475Y0018978D02*
X0143600Y0018978D01*
X0143600Y0019976D02*
X0144160Y0019976D01*
X0143449Y0017979D02*
X0158783Y0017979D01*
X0159091Y0016981D02*
X0142450Y0016981D01*
X0141452Y0015982D02*
X0159720Y0015982D01*
X0160400Y0014984D02*
X0140453Y0014984D01*
X0139455Y0013985D02*
X0161081Y0013985D01*
X0161762Y0012987D02*
X0138456Y0012987D01*
X0137458Y0011988D02*
X0162894Y0011988D01*
X0161905Y0012777D02*
X0161905Y0012777D01*
X0161905Y0012777D01*
X0164146Y0010990D02*
X0116605Y0010990D01*
X0116635Y0016981D02*
X0136511Y0016981D01*
X0137509Y0017979D02*
X0072900Y0017979D01*
X0072900Y0017385D02*
X0070615Y0015100D01*
X0067385Y0015100D01*
X0065100Y0017385D01*
X0065100Y0020615D01*
X0067385Y0022900D01*
X0070615Y0022900D01*
X0072900Y0020615D01*
X0072900Y0017385D01*
X0072496Y0016981D02*
X0076365Y0016981D01*
X0076691Y0017306D02*
X0075594Y0016209D01*
X0075000Y0014776D01*
X0075000Y0013224D01*
X0075594Y0011791D01*
X0076691Y0010694D01*
X0078124Y0010100D01*
X0084876Y0010100D01*
X0086309Y0010694D01*
X0087406Y0011791D01*
X0088000Y0013224D01*
X0088000Y0014776D01*
X0087406Y0016209D01*
X0086309Y0017306D01*
X0084876Y0017900D01*
X0078124Y0017900D01*
X0076691Y0017306D01*
X0075500Y0015982D02*
X0071498Y0015982D01*
X0072900Y0018978D02*
X0138508Y0018978D01*
X0138840Y0019976D02*
X0139400Y0019976D01*
X0137000Y0019976D02*
X0136000Y0019976D01*
X0136000Y0019500D02*
X0136000Y0023500D01*
X0132000Y0023500D01*
X0132000Y0022136D01*
X0134636Y0019500D01*
X0136000Y0019500D01*
X0136000Y0020975D02*
X0137000Y0020975D01*
X0137000Y0021973D02*
X0136000Y0021973D01*
X0136000Y0022972D02*
X0137000Y0022972D01*
X0137000Y0023970D02*
X0139400Y0023970D01*
X0137000Y0024969D02*
X0136000Y0024969D01*
X0136000Y0025967D02*
X0137000Y0025967D01*
X0137000Y0026966D02*
X0136000Y0026966D01*
X0136000Y0027964D02*
X0137000Y0027964D01*
X0138900Y0027964D02*
X0139400Y0027964D01*
X0139400Y0028963D02*
X0134433Y0028963D01*
X0135170Y0029700D02*
X0133600Y0028130D01*
X0133600Y0028130D01*
X0132370Y0026900D01*
X0129964Y0026900D01*
X0131000Y0025864D01*
X0131000Y0024500D01*
X0127000Y0024500D01*
X0127000Y0023500D01*
X0131000Y0023500D01*
X0131000Y0022136D01*
X0128364Y0019500D01*
X0127000Y0019500D01*
X0127000Y0023500D01*
X0126000Y0023500D01*
X0126000Y0019500D01*
X0124636Y0019500D01*
X0122000Y0022136D01*
X0122000Y0023500D01*
X0126000Y0023500D01*
X0126000Y0024500D01*
X0122000Y0024500D01*
X0122000Y0025864D01*
X0123036Y0026900D01*
X0122370Y0026900D01*
X0117509Y0022039D01*
X0117406Y0021791D01*
X0116309Y0020694D01*
X0114876Y0020100D01*
X0108124Y0020100D01*
X0106691Y0020694D01*
X0105594Y0021791D01*
X0105000Y0023224D01*
X0105000Y0024776D01*
X0105594Y0026209D01*
X0106691Y0027306D01*
X0108124Y0027900D01*
X0114876Y0027900D01*
X0116309Y0027306D01*
X0116573Y0027043D01*
X0119400Y0029870D01*
X0120630Y0031100D01*
X0123319Y0031100D01*
X0122519Y0031900D01*
X0117451Y0031900D01*
X0117406Y0031791D01*
X0116309Y0030694D01*
X0114876Y0030100D01*
X0108124Y0030100D01*
X0106691Y0030694D01*
X0105594Y0031791D01*
X0105000Y0033224D01*
X0105000Y0034776D01*
X0105594Y0036209D01*
X0106691Y0037306D01*
X0108124Y0037900D01*
X0114876Y0037900D01*
X0116309Y0037306D01*
X0117406Y0036209D01*
X0117451Y0036100D01*
X0122519Y0036100D01*
X0124719Y0038300D01*
X0128281Y0038300D01*
X0130800Y0035781D01*
X0130800Y0032219D01*
X0129681Y0031100D01*
X0130630Y0031100D01*
X0132200Y0032670D01*
X0132200Y0035781D01*
X0134719Y0038300D01*
X0138281Y0038300D01*
X0140800Y0035781D01*
X0140800Y0032219D01*
X0138281Y0029700D01*
X0135170Y0029700D01*
X0134100Y0027964D02*
X0133434Y0027964D01*
X0133102Y0026966D02*
X0132436Y0026966D01*
X0132103Y0025967D02*
X0130897Y0025967D01*
X0131000Y0024969D02*
X0132000Y0024969D01*
X0132000Y0022972D02*
X0131000Y0022972D01*
X0130837Y0021973D02*
X0132163Y0021973D01*
X0133161Y0020975D02*
X0129839Y0020975D01*
X0128840Y0019976D02*
X0134160Y0019976D01*
X0136000Y0023970D02*
X0127000Y0023970D01*
X0127000Y0022972D02*
X0126000Y0022972D01*
X0126000Y0023970D02*
X0119440Y0023970D01*
X0118442Y0022972D02*
X0122000Y0022972D01*
X0122163Y0021973D02*
X0117482Y0021973D01*
X0116590Y0020975D02*
X0123161Y0020975D01*
X0124160Y0019976D02*
X0072900Y0019976D01*
X0072541Y0020975D02*
X0076410Y0020975D01*
X0076691Y0020694D02*
X0078124Y0020100D01*
X0084876Y0020100D01*
X0086309Y0020694D01*
X0087406Y0021791D01*
X0088000Y0023224D01*
X0088000Y0024776D01*
X0087406Y0026209D01*
X0086309Y0027306D01*
X0084876Y0027900D01*
X0080570Y0027900D01*
X0078370Y0030100D01*
X0084876Y0030100D01*
X0086309Y0030694D01*
X0087406Y0031791D01*
X0088000Y0033224D01*
X0088000Y0034776D01*
X0087406Y0036209D01*
X0086309Y0037306D01*
X0084876Y0037900D01*
X0080570Y0037900D01*
X0078370Y0040100D01*
X0084876Y0040100D01*
X0086309Y0040694D01*
X0087406Y0041791D01*
X0088000Y0043224D01*
X0088000Y0044776D01*
X0087406Y0046209D01*
X0086309Y0047306D01*
X0084876Y0047900D01*
X0078124Y0047900D01*
X0076691Y0047306D01*
X0075594Y0046209D01*
X0075000Y0044776D01*
X0075000Y0043470D01*
X0052525Y0065944D01*
X0053145Y0066564D01*
X0053800Y0068145D01*
X0053800Y0069855D01*
X0053145Y0071436D01*
X0051936Y0072645D01*
X0050355Y0073300D01*
X0042645Y0073300D01*
X0041064Y0072645D01*
X0040944Y0072525D01*
X0038600Y0074870D01*
X0038600Y0113130D01*
X0040944Y0115475D01*
X0041064Y0115355D01*
X0042645Y0114700D01*
X0050355Y0114700D01*
X0051936Y0115355D01*
X0053145Y0116564D01*
X0053800Y0118145D01*
X0053800Y0119855D01*
X0053145Y0121436D01*
X0051936Y0122645D01*
X0050355Y0123300D01*
X0042645Y0123300D01*
X0041064Y0122645D01*
X0039855Y0121436D01*
X0039200Y0119855D01*
X0039200Y0119670D01*
X0035630Y0116100D01*
X0034400Y0114870D01*
X0034400Y0073130D01*
X0039200Y0068330D01*
X0039200Y0068145D01*
X0039855Y0066564D01*
X0041064Y0065355D01*
X0042645Y0064700D01*
X0047830Y0064700D01*
X0049230Y0063300D01*
X0042645Y0063300D01*
X0041064Y0062645D01*
X0039855Y0061436D01*
X0039200Y0059855D01*
X0039200Y0058145D01*
X0039855Y0056564D01*
X0041064Y0055355D01*
X0042645Y0054700D01*
X0047830Y0054700D01*
X0049030Y0053500D01*
X0047000Y0053500D01*
X0047000Y0049500D01*
X0053030Y0049500D01*
X0075957Y0026573D01*
X0075594Y0026209D01*
X0075000Y0024776D01*
X0075000Y0023224D01*
X0075594Y0021791D01*
X0076691Y0020694D01*
X0075518Y0021973D02*
X0071542Y0021973D01*
X0075105Y0022972D02*
X0057845Y0022972D01*
X0057995Y0023970D02*
X0075000Y0023970D01*
X0075080Y0024969D02*
X0057854Y0024969D01*
X0057703Y0025967D02*
X0075494Y0025967D01*
X0075564Y0026966D02*
X0057553Y0026966D01*
X0057402Y0027964D02*
X0074566Y0027964D01*
X0073567Y0028963D02*
X0057219Y0028963D01*
X0056738Y0029961D02*
X0072569Y0029961D01*
X0071570Y0030960D02*
X0056257Y0030960D01*
X0055777Y0031958D02*
X0070572Y0031958D01*
X0069573Y0032957D02*
X0055296Y0032957D01*
X0055133Y0033295D02*
X0055133Y0033295D01*
X0054520Y0033955D02*
X0068575Y0033955D01*
X0067576Y0034954D02*
X0053594Y0034954D01*
X0052667Y0035952D02*
X0066578Y0035952D01*
X0065579Y0036951D02*
X0051700Y0036951D01*
X0049970Y0037949D02*
X0064581Y0037949D01*
X0063582Y0038948D02*
X0048241Y0038948D01*
X0047528Y0039359D02*
X0047528Y0039359D01*
X0044956Y0039946D02*
X0062584Y0039946D01*
X0061585Y0040945D02*
X0026000Y0040945D01*
X0026000Y0041943D02*
X0060587Y0041943D01*
X0059588Y0042942D02*
X0026000Y0042942D01*
X0026000Y0043940D02*
X0058590Y0043940D01*
X0057591Y0044939D02*
X0051442Y0044939D01*
X0051227Y0044830D02*
X0051859Y0045151D01*
X0052432Y0045568D01*
X0052932Y0046068D01*
X0053349Y0046641D01*
X0053670Y0047273D01*
X0053889Y0047946D01*
X0053977Y0048500D01*
X0047000Y0048500D01*
X0047000Y0049500D01*
X0046000Y0049500D01*
X0046000Y0053500D01*
X0043146Y0053500D01*
X0042446Y0053389D01*
X0041773Y0053170D01*
X0041141Y0052849D01*
X0040568Y0052432D01*
X0040068Y0051932D01*
X0039651Y0051359D01*
X0039330Y0050727D01*
X0039111Y0050054D01*
X0039023Y0049500D01*
X0046000Y0049500D01*
X0046000Y0048500D01*
X0047000Y0048500D01*
X0047000Y0044500D01*
X0049854Y0044500D01*
X0050554Y0044611D01*
X0051227Y0044830D01*
X0052801Y0045937D02*
X0056593Y0045937D01*
X0055594Y0046936D02*
X0053499Y0046936D01*
X0053885Y0047934D02*
X0054596Y0047934D01*
X0053597Y0048933D02*
X0047000Y0048933D01*
X0047000Y0047934D02*
X0046000Y0047934D01*
X0046000Y0048500D02*
X0046000Y0044500D01*
X0043146Y0044500D01*
X0042446Y0044611D01*
X0041773Y0044830D01*
X0041141Y0045151D01*
X0040568Y0045568D01*
X0040068Y0046068D01*
X0039651Y0046641D01*
X0039330Y0047273D01*
X0039111Y0047946D01*
X0039023Y0048500D01*
X0046000Y0048500D01*
X0046000Y0048933D02*
X0026000Y0048933D01*
X0026000Y0047934D02*
X0039115Y0047934D01*
X0039501Y0046936D02*
X0026000Y0046936D01*
X0026000Y0045937D02*
X0040199Y0045937D01*
X0041558Y0044939D02*
X0026000Y0044939D01*
X0026000Y0049932D02*
X0039091Y0049932D01*
X0039433Y0050930D02*
X0026000Y0050930D01*
X0026000Y0051929D02*
X0040065Y0051929D01*
X0041295Y0052927D02*
X0026000Y0052927D01*
X0026000Y0053926D02*
X0048605Y0053926D01*
X0047000Y0052927D02*
X0046000Y0052927D01*
X0046000Y0051929D02*
X0047000Y0051929D01*
X0047000Y0050930D02*
X0046000Y0050930D01*
X0046000Y0049932D02*
X0047000Y0049932D01*
X0047000Y0046936D02*
X0046000Y0046936D01*
X0046000Y0045937D02*
X0047000Y0045937D01*
X0047000Y0044939D02*
X0046000Y0044939D01*
X0042733Y0040454D02*
X0042733Y0040454D01*
X0037828Y0040086D02*
X0037828Y0040086D01*
X0037472Y0039946D02*
X0026000Y0039946D01*
X0026000Y0038948D02*
X0034928Y0038948D01*
X0033250Y0038289D02*
X0033250Y0038289D01*
X0032824Y0037949D02*
X0026000Y0037949D01*
X0026000Y0036951D02*
X0031572Y0036951D01*
X0030319Y0035952D02*
X0026000Y0035952D01*
X0026000Y0034954D02*
X0029221Y0034954D01*
X0029405Y0035223D02*
X0029405Y0035223D01*
X0028540Y0033955D02*
X0026000Y0033955D01*
X0026000Y0032957D02*
X0027860Y0032957D01*
X0027179Y0031958D02*
X0026000Y0031958D01*
X0026000Y0030960D02*
X0026573Y0030960D01*
X0026634Y0031159D02*
X0026634Y0031159D01*
X0026265Y0029961D02*
X0026000Y0029961D01*
X0048138Y0008993D02*
X0167580Y0008993D01*
X0165750Y0009711D02*
X0165750Y0009711D01*
X0165398Y0009991D02*
X0049867Y0009991D01*
X0051597Y0010990D02*
X0076395Y0010990D01*
X0075512Y0011988D02*
X0052612Y0011988D01*
X0053538Y0012987D02*
X0075098Y0012987D01*
X0075000Y0013985D02*
X0054465Y0013985D01*
X0055267Y0014984D02*
X0075086Y0014984D01*
X0066502Y0015982D02*
X0055748Y0015982D01*
X0056229Y0016981D02*
X0065504Y0016981D01*
X0065100Y0017979D02*
X0056710Y0017979D01*
X0057190Y0018978D02*
X0065100Y0018978D01*
X0065100Y0019976D02*
X0057393Y0019976D01*
X0057267Y0019137D02*
X0057267Y0019137D01*
X0057544Y0020975D02*
X0065459Y0020975D01*
X0066458Y0021973D02*
X0057694Y0021973D01*
X0047528Y0008641D02*
X0047528Y0008641D01*
X0078509Y0029961D02*
X0119491Y0029961D01*
X0118493Y0028963D02*
X0079507Y0028963D01*
X0080506Y0027964D02*
X0117494Y0027964D01*
X0120439Y0024969D02*
X0122000Y0024969D01*
X0122103Y0025967D02*
X0121437Y0025967D01*
X0126000Y0021973D02*
X0127000Y0021973D01*
X0127000Y0020975D02*
X0126000Y0020975D01*
X0126000Y0019976D02*
X0127000Y0019976D01*
X0120490Y0030960D02*
X0116575Y0030960D01*
X0116665Y0036951D02*
X0123370Y0036951D01*
X0124368Y0037949D02*
X0080520Y0037949D01*
X0079522Y0038948D02*
X0167428Y0038948D01*
X0164058Y0044939D02*
X0150800Y0044939D01*
X0150644Y0045937D02*
X0162699Y0045937D01*
X0162001Y0046936D02*
X0149645Y0046936D01*
X0148647Y0047934D02*
X0161615Y0047934D01*
X0161591Y0049932D02*
X0148600Y0049932D01*
X0148600Y0050930D02*
X0161933Y0050930D01*
X0162565Y0051929D02*
X0148600Y0051929D01*
X0148600Y0052927D02*
X0163795Y0052927D01*
X0168500Y0052927D02*
X0169500Y0052927D01*
X0169500Y0051929D02*
X0168500Y0051929D01*
X0168500Y0050930D02*
X0169500Y0050930D01*
X0169500Y0049932D02*
X0168500Y0049932D01*
X0168500Y0048933D02*
X0148600Y0048933D01*
X0144400Y0048933D02*
X0138600Y0048933D01*
X0138600Y0049932D02*
X0144400Y0049932D01*
X0144400Y0050930D02*
X0138600Y0050930D01*
X0138600Y0051929D02*
X0144400Y0051929D01*
X0144400Y0052927D02*
X0138600Y0052927D01*
X0138600Y0053926D02*
X0144400Y0053926D01*
X0144400Y0054924D02*
X0138600Y0054924D01*
X0138600Y0055923D02*
X0144400Y0055923D01*
X0145312Y0061914D02*
X0132384Y0061914D01*
X0133382Y0062912D02*
X0146311Y0062912D01*
X0147309Y0063911D02*
X0134381Y0063911D01*
X0135379Y0064909D02*
X0148308Y0064909D01*
X0149306Y0065908D02*
X0136378Y0065908D01*
X0137376Y0066906D02*
X0150305Y0066906D01*
X0151304Y0067905D02*
X0138375Y0067905D01*
X0134400Y0055923D02*
X0128600Y0055923D01*
X0128600Y0054924D02*
X0134400Y0054924D01*
X0134400Y0053926D02*
X0128600Y0053926D01*
X0128600Y0052927D02*
X0134400Y0052927D01*
X0134400Y0051929D02*
X0128600Y0051929D01*
X0128600Y0050930D02*
X0134400Y0050930D01*
X0134400Y0049932D02*
X0128600Y0049932D01*
X0128600Y0048933D02*
X0134400Y0048933D01*
X0134353Y0047934D02*
X0128647Y0047934D01*
X0129645Y0046936D02*
X0133355Y0046936D01*
X0132356Y0045937D02*
X0130644Y0045937D01*
X0130800Y0044939D02*
X0132200Y0044939D01*
X0132200Y0043940D02*
X0130800Y0043940D01*
X0130800Y0042942D02*
X0132200Y0042942D01*
X0132475Y0041943D02*
X0130525Y0041943D01*
X0129526Y0040945D02*
X0133474Y0040945D01*
X0134472Y0039946D02*
X0128528Y0039946D01*
X0128632Y0037949D02*
X0134368Y0037949D01*
X0133370Y0036951D02*
X0129630Y0036951D01*
X0130629Y0035952D02*
X0132371Y0035952D01*
X0132200Y0034954D02*
X0130800Y0034954D01*
X0130800Y0033955D02*
X0132200Y0033955D01*
X0132200Y0032957D02*
X0130800Y0032957D01*
X0130539Y0031958D02*
X0131488Y0031958D01*
X0138542Y0029961D02*
X0139491Y0029961D01*
X0139541Y0030960D02*
X0140490Y0030960D01*
X0140539Y0031958D02*
X0141488Y0031958D01*
X0140800Y0032957D02*
X0142200Y0032957D01*
X0142200Y0033955D02*
X0140800Y0033955D01*
X0140800Y0034954D02*
X0142200Y0034954D01*
X0142371Y0035952D02*
X0140629Y0035952D01*
X0139630Y0036951D02*
X0143370Y0036951D01*
X0144368Y0037949D02*
X0138632Y0037949D01*
X0138528Y0039946D02*
X0144472Y0039946D01*
X0143474Y0040945D02*
X0139526Y0040945D01*
X0140525Y0041943D02*
X0142475Y0041943D01*
X0142200Y0042942D02*
X0140800Y0042942D01*
X0140800Y0043940D02*
X0142200Y0043940D01*
X0142200Y0044939D02*
X0140800Y0044939D01*
X0140644Y0045937D02*
X0142356Y0045937D01*
X0143355Y0046936D02*
X0139645Y0046936D01*
X0138647Y0047934D02*
X0144353Y0047934D01*
X0124400Y0048933D02*
X0069537Y0048933D01*
X0070535Y0047934D02*
X0124353Y0047934D01*
X0123355Y0046936D02*
X0116679Y0046936D01*
X0116309Y0047306D02*
X0114876Y0047900D01*
X0108124Y0047900D01*
X0106691Y0047306D01*
X0105594Y0046209D01*
X0105000Y0044776D01*
X0105000Y0043224D01*
X0105594Y0041791D01*
X0106691Y0040694D01*
X0108124Y0040100D01*
X0114876Y0040100D01*
X0116309Y0040694D01*
X0117406Y0041791D01*
X0118000Y0043224D01*
X0118000Y0044776D01*
X0117406Y0046209D01*
X0116309Y0047306D01*
X0117519Y0045937D02*
X0122356Y0045937D01*
X0122200Y0044939D02*
X0117932Y0044939D01*
X0118000Y0043940D02*
X0122200Y0043940D01*
X0122200Y0042942D02*
X0117883Y0042942D01*
X0117469Y0041943D02*
X0122475Y0041943D01*
X0123474Y0040945D02*
X0116560Y0040945D01*
X0124472Y0039946D02*
X0078523Y0039946D01*
X0075000Y0043940D02*
X0074529Y0043940D01*
X0075068Y0044939D02*
X0073531Y0044939D01*
X0072532Y0045937D02*
X0075481Y0045937D01*
X0076321Y0046936D02*
X0071534Y0046936D01*
X0068538Y0049932D02*
X0078378Y0049932D01*
X0078577Y0049900D02*
X0081200Y0049900D01*
X0081200Y0053700D01*
X0081800Y0053700D01*
X0081800Y0054300D01*
X0081200Y0054300D01*
X0081200Y0058100D01*
X0078577Y0058100D01*
X0077940Y0057999D01*
X0077326Y0057800D01*
X0076751Y0057507D01*
X0076229Y0057127D01*
X0075773Y0056671D01*
X0075393Y0056149D01*
X0075100Y0055574D01*
X0074901Y0054960D01*
X0074800Y0054323D01*
X0074800Y0054300D01*
X0081200Y0054300D01*
X0081200Y0053700D01*
X0074800Y0053700D01*
X0074800Y0053677D01*
X0074901Y0053040D01*
X0075100Y0052426D01*
X0075393Y0051851D01*
X0075773Y0051329D01*
X0076229Y0050873D01*
X0076751Y0050493D01*
X0077326Y0050200D01*
X0077940Y0050001D01*
X0078577Y0049900D01*
X0076172Y0050930D02*
X0067540Y0050930D01*
X0066541Y0051929D02*
X0075354Y0051929D01*
X0074938Y0052927D02*
X0065543Y0052927D01*
X0064544Y0053926D02*
X0081200Y0053926D01*
X0081800Y0053926D02*
X0105000Y0053926D01*
X0105061Y0054924D02*
X0088105Y0054924D01*
X0088099Y0054960D02*
X0087900Y0055574D01*
X0087607Y0056149D01*
X0087227Y0056671D01*
X0086771Y0057127D01*
X0086249Y0057507D01*
X0085674Y0057800D01*
X0085060Y0057999D01*
X0084423Y0058100D01*
X0081800Y0058100D01*
X0081800Y0054300D01*
X0088200Y0054300D01*
X0088200Y0054323D01*
X0088099Y0054960D01*
X0087722Y0055923D02*
X0105475Y0055923D01*
X0105123Y0052927D02*
X0088062Y0052927D01*
X0088099Y0053040D02*
X0088200Y0053677D01*
X0088200Y0053700D01*
X0081800Y0053700D01*
X0081800Y0049900D01*
X0084423Y0049900D01*
X0085060Y0050001D01*
X0085674Y0050200D01*
X0086249Y0050493D01*
X0086771Y0050873D01*
X0087227Y0051329D01*
X0087607Y0051851D01*
X0087900Y0052426D01*
X0088099Y0053040D01*
X0087646Y0051929D02*
X0105537Y0051929D01*
X0106455Y0050930D02*
X0086828Y0050930D01*
X0084622Y0049932D02*
X0124400Y0049932D01*
X0124400Y0050930D02*
X0116545Y0050930D01*
X0117463Y0051929D02*
X0124400Y0051929D01*
X0124400Y0052927D02*
X0117877Y0052927D01*
X0118000Y0053926D02*
X0124400Y0053926D01*
X0124400Y0054924D02*
X0117939Y0054924D01*
X0117525Y0055923D02*
X0124400Y0055923D01*
X0117451Y0061900D02*
X0117451Y0061900D01*
X0105543Y0061914D02*
X0092688Y0061914D01*
X0091689Y0062912D02*
X0105129Y0062912D01*
X0105000Y0063911D02*
X0090691Y0063911D01*
X0089692Y0064909D02*
X0105055Y0064909D01*
X0105469Y0065908D02*
X0088694Y0065908D01*
X0086709Y0066906D02*
X0105624Y0066906D01*
X0104625Y0067905D02*
X0069196Y0067905D01*
X0068198Y0068903D02*
X0103627Y0068903D01*
X0104400Y0068130D02*
X0104400Y0068130D01*
X0102628Y0069902D02*
X0067199Y0069902D01*
X0066201Y0070900D02*
X0076484Y0070900D01*
X0076691Y0070694D02*
X0078124Y0070100D01*
X0084876Y0070100D01*
X0086309Y0070694D01*
X0087406Y0071791D01*
X0088000Y0073224D01*
X0088000Y0074776D01*
X0087406Y0076209D01*
X0086309Y0077306D01*
X0084876Y0077900D01*
X0078124Y0077900D01*
X0076691Y0077306D01*
X0075594Y0076209D01*
X0075000Y0074776D01*
X0075000Y0073224D01*
X0075594Y0071791D01*
X0076691Y0070694D01*
X0075549Y0071899D02*
X0065202Y0071899D01*
X0064204Y0072897D02*
X0075135Y0072897D01*
X0075000Y0073896D02*
X0063205Y0073896D01*
X0062207Y0074894D02*
X0075049Y0074894D01*
X0075463Y0075893D02*
X0061208Y0075893D01*
X0060210Y0076891D02*
X0076276Y0076891D01*
X0078100Y0077890D02*
X0059211Y0077890D01*
X0058213Y0078888D02*
X0093642Y0078888D01*
X0094640Y0077890D02*
X0084900Y0077890D01*
X0086724Y0076891D02*
X0095639Y0076891D01*
X0096637Y0075893D02*
X0087537Y0075893D01*
X0087951Y0074894D02*
X0097636Y0074894D01*
X0098634Y0073896D02*
X0088000Y0073896D01*
X0087865Y0072897D02*
X0099633Y0072897D01*
X0100631Y0071899D02*
X0087451Y0071899D01*
X0086516Y0070900D02*
X0101630Y0070900D01*
X0092643Y0079887D02*
X0057214Y0079887D01*
X0056216Y0080885D02*
X0076499Y0080885D01*
X0075555Y0081884D02*
X0054854Y0081884D01*
X0055852Y0082882D02*
X0075142Y0082882D01*
X0075000Y0083881D02*
X0056851Y0083881D01*
X0057849Y0084879D02*
X0075043Y0084879D01*
X0075457Y0085878D02*
X0071393Y0085878D01*
X0072392Y0086876D02*
X0076261Y0086876D01*
X0078064Y0087875D02*
X0072900Y0087875D01*
X0072900Y0088873D02*
X0086900Y0088873D01*
X0086900Y0087875D02*
X0084936Y0087875D01*
X0086739Y0086876D02*
X0086900Y0086876D01*
X0086900Y0089872D02*
X0072900Y0089872D01*
X0072645Y0090870D02*
X0076514Y0090870D01*
X0075561Y0091869D02*
X0071646Y0091869D01*
X0070648Y0092868D02*
X0075148Y0092868D01*
X0075000Y0093866D02*
X0053800Y0093866D01*
X0053800Y0093145D02*
X0053800Y0094855D01*
X0053145Y0096436D01*
X0051936Y0097645D01*
X0050355Y0098300D01*
X0042645Y0098300D01*
X0041064Y0097645D01*
X0039855Y0096436D01*
X0039200Y0094855D01*
X0039200Y0093145D01*
X0039855Y0091564D01*
X0041064Y0090355D01*
X0042645Y0089700D01*
X0050355Y0089700D01*
X0051936Y0090355D01*
X0053145Y0091564D01*
X0053800Y0093145D01*
X0053685Y0092868D02*
X0057352Y0092868D01*
X0056354Y0091869D02*
X0053272Y0091869D01*
X0052452Y0090870D02*
X0055355Y0090870D01*
X0055100Y0089872D02*
X0050770Y0089872D01*
X0055100Y0088873D02*
X0038600Y0088873D01*
X0038600Y0087875D02*
X0054905Y0087875D01*
X0053907Y0086876D02*
X0038600Y0086876D01*
X0038600Y0085878D02*
X0052908Y0085878D01*
X0051910Y0084879D02*
X0038600Y0084879D01*
X0038600Y0083881D02*
X0050911Y0083881D01*
X0052474Y0075893D02*
X0053006Y0075893D01*
X0054004Y0074894D02*
X0050824Y0074894D01*
X0051328Y0072897D02*
X0056001Y0072897D01*
X0055003Y0073896D02*
X0039574Y0073896D01*
X0038600Y0074894D02*
X0042176Y0074894D01*
X0040526Y0075893D02*
X0038600Y0075893D01*
X0038600Y0076891D02*
X0039719Y0076891D01*
X0039306Y0077890D02*
X0038600Y0077890D01*
X0038600Y0078888D02*
X0039200Y0078888D01*
X0039213Y0079887D02*
X0038600Y0079887D01*
X0038600Y0080885D02*
X0039627Y0080885D01*
X0040303Y0081884D02*
X0038600Y0081884D01*
X0038600Y0082882D02*
X0041637Y0082882D01*
X0034400Y0082882D02*
X0026000Y0082882D01*
X0026000Y0081884D02*
X0034400Y0081884D01*
X0034400Y0080885D02*
X0026000Y0080885D01*
X0026000Y0079887D02*
X0034400Y0079887D01*
X0034400Y0078888D02*
X0026000Y0078888D01*
X0026000Y0077890D02*
X0034400Y0077890D01*
X0034400Y0076891D02*
X0026000Y0076891D01*
X0026000Y0075893D02*
X0034400Y0075893D01*
X0034400Y0074894D02*
X0026000Y0074894D01*
X0026000Y0073896D02*
X0034400Y0073896D01*
X0034633Y0072897D02*
X0026000Y0072897D01*
X0026000Y0071899D02*
X0035631Y0071899D01*
X0036630Y0070900D02*
X0026000Y0070900D01*
X0026000Y0069902D02*
X0037628Y0069902D01*
X0038627Y0068903D02*
X0026000Y0068903D01*
X0026000Y0067905D02*
X0039299Y0067905D01*
X0039713Y0066906D02*
X0026000Y0066906D01*
X0026000Y0065908D02*
X0040511Y0065908D01*
X0042140Y0064909D02*
X0026000Y0064909D01*
X0026000Y0063911D02*
X0048619Y0063911D01*
X0052562Y0065908D02*
X0062991Y0065908D01*
X0061993Y0066906D02*
X0053287Y0066906D01*
X0053701Y0067905D02*
X0060994Y0067905D01*
X0059996Y0068903D02*
X0053800Y0068903D01*
X0053781Y0069902D02*
X0058997Y0069902D01*
X0057999Y0070900D02*
X0053367Y0070900D01*
X0052682Y0071899D02*
X0057000Y0071899D01*
X0053561Y0064909D02*
X0063990Y0064909D01*
X0064988Y0063911D02*
X0054559Y0063911D01*
X0055558Y0062912D02*
X0065987Y0062912D01*
X0066398Y0061914D02*
X0056556Y0061914D01*
X0057555Y0060915D02*
X0065400Y0060915D01*
X0065100Y0059917D02*
X0058553Y0059917D01*
X0059552Y0058918D02*
X0065100Y0058918D01*
X0065100Y0057920D02*
X0060550Y0057920D01*
X0061549Y0056921D02*
X0065563Y0056921D01*
X0066562Y0055923D02*
X0062547Y0055923D01*
X0063546Y0054924D02*
X0074895Y0054924D01*
X0075278Y0055923D02*
X0071438Y0055923D01*
X0072437Y0056921D02*
X0076023Y0056921D01*
X0077695Y0057920D02*
X0072900Y0057920D01*
X0072900Y0058918D02*
X0087481Y0058918D01*
X0088479Y0057920D02*
X0085305Y0057920D01*
X0086977Y0056921D02*
X0089478Y0056921D01*
X0086482Y0059917D02*
X0072900Y0059917D01*
X0072600Y0060915D02*
X0076469Y0060915D01*
X0081200Y0057920D02*
X0081800Y0057920D01*
X0081800Y0056921D02*
X0081200Y0056921D01*
X0081200Y0055923D02*
X0081800Y0055923D01*
X0081800Y0054924D02*
X0081200Y0054924D01*
X0081200Y0052927D02*
X0081800Y0052927D01*
X0081800Y0051929D02*
X0081200Y0051929D01*
X0081200Y0050930D02*
X0081800Y0050930D01*
X0081800Y0049932D02*
X0081200Y0049932D01*
X0086679Y0046936D02*
X0106321Y0046936D01*
X0105481Y0045937D02*
X0087519Y0045937D01*
X0087932Y0044939D02*
X0105068Y0044939D01*
X0105000Y0043940D02*
X0088000Y0043940D01*
X0087883Y0042942D02*
X0105117Y0042942D01*
X0105531Y0041943D02*
X0087469Y0041943D01*
X0086560Y0040945D02*
X0106440Y0040945D01*
X0106335Y0036951D02*
X0086665Y0036951D01*
X0087513Y0035952D02*
X0105487Y0035952D01*
X0105074Y0034954D02*
X0087926Y0034954D01*
X0088000Y0033955D02*
X0105000Y0033955D01*
X0105111Y0032957D02*
X0087889Y0032957D01*
X0087476Y0031958D02*
X0105524Y0031958D01*
X0106425Y0030960D02*
X0086575Y0030960D01*
X0086650Y0026966D02*
X0106350Y0026966D01*
X0105494Y0025967D02*
X0087506Y0025967D01*
X0087920Y0024969D02*
X0105080Y0024969D01*
X0105000Y0023970D02*
X0088000Y0023970D01*
X0087895Y0022972D02*
X0105105Y0022972D01*
X0105518Y0021973D02*
X0087482Y0021973D01*
X0086590Y0020975D02*
X0106410Y0020975D01*
X0106365Y0016981D02*
X0086635Y0016981D01*
X0087500Y0015982D02*
X0105500Y0015982D01*
X0105086Y0014984D02*
X0087914Y0014984D01*
X0088000Y0013985D02*
X0105000Y0013985D01*
X0105098Y0012987D02*
X0087902Y0012987D01*
X0087488Y0011988D02*
X0105512Y0011988D01*
X0106395Y0010990D02*
X0086605Y0010990D01*
X0042104Y0054924D02*
X0026000Y0054924D01*
X0026000Y0055923D02*
X0040496Y0055923D01*
X0039707Y0056921D02*
X0026000Y0056921D01*
X0026000Y0057920D02*
X0039293Y0057920D01*
X0039200Y0058918D02*
X0026000Y0058918D01*
X0026000Y0059917D02*
X0039225Y0059917D01*
X0039639Y0060915D02*
X0026000Y0060915D01*
X0026000Y0061914D02*
X0040333Y0061914D01*
X0041708Y0062912D02*
X0026000Y0062912D01*
X0040573Y0072897D02*
X0041672Y0072897D01*
X0034400Y0083881D02*
X0026000Y0083881D01*
X0026000Y0084879D02*
X0034400Y0084879D01*
X0034400Y0085878D02*
X0026000Y0085878D01*
X0026000Y0086876D02*
X0034400Y0086876D01*
X0034400Y0087875D02*
X0026000Y0087875D01*
X0026000Y0088873D02*
X0034400Y0088873D01*
X0034400Y0089872D02*
X0026000Y0089872D01*
X0026000Y0090870D02*
X0034400Y0090870D01*
X0034400Y0091869D02*
X0026000Y0091869D01*
X0026000Y0092868D02*
X0034400Y0092868D01*
X0034400Y0093866D02*
X0026000Y0093866D01*
X0026000Y0094865D02*
X0034400Y0094865D01*
X0034400Y0095863D02*
X0026000Y0095863D01*
X0026000Y0096862D02*
X0034400Y0096862D01*
X0034400Y0097860D02*
X0026000Y0097860D01*
X0026000Y0098859D02*
X0034400Y0098859D01*
X0034400Y0099857D02*
X0026000Y0099857D01*
X0026000Y0100856D02*
X0034400Y0100856D01*
X0034400Y0101854D02*
X0026000Y0101854D01*
X0026000Y0102853D02*
X0034400Y0102853D01*
X0034400Y0103851D02*
X0026000Y0103851D01*
X0026000Y0104850D02*
X0034400Y0104850D01*
X0034400Y0105848D02*
X0026000Y0105848D01*
X0026000Y0106847D02*
X0034400Y0106847D01*
X0034400Y0107845D02*
X0026000Y0107845D01*
X0026000Y0108844D02*
X0034400Y0108844D01*
X0034400Y0109842D02*
X0026000Y0109842D01*
X0026000Y0110841D02*
X0034400Y0110841D01*
X0034400Y0111839D02*
X0026000Y0111839D01*
X0026000Y0112838D02*
X0034400Y0112838D01*
X0034400Y0113836D02*
X0026000Y0113836D01*
X0026000Y0114835D02*
X0034400Y0114835D01*
X0035363Y0115833D02*
X0026000Y0115833D01*
X0026000Y0116832D02*
X0036362Y0116832D01*
X0037360Y0117830D02*
X0026000Y0117830D01*
X0026000Y0118829D02*
X0038359Y0118829D01*
X0039200Y0119827D02*
X0026000Y0119827D01*
X0026000Y0120826D02*
X0039602Y0120826D01*
X0040243Y0121824D02*
X0026000Y0121824D01*
X0026000Y0122823D02*
X0041493Y0122823D01*
X0042355Y0124820D02*
X0026000Y0124820D01*
X0026000Y0125818D02*
X0040600Y0125818D01*
X0041064Y0125355D02*
X0042645Y0124700D01*
X0050355Y0124700D01*
X0051936Y0125355D01*
X0053145Y0126564D01*
X0053800Y0128145D01*
X0053800Y0129855D01*
X0053145Y0131436D01*
X0051936Y0132645D01*
X0050355Y0133300D01*
X0042645Y0133300D01*
X0041064Y0132645D01*
X0039855Y0131436D01*
X0039200Y0129855D01*
X0039200Y0128145D01*
X0039855Y0126564D01*
X0041064Y0125355D01*
X0039750Y0126817D02*
X0026000Y0126817D01*
X0026000Y0127815D02*
X0039336Y0127815D01*
X0039200Y0128814D02*
X0026000Y0128814D01*
X0026000Y0129812D02*
X0039200Y0129812D01*
X0039596Y0130811D02*
X0026000Y0130811D01*
X0026000Y0131809D02*
X0040228Y0131809D01*
X0041457Y0132808D02*
X0026000Y0132808D01*
X0026000Y0133806D02*
X0075000Y0133806D01*
X0075000Y0133224D02*
X0075000Y0134776D01*
X0075594Y0136209D01*
X0076691Y0137306D01*
X0078124Y0137900D01*
X0084876Y0137900D01*
X0086309Y0137306D01*
X0087406Y0136209D01*
X0088000Y0134776D01*
X0088000Y0133224D01*
X0087406Y0131791D01*
X0086309Y0130694D01*
X0084876Y0130100D01*
X0078124Y0130100D01*
X0076691Y0130694D01*
X0075594Y0131791D01*
X0075000Y0133224D01*
X0075172Y0132808D02*
X0070707Y0132808D01*
X0070615Y0132900D02*
X0067385Y0132900D01*
X0065100Y0130615D01*
X0065100Y0127385D01*
X0067385Y0125100D01*
X0070615Y0125100D01*
X0072900Y0127385D01*
X0072900Y0130615D01*
X0070615Y0132900D01*
X0071706Y0131809D02*
X0075586Y0131809D01*
X0076574Y0130811D02*
X0072704Y0130811D01*
X0072900Y0129812D02*
X0089343Y0129812D01*
X0088344Y0128814D02*
X0072900Y0128814D01*
X0072900Y0127815D02*
X0077920Y0127815D01*
X0076201Y0126817D02*
X0072332Y0126817D01*
X0071334Y0125818D02*
X0075432Y0125818D01*
X0075018Y0124820D02*
X0050645Y0124820D01*
X0052399Y0125818D02*
X0056666Y0125818D01*
X0057385Y0125100D02*
X0055100Y0127385D01*
X0055100Y0130615D01*
X0057385Y0132900D01*
X0060615Y0132900D01*
X0062900Y0130615D01*
X0062900Y0127385D01*
X0060615Y0125100D01*
X0057385Y0125100D01*
X0055668Y0126817D02*
X0053250Y0126817D01*
X0053664Y0127815D02*
X0055100Y0127815D01*
X0055100Y0128814D02*
X0053800Y0128814D01*
X0053800Y0129812D02*
X0055100Y0129812D01*
X0055296Y0130811D02*
X0053404Y0130811D01*
X0052772Y0131809D02*
X0056294Y0131809D01*
X0057293Y0132808D02*
X0051543Y0132808D01*
X0047528Y0138641D02*
X0047528Y0138641D01*
X0047803Y0138799D02*
X0098329Y0138799D01*
X0097331Y0137801D02*
X0085116Y0137801D01*
X0086813Y0136802D02*
X0096332Y0136802D01*
X0095334Y0135803D02*
X0087574Y0135803D01*
X0087988Y0134805D02*
X0094335Y0134805D01*
X0093337Y0133806D02*
X0088000Y0133806D01*
X0087828Y0132808D02*
X0092338Y0132808D01*
X0091340Y0131809D02*
X0087414Y0131809D01*
X0086426Y0130811D02*
X0090341Y0130811D01*
X0087346Y0127815D02*
X0085080Y0127815D01*
X0086799Y0126817D02*
X0086900Y0126817D01*
X0086900Y0120826D02*
X0086441Y0120826D01*
X0086900Y0119827D02*
X0053800Y0119827D01*
X0053800Y0118829D02*
X0086900Y0118829D01*
X0086900Y0117830D02*
X0085044Y0117830D01*
X0086784Y0116832D02*
X0086900Y0116832D01*
X0086900Y0110841D02*
X0086456Y0110841D01*
X0086900Y0109842D02*
X0038600Y0109842D01*
X0038600Y0108844D02*
X0086900Y0108844D01*
X0086900Y0107845D02*
X0085008Y0107845D01*
X0086769Y0106847D02*
X0086900Y0106847D01*
X0086900Y0100856D02*
X0086471Y0100856D01*
X0086900Y0099857D02*
X0050735Y0099857D01*
X0050355Y0099700D02*
X0051936Y0100355D01*
X0053145Y0101564D01*
X0053800Y0103145D01*
X0053800Y0104855D01*
X0053145Y0106436D01*
X0051936Y0107645D01*
X0050355Y0108300D01*
X0042645Y0108300D01*
X0041064Y0107645D01*
X0039855Y0106436D01*
X0039200Y0104855D01*
X0039200Y0103145D01*
X0039855Y0101564D01*
X0041064Y0100355D01*
X0042645Y0099700D01*
X0050355Y0099700D01*
X0051417Y0097860D02*
X0078028Y0097860D01*
X0076246Y0096862D02*
X0052720Y0096862D01*
X0053383Y0095863D02*
X0075450Y0095863D01*
X0075037Y0094865D02*
X0053796Y0094865D01*
X0052437Y0100856D02*
X0076529Y0100856D01*
X0075568Y0101854D02*
X0053265Y0101854D01*
X0053679Y0102853D02*
X0075154Y0102853D01*
X0075000Y0103851D02*
X0053800Y0103851D01*
X0053800Y0104850D02*
X0075031Y0104850D01*
X0075444Y0105848D02*
X0053389Y0105848D01*
X0052734Y0106847D02*
X0076231Y0106847D01*
X0077992Y0107845D02*
X0051453Y0107845D01*
X0050681Y0114835D02*
X0075024Y0114835D01*
X0075000Y0113836D02*
X0039306Y0113836D01*
X0038600Y0112838D02*
X0075160Y0112838D01*
X0075574Y0111839D02*
X0038600Y0111839D01*
X0038600Y0110841D02*
X0076544Y0110841D01*
X0075438Y0115833D02*
X0052414Y0115833D01*
X0053256Y0116832D02*
X0076216Y0116832D01*
X0077956Y0117830D02*
X0053670Y0117830D01*
X0053398Y0120826D02*
X0076559Y0120826D01*
X0075580Y0121824D02*
X0052757Y0121824D01*
X0051507Y0122823D02*
X0075166Y0122823D01*
X0075000Y0123821D02*
X0026000Y0123821D01*
X0026000Y0134805D02*
X0075012Y0134805D01*
X0075426Y0135803D02*
X0026000Y0135803D01*
X0026000Y0136802D02*
X0076187Y0136802D01*
X0077884Y0137801D02*
X0043848Y0137801D01*
X0042733Y0137546D02*
X0042733Y0137546D01*
X0039339Y0137801D02*
X0026000Y0137801D01*
X0026000Y0138799D02*
X0035573Y0138799D01*
X0033250Y0139711D02*
X0033250Y0139711D01*
X0033141Y0139798D02*
X0026000Y0139798D01*
X0026000Y0140796D02*
X0031889Y0140796D01*
X0030637Y0141795D02*
X0026000Y0141795D01*
X0026000Y0142793D02*
X0029394Y0142793D01*
X0029405Y0142777D02*
X0029405Y0142777D01*
X0029405Y0142777D01*
X0028713Y0143792D02*
X0026000Y0143792D01*
X0026000Y0144790D02*
X0028032Y0144790D01*
X0027351Y0145789D02*
X0026000Y0145789D01*
X0026000Y0146787D02*
X0026671Y0146787D01*
X0026343Y0147786D02*
X0026000Y0147786D01*
X0026000Y0148784D02*
X0026035Y0148784D01*
X0049532Y0139798D02*
X0099328Y0139798D01*
X0100326Y0140796D02*
X0086411Y0140796D01*
X0086309Y0140694D02*
X0087406Y0141791D01*
X0088000Y0143224D01*
X0088000Y0144776D01*
X0087406Y0146209D01*
X0086309Y0147306D01*
X0084876Y0147900D01*
X0078124Y0147900D01*
X0076691Y0147306D01*
X0075594Y0146209D01*
X0075000Y0144776D01*
X0075000Y0143224D01*
X0075594Y0141791D01*
X0076691Y0140694D01*
X0078124Y0140100D01*
X0084876Y0140100D01*
X0086309Y0140694D01*
X0087408Y0141795D02*
X0101325Y0141795D01*
X0102323Y0142793D02*
X0087821Y0142793D01*
X0088000Y0143792D02*
X0103322Y0143792D01*
X0104320Y0144790D02*
X0087994Y0144790D01*
X0087580Y0145789D02*
X0105319Y0145789D01*
X0106172Y0146787D02*
X0086828Y0146787D01*
X0085152Y0147786D02*
X0107848Y0147786D01*
X0115152Y0147786D02*
X0121403Y0147786D01*
X0120206Y0146787D02*
X0116828Y0146787D01*
X0117580Y0145789D02*
X0119587Y0145789D01*
X0119200Y0144790D02*
X0117994Y0144790D01*
X0118000Y0143792D02*
X0118322Y0143792D01*
X0120267Y0139798D02*
X0122409Y0139798D01*
X0121439Y0137801D02*
X0118270Y0137801D01*
X0119269Y0138799D02*
X0168073Y0138799D01*
X0165750Y0139711D02*
X0165750Y0139711D01*
X0165641Y0139798D02*
X0150591Y0139798D01*
X0150355Y0139700D02*
X0151936Y0140355D01*
X0153145Y0141564D01*
X0153800Y0143145D01*
X0153800Y0144855D01*
X0153145Y0146436D01*
X0151936Y0147645D01*
X0150355Y0148300D01*
X0142645Y0148300D01*
X0141064Y0147645D01*
X0139855Y0146436D01*
X0139200Y0144855D01*
X0139200Y0143145D01*
X0139855Y0141564D01*
X0141064Y0140355D01*
X0142645Y0139700D01*
X0150355Y0139700D01*
X0151561Y0137801D02*
X0171839Y0137801D01*
X0175233Y0137546D02*
X0175233Y0137546D01*
X0176348Y0137801D02*
X0188201Y0137801D01*
X0188201Y0138799D02*
X0180303Y0138799D01*
X0180028Y0138641D02*
X0180028Y0138641D01*
X0182032Y0139798D02*
X0188201Y0139798D01*
X0188201Y0140796D02*
X0183761Y0140796D01*
X0184288Y0141100D02*
X0184288Y0141100D01*
X0184288Y0141100D01*
X0184932Y0141795D02*
X0188201Y0141795D01*
X0188201Y0142793D02*
X0185859Y0142793D01*
X0186785Y0143792D02*
X0188201Y0143792D01*
X0188201Y0144790D02*
X0187674Y0144790D01*
X0188155Y0145789D02*
X0188201Y0145789D01*
X0188201Y0136802D02*
X0152779Y0136802D01*
X0153407Y0135803D02*
X0188201Y0135803D01*
X0188201Y0134805D02*
X0153800Y0134805D01*
X0153800Y0133806D02*
X0188201Y0133806D01*
X0188201Y0132808D02*
X0174043Y0132808D01*
X0175272Y0131809D02*
X0188201Y0131809D01*
X0188201Y0130811D02*
X0175904Y0130811D01*
X0176300Y0129812D02*
X0188201Y0129812D01*
X0188201Y0128814D02*
X0176300Y0128814D01*
X0176164Y0127815D02*
X0188201Y0127815D01*
X0188201Y0126817D02*
X0175750Y0126817D01*
X0174899Y0125818D02*
X0188201Y0125818D01*
X0188201Y0124820D02*
X0173145Y0124820D01*
X0172855Y0123300D02*
X0165145Y0123300D01*
X0163564Y0122645D01*
X0162355Y0121436D01*
X0161700Y0119855D01*
X0161700Y0118145D01*
X0162355Y0116564D01*
X0163564Y0115355D01*
X0165145Y0114700D01*
X0172855Y0114700D01*
X0174436Y0115355D01*
X0175645Y0116564D01*
X0176300Y0118145D01*
X0176300Y0119855D01*
X0175645Y0121436D01*
X0174436Y0122645D01*
X0172855Y0123300D01*
X0174007Y0122823D02*
X0188201Y0122823D01*
X0188201Y0123821D02*
X0153800Y0123821D01*
X0153800Y0124820D02*
X0164855Y0124820D01*
X0163100Y0125818D02*
X0153401Y0125818D01*
X0152764Y0126817D02*
X0162250Y0126817D01*
X0163993Y0122823D02*
X0153667Y0122823D01*
X0153253Y0121824D02*
X0162743Y0121824D01*
X0162102Y0120826D02*
X0152407Y0120826D01*
X0150663Y0119827D02*
X0161700Y0119827D01*
X0161700Y0118829D02*
X0138600Y0118829D01*
X0138600Y0119827D02*
X0142337Y0119827D01*
X0142645Y0118300D02*
X0141064Y0117645D01*
X0139855Y0116436D01*
X0139200Y0114855D01*
X0139200Y0113145D01*
X0139855Y0111564D01*
X0141064Y0110355D01*
X0142645Y0109700D01*
X0150355Y0109700D01*
X0151936Y0110355D01*
X0153145Y0111564D01*
X0153800Y0113145D01*
X0153800Y0114855D01*
X0153145Y0116436D01*
X0151936Y0117645D01*
X0150355Y0118300D01*
X0142645Y0118300D01*
X0141511Y0117830D02*
X0138600Y0117830D01*
X0138600Y0116832D02*
X0140251Y0116832D01*
X0139605Y0115833D02*
X0138600Y0115833D01*
X0138600Y0114835D02*
X0139200Y0114835D01*
X0139200Y0113836D02*
X0138600Y0113836D01*
X0138600Y0112838D02*
X0139327Y0112838D01*
X0139741Y0111839D02*
X0138600Y0111839D01*
X0138600Y0110841D02*
X0140578Y0110841D01*
X0142301Y0109842D02*
X0138600Y0109842D01*
X0138600Y0108844D02*
X0188201Y0108844D01*
X0188201Y0109842D02*
X0150699Y0109842D01*
X0152422Y0110841D02*
X0188201Y0110841D01*
X0188201Y0111839D02*
X0153259Y0111839D01*
X0153673Y0112838D02*
X0188201Y0112838D01*
X0188201Y0113836D02*
X0153800Y0113836D01*
X0153800Y0114835D02*
X0164819Y0114835D01*
X0163086Y0115833D02*
X0153395Y0115833D01*
X0152749Y0116832D02*
X0162244Y0116832D01*
X0161830Y0117830D02*
X0151489Y0117830D01*
X0140593Y0120826D02*
X0138600Y0120826D01*
X0138600Y0121824D02*
X0139747Y0121824D01*
X0139333Y0122823D02*
X0138600Y0122823D01*
X0134400Y0122823D02*
X0133667Y0122823D01*
X0133800Y0123821D02*
X0134400Y0123821D01*
X0134400Y0124820D02*
X0133800Y0124820D01*
X0133401Y0125818D02*
X0135349Y0125818D01*
X0136347Y0126817D02*
X0132764Y0126817D01*
X0131525Y0127815D02*
X0137346Y0127815D01*
X0138344Y0128814D02*
X0119284Y0128814D01*
X0120282Y0129812D02*
X0122373Y0129812D01*
X0121475Y0127815D02*
X0118285Y0127815D01*
X0116799Y0126817D02*
X0120236Y0126817D01*
X0119599Y0125818D02*
X0117568Y0125818D01*
X0117982Y0124820D02*
X0119200Y0124820D01*
X0118352Y0123821D02*
X0118000Y0123821D01*
X0120297Y0119827D02*
X0122337Y0119827D01*
X0121511Y0117830D02*
X0118300Y0117830D01*
X0119299Y0118829D02*
X0134400Y0118829D01*
X0134400Y0119827D02*
X0130663Y0119827D01*
X0132407Y0120826D02*
X0134400Y0120826D01*
X0134400Y0121824D02*
X0133253Y0121824D01*
X0134400Y0117830D02*
X0131489Y0117830D01*
X0132749Y0116832D02*
X0134400Y0116832D01*
X0134400Y0115833D02*
X0133395Y0115833D01*
X0133800Y0114835D02*
X0134400Y0114835D01*
X0134400Y0113836D02*
X0133800Y0113836D01*
X0133673Y0112838D02*
X0134400Y0112838D01*
X0134400Y0111839D02*
X0133259Y0111839D01*
X0132422Y0110841D02*
X0134400Y0110841D01*
X0138600Y0107845D02*
X0141547Y0107845D01*
X0140266Y0106847D02*
X0138600Y0106847D01*
X0138600Y0105848D02*
X0139611Y0105848D01*
X0139200Y0104850D02*
X0138600Y0104850D01*
X0138600Y0103851D02*
X0139200Y0103851D01*
X0139321Y0102853D02*
X0138600Y0102853D01*
X0138600Y0101854D02*
X0139735Y0101854D01*
X0140563Y0100856D02*
X0138600Y0100856D01*
X0151453Y0107845D02*
X0163637Y0107845D01*
X0162506Y0106847D02*
X0152734Y0106847D01*
X0153389Y0105848D02*
X0161891Y0105848D01*
X0161578Y0104850D02*
X0153800Y0104850D01*
X0153685Y0092868D02*
X0161636Y0092868D01*
X0162035Y0091869D02*
X0153272Y0091869D01*
X0152452Y0090870D02*
X0162766Y0090870D01*
X0164190Y0089872D02*
X0150770Y0089872D01*
X0165497Y0073896D02*
X0188201Y0073896D01*
X0188201Y0062912D02*
X0173792Y0062912D01*
X0175167Y0061914D02*
X0188201Y0061914D01*
X0188201Y0060915D02*
X0175861Y0060915D01*
X0176275Y0059917D02*
X0188201Y0059917D01*
X0188201Y0058918D02*
X0176300Y0058918D01*
X0176207Y0057920D02*
X0188201Y0057920D01*
X0188201Y0056921D02*
X0175793Y0056921D01*
X0175004Y0055923D02*
X0188201Y0055923D01*
X0188201Y0038948D02*
X0180741Y0038948D01*
X0180028Y0039359D02*
X0180028Y0039359D01*
X0182470Y0037949D02*
X0188201Y0037949D01*
X0188201Y0036951D02*
X0184200Y0036951D01*
X0185167Y0035952D02*
X0188201Y0035952D01*
X0188201Y0034954D02*
X0186094Y0034954D01*
X0187020Y0033955D02*
X0188201Y0033955D01*
X0187633Y0033295D02*
X0187633Y0033295D01*
X0187796Y0032957D02*
X0188201Y0032957D01*
X0157684Y0021973D02*
X0150837Y0021973D01*
X0149839Y0020975D02*
X0157859Y0020975D01*
X0157509Y0065908D02*
X0163011Y0065908D01*
X0162213Y0066906D02*
X0158507Y0066906D01*
X0159506Y0067905D02*
X0161799Y0067905D01*
X0161700Y0068903D02*
X0160504Y0068903D01*
X0161503Y0069902D02*
X0161719Y0069902D01*
X0116872Y0109842D02*
X0106100Y0109842D01*
X0106100Y0108844D02*
X0115874Y0108844D01*
X0116456Y0110841D02*
X0117871Y0110841D01*
X0117426Y0111839D02*
X0118869Y0111839D01*
X0119327Y0112838D02*
X0117840Y0112838D01*
X0118000Y0113836D02*
X0119200Y0113836D01*
X0119200Y0114835D02*
X0117976Y0114835D01*
X0117562Y0115833D02*
X0119605Y0115833D01*
X0120251Y0116832D02*
X0116784Y0116832D01*
X0106544Y0110841D02*
X0106311Y0110841D01*
X0106100Y0107845D02*
X0107992Y0107845D01*
X0106231Y0106847D02*
X0106100Y0106847D01*
X0086900Y0098859D02*
X0038600Y0098859D01*
X0038600Y0099857D02*
X0042265Y0099857D01*
X0040563Y0100856D02*
X0038600Y0100856D01*
X0038600Y0101854D02*
X0039735Y0101854D01*
X0039321Y0102853D02*
X0038600Y0102853D01*
X0038600Y0103851D02*
X0039200Y0103851D01*
X0039200Y0104850D02*
X0038600Y0104850D01*
X0038600Y0105848D02*
X0039611Y0105848D01*
X0040266Y0106847D02*
X0038600Y0106847D01*
X0038600Y0107845D02*
X0041547Y0107845D01*
X0042319Y0114835D02*
X0040305Y0114835D01*
X0061334Y0125818D02*
X0066666Y0125818D01*
X0065668Y0126817D02*
X0062332Y0126817D01*
X0062900Y0127815D02*
X0065100Y0127815D01*
X0065100Y0128814D02*
X0062900Y0128814D01*
X0062900Y0129812D02*
X0065100Y0129812D01*
X0065296Y0130811D02*
X0062704Y0130811D01*
X0061706Y0131809D02*
X0066294Y0131809D01*
X0067293Y0132808D02*
X0060707Y0132808D01*
X0051788Y0141100D02*
X0051788Y0141100D01*
X0051788Y0141100D01*
X0051261Y0140796D02*
X0076589Y0140796D01*
X0075592Y0141795D02*
X0052432Y0141795D01*
X0053359Y0142793D02*
X0075179Y0142793D01*
X0075000Y0143792D02*
X0054285Y0143792D01*
X0055174Y0144790D02*
X0075006Y0144790D01*
X0075420Y0145789D02*
X0055655Y0145789D01*
X0056136Y0146787D02*
X0076172Y0146787D01*
X0077848Y0147786D02*
X0056616Y0147786D01*
X0057097Y0148784D02*
X0158535Y0148784D01*
X0158843Y0147786D02*
X0151597Y0147786D01*
X0152794Y0146787D02*
X0159171Y0146787D01*
X0159851Y0145789D02*
X0153413Y0145789D01*
X0153800Y0144790D02*
X0160532Y0144790D01*
X0161213Y0143792D02*
X0153800Y0143792D01*
X0153654Y0142793D02*
X0161894Y0142793D01*
X0161905Y0142777D02*
X0161905Y0142777D01*
X0161905Y0142777D01*
X0163137Y0141795D02*
X0153241Y0141795D01*
X0152377Y0140796D02*
X0164389Y0140796D01*
X0163957Y0132808D02*
X0153661Y0132808D01*
X0153247Y0131809D02*
X0162728Y0131809D01*
X0175257Y0121824D02*
X0188201Y0121824D01*
X0188201Y0120826D02*
X0175898Y0120826D01*
X0176300Y0119827D02*
X0188201Y0119827D01*
X0188201Y0118829D02*
X0176300Y0118829D01*
X0176170Y0117830D02*
X0188201Y0117830D01*
X0188201Y0116832D02*
X0175756Y0116832D01*
X0174914Y0115833D02*
X0188201Y0115833D01*
X0188201Y0114835D02*
X0173181Y0114835D01*
X0141439Y0137801D02*
X0131561Y0137801D01*
X0132779Y0136802D02*
X0140221Y0136802D01*
X0139593Y0135803D02*
X0133407Y0135803D01*
X0133800Y0134805D02*
X0139200Y0134805D01*
X0139200Y0133806D02*
X0133800Y0133806D01*
X0133661Y0132808D02*
X0139339Y0132808D01*
X0139753Y0131809D02*
X0133247Y0131809D01*
X0132392Y0130811D02*
X0140341Y0130811D01*
X0139343Y0129812D02*
X0130627Y0129812D01*
X0119200Y0134805D02*
X0117988Y0134805D01*
X0118000Y0133806D02*
X0118337Y0133806D01*
X0117574Y0135803D02*
X0119593Y0135803D01*
X0120221Y0136802D02*
X0116813Y0136802D01*
X0130591Y0139798D02*
X0142409Y0139798D01*
X0140623Y0140796D02*
X0132377Y0140796D01*
X0133241Y0141795D02*
X0139759Y0141795D01*
X0139346Y0142793D02*
X0133654Y0142793D01*
X0133800Y0143792D02*
X0139200Y0143792D01*
X0139200Y0144790D02*
X0133800Y0144790D01*
X0133413Y0145789D02*
X0139587Y0145789D01*
X0140206Y0146787D02*
X0132794Y0146787D01*
X0131597Y0147786D02*
X0141403Y0147786D01*
X0157684Y0151780D02*
X0057665Y0151780D01*
X0057816Y0152778D02*
X0157684Y0152778D01*
X0157684Y0153777D02*
X0057966Y0153777D01*
X0057883Y0154775D02*
X0157684Y0154775D01*
X0157684Y0155774D02*
X0057733Y0155774D01*
X0057582Y0156772D02*
X0157781Y0156772D01*
X0158089Y0157771D02*
X0057432Y0157771D01*
X0057281Y0158769D02*
X0158397Y0158769D01*
X0158705Y0159768D02*
X0056831Y0159768D01*
X0056351Y0160766D02*
X0159013Y0160766D01*
X0159134Y0161159D02*
X0159134Y0161159D01*
X0159547Y0161765D02*
X0055870Y0161765D01*
X0055389Y0162763D02*
X0160228Y0162763D01*
X0160909Y0163762D02*
X0054700Y0163762D01*
X0055133Y0163295D02*
X0055133Y0163295D01*
X0053773Y0164760D02*
X0161589Y0164760D01*
X0161905Y0165223D02*
X0161905Y0165223D01*
X0162577Y0165759D02*
X0052847Y0165759D01*
X0051920Y0166757D02*
X0163829Y0166757D01*
X0165081Y0167756D02*
X0050306Y0167756D01*
X0048576Y0168754D02*
X0166935Y0168754D01*
X0165750Y0168289D02*
X0165750Y0168289D01*
X0157919Y0150781D02*
X0057515Y0150781D01*
X0057364Y0149783D02*
X0158227Y0149783D01*
X0086900Y0097860D02*
X0084972Y0097860D01*
X0086754Y0096862D02*
X0086900Y0096862D01*
X0086900Y0090870D02*
X0086486Y0090870D01*
X0088000Y0083881D02*
X0088649Y0083881D01*
X0087858Y0082882D02*
X0089648Y0082882D01*
X0090646Y0081884D02*
X0087445Y0081884D01*
X0086501Y0080885D02*
X0091645Y0080885D01*
X0076291Y0066906D02*
X0070195Y0066906D01*
X0066607Y0085878D02*
X0061393Y0085878D01*
X0062392Y0086876D02*
X0065608Y0086876D01*
X0066354Y0091869D02*
X0061646Y0091869D01*
X0060648Y0092868D02*
X0067352Y0092868D01*
X0042229Y0089872D02*
X0038600Y0089872D01*
X0038600Y0090870D02*
X0040548Y0090870D01*
X0039728Y0091869D02*
X0038600Y0091869D01*
X0038600Y0092868D02*
X0039315Y0092868D01*
X0039200Y0093866D02*
X0038600Y0093866D01*
X0038600Y0094865D02*
X0039204Y0094865D01*
X0039617Y0095863D02*
X0038600Y0095863D01*
X0038600Y0096862D02*
X0040280Y0096862D01*
X0041583Y0097860D02*
X0038600Y0097860D01*
X0057267Y0149137D02*
X0057267Y0149137D01*
X0047528Y0169359D02*
X0047528Y0169359D01*
M02*
