G75*
%MOIN*%
%OFA0B0*%
%FSLAX25Y25*%
%IPPOS*%
%LPD*%
%AMOC8*
5,1,8,0,0,1.08239X$1,22.5*
%
%ADD10C,0.00000*%
%ADD11C,0.05200*%
%ADD12C,0.06000*%
%ADD13OC8,0.06000*%
%ADD14OC8,0.05200*%
%ADD15C,0.01600*%
%ADD16C,0.01000*%
D10*
X0021500Y0004000D02*
X0021500Y0173961D01*
X0192701Y0173961D01*
X0192701Y0004000D01*
X0021500Y0004000D01*
X0035201Y0024000D02*
X0035203Y0024158D01*
X0035209Y0024316D01*
X0035219Y0024474D01*
X0035233Y0024632D01*
X0035251Y0024789D01*
X0035272Y0024946D01*
X0035298Y0025102D01*
X0035328Y0025258D01*
X0035361Y0025413D01*
X0035399Y0025566D01*
X0035440Y0025719D01*
X0035485Y0025871D01*
X0035534Y0026022D01*
X0035587Y0026171D01*
X0035643Y0026319D01*
X0035703Y0026465D01*
X0035767Y0026610D01*
X0035835Y0026753D01*
X0035906Y0026895D01*
X0035980Y0027035D01*
X0036058Y0027172D01*
X0036140Y0027308D01*
X0036224Y0027442D01*
X0036313Y0027573D01*
X0036404Y0027702D01*
X0036499Y0027829D01*
X0036596Y0027954D01*
X0036697Y0028076D01*
X0036801Y0028195D01*
X0036908Y0028312D01*
X0037018Y0028426D01*
X0037131Y0028537D01*
X0037246Y0028646D01*
X0037364Y0028751D01*
X0037485Y0028853D01*
X0037608Y0028953D01*
X0037734Y0029049D01*
X0037862Y0029142D01*
X0037992Y0029232D01*
X0038125Y0029318D01*
X0038260Y0029402D01*
X0038396Y0029481D01*
X0038535Y0029558D01*
X0038676Y0029630D01*
X0038818Y0029700D01*
X0038962Y0029765D01*
X0039108Y0029827D01*
X0039255Y0029885D01*
X0039404Y0029940D01*
X0039554Y0029991D01*
X0039705Y0030038D01*
X0039857Y0030081D01*
X0040010Y0030120D01*
X0040165Y0030156D01*
X0040320Y0030187D01*
X0040476Y0030215D01*
X0040632Y0030239D01*
X0040789Y0030259D01*
X0040947Y0030275D01*
X0041104Y0030287D01*
X0041263Y0030295D01*
X0041421Y0030299D01*
X0041579Y0030299D01*
X0041737Y0030295D01*
X0041896Y0030287D01*
X0042053Y0030275D01*
X0042211Y0030259D01*
X0042368Y0030239D01*
X0042524Y0030215D01*
X0042680Y0030187D01*
X0042835Y0030156D01*
X0042990Y0030120D01*
X0043143Y0030081D01*
X0043295Y0030038D01*
X0043446Y0029991D01*
X0043596Y0029940D01*
X0043745Y0029885D01*
X0043892Y0029827D01*
X0044038Y0029765D01*
X0044182Y0029700D01*
X0044324Y0029630D01*
X0044465Y0029558D01*
X0044604Y0029481D01*
X0044740Y0029402D01*
X0044875Y0029318D01*
X0045008Y0029232D01*
X0045138Y0029142D01*
X0045266Y0029049D01*
X0045392Y0028953D01*
X0045515Y0028853D01*
X0045636Y0028751D01*
X0045754Y0028646D01*
X0045869Y0028537D01*
X0045982Y0028426D01*
X0046092Y0028312D01*
X0046199Y0028195D01*
X0046303Y0028076D01*
X0046404Y0027954D01*
X0046501Y0027829D01*
X0046596Y0027702D01*
X0046687Y0027573D01*
X0046776Y0027442D01*
X0046860Y0027308D01*
X0046942Y0027172D01*
X0047020Y0027035D01*
X0047094Y0026895D01*
X0047165Y0026753D01*
X0047233Y0026610D01*
X0047297Y0026465D01*
X0047357Y0026319D01*
X0047413Y0026171D01*
X0047466Y0026022D01*
X0047515Y0025871D01*
X0047560Y0025719D01*
X0047601Y0025566D01*
X0047639Y0025413D01*
X0047672Y0025258D01*
X0047702Y0025102D01*
X0047728Y0024946D01*
X0047749Y0024789D01*
X0047767Y0024632D01*
X0047781Y0024474D01*
X0047791Y0024316D01*
X0047797Y0024158D01*
X0047799Y0024000D01*
X0047797Y0023842D01*
X0047791Y0023684D01*
X0047781Y0023526D01*
X0047767Y0023368D01*
X0047749Y0023211D01*
X0047728Y0023054D01*
X0047702Y0022898D01*
X0047672Y0022742D01*
X0047639Y0022587D01*
X0047601Y0022434D01*
X0047560Y0022281D01*
X0047515Y0022129D01*
X0047466Y0021978D01*
X0047413Y0021829D01*
X0047357Y0021681D01*
X0047297Y0021535D01*
X0047233Y0021390D01*
X0047165Y0021247D01*
X0047094Y0021105D01*
X0047020Y0020965D01*
X0046942Y0020828D01*
X0046860Y0020692D01*
X0046776Y0020558D01*
X0046687Y0020427D01*
X0046596Y0020298D01*
X0046501Y0020171D01*
X0046404Y0020046D01*
X0046303Y0019924D01*
X0046199Y0019805D01*
X0046092Y0019688D01*
X0045982Y0019574D01*
X0045869Y0019463D01*
X0045754Y0019354D01*
X0045636Y0019249D01*
X0045515Y0019147D01*
X0045392Y0019047D01*
X0045266Y0018951D01*
X0045138Y0018858D01*
X0045008Y0018768D01*
X0044875Y0018682D01*
X0044740Y0018598D01*
X0044604Y0018519D01*
X0044465Y0018442D01*
X0044324Y0018370D01*
X0044182Y0018300D01*
X0044038Y0018235D01*
X0043892Y0018173D01*
X0043745Y0018115D01*
X0043596Y0018060D01*
X0043446Y0018009D01*
X0043295Y0017962D01*
X0043143Y0017919D01*
X0042990Y0017880D01*
X0042835Y0017844D01*
X0042680Y0017813D01*
X0042524Y0017785D01*
X0042368Y0017761D01*
X0042211Y0017741D01*
X0042053Y0017725D01*
X0041896Y0017713D01*
X0041737Y0017705D01*
X0041579Y0017701D01*
X0041421Y0017701D01*
X0041263Y0017705D01*
X0041104Y0017713D01*
X0040947Y0017725D01*
X0040789Y0017741D01*
X0040632Y0017761D01*
X0040476Y0017785D01*
X0040320Y0017813D01*
X0040165Y0017844D01*
X0040010Y0017880D01*
X0039857Y0017919D01*
X0039705Y0017962D01*
X0039554Y0018009D01*
X0039404Y0018060D01*
X0039255Y0018115D01*
X0039108Y0018173D01*
X0038962Y0018235D01*
X0038818Y0018300D01*
X0038676Y0018370D01*
X0038535Y0018442D01*
X0038396Y0018519D01*
X0038260Y0018598D01*
X0038125Y0018682D01*
X0037992Y0018768D01*
X0037862Y0018858D01*
X0037734Y0018951D01*
X0037608Y0019047D01*
X0037485Y0019147D01*
X0037364Y0019249D01*
X0037246Y0019354D01*
X0037131Y0019463D01*
X0037018Y0019574D01*
X0036908Y0019688D01*
X0036801Y0019805D01*
X0036697Y0019924D01*
X0036596Y0020046D01*
X0036499Y0020171D01*
X0036404Y0020298D01*
X0036313Y0020427D01*
X0036224Y0020558D01*
X0036140Y0020692D01*
X0036058Y0020828D01*
X0035980Y0020965D01*
X0035906Y0021105D01*
X0035835Y0021247D01*
X0035767Y0021390D01*
X0035703Y0021535D01*
X0035643Y0021681D01*
X0035587Y0021829D01*
X0035534Y0021978D01*
X0035485Y0022129D01*
X0035440Y0022281D01*
X0035399Y0022434D01*
X0035361Y0022587D01*
X0035328Y0022742D01*
X0035298Y0022898D01*
X0035272Y0023054D01*
X0035251Y0023211D01*
X0035233Y0023368D01*
X0035219Y0023526D01*
X0035209Y0023684D01*
X0035203Y0023842D01*
X0035201Y0024000D01*
X0167701Y0024000D02*
X0167703Y0024158D01*
X0167709Y0024316D01*
X0167719Y0024474D01*
X0167733Y0024632D01*
X0167751Y0024789D01*
X0167772Y0024946D01*
X0167798Y0025102D01*
X0167828Y0025258D01*
X0167861Y0025413D01*
X0167899Y0025566D01*
X0167940Y0025719D01*
X0167985Y0025871D01*
X0168034Y0026022D01*
X0168087Y0026171D01*
X0168143Y0026319D01*
X0168203Y0026465D01*
X0168267Y0026610D01*
X0168335Y0026753D01*
X0168406Y0026895D01*
X0168480Y0027035D01*
X0168558Y0027172D01*
X0168640Y0027308D01*
X0168724Y0027442D01*
X0168813Y0027573D01*
X0168904Y0027702D01*
X0168999Y0027829D01*
X0169096Y0027954D01*
X0169197Y0028076D01*
X0169301Y0028195D01*
X0169408Y0028312D01*
X0169518Y0028426D01*
X0169631Y0028537D01*
X0169746Y0028646D01*
X0169864Y0028751D01*
X0169985Y0028853D01*
X0170108Y0028953D01*
X0170234Y0029049D01*
X0170362Y0029142D01*
X0170492Y0029232D01*
X0170625Y0029318D01*
X0170760Y0029402D01*
X0170896Y0029481D01*
X0171035Y0029558D01*
X0171176Y0029630D01*
X0171318Y0029700D01*
X0171462Y0029765D01*
X0171608Y0029827D01*
X0171755Y0029885D01*
X0171904Y0029940D01*
X0172054Y0029991D01*
X0172205Y0030038D01*
X0172357Y0030081D01*
X0172510Y0030120D01*
X0172665Y0030156D01*
X0172820Y0030187D01*
X0172976Y0030215D01*
X0173132Y0030239D01*
X0173289Y0030259D01*
X0173447Y0030275D01*
X0173604Y0030287D01*
X0173763Y0030295D01*
X0173921Y0030299D01*
X0174079Y0030299D01*
X0174237Y0030295D01*
X0174396Y0030287D01*
X0174553Y0030275D01*
X0174711Y0030259D01*
X0174868Y0030239D01*
X0175024Y0030215D01*
X0175180Y0030187D01*
X0175335Y0030156D01*
X0175490Y0030120D01*
X0175643Y0030081D01*
X0175795Y0030038D01*
X0175946Y0029991D01*
X0176096Y0029940D01*
X0176245Y0029885D01*
X0176392Y0029827D01*
X0176538Y0029765D01*
X0176682Y0029700D01*
X0176824Y0029630D01*
X0176965Y0029558D01*
X0177104Y0029481D01*
X0177240Y0029402D01*
X0177375Y0029318D01*
X0177508Y0029232D01*
X0177638Y0029142D01*
X0177766Y0029049D01*
X0177892Y0028953D01*
X0178015Y0028853D01*
X0178136Y0028751D01*
X0178254Y0028646D01*
X0178369Y0028537D01*
X0178482Y0028426D01*
X0178592Y0028312D01*
X0178699Y0028195D01*
X0178803Y0028076D01*
X0178904Y0027954D01*
X0179001Y0027829D01*
X0179096Y0027702D01*
X0179187Y0027573D01*
X0179276Y0027442D01*
X0179360Y0027308D01*
X0179442Y0027172D01*
X0179520Y0027035D01*
X0179594Y0026895D01*
X0179665Y0026753D01*
X0179733Y0026610D01*
X0179797Y0026465D01*
X0179857Y0026319D01*
X0179913Y0026171D01*
X0179966Y0026022D01*
X0180015Y0025871D01*
X0180060Y0025719D01*
X0180101Y0025566D01*
X0180139Y0025413D01*
X0180172Y0025258D01*
X0180202Y0025102D01*
X0180228Y0024946D01*
X0180249Y0024789D01*
X0180267Y0024632D01*
X0180281Y0024474D01*
X0180291Y0024316D01*
X0180297Y0024158D01*
X0180299Y0024000D01*
X0180297Y0023842D01*
X0180291Y0023684D01*
X0180281Y0023526D01*
X0180267Y0023368D01*
X0180249Y0023211D01*
X0180228Y0023054D01*
X0180202Y0022898D01*
X0180172Y0022742D01*
X0180139Y0022587D01*
X0180101Y0022434D01*
X0180060Y0022281D01*
X0180015Y0022129D01*
X0179966Y0021978D01*
X0179913Y0021829D01*
X0179857Y0021681D01*
X0179797Y0021535D01*
X0179733Y0021390D01*
X0179665Y0021247D01*
X0179594Y0021105D01*
X0179520Y0020965D01*
X0179442Y0020828D01*
X0179360Y0020692D01*
X0179276Y0020558D01*
X0179187Y0020427D01*
X0179096Y0020298D01*
X0179001Y0020171D01*
X0178904Y0020046D01*
X0178803Y0019924D01*
X0178699Y0019805D01*
X0178592Y0019688D01*
X0178482Y0019574D01*
X0178369Y0019463D01*
X0178254Y0019354D01*
X0178136Y0019249D01*
X0178015Y0019147D01*
X0177892Y0019047D01*
X0177766Y0018951D01*
X0177638Y0018858D01*
X0177508Y0018768D01*
X0177375Y0018682D01*
X0177240Y0018598D01*
X0177104Y0018519D01*
X0176965Y0018442D01*
X0176824Y0018370D01*
X0176682Y0018300D01*
X0176538Y0018235D01*
X0176392Y0018173D01*
X0176245Y0018115D01*
X0176096Y0018060D01*
X0175946Y0018009D01*
X0175795Y0017962D01*
X0175643Y0017919D01*
X0175490Y0017880D01*
X0175335Y0017844D01*
X0175180Y0017813D01*
X0175024Y0017785D01*
X0174868Y0017761D01*
X0174711Y0017741D01*
X0174553Y0017725D01*
X0174396Y0017713D01*
X0174237Y0017705D01*
X0174079Y0017701D01*
X0173921Y0017701D01*
X0173763Y0017705D01*
X0173604Y0017713D01*
X0173447Y0017725D01*
X0173289Y0017741D01*
X0173132Y0017761D01*
X0172976Y0017785D01*
X0172820Y0017813D01*
X0172665Y0017844D01*
X0172510Y0017880D01*
X0172357Y0017919D01*
X0172205Y0017962D01*
X0172054Y0018009D01*
X0171904Y0018060D01*
X0171755Y0018115D01*
X0171608Y0018173D01*
X0171462Y0018235D01*
X0171318Y0018300D01*
X0171176Y0018370D01*
X0171035Y0018442D01*
X0170896Y0018519D01*
X0170760Y0018598D01*
X0170625Y0018682D01*
X0170492Y0018768D01*
X0170362Y0018858D01*
X0170234Y0018951D01*
X0170108Y0019047D01*
X0169985Y0019147D01*
X0169864Y0019249D01*
X0169746Y0019354D01*
X0169631Y0019463D01*
X0169518Y0019574D01*
X0169408Y0019688D01*
X0169301Y0019805D01*
X0169197Y0019924D01*
X0169096Y0020046D01*
X0168999Y0020171D01*
X0168904Y0020298D01*
X0168813Y0020427D01*
X0168724Y0020558D01*
X0168640Y0020692D01*
X0168558Y0020828D01*
X0168480Y0020965D01*
X0168406Y0021105D01*
X0168335Y0021247D01*
X0168267Y0021390D01*
X0168203Y0021535D01*
X0168143Y0021681D01*
X0168087Y0021829D01*
X0168034Y0021978D01*
X0167985Y0022129D01*
X0167940Y0022281D01*
X0167899Y0022434D01*
X0167861Y0022587D01*
X0167828Y0022742D01*
X0167798Y0022898D01*
X0167772Y0023054D01*
X0167751Y0023211D01*
X0167733Y0023368D01*
X0167719Y0023526D01*
X0167709Y0023684D01*
X0167703Y0023842D01*
X0167701Y0024000D01*
X0167701Y0154000D02*
X0167703Y0154158D01*
X0167709Y0154316D01*
X0167719Y0154474D01*
X0167733Y0154632D01*
X0167751Y0154789D01*
X0167772Y0154946D01*
X0167798Y0155102D01*
X0167828Y0155258D01*
X0167861Y0155413D01*
X0167899Y0155566D01*
X0167940Y0155719D01*
X0167985Y0155871D01*
X0168034Y0156022D01*
X0168087Y0156171D01*
X0168143Y0156319D01*
X0168203Y0156465D01*
X0168267Y0156610D01*
X0168335Y0156753D01*
X0168406Y0156895D01*
X0168480Y0157035D01*
X0168558Y0157172D01*
X0168640Y0157308D01*
X0168724Y0157442D01*
X0168813Y0157573D01*
X0168904Y0157702D01*
X0168999Y0157829D01*
X0169096Y0157954D01*
X0169197Y0158076D01*
X0169301Y0158195D01*
X0169408Y0158312D01*
X0169518Y0158426D01*
X0169631Y0158537D01*
X0169746Y0158646D01*
X0169864Y0158751D01*
X0169985Y0158853D01*
X0170108Y0158953D01*
X0170234Y0159049D01*
X0170362Y0159142D01*
X0170492Y0159232D01*
X0170625Y0159318D01*
X0170760Y0159402D01*
X0170896Y0159481D01*
X0171035Y0159558D01*
X0171176Y0159630D01*
X0171318Y0159700D01*
X0171462Y0159765D01*
X0171608Y0159827D01*
X0171755Y0159885D01*
X0171904Y0159940D01*
X0172054Y0159991D01*
X0172205Y0160038D01*
X0172357Y0160081D01*
X0172510Y0160120D01*
X0172665Y0160156D01*
X0172820Y0160187D01*
X0172976Y0160215D01*
X0173132Y0160239D01*
X0173289Y0160259D01*
X0173447Y0160275D01*
X0173604Y0160287D01*
X0173763Y0160295D01*
X0173921Y0160299D01*
X0174079Y0160299D01*
X0174237Y0160295D01*
X0174396Y0160287D01*
X0174553Y0160275D01*
X0174711Y0160259D01*
X0174868Y0160239D01*
X0175024Y0160215D01*
X0175180Y0160187D01*
X0175335Y0160156D01*
X0175490Y0160120D01*
X0175643Y0160081D01*
X0175795Y0160038D01*
X0175946Y0159991D01*
X0176096Y0159940D01*
X0176245Y0159885D01*
X0176392Y0159827D01*
X0176538Y0159765D01*
X0176682Y0159700D01*
X0176824Y0159630D01*
X0176965Y0159558D01*
X0177104Y0159481D01*
X0177240Y0159402D01*
X0177375Y0159318D01*
X0177508Y0159232D01*
X0177638Y0159142D01*
X0177766Y0159049D01*
X0177892Y0158953D01*
X0178015Y0158853D01*
X0178136Y0158751D01*
X0178254Y0158646D01*
X0178369Y0158537D01*
X0178482Y0158426D01*
X0178592Y0158312D01*
X0178699Y0158195D01*
X0178803Y0158076D01*
X0178904Y0157954D01*
X0179001Y0157829D01*
X0179096Y0157702D01*
X0179187Y0157573D01*
X0179276Y0157442D01*
X0179360Y0157308D01*
X0179442Y0157172D01*
X0179520Y0157035D01*
X0179594Y0156895D01*
X0179665Y0156753D01*
X0179733Y0156610D01*
X0179797Y0156465D01*
X0179857Y0156319D01*
X0179913Y0156171D01*
X0179966Y0156022D01*
X0180015Y0155871D01*
X0180060Y0155719D01*
X0180101Y0155566D01*
X0180139Y0155413D01*
X0180172Y0155258D01*
X0180202Y0155102D01*
X0180228Y0154946D01*
X0180249Y0154789D01*
X0180267Y0154632D01*
X0180281Y0154474D01*
X0180291Y0154316D01*
X0180297Y0154158D01*
X0180299Y0154000D01*
X0180297Y0153842D01*
X0180291Y0153684D01*
X0180281Y0153526D01*
X0180267Y0153368D01*
X0180249Y0153211D01*
X0180228Y0153054D01*
X0180202Y0152898D01*
X0180172Y0152742D01*
X0180139Y0152587D01*
X0180101Y0152434D01*
X0180060Y0152281D01*
X0180015Y0152129D01*
X0179966Y0151978D01*
X0179913Y0151829D01*
X0179857Y0151681D01*
X0179797Y0151535D01*
X0179733Y0151390D01*
X0179665Y0151247D01*
X0179594Y0151105D01*
X0179520Y0150965D01*
X0179442Y0150828D01*
X0179360Y0150692D01*
X0179276Y0150558D01*
X0179187Y0150427D01*
X0179096Y0150298D01*
X0179001Y0150171D01*
X0178904Y0150046D01*
X0178803Y0149924D01*
X0178699Y0149805D01*
X0178592Y0149688D01*
X0178482Y0149574D01*
X0178369Y0149463D01*
X0178254Y0149354D01*
X0178136Y0149249D01*
X0178015Y0149147D01*
X0177892Y0149047D01*
X0177766Y0148951D01*
X0177638Y0148858D01*
X0177508Y0148768D01*
X0177375Y0148682D01*
X0177240Y0148598D01*
X0177104Y0148519D01*
X0176965Y0148442D01*
X0176824Y0148370D01*
X0176682Y0148300D01*
X0176538Y0148235D01*
X0176392Y0148173D01*
X0176245Y0148115D01*
X0176096Y0148060D01*
X0175946Y0148009D01*
X0175795Y0147962D01*
X0175643Y0147919D01*
X0175490Y0147880D01*
X0175335Y0147844D01*
X0175180Y0147813D01*
X0175024Y0147785D01*
X0174868Y0147761D01*
X0174711Y0147741D01*
X0174553Y0147725D01*
X0174396Y0147713D01*
X0174237Y0147705D01*
X0174079Y0147701D01*
X0173921Y0147701D01*
X0173763Y0147705D01*
X0173604Y0147713D01*
X0173447Y0147725D01*
X0173289Y0147741D01*
X0173132Y0147761D01*
X0172976Y0147785D01*
X0172820Y0147813D01*
X0172665Y0147844D01*
X0172510Y0147880D01*
X0172357Y0147919D01*
X0172205Y0147962D01*
X0172054Y0148009D01*
X0171904Y0148060D01*
X0171755Y0148115D01*
X0171608Y0148173D01*
X0171462Y0148235D01*
X0171318Y0148300D01*
X0171176Y0148370D01*
X0171035Y0148442D01*
X0170896Y0148519D01*
X0170760Y0148598D01*
X0170625Y0148682D01*
X0170492Y0148768D01*
X0170362Y0148858D01*
X0170234Y0148951D01*
X0170108Y0149047D01*
X0169985Y0149147D01*
X0169864Y0149249D01*
X0169746Y0149354D01*
X0169631Y0149463D01*
X0169518Y0149574D01*
X0169408Y0149688D01*
X0169301Y0149805D01*
X0169197Y0149924D01*
X0169096Y0150046D01*
X0168999Y0150171D01*
X0168904Y0150298D01*
X0168813Y0150427D01*
X0168724Y0150558D01*
X0168640Y0150692D01*
X0168558Y0150828D01*
X0168480Y0150965D01*
X0168406Y0151105D01*
X0168335Y0151247D01*
X0168267Y0151390D01*
X0168203Y0151535D01*
X0168143Y0151681D01*
X0168087Y0151829D01*
X0168034Y0151978D01*
X0167985Y0152129D01*
X0167940Y0152281D01*
X0167899Y0152434D01*
X0167861Y0152587D01*
X0167828Y0152742D01*
X0167798Y0152898D01*
X0167772Y0153054D01*
X0167751Y0153211D01*
X0167733Y0153368D01*
X0167719Y0153526D01*
X0167709Y0153684D01*
X0167703Y0153842D01*
X0167701Y0154000D01*
X0035201Y0154000D02*
X0035203Y0154158D01*
X0035209Y0154316D01*
X0035219Y0154474D01*
X0035233Y0154632D01*
X0035251Y0154789D01*
X0035272Y0154946D01*
X0035298Y0155102D01*
X0035328Y0155258D01*
X0035361Y0155413D01*
X0035399Y0155566D01*
X0035440Y0155719D01*
X0035485Y0155871D01*
X0035534Y0156022D01*
X0035587Y0156171D01*
X0035643Y0156319D01*
X0035703Y0156465D01*
X0035767Y0156610D01*
X0035835Y0156753D01*
X0035906Y0156895D01*
X0035980Y0157035D01*
X0036058Y0157172D01*
X0036140Y0157308D01*
X0036224Y0157442D01*
X0036313Y0157573D01*
X0036404Y0157702D01*
X0036499Y0157829D01*
X0036596Y0157954D01*
X0036697Y0158076D01*
X0036801Y0158195D01*
X0036908Y0158312D01*
X0037018Y0158426D01*
X0037131Y0158537D01*
X0037246Y0158646D01*
X0037364Y0158751D01*
X0037485Y0158853D01*
X0037608Y0158953D01*
X0037734Y0159049D01*
X0037862Y0159142D01*
X0037992Y0159232D01*
X0038125Y0159318D01*
X0038260Y0159402D01*
X0038396Y0159481D01*
X0038535Y0159558D01*
X0038676Y0159630D01*
X0038818Y0159700D01*
X0038962Y0159765D01*
X0039108Y0159827D01*
X0039255Y0159885D01*
X0039404Y0159940D01*
X0039554Y0159991D01*
X0039705Y0160038D01*
X0039857Y0160081D01*
X0040010Y0160120D01*
X0040165Y0160156D01*
X0040320Y0160187D01*
X0040476Y0160215D01*
X0040632Y0160239D01*
X0040789Y0160259D01*
X0040947Y0160275D01*
X0041104Y0160287D01*
X0041263Y0160295D01*
X0041421Y0160299D01*
X0041579Y0160299D01*
X0041737Y0160295D01*
X0041896Y0160287D01*
X0042053Y0160275D01*
X0042211Y0160259D01*
X0042368Y0160239D01*
X0042524Y0160215D01*
X0042680Y0160187D01*
X0042835Y0160156D01*
X0042990Y0160120D01*
X0043143Y0160081D01*
X0043295Y0160038D01*
X0043446Y0159991D01*
X0043596Y0159940D01*
X0043745Y0159885D01*
X0043892Y0159827D01*
X0044038Y0159765D01*
X0044182Y0159700D01*
X0044324Y0159630D01*
X0044465Y0159558D01*
X0044604Y0159481D01*
X0044740Y0159402D01*
X0044875Y0159318D01*
X0045008Y0159232D01*
X0045138Y0159142D01*
X0045266Y0159049D01*
X0045392Y0158953D01*
X0045515Y0158853D01*
X0045636Y0158751D01*
X0045754Y0158646D01*
X0045869Y0158537D01*
X0045982Y0158426D01*
X0046092Y0158312D01*
X0046199Y0158195D01*
X0046303Y0158076D01*
X0046404Y0157954D01*
X0046501Y0157829D01*
X0046596Y0157702D01*
X0046687Y0157573D01*
X0046776Y0157442D01*
X0046860Y0157308D01*
X0046942Y0157172D01*
X0047020Y0157035D01*
X0047094Y0156895D01*
X0047165Y0156753D01*
X0047233Y0156610D01*
X0047297Y0156465D01*
X0047357Y0156319D01*
X0047413Y0156171D01*
X0047466Y0156022D01*
X0047515Y0155871D01*
X0047560Y0155719D01*
X0047601Y0155566D01*
X0047639Y0155413D01*
X0047672Y0155258D01*
X0047702Y0155102D01*
X0047728Y0154946D01*
X0047749Y0154789D01*
X0047767Y0154632D01*
X0047781Y0154474D01*
X0047791Y0154316D01*
X0047797Y0154158D01*
X0047799Y0154000D01*
X0047797Y0153842D01*
X0047791Y0153684D01*
X0047781Y0153526D01*
X0047767Y0153368D01*
X0047749Y0153211D01*
X0047728Y0153054D01*
X0047702Y0152898D01*
X0047672Y0152742D01*
X0047639Y0152587D01*
X0047601Y0152434D01*
X0047560Y0152281D01*
X0047515Y0152129D01*
X0047466Y0151978D01*
X0047413Y0151829D01*
X0047357Y0151681D01*
X0047297Y0151535D01*
X0047233Y0151390D01*
X0047165Y0151247D01*
X0047094Y0151105D01*
X0047020Y0150965D01*
X0046942Y0150828D01*
X0046860Y0150692D01*
X0046776Y0150558D01*
X0046687Y0150427D01*
X0046596Y0150298D01*
X0046501Y0150171D01*
X0046404Y0150046D01*
X0046303Y0149924D01*
X0046199Y0149805D01*
X0046092Y0149688D01*
X0045982Y0149574D01*
X0045869Y0149463D01*
X0045754Y0149354D01*
X0045636Y0149249D01*
X0045515Y0149147D01*
X0045392Y0149047D01*
X0045266Y0148951D01*
X0045138Y0148858D01*
X0045008Y0148768D01*
X0044875Y0148682D01*
X0044740Y0148598D01*
X0044604Y0148519D01*
X0044465Y0148442D01*
X0044324Y0148370D01*
X0044182Y0148300D01*
X0044038Y0148235D01*
X0043892Y0148173D01*
X0043745Y0148115D01*
X0043596Y0148060D01*
X0043446Y0148009D01*
X0043295Y0147962D01*
X0043143Y0147919D01*
X0042990Y0147880D01*
X0042835Y0147844D01*
X0042680Y0147813D01*
X0042524Y0147785D01*
X0042368Y0147761D01*
X0042211Y0147741D01*
X0042053Y0147725D01*
X0041896Y0147713D01*
X0041737Y0147705D01*
X0041579Y0147701D01*
X0041421Y0147701D01*
X0041263Y0147705D01*
X0041104Y0147713D01*
X0040947Y0147725D01*
X0040789Y0147741D01*
X0040632Y0147761D01*
X0040476Y0147785D01*
X0040320Y0147813D01*
X0040165Y0147844D01*
X0040010Y0147880D01*
X0039857Y0147919D01*
X0039705Y0147962D01*
X0039554Y0148009D01*
X0039404Y0148060D01*
X0039255Y0148115D01*
X0039108Y0148173D01*
X0038962Y0148235D01*
X0038818Y0148300D01*
X0038676Y0148370D01*
X0038535Y0148442D01*
X0038396Y0148519D01*
X0038260Y0148598D01*
X0038125Y0148682D01*
X0037992Y0148768D01*
X0037862Y0148858D01*
X0037734Y0148951D01*
X0037608Y0149047D01*
X0037485Y0149147D01*
X0037364Y0149249D01*
X0037246Y0149354D01*
X0037131Y0149463D01*
X0037018Y0149574D01*
X0036908Y0149688D01*
X0036801Y0149805D01*
X0036697Y0149924D01*
X0036596Y0150046D01*
X0036499Y0150171D01*
X0036404Y0150298D01*
X0036313Y0150427D01*
X0036224Y0150558D01*
X0036140Y0150692D01*
X0036058Y0150828D01*
X0035980Y0150965D01*
X0035906Y0151105D01*
X0035835Y0151247D01*
X0035767Y0151390D01*
X0035703Y0151535D01*
X0035643Y0151681D01*
X0035587Y0151829D01*
X0035534Y0151978D01*
X0035485Y0152129D01*
X0035440Y0152281D01*
X0035399Y0152434D01*
X0035361Y0152587D01*
X0035328Y0152742D01*
X0035298Y0152898D01*
X0035272Y0153054D01*
X0035251Y0153211D01*
X0035233Y0153368D01*
X0035219Y0153526D01*
X0035209Y0153684D01*
X0035203Y0153842D01*
X0035201Y0154000D01*
D11*
X0078900Y0144000D02*
X0084100Y0144000D01*
X0084100Y0134000D02*
X0078900Y0134000D01*
X0078900Y0124000D02*
X0084100Y0124000D01*
X0084100Y0114000D02*
X0078900Y0114000D01*
X0078900Y0104000D02*
X0084100Y0104000D01*
X0084100Y0094000D02*
X0078900Y0094000D01*
X0078900Y0084000D02*
X0084100Y0084000D01*
X0084100Y0074000D02*
X0078900Y0074000D01*
X0078900Y0064000D02*
X0084100Y0064000D01*
X0084100Y0054000D02*
X0078900Y0054000D01*
X0078900Y0044000D02*
X0084100Y0044000D01*
X0084100Y0034000D02*
X0078900Y0034000D01*
X0078900Y0024000D02*
X0084100Y0024000D01*
X0084100Y0014000D02*
X0078900Y0014000D01*
X0108900Y0014000D02*
X0114100Y0014000D01*
X0114100Y0024000D02*
X0108900Y0024000D01*
X0108900Y0034000D02*
X0114100Y0034000D01*
X0114100Y0044000D02*
X0108900Y0044000D01*
X0108900Y0054000D02*
X0114100Y0054000D01*
X0114100Y0064000D02*
X0108900Y0064000D01*
X0108900Y0074000D02*
X0114100Y0074000D01*
X0114100Y0084000D02*
X0108900Y0084000D01*
X0108900Y0094000D02*
X0114100Y0094000D01*
X0114100Y0104000D02*
X0108900Y0104000D01*
X0108900Y0114000D02*
X0114100Y0114000D01*
X0114100Y0124000D02*
X0108900Y0124000D01*
X0108900Y0134000D02*
X0114100Y0134000D01*
X0114100Y0144000D02*
X0108900Y0144000D01*
D12*
X0123500Y0144000D02*
X0129500Y0144000D01*
X0129500Y0134000D02*
X0123500Y0134000D01*
X0123500Y0124000D02*
X0129500Y0124000D01*
X0129500Y0114000D02*
X0123500Y0114000D01*
X0123500Y0104000D02*
X0129500Y0104000D01*
X0129500Y0094000D02*
X0123500Y0094000D01*
X0123500Y0084000D02*
X0129500Y0084000D01*
X0129500Y0074000D02*
X0123500Y0074000D01*
X0143500Y0074000D02*
X0149500Y0074000D01*
X0149500Y0084000D02*
X0143500Y0084000D01*
X0143500Y0094000D02*
X0149500Y0094000D01*
X0149500Y0104000D02*
X0143500Y0104000D01*
X0143500Y0114000D02*
X0149500Y0114000D01*
X0149500Y0124000D02*
X0143500Y0124000D01*
X0143500Y0134000D02*
X0149500Y0134000D01*
X0149500Y0144000D02*
X0143500Y0144000D01*
X0166000Y0129000D02*
X0172000Y0129000D01*
X0172000Y0119000D02*
X0166000Y0119000D01*
X0166000Y0104000D02*
X0172000Y0104000D01*
X0172000Y0094000D02*
X0166000Y0094000D01*
X0166000Y0079000D02*
X0172000Y0079000D01*
X0172000Y0069000D02*
X0166000Y0069000D01*
X0166000Y0059000D02*
X0172000Y0059000D01*
X0172000Y0049000D02*
X0166000Y0049000D01*
X0049500Y0049000D02*
X0043500Y0049000D01*
X0043500Y0059000D02*
X0049500Y0059000D01*
X0049500Y0069000D02*
X0043500Y0069000D01*
X0043500Y0079000D02*
X0049500Y0079000D01*
X0049500Y0094000D02*
X0043500Y0094000D01*
X0043500Y0104000D02*
X0049500Y0104000D01*
X0049500Y0119000D02*
X0043500Y0119000D01*
X0043500Y0129000D02*
X0049500Y0129000D01*
D13*
X0126500Y0044000D03*
X0136500Y0044000D03*
X0136500Y0044000D03*
X0146500Y0044000D03*
X0146500Y0034000D03*
X0136500Y0034000D03*
X0136500Y0034000D03*
X0126500Y0034000D03*
X0126500Y0024000D03*
X0136500Y0024000D03*
X0136500Y0024000D03*
X0146500Y0024000D03*
D14*
X0069000Y0019000D03*
X0069000Y0059000D03*
X0069000Y0089000D03*
X0059000Y0089000D03*
X0059000Y0129000D03*
X0069000Y0129000D03*
D15*
X0069000Y0126500D01*
X0046500Y0104000D01*
X0046500Y0094000D02*
X0041500Y0094000D01*
X0036500Y0089000D01*
X0036500Y0064000D01*
X0041500Y0059000D01*
X0046500Y0059000D01*
X0069000Y0034000D02*
X0074000Y0039000D01*
X0086500Y0039000D01*
X0091500Y0044000D01*
X0111500Y0044000D01*
X0111500Y0054000D02*
X0141500Y0054000D01*
X0156500Y0069000D01*
X0156500Y0106500D01*
X0169000Y0119000D01*
X0146500Y0114000D02*
X0141500Y0114000D01*
X0136500Y0119000D01*
X0091500Y0119000D01*
X0086500Y0114000D01*
X0081500Y0114000D01*
X0081500Y0104000D02*
X0086500Y0104000D01*
X0091500Y0109000D01*
X0136500Y0109000D01*
X0141500Y0104000D01*
X0146500Y0104000D01*
X0136500Y0099000D02*
X0141500Y0094000D01*
X0146500Y0094000D01*
X0136500Y0089000D02*
X0141500Y0084000D01*
X0146500Y0084000D01*
X0146500Y0074000D02*
X0141500Y0074000D01*
X0136500Y0079000D01*
X0091500Y0079000D01*
X0086500Y0074000D01*
X0081500Y0074000D01*
X0081500Y0084000D02*
X0086500Y0084000D01*
X0091500Y0089000D01*
X0136500Y0089000D01*
X0136500Y0099000D02*
X0091500Y0099000D01*
X0086500Y0094000D01*
X0081500Y0094000D01*
X0081500Y0124000D02*
X0086500Y0124000D01*
X0091500Y0129000D01*
X0136500Y0129000D01*
X0141500Y0124000D01*
X0146500Y0124000D01*
X0146500Y0134000D02*
X0141500Y0134000D01*
X0136500Y0139000D01*
X0091500Y0139000D01*
X0086500Y0134000D01*
X0081500Y0134000D01*
X0081500Y0144000D02*
X0086500Y0144000D01*
X0091500Y0149000D01*
X0136500Y0149000D01*
X0141500Y0144000D01*
X0146500Y0144000D01*
X0059000Y0129000D02*
X0046500Y0129000D01*
X0154000Y0059000D02*
X0164000Y0069000D01*
X0169000Y0069000D01*
X0169000Y0059000D02*
X0164000Y0059000D01*
X0159000Y0054000D01*
X0159000Y0036500D01*
X0151500Y0029000D01*
X0091500Y0029000D01*
X0086500Y0024000D01*
X0081500Y0024000D01*
X0069000Y0019000D02*
X0069000Y0034000D01*
X0081500Y0034000D02*
X0086500Y0034000D01*
X0091500Y0039000D01*
X0151500Y0039000D01*
X0154000Y0041500D01*
X0154000Y0059000D01*
D16*
X0151900Y0058918D02*
X0149388Y0058918D01*
X0148389Y0057920D02*
X0151900Y0057920D01*
X0151900Y0056921D02*
X0147391Y0056921D01*
X0146392Y0055923D02*
X0151900Y0055923D01*
X0151900Y0054924D02*
X0145394Y0054924D01*
X0144395Y0053926D02*
X0151900Y0053926D01*
X0151900Y0052927D02*
X0143397Y0052927D01*
X0142398Y0051929D02*
X0151900Y0051929D01*
X0151900Y0050930D02*
X0116545Y0050930D01*
X0116309Y0050694D02*
X0117406Y0051791D01*
X0117451Y0051900D01*
X0142370Y0051900D01*
X0157370Y0066900D01*
X0158600Y0068130D01*
X0158600Y0105630D01*
X0167670Y0114700D01*
X0172855Y0114700D01*
X0174436Y0115355D01*
X0175645Y0116564D01*
X0176300Y0118145D01*
X0176300Y0119855D01*
X0175645Y0121436D01*
X0174436Y0122645D01*
X0172855Y0123300D01*
X0165145Y0123300D01*
X0163564Y0122645D01*
X0162355Y0121436D01*
X0161700Y0119855D01*
X0161700Y0118145D01*
X0162355Y0116564D01*
X0162975Y0115944D01*
X0154400Y0107370D01*
X0154400Y0069870D01*
X0140630Y0056100D01*
X0117451Y0056100D01*
X0117406Y0056209D01*
X0116309Y0057306D01*
X0114876Y0057900D01*
X0108124Y0057900D01*
X0106691Y0057306D01*
X0105594Y0056209D01*
X0105000Y0054776D01*
X0105000Y0053224D01*
X0105594Y0051791D01*
X0106691Y0050694D01*
X0108124Y0050100D01*
X0114876Y0050100D01*
X0116309Y0050694D01*
X0114876Y0047900D02*
X0108124Y0047900D01*
X0106691Y0047306D01*
X0105594Y0046209D01*
X0105549Y0046100D01*
X0090630Y0046100D01*
X0089400Y0044870D01*
X0088000Y0043470D01*
X0088000Y0044776D01*
X0087406Y0046209D01*
X0086309Y0047306D01*
X0084876Y0047900D01*
X0078124Y0047900D01*
X0076691Y0047306D01*
X0075594Y0046209D01*
X0075000Y0044776D01*
X0075000Y0043224D01*
X0075594Y0041791D01*
X0076285Y0041100D01*
X0073130Y0041100D01*
X0071900Y0039870D01*
X0066900Y0034870D01*
X0066900Y0022415D01*
X0065100Y0020615D01*
X0065100Y0017385D01*
X0067385Y0015100D01*
X0070615Y0015100D01*
X0072900Y0017385D01*
X0072900Y0020615D01*
X0071100Y0022415D01*
X0071100Y0033130D01*
X0074870Y0036900D01*
X0076285Y0036900D01*
X0075594Y0036209D01*
X0075000Y0034776D01*
X0075000Y0033224D01*
X0075594Y0031791D01*
X0076691Y0030694D01*
X0078124Y0030100D01*
X0084876Y0030100D01*
X0086309Y0030694D01*
X0087406Y0031791D01*
X0087509Y0032039D01*
X0092370Y0036900D01*
X0106285Y0036900D01*
X0105594Y0036209D01*
X0105000Y0034776D01*
X0105000Y0033224D01*
X0105594Y0031791D01*
X0106285Y0031100D01*
X0090630Y0031100D01*
X0086573Y0027043D01*
X0086309Y0027306D01*
X0084876Y0027900D01*
X0078124Y0027900D01*
X0076691Y0027306D01*
X0075594Y0026209D01*
X0075000Y0024776D01*
X0075000Y0023224D01*
X0075594Y0021791D01*
X0076691Y0020694D01*
X0078124Y0020100D01*
X0084876Y0020100D01*
X0086309Y0020694D01*
X0087406Y0021791D01*
X0087509Y0022039D01*
X0088600Y0023130D01*
X0092370Y0026900D01*
X0106285Y0026900D01*
X0105594Y0026209D01*
X0105000Y0024776D01*
X0105000Y0023224D01*
X0105594Y0021791D01*
X0106691Y0020694D01*
X0108124Y0020100D01*
X0114876Y0020100D01*
X0116309Y0020694D01*
X0117406Y0021791D01*
X0118000Y0023224D01*
X0118000Y0024776D01*
X0117406Y0026209D01*
X0116715Y0026900D01*
X0123036Y0026900D01*
X0122000Y0025864D01*
X0122000Y0024500D01*
X0126000Y0024500D01*
X0126000Y0023500D01*
X0127000Y0023500D01*
X0127000Y0024500D01*
X0131000Y0024500D01*
X0131000Y0025864D01*
X0129964Y0026900D01*
X0133036Y0026900D01*
X0132000Y0025864D01*
X0132000Y0024500D01*
X0136000Y0024500D01*
X0136000Y0026900D01*
X0137000Y0026900D01*
X0137000Y0024500D01*
X0141000Y0024500D01*
X0141000Y0025864D01*
X0139964Y0026900D01*
X0143036Y0026900D01*
X0142000Y0025864D01*
X0142000Y0024500D01*
X0146000Y0024500D01*
X0146000Y0023500D01*
X0147000Y0023500D01*
X0147000Y0024500D01*
X0151000Y0024500D01*
X0151000Y0025864D01*
X0149964Y0026900D01*
X0152370Y0026900D01*
X0153600Y0028130D01*
X0153600Y0028130D01*
X0159870Y0034400D01*
X0161100Y0035630D01*
X0161100Y0053130D01*
X0163444Y0055475D01*
X0163564Y0055355D01*
X0165145Y0054700D01*
X0172855Y0054700D01*
X0174436Y0055355D01*
X0175645Y0056564D01*
X0176300Y0058145D01*
X0176300Y0059855D01*
X0175645Y0061436D01*
X0174436Y0062645D01*
X0172855Y0063300D01*
X0165145Y0063300D01*
X0163564Y0062645D01*
X0162355Y0061436D01*
X0161700Y0059855D01*
X0161700Y0059670D01*
X0156900Y0054870D01*
X0156900Y0037370D01*
X0150630Y0031100D01*
X0149681Y0031100D01*
X0150800Y0032219D01*
X0150800Y0035781D01*
X0149681Y0036900D01*
X0152370Y0036900D01*
X0154870Y0039400D01*
X0156100Y0040630D01*
X0156100Y0058130D01*
X0163444Y0065475D01*
X0163564Y0065355D01*
X0165145Y0064700D01*
X0172855Y0064700D01*
X0174436Y0065355D01*
X0175645Y0066564D01*
X0176300Y0068145D01*
X0176300Y0069855D01*
X0175645Y0071436D01*
X0174436Y0072645D01*
X0172855Y0073300D01*
X0165145Y0073300D01*
X0163564Y0072645D01*
X0162355Y0071436D01*
X0161700Y0069855D01*
X0161700Y0069670D01*
X0151900Y0059870D01*
X0151900Y0042370D01*
X0150630Y0041100D01*
X0149681Y0041100D01*
X0150800Y0042219D01*
X0150800Y0045781D01*
X0148281Y0048300D01*
X0144719Y0048300D01*
X0142200Y0045781D01*
X0142200Y0042219D01*
X0143319Y0041100D01*
X0139681Y0041100D01*
X0140800Y0042219D01*
X0140800Y0045781D01*
X0138281Y0048300D01*
X0134719Y0048300D01*
X0132200Y0045781D01*
X0132200Y0042219D01*
X0133319Y0041100D01*
X0129681Y0041100D01*
X0130800Y0042219D01*
X0130800Y0045781D01*
X0128281Y0048300D01*
X0124719Y0048300D01*
X0122200Y0045781D01*
X0122200Y0042219D01*
X0123319Y0041100D01*
X0116715Y0041100D01*
X0117406Y0041791D01*
X0118000Y0043224D01*
X0118000Y0044776D01*
X0117406Y0046209D01*
X0116309Y0047306D01*
X0114876Y0047900D01*
X0116679Y0046936D02*
X0123355Y0046936D01*
X0124353Y0047934D02*
X0053885Y0047934D01*
X0053889Y0047946D02*
X0053977Y0048500D01*
X0047000Y0048500D01*
X0047000Y0049500D01*
X0046000Y0049500D01*
X0046000Y0053500D01*
X0043146Y0053500D01*
X0042446Y0053389D01*
X0041773Y0053170D01*
X0041141Y0052849D01*
X0040568Y0052432D01*
X0040068Y0051932D01*
X0039651Y0051359D01*
X0039330Y0050727D01*
X0039111Y0050054D01*
X0039023Y0049500D01*
X0046000Y0049500D01*
X0046000Y0048500D01*
X0047000Y0048500D01*
X0047000Y0044500D01*
X0049854Y0044500D01*
X0050554Y0044611D01*
X0051227Y0044830D01*
X0051859Y0045151D01*
X0052432Y0045568D01*
X0052932Y0046068D01*
X0053349Y0046641D01*
X0053670Y0047273D01*
X0053889Y0047946D01*
X0053499Y0046936D02*
X0076321Y0046936D01*
X0075481Y0045937D02*
X0052801Y0045937D01*
X0051442Y0044939D02*
X0075068Y0044939D01*
X0075000Y0043940D02*
X0026000Y0043940D01*
X0026000Y0042942D02*
X0075117Y0042942D01*
X0075531Y0041943D02*
X0026000Y0041943D01*
X0026000Y0040945D02*
X0072975Y0040945D01*
X0071977Y0039946D02*
X0044956Y0039946D01*
X0042733Y0040454D02*
X0042733Y0040454D01*
X0037828Y0040086D01*
X0033250Y0038289D01*
X0029405Y0035223D01*
X0026634Y0031159D01*
X0026000Y0029104D01*
X0026000Y0148896D01*
X0026634Y0146841D01*
X0026634Y0146841D01*
X0029405Y0142777D01*
X0033250Y0139711D01*
X0037828Y0137914D01*
X0037828Y0137914D01*
X0042733Y0137546D01*
X0047528Y0138641D01*
X0051788Y0141100D01*
X0055133Y0144705D01*
X0055133Y0144705D01*
X0057267Y0149137D01*
X0058000Y0154000D01*
X0057267Y0158863D01*
X0057267Y0158863D01*
X0055133Y0163295D01*
X0051788Y0166900D01*
X0051788Y0166900D01*
X0047528Y0169359D01*
X0047085Y0169461D01*
X0168734Y0169461D01*
X0165750Y0168289D01*
X0161905Y0165223D01*
X0161905Y0165223D01*
X0159134Y0161159D01*
X0157684Y0156459D01*
X0157684Y0151541D01*
X0159134Y0146841D01*
X0159134Y0146841D01*
X0161905Y0142777D01*
X0165750Y0139711D01*
X0170328Y0137914D01*
X0170328Y0137914D01*
X0175233Y0137546D01*
X0180028Y0138641D01*
X0184288Y0141100D01*
X0187633Y0144705D01*
X0187633Y0144705D01*
X0188201Y0145884D01*
X0188201Y0032116D01*
X0187633Y0033295D01*
X0184288Y0036900D01*
X0184288Y0036900D01*
X0180028Y0039359D01*
X0175233Y0040454D01*
X0170328Y0040086D01*
X0165750Y0038289D01*
X0161905Y0035223D01*
X0159134Y0031159D01*
X0157684Y0026459D01*
X0157684Y0021541D01*
X0159134Y0016841D01*
X0159134Y0016841D01*
X0161905Y0012777D01*
X0165750Y0009711D01*
X0168835Y0008500D01*
X0046912Y0008500D01*
X0047528Y0008641D01*
X0051788Y0011100D01*
X0055133Y0014705D01*
X0055133Y0014705D01*
X0057267Y0019137D01*
X0058000Y0024000D01*
X0057267Y0028863D01*
X0057267Y0028863D01*
X0055133Y0033295D01*
X0051788Y0036900D01*
X0051788Y0036900D01*
X0047528Y0039359D01*
X0042733Y0040454D01*
X0043146Y0044500D02*
X0046000Y0044500D01*
X0046000Y0048500D01*
X0039023Y0048500D01*
X0039111Y0047946D01*
X0039330Y0047273D01*
X0039651Y0046641D01*
X0040068Y0046068D01*
X0040568Y0045568D01*
X0041141Y0045151D01*
X0041773Y0044830D01*
X0042446Y0044611D01*
X0043146Y0044500D01*
X0041558Y0044939D02*
X0026000Y0044939D01*
X0026000Y0045937D02*
X0040199Y0045937D01*
X0039501Y0046936D02*
X0026000Y0046936D01*
X0026000Y0047934D02*
X0039115Y0047934D01*
X0039091Y0049932D02*
X0026000Y0049932D01*
X0026000Y0050930D02*
X0039433Y0050930D01*
X0040065Y0051929D02*
X0026000Y0051929D01*
X0026000Y0052927D02*
X0041295Y0052927D01*
X0042104Y0054924D02*
X0026000Y0054924D01*
X0026000Y0053926D02*
X0081200Y0053926D01*
X0081200Y0053700D02*
X0074800Y0053700D01*
X0074800Y0053677D01*
X0074901Y0053040D01*
X0075100Y0052426D01*
X0075393Y0051851D01*
X0075773Y0051329D01*
X0076229Y0050873D01*
X0076751Y0050493D01*
X0077326Y0050200D01*
X0077940Y0050001D01*
X0078577Y0049900D01*
X0081200Y0049900D01*
X0081200Y0053700D01*
X0081800Y0053700D01*
X0081800Y0054300D01*
X0081200Y0054300D01*
X0081200Y0058100D01*
X0078577Y0058100D01*
X0077940Y0057999D01*
X0077326Y0057800D01*
X0076751Y0057507D01*
X0076229Y0057127D01*
X0075773Y0056671D01*
X0075393Y0056149D01*
X0075100Y0055574D01*
X0074901Y0054960D01*
X0074800Y0054323D01*
X0074800Y0054300D01*
X0081200Y0054300D01*
X0081200Y0053700D01*
X0081800Y0053700D02*
X0081800Y0049900D01*
X0084423Y0049900D01*
X0085060Y0050001D01*
X0085674Y0050200D01*
X0086249Y0050493D01*
X0086771Y0050873D01*
X0087227Y0051329D01*
X0087607Y0051851D01*
X0087900Y0052426D01*
X0088099Y0053040D01*
X0088200Y0053677D01*
X0088200Y0053700D01*
X0081800Y0053700D01*
X0081800Y0053926D02*
X0105000Y0053926D01*
X0105061Y0054924D02*
X0088105Y0054924D01*
X0088099Y0054960D02*
X0087900Y0055574D01*
X0087607Y0056149D01*
X0087227Y0056671D01*
X0086771Y0057127D01*
X0086249Y0057507D01*
X0085674Y0057800D01*
X0085060Y0057999D01*
X0084423Y0058100D01*
X0081800Y0058100D01*
X0081800Y0054300D01*
X0088200Y0054300D01*
X0088200Y0054323D01*
X0088099Y0054960D01*
X0087722Y0055923D02*
X0105475Y0055923D01*
X0106306Y0056921D02*
X0086977Y0056921D01*
X0085305Y0057920D02*
X0142450Y0057920D01*
X0143448Y0058918D02*
X0072900Y0058918D01*
X0072900Y0057920D02*
X0077695Y0057920D01*
X0076023Y0056921D02*
X0072437Y0056921D01*
X0072900Y0057385D02*
X0070615Y0055100D01*
X0067385Y0055100D01*
X0065100Y0057385D01*
X0065100Y0060615D01*
X0067385Y0062900D01*
X0070615Y0062900D01*
X0072900Y0060615D01*
X0072900Y0057385D01*
X0071438Y0055923D02*
X0075278Y0055923D01*
X0074895Y0054924D02*
X0050896Y0054924D01*
X0050355Y0054700D02*
X0051936Y0055355D01*
X0053145Y0056564D01*
X0053800Y0058145D01*
X0053800Y0059855D01*
X0053145Y0061436D01*
X0051936Y0062645D01*
X0050355Y0063300D01*
X0042645Y0063300D01*
X0041064Y0062645D01*
X0040944Y0062525D01*
X0038600Y0064870D01*
X0038600Y0088130D01*
X0040944Y0090475D01*
X0041064Y0090355D01*
X0042645Y0089700D01*
X0050355Y0089700D01*
X0051936Y0090355D01*
X0053145Y0091564D01*
X0053800Y0093145D01*
X0053800Y0094855D01*
X0053145Y0096436D01*
X0051936Y0097645D01*
X0050355Y0098300D01*
X0042645Y0098300D01*
X0041064Y0097645D01*
X0039855Y0096436D01*
X0039200Y0094855D01*
X0039200Y0094670D01*
X0034400Y0089870D01*
X0034400Y0063130D01*
X0035630Y0061900D01*
X0039200Y0058330D01*
X0039200Y0058145D01*
X0039855Y0056564D01*
X0041064Y0055355D01*
X0042645Y0054700D01*
X0050355Y0054700D01*
X0049854Y0053500D02*
X0047000Y0053500D01*
X0047000Y0049500D01*
X0053977Y0049500D01*
X0053889Y0050054D01*
X0053670Y0050727D01*
X0053349Y0051359D01*
X0052932Y0051932D01*
X0052432Y0052432D01*
X0051859Y0052849D01*
X0051227Y0053170D01*
X0050554Y0053389D01*
X0049854Y0053500D01*
X0051705Y0052927D02*
X0074938Y0052927D01*
X0075354Y0051929D02*
X0052935Y0051929D01*
X0053567Y0050930D02*
X0076172Y0050930D01*
X0078378Y0049932D02*
X0053909Y0049932D01*
X0052504Y0055923D02*
X0066562Y0055923D01*
X0065563Y0056921D02*
X0053293Y0056921D01*
X0053707Y0057920D02*
X0065100Y0057920D01*
X0065100Y0058918D02*
X0053800Y0058918D01*
X0053775Y0059917D02*
X0065100Y0059917D01*
X0065400Y0060915D02*
X0053361Y0060915D01*
X0052667Y0061914D02*
X0066398Y0061914D01*
X0071602Y0061914D02*
X0075543Y0061914D01*
X0075594Y0061791D02*
X0076691Y0060694D01*
X0078124Y0060100D01*
X0084876Y0060100D01*
X0086309Y0060694D01*
X0087406Y0061791D01*
X0088000Y0063224D01*
X0088000Y0064776D01*
X0087406Y0066209D01*
X0086309Y0067306D01*
X0084876Y0067900D01*
X0078124Y0067900D01*
X0076691Y0067306D01*
X0075594Y0066209D01*
X0075000Y0064776D01*
X0075000Y0063224D01*
X0075594Y0061791D01*
X0075129Y0062912D02*
X0051292Y0062912D01*
X0050355Y0064700D02*
X0051936Y0065355D01*
X0053145Y0066564D01*
X0053800Y0068145D01*
X0053800Y0069855D01*
X0053145Y0071436D01*
X0051936Y0072645D01*
X0050355Y0073300D01*
X0042645Y0073300D01*
X0041064Y0072645D01*
X0039855Y0071436D01*
X0039200Y0069855D01*
X0039200Y0068145D01*
X0039855Y0066564D01*
X0041064Y0065355D01*
X0042645Y0064700D01*
X0050355Y0064700D01*
X0050860Y0064909D02*
X0075055Y0064909D01*
X0075000Y0063911D02*
X0039559Y0063911D01*
X0038600Y0064909D02*
X0042140Y0064909D01*
X0040511Y0065908D02*
X0038600Y0065908D01*
X0038600Y0066906D02*
X0039713Y0066906D01*
X0039299Y0067905D02*
X0038600Y0067905D01*
X0038600Y0068903D02*
X0039200Y0068903D01*
X0039219Y0069902D02*
X0038600Y0069902D01*
X0038600Y0070900D02*
X0039633Y0070900D01*
X0040318Y0071899D02*
X0038600Y0071899D01*
X0038600Y0072897D02*
X0041672Y0072897D01*
X0042645Y0074700D02*
X0041064Y0075355D01*
X0039855Y0076564D01*
X0039200Y0078145D01*
X0039200Y0079855D01*
X0039855Y0081436D01*
X0041064Y0082645D01*
X0042645Y0083300D01*
X0050355Y0083300D01*
X0051936Y0082645D01*
X0053145Y0081436D01*
X0053800Y0079855D01*
X0053800Y0078145D01*
X0053145Y0076564D01*
X0051936Y0075355D01*
X0050355Y0074700D01*
X0042645Y0074700D01*
X0042176Y0074894D02*
X0038600Y0074894D01*
X0038600Y0073896D02*
X0075000Y0073896D01*
X0075000Y0073224D02*
X0075000Y0074776D01*
X0075594Y0076209D01*
X0076691Y0077306D01*
X0078124Y0077900D01*
X0084876Y0077900D01*
X0086309Y0077306D01*
X0086573Y0077043D01*
X0089400Y0079870D01*
X0090630Y0081100D01*
X0106285Y0081100D01*
X0105594Y0081791D01*
X0105000Y0083224D01*
X0105000Y0084776D01*
X0105594Y0086209D01*
X0106285Y0086900D01*
X0092370Y0086900D01*
X0087509Y0082039D01*
X0087406Y0081791D01*
X0086309Y0080694D01*
X0084876Y0080100D01*
X0078124Y0080100D01*
X0076691Y0080694D01*
X0075594Y0081791D01*
X0075000Y0083224D01*
X0075000Y0084776D01*
X0075594Y0086209D01*
X0076691Y0087306D01*
X0078124Y0087900D01*
X0084876Y0087900D01*
X0086309Y0087306D01*
X0086573Y0087043D01*
X0089400Y0089870D01*
X0090630Y0091100D01*
X0106285Y0091100D01*
X0105594Y0091791D01*
X0105000Y0093224D01*
X0105000Y0094776D01*
X0105594Y0096209D01*
X0106285Y0096900D01*
X0092370Y0096900D01*
X0087509Y0092039D01*
X0087406Y0091791D01*
X0086309Y0090694D01*
X0084876Y0090100D01*
X0078124Y0090100D01*
X0076691Y0090694D01*
X0075594Y0091791D01*
X0075000Y0093224D01*
X0075000Y0094776D01*
X0075594Y0096209D01*
X0076691Y0097306D01*
X0078124Y0097900D01*
X0084876Y0097900D01*
X0086309Y0097306D01*
X0086573Y0097043D01*
X0089400Y0099870D01*
X0090630Y0101100D01*
X0106285Y0101100D01*
X0105594Y0101791D01*
X0105000Y0103224D01*
X0105000Y0104776D01*
X0105594Y0106209D01*
X0106285Y0106900D01*
X0092370Y0106900D01*
X0087509Y0102039D01*
X0087406Y0101791D01*
X0086309Y0100694D01*
X0084876Y0100100D01*
X0078124Y0100100D01*
X0076691Y0100694D01*
X0075594Y0101791D01*
X0075000Y0103224D01*
X0075000Y0104776D01*
X0075594Y0106209D01*
X0076691Y0107306D01*
X0078124Y0107900D01*
X0084876Y0107900D01*
X0086309Y0107306D01*
X0086573Y0107043D01*
X0089400Y0109870D01*
X0090630Y0111100D01*
X0106285Y0111100D01*
X0105594Y0111791D01*
X0105000Y0113224D01*
X0105000Y0114776D01*
X0105594Y0116209D01*
X0106285Y0116900D01*
X0092370Y0116900D01*
X0087509Y0112039D01*
X0087406Y0111791D01*
X0086309Y0110694D01*
X0084876Y0110100D01*
X0078124Y0110100D01*
X0076691Y0110694D01*
X0075594Y0111791D01*
X0075000Y0113224D01*
X0075000Y0114776D01*
X0075594Y0116209D01*
X0076691Y0117306D01*
X0078124Y0117900D01*
X0084876Y0117900D01*
X0086309Y0117306D01*
X0086573Y0117043D01*
X0089400Y0119870D01*
X0090630Y0121100D01*
X0106285Y0121100D01*
X0105594Y0121791D01*
X0105000Y0123224D01*
X0105000Y0124776D01*
X0105594Y0126209D01*
X0106285Y0126900D01*
X0092370Y0126900D01*
X0088600Y0123130D01*
X0088600Y0123130D01*
X0087509Y0122039D01*
X0087406Y0121791D01*
X0086309Y0120694D01*
X0084876Y0120100D01*
X0078124Y0120100D01*
X0076691Y0120694D01*
X0075594Y0121791D01*
X0075000Y0123224D01*
X0075000Y0124776D01*
X0075594Y0126209D01*
X0076691Y0127306D01*
X0078124Y0127900D01*
X0084876Y0127900D01*
X0086309Y0127306D01*
X0086573Y0127043D01*
X0089400Y0129870D01*
X0089400Y0129870D01*
X0090630Y0131100D01*
X0106285Y0131100D01*
X0105594Y0131791D01*
X0105000Y0133224D01*
X0105000Y0134776D01*
X0105594Y0136209D01*
X0106285Y0136900D01*
X0092370Y0136900D01*
X0087509Y0132039D01*
X0087406Y0131791D01*
X0086309Y0130694D01*
X0084876Y0130100D01*
X0078124Y0130100D01*
X0076691Y0130694D01*
X0075594Y0131791D01*
X0075000Y0133224D01*
X0075000Y0134776D01*
X0075594Y0136209D01*
X0076691Y0137306D01*
X0078124Y0137900D01*
X0084876Y0137900D01*
X0086309Y0137306D01*
X0086573Y0137043D01*
X0089400Y0139870D01*
X0090630Y0141100D01*
X0106285Y0141100D01*
X0105594Y0141791D01*
X0105000Y0143224D01*
X0105000Y0144776D01*
X0105594Y0146209D01*
X0106285Y0146900D01*
X0092370Y0146900D01*
X0087509Y0142039D01*
X0087406Y0141791D01*
X0086309Y0140694D01*
X0084876Y0140100D01*
X0078124Y0140100D01*
X0076691Y0140694D01*
X0075594Y0141791D01*
X0075000Y0143224D01*
X0075000Y0144776D01*
X0075594Y0146209D01*
X0076691Y0147306D01*
X0078124Y0147900D01*
X0084876Y0147900D01*
X0086309Y0147306D01*
X0086573Y0147043D01*
X0089400Y0149870D01*
X0090630Y0151100D01*
X0137370Y0151100D01*
X0140944Y0147525D01*
X0141064Y0147645D01*
X0142645Y0148300D01*
X0150355Y0148300D01*
X0151936Y0147645D01*
X0153145Y0146436D01*
X0153800Y0144855D01*
X0153800Y0143145D01*
X0153145Y0141564D01*
X0151936Y0140355D01*
X0150355Y0139700D01*
X0142645Y0139700D01*
X0141064Y0140355D01*
X0139855Y0141564D01*
X0139200Y0143145D01*
X0139200Y0143330D01*
X0135630Y0146900D01*
X0132681Y0146900D01*
X0133145Y0146436D01*
X0133800Y0144855D01*
X0133800Y0143145D01*
X0133145Y0141564D01*
X0132681Y0141100D01*
X0137370Y0141100D01*
X0140944Y0137525D01*
X0141064Y0137645D01*
X0142645Y0138300D01*
X0150355Y0138300D01*
X0151936Y0137645D01*
X0153145Y0136436D01*
X0153800Y0134855D01*
X0153800Y0133145D01*
X0153145Y0131564D01*
X0151936Y0130355D01*
X0150355Y0129700D01*
X0142645Y0129700D01*
X0141064Y0130355D01*
X0139855Y0131564D01*
X0139200Y0133145D01*
X0139200Y0133330D01*
X0135630Y0136900D01*
X0132681Y0136900D01*
X0133145Y0136436D01*
X0133800Y0134855D01*
X0133800Y0133145D01*
X0133145Y0131564D01*
X0132681Y0131100D01*
X0137370Y0131100D01*
X0140944Y0127525D01*
X0141064Y0127645D01*
X0142645Y0128300D01*
X0150355Y0128300D01*
X0151936Y0127645D01*
X0153145Y0126436D01*
X0153800Y0124855D01*
X0153800Y0123145D01*
X0153145Y0121564D01*
X0151936Y0120355D01*
X0150355Y0119700D01*
X0142645Y0119700D01*
X0141064Y0120355D01*
X0139855Y0121564D01*
X0139200Y0123145D01*
X0139200Y0123330D01*
X0135630Y0126900D01*
X0132681Y0126900D01*
X0133145Y0126436D01*
X0133800Y0124855D01*
X0133800Y0123145D01*
X0133145Y0121564D01*
X0132681Y0121100D01*
X0137370Y0121100D01*
X0140944Y0117525D01*
X0141064Y0117645D01*
X0142645Y0118300D01*
X0150355Y0118300D01*
X0151936Y0117645D01*
X0153145Y0116436D01*
X0153800Y0114855D01*
X0153800Y0113145D01*
X0153145Y0111564D01*
X0151936Y0110355D01*
X0150355Y0109700D01*
X0142645Y0109700D01*
X0141064Y0110355D01*
X0139855Y0111564D01*
X0139200Y0113145D01*
X0139200Y0113330D01*
X0135630Y0116900D01*
X0132681Y0116900D01*
X0133145Y0116436D01*
X0133800Y0114855D01*
X0133800Y0113145D01*
X0133145Y0111564D01*
X0132681Y0111100D01*
X0137370Y0111100D01*
X0140944Y0107525D01*
X0141064Y0107645D01*
X0142645Y0108300D01*
X0150355Y0108300D01*
X0151936Y0107645D01*
X0153145Y0106436D01*
X0153800Y0104855D01*
X0153800Y0103145D01*
X0153145Y0101564D01*
X0151936Y0100355D01*
X0150355Y0099700D01*
X0142645Y0099700D01*
X0141064Y0100355D01*
X0139855Y0101564D01*
X0139200Y0103145D01*
X0139200Y0103330D01*
X0135630Y0106900D01*
X0132681Y0106900D01*
X0133145Y0106436D01*
X0133800Y0104855D01*
X0133800Y0103145D01*
X0133145Y0101564D01*
X0132681Y0101100D01*
X0137370Y0101100D01*
X0140944Y0097525D01*
X0141064Y0097645D01*
X0142645Y0098300D01*
X0150355Y0098300D01*
X0151936Y0097645D01*
X0153145Y0096436D01*
X0153800Y0094855D01*
X0153800Y0093145D01*
X0153145Y0091564D01*
X0151936Y0090355D01*
X0150355Y0089700D01*
X0142645Y0089700D01*
X0141064Y0090355D01*
X0139855Y0091564D01*
X0139200Y0093145D01*
X0139200Y0093330D01*
X0135630Y0096900D01*
X0132681Y0096900D01*
X0133145Y0096436D01*
X0133800Y0094855D01*
X0133800Y0093145D01*
X0133145Y0091564D01*
X0132681Y0091100D01*
X0137370Y0091100D01*
X0140944Y0087525D01*
X0141064Y0087645D01*
X0142645Y0088300D01*
X0150355Y0088300D01*
X0151936Y0087645D01*
X0153145Y0086436D01*
X0153800Y0084855D01*
X0153800Y0083145D01*
X0153145Y0081564D01*
X0151936Y0080355D01*
X0150355Y0079700D01*
X0142645Y0079700D01*
X0141064Y0080355D01*
X0139855Y0081564D01*
X0139200Y0083145D01*
X0139200Y0083330D01*
X0135630Y0086900D01*
X0132681Y0086900D01*
X0133145Y0086436D01*
X0133800Y0084855D01*
X0133800Y0083145D01*
X0133145Y0081564D01*
X0132681Y0081100D01*
X0137370Y0081100D01*
X0140944Y0077525D01*
X0141064Y0077645D01*
X0142645Y0078300D01*
X0150355Y0078300D01*
X0151936Y0077645D01*
X0153145Y0076436D01*
X0153800Y0074855D01*
X0153800Y0073145D01*
X0153145Y0071564D01*
X0151936Y0070355D01*
X0150355Y0069700D01*
X0142645Y0069700D01*
X0141064Y0070355D01*
X0139855Y0071564D01*
X0139200Y0073145D01*
X0139200Y0073330D01*
X0135630Y0076900D01*
X0132681Y0076900D01*
X0133145Y0076436D01*
X0133800Y0074855D01*
X0133800Y0073145D01*
X0133145Y0071564D01*
X0131936Y0070355D01*
X0130355Y0069700D01*
X0122645Y0069700D01*
X0121064Y0070355D01*
X0119855Y0071564D01*
X0119200Y0073145D01*
X0119200Y0074855D01*
X0119855Y0076436D01*
X0120319Y0076900D01*
X0116715Y0076900D01*
X0117406Y0076209D01*
X0118000Y0074776D01*
X0118000Y0073224D01*
X0117406Y0071791D01*
X0116309Y0070694D01*
X0114876Y0070100D01*
X0108124Y0070100D01*
X0106691Y0070694D01*
X0105594Y0071791D01*
X0105000Y0073224D01*
X0105000Y0074776D01*
X0105594Y0076209D01*
X0106285Y0076900D01*
X0092370Y0076900D01*
X0087509Y0072039D01*
X0087406Y0071791D01*
X0086309Y0070694D01*
X0084876Y0070100D01*
X0078124Y0070100D01*
X0076691Y0070694D01*
X0075594Y0071791D01*
X0075000Y0073224D01*
X0075135Y0072897D02*
X0051328Y0072897D01*
X0052682Y0071899D02*
X0075549Y0071899D01*
X0076484Y0070900D02*
X0053367Y0070900D01*
X0053781Y0069902D02*
X0122158Y0069902D01*
X0120519Y0070900D02*
X0116516Y0070900D01*
X0117451Y0071899D02*
X0119716Y0071899D01*
X0119302Y0072897D02*
X0117865Y0072897D01*
X0118000Y0073896D02*
X0119200Y0073896D01*
X0119216Y0074894D02*
X0117951Y0074894D01*
X0117537Y0075893D02*
X0119630Y0075893D01*
X0120310Y0076891D02*
X0116724Y0076891D01*
X0106276Y0076891D02*
X0092361Y0076891D01*
X0091363Y0075893D02*
X0105463Y0075893D01*
X0105049Y0074894D02*
X0090364Y0074894D01*
X0089366Y0073896D02*
X0105000Y0073896D01*
X0105135Y0072897D02*
X0088367Y0072897D01*
X0087451Y0071899D02*
X0105549Y0071899D01*
X0106484Y0070900D02*
X0086516Y0070900D01*
X0086709Y0066906D02*
X0106291Y0066906D01*
X0106691Y0067306D02*
X0105594Y0066209D01*
X0105000Y0064776D01*
X0105000Y0063224D01*
X0105594Y0061791D01*
X0106691Y0060694D01*
X0108124Y0060100D01*
X0114876Y0060100D01*
X0116309Y0060694D01*
X0117406Y0061791D01*
X0118000Y0063224D01*
X0118000Y0064776D01*
X0117406Y0066209D01*
X0116309Y0067306D01*
X0114876Y0067900D01*
X0108124Y0067900D01*
X0106691Y0067306D01*
X0105469Y0065908D02*
X0087531Y0065908D01*
X0087945Y0064909D02*
X0105055Y0064909D01*
X0105000Y0063911D02*
X0088000Y0063911D01*
X0087871Y0062912D02*
X0105129Y0062912D01*
X0105543Y0061914D02*
X0087457Y0061914D01*
X0086531Y0060915D02*
X0106469Y0060915D01*
X0105123Y0052927D02*
X0088062Y0052927D01*
X0087646Y0051929D02*
X0105537Y0051929D01*
X0106455Y0050930D02*
X0086828Y0050930D01*
X0084622Y0049932D02*
X0151900Y0049932D01*
X0151900Y0048933D02*
X0047000Y0048933D01*
X0047000Y0047934D02*
X0046000Y0047934D01*
X0046000Y0046936D02*
X0047000Y0046936D01*
X0047000Y0045937D02*
X0046000Y0045937D01*
X0046000Y0044939D02*
X0047000Y0044939D01*
X0046000Y0048933D02*
X0026000Y0048933D01*
X0026000Y0055923D02*
X0040496Y0055923D01*
X0039707Y0056921D02*
X0026000Y0056921D01*
X0026000Y0057920D02*
X0039293Y0057920D01*
X0038612Y0058918D02*
X0026000Y0058918D01*
X0026000Y0059917D02*
X0037614Y0059917D01*
X0036615Y0060915D02*
X0026000Y0060915D01*
X0026000Y0061914D02*
X0035616Y0061914D01*
X0034618Y0062912D02*
X0026000Y0062912D01*
X0026000Y0063911D02*
X0034400Y0063911D01*
X0034400Y0064909D02*
X0026000Y0064909D01*
X0026000Y0065908D02*
X0034400Y0065908D01*
X0034400Y0066906D02*
X0026000Y0066906D01*
X0026000Y0067905D02*
X0034400Y0067905D01*
X0034400Y0068903D02*
X0026000Y0068903D01*
X0026000Y0069902D02*
X0034400Y0069902D01*
X0034400Y0070900D02*
X0026000Y0070900D01*
X0026000Y0071899D02*
X0034400Y0071899D01*
X0034400Y0072897D02*
X0026000Y0072897D01*
X0026000Y0073896D02*
X0034400Y0073896D01*
X0034400Y0074894D02*
X0026000Y0074894D01*
X0026000Y0075893D02*
X0034400Y0075893D01*
X0034400Y0076891D02*
X0026000Y0076891D01*
X0026000Y0077890D02*
X0034400Y0077890D01*
X0034400Y0078888D02*
X0026000Y0078888D01*
X0026000Y0079887D02*
X0034400Y0079887D01*
X0034400Y0080885D02*
X0026000Y0080885D01*
X0026000Y0081884D02*
X0034400Y0081884D01*
X0034400Y0082882D02*
X0026000Y0082882D01*
X0026000Y0083881D02*
X0034400Y0083881D01*
X0034400Y0084879D02*
X0026000Y0084879D01*
X0026000Y0085878D02*
X0034400Y0085878D01*
X0034400Y0086876D02*
X0026000Y0086876D01*
X0026000Y0087875D02*
X0034400Y0087875D01*
X0034400Y0088873D02*
X0026000Y0088873D01*
X0026000Y0089872D02*
X0034402Y0089872D01*
X0035401Y0090870D02*
X0026000Y0090870D01*
X0026000Y0091869D02*
X0036399Y0091869D01*
X0037398Y0092868D02*
X0026000Y0092868D01*
X0026000Y0093866D02*
X0038396Y0093866D01*
X0039204Y0094865D02*
X0026000Y0094865D01*
X0026000Y0095863D02*
X0039617Y0095863D01*
X0040280Y0096862D02*
X0026000Y0096862D01*
X0026000Y0097860D02*
X0041583Y0097860D01*
X0042265Y0099857D02*
X0026000Y0099857D01*
X0026000Y0098859D02*
X0088389Y0098859D01*
X0089387Y0099857D02*
X0050735Y0099857D01*
X0050355Y0099700D02*
X0051936Y0100355D01*
X0053145Y0101564D01*
X0053800Y0103145D01*
X0053800Y0104855D01*
X0053145Y0106436D01*
X0052525Y0107056D01*
X0069870Y0124400D01*
X0070570Y0125100D01*
X0070615Y0125100D01*
X0072900Y0127385D01*
X0072900Y0130615D01*
X0070615Y0132900D01*
X0067385Y0132900D01*
X0065100Y0130615D01*
X0065100Y0127385D01*
X0066007Y0126477D01*
X0047830Y0108300D01*
X0042645Y0108300D01*
X0041064Y0107645D01*
X0039855Y0106436D01*
X0039200Y0104855D01*
X0039200Y0103145D01*
X0039855Y0101564D01*
X0041064Y0100355D01*
X0042645Y0099700D01*
X0050355Y0099700D01*
X0051417Y0097860D02*
X0078028Y0097860D01*
X0076246Y0096862D02*
X0052720Y0096862D01*
X0053383Y0095863D02*
X0075450Y0095863D01*
X0075037Y0094865D02*
X0053796Y0094865D01*
X0053800Y0093866D02*
X0075000Y0093866D01*
X0075148Y0092868D02*
X0070648Y0092868D01*
X0070615Y0092900D02*
X0067385Y0092900D01*
X0065100Y0090615D01*
X0065100Y0087385D01*
X0067385Y0085100D01*
X0070615Y0085100D01*
X0072900Y0087385D01*
X0072900Y0090615D01*
X0070615Y0092900D01*
X0071646Y0091869D02*
X0075561Y0091869D01*
X0076514Y0090870D02*
X0072645Y0090870D01*
X0072900Y0089872D02*
X0089402Y0089872D01*
X0088404Y0088873D02*
X0072900Y0088873D01*
X0072900Y0087875D02*
X0078064Y0087875D01*
X0076261Y0086876D02*
X0072392Y0086876D01*
X0071393Y0085878D02*
X0075457Y0085878D01*
X0075043Y0084879D02*
X0038600Y0084879D01*
X0038600Y0083881D02*
X0075000Y0083881D01*
X0075142Y0082882D02*
X0051363Y0082882D01*
X0052697Y0081884D02*
X0075555Y0081884D01*
X0076499Y0080885D02*
X0053373Y0080885D01*
X0053787Y0079887D02*
X0089417Y0079887D01*
X0090416Y0080885D02*
X0086501Y0080885D01*
X0087445Y0081884D02*
X0105555Y0081884D01*
X0105142Y0082882D02*
X0088352Y0082882D01*
X0089351Y0083881D02*
X0105000Y0083881D01*
X0105043Y0084879D02*
X0090349Y0084879D01*
X0091348Y0085878D02*
X0105457Y0085878D01*
X0106261Y0086876D02*
X0092346Y0086876D01*
X0090401Y0090870D02*
X0086486Y0090870D01*
X0087439Y0091869D02*
X0105561Y0091869D01*
X0105148Y0092868D02*
X0088337Y0092868D01*
X0089336Y0093866D02*
X0105000Y0093866D01*
X0105037Y0094865D02*
X0090334Y0094865D01*
X0091333Y0095863D02*
X0105450Y0095863D01*
X0106246Y0096862D02*
X0092331Y0096862D01*
X0090386Y0100856D02*
X0086471Y0100856D01*
X0087432Y0101854D02*
X0105568Y0101854D01*
X0105154Y0102853D02*
X0088322Y0102853D01*
X0089321Y0103851D02*
X0105000Y0103851D01*
X0105031Y0104850D02*
X0090319Y0104850D01*
X0091318Y0105848D02*
X0105444Y0105848D01*
X0106231Y0106847D02*
X0092316Y0106847D01*
X0089372Y0109842D02*
X0055312Y0109842D01*
X0054314Y0108844D02*
X0088374Y0108844D01*
X0087375Y0107845D02*
X0085008Y0107845D01*
X0086456Y0110841D02*
X0090371Y0110841D01*
X0088308Y0112838D02*
X0105160Y0112838D01*
X0105000Y0113836D02*
X0089306Y0113836D01*
X0090305Y0114835D02*
X0105024Y0114835D01*
X0105438Y0115833D02*
X0091303Y0115833D01*
X0092302Y0116832D02*
X0106216Y0116832D01*
X0105580Y0121824D02*
X0087420Y0121824D01*
X0088293Y0122823D02*
X0105166Y0122823D01*
X0105000Y0123821D02*
X0089291Y0123821D01*
X0090290Y0124820D02*
X0105018Y0124820D01*
X0105432Y0125818D02*
X0091288Y0125818D01*
X0092287Y0126817D02*
X0106201Y0126817D01*
X0105586Y0131809D02*
X0087414Y0131809D01*
X0088278Y0132808D02*
X0105172Y0132808D01*
X0105000Y0133806D02*
X0089276Y0133806D01*
X0090275Y0134805D02*
X0105012Y0134805D01*
X0105426Y0135803D02*
X0091273Y0135803D01*
X0092272Y0136802D02*
X0106187Y0136802D01*
X0105592Y0141795D02*
X0087408Y0141795D01*
X0088263Y0142793D02*
X0105179Y0142793D01*
X0105000Y0143792D02*
X0089261Y0143792D01*
X0090260Y0144790D02*
X0105006Y0144790D01*
X0105420Y0145789D02*
X0091258Y0145789D01*
X0092257Y0146787D02*
X0106172Y0146787D01*
X0090311Y0150781D02*
X0057515Y0150781D01*
X0057364Y0149783D02*
X0089313Y0149783D01*
X0088314Y0148784D02*
X0057097Y0148784D01*
X0057267Y0149137D02*
X0057267Y0149137D01*
X0056616Y0147786D02*
X0077848Y0147786D01*
X0076172Y0146787D02*
X0056136Y0146787D01*
X0055655Y0145789D02*
X0075420Y0145789D01*
X0075006Y0144790D02*
X0055174Y0144790D01*
X0054285Y0143792D02*
X0075000Y0143792D01*
X0075179Y0142793D02*
X0053359Y0142793D01*
X0052432Y0141795D02*
X0075592Y0141795D01*
X0076589Y0140796D02*
X0051261Y0140796D01*
X0051788Y0141100D02*
X0051788Y0141100D01*
X0051788Y0141100D01*
X0049532Y0139798D02*
X0089328Y0139798D01*
X0090326Y0140796D02*
X0086411Y0140796D01*
X0088329Y0138799D02*
X0047803Y0138799D01*
X0047528Y0138641D02*
X0047528Y0138641D01*
X0043848Y0137801D02*
X0077884Y0137801D01*
X0076187Y0136802D02*
X0026000Y0136802D01*
X0026000Y0135803D02*
X0075426Y0135803D01*
X0075012Y0134805D02*
X0026000Y0134805D01*
X0026000Y0133806D02*
X0075000Y0133806D01*
X0075172Y0132808D02*
X0070707Y0132808D01*
X0071706Y0131809D02*
X0075586Y0131809D01*
X0076574Y0130811D02*
X0072704Y0130811D01*
X0072900Y0129812D02*
X0089343Y0129812D01*
X0088344Y0128814D02*
X0072900Y0128814D01*
X0072900Y0127815D02*
X0077920Y0127815D01*
X0076201Y0126817D02*
X0072332Y0126817D01*
X0071334Y0125818D02*
X0075432Y0125818D01*
X0075018Y0124820D02*
X0070290Y0124820D01*
X0069291Y0123821D02*
X0075000Y0123821D01*
X0075166Y0122823D02*
X0068293Y0122823D01*
X0067294Y0121824D02*
X0075580Y0121824D01*
X0076559Y0120826D02*
X0066296Y0120826D01*
X0065297Y0119827D02*
X0089357Y0119827D01*
X0088359Y0118829D02*
X0064299Y0118829D01*
X0063300Y0117830D02*
X0077956Y0117830D01*
X0076216Y0116832D02*
X0062302Y0116832D01*
X0061303Y0115833D02*
X0075438Y0115833D01*
X0075024Y0114835D02*
X0060305Y0114835D01*
X0059306Y0113836D02*
X0075000Y0113836D01*
X0075160Y0112838D02*
X0058308Y0112838D01*
X0057309Y0111839D02*
X0075574Y0111839D01*
X0076544Y0110841D02*
X0056311Y0110841D01*
X0053366Y0113836D02*
X0026000Y0113836D01*
X0026000Y0112838D02*
X0052368Y0112838D01*
X0051369Y0111839D02*
X0026000Y0111839D01*
X0026000Y0110841D02*
X0050371Y0110841D01*
X0049372Y0109842D02*
X0026000Y0109842D01*
X0026000Y0108844D02*
X0048374Y0108844D01*
X0052734Y0106847D02*
X0076231Y0106847D01*
X0075444Y0105848D02*
X0053389Y0105848D01*
X0053800Y0104850D02*
X0075031Y0104850D01*
X0075000Y0103851D02*
X0053800Y0103851D01*
X0053679Y0102853D02*
X0075154Y0102853D01*
X0075568Y0101854D02*
X0053265Y0101854D01*
X0052437Y0100856D02*
X0076529Y0100856D01*
X0077992Y0107845D02*
X0053315Y0107845D01*
X0054365Y0114835D02*
X0050681Y0114835D01*
X0050355Y0114700D02*
X0051936Y0115355D01*
X0053145Y0116564D01*
X0053800Y0118145D01*
X0053800Y0119855D01*
X0053145Y0121436D01*
X0051936Y0122645D01*
X0050355Y0123300D01*
X0042645Y0123300D01*
X0041064Y0122645D01*
X0039855Y0121436D01*
X0039200Y0119855D01*
X0039200Y0118145D01*
X0039855Y0116564D01*
X0041064Y0115355D01*
X0042645Y0114700D01*
X0050355Y0114700D01*
X0052414Y0115833D02*
X0055363Y0115833D01*
X0056362Y0116832D02*
X0053256Y0116832D01*
X0053670Y0117830D02*
X0057360Y0117830D01*
X0058359Y0118829D02*
X0053800Y0118829D01*
X0053800Y0119827D02*
X0059357Y0119827D01*
X0060356Y0120826D02*
X0053398Y0120826D01*
X0052757Y0121824D02*
X0061355Y0121824D01*
X0062353Y0122823D02*
X0051507Y0122823D01*
X0050645Y0124820D02*
X0064350Y0124820D01*
X0065349Y0125818D02*
X0061334Y0125818D01*
X0060615Y0125100D02*
X0062900Y0127385D01*
X0062900Y0130615D01*
X0060615Y0132900D01*
X0057385Y0132900D01*
X0055585Y0131100D01*
X0053284Y0131100D01*
X0053145Y0131436D01*
X0051936Y0132645D01*
X0050355Y0133300D01*
X0042645Y0133300D01*
X0041064Y0132645D01*
X0039855Y0131436D01*
X0039200Y0129855D01*
X0039200Y0128145D01*
X0039855Y0126564D01*
X0041064Y0125355D01*
X0042645Y0124700D01*
X0050355Y0124700D01*
X0051936Y0125355D01*
X0053145Y0126564D01*
X0053284Y0126900D01*
X0055585Y0126900D01*
X0057385Y0125100D01*
X0060615Y0125100D01*
X0062332Y0126817D02*
X0065668Y0126817D01*
X0065100Y0127815D02*
X0062900Y0127815D01*
X0062900Y0128814D02*
X0065100Y0128814D01*
X0065100Y0129812D02*
X0062900Y0129812D01*
X0062704Y0130811D02*
X0065296Y0130811D01*
X0066294Y0131809D02*
X0061706Y0131809D01*
X0060707Y0132808D02*
X0067293Y0132808D01*
X0063352Y0123821D02*
X0026000Y0123821D01*
X0026000Y0122823D02*
X0041493Y0122823D01*
X0040243Y0121824D02*
X0026000Y0121824D01*
X0026000Y0120826D02*
X0039602Y0120826D01*
X0039200Y0119827D02*
X0026000Y0119827D01*
X0026000Y0118829D02*
X0039200Y0118829D01*
X0039330Y0117830D02*
X0026000Y0117830D01*
X0026000Y0116832D02*
X0039744Y0116832D01*
X0040586Y0115833D02*
X0026000Y0115833D01*
X0026000Y0114835D02*
X0042319Y0114835D01*
X0041547Y0107845D02*
X0026000Y0107845D01*
X0026000Y0106847D02*
X0040266Y0106847D01*
X0039611Y0105848D02*
X0026000Y0105848D01*
X0026000Y0104850D02*
X0039200Y0104850D01*
X0039200Y0103851D02*
X0026000Y0103851D01*
X0026000Y0102853D02*
X0039321Y0102853D01*
X0039735Y0101854D02*
X0026000Y0101854D01*
X0026000Y0100856D02*
X0040563Y0100856D01*
X0040342Y0089872D02*
X0042229Y0089872D01*
X0039343Y0088873D02*
X0055100Y0088873D01*
X0055100Y0087875D02*
X0038600Y0087875D01*
X0038600Y0086876D02*
X0055608Y0086876D01*
X0055100Y0087385D02*
X0057385Y0085100D01*
X0060615Y0085100D01*
X0062900Y0087385D01*
X0062900Y0090615D01*
X0060615Y0092900D01*
X0057385Y0092900D01*
X0055100Y0090615D01*
X0055100Y0087385D01*
X0056607Y0085878D02*
X0038600Y0085878D01*
X0038600Y0082882D02*
X0041637Y0082882D01*
X0040303Y0081884D02*
X0038600Y0081884D01*
X0038600Y0080885D02*
X0039627Y0080885D01*
X0039213Y0079887D02*
X0038600Y0079887D01*
X0038600Y0078888D02*
X0039200Y0078888D01*
X0039306Y0077890D02*
X0038600Y0077890D01*
X0038600Y0076891D02*
X0039719Y0076891D01*
X0040526Y0075893D02*
X0038600Y0075893D01*
X0050824Y0074894D02*
X0075049Y0074894D01*
X0075463Y0075893D02*
X0052474Y0075893D01*
X0053281Y0076891D02*
X0076276Y0076891D01*
X0078100Y0077890D02*
X0053694Y0077890D01*
X0053800Y0078888D02*
X0088419Y0078888D01*
X0087420Y0077890D02*
X0084900Y0077890D01*
X0084936Y0087875D02*
X0087405Y0087875D01*
X0087390Y0097860D02*
X0084972Y0097860D01*
X0087426Y0111839D02*
X0105574Y0111839D01*
X0090356Y0120826D02*
X0086441Y0120826D01*
X0087360Y0117830D02*
X0085044Y0117830D01*
X0085080Y0127815D02*
X0087346Y0127815D01*
X0086426Y0130811D02*
X0090341Y0130811D01*
X0087331Y0137801D02*
X0085116Y0137801D01*
X0085152Y0147786D02*
X0087316Y0147786D01*
X0057665Y0151780D02*
X0157684Y0151780D01*
X0157684Y0152778D02*
X0057816Y0152778D01*
X0057966Y0153777D02*
X0157684Y0153777D01*
X0157684Y0154775D02*
X0057883Y0154775D01*
X0057733Y0155774D02*
X0157684Y0155774D01*
X0157781Y0156772D02*
X0057582Y0156772D01*
X0057432Y0157771D02*
X0158089Y0157771D01*
X0158397Y0158769D02*
X0057281Y0158769D01*
X0056831Y0159768D02*
X0158705Y0159768D01*
X0159013Y0160766D02*
X0056351Y0160766D01*
X0055870Y0161765D02*
X0159547Y0161765D01*
X0159134Y0161159D02*
X0159134Y0161159D01*
X0160228Y0162763D02*
X0055389Y0162763D01*
X0055133Y0163295D02*
X0055133Y0163295D01*
X0054700Y0163762D02*
X0160909Y0163762D01*
X0161589Y0164760D02*
X0053773Y0164760D01*
X0052847Y0165759D02*
X0162577Y0165759D01*
X0161905Y0165223D02*
X0161905Y0165223D01*
X0163829Y0166757D02*
X0051920Y0166757D01*
X0050306Y0167756D02*
X0165081Y0167756D01*
X0165750Y0168289D02*
X0165750Y0168289D01*
X0166935Y0168754D02*
X0048576Y0168754D01*
X0047528Y0169359D02*
X0047528Y0169359D01*
X0026035Y0148784D02*
X0026000Y0148784D01*
X0026000Y0147786D02*
X0026343Y0147786D01*
X0026671Y0146787D02*
X0026000Y0146787D01*
X0026000Y0145789D02*
X0027351Y0145789D01*
X0028032Y0144790D02*
X0026000Y0144790D01*
X0026000Y0143792D02*
X0028713Y0143792D01*
X0029394Y0142793D02*
X0026000Y0142793D01*
X0026000Y0141795D02*
X0030637Y0141795D01*
X0029405Y0142777D02*
X0029405Y0142777D01*
X0029405Y0142777D01*
X0031889Y0140796D02*
X0026000Y0140796D01*
X0026000Y0139798D02*
X0033141Y0139798D01*
X0033250Y0139711D02*
X0033250Y0139711D01*
X0035573Y0138799D02*
X0026000Y0138799D01*
X0026000Y0137801D02*
X0039339Y0137801D01*
X0042733Y0137546D02*
X0042733Y0137546D01*
X0041457Y0132808D02*
X0026000Y0132808D01*
X0026000Y0131809D02*
X0040228Y0131809D01*
X0039596Y0130811D02*
X0026000Y0130811D01*
X0026000Y0129812D02*
X0039200Y0129812D01*
X0039200Y0128814D02*
X0026000Y0128814D01*
X0026000Y0127815D02*
X0039336Y0127815D01*
X0039750Y0126817D02*
X0026000Y0126817D01*
X0026000Y0125818D02*
X0040600Y0125818D01*
X0042355Y0124820D02*
X0026000Y0124820D01*
X0052399Y0125818D02*
X0056666Y0125818D01*
X0055668Y0126817D02*
X0053250Y0126817D01*
X0052772Y0131809D02*
X0056294Y0131809D01*
X0057293Y0132808D02*
X0051543Y0132808D01*
X0053685Y0092868D02*
X0057352Y0092868D01*
X0056354Y0091869D02*
X0053272Y0091869D01*
X0052452Y0090870D02*
X0055355Y0090870D01*
X0055100Y0089872D02*
X0050770Y0089872D01*
X0060648Y0092868D02*
X0067352Y0092868D01*
X0066354Y0091869D02*
X0061646Y0091869D01*
X0062645Y0090870D02*
X0065355Y0090870D01*
X0065100Y0089872D02*
X0062900Y0089872D01*
X0062900Y0088873D02*
X0065100Y0088873D01*
X0065100Y0087875D02*
X0062900Y0087875D01*
X0062392Y0086876D02*
X0065608Y0086876D01*
X0066607Y0085878D02*
X0061393Y0085878D01*
X0053800Y0068903D02*
X0153433Y0068903D01*
X0154400Y0069902D02*
X0150842Y0069902D01*
X0152481Y0070900D02*
X0154400Y0070900D01*
X0154400Y0071899D02*
X0153284Y0071899D01*
X0153698Y0072897D02*
X0154400Y0072897D01*
X0154400Y0073896D02*
X0153800Y0073896D01*
X0153784Y0074894D02*
X0154400Y0074894D01*
X0154400Y0075893D02*
X0153370Y0075893D01*
X0152690Y0076891D02*
X0154400Y0076891D01*
X0154400Y0077890D02*
X0151346Y0077890D01*
X0150806Y0079887D02*
X0154400Y0079887D01*
X0154400Y0080885D02*
X0152466Y0080885D01*
X0153278Y0081884D02*
X0154400Y0081884D01*
X0154400Y0082882D02*
X0153691Y0082882D01*
X0153800Y0083881D02*
X0154400Y0083881D01*
X0154400Y0084879D02*
X0153790Y0084879D01*
X0153376Y0085878D02*
X0154400Y0085878D01*
X0154400Y0086876D02*
X0152705Y0086876D01*
X0151381Y0087875D02*
X0154400Y0087875D01*
X0154400Y0088873D02*
X0139596Y0088873D01*
X0140595Y0087875D02*
X0141619Y0087875D01*
X0142229Y0089872D02*
X0138598Y0089872D01*
X0137599Y0090870D02*
X0140548Y0090870D01*
X0139728Y0091869D02*
X0133272Y0091869D01*
X0133685Y0092868D02*
X0139315Y0092868D01*
X0138664Y0093866D02*
X0133800Y0093866D01*
X0133796Y0094865D02*
X0137666Y0094865D01*
X0136667Y0095863D02*
X0133383Y0095863D01*
X0132720Y0096862D02*
X0135669Y0096862D01*
X0138613Y0099857D02*
X0142265Y0099857D01*
X0140563Y0100856D02*
X0137614Y0100856D01*
X0139735Y0101854D02*
X0133265Y0101854D01*
X0133679Y0102853D02*
X0139321Y0102853D01*
X0138679Y0103851D02*
X0133800Y0103851D01*
X0133800Y0104850D02*
X0137680Y0104850D01*
X0136682Y0105848D02*
X0133389Y0105848D01*
X0132734Y0106847D02*
X0135683Y0106847D01*
X0138628Y0109842D02*
X0142301Y0109842D01*
X0140578Y0110841D02*
X0137629Y0110841D01*
X0139741Y0111839D02*
X0133259Y0111839D01*
X0133673Y0112838D02*
X0139327Y0112838D01*
X0138694Y0113836D02*
X0133800Y0113836D01*
X0133800Y0114835D02*
X0137695Y0114835D01*
X0136697Y0115833D02*
X0133395Y0115833D01*
X0132749Y0116832D02*
X0135698Y0116832D01*
X0138643Y0119827D02*
X0142337Y0119827D01*
X0140593Y0120826D02*
X0137644Y0120826D01*
X0139747Y0121824D02*
X0133253Y0121824D01*
X0133667Y0122823D02*
X0139333Y0122823D01*
X0138709Y0123821D02*
X0133800Y0123821D01*
X0133800Y0124820D02*
X0137710Y0124820D01*
X0136712Y0125818D02*
X0133401Y0125818D01*
X0132764Y0126817D02*
X0135713Y0126817D01*
X0138657Y0129812D02*
X0142373Y0129812D01*
X0140608Y0130811D02*
X0137659Y0130811D01*
X0139753Y0131809D02*
X0133247Y0131809D01*
X0133661Y0132808D02*
X0139339Y0132808D01*
X0138724Y0133806D02*
X0133800Y0133806D01*
X0133800Y0134805D02*
X0137725Y0134805D01*
X0136727Y0135803D02*
X0133407Y0135803D01*
X0132779Y0136802D02*
X0135728Y0136802D01*
X0138672Y0139798D02*
X0142409Y0139798D01*
X0140623Y0140796D02*
X0137674Y0140796D01*
X0139759Y0141795D02*
X0133241Y0141795D01*
X0133654Y0142793D02*
X0139346Y0142793D01*
X0138739Y0143792D02*
X0133800Y0143792D01*
X0133800Y0144790D02*
X0137740Y0144790D01*
X0136742Y0145789D02*
X0133413Y0145789D01*
X0132794Y0146787D02*
X0135743Y0146787D01*
X0138687Y0149783D02*
X0158227Y0149783D01*
X0157919Y0150781D02*
X0137689Y0150781D01*
X0139686Y0148784D02*
X0158535Y0148784D01*
X0158843Y0147786D02*
X0151597Y0147786D01*
X0152794Y0146787D02*
X0159171Y0146787D01*
X0159851Y0145789D02*
X0153413Y0145789D01*
X0153800Y0144790D02*
X0160532Y0144790D01*
X0161213Y0143792D02*
X0153800Y0143792D01*
X0153654Y0142793D02*
X0161894Y0142793D01*
X0161905Y0142777D02*
X0161905Y0142777D01*
X0161905Y0142777D01*
X0163137Y0141795D02*
X0153241Y0141795D01*
X0152377Y0140796D02*
X0164389Y0140796D01*
X0165641Y0139798D02*
X0150591Y0139798D01*
X0151561Y0137801D02*
X0171839Y0137801D01*
X0168073Y0138799D02*
X0139671Y0138799D01*
X0140669Y0137801D02*
X0141439Y0137801D01*
X0139656Y0128814D02*
X0161700Y0128814D01*
X0161700Y0128145D02*
X0162355Y0126564D01*
X0163564Y0125355D01*
X0165145Y0124700D01*
X0172855Y0124700D01*
X0174436Y0125355D01*
X0175645Y0126564D01*
X0176300Y0128145D01*
X0176300Y0129855D01*
X0175645Y0131436D01*
X0174436Y0132645D01*
X0172855Y0133300D01*
X0165145Y0133300D01*
X0163564Y0132645D01*
X0162355Y0131436D01*
X0161700Y0129855D01*
X0161700Y0128145D01*
X0161836Y0127815D02*
X0151525Y0127815D01*
X0152764Y0126817D02*
X0162250Y0126817D01*
X0163100Y0125818D02*
X0153401Y0125818D01*
X0153800Y0124820D02*
X0164855Y0124820D01*
X0163993Y0122823D02*
X0153667Y0122823D01*
X0153800Y0123821D02*
X0188201Y0123821D01*
X0188201Y0122823D02*
X0174007Y0122823D01*
X0175257Y0121824D02*
X0188201Y0121824D01*
X0188201Y0120826D02*
X0175898Y0120826D01*
X0176300Y0119827D02*
X0188201Y0119827D01*
X0188201Y0118829D02*
X0176300Y0118829D01*
X0176170Y0117830D02*
X0188201Y0117830D01*
X0188201Y0116832D02*
X0175756Y0116832D01*
X0174914Y0115833D02*
X0188201Y0115833D01*
X0188201Y0114835D02*
X0173181Y0114835D01*
X0166806Y0113836D02*
X0188201Y0113836D01*
X0188201Y0112838D02*
X0165808Y0112838D01*
X0164809Y0111839D02*
X0188201Y0111839D01*
X0188201Y0110841D02*
X0163811Y0110841D01*
X0162812Y0109842D02*
X0188201Y0109842D01*
X0188201Y0108844D02*
X0161814Y0108844D01*
X0160815Y0107845D02*
X0163637Y0107845D01*
X0163641Y0107849D02*
X0163068Y0107432D01*
X0162568Y0106932D01*
X0162151Y0106359D01*
X0161830Y0105727D01*
X0161611Y0105054D01*
X0161523Y0104500D01*
X0168500Y0104500D01*
X0168500Y0108500D01*
X0165646Y0108500D01*
X0164946Y0108389D01*
X0164273Y0108170D01*
X0163641Y0107849D01*
X0162506Y0106847D02*
X0159816Y0106847D01*
X0158818Y0105848D02*
X0161891Y0105848D01*
X0161578Y0104850D02*
X0158600Y0104850D01*
X0158600Y0103851D02*
X0168500Y0103851D01*
X0168500Y0103500D02*
X0168500Y0104500D01*
X0169500Y0104500D01*
X0169500Y0108500D01*
X0172354Y0108500D01*
X0173054Y0108389D01*
X0173727Y0108170D01*
X0174359Y0107849D01*
X0174932Y0107432D01*
X0175432Y0106932D01*
X0175849Y0106359D01*
X0176170Y0105727D01*
X0176389Y0105054D01*
X0176477Y0104500D01*
X0169500Y0104500D01*
X0169500Y0103500D01*
X0176477Y0103500D01*
X0176389Y0102946D01*
X0176170Y0102273D01*
X0175849Y0101641D01*
X0175432Y0101068D01*
X0174932Y0100568D01*
X0174359Y0100151D01*
X0173727Y0099830D01*
X0173054Y0099611D01*
X0172354Y0099500D01*
X0169500Y0099500D01*
X0169500Y0103500D01*
X0168500Y0103500D01*
X0168500Y0099500D01*
X0165646Y0099500D01*
X0164946Y0099611D01*
X0164273Y0099830D01*
X0163641Y0100151D01*
X0163068Y0100568D01*
X0162568Y0101068D01*
X0162151Y0101641D01*
X0161830Y0102273D01*
X0161611Y0102946D01*
X0161523Y0103500D01*
X0168500Y0103500D01*
X0168500Y0102853D02*
X0169500Y0102853D01*
X0169500Y0103851D02*
X0188201Y0103851D01*
X0188201Y0102853D02*
X0176359Y0102853D01*
X0175957Y0101854D02*
X0188201Y0101854D01*
X0188201Y0100856D02*
X0175220Y0100856D01*
X0173781Y0099857D02*
X0188201Y0099857D01*
X0188201Y0098859D02*
X0158600Y0098859D01*
X0158600Y0099857D02*
X0164219Y0099857D01*
X0164946Y0098389D02*
X0164273Y0098170D01*
X0163641Y0097849D01*
X0163068Y0097432D01*
X0162568Y0096932D01*
X0162151Y0096359D01*
X0161830Y0095727D01*
X0161611Y0095054D01*
X0161523Y0094500D01*
X0168500Y0094500D01*
X0168500Y0098500D01*
X0165646Y0098500D01*
X0164946Y0098389D01*
X0163664Y0097860D02*
X0158600Y0097860D01*
X0158600Y0096862D02*
X0162517Y0096862D01*
X0161899Y0095863D02*
X0158600Y0095863D01*
X0158600Y0094865D02*
X0161581Y0094865D01*
X0161523Y0093500D02*
X0161611Y0092946D01*
X0161830Y0092273D01*
X0162151Y0091641D01*
X0162568Y0091068D01*
X0163068Y0090568D01*
X0163641Y0090151D01*
X0164273Y0089830D01*
X0164946Y0089611D01*
X0165646Y0089500D01*
X0168500Y0089500D01*
X0168500Y0093500D01*
X0169500Y0093500D01*
X0169500Y0094500D01*
X0168500Y0094500D01*
X0168500Y0093500D01*
X0161523Y0093500D01*
X0161636Y0092868D02*
X0158600Y0092868D01*
X0158600Y0093866D02*
X0168500Y0093866D01*
X0168500Y0092868D02*
X0169500Y0092868D01*
X0169500Y0093500D02*
X0169500Y0089500D01*
X0172354Y0089500D01*
X0173054Y0089611D01*
X0173727Y0089830D01*
X0174359Y0090151D01*
X0174932Y0090568D01*
X0175432Y0091068D01*
X0175849Y0091641D01*
X0176170Y0092273D01*
X0176389Y0092946D01*
X0176477Y0093500D01*
X0169500Y0093500D01*
X0169500Y0093866D02*
X0188201Y0093866D01*
X0188201Y0092868D02*
X0176364Y0092868D01*
X0175965Y0091869D02*
X0188201Y0091869D01*
X0188201Y0090870D02*
X0175234Y0090870D01*
X0173810Y0089872D02*
X0188201Y0089872D01*
X0188201Y0088873D02*
X0158600Y0088873D01*
X0158600Y0087875D02*
X0188201Y0087875D01*
X0188201Y0086876D02*
X0158600Y0086876D01*
X0158600Y0085878D02*
X0188201Y0085878D01*
X0188201Y0084879D02*
X0158600Y0084879D01*
X0158600Y0083881D02*
X0188201Y0083881D01*
X0188201Y0082882D02*
X0173863Y0082882D01*
X0174436Y0082645D02*
X0172855Y0083300D01*
X0165145Y0083300D01*
X0163564Y0082645D01*
X0162355Y0081436D01*
X0161700Y0079855D01*
X0161700Y0078145D01*
X0162355Y0076564D01*
X0163564Y0075355D01*
X0165145Y0074700D01*
X0172855Y0074700D01*
X0174436Y0075355D01*
X0175645Y0076564D01*
X0176300Y0078145D01*
X0176300Y0079855D01*
X0175645Y0081436D01*
X0174436Y0082645D01*
X0175197Y0081884D02*
X0188201Y0081884D01*
X0188201Y0080885D02*
X0175873Y0080885D01*
X0176287Y0079887D02*
X0188201Y0079887D01*
X0188201Y0078888D02*
X0176300Y0078888D01*
X0176194Y0077890D02*
X0188201Y0077890D01*
X0188201Y0076891D02*
X0175781Y0076891D01*
X0174974Y0075893D02*
X0188201Y0075893D01*
X0188201Y0074894D02*
X0173324Y0074894D01*
X0173828Y0072897D02*
X0188201Y0072897D01*
X0188201Y0071899D02*
X0175182Y0071899D01*
X0175867Y0070900D02*
X0188201Y0070900D01*
X0188201Y0069902D02*
X0176281Y0069902D01*
X0176300Y0068903D02*
X0188201Y0068903D01*
X0188201Y0067905D02*
X0176201Y0067905D01*
X0175787Y0066906D02*
X0188201Y0066906D01*
X0188201Y0065908D02*
X0174989Y0065908D01*
X0173360Y0064909D02*
X0188201Y0064909D01*
X0188201Y0063911D02*
X0161881Y0063911D01*
X0162879Y0064909D02*
X0164640Y0064909D01*
X0164208Y0062912D02*
X0160882Y0062912D01*
X0159884Y0061914D02*
X0162833Y0061914D01*
X0162139Y0060915D02*
X0158885Y0060915D01*
X0157886Y0059917D02*
X0161725Y0059917D01*
X0160948Y0058918D02*
X0156888Y0058918D01*
X0156100Y0057920D02*
X0159950Y0057920D01*
X0158951Y0056921D02*
X0156100Y0056921D01*
X0156100Y0055923D02*
X0157953Y0055923D01*
X0156954Y0054924D02*
X0156100Y0054924D01*
X0156100Y0053926D02*
X0156900Y0053926D01*
X0156900Y0052927D02*
X0156100Y0052927D01*
X0156100Y0051929D02*
X0156900Y0051929D01*
X0156900Y0050930D02*
X0156100Y0050930D01*
X0156100Y0049932D02*
X0156900Y0049932D01*
X0156900Y0048933D02*
X0156100Y0048933D01*
X0156100Y0047934D02*
X0156900Y0047934D01*
X0156900Y0046936D02*
X0156100Y0046936D01*
X0156100Y0045937D02*
X0156900Y0045937D01*
X0156900Y0044939D02*
X0156100Y0044939D01*
X0156100Y0043940D02*
X0156900Y0043940D01*
X0156900Y0042942D02*
X0156100Y0042942D01*
X0156100Y0041943D02*
X0156900Y0041943D01*
X0156900Y0040945D02*
X0156100Y0040945D01*
X0155416Y0039946D02*
X0156900Y0039946D01*
X0156900Y0038948D02*
X0154418Y0038948D01*
X0153419Y0037949D02*
X0156900Y0037949D01*
X0156481Y0036951D02*
X0152421Y0036951D01*
X0150629Y0035952D02*
X0155483Y0035952D01*
X0154484Y0034954D02*
X0150800Y0034954D01*
X0150800Y0033955D02*
X0153486Y0033955D01*
X0152487Y0032957D02*
X0150800Y0032957D01*
X0150539Y0031958D02*
X0151488Y0031958D01*
X0154433Y0028963D02*
X0158457Y0028963D01*
X0158765Y0029961D02*
X0155431Y0029961D01*
X0156430Y0030960D02*
X0159073Y0030960D01*
X0159679Y0031958D02*
X0157428Y0031958D01*
X0158427Y0032957D02*
X0160360Y0032957D01*
X0161040Y0033955D02*
X0159425Y0033955D01*
X0159870Y0034400D02*
X0159870Y0034400D01*
X0160424Y0034954D02*
X0161721Y0034954D01*
X0161905Y0035223D02*
X0161905Y0035223D01*
X0161100Y0035952D02*
X0162819Y0035952D01*
X0164072Y0036951D02*
X0161100Y0036951D01*
X0161100Y0037949D02*
X0165324Y0037949D01*
X0167428Y0038948D02*
X0161100Y0038948D01*
X0161100Y0039946D02*
X0169972Y0039946D01*
X0170328Y0040086D02*
X0170328Y0040086D01*
X0175233Y0040454D02*
X0175233Y0040454D01*
X0177456Y0039946D02*
X0188201Y0039946D01*
X0188201Y0038948D02*
X0180741Y0038948D01*
X0180028Y0039359D02*
X0180028Y0039359D01*
X0182470Y0037949D02*
X0188201Y0037949D01*
X0188201Y0036951D02*
X0184200Y0036951D01*
X0185167Y0035952D02*
X0188201Y0035952D01*
X0188201Y0034954D02*
X0186094Y0034954D01*
X0187020Y0033955D02*
X0188201Y0033955D01*
X0187633Y0033295D02*
X0187633Y0033295D01*
X0187796Y0032957D02*
X0188201Y0032957D01*
X0188201Y0040945D02*
X0161100Y0040945D01*
X0161100Y0041943D02*
X0188201Y0041943D01*
X0188201Y0042942D02*
X0161100Y0042942D01*
X0161100Y0043940D02*
X0188201Y0043940D01*
X0188201Y0044939D02*
X0173942Y0044939D01*
X0173727Y0044830D02*
X0174359Y0045151D01*
X0174932Y0045568D01*
X0175432Y0046068D01*
X0175849Y0046641D01*
X0176170Y0047273D01*
X0176389Y0047946D01*
X0176477Y0048500D01*
X0169500Y0048500D01*
X0169500Y0049500D01*
X0168500Y0049500D01*
X0168500Y0053500D01*
X0165646Y0053500D01*
X0164946Y0053389D01*
X0164273Y0053170D01*
X0163641Y0052849D01*
X0163068Y0052432D01*
X0162568Y0051932D01*
X0162151Y0051359D01*
X0161830Y0050727D01*
X0161611Y0050054D01*
X0161523Y0049500D01*
X0168500Y0049500D01*
X0168500Y0048500D01*
X0169500Y0048500D01*
X0169500Y0044500D01*
X0172354Y0044500D01*
X0173054Y0044611D01*
X0173727Y0044830D01*
X0175301Y0045937D02*
X0188201Y0045937D01*
X0188201Y0046936D02*
X0175999Y0046936D01*
X0176385Y0047934D02*
X0188201Y0047934D01*
X0188201Y0048933D02*
X0169500Y0048933D01*
X0169500Y0049500D02*
X0176477Y0049500D01*
X0176389Y0050054D01*
X0176170Y0050727D01*
X0175849Y0051359D01*
X0175432Y0051932D01*
X0174932Y0052432D01*
X0174359Y0052849D01*
X0173727Y0053170D01*
X0173054Y0053389D01*
X0172354Y0053500D01*
X0169500Y0053500D01*
X0169500Y0049500D01*
X0169500Y0049932D02*
X0168500Y0049932D01*
X0168500Y0050930D02*
X0169500Y0050930D01*
X0169500Y0051929D02*
X0168500Y0051929D01*
X0168500Y0052927D02*
X0169500Y0052927D01*
X0173396Y0054924D02*
X0188201Y0054924D01*
X0188201Y0053926D02*
X0161895Y0053926D01*
X0161100Y0052927D02*
X0163795Y0052927D01*
X0162565Y0051929D02*
X0161100Y0051929D01*
X0161100Y0050930D02*
X0161933Y0050930D01*
X0161591Y0049932D02*
X0161100Y0049932D01*
X0161100Y0048933D02*
X0168500Y0048933D01*
X0168500Y0048500D02*
X0161523Y0048500D01*
X0161611Y0047946D01*
X0161830Y0047273D01*
X0162151Y0046641D01*
X0162568Y0046068D01*
X0163068Y0045568D01*
X0163641Y0045151D01*
X0164273Y0044830D01*
X0164946Y0044611D01*
X0165646Y0044500D01*
X0168500Y0044500D01*
X0168500Y0048500D01*
X0168500Y0047934D02*
X0169500Y0047934D01*
X0169500Y0046936D02*
X0168500Y0046936D01*
X0168500Y0045937D02*
X0169500Y0045937D01*
X0169500Y0044939D02*
X0168500Y0044939D01*
X0164058Y0044939D02*
X0161100Y0044939D01*
X0161100Y0045937D02*
X0162699Y0045937D01*
X0162001Y0046936D02*
X0161100Y0046936D01*
X0161100Y0047934D02*
X0161615Y0047934D01*
X0162894Y0054924D02*
X0164604Y0054924D01*
X0173792Y0062912D02*
X0188201Y0062912D01*
X0188201Y0061914D02*
X0175167Y0061914D01*
X0175861Y0060915D02*
X0188201Y0060915D01*
X0188201Y0059917D02*
X0176275Y0059917D01*
X0176300Y0058918D02*
X0188201Y0058918D01*
X0188201Y0057920D02*
X0176207Y0057920D01*
X0175793Y0056921D02*
X0188201Y0056921D01*
X0188201Y0055923D02*
X0175004Y0055923D01*
X0174205Y0052927D02*
X0188201Y0052927D01*
X0188201Y0051929D02*
X0175435Y0051929D01*
X0176067Y0050930D02*
X0188201Y0050930D01*
X0188201Y0049932D02*
X0176409Y0049932D01*
X0157938Y0065908D02*
X0156378Y0065908D01*
X0156939Y0064909D02*
X0155379Y0064909D01*
X0155941Y0063911D02*
X0154381Y0063911D01*
X0154942Y0062912D02*
X0153382Y0062912D01*
X0153944Y0061914D02*
X0152384Y0061914D01*
X0152945Y0060915D02*
X0151385Y0060915D01*
X0151947Y0059917D02*
X0150386Y0059917D01*
X0147442Y0062912D02*
X0117871Y0062912D01*
X0118000Y0063911D02*
X0148441Y0063911D01*
X0149439Y0064909D02*
X0117945Y0064909D01*
X0117531Y0065908D02*
X0150438Y0065908D01*
X0151436Y0066906D02*
X0116709Y0066906D01*
X0117457Y0061914D02*
X0146444Y0061914D01*
X0145445Y0060915D02*
X0116531Y0060915D01*
X0116694Y0056921D02*
X0141451Y0056921D01*
X0144447Y0059917D02*
X0072900Y0059917D01*
X0072600Y0060915D02*
X0076469Y0060915D01*
X0081200Y0057920D02*
X0081800Y0057920D01*
X0081800Y0056921D02*
X0081200Y0056921D01*
X0081200Y0055923D02*
X0081800Y0055923D01*
X0081800Y0054924D02*
X0081200Y0054924D01*
X0081200Y0052927D02*
X0081800Y0052927D01*
X0081800Y0051929D02*
X0081200Y0051929D01*
X0081200Y0050930D02*
X0081800Y0050930D01*
X0081800Y0049932D02*
X0081200Y0049932D01*
X0086679Y0046936D02*
X0106321Y0046936D01*
X0117519Y0045937D02*
X0122356Y0045937D01*
X0122200Y0044939D02*
X0117932Y0044939D01*
X0118000Y0043940D02*
X0122200Y0043940D01*
X0122200Y0042942D02*
X0117883Y0042942D01*
X0117469Y0041943D02*
X0122475Y0041943D01*
X0129645Y0046936D02*
X0133355Y0046936D01*
X0134353Y0047934D02*
X0128647Y0047934D01*
X0130644Y0045937D02*
X0132356Y0045937D01*
X0132200Y0044939D02*
X0130800Y0044939D01*
X0130800Y0043940D02*
X0132200Y0043940D01*
X0132200Y0042942D02*
X0130800Y0042942D01*
X0130525Y0041943D02*
X0132475Y0041943D01*
X0140525Y0041943D02*
X0142475Y0041943D01*
X0142200Y0042942D02*
X0140800Y0042942D01*
X0140800Y0043940D02*
X0142200Y0043940D01*
X0142200Y0044939D02*
X0140800Y0044939D01*
X0140644Y0045937D02*
X0142356Y0045937D01*
X0143355Y0046936D02*
X0139645Y0046936D01*
X0138647Y0047934D02*
X0144353Y0047934D01*
X0148647Y0047934D02*
X0151900Y0047934D01*
X0151900Y0046936D02*
X0149645Y0046936D01*
X0150644Y0045937D02*
X0151900Y0045937D01*
X0151900Y0044939D02*
X0150800Y0044939D01*
X0150800Y0043940D02*
X0151900Y0043940D01*
X0151900Y0042942D02*
X0150800Y0042942D01*
X0150525Y0041943D02*
X0151474Y0041943D01*
X0153434Y0027964D02*
X0158149Y0027964D01*
X0157841Y0026966D02*
X0152436Y0026966D01*
X0150897Y0025967D02*
X0157684Y0025967D01*
X0157684Y0026459D02*
X0157684Y0026459D01*
X0157684Y0024969D02*
X0151000Y0024969D01*
X0151000Y0023500D02*
X0147000Y0023500D01*
X0147000Y0019500D01*
X0148364Y0019500D01*
X0151000Y0022136D01*
X0151000Y0023500D01*
X0151000Y0022972D02*
X0157684Y0022972D01*
X0157684Y0023970D02*
X0147000Y0023970D01*
X0147000Y0022972D02*
X0146000Y0022972D01*
X0146000Y0023500D02*
X0146000Y0019500D01*
X0144636Y0019500D01*
X0142000Y0022136D01*
X0142000Y0023500D01*
X0146000Y0023500D01*
X0146000Y0023970D02*
X0137000Y0023970D01*
X0137000Y0023500D02*
X0137000Y0024500D01*
X0136000Y0024500D01*
X0136000Y0023500D01*
X0137000Y0023500D01*
X0141000Y0023500D01*
X0141000Y0022136D01*
X0138364Y0019500D01*
X0137000Y0019500D01*
X0137000Y0023500D01*
X0137000Y0022972D02*
X0136000Y0022972D01*
X0136000Y0023500D02*
X0136000Y0019500D01*
X0134636Y0019500D01*
X0132000Y0022136D01*
X0132000Y0023500D01*
X0136000Y0023500D01*
X0136000Y0023970D02*
X0127000Y0023970D01*
X0127000Y0023500D02*
X0131000Y0023500D01*
X0131000Y0022136D01*
X0128364Y0019500D01*
X0127000Y0019500D01*
X0127000Y0023500D01*
X0127000Y0022972D02*
X0126000Y0022972D01*
X0126000Y0023500D02*
X0126000Y0019500D01*
X0124636Y0019500D01*
X0122000Y0022136D01*
X0122000Y0023500D01*
X0126000Y0023500D01*
X0126000Y0023970D02*
X0118000Y0023970D01*
X0117920Y0024969D02*
X0122000Y0024969D01*
X0122103Y0025967D02*
X0117506Y0025967D01*
X0117895Y0022972D02*
X0122000Y0022972D01*
X0122163Y0021973D02*
X0117482Y0021973D01*
X0116590Y0020975D02*
X0123161Y0020975D01*
X0124160Y0019976D02*
X0072900Y0019976D01*
X0072900Y0018978D02*
X0158475Y0018978D01*
X0158167Y0019976D02*
X0148840Y0019976D01*
X0149839Y0020975D02*
X0157859Y0020975D01*
X0157684Y0021973D02*
X0150837Y0021973D01*
X0147000Y0021973D02*
X0146000Y0021973D01*
X0146000Y0020975D02*
X0147000Y0020975D01*
X0147000Y0019976D02*
X0146000Y0019976D01*
X0144160Y0019976D02*
X0138840Y0019976D01*
X0139839Y0020975D02*
X0143161Y0020975D01*
X0142163Y0021973D02*
X0140837Y0021973D01*
X0141000Y0022972D02*
X0142000Y0022972D01*
X0142000Y0024969D02*
X0141000Y0024969D01*
X0140897Y0025967D02*
X0142103Y0025967D01*
X0137000Y0025967D02*
X0136000Y0025967D01*
X0136000Y0024969D02*
X0137000Y0024969D01*
X0137000Y0021973D02*
X0136000Y0021973D01*
X0136000Y0020975D02*
X0137000Y0020975D01*
X0137000Y0019976D02*
X0136000Y0019976D01*
X0134160Y0019976D02*
X0128840Y0019976D01*
X0129839Y0020975D02*
X0133161Y0020975D01*
X0132163Y0021973D02*
X0130837Y0021973D01*
X0131000Y0022972D02*
X0132000Y0022972D01*
X0132000Y0024969D02*
X0131000Y0024969D01*
X0130897Y0025967D02*
X0132103Y0025967D01*
X0127000Y0021973D02*
X0126000Y0021973D01*
X0126000Y0020975D02*
X0127000Y0020975D01*
X0127000Y0019976D02*
X0126000Y0019976D01*
X0117406Y0016209D02*
X0118000Y0014776D01*
X0118000Y0013224D01*
X0117406Y0011791D01*
X0116309Y0010694D01*
X0114876Y0010100D01*
X0108124Y0010100D01*
X0106691Y0010694D01*
X0105594Y0011791D01*
X0105000Y0013224D01*
X0105000Y0014776D01*
X0105594Y0016209D01*
X0106691Y0017306D01*
X0108124Y0017900D01*
X0114876Y0017900D01*
X0116309Y0017306D01*
X0117406Y0016209D01*
X0117500Y0015982D02*
X0159720Y0015982D01*
X0159091Y0016981D02*
X0116635Y0016981D01*
X0117914Y0014984D02*
X0160400Y0014984D01*
X0161081Y0013985D02*
X0118000Y0013985D01*
X0117902Y0012987D02*
X0161762Y0012987D01*
X0161905Y0012777D02*
X0161905Y0012777D01*
X0161905Y0012777D01*
X0162894Y0011988D02*
X0117488Y0011988D01*
X0116605Y0010990D02*
X0164146Y0010990D01*
X0165398Y0009991D02*
X0049867Y0009991D01*
X0048138Y0008993D02*
X0167580Y0008993D01*
X0165750Y0009711D02*
X0165750Y0009711D01*
X0158783Y0017979D02*
X0072900Y0017979D01*
X0072496Y0016981D02*
X0076365Y0016981D01*
X0076691Y0017306D02*
X0075594Y0016209D01*
X0075000Y0014776D01*
X0075000Y0013224D01*
X0075594Y0011791D01*
X0076691Y0010694D01*
X0078124Y0010100D01*
X0084876Y0010100D01*
X0086309Y0010694D01*
X0087406Y0011791D01*
X0088000Y0013224D01*
X0088000Y0014776D01*
X0087406Y0016209D01*
X0086309Y0017306D01*
X0084876Y0017900D01*
X0078124Y0017900D01*
X0076691Y0017306D01*
X0075500Y0015982D02*
X0071498Y0015982D01*
X0075086Y0014984D02*
X0055267Y0014984D01*
X0055748Y0015982D02*
X0066502Y0015982D01*
X0065504Y0016981D02*
X0056229Y0016981D01*
X0056710Y0017979D02*
X0065100Y0017979D01*
X0065100Y0018978D02*
X0057190Y0018978D01*
X0057267Y0019137D02*
X0057267Y0019137D01*
X0057393Y0019976D02*
X0065100Y0019976D01*
X0065459Y0020975D02*
X0057544Y0020975D01*
X0057694Y0021973D02*
X0066458Y0021973D01*
X0066900Y0022972D02*
X0057845Y0022972D01*
X0057995Y0023970D02*
X0066900Y0023970D01*
X0066900Y0024969D02*
X0057854Y0024969D01*
X0057703Y0025967D02*
X0066900Y0025967D01*
X0066900Y0026966D02*
X0057553Y0026966D01*
X0057402Y0027964D02*
X0066900Y0027964D01*
X0066900Y0028963D02*
X0057219Y0028963D01*
X0056738Y0029961D02*
X0066900Y0029961D01*
X0066900Y0030960D02*
X0056257Y0030960D01*
X0055777Y0031958D02*
X0066900Y0031958D01*
X0066900Y0032957D02*
X0055296Y0032957D01*
X0055133Y0033295D02*
X0055133Y0033295D01*
X0054520Y0033955D02*
X0066900Y0033955D01*
X0066984Y0034954D02*
X0053594Y0034954D01*
X0052667Y0035952D02*
X0067983Y0035952D01*
X0068981Y0036951D02*
X0051700Y0036951D01*
X0049970Y0037949D02*
X0069980Y0037949D01*
X0070978Y0038948D02*
X0048241Y0038948D01*
X0047528Y0039359D02*
X0047528Y0039359D01*
X0037828Y0040086D02*
X0037828Y0040086D01*
X0037472Y0039946D02*
X0026000Y0039946D01*
X0026000Y0038948D02*
X0034928Y0038948D01*
X0033250Y0038289D02*
X0033250Y0038289D01*
X0032824Y0037949D02*
X0026000Y0037949D01*
X0026000Y0036951D02*
X0031572Y0036951D01*
X0030319Y0035952D02*
X0026000Y0035952D01*
X0026000Y0034954D02*
X0029221Y0034954D01*
X0029405Y0035223D02*
X0029405Y0035223D01*
X0028540Y0033955D02*
X0026000Y0033955D01*
X0026000Y0032957D02*
X0027860Y0032957D01*
X0027179Y0031958D02*
X0026000Y0031958D01*
X0026000Y0030960D02*
X0026573Y0030960D01*
X0026634Y0031159D02*
X0026634Y0031159D01*
X0026265Y0029961D02*
X0026000Y0029961D01*
X0046000Y0049932D02*
X0047000Y0049932D01*
X0047000Y0050930D02*
X0046000Y0050930D01*
X0046000Y0051929D02*
X0047000Y0051929D01*
X0047000Y0052927D02*
X0046000Y0052927D01*
X0041708Y0062912D02*
X0040558Y0062912D01*
X0052489Y0065908D02*
X0075469Y0065908D01*
X0076291Y0066906D02*
X0053287Y0066906D01*
X0053701Y0067905D02*
X0152435Y0067905D01*
X0157376Y0066906D02*
X0158936Y0066906D01*
X0158375Y0067905D02*
X0159935Y0067905D01*
X0160933Y0068903D02*
X0158600Y0068903D01*
X0158600Y0069902D02*
X0161719Y0069902D01*
X0162133Y0070900D02*
X0158600Y0070900D01*
X0158600Y0071899D02*
X0162818Y0071899D01*
X0164172Y0072897D02*
X0158600Y0072897D01*
X0158600Y0073896D02*
X0188201Y0073896D01*
X0169500Y0089872D02*
X0168500Y0089872D01*
X0168500Y0090870D02*
X0169500Y0090870D01*
X0169500Y0091869D02*
X0168500Y0091869D01*
X0169500Y0094500D02*
X0176477Y0094500D01*
X0176389Y0095054D01*
X0176170Y0095727D01*
X0175849Y0096359D01*
X0175432Y0096932D01*
X0174932Y0097432D01*
X0174359Y0097849D01*
X0173727Y0098170D01*
X0173054Y0098389D01*
X0172354Y0098500D01*
X0169500Y0098500D01*
X0169500Y0094500D01*
X0169500Y0094865D02*
X0168500Y0094865D01*
X0168500Y0095863D02*
X0169500Y0095863D01*
X0169500Y0096862D02*
X0168500Y0096862D01*
X0168500Y0097860D02*
X0169500Y0097860D01*
X0169500Y0099857D02*
X0168500Y0099857D01*
X0168500Y0100856D02*
X0169500Y0100856D01*
X0169500Y0101854D02*
X0168500Y0101854D01*
X0168500Y0104850D02*
X0169500Y0104850D01*
X0169500Y0105848D02*
X0168500Y0105848D01*
X0168500Y0106847D02*
X0169500Y0106847D01*
X0169500Y0107845D02*
X0168500Y0107845D01*
X0174363Y0107845D02*
X0188201Y0107845D01*
X0188201Y0106847D02*
X0175494Y0106847D01*
X0176109Y0105848D02*
X0188201Y0105848D01*
X0188201Y0104850D02*
X0176422Y0104850D01*
X0174336Y0097860D02*
X0188201Y0097860D01*
X0188201Y0096862D02*
X0175483Y0096862D01*
X0176101Y0095863D02*
X0188201Y0095863D01*
X0188201Y0094865D02*
X0176419Y0094865D01*
X0164190Y0089872D02*
X0158600Y0089872D01*
X0158600Y0090870D02*
X0162766Y0090870D01*
X0162035Y0091869D02*
X0158600Y0091869D01*
X0154400Y0091869D02*
X0153272Y0091869D01*
X0153685Y0092868D02*
X0154400Y0092868D01*
X0154400Y0093866D02*
X0153800Y0093866D01*
X0153796Y0094865D02*
X0154400Y0094865D01*
X0154400Y0095863D02*
X0153383Y0095863D01*
X0152720Y0096862D02*
X0154400Y0096862D01*
X0154400Y0097860D02*
X0151417Y0097860D01*
X0150735Y0099857D02*
X0154400Y0099857D01*
X0154400Y0098859D02*
X0139611Y0098859D01*
X0140610Y0097860D02*
X0141583Y0097860D01*
X0150770Y0089872D02*
X0154400Y0089872D01*
X0154400Y0090870D02*
X0152452Y0090870D01*
X0158600Y0082882D02*
X0164137Y0082882D01*
X0162803Y0081884D02*
X0158600Y0081884D01*
X0158600Y0080885D02*
X0162127Y0080885D01*
X0161713Y0079887D02*
X0158600Y0079887D01*
X0158600Y0078888D02*
X0161700Y0078888D01*
X0161806Y0077890D02*
X0158600Y0077890D01*
X0158600Y0076891D02*
X0162219Y0076891D01*
X0163026Y0075893D02*
X0158600Y0075893D01*
X0158600Y0074894D02*
X0164676Y0074894D01*
X0154400Y0078888D02*
X0139581Y0078888D01*
X0138583Y0079887D02*
X0142194Y0079887D01*
X0140534Y0080885D02*
X0137584Y0080885D01*
X0139722Y0081884D02*
X0133278Y0081884D01*
X0133691Y0082882D02*
X0139309Y0082882D01*
X0138649Y0083881D02*
X0133800Y0083881D01*
X0133790Y0084879D02*
X0137651Y0084879D01*
X0136652Y0085878D02*
X0133376Y0085878D01*
X0132705Y0086876D02*
X0135654Y0086876D01*
X0140580Y0077890D02*
X0141654Y0077890D01*
X0138634Y0073896D02*
X0133800Y0073896D01*
X0133784Y0074894D02*
X0137636Y0074894D01*
X0136637Y0075893D02*
X0133370Y0075893D01*
X0132690Y0076891D02*
X0135639Y0076891D01*
X0133698Y0072897D02*
X0139302Y0072897D01*
X0139716Y0071899D02*
X0133284Y0071899D01*
X0132481Y0070900D02*
X0140519Y0070900D01*
X0142158Y0069902D02*
X0130842Y0069902D01*
X0152437Y0100856D02*
X0154400Y0100856D01*
X0154400Y0101854D02*
X0153265Y0101854D01*
X0153679Y0102853D02*
X0154400Y0102853D01*
X0154400Y0103851D02*
X0153800Y0103851D01*
X0153800Y0104850D02*
X0154400Y0104850D01*
X0154400Y0105848D02*
X0153389Y0105848D01*
X0152734Y0106847D02*
X0154400Y0106847D01*
X0154875Y0107845D02*
X0151453Y0107845D01*
X0150699Y0109842D02*
X0156872Y0109842D01*
X0155874Y0108844D02*
X0139626Y0108844D01*
X0140625Y0107845D02*
X0141547Y0107845D01*
X0152422Y0110841D02*
X0157871Y0110841D01*
X0158869Y0111839D02*
X0153259Y0111839D01*
X0153673Y0112838D02*
X0159868Y0112838D01*
X0160866Y0113836D02*
X0153800Y0113836D01*
X0153800Y0114835D02*
X0161865Y0114835D01*
X0162863Y0115833D02*
X0153395Y0115833D01*
X0152749Y0116832D02*
X0162244Y0116832D01*
X0161830Y0117830D02*
X0151489Y0117830D01*
X0150663Y0119827D02*
X0161700Y0119827D01*
X0161700Y0118829D02*
X0139641Y0118829D01*
X0140640Y0117830D02*
X0141511Y0117830D01*
X0141475Y0127815D02*
X0140654Y0127815D01*
X0150627Y0129812D02*
X0161700Y0129812D01*
X0162096Y0130811D02*
X0152392Y0130811D01*
X0153247Y0131809D02*
X0162728Y0131809D01*
X0163957Y0132808D02*
X0153661Y0132808D01*
X0153800Y0133806D02*
X0188201Y0133806D01*
X0188201Y0132808D02*
X0174043Y0132808D01*
X0175272Y0131809D02*
X0188201Y0131809D01*
X0188201Y0130811D02*
X0175904Y0130811D01*
X0176300Y0129812D02*
X0188201Y0129812D01*
X0188201Y0128814D02*
X0176300Y0128814D01*
X0176164Y0127815D02*
X0188201Y0127815D01*
X0188201Y0126817D02*
X0175750Y0126817D01*
X0174899Y0125818D02*
X0188201Y0125818D01*
X0188201Y0124820D02*
X0173145Y0124820D01*
X0162743Y0121824D02*
X0153253Y0121824D01*
X0152407Y0120826D02*
X0162102Y0120826D01*
X0153800Y0134805D02*
X0188201Y0134805D01*
X0188201Y0135803D02*
X0153407Y0135803D01*
X0152779Y0136802D02*
X0188201Y0136802D01*
X0188201Y0137801D02*
X0176348Y0137801D01*
X0175233Y0137546D02*
X0175233Y0137546D01*
X0180028Y0138641D02*
X0180028Y0138641D01*
X0180303Y0138799D02*
X0188201Y0138799D01*
X0188201Y0139798D02*
X0182032Y0139798D01*
X0183761Y0140796D02*
X0188201Y0140796D01*
X0188201Y0141795D02*
X0184932Y0141795D01*
X0184288Y0141100D02*
X0184288Y0141100D01*
X0184288Y0141100D01*
X0185859Y0142793D02*
X0188201Y0142793D01*
X0188201Y0143792D02*
X0186785Y0143792D01*
X0187674Y0144790D02*
X0188201Y0144790D01*
X0188201Y0145789D02*
X0188155Y0145789D01*
X0165750Y0139711D02*
X0165750Y0139711D01*
X0141403Y0147786D02*
X0140684Y0147786D01*
X0158600Y0102853D02*
X0161641Y0102853D01*
X0162043Y0101854D02*
X0158600Y0101854D01*
X0158600Y0100856D02*
X0162780Y0100856D01*
X0090468Y0045937D02*
X0087519Y0045937D01*
X0087932Y0044939D02*
X0089469Y0044939D01*
X0088471Y0043940D02*
X0088000Y0043940D01*
X0091422Y0035952D02*
X0105487Y0035952D01*
X0105074Y0034954D02*
X0090424Y0034954D01*
X0089425Y0033955D02*
X0105000Y0033955D01*
X0105111Y0032957D02*
X0088427Y0032957D01*
X0087476Y0031958D02*
X0105524Y0031958D01*
X0105494Y0025967D02*
X0091437Y0025967D01*
X0090439Y0024969D02*
X0105080Y0024969D01*
X0105000Y0023970D02*
X0089440Y0023970D01*
X0088442Y0022972D02*
X0105105Y0022972D01*
X0105518Y0021973D02*
X0087482Y0021973D01*
X0086590Y0020975D02*
X0106410Y0020975D01*
X0106365Y0016981D02*
X0086635Y0016981D01*
X0087500Y0015982D02*
X0105500Y0015982D01*
X0105086Y0014984D02*
X0087914Y0014984D01*
X0088000Y0013985D02*
X0105000Y0013985D01*
X0105098Y0012987D02*
X0087902Y0012987D01*
X0087488Y0011988D02*
X0105512Y0011988D01*
X0106395Y0010990D02*
X0086605Y0010990D01*
X0076395Y0010990D02*
X0051597Y0010990D01*
X0052612Y0011988D02*
X0075512Y0011988D01*
X0075098Y0012987D02*
X0053538Y0012987D01*
X0054465Y0013985D02*
X0075000Y0013985D01*
X0076410Y0020975D02*
X0072541Y0020975D01*
X0071542Y0021973D02*
X0075518Y0021973D01*
X0075105Y0022972D02*
X0071100Y0022972D01*
X0071100Y0023970D02*
X0075000Y0023970D01*
X0075080Y0024969D02*
X0071100Y0024969D01*
X0071100Y0025967D02*
X0075494Y0025967D01*
X0076350Y0026966D02*
X0071100Y0026966D01*
X0071100Y0027964D02*
X0087494Y0027964D01*
X0088493Y0028963D02*
X0071100Y0028963D01*
X0071100Y0029961D02*
X0089491Y0029961D01*
X0090490Y0030960D02*
X0086575Y0030960D01*
X0076425Y0030960D02*
X0071100Y0030960D01*
X0071100Y0031958D02*
X0075524Y0031958D01*
X0075111Y0032957D02*
X0071100Y0032957D01*
X0071925Y0033955D02*
X0075000Y0033955D01*
X0075074Y0034954D02*
X0072924Y0034954D01*
X0073922Y0035952D02*
X0075487Y0035952D01*
X0047528Y0008641D02*
X0047528Y0008641D01*
M02*
