%
M48
M72
T01C0.0320
T02C0.0394
T03C0.0400
T04C0.0470
T05C0.1260
%
T01
X3180Y14430
X3680Y15680
X4680Y15680
X4180Y16430
X3180Y16930
X4180Y18180
X5180Y16930
X7180Y16930
X8180Y16430
X7680Y15680
X8680Y15680
X9180Y14430
X11180Y14430
X11680Y15680
X12680Y15680
X12180Y16430
X11180Y16930
X12180Y18180
X13180Y16930
X15180Y16930
X16180Y16430
X15680Y15680
X16680Y15680
X17180Y14430
X19180Y14430
X19680Y15680
X20680Y15680
X20180Y16430
X19180Y16930
X20180Y18180
X21180Y16930
X23180Y16930
X24180Y16430
X23680Y15680
X24680Y15680
X25180Y14430
X27180Y14430
X27680Y15680
X28680Y15680
X28180Y16430
X27180Y16930
X28180Y18180
X29180Y16930
X31180Y16930
X32180Y16430
X31680Y15680
X32680Y15680
X33180Y14430
X31180Y14430
X29180Y14430
X25180Y16930
X24180Y18180
X24180Y20180
X23180Y20930
X24180Y21430
X24180Y22430
X23680Y23680
X24680Y23680
X25180Y20930
X27180Y20930
X28180Y21430
X28180Y22430
X27680Y23680
X28680Y23680
X29180Y20930
X28180Y20180
X31180Y20930
X32180Y21430
X32180Y22430
X31680Y23680
X32680Y23680
X33180Y20930
X32180Y20180
X32180Y18180
X33180Y16930
X23180Y14430
X21180Y14430
X17180Y16930
X16180Y18180
X16180Y20180
X15180Y20930
X16180Y21430
X16180Y22430
X15680Y23680
X16680Y23680
X17180Y20930
X19180Y20930
X20180Y21430
X20180Y22430
X19680Y23680
X20680Y23680
X21180Y20930
X20180Y20180
X15180Y14430
X13180Y14430
X9180Y16930
X8180Y18180
X8180Y20180
X7180Y20930
X8180Y21430
X8180Y22430
X7680Y23680
X8680Y23680
X9180Y20930
X11180Y20930
X12180Y21430
X12180Y22430
X11680Y23680
X12680Y23680
X13180Y20930
X12180Y20180
X7180Y14430
X5180Y14430
X4180Y20180
X3180Y20930
X4180Y21430
X4180Y22430
X3680Y23680
X4680Y23680
X5180Y20930
X4680Y26680
X3680Y26680
X7680Y26680
X8680Y26680
X11680Y26680
X12680Y26680
X15680Y26680
X16680Y26680
X19680Y26680
X20680Y26680
X23680Y26680
X24680Y26680
X27680Y26680
X28680Y26680
X31680Y26680
X32680Y26680
T02
X28830Y5168
X27452Y7137
X26074Y5168
X24696Y7137
X23318Y5168
X21940Y7137
X20562Y5168
X19184Y7137
X17806Y5168
X16428Y7137
X15050Y5168
X13672Y7137
X12294Y5168
X10916Y7137
X9538Y5168
X8160Y7137
T03
X31290Y10400
X33070Y10400
X33070Y12960
X31290Y12960
X29070Y12960
X27290Y12960
X25070Y12960
X23290Y12960
X21070Y12960
X19290Y12960
X17070Y12960
X15290Y12960
X13070Y12960
X11290Y12960
X9070Y12960
X7290Y12960
X5070Y12960
X3290Y12960
X3290Y10400
X5070Y10400
X7290Y10400
X9070Y10400
X11290Y10400
X13070Y10400
X15290Y10400
X17070Y10400
X19290Y10400
X21070Y10400
X23290Y10400
X25070Y10400
X27290Y10400
X29070Y10400
X29680Y30180
X28680Y30180
X27680Y30180
X26680Y30180
X21680Y30180
X20680Y30180
X19680Y30180
X18680Y30180
X17680Y30180
X16680Y30180
X15680Y30180
X14680Y30180
X9680Y30180
X8680Y30180
X7680Y30180
X6680Y30180
T04
X3680Y6446
X3680Y8414
X32680Y8414
X32680Y6446
T05
X32680Y3680
X3680Y3680
X3680Y29680
X32680Y29680
M30
