G75*
%MOIN*%
%OFA0B0*%
%FSLAX25Y25*%
%IPPOS*%
%LPD*%
%AMOC8*
5,1,8,0,0,1.08239X$1,22.5*
%
%ADD10C,0.00000*%
%ADD11OC8,0.06000*%
%ADD12C,0.13398*%
%ADD13C,0.06800*%
%ADD14OC8,0.07400*%
%ADD15C,0.07850*%
%ADD16C,0.06737*%
%ADD17C,0.06000*%
D10*
X0016800Y0016800D02*
X0346800Y0016800D01*
X0345501Y0016800D02*
X0345501Y0316761D01*
X0016800Y0316761D01*
X0016800Y0016800D01*
X0030501Y0036800D02*
X0030503Y0036958D01*
X0030509Y0037116D01*
X0030519Y0037274D01*
X0030533Y0037432D01*
X0030551Y0037589D01*
X0030572Y0037746D01*
X0030598Y0037902D01*
X0030628Y0038058D01*
X0030661Y0038213D01*
X0030699Y0038366D01*
X0030740Y0038519D01*
X0030785Y0038671D01*
X0030834Y0038822D01*
X0030887Y0038971D01*
X0030943Y0039119D01*
X0031003Y0039265D01*
X0031067Y0039410D01*
X0031135Y0039553D01*
X0031206Y0039695D01*
X0031280Y0039835D01*
X0031358Y0039972D01*
X0031440Y0040108D01*
X0031524Y0040242D01*
X0031613Y0040373D01*
X0031704Y0040502D01*
X0031799Y0040629D01*
X0031896Y0040754D01*
X0031997Y0040876D01*
X0032101Y0040995D01*
X0032208Y0041112D01*
X0032318Y0041226D01*
X0032431Y0041337D01*
X0032546Y0041446D01*
X0032664Y0041551D01*
X0032785Y0041653D01*
X0032908Y0041753D01*
X0033034Y0041849D01*
X0033162Y0041942D01*
X0033292Y0042032D01*
X0033425Y0042118D01*
X0033560Y0042202D01*
X0033696Y0042281D01*
X0033835Y0042358D01*
X0033976Y0042430D01*
X0034118Y0042500D01*
X0034262Y0042565D01*
X0034408Y0042627D01*
X0034555Y0042685D01*
X0034704Y0042740D01*
X0034854Y0042791D01*
X0035005Y0042838D01*
X0035157Y0042881D01*
X0035310Y0042920D01*
X0035465Y0042956D01*
X0035620Y0042987D01*
X0035776Y0043015D01*
X0035932Y0043039D01*
X0036089Y0043059D01*
X0036247Y0043075D01*
X0036404Y0043087D01*
X0036563Y0043095D01*
X0036721Y0043099D01*
X0036879Y0043099D01*
X0037037Y0043095D01*
X0037196Y0043087D01*
X0037353Y0043075D01*
X0037511Y0043059D01*
X0037668Y0043039D01*
X0037824Y0043015D01*
X0037980Y0042987D01*
X0038135Y0042956D01*
X0038290Y0042920D01*
X0038443Y0042881D01*
X0038595Y0042838D01*
X0038746Y0042791D01*
X0038896Y0042740D01*
X0039045Y0042685D01*
X0039192Y0042627D01*
X0039338Y0042565D01*
X0039482Y0042500D01*
X0039624Y0042430D01*
X0039765Y0042358D01*
X0039904Y0042281D01*
X0040040Y0042202D01*
X0040175Y0042118D01*
X0040308Y0042032D01*
X0040438Y0041942D01*
X0040566Y0041849D01*
X0040692Y0041753D01*
X0040815Y0041653D01*
X0040936Y0041551D01*
X0041054Y0041446D01*
X0041169Y0041337D01*
X0041282Y0041226D01*
X0041392Y0041112D01*
X0041499Y0040995D01*
X0041603Y0040876D01*
X0041704Y0040754D01*
X0041801Y0040629D01*
X0041896Y0040502D01*
X0041987Y0040373D01*
X0042076Y0040242D01*
X0042160Y0040108D01*
X0042242Y0039972D01*
X0042320Y0039835D01*
X0042394Y0039695D01*
X0042465Y0039553D01*
X0042533Y0039410D01*
X0042597Y0039265D01*
X0042657Y0039119D01*
X0042713Y0038971D01*
X0042766Y0038822D01*
X0042815Y0038671D01*
X0042860Y0038519D01*
X0042901Y0038366D01*
X0042939Y0038213D01*
X0042972Y0038058D01*
X0043002Y0037902D01*
X0043028Y0037746D01*
X0043049Y0037589D01*
X0043067Y0037432D01*
X0043081Y0037274D01*
X0043091Y0037116D01*
X0043097Y0036958D01*
X0043099Y0036800D01*
X0043097Y0036642D01*
X0043091Y0036484D01*
X0043081Y0036326D01*
X0043067Y0036168D01*
X0043049Y0036011D01*
X0043028Y0035854D01*
X0043002Y0035698D01*
X0042972Y0035542D01*
X0042939Y0035387D01*
X0042901Y0035234D01*
X0042860Y0035081D01*
X0042815Y0034929D01*
X0042766Y0034778D01*
X0042713Y0034629D01*
X0042657Y0034481D01*
X0042597Y0034335D01*
X0042533Y0034190D01*
X0042465Y0034047D01*
X0042394Y0033905D01*
X0042320Y0033765D01*
X0042242Y0033628D01*
X0042160Y0033492D01*
X0042076Y0033358D01*
X0041987Y0033227D01*
X0041896Y0033098D01*
X0041801Y0032971D01*
X0041704Y0032846D01*
X0041603Y0032724D01*
X0041499Y0032605D01*
X0041392Y0032488D01*
X0041282Y0032374D01*
X0041169Y0032263D01*
X0041054Y0032154D01*
X0040936Y0032049D01*
X0040815Y0031947D01*
X0040692Y0031847D01*
X0040566Y0031751D01*
X0040438Y0031658D01*
X0040308Y0031568D01*
X0040175Y0031482D01*
X0040040Y0031398D01*
X0039904Y0031319D01*
X0039765Y0031242D01*
X0039624Y0031170D01*
X0039482Y0031100D01*
X0039338Y0031035D01*
X0039192Y0030973D01*
X0039045Y0030915D01*
X0038896Y0030860D01*
X0038746Y0030809D01*
X0038595Y0030762D01*
X0038443Y0030719D01*
X0038290Y0030680D01*
X0038135Y0030644D01*
X0037980Y0030613D01*
X0037824Y0030585D01*
X0037668Y0030561D01*
X0037511Y0030541D01*
X0037353Y0030525D01*
X0037196Y0030513D01*
X0037037Y0030505D01*
X0036879Y0030501D01*
X0036721Y0030501D01*
X0036563Y0030505D01*
X0036404Y0030513D01*
X0036247Y0030525D01*
X0036089Y0030541D01*
X0035932Y0030561D01*
X0035776Y0030585D01*
X0035620Y0030613D01*
X0035465Y0030644D01*
X0035310Y0030680D01*
X0035157Y0030719D01*
X0035005Y0030762D01*
X0034854Y0030809D01*
X0034704Y0030860D01*
X0034555Y0030915D01*
X0034408Y0030973D01*
X0034262Y0031035D01*
X0034118Y0031100D01*
X0033976Y0031170D01*
X0033835Y0031242D01*
X0033696Y0031319D01*
X0033560Y0031398D01*
X0033425Y0031482D01*
X0033292Y0031568D01*
X0033162Y0031658D01*
X0033034Y0031751D01*
X0032908Y0031847D01*
X0032785Y0031947D01*
X0032664Y0032049D01*
X0032546Y0032154D01*
X0032431Y0032263D01*
X0032318Y0032374D01*
X0032208Y0032488D01*
X0032101Y0032605D01*
X0031997Y0032724D01*
X0031896Y0032846D01*
X0031799Y0032971D01*
X0031704Y0033098D01*
X0031613Y0033227D01*
X0031524Y0033358D01*
X0031440Y0033492D01*
X0031358Y0033628D01*
X0031280Y0033765D01*
X0031206Y0033905D01*
X0031135Y0034047D01*
X0031067Y0034190D01*
X0031003Y0034335D01*
X0030943Y0034481D01*
X0030887Y0034629D01*
X0030834Y0034778D01*
X0030785Y0034929D01*
X0030740Y0035081D01*
X0030699Y0035234D01*
X0030661Y0035387D01*
X0030628Y0035542D01*
X0030598Y0035698D01*
X0030572Y0035854D01*
X0030551Y0036011D01*
X0030533Y0036168D01*
X0030519Y0036326D01*
X0030509Y0036484D01*
X0030503Y0036642D01*
X0030501Y0036800D01*
X0030501Y0296800D02*
X0030503Y0296958D01*
X0030509Y0297116D01*
X0030519Y0297274D01*
X0030533Y0297432D01*
X0030551Y0297589D01*
X0030572Y0297746D01*
X0030598Y0297902D01*
X0030628Y0298058D01*
X0030661Y0298213D01*
X0030699Y0298366D01*
X0030740Y0298519D01*
X0030785Y0298671D01*
X0030834Y0298822D01*
X0030887Y0298971D01*
X0030943Y0299119D01*
X0031003Y0299265D01*
X0031067Y0299410D01*
X0031135Y0299553D01*
X0031206Y0299695D01*
X0031280Y0299835D01*
X0031358Y0299972D01*
X0031440Y0300108D01*
X0031524Y0300242D01*
X0031613Y0300373D01*
X0031704Y0300502D01*
X0031799Y0300629D01*
X0031896Y0300754D01*
X0031997Y0300876D01*
X0032101Y0300995D01*
X0032208Y0301112D01*
X0032318Y0301226D01*
X0032431Y0301337D01*
X0032546Y0301446D01*
X0032664Y0301551D01*
X0032785Y0301653D01*
X0032908Y0301753D01*
X0033034Y0301849D01*
X0033162Y0301942D01*
X0033292Y0302032D01*
X0033425Y0302118D01*
X0033560Y0302202D01*
X0033696Y0302281D01*
X0033835Y0302358D01*
X0033976Y0302430D01*
X0034118Y0302500D01*
X0034262Y0302565D01*
X0034408Y0302627D01*
X0034555Y0302685D01*
X0034704Y0302740D01*
X0034854Y0302791D01*
X0035005Y0302838D01*
X0035157Y0302881D01*
X0035310Y0302920D01*
X0035465Y0302956D01*
X0035620Y0302987D01*
X0035776Y0303015D01*
X0035932Y0303039D01*
X0036089Y0303059D01*
X0036247Y0303075D01*
X0036404Y0303087D01*
X0036563Y0303095D01*
X0036721Y0303099D01*
X0036879Y0303099D01*
X0037037Y0303095D01*
X0037196Y0303087D01*
X0037353Y0303075D01*
X0037511Y0303059D01*
X0037668Y0303039D01*
X0037824Y0303015D01*
X0037980Y0302987D01*
X0038135Y0302956D01*
X0038290Y0302920D01*
X0038443Y0302881D01*
X0038595Y0302838D01*
X0038746Y0302791D01*
X0038896Y0302740D01*
X0039045Y0302685D01*
X0039192Y0302627D01*
X0039338Y0302565D01*
X0039482Y0302500D01*
X0039624Y0302430D01*
X0039765Y0302358D01*
X0039904Y0302281D01*
X0040040Y0302202D01*
X0040175Y0302118D01*
X0040308Y0302032D01*
X0040438Y0301942D01*
X0040566Y0301849D01*
X0040692Y0301753D01*
X0040815Y0301653D01*
X0040936Y0301551D01*
X0041054Y0301446D01*
X0041169Y0301337D01*
X0041282Y0301226D01*
X0041392Y0301112D01*
X0041499Y0300995D01*
X0041603Y0300876D01*
X0041704Y0300754D01*
X0041801Y0300629D01*
X0041896Y0300502D01*
X0041987Y0300373D01*
X0042076Y0300242D01*
X0042160Y0300108D01*
X0042242Y0299972D01*
X0042320Y0299835D01*
X0042394Y0299695D01*
X0042465Y0299553D01*
X0042533Y0299410D01*
X0042597Y0299265D01*
X0042657Y0299119D01*
X0042713Y0298971D01*
X0042766Y0298822D01*
X0042815Y0298671D01*
X0042860Y0298519D01*
X0042901Y0298366D01*
X0042939Y0298213D01*
X0042972Y0298058D01*
X0043002Y0297902D01*
X0043028Y0297746D01*
X0043049Y0297589D01*
X0043067Y0297432D01*
X0043081Y0297274D01*
X0043091Y0297116D01*
X0043097Y0296958D01*
X0043099Y0296800D01*
X0043097Y0296642D01*
X0043091Y0296484D01*
X0043081Y0296326D01*
X0043067Y0296168D01*
X0043049Y0296011D01*
X0043028Y0295854D01*
X0043002Y0295698D01*
X0042972Y0295542D01*
X0042939Y0295387D01*
X0042901Y0295234D01*
X0042860Y0295081D01*
X0042815Y0294929D01*
X0042766Y0294778D01*
X0042713Y0294629D01*
X0042657Y0294481D01*
X0042597Y0294335D01*
X0042533Y0294190D01*
X0042465Y0294047D01*
X0042394Y0293905D01*
X0042320Y0293765D01*
X0042242Y0293628D01*
X0042160Y0293492D01*
X0042076Y0293358D01*
X0041987Y0293227D01*
X0041896Y0293098D01*
X0041801Y0292971D01*
X0041704Y0292846D01*
X0041603Y0292724D01*
X0041499Y0292605D01*
X0041392Y0292488D01*
X0041282Y0292374D01*
X0041169Y0292263D01*
X0041054Y0292154D01*
X0040936Y0292049D01*
X0040815Y0291947D01*
X0040692Y0291847D01*
X0040566Y0291751D01*
X0040438Y0291658D01*
X0040308Y0291568D01*
X0040175Y0291482D01*
X0040040Y0291398D01*
X0039904Y0291319D01*
X0039765Y0291242D01*
X0039624Y0291170D01*
X0039482Y0291100D01*
X0039338Y0291035D01*
X0039192Y0290973D01*
X0039045Y0290915D01*
X0038896Y0290860D01*
X0038746Y0290809D01*
X0038595Y0290762D01*
X0038443Y0290719D01*
X0038290Y0290680D01*
X0038135Y0290644D01*
X0037980Y0290613D01*
X0037824Y0290585D01*
X0037668Y0290561D01*
X0037511Y0290541D01*
X0037353Y0290525D01*
X0037196Y0290513D01*
X0037037Y0290505D01*
X0036879Y0290501D01*
X0036721Y0290501D01*
X0036563Y0290505D01*
X0036404Y0290513D01*
X0036247Y0290525D01*
X0036089Y0290541D01*
X0035932Y0290561D01*
X0035776Y0290585D01*
X0035620Y0290613D01*
X0035465Y0290644D01*
X0035310Y0290680D01*
X0035157Y0290719D01*
X0035005Y0290762D01*
X0034854Y0290809D01*
X0034704Y0290860D01*
X0034555Y0290915D01*
X0034408Y0290973D01*
X0034262Y0291035D01*
X0034118Y0291100D01*
X0033976Y0291170D01*
X0033835Y0291242D01*
X0033696Y0291319D01*
X0033560Y0291398D01*
X0033425Y0291482D01*
X0033292Y0291568D01*
X0033162Y0291658D01*
X0033034Y0291751D01*
X0032908Y0291847D01*
X0032785Y0291947D01*
X0032664Y0292049D01*
X0032546Y0292154D01*
X0032431Y0292263D01*
X0032318Y0292374D01*
X0032208Y0292488D01*
X0032101Y0292605D01*
X0031997Y0292724D01*
X0031896Y0292846D01*
X0031799Y0292971D01*
X0031704Y0293098D01*
X0031613Y0293227D01*
X0031524Y0293358D01*
X0031440Y0293492D01*
X0031358Y0293628D01*
X0031280Y0293765D01*
X0031206Y0293905D01*
X0031135Y0294047D01*
X0031067Y0294190D01*
X0031003Y0294335D01*
X0030943Y0294481D01*
X0030887Y0294629D01*
X0030834Y0294778D01*
X0030785Y0294929D01*
X0030740Y0295081D01*
X0030699Y0295234D01*
X0030661Y0295387D01*
X0030628Y0295542D01*
X0030598Y0295698D01*
X0030572Y0295854D01*
X0030551Y0296011D01*
X0030533Y0296168D01*
X0030519Y0296326D01*
X0030509Y0296484D01*
X0030503Y0296642D01*
X0030501Y0296800D01*
X0320501Y0296800D02*
X0320503Y0296958D01*
X0320509Y0297116D01*
X0320519Y0297274D01*
X0320533Y0297432D01*
X0320551Y0297589D01*
X0320572Y0297746D01*
X0320598Y0297902D01*
X0320628Y0298058D01*
X0320661Y0298213D01*
X0320699Y0298366D01*
X0320740Y0298519D01*
X0320785Y0298671D01*
X0320834Y0298822D01*
X0320887Y0298971D01*
X0320943Y0299119D01*
X0321003Y0299265D01*
X0321067Y0299410D01*
X0321135Y0299553D01*
X0321206Y0299695D01*
X0321280Y0299835D01*
X0321358Y0299972D01*
X0321440Y0300108D01*
X0321524Y0300242D01*
X0321613Y0300373D01*
X0321704Y0300502D01*
X0321799Y0300629D01*
X0321896Y0300754D01*
X0321997Y0300876D01*
X0322101Y0300995D01*
X0322208Y0301112D01*
X0322318Y0301226D01*
X0322431Y0301337D01*
X0322546Y0301446D01*
X0322664Y0301551D01*
X0322785Y0301653D01*
X0322908Y0301753D01*
X0323034Y0301849D01*
X0323162Y0301942D01*
X0323292Y0302032D01*
X0323425Y0302118D01*
X0323560Y0302202D01*
X0323696Y0302281D01*
X0323835Y0302358D01*
X0323976Y0302430D01*
X0324118Y0302500D01*
X0324262Y0302565D01*
X0324408Y0302627D01*
X0324555Y0302685D01*
X0324704Y0302740D01*
X0324854Y0302791D01*
X0325005Y0302838D01*
X0325157Y0302881D01*
X0325310Y0302920D01*
X0325465Y0302956D01*
X0325620Y0302987D01*
X0325776Y0303015D01*
X0325932Y0303039D01*
X0326089Y0303059D01*
X0326247Y0303075D01*
X0326404Y0303087D01*
X0326563Y0303095D01*
X0326721Y0303099D01*
X0326879Y0303099D01*
X0327037Y0303095D01*
X0327196Y0303087D01*
X0327353Y0303075D01*
X0327511Y0303059D01*
X0327668Y0303039D01*
X0327824Y0303015D01*
X0327980Y0302987D01*
X0328135Y0302956D01*
X0328290Y0302920D01*
X0328443Y0302881D01*
X0328595Y0302838D01*
X0328746Y0302791D01*
X0328896Y0302740D01*
X0329045Y0302685D01*
X0329192Y0302627D01*
X0329338Y0302565D01*
X0329482Y0302500D01*
X0329624Y0302430D01*
X0329765Y0302358D01*
X0329904Y0302281D01*
X0330040Y0302202D01*
X0330175Y0302118D01*
X0330308Y0302032D01*
X0330438Y0301942D01*
X0330566Y0301849D01*
X0330692Y0301753D01*
X0330815Y0301653D01*
X0330936Y0301551D01*
X0331054Y0301446D01*
X0331169Y0301337D01*
X0331282Y0301226D01*
X0331392Y0301112D01*
X0331499Y0300995D01*
X0331603Y0300876D01*
X0331704Y0300754D01*
X0331801Y0300629D01*
X0331896Y0300502D01*
X0331987Y0300373D01*
X0332076Y0300242D01*
X0332160Y0300108D01*
X0332242Y0299972D01*
X0332320Y0299835D01*
X0332394Y0299695D01*
X0332465Y0299553D01*
X0332533Y0299410D01*
X0332597Y0299265D01*
X0332657Y0299119D01*
X0332713Y0298971D01*
X0332766Y0298822D01*
X0332815Y0298671D01*
X0332860Y0298519D01*
X0332901Y0298366D01*
X0332939Y0298213D01*
X0332972Y0298058D01*
X0333002Y0297902D01*
X0333028Y0297746D01*
X0333049Y0297589D01*
X0333067Y0297432D01*
X0333081Y0297274D01*
X0333091Y0297116D01*
X0333097Y0296958D01*
X0333099Y0296800D01*
X0333097Y0296642D01*
X0333091Y0296484D01*
X0333081Y0296326D01*
X0333067Y0296168D01*
X0333049Y0296011D01*
X0333028Y0295854D01*
X0333002Y0295698D01*
X0332972Y0295542D01*
X0332939Y0295387D01*
X0332901Y0295234D01*
X0332860Y0295081D01*
X0332815Y0294929D01*
X0332766Y0294778D01*
X0332713Y0294629D01*
X0332657Y0294481D01*
X0332597Y0294335D01*
X0332533Y0294190D01*
X0332465Y0294047D01*
X0332394Y0293905D01*
X0332320Y0293765D01*
X0332242Y0293628D01*
X0332160Y0293492D01*
X0332076Y0293358D01*
X0331987Y0293227D01*
X0331896Y0293098D01*
X0331801Y0292971D01*
X0331704Y0292846D01*
X0331603Y0292724D01*
X0331499Y0292605D01*
X0331392Y0292488D01*
X0331282Y0292374D01*
X0331169Y0292263D01*
X0331054Y0292154D01*
X0330936Y0292049D01*
X0330815Y0291947D01*
X0330692Y0291847D01*
X0330566Y0291751D01*
X0330438Y0291658D01*
X0330308Y0291568D01*
X0330175Y0291482D01*
X0330040Y0291398D01*
X0329904Y0291319D01*
X0329765Y0291242D01*
X0329624Y0291170D01*
X0329482Y0291100D01*
X0329338Y0291035D01*
X0329192Y0290973D01*
X0329045Y0290915D01*
X0328896Y0290860D01*
X0328746Y0290809D01*
X0328595Y0290762D01*
X0328443Y0290719D01*
X0328290Y0290680D01*
X0328135Y0290644D01*
X0327980Y0290613D01*
X0327824Y0290585D01*
X0327668Y0290561D01*
X0327511Y0290541D01*
X0327353Y0290525D01*
X0327196Y0290513D01*
X0327037Y0290505D01*
X0326879Y0290501D01*
X0326721Y0290501D01*
X0326563Y0290505D01*
X0326404Y0290513D01*
X0326247Y0290525D01*
X0326089Y0290541D01*
X0325932Y0290561D01*
X0325776Y0290585D01*
X0325620Y0290613D01*
X0325465Y0290644D01*
X0325310Y0290680D01*
X0325157Y0290719D01*
X0325005Y0290762D01*
X0324854Y0290809D01*
X0324704Y0290860D01*
X0324555Y0290915D01*
X0324408Y0290973D01*
X0324262Y0291035D01*
X0324118Y0291100D01*
X0323976Y0291170D01*
X0323835Y0291242D01*
X0323696Y0291319D01*
X0323560Y0291398D01*
X0323425Y0291482D01*
X0323292Y0291568D01*
X0323162Y0291658D01*
X0323034Y0291751D01*
X0322908Y0291847D01*
X0322785Y0291947D01*
X0322664Y0292049D01*
X0322546Y0292154D01*
X0322431Y0292263D01*
X0322318Y0292374D01*
X0322208Y0292488D01*
X0322101Y0292605D01*
X0321997Y0292724D01*
X0321896Y0292846D01*
X0321799Y0292971D01*
X0321704Y0293098D01*
X0321613Y0293227D01*
X0321524Y0293358D01*
X0321440Y0293492D01*
X0321358Y0293628D01*
X0321280Y0293765D01*
X0321206Y0293905D01*
X0321135Y0294047D01*
X0321067Y0294190D01*
X0321003Y0294335D01*
X0320943Y0294481D01*
X0320887Y0294629D01*
X0320834Y0294778D01*
X0320785Y0294929D01*
X0320740Y0295081D01*
X0320699Y0295234D01*
X0320661Y0295387D01*
X0320628Y0295542D01*
X0320598Y0295698D01*
X0320572Y0295854D01*
X0320551Y0296011D01*
X0320533Y0296168D01*
X0320519Y0296326D01*
X0320509Y0296484D01*
X0320503Y0296642D01*
X0320501Y0296800D01*
X0320501Y0036800D02*
X0320503Y0036958D01*
X0320509Y0037116D01*
X0320519Y0037274D01*
X0320533Y0037432D01*
X0320551Y0037589D01*
X0320572Y0037746D01*
X0320598Y0037902D01*
X0320628Y0038058D01*
X0320661Y0038213D01*
X0320699Y0038366D01*
X0320740Y0038519D01*
X0320785Y0038671D01*
X0320834Y0038822D01*
X0320887Y0038971D01*
X0320943Y0039119D01*
X0321003Y0039265D01*
X0321067Y0039410D01*
X0321135Y0039553D01*
X0321206Y0039695D01*
X0321280Y0039835D01*
X0321358Y0039972D01*
X0321440Y0040108D01*
X0321524Y0040242D01*
X0321613Y0040373D01*
X0321704Y0040502D01*
X0321799Y0040629D01*
X0321896Y0040754D01*
X0321997Y0040876D01*
X0322101Y0040995D01*
X0322208Y0041112D01*
X0322318Y0041226D01*
X0322431Y0041337D01*
X0322546Y0041446D01*
X0322664Y0041551D01*
X0322785Y0041653D01*
X0322908Y0041753D01*
X0323034Y0041849D01*
X0323162Y0041942D01*
X0323292Y0042032D01*
X0323425Y0042118D01*
X0323560Y0042202D01*
X0323696Y0042281D01*
X0323835Y0042358D01*
X0323976Y0042430D01*
X0324118Y0042500D01*
X0324262Y0042565D01*
X0324408Y0042627D01*
X0324555Y0042685D01*
X0324704Y0042740D01*
X0324854Y0042791D01*
X0325005Y0042838D01*
X0325157Y0042881D01*
X0325310Y0042920D01*
X0325465Y0042956D01*
X0325620Y0042987D01*
X0325776Y0043015D01*
X0325932Y0043039D01*
X0326089Y0043059D01*
X0326247Y0043075D01*
X0326404Y0043087D01*
X0326563Y0043095D01*
X0326721Y0043099D01*
X0326879Y0043099D01*
X0327037Y0043095D01*
X0327196Y0043087D01*
X0327353Y0043075D01*
X0327511Y0043059D01*
X0327668Y0043039D01*
X0327824Y0043015D01*
X0327980Y0042987D01*
X0328135Y0042956D01*
X0328290Y0042920D01*
X0328443Y0042881D01*
X0328595Y0042838D01*
X0328746Y0042791D01*
X0328896Y0042740D01*
X0329045Y0042685D01*
X0329192Y0042627D01*
X0329338Y0042565D01*
X0329482Y0042500D01*
X0329624Y0042430D01*
X0329765Y0042358D01*
X0329904Y0042281D01*
X0330040Y0042202D01*
X0330175Y0042118D01*
X0330308Y0042032D01*
X0330438Y0041942D01*
X0330566Y0041849D01*
X0330692Y0041753D01*
X0330815Y0041653D01*
X0330936Y0041551D01*
X0331054Y0041446D01*
X0331169Y0041337D01*
X0331282Y0041226D01*
X0331392Y0041112D01*
X0331499Y0040995D01*
X0331603Y0040876D01*
X0331704Y0040754D01*
X0331801Y0040629D01*
X0331896Y0040502D01*
X0331987Y0040373D01*
X0332076Y0040242D01*
X0332160Y0040108D01*
X0332242Y0039972D01*
X0332320Y0039835D01*
X0332394Y0039695D01*
X0332465Y0039553D01*
X0332533Y0039410D01*
X0332597Y0039265D01*
X0332657Y0039119D01*
X0332713Y0038971D01*
X0332766Y0038822D01*
X0332815Y0038671D01*
X0332860Y0038519D01*
X0332901Y0038366D01*
X0332939Y0038213D01*
X0332972Y0038058D01*
X0333002Y0037902D01*
X0333028Y0037746D01*
X0333049Y0037589D01*
X0333067Y0037432D01*
X0333081Y0037274D01*
X0333091Y0037116D01*
X0333097Y0036958D01*
X0333099Y0036800D01*
X0333097Y0036642D01*
X0333091Y0036484D01*
X0333081Y0036326D01*
X0333067Y0036168D01*
X0333049Y0036011D01*
X0333028Y0035854D01*
X0333002Y0035698D01*
X0332972Y0035542D01*
X0332939Y0035387D01*
X0332901Y0035234D01*
X0332860Y0035081D01*
X0332815Y0034929D01*
X0332766Y0034778D01*
X0332713Y0034629D01*
X0332657Y0034481D01*
X0332597Y0034335D01*
X0332533Y0034190D01*
X0332465Y0034047D01*
X0332394Y0033905D01*
X0332320Y0033765D01*
X0332242Y0033628D01*
X0332160Y0033492D01*
X0332076Y0033358D01*
X0331987Y0033227D01*
X0331896Y0033098D01*
X0331801Y0032971D01*
X0331704Y0032846D01*
X0331603Y0032724D01*
X0331499Y0032605D01*
X0331392Y0032488D01*
X0331282Y0032374D01*
X0331169Y0032263D01*
X0331054Y0032154D01*
X0330936Y0032049D01*
X0330815Y0031947D01*
X0330692Y0031847D01*
X0330566Y0031751D01*
X0330438Y0031658D01*
X0330308Y0031568D01*
X0330175Y0031482D01*
X0330040Y0031398D01*
X0329904Y0031319D01*
X0329765Y0031242D01*
X0329624Y0031170D01*
X0329482Y0031100D01*
X0329338Y0031035D01*
X0329192Y0030973D01*
X0329045Y0030915D01*
X0328896Y0030860D01*
X0328746Y0030809D01*
X0328595Y0030762D01*
X0328443Y0030719D01*
X0328290Y0030680D01*
X0328135Y0030644D01*
X0327980Y0030613D01*
X0327824Y0030585D01*
X0327668Y0030561D01*
X0327511Y0030541D01*
X0327353Y0030525D01*
X0327196Y0030513D01*
X0327037Y0030505D01*
X0326879Y0030501D01*
X0326721Y0030501D01*
X0326563Y0030505D01*
X0326404Y0030513D01*
X0326247Y0030525D01*
X0326089Y0030541D01*
X0325932Y0030561D01*
X0325776Y0030585D01*
X0325620Y0030613D01*
X0325465Y0030644D01*
X0325310Y0030680D01*
X0325157Y0030719D01*
X0325005Y0030762D01*
X0324854Y0030809D01*
X0324704Y0030860D01*
X0324555Y0030915D01*
X0324408Y0030973D01*
X0324262Y0031035D01*
X0324118Y0031100D01*
X0323976Y0031170D01*
X0323835Y0031242D01*
X0323696Y0031319D01*
X0323560Y0031398D01*
X0323425Y0031482D01*
X0323292Y0031568D01*
X0323162Y0031658D01*
X0323034Y0031751D01*
X0322908Y0031847D01*
X0322785Y0031947D01*
X0322664Y0032049D01*
X0322546Y0032154D01*
X0322431Y0032263D01*
X0322318Y0032374D01*
X0322208Y0032488D01*
X0322101Y0032605D01*
X0321997Y0032724D01*
X0321896Y0032846D01*
X0321799Y0032971D01*
X0321704Y0033098D01*
X0321613Y0033227D01*
X0321524Y0033358D01*
X0321440Y0033492D01*
X0321358Y0033628D01*
X0321280Y0033765D01*
X0321206Y0033905D01*
X0321135Y0034047D01*
X0321067Y0034190D01*
X0321003Y0034335D01*
X0320943Y0034481D01*
X0320887Y0034629D01*
X0320834Y0034778D01*
X0320785Y0034929D01*
X0320740Y0035081D01*
X0320699Y0035234D01*
X0320661Y0035387D01*
X0320628Y0035542D01*
X0320598Y0035698D01*
X0320572Y0035854D01*
X0320551Y0036011D01*
X0320533Y0036168D01*
X0320519Y0036326D01*
X0320509Y0036484D01*
X0320503Y0036642D01*
X0320501Y0036800D01*
D11*
X0311800Y0144300D03*
X0316800Y0156800D03*
X0326800Y0156800D03*
X0321800Y0164300D03*
X0321800Y0181800D03*
X0321800Y0201800D03*
X0321800Y0214300D03*
X0321800Y0224300D03*
X0281800Y0224300D03*
X0281800Y0214300D03*
X0281800Y0201800D03*
X0281800Y0181800D03*
X0281800Y0164300D03*
X0276800Y0156800D03*
X0286800Y0156800D03*
X0291800Y0144300D03*
X0271800Y0144300D03*
X0251800Y0144300D03*
X0246800Y0156800D03*
X0236800Y0156800D03*
X0241800Y0164300D03*
X0241800Y0181800D03*
X0241800Y0201800D03*
X0241800Y0214300D03*
X0241800Y0224300D03*
X0201800Y0224300D03*
X0201800Y0214300D03*
X0201800Y0201800D03*
X0201800Y0181800D03*
X0201800Y0164300D03*
X0196800Y0156800D03*
X0206800Y0156800D03*
X0211800Y0144300D03*
X0231800Y0144300D03*
X0191800Y0144300D03*
X0171800Y0144300D03*
X0166800Y0156800D03*
X0156800Y0156800D03*
X0161800Y0164300D03*
X0161800Y0181800D03*
X0161800Y0201800D03*
X0161800Y0214300D03*
X0161800Y0224300D03*
X0121800Y0224300D03*
X0121800Y0214300D03*
X0121800Y0201800D03*
X0121800Y0181800D03*
X0121800Y0164300D03*
X0116800Y0156800D03*
X0126800Y0156800D03*
X0131800Y0144300D03*
X0151800Y0144300D03*
X0111800Y0144300D03*
X0091800Y0144300D03*
X0086800Y0156800D03*
X0076800Y0156800D03*
X0081800Y0164300D03*
X0081800Y0181800D03*
X0081800Y0201800D03*
X0081800Y0214300D03*
X0081800Y0224300D03*
X0041800Y0224300D03*
X0041800Y0214300D03*
X0041800Y0201800D03*
X0041800Y0181800D03*
X0041800Y0164300D03*
X0036800Y0156800D03*
X0046800Y0156800D03*
X0051800Y0144300D03*
X0071800Y0144300D03*
X0031800Y0144300D03*
X0331800Y0144300D03*
D12*
X0326800Y0036800D03*
X0326800Y0296800D03*
X0036800Y0296800D03*
X0036800Y0036800D03*
D13*
X0032900Y0101000D02*
X0032900Y0107000D01*
X0050700Y0107000D02*
X0050700Y0101000D01*
X0072900Y0101000D02*
X0072900Y0107000D01*
X0090700Y0107000D02*
X0090700Y0101000D01*
X0112900Y0101000D02*
X0112900Y0107000D01*
X0130700Y0107000D02*
X0130700Y0101000D01*
X0152900Y0101000D02*
X0152900Y0107000D01*
X0170700Y0107000D02*
X0170700Y0101000D01*
X0192900Y0101000D02*
X0192900Y0107000D01*
X0210700Y0107000D02*
X0210700Y0101000D01*
X0232900Y0101000D02*
X0232900Y0107000D01*
X0250700Y0107000D02*
X0250700Y0101000D01*
X0272900Y0101000D02*
X0272900Y0107000D01*
X0290700Y0107000D02*
X0290700Y0101000D01*
X0312900Y0101000D02*
X0312900Y0107000D01*
X0330700Y0107000D02*
X0330700Y0101000D01*
X0330700Y0126600D02*
X0330700Y0132600D01*
X0312900Y0132600D02*
X0312900Y0126600D01*
X0290700Y0126600D02*
X0290700Y0132600D01*
X0272900Y0132600D02*
X0272900Y0126600D01*
X0250700Y0126600D02*
X0250700Y0132600D01*
X0232900Y0132600D02*
X0232900Y0126600D01*
X0210700Y0126600D02*
X0210700Y0132600D01*
X0192900Y0132600D02*
X0192900Y0126600D01*
X0170700Y0126600D02*
X0170700Y0132600D01*
X0152900Y0132600D02*
X0152900Y0126600D01*
X0130700Y0126600D02*
X0130700Y0132600D01*
X0112900Y0132600D02*
X0112900Y0126600D01*
X0090700Y0126600D02*
X0090700Y0132600D01*
X0072900Y0132600D02*
X0072900Y0126600D01*
X0050700Y0126600D02*
X0050700Y0132600D01*
X0032900Y0132600D02*
X0032900Y0126600D01*
X0066800Y0298800D02*
X0066800Y0304800D01*
X0076800Y0304800D02*
X0076800Y0298800D01*
X0086800Y0298800D02*
X0086800Y0304800D01*
X0096800Y0304800D02*
X0096800Y0298800D01*
X0146800Y0298800D02*
X0146800Y0304800D01*
X0156800Y0304800D02*
X0156800Y0298800D01*
X0166800Y0298800D02*
X0166800Y0304800D01*
X0176800Y0304800D02*
X0176800Y0298800D01*
X0186800Y0298800D02*
X0186800Y0304800D01*
X0196800Y0304800D02*
X0196800Y0298800D01*
X0206800Y0298800D02*
X0206800Y0304800D01*
X0216800Y0304800D02*
X0216800Y0298800D01*
X0266800Y0298800D02*
X0266800Y0304800D01*
X0276800Y0304800D02*
X0276800Y0298800D01*
X0286800Y0298800D02*
X0286800Y0304800D01*
X0296800Y0304800D02*
X0296800Y0298800D01*
D14*
X0291800Y0209300D03*
X0311800Y0209300D03*
X0331800Y0209300D03*
X0331800Y0169300D03*
X0311800Y0169300D03*
X0291800Y0169300D03*
X0271800Y0169300D03*
X0251800Y0169300D03*
X0231800Y0169300D03*
X0211800Y0169300D03*
X0191800Y0169300D03*
X0171800Y0169300D03*
X0151800Y0169300D03*
X0131800Y0169300D03*
X0111800Y0169300D03*
X0091800Y0169300D03*
X0071800Y0169300D03*
X0051800Y0169300D03*
X0031800Y0169300D03*
X0031800Y0209300D03*
X0051800Y0209300D03*
X0071800Y0209300D03*
X0091800Y0209300D03*
X0111800Y0209300D03*
X0131800Y0209300D03*
X0151800Y0209300D03*
X0171800Y0209300D03*
X0191800Y0209300D03*
X0211800Y0209300D03*
X0231800Y0209300D03*
X0251800Y0209300D03*
X0271800Y0209300D03*
D15*
X0323275Y0084143D02*
X0330325Y0084143D01*
X0330325Y0064457D02*
X0323275Y0064457D01*
X0040325Y0064457D02*
X0033275Y0064457D01*
X0033275Y0084143D02*
X0040325Y0084143D01*
D16*
X0081603Y0074335D02*
X0081603Y0068398D01*
X0095383Y0054650D02*
X0095383Y0048713D01*
X0109162Y0068398D02*
X0109162Y0074335D01*
X0122942Y0054650D02*
X0122942Y0048713D01*
X0136721Y0068398D02*
X0136721Y0074335D01*
X0150501Y0054650D02*
X0150501Y0048713D01*
X0164280Y0068398D02*
X0164280Y0074335D01*
X0178060Y0054650D02*
X0178060Y0048713D01*
X0191839Y0068398D02*
X0191839Y0074335D01*
X0205619Y0054650D02*
X0205619Y0048713D01*
X0219398Y0068398D02*
X0219398Y0074335D01*
X0233178Y0054650D02*
X0233178Y0048713D01*
X0246957Y0068398D02*
X0246957Y0074335D01*
X0260737Y0054650D02*
X0260737Y0048713D01*
X0274517Y0068398D02*
X0274517Y0074335D01*
X0288296Y0054650D02*
X0288296Y0048713D01*
D17*
X0286800Y0231600D02*
X0286800Y0236800D01*
X0276800Y0236800D02*
X0276800Y0231600D01*
X0246800Y0231600D02*
X0246800Y0236800D01*
X0236800Y0236800D02*
X0236800Y0231600D01*
X0206800Y0231600D02*
X0206800Y0236800D01*
X0196800Y0236800D02*
X0196800Y0231600D01*
X0166800Y0231600D02*
X0166800Y0236800D01*
X0156800Y0236800D02*
X0156800Y0231600D01*
X0126800Y0231600D02*
X0126800Y0236800D01*
X0116800Y0236800D02*
X0116800Y0231600D01*
X0086800Y0231600D02*
X0086800Y0236800D01*
X0076800Y0236800D02*
X0076800Y0231600D01*
X0046800Y0231600D02*
X0046800Y0236800D01*
X0036800Y0236800D02*
X0036800Y0231600D01*
X0036800Y0266800D02*
X0036800Y0272000D01*
X0046800Y0272000D02*
X0046800Y0266800D01*
X0076800Y0266800D02*
X0076800Y0272000D01*
X0086800Y0272000D02*
X0086800Y0266800D01*
X0116800Y0266800D02*
X0116800Y0272000D01*
X0126800Y0272000D02*
X0126800Y0266800D01*
X0156800Y0266800D02*
X0156800Y0272000D01*
X0166800Y0272000D02*
X0166800Y0266800D01*
X0196800Y0266800D02*
X0196800Y0272000D01*
X0206800Y0272000D02*
X0206800Y0266800D01*
X0236800Y0266800D02*
X0236800Y0272000D01*
X0246800Y0272000D02*
X0246800Y0266800D01*
X0276800Y0266800D02*
X0276800Y0272000D01*
X0286800Y0272000D02*
X0286800Y0266800D01*
X0316800Y0266800D02*
X0316800Y0272000D01*
X0326800Y0272000D02*
X0326800Y0266800D01*
X0326800Y0236800D02*
X0326800Y0231600D01*
X0316800Y0231600D02*
X0316800Y0236800D01*
M02*
