%
M48
M72
T01C0.0320
T02C0.0400
T03C0.0470
T04C0.1260
%
T01
X5430Y7680
X9430Y7680
X10430Y7680
X14430Y7680
X15430Y7680
X19430Y7680
X20430Y7680
X24430Y7680
T02
X6430Y5680
X7430Y5680
X8430Y5680
X11430Y5680
X12430Y5680
X13430Y5680
X16430Y5680
X17430Y5680
X18430Y5680
X21430Y5680
X22430Y5680
X23430Y5680
X21430Y10680
X20430Y10680
X19430Y10680
X18430Y10680
X11430Y10680
X10430Y10680
X9430Y10680
X8430Y10680
T03
X2430Y7180
X2430Y5180
X6430Y1930
X8430Y1930
X11430Y1930
X13430Y1930
X16430Y1930
X18430Y1930
X21430Y1930
X23430Y1930
X27430Y5180
X27430Y7180
T04
X2680Y10180
X2680Y2180
X27180Y2180
X27180Y10180
M30
