G75*
%MOIN*%
%OFA0B0*%
%FSLAX25Y25*%
%IPPOS*%
%LPD*%
%AMOC8*
5,1,8,0,0,1.08239X$1,22.5*
%
%ADD10C,0.00000*%
%ADD11C,0.06000*%
%ADD12OC8,0.05200*%
%ADD13C,0.07050*%
%ADD14C,0.01600*%
%ADD15C,0.06600*%
D10*
X0006800Y0001800D02*
X0006800Y0121761D01*
X0290501Y0121761D01*
X0290501Y0001800D01*
X0006800Y0001800D01*
X0020501Y0021800D02*
X0020503Y0021958D01*
X0020509Y0022116D01*
X0020519Y0022274D01*
X0020533Y0022432D01*
X0020551Y0022589D01*
X0020572Y0022746D01*
X0020598Y0022902D01*
X0020628Y0023058D01*
X0020661Y0023213D01*
X0020699Y0023366D01*
X0020740Y0023519D01*
X0020785Y0023671D01*
X0020834Y0023822D01*
X0020887Y0023971D01*
X0020943Y0024119D01*
X0021003Y0024265D01*
X0021067Y0024410D01*
X0021135Y0024553D01*
X0021206Y0024695D01*
X0021280Y0024835D01*
X0021358Y0024972D01*
X0021440Y0025108D01*
X0021524Y0025242D01*
X0021613Y0025373D01*
X0021704Y0025502D01*
X0021799Y0025629D01*
X0021896Y0025754D01*
X0021997Y0025876D01*
X0022101Y0025995D01*
X0022208Y0026112D01*
X0022318Y0026226D01*
X0022431Y0026337D01*
X0022546Y0026446D01*
X0022664Y0026551D01*
X0022785Y0026653D01*
X0022908Y0026753D01*
X0023034Y0026849D01*
X0023162Y0026942D01*
X0023292Y0027032D01*
X0023425Y0027118D01*
X0023560Y0027202D01*
X0023696Y0027281D01*
X0023835Y0027358D01*
X0023976Y0027430D01*
X0024118Y0027500D01*
X0024262Y0027565D01*
X0024408Y0027627D01*
X0024555Y0027685D01*
X0024704Y0027740D01*
X0024854Y0027791D01*
X0025005Y0027838D01*
X0025157Y0027881D01*
X0025310Y0027920D01*
X0025465Y0027956D01*
X0025620Y0027987D01*
X0025776Y0028015D01*
X0025932Y0028039D01*
X0026089Y0028059D01*
X0026247Y0028075D01*
X0026404Y0028087D01*
X0026563Y0028095D01*
X0026721Y0028099D01*
X0026879Y0028099D01*
X0027037Y0028095D01*
X0027196Y0028087D01*
X0027353Y0028075D01*
X0027511Y0028059D01*
X0027668Y0028039D01*
X0027824Y0028015D01*
X0027980Y0027987D01*
X0028135Y0027956D01*
X0028290Y0027920D01*
X0028443Y0027881D01*
X0028595Y0027838D01*
X0028746Y0027791D01*
X0028896Y0027740D01*
X0029045Y0027685D01*
X0029192Y0027627D01*
X0029338Y0027565D01*
X0029482Y0027500D01*
X0029624Y0027430D01*
X0029765Y0027358D01*
X0029904Y0027281D01*
X0030040Y0027202D01*
X0030175Y0027118D01*
X0030308Y0027032D01*
X0030438Y0026942D01*
X0030566Y0026849D01*
X0030692Y0026753D01*
X0030815Y0026653D01*
X0030936Y0026551D01*
X0031054Y0026446D01*
X0031169Y0026337D01*
X0031282Y0026226D01*
X0031392Y0026112D01*
X0031499Y0025995D01*
X0031603Y0025876D01*
X0031704Y0025754D01*
X0031801Y0025629D01*
X0031896Y0025502D01*
X0031987Y0025373D01*
X0032076Y0025242D01*
X0032160Y0025108D01*
X0032242Y0024972D01*
X0032320Y0024835D01*
X0032394Y0024695D01*
X0032465Y0024553D01*
X0032533Y0024410D01*
X0032597Y0024265D01*
X0032657Y0024119D01*
X0032713Y0023971D01*
X0032766Y0023822D01*
X0032815Y0023671D01*
X0032860Y0023519D01*
X0032901Y0023366D01*
X0032939Y0023213D01*
X0032972Y0023058D01*
X0033002Y0022902D01*
X0033028Y0022746D01*
X0033049Y0022589D01*
X0033067Y0022432D01*
X0033081Y0022274D01*
X0033091Y0022116D01*
X0033097Y0021958D01*
X0033099Y0021800D01*
X0033097Y0021642D01*
X0033091Y0021484D01*
X0033081Y0021326D01*
X0033067Y0021168D01*
X0033049Y0021011D01*
X0033028Y0020854D01*
X0033002Y0020698D01*
X0032972Y0020542D01*
X0032939Y0020387D01*
X0032901Y0020234D01*
X0032860Y0020081D01*
X0032815Y0019929D01*
X0032766Y0019778D01*
X0032713Y0019629D01*
X0032657Y0019481D01*
X0032597Y0019335D01*
X0032533Y0019190D01*
X0032465Y0019047D01*
X0032394Y0018905D01*
X0032320Y0018765D01*
X0032242Y0018628D01*
X0032160Y0018492D01*
X0032076Y0018358D01*
X0031987Y0018227D01*
X0031896Y0018098D01*
X0031801Y0017971D01*
X0031704Y0017846D01*
X0031603Y0017724D01*
X0031499Y0017605D01*
X0031392Y0017488D01*
X0031282Y0017374D01*
X0031169Y0017263D01*
X0031054Y0017154D01*
X0030936Y0017049D01*
X0030815Y0016947D01*
X0030692Y0016847D01*
X0030566Y0016751D01*
X0030438Y0016658D01*
X0030308Y0016568D01*
X0030175Y0016482D01*
X0030040Y0016398D01*
X0029904Y0016319D01*
X0029765Y0016242D01*
X0029624Y0016170D01*
X0029482Y0016100D01*
X0029338Y0016035D01*
X0029192Y0015973D01*
X0029045Y0015915D01*
X0028896Y0015860D01*
X0028746Y0015809D01*
X0028595Y0015762D01*
X0028443Y0015719D01*
X0028290Y0015680D01*
X0028135Y0015644D01*
X0027980Y0015613D01*
X0027824Y0015585D01*
X0027668Y0015561D01*
X0027511Y0015541D01*
X0027353Y0015525D01*
X0027196Y0015513D01*
X0027037Y0015505D01*
X0026879Y0015501D01*
X0026721Y0015501D01*
X0026563Y0015505D01*
X0026404Y0015513D01*
X0026247Y0015525D01*
X0026089Y0015541D01*
X0025932Y0015561D01*
X0025776Y0015585D01*
X0025620Y0015613D01*
X0025465Y0015644D01*
X0025310Y0015680D01*
X0025157Y0015719D01*
X0025005Y0015762D01*
X0024854Y0015809D01*
X0024704Y0015860D01*
X0024555Y0015915D01*
X0024408Y0015973D01*
X0024262Y0016035D01*
X0024118Y0016100D01*
X0023976Y0016170D01*
X0023835Y0016242D01*
X0023696Y0016319D01*
X0023560Y0016398D01*
X0023425Y0016482D01*
X0023292Y0016568D01*
X0023162Y0016658D01*
X0023034Y0016751D01*
X0022908Y0016847D01*
X0022785Y0016947D01*
X0022664Y0017049D01*
X0022546Y0017154D01*
X0022431Y0017263D01*
X0022318Y0017374D01*
X0022208Y0017488D01*
X0022101Y0017605D01*
X0021997Y0017724D01*
X0021896Y0017846D01*
X0021799Y0017971D01*
X0021704Y0018098D01*
X0021613Y0018227D01*
X0021524Y0018358D01*
X0021440Y0018492D01*
X0021358Y0018628D01*
X0021280Y0018765D01*
X0021206Y0018905D01*
X0021135Y0019047D01*
X0021067Y0019190D01*
X0021003Y0019335D01*
X0020943Y0019481D01*
X0020887Y0019629D01*
X0020834Y0019778D01*
X0020785Y0019929D01*
X0020740Y0020081D01*
X0020699Y0020234D01*
X0020661Y0020387D01*
X0020628Y0020542D01*
X0020598Y0020698D01*
X0020572Y0020854D01*
X0020551Y0021011D01*
X0020533Y0021168D01*
X0020519Y0021326D01*
X0020509Y0021484D01*
X0020503Y0021642D01*
X0020501Y0021800D01*
X0020501Y0101800D02*
X0020503Y0101958D01*
X0020509Y0102116D01*
X0020519Y0102274D01*
X0020533Y0102432D01*
X0020551Y0102589D01*
X0020572Y0102746D01*
X0020598Y0102902D01*
X0020628Y0103058D01*
X0020661Y0103213D01*
X0020699Y0103366D01*
X0020740Y0103519D01*
X0020785Y0103671D01*
X0020834Y0103822D01*
X0020887Y0103971D01*
X0020943Y0104119D01*
X0021003Y0104265D01*
X0021067Y0104410D01*
X0021135Y0104553D01*
X0021206Y0104695D01*
X0021280Y0104835D01*
X0021358Y0104972D01*
X0021440Y0105108D01*
X0021524Y0105242D01*
X0021613Y0105373D01*
X0021704Y0105502D01*
X0021799Y0105629D01*
X0021896Y0105754D01*
X0021997Y0105876D01*
X0022101Y0105995D01*
X0022208Y0106112D01*
X0022318Y0106226D01*
X0022431Y0106337D01*
X0022546Y0106446D01*
X0022664Y0106551D01*
X0022785Y0106653D01*
X0022908Y0106753D01*
X0023034Y0106849D01*
X0023162Y0106942D01*
X0023292Y0107032D01*
X0023425Y0107118D01*
X0023560Y0107202D01*
X0023696Y0107281D01*
X0023835Y0107358D01*
X0023976Y0107430D01*
X0024118Y0107500D01*
X0024262Y0107565D01*
X0024408Y0107627D01*
X0024555Y0107685D01*
X0024704Y0107740D01*
X0024854Y0107791D01*
X0025005Y0107838D01*
X0025157Y0107881D01*
X0025310Y0107920D01*
X0025465Y0107956D01*
X0025620Y0107987D01*
X0025776Y0108015D01*
X0025932Y0108039D01*
X0026089Y0108059D01*
X0026247Y0108075D01*
X0026404Y0108087D01*
X0026563Y0108095D01*
X0026721Y0108099D01*
X0026879Y0108099D01*
X0027037Y0108095D01*
X0027196Y0108087D01*
X0027353Y0108075D01*
X0027511Y0108059D01*
X0027668Y0108039D01*
X0027824Y0108015D01*
X0027980Y0107987D01*
X0028135Y0107956D01*
X0028290Y0107920D01*
X0028443Y0107881D01*
X0028595Y0107838D01*
X0028746Y0107791D01*
X0028896Y0107740D01*
X0029045Y0107685D01*
X0029192Y0107627D01*
X0029338Y0107565D01*
X0029482Y0107500D01*
X0029624Y0107430D01*
X0029765Y0107358D01*
X0029904Y0107281D01*
X0030040Y0107202D01*
X0030175Y0107118D01*
X0030308Y0107032D01*
X0030438Y0106942D01*
X0030566Y0106849D01*
X0030692Y0106753D01*
X0030815Y0106653D01*
X0030936Y0106551D01*
X0031054Y0106446D01*
X0031169Y0106337D01*
X0031282Y0106226D01*
X0031392Y0106112D01*
X0031499Y0105995D01*
X0031603Y0105876D01*
X0031704Y0105754D01*
X0031801Y0105629D01*
X0031896Y0105502D01*
X0031987Y0105373D01*
X0032076Y0105242D01*
X0032160Y0105108D01*
X0032242Y0104972D01*
X0032320Y0104835D01*
X0032394Y0104695D01*
X0032465Y0104553D01*
X0032533Y0104410D01*
X0032597Y0104265D01*
X0032657Y0104119D01*
X0032713Y0103971D01*
X0032766Y0103822D01*
X0032815Y0103671D01*
X0032860Y0103519D01*
X0032901Y0103366D01*
X0032939Y0103213D01*
X0032972Y0103058D01*
X0033002Y0102902D01*
X0033028Y0102746D01*
X0033049Y0102589D01*
X0033067Y0102432D01*
X0033081Y0102274D01*
X0033091Y0102116D01*
X0033097Y0101958D01*
X0033099Y0101800D01*
X0033097Y0101642D01*
X0033091Y0101484D01*
X0033081Y0101326D01*
X0033067Y0101168D01*
X0033049Y0101011D01*
X0033028Y0100854D01*
X0033002Y0100698D01*
X0032972Y0100542D01*
X0032939Y0100387D01*
X0032901Y0100234D01*
X0032860Y0100081D01*
X0032815Y0099929D01*
X0032766Y0099778D01*
X0032713Y0099629D01*
X0032657Y0099481D01*
X0032597Y0099335D01*
X0032533Y0099190D01*
X0032465Y0099047D01*
X0032394Y0098905D01*
X0032320Y0098765D01*
X0032242Y0098628D01*
X0032160Y0098492D01*
X0032076Y0098358D01*
X0031987Y0098227D01*
X0031896Y0098098D01*
X0031801Y0097971D01*
X0031704Y0097846D01*
X0031603Y0097724D01*
X0031499Y0097605D01*
X0031392Y0097488D01*
X0031282Y0097374D01*
X0031169Y0097263D01*
X0031054Y0097154D01*
X0030936Y0097049D01*
X0030815Y0096947D01*
X0030692Y0096847D01*
X0030566Y0096751D01*
X0030438Y0096658D01*
X0030308Y0096568D01*
X0030175Y0096482D01*
X0030040Y0096398D01*
X0029904Y0096319D01*
X0029765Y0096242D01*
X0029624Y0096170D01*
X0029482Y0096100D01*
X0029338Y0096035D01*
X0029192Y0095973D01*
X0029045Y0095915D01*
X0028896Y0095860D01*
X0028746Y0095809D01*
X0028595Y0095762D01*
X0028443Y0095719D01*
X0028290Y0095680D01*
X0028135Y0095644D01*
X0027980Y0095613D01*
X0027824Y0095585D01*
X0027668Y0095561D01*
X0027511Y0095541D01*
X0027353Y0095525D01*
X0027196Y0095513D01*
X0027037Y0095505D01*
X0026879Y0095501D01*
X0026721Y0095501D01*
X0026563Y0095505D01*
X0026404Y0095513D01*
X0026247Y0095525D01*
X0026089Y0095541D01*
X0025932Y0095561D01*
X0025776Y0095585D01*
X0025620Y0095613D01*
X0025465Y0095644D01*
X0025310Y0095680D01*
X0025157Y0095719D01*
X0025005Y0095762D01*
X0024854Y0095809D01*
X0024704Y0095860D01*
X0024555Y0095915D01*
X0024408Y0095973D01*
X0024262Y0096035D01*
X0024118Y0096100D01*
X0023976Y0096170D01*
X0023835Y0096242D01*
X0023696Y0096319D01*
X0023560Y0096398D01*
X0023425Y0096482D01*
X0023292Y0096568D01*
X0023162Y0096658D01*
X0023034Y0096751D01*
X0022908Y0096847D01*
X0022785Y0096947D01*
X0022664Y0097049D01*
X0022546Y0097154D01*
X0022431Y0097263D01*
X0022318Y0097374D01*
X0022208Y0097488D01*
X0022101Y0097605D01*
X0021997Y0097724D01*
X0021896Y0097846D01*
X0021799Y0097971D01*
X0021704Y0098098D01*
X0021613Y0098227D01*
X0021524Y0098358D01*
X0021440Y0098492D01*
X0021358Y0098628D01*
X0021280Y0098765D01*
X0021206Y0098905D01*
X0021135Y0099047D01*
X0021067Y0099190D01*
X0021003Y0099335D01*
X0020943Y0099481D01*
X0020887Y0099629D01*
X0020834Y0099778D01*
X0020785Y0099929D01*
X0020740Y0100081D01*
X0020699Y0100234D01*
X0020661Y0100387D01*
X0020628Y0100542D01*
X0020598Y0100698D01*
X0020572Y0100854D01*
X0020551Y0101011D01*
X0020533Y0101168D01*
X0020519Y0101326D01*
X0020509Y0101484D01*
X0020503Y0101642D01*
X0020501Y0101800D01*
X0265501Y0101800D02*
X0265503Y0101958D01*
X0265509Y0102116D01*
X0265519Y0102274D01*
X0265533Y0102432D01*
X0265551Y0102589D01*
X0265572Y0102746D01*
X0265598Y0102902D01*
X0265628Y0103058D01*
X0265661Y0103213D01*
X0265699Y0103366D01*
X0265740Y0103519D01*
X0265785Y0103671D01*
X0265834Y0103822D01*
X0265887Y0103971D01*
X0265943Y0104119D01*
X0266003Y0104265D01*
X0266067Y0104410D01*
X0266135Y0104553D01*
X0266206Y0104695D01*
X0266280Y0104835D01*
X0266358Y0104972D01*
X0266440Y0105108D01*
X0266524Y0105242D01*
X0266613Y0105373D01*
X0266704Y0105502D01*
X0266799Y0105629D01*
X0266896Y0105754D01*
X0266997Y0105876D01*
X0267101Y0105995D01*
X0267208Y0106112D01*
X0267318Y0106226D01*
X0267431Y0106337D01*
X0267546Y0106446D01*
X0267664Y0106551D01*
X0267785Y0106653D01*
X0267908Y0106753D01*
X0268034Y0106849D01*
X0268162Y0106942D01*
X0268292Y0107032D01*
X0268425Y0107118D01*
X0268560Y0107202D01*
X0268696Y0107281D01*
X0268835Y0107358D01*
X0268976Y0107430D01*
X0269118Y0107500D01*
X0269262Y0107565D01*
X0269408Y0107627D01*
X0269555Y0107685D01*
X0269704Y0107740D01*
X0269854Y0107791D01*
X0270005Y0107838D01*
X0270157Y0107881D01*
X0270310Y0107920D01*
X0270465Y0107956D01*
X0270620Y0107987D01*
X0270776Y0108015D01*
X0270932Y0108039D01*
X0271089Y0108059D01*
X0271247Y0108075D01*
X0271404Y0108087D01*
X0271563Y0108095D01*
X0271721Y0108099D01*
X0271879Y0108099D01*
X0272037Y0108095D01*
X0272196Y0108087D01*
X0272353Y0108075D01*
X0272511Y0108059D01*
X0272668Y0108039D01*
X0272824Y0108015D01*
X0272980Y0107987D01*
X0273135Y0107956D01*
X0273290Y0107920D01*
X0273443Y0107881D01*
X0273595Y0107838D01*
X0273746Y0107791D01*
X0273896Y0107740D01*
X0274045Y0107685D01*
X0274192Y0107627D01*
X0274338Y0107565D01*
X0274482Y0107500D01*
X0274624Y0107430D01*
X0274765Y0107358D01*
X0274904Y0107281D01*
X0275040Y0107202D01*
X0275175Y0107118D01*
X0275308Y0107032D01*
X0275438Y0106942D01*
X0275566Y0106849D01*
X0275692Y0106753D01*
X0275815Y0106653D01*
X0275936Y0106551D01*
X0276054Y0106446D01*
X0276169Y0106337D01*
X0276282Y0106226D01*
X0276392Y0106112D01*
X0276499Y0105995D01*
X0276603Y0105876D01*
X0276704Y0105754D01*
X0276801Y0105629D01*
X0276896Y0105502D01*
X0276987Y0105373D01*
X0277076Y0105242D01*
X0277160Y0105108D01*
X0277242Y0104972D01*
X0277320Y0104835D01*
X0277394Y0104695D01*
X0277465Y0104553D01*
X0277533Y0104410D01*
X0277597Y0104265D01*
X0277657Y0104119D01*
X0277713Y0103971D01*
X0277766Y0103822D01*
X0277815Y0103671D01*
X0277860Y0103519D01*
X0277901Y0103366D01*
X0277939Y0103213D01*
X0277972Y0103058D01*
X0278002Y0102902D01*
X0278028Y0102746D01*
X0278049Y0102589D01*
X0278067Y0102432D01*
X0278081Y0102274D01*
X0278091Y0102116D01*
X0278097Y0101958D01*
X0278099Y0101800D01*
X0278097Y0101642D01*
X0278091Y0101484D01*
X0278081Y0101326D01*
X0278067Y0101168D01*
X0278049Y0101011D01*
X0278028Y0100854D01*
X0278002Y0100698D01*
X0277972Y0100542D01*
X0277939Y0100387D01*
X0277901Y0100234D01*
X0277860Y0100081D01*
X0277815Y0099929D01*
X0277766Y0099778D01*
X0277713Y0099629D01*
X0277657Y0099481D01*
X0277597Y0099335D01*
X0277533Y0099190D01*
X0277465Y0099047D01*
X0277394Y0098905D01*
X0277320Y0098765D01*
X0277242Y0098628D01*
X0277160Y0098492D01*
X0277076Y0098358D01*
X0276987Y0098227D01*
X0276896Y0098098D01*
X0276801Y0097971D01*
X0276704Y0097846D01*
X0276603Y0097724D01*
X0276499Y0097605D01*
X0276392Y0097488D01*
X0276282Y0097374D01*
X0276169Y0097263D01*
X0276054Y0097154D01*
X0275936Y0097049D01*
X0275815Y0096947D01*
X0275692Y0096847D01*
X0275566Y0096751D01*
X0275438Y0096658D01*
X0275308Y0096568D01*
X0275175Y0096482D01*
X0275040Y0096398D01*
X0274904Y0096319D01*
X0274765Y0096242D01*
X0274624Y0096170D01*
X0274482Y0096100D01*
X0274338Y0096035D01*
X0274192Y0095973D01*
X0274045Y0095915D01*
X0273896Y0095860D01*
X0273746Y0095809D01*
X0273595Y0095762D01*
X0273443Y0095719D01*
X0273290Y0095680D01*
X0273135Y0095644D01*
X0272980Y0095613D01*
X0272824Y0095585D01*
X0272668Y0095561D01*
X0272511Y0095541D01*
X0272353Y0095525D01*
X0272196Y0095513D01*
X0272037Y0095505D01*
X0271879Y0095501D01*
X0271721Y0095501D01*
X0271563Y0095505D01*
X0271404Y0095513D01*
X0271247Y0095525D01*
X0271089Y0095541D01*
X0270932Y0095561D01*
X0270776Y0095585D01*
X0270620Y0095613D01*
X0270465Y0095644D01*
X0270310Y0095680D01*
X0270157Y0095719D01*
X0270005Y0095762D01*
X0269854Y0095809D01*
X0269704Y0095860D01*
X0269555Y0095915D01*
X0269408Y0095973D01*
X0269262Y0096035D01*
X0269118Y0096100D01*
X0268976Y0096170D01*
X0268835Y0096242D01*
X0268696Y0096319D01*
X0268560Y0096398D01*
X0268425Y0096482D01*
X0268292Y0096568D01*
X0268162Y0096658D01*
X0268034Y0096751D01*
X0267908Y0096847D01*
X0267785Y0096947D01*
X0267664Y0097049D01*
X0267546Y0097154D01*
X0267431Y0097263D01*
X0267318Y0097374D01*
X0267208Y0097488D01*
X0267101Y0097605D01*
X0266997Y0097724D01*
X0266896Y0097846D01*
X0266799Y0097971D01*
X0266704Y0098098D01*
X0266613Y0098227D01*
X0266524Y0098358D01*
X0266440Y0098492D01*
X0266358Y0098628D01*
X0266280Y0098765D01*
X0266206Y0098905D01*
X0266135Y0099047D01*
X0266067Y0099190D01*
X0266003Y0099335D01*
X0265943Y0099481D01*
X0265887Y0099629D01*
X0265834Y0099778D01*
X0265785Y0099929D01*
X0265740Y0100081D01*
X0265699Y0100234D01*
X0265661Y0100387D01*
X0265628Y0100542D01*
X0265598Y0100698D01*
X0265572Y0100854D01*
X0265551Y0101011D01*
X0265533Y0101168D01*
X0265519Y0101326D01*
X0265509Y0101484D01*
X0265503Y0101642D01*
X0265501Y0101800D01*
X0265501Y0021800D02*
X0265503Y0021958D01*
X0265509Y0022116D01*
X0265519Y0022274D01*
X0265533Y0022432D01*
X0265551Y0022589D01*
X0265572Y0022746D01*
X0265598Y0022902D01*
X0265628Y0023058D01*
X0265661Y0023213D01*
X0265699Y0023366D01*
X0265740Y0023519D01*
X0265785Y0023671D01*
X0265834Y0023822D01*
X0265887Y0023971D01*
X0265943Y0024119D01*
X0266003Y0024265D01*
X0266067Y0024410D01*
X0266135Y0024553D01*
X0266206Y0024695D01*
X0266280Y0024835D01*
X0266358Y0024972D01*
X0266440Y0025108D01*
X0266524Y0025242D01*
X0266613Y0025373D01*
X0266704Y0025502D01*
X0266799Y0025629D01*
X0266896Y0025754D01*
X0266997Y0025876D01*
X0267101Y0025995D01*
X0267208Y0026112D01*
X0267318Y0026226D01*
X0267431Y0026337D01*
X0267546Y0026446D01*
X0267664Y0026551D01*
X0267785Y0026653D01*
X0267908Y0026753D01*
X0268034Y0026849D01*
X0268162Y0026942D01*
X0268292Y0027032D01*
X0268425Y0027118D01*
X0268560Y0027202D01*
X0268696Y0027281D01*
X0268835Y0027358D01*
X0268976Y0027430D01*
X0269118Y0027500D01*
X0269262Y0027565D01*
X0269408Y0027627D01*
X0269555Y0027685D01*
X0269704Y0027740D01*
X0269854Y0027791D01*
X0270005Y0027838D01*
X0270157Y0027881D01*
X0270310Y0027920D01*
X0270465Y0027956D01*
X0270620Y0027987D01*
X0270776Y0028015D01*
X0270932Y0028039D01*
X0271089Y0028059D01*
X0271247Y0028075D01*
X0271404Y0028087D01*
X0271563Y0028095D01*
X0271721Y0028099D01*
X0271879Y0028099D01*
X0272037Y0028095D01*
X0272196Y0028087D01*
X0272353Y0028075D01*
X0272511Y0028059D01*
X0272668Y0028039D01*
X0272824Y0028015D01*
X0272980Y0027987D01*
X0273135Y0027956D01*
X0273290Y0027920D01*
X0273443Y0027881D01*
X0273595Y0027838D01*
X0273746Y0027791D01*
X0273896Y0027740D01*
X0274045Y0027685D01*
X0274192Y0027627D01*
X0274338Y0027565D01*
X0274482Y0027500D01*
X0274624Y0027430D01*
X0274765Y0027358D01*
X0274904Y0027281D01*
X0275040Y0027202D01*
X0275175Y0027118D01*
X0275308Y0027032D01*
X0275438Y0026942D01*
X0275566Y0026849D01*
X0275692Y0026753D01*
X0275815Y0026653D01*
X0275936Y0026551D01*
X0276054Y0026446D01*
X0276169Y0026337D01*
X0276282Y0026226D01*
X0276392Y0026112D01*
X0276499Y0025995D01*
X0276603Y0025876D01*
X0276704Y0025754D01*
X0276801Y0025629D01*
X0276896Y0025502D01*
X0276987Y0025373D01*
X0277076Y0025242D01*
X0277160Y0025108D01*
X0277242Y0024972D01*
X0277320Y0024835D01*
X0277394Y0024695D01*
X0277465Y0024553D01*
X0277533Y0024410D01*
X0277597Y0024265D01*
X0277657Y0024119D01*
X0277713Y0023971D01*
X0277766Y0023822D01*
X0277815Y0023671D01*
X0277860Y0023519D01*
X0277901Y0023366D01*
X0277939Y0023213D01*
X0277972Y0023058D01*
X0278002Y0022902D01*
X0278028Y0022746D01*
X0278049Y0022589D01*
X0278067Y0022432D01*
X0278081Y0022274D01*
X0278091Y0022116D01*
X0278097Y0021958D01*
X0278099Y0021800D01*
X0278097Y0021642D01*
X0278091Y0021484D01*
X0278081Y0021326D01*
X0278067Y0021168D01*
X0278049Y0021011D01*
X0278028Y0020854D01*
X0278002Y0020698D01*
X0277972Y0020542D01*
X0277939Y0020387D01*
X0277901Y0020234D01*
X0277860Y0020081D01*
X0277815Y0019929D01*
X0277766Y0019778D01*
X0277713Y0019629D01*
X0277657Y0019481D01*
X0277597Y0019335D01*
X0277533Y0019190D01*
X0277465Y0019047D01*
X0277394Y0018905D01*
X0277320Y0018765D01*
X0277242Y0018628D01*
X0277160Y0018492D01*
X0277076Y0018358D01*
X0276987Y0018227D01*
X0276896Y0018098D01*
X0276801Y0017971D01*
X0276704Y0017846D01*
X0276603Y0017724D01*
X0276499Y0017605D01*
X0276392Y0017488D01*
X0276282Y0017374D01*
X0276169Y0017263D01*
X0276054Y0017154D01*
X0275936Y0017049D01*
X0275815Y0016947D01*
X0275692Y0016847D01*
X0275566Y0016751D01*
X0275438Y0016658D01*
X0275308Y0016568D01*
X0275175Y0016482D01*
X0275040Y0016398D01*
X0274904Y0016319D01*
X0274765Y0016242D01*
X0274624Y0016170D01*
X0274482Y0016100D01*
X0274338Y0016035D01*
X0274192Y0015973D01*
X0274045Y0015915D01*
X0273896Y0015860D01*
X0273746Y0015809D01*
X0273595Y0015762D01*
X0273443Y0015719D01*
X0273290Y0015680D01*
X0273135Y0015644D01*
X0272980Y0015613D01*
X0272824Y0015585D01*
X0272668Y0015561D01*
X0272511Y0015541D01*
X0272353Y0015525D01*
X0272196Y0015513D01*
X0272037Y0015505D01*
X0271879Y0015501D01*
X0271721Y0015501D01*
X0271563Y0015505D01*
X0271404Y0015513D01*
X0271247Y0015525D01*
X0271089Y0015541D01*
X0270932Y0015561D01*
X0270776Y0015585D01*
X0270620Y0015613D01*
X0270465Y0015644D01*
X0270310Y0015680D01*
X0270157Y0015719D01*
X0270005Y0015762D01*
X0269854Y0015809D01*
X0269704Y0015860D01*
X0269555Y0015915D01*
X0269408Y0015973D01*
X0269262Y0016035D01*
X0269118Y0016100D01*
X0268976Y0016170D01*
X0268835Y0016242D01*
X0268696Y0016319D01*
X0268560Y0016398D01*
X0268425Y0016482D01*
X0268292Y0016568D01*
X0268162Y0016658D01*
X0268034Y0016751D01*
X0267908Y0016847D01*
X0267785Y0016947D01*
X0267664Y0017049D01*
X0267546Y0017154D01*
X0267431Y0017263D01*
X0267318Y0017374D01*
X0267208Y0017488D01*
X0267101Y0017605D01*
X0266997Y0017724D01*
X0266896Y0017846D01*
X0266799Y0017971D01*
X0266704Y0018098D01*
X0266613Y0018227D01*
X0266524Y0018358D01*
X0266440Y0018492D01*
X0266358Y0018628D01*
X0266280Y0018765D01*
X0266206Y0018905D01*
X0266135Y0019047D01*
X0266067Y0019190D01*
X0266003Y0019335D01*
X0265943Y0019481D01*
X0265887Y0019629D01*
X0265834Y0019778D01*
X0265785Y0019929D01*
X0265740Y0020081D01*
X0265699Y0020234D01*
X0265661Y0020387D01*
X0265628Y0020542D01*
X0265598Y0020698D01*
X0265572Y0020854D01*
X0265551Y0021011D01*
X0265533Y0021168D01*
X0265519Y0021326D01*
X0265509Y0021484D01*
X0265503Y0021642D01*
X0265501Y0021800D01*
D11*
X0234300Y0053800D02*
X0234300Y0059800D01*
X0224300Y0059800D02*
X0224300Y0053800D01*
X0214300Y0053800D02*
X0214300Y0059800D01*
X0184300Y0059800D02*
X0184300Y0053800D01*
X0174300Y0053800D02*
X0174300Y0059800D01*
X0164300Y0059800D02*
X0164300Y0053800D01*
X0134300Y0053800D02*
X0134300Y0059800D01*
X0124300Y0059800D02*
X0124300Y0053800D01*
X0114300Y0053800D02*
X0114300Y0059800D01*
X0084300Y0059800D02*
X0084300Y0053800D01*
X0074300Y0053800D02*
X0074300Y0059800D01*
X0064300Y0059800D02*
X0064300Y0053800D01*
X0067300Y0104300D02*
X0061300Y0104300D01*
X0061300Y0114300D02*
X0067300Y0114300D01*
X0086300Y0114300D02*
X0092300Y0114300D01*
X0111300Y0114300D02*
X0117300Y0114300D01*
X0136300Y0114300D02*
X0142300Y0114300D01*
X0161300Y0114300D02*
X0167300Y0114300D01*
X0186300Y0114300D02*
X0192300Y0114300D01*
X0211300Y0114300D02*
X0217300Y0114300D01*
X0236300Y0114300D02*
X0242300Y0114300D01*
X0242300Y0104300D02*
X0236300Y0104300D01*
X0217300Y0104300D02*
X0211300Y0104300D01*
X0192300Y0104300D02*
X0186300Y0104300D01*
X0167300Y0104300D02*
X0161300Y0104300D01*
X0142300Y0104300D02*
X0136300Y0104300D01*
X0117300Y0104300D02*
X0111300Y0104300D01*
X0092300Y0104300D02*
X0086300Y0104300D01*
D12*
X0094300Y0079300D03*
X0104300Y0079300D03*
X0144300Y0079300D03*
X0154300Y0079300D03*
X0194300Y0079300D03*
X0204300Y0079300D03*
X0244300Y0079300D03*
X0054300Y0079300D03*
D13*
X0027825Y0071800D02*
X0020775Y0071800D01*
X0020775Y0051800D02*
X0027825Y0051800D01*
X0064300Y0022825D02*
X0064300Y0015775D01*
X0084300Y0015775D02*
X0084300Y0022825D01*
X0114300Y0022825D02*
X0114300Y0015775D01*
X0134300Y0015775D02*
X0134300Y0022825D01*
X0164300Y0022825D02*
X0164300Y0015775D01*
X0184300Y0015775D02*
X0184300Y0022825D01*
X0214300Y0022825D02*
X0214300Y0015775D01*
X0234300Y0015775D02*
X0234300Y0022825D01*
X0270775Y0051800D02*
X0277825Y0051800D01*
X0277825Y0071800D02*
X0270775Y0071800D01*
D14*
X0273925Y0072134D02*
X0216700Y0072134D01*
X0216700Y0073306D02*
X0228159Y0084765D01*
X0228835Y0085441D01*
X0229200Y0086323D01*
X0229200Y0111900D01*
X0232315Y0111900D01*
X0232400Y0111694D01*
X0233694Y0110400D01*
X0235385Y0109700D01*
X0243215Y0109700D01*
X0244906Y0110400D01*
X0246200Y0111694D01*
X0246900Y0113385D01*
X0246900Y0115215D01*
X0246200Y0116906D01*
X0246145Y0116961D01*
X0264958Y0116961D01*
X0263400Y0116349D01*
X0259485Y0113227D01*
X0259485Y0113227D01*
X0259485Y0113227D01*
X0256664Y0109089D01*
X0255188Y0104304D01*
X0255188Y0099296D01*
X0256664Y0094511D01*
X0256664Y0094511D01*
X0259485Y0090373D01*
X0263400Y0087251D01*
X0268062Y0085421D01*
X0273055Y0085047D01*
X0273055Y0085047D01*
X0277938Y0086161D01*
X0282275Y0088665D01*
X0285681Y0092336D01*
X0285701Y0092378D01*
X0285701Y0031222D01*
X0285681Y0031264D01*
X0282275Y0034935D01*
X0282275Y0034935D01*
X0277938Y0037439D01*
X0277938Y0037439D01*
X0273055Y0038553D01*
X0268062Y0038179D01*
X0268062Y0038179D01*
X0263400Y0036349D01*
X0259485Y0033227D01*
X0259485Y0033227D01*
X0256664Y0029089D01*
X0255188Y0024304D01*
X0255188Y0019296D01*
X0256664Y0014511D01*
X0256664Y0014511D01*
X0259485Y0010373D01*
X0263400Y0007251D01*
X0265058Y0006600D01*
X0033697Y0006600D01*
X0037275Y0008665D01*
X0040681Y0012336D01*
X0042854Y0016848D01*
X0043600Y0021800D01*
X0042854Y0026752D01*
X0040681Y0031264D01*
X0037275Y0034935D01*
X0037275Y0034935D01*
X0032938Y0037439D01*
X0032938Y0037439D01*
X0028055Y0038553D01*
X0023062Y0038179D01*
X0023062Y0038179D01*
X0018400Y0036349D01*
X0014485Y0033227D01*
X0014485Y0033227D01*
X0011664Y0029089D01*
X0011600Y0028883D01*
X0011600Y0094717D01*
X0011664Y0094511D01*
X0011664Y0094511D01*
X0014485Y0090373D01*
X0018400Y0087251D01*
X0023062Y0085421D01*
X0028055Y0085047D01*
X0028055Y0085047D01*
X0032938Y0086161D01*
X0037275Y0088665D01*
X0040681Y0092336D01*
X0042854Y0096848D01*
X0043600Y0101800D01*
X0042854Y0106752D01*
X0040681Y0111264D01*
X0040681Y0111264D01*
X0037275Y0114935D01*
X0033766Y0116961D01*
X0057455Y0116961D01*
X0057400Y0116906D01*
X0056700Y0115215D01*
X0056700Y0113385D01*
X0057400Y0111694D01*
X0058694Y0110400D01*
X0060385Y0109700D01*
X0068215Y0109700D01*
X0069906Y0110400D01*
X0071200Y0111694D01*
X0071285Y0111900D01*
X0074400Y0111900D01*
X0074400Y0087794D01*
X0062265Y0075659D01*
X0061900Y0074777D01*
X0061900Y0063785D01*
X0061694Y0063700D01*
X0060400Y0062406D01*
X0059700Y0060715D01*
X0059700Y0052885D01*
X0060400Y0051194D01*
X0061694Y0049900D01*
X0063385Y0049200D01*
X0065215Y0049200D01*
X0066906Y0049900D01*
X0068200Y0051194D01*
X0068900Y0052885D01*
X0068900Y0060715D01*
X0068200Y0062406D01*
X0066906Y0063700D01*
X0066700Y0063785D01*
X0066700Y0073306D01*
X0078159Y0084765D01*
X0078835Y0085441D01*
X0079200Y0086323D01*
X0079200Y0111900D01*
X0082315Y0111900D01*
X0082400Y0111694D01*
X0083694Y0110400D01*
X0085385Y0109700D01*
X0093215Y0109700D01*
X0094906Y0110400D01*
X0096200Y0111694D01*
X0096900Y0113385D01*
X0096900Y0115215D01*
X0096200Y0116906D01*
X0096145Y0116961D01*
X0107455Y0116961D01*
X0107400Y0116906D01*
X0106700Y0115215D01*
X0106700Y0113385D01*
X0107400Y0111694D01*
X0108694Y0110400D01*
X0110385Y0109700D01*
X0118215Y0109700D01*
X0119906Y0110400D01*
X0121200Y0111694D01*
X0121285Y0111900D01*
X0124400Y0111900D01*
X0124400Y0087794D01*
X0112265Y0075659D01*
X0111900Y0074777D01*
X0111900Y0063785D01*
X0111694Y0063700D01*
X0110400Y0062406D01*
X0109700Y0060715D01*
X0109700Y0052885D01*
X0110400Y0051194D01*
X0111694Y0049900D01*
X0113385Y0049200D01*
X0115215Y0049200D01*
X0116906Y0049900D01*
X0118200Y0051194D01*
X0118900Y0052885D01*
X0118900Y0060715D01*
X0118200Y0062406D01*
X0116906Y0063700D01*
X0116700Y0063785D01*
X0116700Y0073306D01*
X0128159Y0084765D01*
X0128835Y0085441D01*
X0129200Y0086323D01*
X0129200Y0111900D01*
X0132315Y0111900D01*
X0132400Y0111694D01*
X0133694Y0110400D01*
X0135385Y0109700D01*
X0143215Y0109700D01*
X0144906Y0110400D01*
X0146200Y0111694D01*
X0146900Y0113385D01*
X0146900Y0115215D01*
X0146200Y0116906D01*
X0146145Y0116961D01*
X0157455Y0116961D01*
X0157400Y0116906D01*
X0156700Y0115215D01*
X0156700Y0113385D01*
X0157400Y0111694D01*
X0158694Y0110400D01*
X0160385Y0109700D01*
X0168215Y0109700D01*
X0169906Y0110400D01*
X0171200Y0111694D01*
X0171285Y0111900D01*
X0174400Y0111900D01*
X0174400Y0087794D01*
X0162265Y0075659D01*
X0161900Y0074777D01*
X0161900Y0063785D01*
X0161694Y0063700D01*
X0160400Y0062406D01*
X0159700Y0060715D01*
X0159700Y0052885D01*
X0160400Y0051194D01*
X0161694Y0049900D01*
X0163385Y0049200D01*
X0165215Y0049200D01*
X0166906Y0049900D01*
X0168200Y0051194D01*
X0168900Y0052885D01*
X0168900Y0060715D01*
X0168200Y0062406D01*
X0166906Y0063700D01*
X0166700Y0063785D01*
X0166700Y0073306D01*
X0178159Y0084765D01*
X0178835Y0085441D01*
X0179200Y0086323D01*
X0179200Y0111900D01*
X0182315Y0111900D01*
X0182400Y0111694D01*
X0183694Y0110400D01*
X0185385Y0109700D01*
X0193215Y0109700D01*
X0194906Y0110400D01*
X0196200Y0111694D01*
X0196900Y0113385D01*
X0196900Y0115215D01*
X0196200Y0116906D01*
X0196145Y0116961D01*
X0207455Y0116961D01*
X0207400Y0116906D01*
X0206700Y0115215D01*
X0206700Y0113385D01*
X0207400Y0111694D01*
X0208694Y0110400D01*
X0210385Y0109700D01*
X0218215Y0109700D01*
X0219906Y0110400D01*
X0221200Y0111694D01*
X0221285Y0111900D01*
X0224400Y0111900D01*
X0224400Y0087794D01*
X0212265Y0075659D01*
X0211900Y0074777D01*
X0211900Y0063785D01*
X0211694Y0063700D01*
X0210400Y0062406D01*
X0209700Y0060715D01*
X0209700Y0052885D01*
X0210400Y0051194D01*
X0211694Y0049900D01*
X0213385Y0049200D01*
X0215215Y0049200D01*
X0216906Y0049900D01*
X0218200Y0051194D01*
X0218900Y0052885D01*
X0218900Y0060715D01*
X0218200Y0062406D01*
X0216906Y0063700D01*
X0216700Y0063785D01*
X0216700Y0073306D01*
X0217127Y0073733D02*
X0265804Y0073733D01*
X0265840Y0073844D02*
X0265581Y0073047D01*
X0265450Y0072219D01*
X0265450Y0072175D01*
X0273925Y0072175D01*
X0273925Y0077125D01*
X0270356Y0077125D01*
X0269528Y0076994D01*
X0268731Y0076735D01*
X0267984Y0076354D01*
X0267306Y0075862D01*
X0266713Y0075269D01*
X0266221Y0074591D01*
X0265840Y0073844D01*
X0266776Y0075332D02*
X0246554Y0075332D01*
X0246123Y0074900D02*
X0248700Y0077477D01*
X0248700Y0079300D01*
X0248700Y0081123D01*
X0246123Y0083700D01*
X0244300Y0083700D01*
X0244300Y0079300D01*
X0248700Y0079300D01*
X0244300Y0079300D01*
X0244300Y0079300D01*
X0244300Y0079300D01*
X0244300Y0074900D01*
X0246123Y0074900D01*
X0244300Y0074900D02*
X0244300Y0079300D01*
X0244300Y0079300D01*
X0244300Y0079300D01*
X0239900Y0079300D01*
X0239900Y0081123D01*
X0242477Y0083700D01*
X0244300Y0083700D01*
X0244300Y0079300D01*
X0239900Y0079300D01*
X0239900Y0077477D01*
X0242477Y0074900D01*
X0244300Y0074900D01*
X0244300Y0075332D02*
X0244300Y0075332D01*
X0242046Y0075332D02*
X0218726Y0075332D01*
X0220324Y0076930D02*
X0240447Y0076930D01*
X0239900Y0078529D02*
X0221923Y0078529D01*
X0223521Y0080127D02*
X0239900Y0080127D01*
X0240503Y0081726D02*
X0225120Y0081726D01*
X0226718Y0083324D02*
X0242102Y0083324D01*
X0244300Y0083324D02*
X0244300Y0083324D01*
X0244300Y0081726D02*
X0244300Y0081726D01*
X0246498Y0083324D02*
X0285701Y0083324D01*
X0285701Y0081726D02*
X0248097Y0081726D01*
X0248700Y0080127D02*
X0285701Y0080127D01*
X0285701Y0078529D02*
X0248700Y0078529D01*
X0248153Y0076930D02*
X0269332Y0076930D01*
X0273925Y0076930D02*
X0274675Y0076930D01*
X0274675Y0077125D02*
X0274675Y0072175D01*
X0273925Y0072175D01*
X0273925Y0071425D01*
X0274675Y0071425D01*
X0274675Y0072175D01*
X0283150Y0072175D01*
X0283150Y0072219D01*
X0283019Y0073047D01*
X0282760Y0073844D01*
X0282379Y0074591D01*
X0281887Y0075269D01*
X0281294Y0075862D01*
X0280616Y0076354D01*
X0279869Y0076735D01*
X0279072Y0076994D01*
X0278244Y0077125D01*
X0274675Y0077125D01*
X0274675Y0075332D02*
X0273925Y0075332D01*
X0273925Y0073733D02*
X0274675Y0073733D01*
X0274675Y0072134D02*
X0285701Y0072134D01*
X0285701Y0070536D02*
X0283013Y0070536D01*
X0283019Y0070553D02*
X0283150Y0071381D01*
X0283150Y0071425D01*
X0274675Y0071425D01*
X0274675Y0066475D01*
X0278244Y0066475D01*
X0279072Y0066606D01*
X0279869Y0066865D01*
X0280616Y0067246D01*
X0281294Y0067738D01*
X0281887Y0068331D01*
X0282379Y0069009D01*
X0282760Y0069756D01*
X0283019Y0070553D01*
X0282327Y0068937D02*
X0285701Y0068937D01*
X0285701Y0067339D02*
X0280744Y0067339D01*
X0285701Y0065740D02*
X0216700Y0065740D01*
X0216700Y0067339D02*
X0267856Y0067339D01*
X0267984Y0067246D02*
X0268731Y0066865D01*
X0269528Y0066606D01*
X0270356Y0066475D01*
X0273925Y0066475D01*
X0273925Y0071425D01*
X0265450Y0071425D01*
X0265450Y0071381D01*
X0265581Y0070553D01*
X0265840Y0069756D01*
X0266221Y0069009D01*
X0266713Y0068331D01*
X0267306Y0067738D01*
X0267984Y0067246D01*
X0266273Y0068937D02*
X0216700Y0068937D01*
X0211900Y0068937D02*
X0166700Y0068937D01*
X0166700Y0067339D02*
X0211900Y0067339D01*
X0211900Y0065740D02*
X0166700Y0065740D01*
X0161900Y0065740D02*
X0116700Y0065740D01*
X0116700Y0067339D02*
X0161900Y0067339D01*
X0161900Y0068937D02*
X0116700Y0068937D01*
X0111900Y0068937D02*
X0066700Y0068937D01*
X0066700Y0067339D02*
X0111900Y0067339D01*
X0111900Y0065740D02*
X0066700Y0065740D01*
X0061900Y0065740D02*
X0011600Y0065740D01*
X0011600Y0067339D02*
X0017856Y0067339D01*
X0017984Y0067246D02*
X0018731Y0066865D01*
X0019528Y0066606D01*
X0020356Y0066475D01*
X0023925Y0066475D01*
X0023925Y0071425D01*
X0024675Y0071425D01*
X0024675Y0072175D01*
X0023925Y0072175D01*
X0023925Y0077125D01*
X0020356Y0077125D01*
X0019528Y0076994D01*
X0018731Y0076735D01*
X0017984Y0076354D01*
X0017306Y0075862D01*
X0016713Y0075269D01*
X0016221Y0074591D01*
X0015840Y0073844D01*
X0015581Y0073047D01*
X0015450Y0072219D01*
X0015450Y0072175D01*
X0023925Y0072175D01*
X0023925Y0071425D01*
X0015450Y0071425D01*
X0015450Y0071381D01*
X0015581Y0070553D01*
X0015840Y0069756D01*
X0016221Y0069009D01*
X0016713Y0068331D01*
X0017306Y0067738D01*
X0017984Y0067246D01*
X0016273Y0068937D02*
X0011600Y0068937D01*
X0011600Y0070536D02*
X0015587Y0070536D01*
X0015804Y0073733D02*
X0011600Y0073733D01*
X0011600Y0072134D02*
X0023925Y0072134D01*
X0024675Y0072134D02*
X0061900Y0072134D01*
X0061900Y0070536D02*
X0033013Y0070536D01*
X0033019Y0070553D02*
X0033150Y0071381D01*
X0033150Y0071425D01*
X0024675Y0071425D01*
X0024675Y0066475D01*
X0028244Y0066475D01*
X0029072Y0066606D01*
X0029869Y0066865D01*
X0030616Y0067246D01*
X0031294Y0067738D01*
X0031887Y0068331D01*
X0032379Y0069009D01*
X0032760Y0069756D01*
X0033019Y0070553D01*
X0033150Y0072175D02*
X0033150Y0072219D01*
X0033019Y0073047D01*
X0032760Y0073844D01*
X0032379Y0074591D01*
X0031887Y0075269D01*
X0031294Y0075862D01*
X0030616Y0076354D01*
X0029869Y0076735D01*
X0029072Y0076994D01*
X0028244Y0077125D01*
X0024675Y0077125D01*
X0024675Y0072175D01*
X0033150Y0072175D01*
X0032796Y0073733D02*
X0061900Y0073733D01*
X0062130Y0075332D02*
X0056271Y0075332D01*
X0056040Y0075100D02*
X0058500Y0077560D01*
X0058500Y0080106D01*
X0066335Y0087941D01*
X0066700Y0088823D01*
X0066700Y0099700D01*
X0068215Y0099700D01*
X0069906Y0100400D01*
X0071200Y0101694D01*
X0071900Y0103385D01*
X0071900Y0105215D01*
X0071200Y0106906D01*
X0069906Y0108200D01*
X0068215Y0108900D01*
X0060385Y0108900D01*
X0058694Y0108200D01*
X0057400Y0106906D01*
X0056700Y0105215D01*
X0056700Y0103385D01*
X0057400Y0101694D01*
X0058694Y0100400D01*
X0060385Y0099700D01*
X0061900Y0099700D01*
X0061900Y0090294D01*
X0055106Y0083500D01*
X0052560Y0083500D01*
X0050100Y0081040D01*
X0050100Y0077560D01*
X0052560Y0075100D01*
X0056040Y0075100D01*
X0057870Y0076930D02*
X0063536Y0076930D01*
X0065134Y0078529D02*
X0058500Y0078529D01*
X0058521Y0080127D02*
X0066733Y0080127D01*
X0068331Y0081726D02*
X0060120Y0081726D01*
X0061718Y0083324D02*
X0069930Y0083324D01*
X0071528Y0084923D02*
X0063317Y0084923D01*
X0064915Y0086521D02*
X0073127Y0086521D01*
X0074400Y0088120D02*
X0066409Y0088120D01*
X0066700Y0089718D02*
X0074400Y0089718D01*
X0074400Y0091317D02*
X0066700Y0091317D01*
X0064300Y0089300D02*
X0054300Y0079300D01*
X0050100Y0078529D02*
X0011600Y0078529D01*
X0011600Y0080127D02*
X0050100Y0080127D01*
X0050786Y0081726D02*
X0011600Y0081726D01*
X0011600Y0083324D02*
X0052384Y0083324D01*
X0056528Y0084923D02*
X0011600Y0084923D01*
X0011600Y0086521D02*
X0020259Y0086521D01*
X0018400Y0087251D02*
X0018400Y0087251D01*
X0017310Y0088120D02*
X0011600Y0088120D01*
X0011600Y0089718D02*
X0015306Y0089718D01*
X0014485Y0090373D02*
X0014485Y0090373D01*
X0014485Y0090373D01*
X0013841Y0091317D02*
X0011600Y0091317D01*
X0011600Y0092915D02*
X0012752Y0092915D01*
X0011663Y0094514D02*
X0011600Y0094514D01*
X0023062Y0085421D02*
X0023062Y0085421D01*
X0032938Y0086161D02*
X0032938Y0086161D01*
X0033561Y0086521D02*
X0058127Y0086521D01*
X0059726Y0088120D02*
X0036330Y0088120D01*
X0037275Y0088665D02*
X0037275Y0088665D01*
X0038252Y0089718D02*
X0061324Y0089718D01*
X0061900Y0091317D02*
X0039735Y0091317D01*
X0040681Y0092336D02*
X0040681Y0092336D01*
X0040960Y0092915D02*
X0061900Y0092915D01*
X0061900Y0094514D02*
X0041729Y0094514D01*
X0042499Y0096112D02*
X0061900Y0096112D01*
X0066700Y0096112D02*
X0074400Y0096112D01*
X0074400Y0094514D02*
X0066700Y0094514D01*
X0066700Y0092915D02*
X0074400Y0092915D01*
X0079200Y0092915D02*
X0111900Y0092915D01*
X0111900Y0094514D02*
X0079200Y0094514D01*
X0079200Y0096112D02*
X0111900Y0096112D01*
X0116700Y0096112D02*
X0124400Y0096112D01*
X0124400Y0094514D02*
X0116700Y0094514D01*
X0116700Y0092915D02*
X0124400Y0092915D01*
X0124400Y0091317D02*
X0116700Y0091317D01*
X0116700Y0089718D02*
X0124400Y0089718D01*
X0124400Y0088120D02*
X0116409Y0088120D01*
X0116335Y0087941D02*
X0116700Y0088823D01*
X0116700Y0099700D01*
X0118215Y0099700D01*
X0119906Y0100400D01*
X0121200Y0101694D01*
X0121900Y0103385D01*
X0121900Y0105215D01*
X0121200Y0106906D01*
X0119906Y0108200D01*
X0118215Y0108900D01*
X0110385Y0108900D01*
X0108694Y0108200D01*
X0107400Y0106906D01*
X0106700Y0105215D01*
X0106700Y0103385D01*
X0107400Y0101694D01*
X0108694Y0100400D01*
X0110385Y0099700D01*
X0111900Y0099700D01*
X0111900Y0090294D01*
X0105106Y0083500D01*
X0102560Y0083500D01*
X0100100Y0081040D01*
X0100100Y0077560D01*
X0102560Y0075100D01*
X0106040Y0075100D01*
X0108500Y0077560D01*
X0108500Y0080106D01*
X0116335Y0087941D01*
X0114915Y0086521D02*
X0123127Y0086521D01*
X0121528Y0084923D02*
X0113317Y0084923D01*
X0111718Y0083324D02*
X0119930Y0083324D01*
X0118331Y0081726D02*
X0110120Y0081726D01*
X0108521Y0080127D02*
X0116733Y0080127D01*
X0115134Y0078529D02*
X0108500Y0078529D01*
X0107870Y0076930D02*
X0113536Y0076930D01*
X0112130Y0075332D02*
X0106271Y0075332D01*
X0102329Y0075332D02*
X0096554Y0075332D01*
X0096123Y0074900D02*
X0098700Y0077477D01*
X0098700Y0079300D01*
X0098700Y0081123D01*
X0096123Y0083700D01*
X0094300Y0083700D01*
X0094300Y0079300D01*
X0098700Y0079300D01*
X0094300Y0079300D01*
X0094300Y0079300D01*
X0094300Y0079300D01*
X0094300Y0074900D01*
X0096123Y0074900D01*
X0094300Y0074900D02*
X0094300Y0079300D01*
X0094300Y0079300D01*
X0094300Y0079300D01*
X0089900Y0079300D01*
X0089900Y0081123D01*
X0092477Y0083700D01*
X0094300Y0083700D01*
X0094300Y0079300D01*
X0089900Y0079300D01*
X0089900Y0077477D01*
X0092477Y0074900D01*
X0094300Y0074900D01*
X0094300Y0075332D02*
X0094300Y0075332D01*
X0092046Y0075332D02*
X0068726Y0075332D01*
X0067127Y0073733D02*
X0111900Y0073733D01*
X0111900Y0072134D02*
X0066700Y0072134D01*
X0066700Y0070536D02*
X0111900Y0070536D01*
X0116700Y0070536D02*
X0161900Y0070536D01*
X0161900Y0072134D02*
X0116700Y0072134D01*
X0117127Y0073733D02*
X0161900Y0073733D01*
X0162130Y0075332D02*
X0156271Y0075332D01*
X0156040Y0075100D02*
X0158500Y0077560D01*
X0158500Y0080106D01*
X0165659Y0087265D01*
X0166335Y0087941D01*
X0166700Y0088823D01*
X0166700Y0099700D01*
X0168215Y0099700D01*
X0169906Y0100400D01*
X0171200Y0101694D01*
X0171900Y0103385D01*
X0171900Y0105215D01*
X0171200Y0106906D01*
X0169906Y0108200D01*
X0168215Y0108900D01*
X0160385Y0108900D01*
X0158694Y0108200D01*
X0157400Y0106906D01*
X0156700Y0105215D01*
X0156700Y0103385D01*
X0157400Y0101694D01*
X0158694Y0100400D01*
X0160385Y0099700D01*
X0161900Y0099700D01*
X0161900Y0090294D01*
X0155106Y0083500D01*
X0152560Y0083500D01*
X0150100Y0081040D01*
X0150100Y0077560D01*
X0152560Y0075100D01*
X0156040Y0075100D01*
X0157870Y0076930D02*
X0163536Y0076930D01*
X0165134Y0078529D02*
X0158500Y0078529D01*
X0158521Y0080127D02*
X0166733Y0080127D01*
X0168331Y0081726D02*
X0160120Y0081726D01*
X0161718Y0083324D02*
X0169930Y0083324D01*
X0171528Y0084923D02*
X0163317Y0084923D01*
X0164915Y0086521D02*
X0173127Y0086521D01*
X0174400Y0088120D02*
X0166409Y0088120D01*
X0165659Y0087265D02*
X0165659Y0087265D01*
X0164300Y0089300D02*
X0154300Y0079300D01*
X0150100Y0078529D02*
X0148700Y0078529D01*
X0148700Y0079300D02*
X0144300Y0079300D01*
X0148700Y0079300D01*
X0148700Y0081123D01*
X0146123Y0083700D01*
X0144300Y0083700D01*
X0144300Y0079300D01*
X0144300Y0079300D01*
X0144300Y0079300D01*
X0144300Y0074900D01*
X0146123Y0074900D01*
X0148700Y0077477D01*
X0148700Y0079300D01*
X0148700Y0080127D02*
X0150100Y0080127D01*
X0150786Y0081726D02*
X0148097Y0081726D01*
X0146498Y0083324D02*
X0152384Y0083324D01*
X0156528Y0084923D02*
X0128317Y0084923D01*
X0126718Y0083324D02*
X0142102Y0083324D01*
X0142477Y0083700D02*
X0139900Y0081123D01*
X0139900Y0079300D01*
X0144300Y0079300D01*
X0144300Y0079300D01*
X0144300Y0079300D01*
X0144300Y0083700D01*
X0142477Y0083700D01*
X0144300Y0083324D02*
X0144300Y0083324D01*
X0144300Y0081726D02*
X0144300Y0081726D01*
X0144300Y0080127D02*
X0144300Y0080127D01*
X0144300Y0079300D02*
X0139900Y0079300D01*
X0139900Y0077477D01*
X0142477Y0074900D01*
X0144300Y0074900D01*
X0144300Y0079300D01*
X0144300Y0078529D02*
X0144300Y0078529D01*
X0144300Y0076930D02*
X0144300Y0076930D01*
X0148153Y0076930D02*
X0150730Y0076930D01*
X0152329Y0075332D02*
X0146554Y0075332D01*
X0144300Y0075332D02*
X0144300Y0075332D01*
X0142046Y0075332D02*
X0118726Y0075332D01*
X0120324Y0076930D02*
X0140447Y0076930D01*
X0139900Y0078529D02*
X0121923Y0078529D01*
X0123521Y0080127D02*
X0139900Y0080127D01*
X0140503Y0081726D02*
X0125120Y0081726D01*
X0126800Y0086800D02*
X0126800Y0114300D01*
X0114300Y0114300D01*
X0107395Y0116893D02*
X0096205Y0116893D01*
X0096867Y0115294D02*
X0106733Y0115294D01*
X0106700Y0113696D02*
X0096900Y0113696D01*
X0096367Y0112097D02*
X0107233Y0112097D01*
X0108596Y0110499D02*
X0095004Y0110499D01*
X0094143Y0108748D02*
X0093424Y0108982D01*
X0092678Y0109100D01*
X0089500Y0109100D01*
X0089500Y0104500D01*
X0089100Y0104500D01*
X0089100Y0109100D01*
X0085922Y0109100D01*
X0085176Y0108982D01*
X0084457Y0108748D01*
X0083784Y0108405D01*
X0083173Y0107961D01*
X0082639Y0107427D01*
X0082195Y0106816D01*
X0081852Y0106143D01*
X0081618Y0105424D01*
X0081500Y0104678D01*
X0081500Y0104500D01*
X0089100Y0104500D01*
X0089100Y0104100D01*
X0089500Y0104100D01*
X0089500Y0104500D01*
X0097100Y0104500D01*
X0097100Y0104678D01*
X0096982Y0105424D01*
X0096748Y0106143D01*
X0096405Y0106816D01*
X0095961Y0107427D01*
X0095427Y0107961D01*
X0094816Y0108405D01*
X0094143Y0108748D01*
X0093675Y0108900D02*
X0124400Y0108900D01*
X0124400Y0110499D02*
X0120004Y0110499D01*
X0120804Y0107302D02*
X0124400Y0107302D01*
X0124400Y0105703D02*
X0121698Y0105703D01*
X0121900Y0104105D02*
X0124400Y0104105D01*
X0124400Y0102506D02*
X0121536Y0102506D01*
X0120413Y0100908D02*
X0124400Y0100908D01*
X0124400Y0099309D02*
X0116700Y0099309D01*
X0116700Y0097711D02*
X0124400Y0097711D01*
X0129200Y0097711D02*
X0161900Y0097711D01*
X0161900Y0099309D02*
X0129200Y0099309D01*
X0129200Y0100908D02*
X0132904Y0100908D01*
X0132639Y0101173D02*
X0133173Y0100639D01*
X0133784Y0100195D01*
X0134457Y0099852D01*
X0135176Y0099618D01*
X0135922Y0099500D01*
X0139100Y0099500D01*
X0139100Y0104100D01*
X0139500Y0104100D01*
X0139500Y0104500D01*
X0139100Y0104500D01*
X0139100Y0109100D01*
X0135922Y0109100D01*
X0135176Y0108982D01*
X0134457Y0108748D01*
X0133784Y0108405D01*
X0133173Y0107961D01*
X0132639Y0107427D01*
X0132195Y0106816D01*
X0131852Y0106143D01*
X0131618Y0105424D01*
X0131500Y0104678D01*
X0131500Y0104500D01*
X0139100Y0104500D01*
X0139100Y0104100D01*
X0131500Y0104100D01*
X0131500Y0103922D01*
X0131618Y0103176D01*
X0131852Y0102457D01*
X0132195Y0101784D01*
X0132639Y0101173D01*
X0131836Y0102506D02*
X0129200Y0102506D01*
X0129200Y0104105D02*
X0139100Y0104105D01*
X0139500Y0104100D02*
X0139500Y0099500D01*
X0142678Y0099500D01*
X0143424Y0099618D01*
X0144143Y0099852D01*
X0144816Y0100195D01*
X0145427Y0100639D01*
X0145961Y0101173D01*
X0146405Y0101784D01*
X0146748Y0102457D01*
X0146982Y0103176D01*
X0147100Y0103922D01*
X0147100Y0104100D01*
X0139500Y0104100D01*
X0139500Y0104105D02*
X0156700Y0104105D01*
X0156902Y0105703D02*
X0146891Y0105703D01*
X0146982Y0105424D02*
X0146748Y0106143D01*
X0146405Y0106816D01*
X0145961Y0107427D01*
X0145427Y0107961D01*
X0144816Y0108405D01*
X0144143Y0108748D01*
X0143424Y0108982D01*
X0142678Y0109100D01*
X0139500Y0109100D01*
X0139500Y0104500D01*
X0147100Y0104500D01*
X0147100Y0104678D01*
X0146982Y0105424D01*
X0146052Y0107302D02*
X0157796Y0107302D01*
X0164300Y0104300D02*
X0164300Y0089300D01*
X0166700Y0089718D02*
X0174400Y0089718D01*
X0174400Y0091317D02*
X0166700Y0091317D01*
X0161900Y0091317D02*
X0129200Y0091317D01*
X0129200Y0089718D02*
X0161324Y0089718D01*
X0159726Y0088120D02*
X0129200Y0088120D01*
X0129200Y0086521D02*
X0158127Y0086521D01*
X0161900Y0092915D02*
X0129200Y0092915D01*
X0129200Y0094514D02*
X0161900Y0094514D01*
X0161900Y0096112D02*
X0129200Y0096112D01*
X0139100Y0100908D02*
X0139500Y0100908D01*
X0139500Y0102506D02*
X0139100Y0102506D01*
X0145696Y0100908D02*
X0158187Y0100908D01*
X0157064Y0102506D02*
X0146764Y0102506D01*
X0139500Y0105703D02*
X0139100Y0105703D01*
X0139100Y0107302D02*
X0139500Y0107302D01*
X0139500Y0108900D02*
X0139100Y0108900D01*
X0143675Y0108900D02*
X0174400Y0108900D01*
X0174400Y0110499D02*
X0170004Y0110499D01*
X0170804Y0107302D02*
X0174400Y0107302D01*
X0174400Y0105703D02*
X0171698Y0105703D01*
X0171900Y0104105D02*
X0174400Y0104105D01*
X0174400Y0102506D02*
X0171536Y0102506D01*
X0170413Y0100908D02*
X0174400Y0100908D01*
X0174400Y0099309D02*
X0166700Y0099309D01*
X0166700Y0097711D02*
X0174400Y0097711D01*
X0174400Y0096112D02*
X0166700Y0096112D01*
X0166700Y0094514D02*
X0174400Y0094514D01*
X0174400Y0092915D02*
X0166700Y0092915D01*
X0176800Y0086800D02*
X0176800Y0114300D01*
X0164300Y0114300D01*
X0157395Y0116893D02*
X0146205Y0116893D01*
X0146867Y0115294D02*
X0156733Y0115294D01*
X0156700Y0113696D02*
X0146900Y0113696D01*
X0146367Y0112097D02*
X0157233Y0112097D01*
X0158596Y0110499D02*
X0145004Y0110499D01*
X0139300Y0114300D02*
X0126800Y0114300D01*
X0129200Y0110499D02*
X0133596Y0110499D01*
X0134925Y0108900D02*
X0129200Y0108900D01*
X0129200Y0107302D02*
X0132548Y0107302D01*
X0131709Y0105703D02*
X0129200Y0105703D01*
X0114300Y0104300D02*
X0114300Y0089300D01*
X0104300Y0079300D01*
X0100100Y0078529D02*
X0098700Y0078529D01*
X0098700Y0080127D02*
X0100100Y0080127D01*
X0100786Y0081726D02*
X0098097Y0081726D01*
X0096498Y0083324D02*
X0102384Y0083324D01*
X0106528Y0084923D02*
X0078317Y0084923D01*
X0076718Y0083324D02*
X0092102Y0083324D01*
X0094300Y0083324D02*
X0094300Y0083324D01*
X0094300Y0081726D02*
X0094300Y0081726D01*
X0094300Y0080127D02*
X0094300Y0080127D01*
X0094300Y0078529D02*
X0094300Y0078529D01*
X0094300Y0076930D02*
X0094300Y0076930D01*
X0098153Y0076930D02*
X0100730Y0076930D01*
X0090447Y0076930D02*
X0070324Y0076930D01*
X0071923Y0078529D02*
X0089900Y0078529D01*
X0089900Y0080127D02*
X0073521Y0080127D01*
X0075120Y0081726D02*
X0090503Y0081726D01*
X0079200Y0086521D02*
X0108127Y0086521D01*
X0109726Y0088120D02*
X0079200Y0088120D01*
X0079200Y0089718D02*
X0111324Y0089718D01*
X0111900Y0091317D02*
X0079200Y0091317D01*
X0076800Y0086800D02*
X0076800Y0114300D01*
X0064300Y0114300D01*
X0057395Y0116893D02*
X0033883Y0116893D01*
X0036652Y0115294D02*
X0056733Y0115294D01*
X0056700Y0113696D02*
X0038424Y0113696D01*
X0039907Y0112097D02*
X0057233Y0112097D01*
X0058596Y0110499D02*
X0041049Y0110499D01*
X0041819Y0108900D02*
X0074400Y0108900D01*
X0074400Y0110499D02*
X0070004Y0110499D01*
X0070804Y0107302D02*
X0074400Y0107302D01*
X0074400Y0105703D02*
X0071698Y0105703D01*
X0071900Y0104105D02*
X0074400Y0104105D01*
X0079200Y0104105D02*
X0089100Y0104105D01*
X0089100Y0104100D02*
X0081500Y0104100D01*
X0081500Y0103922D01*
X0081618Y0103176D01*
X0081852Y0102457D01*
X0082195Y0101784D01*
X0082639Y0101173D01*
X0083173Y0100639D01*
X0083784Y0100195D01*
X0084457Y0099852D01*
X0085176Y0099618D01*
X0085922Y0099500D01*
X0089100Y0099500D01*
X0089100Y0104100D01*
X0089500Y0104100D02*
X0089500Y0099500D01*
X0092678Y0099500D01*
X0093424Y0099618D01*
X0094143Y0099852D01*
X0094816Y0100195D01*
X0095427Y0100639D01*
X0095961Y0101173D01*
X0096405Y0101784D01*
X0096748Y0102457D01*
X0096982Y0103176D01*
X0097100Y0103922D01*
X0097100Y0104100D01*
X0089500Y0104100D01*
X0089500Y0104105D02*
X0106700Y0104105D01*
X0106902Y0105703D02*
X0096891Y0105703D01*
X0096052Y0107302D02*
X0107796Y0107302D01*
X0107064Y0102506D02*
X0096764Y0102506D01*
X0095696Y0100908D02*
X0108187Y0100908D01*
X0111900Y0099309D02*
X0079200Y0099309D01*
X0079200Y0097711D02*
X0111900Y0097711D01*
X0089500Y0100908D02*
X0089100Y0100908D01*
X0089100Y0102506D02*
X0089500Y0102506D01*
X0082904Y0100908D02*
X0079200Y0100908D01*
X0079200Y0102506D02*
X0081836Y0102506D01*
X0074400Y0102506D02*
X0071536Y0102506D01*
X0070413Y0100908D02*
X0074400Y0100908D01*
X0074400Y0099309D02*
X0066700Y0099309D01*
X0066700Y0097711D02*
X0074400Y0097711D01*
X0061900Y0097711D02*
X0042984Y0097711D01*
X0042854Y0096848D02*
X0042854Y0096848D01*
X0043225Y0099309D02*
X0061900Y0099309D01*
X0058187Y0100908D02*
X0043465Y0100908D01*
X0043494Y0102506D02*
X0057064Y0102506D01*
X0056700Y0104105D02*
X0043253Y0104105D01*
X0043012Y0105703D02*
X0056902Y0105703D01*
X0057796Y0107302D02*
X0042589Y0107302D01*
X0042854Y0106752D02*
X0042854Y0106752D01*
X0064300Y0104300D02*
X0064300Y0089300D01*
X0076800Y0086800D02*
X0064300Y0074300D01*
X0064300Y0056800D01*
X0059700Y0056149D02*
X0030717Y0056149D01*
X0030728Y0056145D02*
X0028844Y0056925D01*
X0019756Y0056925D01*
X0017872Y0056145D01*
X0016430Y0054703D01*
X0015650Y0052819D01*
X0015650Y0050781D01*
X0016430Y0048897D01*
X0017872Y0047455D01*
X0019756Y0046675D01*
X0028844Y0046675D01*
X0030728Y0047455D01*
X0032170Y0048897D01*
X0032950Y0050781D01*
X0032950Y0052819D01*
X0032170Y0054703D01*
X0030728Y0056145D01*
X0032233Y0054551D02*
X0059700Y0054551D01*
X0059700Y0052952D02*
X0032895Y0052952D01*
X0032950Y0051354D02*
X0060334Y0051354D01*
X0062044Y0049755D02*
X0032525Y0049755D01*
X0031430Y0048157D02*
X0069400Y0048157D01*
X0069400Y0046558D02*
X0011600Y0046558D01*
X0011600Y0044960D02*
X0069400Y0044960D01*
X0069400Y0043361D02*
X0011600Y0043361D01*
X0011600Y0041763D02*
X0069400Y0041763D01*
X0069400Y0040164D02*
X0011600Y0040164D01*
X0011600Y0038566D02*
X0069400Y0038566D01*
X0069400Y0036967D02*
X0033754Y0036967D01*
X0036523Y0035369D02*
X0069589Y0035369D01*
X0069400Y0035825D02*
X0070146Y0034024D01*
X0071524Y0032646D01*
X0079400Y0024770D01*
X0079400Y0024388D01*
X0079175Y0023844D01*
X0079175Y0014756D01*
X0079955Y0012872D01*
X0081397Y0011430D01*
X0083281Y0010650D01*
X0085319Y0010650D01*
X0087203Y0011430D01*
X0088645Y0012872D01*
X0089425Y0014756D01*
X0089425Y0023844D01*
X0089200Y0024388D01*
X0089200Y0027775D01*
X0088454Y0029576D01*
X0079200Y0038830D01*
X0079200Y0057775D01*
X0078900Y0058499D01*
X0078900Y0060715D01*
X0078200Y0062406D01*
X0076906Y0063700D01*
X0075215Y0064400D01*
X0073385Y0064400D01*
X0071694Y0063700D01*
X0070400Y0062406D01*
X0069700Y0060715D01*
X0069700Y0058499D01*
X0069400Y0057775D01*
X0069400Y0035825D01*
X0070400Y0033770D02*
X0038355Y0033770D01*
X0039838Y0032172D02*
X0071999Y0032172D01*
X0073597Y0030573D02*
X0041013Y0030573D01*
X0040681Y0031264D02*
X0040681Y0031264D01*
X0041783Y0028975D02*
X0075196Y0028975D01*
X0076794Y0027376D02*
X0066705Y0027376D01*
X0067203Y0027170D02*
X0065319Y0027950D01*
X0063281Y0027950D01*
X0061397Y0027170D01*
X0059955Y0025728D01*
X0059175Y0023844D01*
X0059175Y0014756D01*
X0059955Y0012872D01*
X0061397Y0011430D01*
X0063281Y0010650D01*
X0065319Y0010650D01*
X0067203Y0011430D01*
X0068645Y0012872D01*
X0069425Y0014756D01*
X0069425Y0023844D01*
X0068645Y0025728D01*
X0067203Y0027170D01*
X0068595Y0025778D02*
X0078393Y0025778D01*
X0079314Y0024179D02*
X0069286Y0024179D01*
X0069425Y0022581D02*
X0079175Y0022581D01*
X0079175Y0020982D02*
X0069425Y0020982D01*
X0069425Y0019384D02*
X0079175Y0019384D01*
X0079175Y0017785D02*
X0069425Y0017785D01*
X0069425Y0016187D02*
X0079175Y0016187D01*
X0079244Y0014588D02*
X0069356Y0014588D01*
X0068693Y0012990D02*
X0079906Y0012990D01*
X0081491Y0011391D02*
X0067109Y0011391D01*
X0061491Y0011391D02*
X0039804Y0011391D01*
X0040681Y0012336D02*
X0040681Y0012336D01*
X0040995Y0012990D02*
X0059906Y0012990D01*
X0059244Y0014588D02*
X0041765Y0014588D01*
X0042535Y0016187D02*
X0059175Y0016187D01*
X0059175Y0017785D02*
X0042995Y0017785D01*
X0042854Y0016848D02*
X0042854Y0016848D01*
X0043236Y0019384D02*
X0059175Y0019384D01*
X0059175Y0020982D02*
X0043477Y0020982D01*
X0043482Y0022581D02*
X0059175Y0022581D01*
X0059314Y0024179D02*
X0043241Y0024179D01*
X0043000Y0025778D02*
X0060005Y0025778D01*
X0061895Y0027376D02*
X0042553Y0027376D01*
X0042854Y0026752D02*
X0042854Y0026752D01*
X0019975Y0036967D02*
X0011600Y0036967D01*
X0011600Y0035369D02*
X0017171Y0035369D01*
X0018400Y0036349D02*
X0018400Y0036349D01*
X0015166Y0033770D02*
X0011600Y0033770D01*
X0011600Y0032172D02*
X0013765Y0032172D01*
X0012675Y0030573D02*
X0011600Y0030573D01*
X0011600Y0028975D02*
X0011628Y0028975D01*
X0028055Y0038553D02*
X0028055Y0038553D01*
X0017170Y0048157D02*
X0011600Y0048157D01*
X0011600Y0049755D02*
X0016075Y0049755D01*
X0015650Y0051354D02*
X0011600Y0051354D01*
X0011600Y0052952D02*
X0015705Y0052952D01*
X0016367Y0054551D02*
X0011600Y0054551D01*
X0011600Y0056149D02*
X0017883Y0056149D01*
X0011600Y0057748D02*
X0059700Y0057748D01*
X0059700Y0059346D02*
X0011600Y0059346D01*
X0011600Y0060945D02*
X0059795Y0060945D01*
X0060538Y0062543D02*
X0011600Y0062543D01*
X0011600Y0064142D02*
X0061900Y0064142D01*
X0066700Y0064142D02*
X0072762Y0064142D01*
X0070538Y0062543D02*
X0068062Y0062543D01*
X0068805Y0060945D02*
X0069795Y0060945D01*
X0069700Y0059346D02*
X0068900Y0059346D01*
X0068900Y0057748D02*
X0069400Y0057748D01*
X0069400Y0056149D02*
X0068900Y0056149D01*
X0068900Y0054551D02*
X0069400Y0054551D01*
X0069400Y0052952D02*
X0068900Y0052952D01*
X0069400Y0051354D02*
X0068266Y0051354D01*
X0069400Y0049755D02*
X0066556Y0049755D01*
X0079200Y0049755D02*
X0081701Y0049755D01*
X0081784Y0049695D02*
X0082457Y0049352D01*
X0083176Y0049118D01*
X0083922Y0049000D01*
X0084100Y0049000D01*
X0084100Y0056600D01*
X0084500Y0056600D01*
X0084500Y0057000D01*
X0089100Y0057000D01*
X0089100Y0060178D01*
X0088982Y0060924D01*
X0088748Y0061643D01*
X0088405Y0062316D01*
X0087961Y0062927D01*
X0087427Y0063461D01*
X0086816Y0063905D01*
X0086143Y0064248D01*
X0085424Y0064482D01*
X0084678Y0064600D01*
X0084500Y0064600D01*
X0084500Y0057000D01*
X0084100Y0057000D01*
X0084100Y0064600D01*
X0083922Y0064600D01*
X0083176Y0064482D01*
X0082457Y0064248D01*
X0081784Y0063905D01*
X0081173Y0063461D01*
X0080639Y0062927D01*
X0080195Y0062316D01*
X0079852Y0061643D01*
X0079618Y0060924D01*
X0079500Y0060178D01*
X0079500Y0057000D01*
X0084100Y0057000D01*
X0084100Y0056600D01*
X0079500Y0056600D01*
X0079500Y0053422D01*
X0079618Y0052676D01*
X0079852Y0051957D01*
X0080195Y0051284D01*
X0080639Y0050673D01*
X0081173Y0050139D01*
X0081784Y0049695D01*
X0084100Y0049755D02*
X0084500Y0049755D01*
X0084500Y0049000D02*
X0084678Y0049000D01*
X0085424Y0049118D01*
X0086143Y0049352D01*
X0086816Y0049695D01*
X0087427Y0050139D01*
X0087961Y0050673D01*
X0088405Y0051284D01*
X0088748Y0051957D01*
X0088982Y0052676D01*
X0089100Y0053422D01*
X0089100Y0056600D01*
X0084500Y0056600D01*
X0084500Y0049000D01*
X0086899Y0049755D02*
X0112044Y0049755D01*
X0110334Y0051354D02*
X0088441Y0051354D01*
X0089026Y0052952D02*
X0109700Y0052952D01*
X0109700Y0054551D02*
X0089100Y0054551D01*
X0089100Y0056149D02*
X0109700Y0056149D01*
X0109700Y0057748D02*
X0089100Y0057748D01*
X0089100Y0059346D02*
X0109700Y0059346D01*
X0109795Y0060945D02*
X0088975Y0060945D01*
X0088240Y0062543D02*
X0110538Y0062543D01*
X0111900Y0064142D02*
X0086351Y0064142D01*
X0084500Y0064142D02*
X0084100Y0064142D01*
X0084100Y0062543D02*
X0084500Y0062543D01*
X0084500Y0060945D02*
X0084100Y0060945D01*
X0084100Y0059346D02*
X0084500Y0059346D01*
X0079500Y0059346D02*
X0078900Y0059346D01*
X0078805Y0060945D02*
X0079625Y0060945D01*
X0080360Y0062543D02*
X0078062Y0062543D01*
X0075838Y0064142D02*
X0082249Y0064142D01*
X0084100Y0057748D02*
X0084500Y0057748D01*
X0084500Y0056149D02*
X0084100Y0056149D01*
X0084100Y0054551D02*
X0084500Y0054551D01*
X0079500Y0054551D02*
X0079200Y0054551D01*
X0079200Y0056149D02*
X0079500Y0056149D01*
X0079500Y0057748D02*
X0079200Y0057748D01*
X0079200Y0052952D02*
X0079574Y0052952D01*
X0079200Y0051354D02*
X0080159Y0051354D01*
X0084100Y0051354D02*
X0084500Y0051354D01*
X0084500Y0052952D02*
X0084100Y0052952D01*
X0079200Y0048157D02*
X0119400Y0048157D01*
X0119400Y0046558D02*
X0079200Y0046558D01*
X0079200Y0044960D02*
X0119400Y0044960D01*
X0119400Y0043361D02*
X0079200Y0043361D01*
X0079200Y0041763D02*
X0119400Y0041763D01*
X0119400Y0040164D02*
X0079200Y0040164D01*
X0079464Y0038566D02*
X0119400Y0038566D01*
X0119400Y0036967D02*
X0081062Y0036967D01*
X0082661Y0035369D02*
X0119589Y0035369D01*
X0119400Y0035825D02*
X0120146Y0034024D01*
X0129400Y0024770D01*
X0129400Y0024388D01*
X0129175Y0023844D01*
X0129175Y0014756D01*
X0129955Y0012872D01*
X0131397Y0011430D01*
X0133281Y0010650D01*
X0135319Y0010650D01*
X0137203Y0011430D01*
X0138645Y0012872D01*
X0139425Y0014756D01*
X0139425Y0023844D01*
X0139200Y0024388D01*
X0139200Y0027775D01*
X0138454Y0029576D01*
X0137076Y0030954D01*
X0129200Y0038830D01*
X0129200Y0057775D01*
X0128900Y0058499D01*
X0128900Y0060715D01*
X0128200Y0062406D01*
X0126906Y0063700D01*
X0125215Y0064400D01*
X0123385Y0064400D01*
X0121694Y0063700D01*
X0120400Y0062406D01*
X0119700Y0060715D01*
X0119700Y0058499D01*
X0119400Y0057775D01*
X0119400Y0035825D01*
X0120400Y0033770D02*
X0084259Y0033770D01*
X0085858Y0032172D02*
X0121999Y0032172D01*
X0123597Y0030573D02*
X0087456Y0030573D01*
X0088703Y0028975D02*
X0125196Y0028975D01*
X0126794Y0027376D02*
X0116705Y0027376D01*
X0117203Y0027170D02*
X0115319Y0027950D01*
X0113281Y0027950D01*
X0111397Y0027170D01*
X0109955Y0025728D01*
X0109175Y0023844D01*
X0109175Y0014756D01*
X0109955Y0012872D01*
X0111397Y0011430D01*
X0113281Y0010650D01*
X0115319Y0010650D01*
X0117203Y0011430D01*
X0118645Y0012872D01*
X0119425Y0014756D01*
X0119425Y0023844D01*
X0118645Y0025728D01*
X0117203Y0027170D01*
X0118595Y0025778D02*
X0128393Y0025778D01*
X0129314Y0024179D02*
X0119286Y0024179D01*
X0119425Y0022581D02*
X0129175Y0022581D01*
X0129175Y0020982D02*
X0119425Y0020982D01*
X0119425Y0019384D02*
X0129175Y0019384D01*
X0129175Y0017785D02*
X0119425Y0017785D01*
X0119425Y0016187D02*
X0129175Y0016187D01*
X0129244Y0014588D02*
X0119356Y0014588D01*
X0118693Y0012990D02*
X0129906Y0012990D01*
X0131491Y0011391D02*
X0117109Y0011391D01*
X0111491Y0011391D02*
X0087109Y0011391D01*
X0088693Y0012990D02*
X0109906Y0012990D01*
X0109244Y0014588D02*
X0089356Y0014588D01*
X0089425Y0016187D02*
X0109175Y0016187D01*
X0109175Y0017785D02*
X0089425Y0017785D01*
X0089425Y0019384D02*
X0109175Y0019384D01*
X0109175Y0020982D02*
X0089425Y0020982D01*
X0089425Y0022581D02*
X0109175Y0022581D01*
X0109314Y0024179D02*
X0089286Y0024179D01*
X0089200Y0025778D02*
X0110005Y0025778D01*
X0111895Y0027376D02*
X0089200Y0027376D01*
X0129464Y0038566D02*
X0169400Y0038566D01*
X0169400Y0040164D02*
X0129200Y0040164D01*
X0129200Y0041763D02*
X0169400Y0041763D01*
X0169400Y0043361D02*
X0129200Y0043361D01*
X0129200Y0044960D02*
X0169400Y0044960D01*
X0169400Y0046558D02*
X0129200Y0046558D01*
X0129200Y0048157D02*
X0169400Y0048157D01*
X0169400Y0049755D02*
X0166556Y0049755D01*
X0168266Y0051354D02*
X0169400Y0051354D01*
X0169400Y0052952D02*
X0168900Y0052952D01*
X0168900Y0054551D02*
X0169400Y0054551D01*
X0169400Y0056149D02*
X0168900Y0056149D01*
X0168900Y0057748D02*
X0169400Y0057748D01*
X0169400Y0057775D02*
X0169400Y0035825D01*
X0170146Y0034024D01*
X0179400Y0024770D01*
X0179400Y0024388D01*
X0179175Y0023844D01*
X0179175Y0014756D01*
X0179955Y0012872D01*
X0181397Y0011430D01*
X0183281Y0010650D01*
X0185319Y0010650D01*
X0187203Y0011430D01*
X0188645Y0012872D01*
X0189425Y0014756D01*
X0189425Y0023844D01*
X0189200Y0024388D01*
X0189200Y0027775D01*
X0188454Y0029576D01*
X0187076Y0030954D01*
X0179200Y0038830D01*
X0179200Y0057775D01*
X0178900Y0058499D01*
X0178900Y0060715D01*
X0178200Y0062406D01*
X0176906Y0063700D01*
X0175215Y0064400D01*
X0173385Y0064400D01*
X0171694Y0063700D01*
X0170400Y0062406D01*
X0169700Y0060715D01*
X0169700Y0058499D01*
X0169400Y0057775D01*
X0169700Y0059346D02*
X0168900Y0059346D01*
X0168805Y0060945D02*
X0169795Y0060945D01*
X0170538Y0062543D02*
X0168062Y0062543D01*
X0166700Y0064142D02*
X0172762Y0064142D01*
X0175838Y0064142D02*
X0182249Y0064142D01*
X0182457Y0064248D02*
X0181784Y0063905D01*
X0181173Y0063461D01*
X0180639Y0062927D01*
X0180195Y0062316D01*
X0179852Y0061643D01*
X0179618Y0060924D01*
X0179500Y0060178D01*
X0179500Y0057000D01*
X0184100Y0057000D01*
X0184100Y0064600D01*
X0183922Y0064600D01*
X0183176Y0064482D01*
X0182457Y0064248D01*
X0184100Y0064142D02*
X0184500Y0064142D01*
X0184500Y0064600D02*
X0184500Y0057000D01*
X0189100Y0057000D01*
X0189100Y0060178D01*
X0188982Y0060924D01*
X0188748Y0061643D01*
X0188405Y0062316D01*
X0187961Y0062927D01*
X0187427Y0063461D01*
X0186816Y0063905D01*
X0186143Y0064248D01*
X0185424Y0064482D01*
X0184678Y0064600D01*
X0184500Y0064600D01*
X0186351Y0064142D02*
X0211900Y0064142D01*
X0210538Y0062543D02*
X0188240Y0062543D01*
X0188975Y0060945D02*
X0209795Y0060945D01*
X0209700Y0059346D02*
X0189100Y0059346D01*
X0189100Y0057748D02*
X0209700Y0057748D01*
X0209700Y0056149D02*
X0189100Y0056149D01*
X0189100Y0056600D02*
X0184500Y0056600D01*
X0184500Y0057000D01*
X0184100Y0057000D01*
X0184100Y0056600D01*
X0184500Y0056600D01*
X0184500Y0049000D01*
X0184678Y0049000D01*
X0185424Y0049118D01*
X0186143Y0049352D01*
X0186816Y0049695D01*
X0187427Y0050139D01*
X0187961Y0050673D01*
X0188405Y0051284D01*
X0188748Y0051957D01*
X0188982Y0052676D01*
X0189100Y0053422D01*
X0189100Y0056600D01*
X0189100Y0054551D02*
X0209700Y0054551D01*
X0214300Y0056800D02*
X0214300Y0074300D01*
X0226800Y0086800D01*
X0226800Y0114300D01*
X0214300Y0114300D01*
X0207395Y0116893D02*
X0196205Y0116893D01*
X0196867Y0115294D02*
X0206733Y0115294D01*
X0206700Y0113696D02*
X0196900Y0113696D01*
X0196367Y0112097D02*
X0207233Y0112097D01*
X0208596Y0110499D02*
X0195004Y0110499D01*
X0194143Y0108748D02*
X0193424Y0108982D01*
X0192678Y0109100D01*
X0189500Y0109100D01*
X0189500Y0104500D01*
X0189100Y0104500D01*
X0189100Y0109100D01*
X0185922Y0109100D01*
X0185176Y0108982D01*
X0184457Y0108748D01*
X0183784Y0108405D01*
X0183173Y0107961D01*
X0182639Y0107427D01*
X0182195Y0106816D01*
X0181852Y0106143D01*
X0181618Y0105424D01*
X0181500Y0104678D01*
X0181500Y0104500D01*
X0189100Y0104500D01*
X0189100Y0104100D01*
X0189500Y0104100D01*
X0189500Y0104500D01*
X0197100Y0104500D01*
X0197100Y0104678D01*
X0196982Y0105424D01*
X0196748Y0106143D01*
X0196405Y0106816D01*
X0195961Y0107427D01*
X0195427Y0107961D01*
X0194816Y0108405D01*
X0194143Y0108748D01*
X0193675Y0108900D02*
X0224400Y0108900D01*
X0224400Y0110499D02*
X0220004Y0110499D01*
X0219906Y0108200D02*
X0218215Y0108900D01*
X0210385Y0108900D01*
X0208694Y0108200D01*
X0207400Y0106906D01*
X0206700Y0105215D01*
X0206700Y0103385D01*
X0207400Y0101694D01*
X0208694Y0100400D01*
X0210385Y0099700D01*
X0211900Y0099700D01*
X0211900Y0090294D01*
X0205106Y0083500D01*
X0202560Y0083500D01*
X0200100Y0081040D01*
X0200100Y0077560D01*
X0202560Y0075100D01*
X0206040Y0075100D01*
X0208500Y0077560D01*
X0208500Y0080106D01*
X0216335Y0087941D01*
X0216700Y0088823D01*
X0216700Y0099700D01*
X0218215Y0099700D01*
X0219906Y0100400D01*
X0221200Y0101694D01*
X0221900Y0103385D01*
X0221900Y0105215D01*
X0221200Y0106906D01*
X0219906Y0108200D01*
X0220804Y0107302D02*
X0224400Y0107302D01*
X0224400Y0105703D02*
X0221698Y0105703D01*
X0221900Y0104105D02*
X0224400Y0104105D01*
X0224400Y0102506D02*
X0221536Y0102506D01*
X0220413Y0100908D02*
X0224400Y0100908D01*
X0224400Y0099309D02*
X0216700Y0099309D01*
X0216700Y0097711D02*
X0224400Y0097711D01*
X0224400Y0096112D02*
X0216700Y0096112D01*
X0216700Y0094514D02*
X0224400Y0094514D01*
X0224400Y0092915D02*
X0216700Y0092915D01*
X0211900Y0092915D02*
X0179200Y0092915D01*
X0179200Y0094514D02*
X0211900Y0094514D01*
X0211900Y0096112D02*
X0179200Y0096112D01*
X0179200Y0097711D02*
X0211900Y0097711D01*
X0211900Y0099309D02*
X0179200Y0099309D01*
X0179200Y0100908D02*
X0182904Y0100908D01*
X0182639Y0101173D02*
X0183173Y0100639D01*
X0183784Y0100195D01*
X0184457Y0099852D01*
X0185176Y0099618D01*
X0185922Y0099500D01*
X0189100Y0099500D01*
X0189100Y0104100D01*
X0181500Y0104100D01*
X0181500Y0103922D01*
X0181618Y0103176D01*
X0181852Y0102457D01*
X0182195Y0101784D01*
X0182639Y0101173D01*
X0181836Y0102506D02*
X0179200Y0102506D01*
X0179200Y0104105D02*
X0189100Y0104105D01*
X0189500Y0104100D02*
X0189500Y0099500D01*
X0192678Y0099500D01*
X0193424Y0099618D01*
X0194143Y0099852D01*
X0194816Y0100195D01*
X0195427Y0100639D01*
X0195961Y0101173D01*
X0196405Y0101784D01*
X0196748Y0102457D01*
X0196982Y0103176D01*
X0197100Y0103922D01*
X0197100Y0104100D01*
X0189500Y0104100D01*
X0189500Y0104105D02*
X0206700Y0104105D01*
X0206902Y0105703D02*
X0196891Y0105703D01*
X0196052Y0107302D02*
X0207796Y0107302D01*
X0214300Y0104300D02*
X0214300Y0089300D01*
X0204300Y0079300D01*
X0200100Y0078529D02*
X0198700Y0078529D01*
X0198700Y0079300D02*
X0194300Y0079300D01*
X0198700Y0079300D01*
X0198700Y0081123D01*
X0196123Y0083700D01*
X0194300Y0083700D01*
X0194300Y0079300D01*
X0194300Y0079300D01*
X0194300Y0079300D01*
X0194300Y0074900D01*
X0196123Y0074900D01*
X0198700Y0077477D01*
X0198700Y0079300D01*
X0198700Y0080127D02*
X0200100Y0080127D01*
X0200786Y0081726D02*
X0198097Y0081726D01*
X0196498Y0083324D02*
X0202384Y0083324D01*
X0206528Y0084923D02*
X0178317Y0084923D01*
X0176718Y0083324D02*
X0192102Y0083324D01*
X0192477Y0083700D02*
X0189900Y0081123D01*
X0189900Y0079300D01*
X0194300Y0079300D01*
X0194300Y0079300D01*
X0194300Y0079300D01*
X0194300Y0083700D01*
X0192477Y0083700D01*
X0194300Y0083324D02*
X0194300Y0083324D01*
X0194300Y0081726D02*
X0194300Y0081726D01*
X0194300Y0080127D02*
X0194300Y0080127D01*
X0194300Y0079300D02*
X0189900Y0079300D01*
X0189900Y0077477D01*
X0192477Y0074900D01*
X0194300Y0074900D01*
X0194300Y0079300D01*
X0194300Y0078529D02*
X0194300Y0078529D01*
X0194300Y0076930D02*
X0194300Y0076930D01*
X0198153Y0076930D02*
X0200730Y0076930D01*
X0202329Y0075332D02*
X0196554Y0075332D01*
X0194300Y0075332D02*
X0194300Y0075332D01*
X0192046Y0075332D02*
X0168726Y0075332D01*
X0167127Y0073733D02*
X0211900Y0073733D01*
X0211900Y0072134D02*
X0166700Y0072134D01*
X0166700Y0070536D02*
X0211900Y0070536D01*
X0216700Y0070536D02*
X0265587Y0070536D01*
X0273925Y0070536D02*
X0274675Y0070536D01*
X0274675Y0068937D02*
X0273925Y0068937D01*
X0273925Y0067339D02*
X0274675Y0067339D01*
X0285701Y0064142D02*
X0236351Y0064142D01*
X0236143Y0064248D02*
X0235424Y0064482D01*
X0234678Y0064600D01*
X0234500Y0064600D01*
X0234500Y0057000D01*
X0239100Y0057000D01*
X0239100Y0060178D01*
X0238982Y0060924D01*
X0238748Y0061643D01*
X0238405Y0062316D01*
X0237961Y0062927D01*
X0237427Y0063461D01*
X0236816Y0063905D01*
X0236143Y0064248D01*
X0234500Y0064142D02*
X0234100Y0064142D01*
X0234100Y0064600D02*
X0233922Y0064600D01*
X0233176Y0064482D01*
X0232457Y0064248D01*
X0231784Y0063905D01*
X0231173Y0063461D01*
X0230639Y0062927D01*
X0230195Y0062316D01*
X0229852Y0061643D01*
X0229618Y0060924D01*
X0229500Y0060178D01*
X0229500Y0057000D01*
X0234100Y0057000D01*
X0234100Y0064600D01*
X0232249Y0064142D02*
X0225838Y0064142D01*
X0225215Y0064400D02*
X0223385Y0064400D01*
X0221694Y0063700D01*
X0220400Y0062406D01*
X0219700Y0060715D01*
X0219700Y0058499D01*
X0219400Y0057775D01*
X0219400Y0035825D01*
X0220146Y0034024D01*
X0229400Y0024770D01*
X0229400Y0024388D01*
X0229175Y0023844D01*
X0229175Y0014756D01*
X0229955Y0012872D01*
X0231397Y0011430D01*
X0233281Y0010650D01*
X0235319Y0010650D01*
X0237203Y0011430D01*
X0238645Y0012872D01*
X0239425Y0014756D01*
X0239425Y0023844D01*
X0239200Y0024388D01*
X0239200Y0027775D01*
X0238454Y0029576D01*
X0237076Y0030954D01*
X0229200Y0038830D01*
X0229200Y0057775D01*
X0228900Y0058499D01*
X0228900Y0060715D01*
X0228200Y0062406D01*
X0226906Y0063700D01*
X0225215Y0064400D01*
X0222762Y0064142D02*
X0216700Y0064142D01*
X0218062Y0062543D02*
X0220538Y0062543D01*
X0219795Y0060945D02*
X0218805Y0060945D01*
X0218900Y0059346D02*
X0219700Y0059346D01*
X0219400Y0057748D02*
X0218900Y0057748D01*
X0218900Y0056149D02*
X0219400Y0056149D01*
X0219400Y0054551D02*
X0218900Y0054551D01*
X0218900Y0052952D02*
X0219400Y0052952D01*
X0219400Y0051354D02*
X0218266Y0051354D01*
X0219400Y0049755D02*
X0216556Y0049755D01*
X0212044Y0049755D02*
X0186899Y0049755D01*
X0188441Y0051354D02*
X0210334Y0051354D01*
X0209700Y0052952D02*
X0189026Y0052952D01*
X0184500Y0052952D02*
X0184100Y0052952D01*
X0184100Y0051354D02*
X0184500Y0051354D01*
X0184500Y0049755D02*
X0184100Y0049755D01*
X0184100Y0049000D02*
X0184100Y0056600D01*
X0179500Y0056600D01*
X0179500Y0053422D01*
X0179618Y0052676D01*
X0179852Y0051957D01*
X0180195Y0051284D01*
X0180639Y0050673D01*
X0181173Y0050139D01*
X0181784Y0049695D01*
X0182457Y0049352D01*
X0183176Y0049118D01*
X0183922Y0049000D01*
X0184100Y0049000D01*
X0181701Y0049755D02*
X0179200Y0049755D01*
X0179200Y0051354D02*
X0180159Y0051354D01*
X0179574Y0052952D02*
X0179200Y0052952D01*
X0179200Y0054551D02*
X0179500Y0054551D01*
X0179500Y0056149D02*
X0179200Y0056149D01*
X0179200Y0057748D02*
X0179500Y0057748D01*
X0184100Y0057748D02*
X0184500Y0057748D01*
X0184500Y0056149D02*
X0184100Y0056149D01*
X0184100Y0054551D02*
X0184500Y0054551D01*
X0184500Y0059346D02*
X0184100Y0059346D01*
X0184100Y0060945D02*
X0184500Y0060945D01*
X0184500Y0062543D02*
X0184100Y0062543D01*
X0180360Y0062543D02*
X0178062Y0062543D01*
X0178805Y0060945D02*
X0179625Y0060945D01*
X0179500Y0059346D02*
X0178900Y0059346D01*
X0164300Y0056800D02*
X0164300Y0074300D01*
X0176800Y0086800D01*
X0179200Y0086521D02*
X0208127Y0086521D01*
X0209726Y0088120D02*
X0179200Y0088120D01*
X0179200Y0089718D02*
X0211324Y0089718D01*
X0211900Y0091317D02*
X0179200Y0091317D01*
X0175120Y0081726D02*
X0190503Y0081726D01*
X0189900Y0080127D02*
X0173521Y0080127D01*
X0171923Y0078529D02*
X0189900Y0078529D01*
X0190447Y0076930D02*
X0170324Y0076930D01*
X0161900Y0064142D02*
X0136351Y0064142D01*
X0136143Y0064248D02*
X0135424Y0064482D01*
X0134678Y0064600D01*
X0134500Y0064600D01*
X0134500Y0057000D01*
X0139100Y0057000D01*
X0139100Y0060178D01*
X0138982Y0060924D01*
X0138748Y0061643D01*
X0138405Y0062316D01*
X0137961Y0062927D01*
X0137427Y0063461D01*
X0136816Y0063905D01*
X0136143Y0064248D01*
X0134500Y0064142D02*
X0134100Y0064142D01*
X0134100Y0064600D02*
X0133922Y0064600D01*
X0133176Y0064482D01*
X0132457Y0064248D01*
X0131784Y0063905D01*
X0131173Y0063461D01*
X0130639Y0062927D01*
X0130195Y0062316D01*
X0129852Y0061643D01*
X0129618Y0060924D01*
X0129500Y0060178D01*
X0129500Y0057000D01*
X0134100Y0057000D01*
X0134100Y0064600D01*
X0132249Y0064142D02*
X0125838Y0064142D01*
X0128062Y0062543D02*
X0130360Y0062543D01*
X0129625Y0060945D02*
X0128805Y0060945D01*
X0128900Y0059346D02*
X0129500Y0059346D01*
X0134100Y0059346D02*
X0134500Y0059346D01*
X0134500Y0060945D02*
X0134100Y0060945D01*
X0134100Y0062543D02*
X0134500Y0062543D01*
X0138240Y0062543D02*
X0160538Y0062543D01*
X0159795Y0060945D02*
X0138975Y0060945D01*
X0139100Y0059346D02*
X0159700Y0059346D01*
X0159700Y0057748D02*
X0139100Y0057748D01*
X0139100Y0056600D02*
X0134500Y0056600D01*
X0134500Y0057000D01*
X0134100Y0057000D01*
X0134100Y0056600D01*
X0134500Y0056600D01*
X0134500Y0049000D01*
X0134678Y0049000D01*
X0135424Y0049118D01*
X0136143Y0049352D01*
X0136816Y0049695D01*
X0137427Y0050139D01*
X0137961Y0050673D01*
X0138405Y0051284D01*
X0138748Y0051957D01*
X0138982Y0052676D01*
X0139100Y0053422D01*
X0139100Y0056600D01*
X0139100Y0056149D02*
X0159700Y0056149D01*
X0159700Y0054551D02*
X0139100Y0054551D01*
X0139026Y0052952D02*
X0159700Y0052952D01*
X0160334Y0051354D02*
X0138441Y0051354D01*
X0136899Y0049755D02*
X0162044Y0049755D01*
X0179200Y0048157D02*
X0219400Y0048157D01*
X0219400Y0046558D02*
X0179200Y0046558D01*
X0179200Y0044960D02*
X0219400Y0044960D01*
X0219400Y0043361D02*
X0179200Y0043361D01*
X0179200Y0041763D02*
X0219400Y0041763D01*
X0219400Y0040164D02*
X0179200Y0040164D01*
X0179464Y0038566D02*
X0219400Y0038566D01*
X0219400Y0036967D02*
X0181062Y0036967D01*
X0182661Y0035369D02*
X0219589Y0035369D01*
X0220400Y0033770D02*
X0184259Y0033770D01*
X0185858Y0032172D02*
X0221999Y0032172D01*
X0223597Y0030573D02*
X0187456Y0030573D01*
X0188703Y0028975D02*
X0225196Y0028975D01*
X0226794Y0027376D02*
X0216705Y0027376D01*
X0217203Y0027170D02*
X0215319Y0027950D01*
X0213281Y0027950D01*
X0211397Y0027170D01*
X0209955Y0025728D01*
X0209175Y0023844D01*
X0209175Y0014756D01*
X0209955Y0012872D01*
X0211397Y0011430D01*
X0213281Y0010650D01*
X0215319Y0010650D01*
X0217203Y0011430D01*
X0218645Y0012872D01*
X0219425Y0014756D01*
X0219425Y0023844D01*
X0218645Y0025728D01*
X0217203Y0027170D01*
X0218595Y0025778D02*
X0228393Y0025778D01*
X0229314Y0024179D02*
X0219286Y0024179D01*
X0219425Y0022581D02*
X0229175Y0022581D01*
X0229175Y0020982D02*
X0219425Y0020982D01*
X0219425Y0019384D02*
X0229175Y0019384D01*
X0229175Y0017785D02*
X0219425Y0017785D01*
X0219425Y0016187D02*
X0229175Y0016187D01*
X0229244Y0014588D02*
X0219356Y0014588D01*
X0218693Y0012990D02*
X0229906Y0012990D01*
X0231491Y0011391D02*
X0217109Y0011391D01*
X0211491Y0011391D02*
X0187109Y0011391D01*
X0188693Y0012990D02*
X0209906Y0012990D01*
X0209244Y0014588D02*
X0189356Y0014588D01*
X0189425Y0016187D02*
X0209175Y0016187D01*
X0209175Y0017785D02*
X0189425Y0017785D01*
X0189425Y0019384D02*
X0209175Y0019384D01*
X0209175Y0020982D02*
X0189425Y0020982D01*
X0189425Y0022581D02*
X0209175Y0022581D01*
X0209314Y0024179D02*
X0189286Y0024179D01*
X0189200Y0025778D02*
X0210005Y0025778D01*
X0211895Y0027376D02*
X0189200Y0027376D01*
X0179314Y0024179D02*
X0169286Y0024179D01*
X0169425Y0023844D02*
X0168645Y0025728D01*
X0167203Y0027170D01*
X0165319Y0027950D01*
X0163281Y0027950D01*
X0161397Y0027170D01*
X0159955Y0025728D01*
X0159175Y0023844D01*
X0159175Y0014756D01*
X0159955Y0012872D01*
X0161397Y0011430D01*
X0163281Y0010650D01*
X0165319Y0010650D01*
X0167203Y0011430D01*
X0168645Y0012872D01*
X0169425Y0014756D01*
X0169425Y0023844D01*
X0169425Y0022581D02*
X0179175Y0022581D01*
X0179175Y0020982D02*
X0169425Y0020982D01*
X0169425Y0019384D02*
X0179175Y0019384D01*
X0179175Y0017785D02*
X0169425Y0017785D01*
X0169425Y0016187D02*
X0179175Y0016187D01*
X0179244Y0014588D02*
X0169356Y0014588D01*
X0168693Y0012990D02*
X0179906Y0012990D01*
X0181491Y0011391D02*
X0167109Y0011391D01*
X0161491Y0011391D02*
X0137109Y0011391D01*
X0138693Y0012990D02*
X0159906Y0012990D01*
X0159244Y0014588D02*
X0139356Y0014588D01*
X0139425Y0016187D02*
X0159175Y0016187D01*
X0159175Y0017785D02*
X0139425Y0017785D01*
X0139425Y0019384D02*
X0159175Y0019384D01*
X0159175Y0020982D02*
X0139425Y0020982D01*
X0139425Y0022581D02*
X0159175Y0022581D01*
X0159314Y0024179D02*
X0139286Y0024179D01*
X0139200Y0025778D02*
X0160005Y0025778D01*
X0161895Y0027376D02*
X0139200Y0027376D01*
X0138703Y0028975D02*
X0175196Y0028975D01*
X0176794Y0027376D02*
X0166705Y0027376D01*
X0168595Y0025778D02*
X0178393Y0025778D01*
X0173597Y0030573D02*
X0137456Y0030573D01*
X0135858Y0032172D02*
X0171999Y0032172D01*
X0170400Y0033770D02*
X0134259Y0033770D01*
X0132661Y0035369D02*
X0169589Y0035369D01*
X0169400Y0036967D02*
X0131062Y0036967D01*
X0133176Y0049118D02*
X0133922Y0049000D01*
X0134100Y0049000D01*
X0134100Y0056600D01*
X0129500Y0056600D01*
X0129500Y0053422D01*
X0129618Y0052676D01*
X0129852Y0051957D01*
X0130195Y0051284D01*
X0130639Y0050673D01*
X0131173Y0050139D01*
X0131784Y0049695D01*
X0132457Y0049352D01*
X0133176Y0049118D01*
X0134100Y0049755D02*
X0134500Y0049755D01*
X0134500Y0051354D02*
X0134100Y0051354D01*
X0134100Y0052952D02*
X0134500Y0052952D01*
X0130159Y0051354D02*
X0129200Y0051354D01*
X0129200Y0052952D02*
X0129574Y0052952D01*
X0129500Y0054551D02*
X0129200Y0054551D01*
X0129200Y0056149D02*
X0129500Y0056149D01*
X0129500Y0057748D02*
X0129200Y0057748D01*
X0134100Y0057748D02*
X0134500Y0057748D01*
X0134500Y0056149D02*
X0134100Y0056149D01*
X0134100Y0054551D02*
X0134500Y0054551D01*
X0131701Y0049755D02*
X0129200Y0049755D01*
X0119400Y0049755D02*
X0116556Y0049755D01*
X0118266Y0051354D02*
X0119400Y0051354D01*
X0119400Y0052952D02*
X0118900Y0052952D01*
X0118900Y0054551D02*
X0119400Y0054551D01*
X0119400Y0056149D02*
X0118900Y0056149D01*
X0118900Y0057748D02*
X0119400Y0057748D01*
X0119700Y0059346D02*
X0118900Y0059346D01*
X0118805Y0060945D02*
X0119795Y0060945D01*
X0120538Y0062543D02*
X0118062Y0062543D01*
X0116700Y0064142D02*
X0122762Y0064142D01*
X0114300Y0056800D02*
X0114300Y0074300D01*
X0126800Y0086800D01*
X0089500Y0105703D02*
X0089100Y0105703D01*
X0089100Y0107302D02*
X0089500Y0107302D01*
X0089500Y0108900D02*
X0089100Y0108900D01*
X0084925Y0108900D02*
X0079200Y0108900D01*
X0079200Y0110499D02*
X0083596Y0110499D01*
X0082548Y0107302D02*
X0079200Y0107302D01*
X0079200Y0105703D02*
X0081709Y0105703D01*
X0076800Y0114300D02*
X0089300Y0114300D01*
X0050730Y0076930D02*
X0029268Y0076930D01*
X0024675Y0076930D02*
X0023925Y0076930D01*
X0023925Y0075332D02*
X0024675Y0075332D01*
X0024675Y0073733D02*
X0023925Y0073733D01*
X0023925Y0070536D02*
X0024675Y0070536D01*
X0024675Y0068937D02*
X0023925Y0068937D01*
X0023925Y0067339D02*
X0024675Y0067339D01*
X0030744Y0067339D02*
X0061900Y0067339D01*
X0061900Y0068937D02*
X0032327Y0068937D01*
X0031824Y0075332D02*
X0052329Y0075332D01*
X0019332Y0076930D02*
X0011600Y0076930D01*
X0011600Y0075332D02*
X0016776Y0075332D01*
X0038321Y0009793D02*
X0260213Y0009793D01*
X0259485Y0010373D02*
X0259485Y0010373D01*
X0259485Y0010373D01*
X0258791Y0011391D02*
X0237109Y0011391D01*
X0238693Y0012990D02*
X0257701Y0012990D01*
X0256640Y0014588D02*
X0239356Y0014588D01*
X0239425Y0016187D02*
X0256147Y0016187D01*
X0255654Y0017785D02*
X0239425Y0017785D01*
X0239425Y0019384D02*
X0255188Y0019384D01*
X0255188Y0020982D02*
X0239425Y0020982D01*
X0239425Y0022581D02*
X0255188Y0022581D01*
X0255188Y0024179D02*
X0239286Y0024179D01*
X0239200Y0025778D02*
X0255642Y0025778D01*
X0256135Y0027376D02*
X0239200Y0027376D01*
X0238703Y0028975D02*
X0256628Y0028975D01*
X0256664Y0029089D02*
X0256664Y0029089D01*
X0257675Y0030573D02*
X0237456Y0030573D01*
X0235858Y0032172D02*
X0258765Y0032172D01*
X0260166Y0033770D02*
X0234259Y0033770D01*
X0232661Y0035369D02*
X0262171Y0035369D01*
X0263400Y0036349D02*
X0263400Y0036349D01*
X0264975Y0036967D02*
X0231062Y0036967D01*
X0229464Y0038566D02*
X0285701Y0038566D01*
X0285701Y0040164D02*
X0229200Y0040164D01*
X0229200Y0041763D02*
X0285701Y0041763D01*
X0285701Y0043361D02*
X0229200Y0043361D01*
X0229200Y0044960D02*
X0285701Y0044960D01*
X0285701Y0046558D02*
X0229200Y0046558D01*
X0229200Y0048157D02*
X0267170Y0048157D01*
X0267872Y0047455D02*
X0266430Y0048897D01*
X0265650Y0050781D01*
X0265650Y0052819D01*
X0266430Y0054703D01*
X0267872Y0056145D01*
X0269756Y0056925D01*
X0278844Y0056925D01*
X0280728Y0056145D01*
X0282170Y0054703D01*
X0282950Y0052819D01*
X0282950Y0050781D01*
X0282170Y0048897D01*
X0280728Y0047455D01*
X0278844Y0046675D01*
X0269756Y0046675D01*
X0267872Y0047455D01*
X0266075Y0049755D02*
X0236899Y0049755D01*
X0236816Y0049695D02*
X0237427Y0050139D01*
X0237961Y0050673D01*
X0238405Y0051284D01*
X0238748Y0051957D01*
X0238982Y0052676D01*
X0239100Y0053422D01*
X0239100Y0056600D01*
X0234500Y0056600D01*
X0234500Y0057000D01*
X0234100Y0057000D01*
X0234100Y0056600D01*
X0234500Y0056600D01*
X0234500Y0049000D01*
X0234678Y0049000D01*
X0235424Y0049118D01*
X0236143Y0049352D01*
X0236816Y0049695D01*
X0234500Y0049755D02*
X0234100Y0049755D01*
X0234100Y0049000D02*
X0234100Y0056600D01*
X0229500Y0056600D01*
X0229500Y0053422D01*
X0229618Y0052676D01*
X0229852Y0051957D01*
X0230195Y0051284D01*
X0230639Y0050673D01*
X0231173Y0050139D01*
X0231784Y0049695D01*
X0232457Y0049352D01*
X0233176Y0049118D01*
X0233922Y0049000D01*
X0234100Y0049000D01*
X0231701Y0049755D02*
X0229200Y0049755D01*
X0229200Y0051354D02*
X0230159Y0051354D01*
X0229574Y0052952D02*
X0229200Y0052952D01*
X0234100Y0052952D02*
X0234500Y0052952D01*
X0234500Y0051354D02*
X0234100Y0051354D01*
X0238441Y0051354D02*
X0265650Y0051354D01*
X0265705Y0052952D02*
X0239026Y0052952D01*
X0239100Y0054551D02*
X0266367Y0054551D01*
X0267883Y0056149D02*
X0239100Y0056149D01*
X0239100Y0057748D02*
X0285701Y0057748D01*
X0285701Y0056149D02*
X0280717Y0056149D01*
X0282233Y0054551D02*
X0285701Y0054551D01*
X0285701Y0052952D02*
X0282895Y0052952D01*
X0282950Y0051354D02*
X0285701Y0051354D01*
X0285701Y0049755D02*
X0282525Y0049755D01*
X0281430Y0048157D02*
X0285701Y0048157D01*
X0273055Y0038553D02*
X0273055Y0038553D01*
X0278754Y0036967D02*
X0285701Y0036967D01*
X0285701Y0035369D02*
X0281523Y0035369D01*
X0283355Y0033770D02*
X0285701Y0033770D01*
X0285701Y0032172D02*
X0284838Y0032172D01*
X0285681Y0031264D02*
X0285681Y0031264D01*
X0262217Y0008194D02*
X0036458Y0008194D01*
X0037275Y0008665D02*
X0037275Y0008665D01*
X0206271Y0075332D02*
X0212130Y0075332D01*
X0213536Y0076930D02*
X0207870Y0076930D01*
X0208500Y0078529D02*
X0215134Y0078529D01*
X0216733Y0080127D02*
X0208521Y0080127D01*
X0210120Y0081726D02*
X0218331Y0081726D01*
X0219930Y0083324D02*
X0211718Y0083324D01*
X0213317Y0084923D02*
X0221528Y0084923D01*
X0223127Y0086521D02*
X0214915Y0086521D01*
X0216409Y0088120D02*
X0224400Y0088120D01*
X0224400Y0089718D02*
X0216700Y0089718D01*
X0216700Y0091317D02*
X0224400Y0091317D01*
X0229200Y0091317D02*
X0258841Y0091317D01*
X0259485Y0090373D02*
X0259485Y0090373D01*
X0259485Y0090373D01*
X0260306Y0089718D02*
X0229200Y0089718D01*
X0229200Y0088120D02*
X0262310Y0088120D01*
X0263400Y0087251D02*
X0263400Y0087251D01*
X0265259Y0086521D02*
X0229200Y0086521D01*
X0228317Y0084923D02*
X0285701Y0084923D01*
X0285701Y0086521D02*
X0278561Y0086521D01*
X0277938Y0086161D02*
X0277938Y0086161D01*
X0281330Y0088120D02*
X0285701Y0088120D01*
X0285701Y0089718D02*
X0283252Y0089718D01*
X0282275Y0088665D02*
X0282275Y0088665D01*
X0282275Y0088665D01*
X0284735Y0091317D02*
X0285701Y0091317D01*
X0285681Y0092336D02*
X0285681Y0092336D01*
X0268062Y0085421D02*
X0268062Y0085421D01*
X0257752Y0092915D02*
X0229200Y0092915D01*
X0229200Y0094514D02*
X0256663Y0094514D01*
X0256170Y0096112D02*
X0229200Y0096112D01*
X0229200Y0097711D02*
X0255677Y0097711D01*
X0255188Y0099309D02*
X0229200Y0099309D01*
X0229200Y0100908D02*
X0232904Y0100908D01*
X0232639Y0101173D02*
X0233173Y0100639D01*
X0233784Y0100195D01*
X0234457Y0099852D01*
X0235176Y0099618D01*
X0235922Y0099500D01*
X0239100Y0099500D01*
X0239100Y0104100D01*
X0239500Y0104100D01*
X0239500Y0104500D01*
X0239100Y0104500D01*
X0239100Y0109100D01*
X0235922Y0109100D01*
X0235176Y0108982D01*
X0234457Y0108748D01*
X0233784Y0108405D01*
X0233173Y0107961D01*
X0232639Y0107427D01*
X0232195Y0106816D01*
X0231852Y0106143D01*
X0231618Y0105424D01*
X0231500Y0104678D01*
X0231500Y0104500D01*
X0239100Y0104500D01*
X0239100Y0104100D01*
X0231500Y0104100D01*
X0231500Y0103922D01*
X0231618Y0103176D01*
X0231852Y0102457D01*
X0232195Y0101784D01*
X0232639Y0101173D01*
X0231836Y0102506D02*
X0229200Y0102506D01*
X0229200Y0104105D02*
X0239100Y0104105D01*
X0239500Y0104100D02*
X0239500Y0099500D01*
X0242678Y0099500D01*
X0243424Y0099618D01*
X0244143Y0099852D01*
X0244816Y0100195D01*
X0245427Y0100639D01*
X0245961Y0101173D01*
X0246405Y0101784D01*
X0246748Y0102457D01*
X0246982Y0103176D01*
X0247100Y0103922D01*
X0247100Y0104100D01*
X0239500Y0104100D01*
X0239500Y0104105D02*
X0255188Y0104105D01*
X0255619Y0105703D02*
X0246891Y0105703D01*
X0246982Y0105424D02*
X0246748Y0106143D01*
X0246405Y0106816D01*
X0245961Y0107427D01*
X0245427Y0107961D01*
X0244816Y0108405D01*
X0244143Y0108748D01*
X0243424Y0108982D01*
X0242678Y0109100D01*
X0239500Y0109100D01*
X0239500Y0104500D01*
X0247100Y0104500D01*
X0247100Y0104678D01*
X0246982Y0105424D01*
X0246052Y0107302D02*
X0256112Y0107302D01*
X0256605Y0108900D02*
X0243675Y0108900D01*
X0245004Y0110499D02*
X0257625Y0110499D01*
X0256664Y0109089D02*
X0256664Y0109089D01*
X0258715Y0112097D02*
X0246367Y0112097D01*
X0246900Y0113696D02*
X0260073Y0113696D01*
X0262077Y0115294D02*
X0246867Y0115294D01*
X0246205Y0116893D02*
X0264785Y0116893D01*
X0263400Y0116349D02*
X0263400Y0116349D01*
X0239300Y0114300D02*
X0226800Y0114300D01*
X0229200Y0110499D02*
X0233596Y0110499D01*
X0234925Y0108900D02*
X0229200Y0108900D01*
X0229200Y0107302D02*
X0232548Y0107302D01*
X0231709Y0105703D02*
X0229200Y0105703D01*
X0239100Y0105703D02*
X0239500Y0105703D01*
X0239500Y0107302D02*
X0239100Y0107302D01*
X0239100Y0108900D02*
X0239500Y0108900D01*
X0239500Y0102506D02*
X0239100Y0102506D01*
X0239100Y0100908D02*
X0239500Y0100908D01*
X0245696Y0100908D02*
X0255188Y0100908D01*
X0255188Y0102506D02*
X0246764Y0102506D01*
X0208187Y0100908D02*
X0195696Y0100908D01*
X0196764Y0102506D02*
X0207064Y0102506D01*
X0189500Y0102506D02*
X0189100Y0102506D01*
X0189100Y0100908D02*
X0189500Y0100908D01*
X0189500Y0105703D02*
X0189100Y0105703D01*
X0189100Y0107302D02*
X0189500Y0107302D01*
X0189500Y0108900D02*
X0189100Y0108900D01*
X0184925Y0108900D02*
X0179200Y0108900D01*
X0179200Y0110499D02*
X0183596Y0110499D01*
X0182548Y0107302D02*
X0179200Y0107302D01*
X0179200Y0105703D02*
X0181709Y0105703D01*
X0176800Y0114300D02*
X0189300Y0114300D01*
X0244300Y0080127D02*
X0244300Y0080127D01*
X0244300Y0078529D02*
X0244300Y0078529D01*
X0244300Y0076930D02*
X0244300Y0076930D01*
X0238240Y0062543D02*
X0285701Y0062543D01*
X0285701Y0060945D02*
X0238975Y0060945D01*
X0239100Y0059346D02*
X0285701Y0059346D01*
X0285701Y0073733D02*
X0282796Y0073733D01*
X0281824Y0075332D02*
X0285701Y0075332D01*
X0285701Y0076930D02*
X0279268Y0076930D01*
X0234500Y0062543D02*
X0234100Y0062543D01*
X0234100Y0060945D02*
X0234500Y0060945D01*
X0234500Y0059346D02*
X0234100Y0059346D01*
X0229500Y0059346D02*
X0228900Y0059346D01*
X0228805Y0060945D02*
X0229625Y0060945D01*
X0230360Y0062543D02*
X0228062Y0062543D01*
X0229200Y0057748D02*
X0229500Y0057748D01*
X0229500Y0056149D02*
X0229200Y0056149D01*
X0229200Y0054551D02*
X0229500Y0054551D01*
X0234100Y0054551D02*
X0234500Y0054551D01*
X0234500Y0056149D02*
X0234100Y0056149D01*
X0234100Y0057748D02*
X0234500Y0057748D01*
X0263400Y0007251D02*
X0263400Y0007251D01*
D15*
X0234300Y0019300D02*
X0234300Y0026800D01*
X0224300Y0036800D01*
X0224300Y0056800D01*
X0184300Y0026800D02*
X0174300Y0036800D01*
X0174300Y0056800D01*
X0134300Y0026800D02*
X0124300Y0036800D01*
X0124300Y0056800D01*
X0074300Y0056800D02*
X0074300Y0036800D01*
X0084300Y0026800D01*
X0084300Y0019300D01*
X0134300Y0019300D02*
X0134300Y0026800D01*
X0184300Y0026800D02*
X0184300Y0019300D01*
M02*
