G75*
%MOIN*%
%OFA0B0*%
%FSLAX25Y25*%
%IPPOS*%
%LPD*%
%AMOC8*
5,1,8,0,0,1.08239X$1,22.5*
%
%ADD10C,0.00000*%
%ADD11C,0.06000*%
%ADD12OC8,0.05200*%
%ADD13C,0.07050*%
%ADD14C,0.01600*%
%ADD15C,0.06600*%
D10*
X0006800Y0001800D02*
X0006800Y0121800D01*
X0290550Y0121761D01*
X0290501Y0121761D02*
X0290501Y0001800D01*
X0006800Y0001800D01*
X0020501Y0021800D02*
X0020503Y0021958D01*
X0020509Y0022116D01*
X0020519Y0022274D01*
X0020533Y0022432D01*
X0020551Y0022589D01*
X0020572Y0022746D01*
X0020598Y0022902D01*
X0020628Y0023058D01*
X0020661Y0023213D01*
X0020699Y0023366D01*
X0020740Y0023519D01*
X0020785Y0023671D01*
X0020834Y0023822D01*
X0020887Y0023971D01*
X0020943Y0024119D01*
X0021003Y0024265D01*
X0021067Y0024410D01*
X0021135Y0024553D01*
X0021206Y0024695D01*
X0021280Y0024835D01*
X0021358Y0024972D01*
X0021440Y0025108D01*
X0021524Y0025242D01*
X0021613Y0025373D01*
X0021704Y0025502D01*
X0021799Y0025629D01*
X0021896Y0025754D01*
X0021997Y0025876D01*
X0022101Y0025995D01*
X0022208Y0026112D01*
X0022318Y0026226D01*
X0022431Y0026337D01*
X0022546Y0026446D01*
X0022664Y0026551D01*
X0022785Y0026653D01*
X0022908Y0026753D01*
X0023034Y0026849D01*
X0023162Y0026942D01*
X0023292Y0027032D01*
X0023425Y0027118D01*
X0023560Y0027202D01*
X0023696Y0027281D01*
X0023835Y0027358D01*
X0023976Y0027430D01*
X0024118Y0027500D01*
X0024262Y0027565D01*
X0024408Y0027627D01*
X0024555Y0027685D01*
X0024704Y0027740D01*
X0024854Y0027791D01*
X0025005Y0027838D01*
X0025157Y0027881D01*
X0025310Y0027920D01*
X0025465Y0027956D01*
X0025620Y0027987D01*
X0025776Y0028015D01*
X0025932Y0028039D01*
X0026089Y0028059D01*
X0026247Y0028075D01*
X0026404Y0028087D01*
X0026563Y0028095D01*
X0026721Y0028099D01*
X0026879Y0028099D01*
X0027037Y0028095D01*
X0027196Y0028087D01*
X0027353Y0028075D01*
X0027511Y0028059D01*
X0027668Y0028039D01*
X0027824Y0028015D01*
X0027980Y0027987D01*
X0028135Y0027956D01*
X0028290Y0027920D01*
X0028443Y0027881D01*
X0028595Y0027838D01*
X0028746Y0027791D01*
X0028896Y0027740D01*
X0029045Y0027685D01*
X0029192Y0027627D01*
X0029338Y0027565D01*
X0029482Y0027500D01*
X0029624Y0027430D01*
X0029765Y0027358D01*
X0029904Y0027281D01*
X0030040Y0027202D01*
X0030175Y0027118D01*
X0030308Y0027032D01*
X0030438Y0026942D01*
X0030566Y0026849D01*
X0030692Y0026753D01*
X0030815Y0026653D01*
X0030936Y0026551D01*
X0031054Y0026446D01*
X0031169Y0026337D01*
X0031282Y0026226D01*
X0031392Y0026112D01*
X0031499Y0025995D01*
X0031603Y0025876D01*
X0031704Y0025754D01*
X0031801Y0025629D01*
X0031896Y0025502D01*
X0031987Y0025373D01*
X0032076Y0025242D01*
X0032160Y0025108D01*
X0032242Y0024972D01*
X0032320Y0024835D01*
X0032394Y0024695D01*
X0032465Y0024553D01*
X0032533Y0024410D01*
X0032597Y0024265D01*
X0032657Y0024119D01*
X0032713Y0023971D01*
X0032766Y0023822D01*
X0032815Y0023671D01*
X0032860Y0023519D01*
X0032901Y0023366D01*
X0032939Y0023213D01*
X0032972Y0023058D01*
X0033002Y0022902D01*
X0033028Y0022746D01*
X0033049Y0022589D01*
X0033067Y0022432D01*
X0033081Y0022274D01*
X0033091Y0022116D01*
X0033097Y0021958D01*
X0033099Y0021800D01*
X0033097Y0021642D01*
X0033091Y0021484D01*
X0033081Y0021326D01*
X0033067Y0021168D01*
X0033049Y0021011D01*
X0033028Y0020854D01*
X0033002Y0020698D01*
X0032972Y0020542D01*
X0032939Y0020387D01*
X0032901Y0020234D01*
X0032860Y0020081D01*
X0032815Y0019929D01*
X0032766Y0019778D01*
X0032713Y0019629D01*
X0032657Y0019481D01*
X0032597Y0019335D01*
X0032533Y0019190D01*
X0032465Y0019047D01*
X0032394Y0018905D01*
X0032320Y0018765D01*
X0032242Y0018628D01*
X0032160Y0018492D01*
X0032076Y0018358D01*
X0031987Y0018227D01*
X0031896Y0018098D01*
X0031801Y0017971D01*
X0031704Y0017846D01*
X0031603Y0017724D01*
X0031499Y0017605D01*
X0031392Y0017488D01*
X0031282Y0017374D01*
X0031169Y0017263D01*
X0031054Y0017154D01*
X0030936Y0017049D01*
X0030815Y0016947D01*
X0030692Y0016847D01*
X0030566Y0016751D01*
X0030438Y0016658D01*
X0030308Y0016568D01*
X0030175Y0016482D01*
X0030040Y0016398D01*
X0029904Y0016319D01*
X0029765Y0016242D01*
X0029624Y0016170D01*
X0029482Y0016100D01*
X0029338Y0016035D01*
X0029192Y0015973D01*
X0029045Y0015915D01*
X0028896Y0015860D01*
X0028746Y0015809D01*
X0028595Y0015762D01*
X0028443Y0015719D01*
X0028290Y0015680D01*
X0028135Y0015644D01*
X0027980Y0015613D01*
X0027824Y0015585D01*
X0027668Y0015561D01*
X0027511Y0015541D01*
X0027353Y0015525D01*
X0027196Y0015513D01*
X0027037Y0015505D01*
X0026879Y0015501D01*
X0026721Y0015501D01*
X0026563Y0015505D01*
X0026404Y0015513D01*
X0026247Y0015525D01*
X0026089Y0015541D01*
X0025932Y0015561D01*
X0025776Y0015585D01*
X0025620Y0015613D01*
X0025465Y0015644D01*
X0025310Y0015680D01*
X0025157Y0015719D01*
X0025005Y0015762D01*
X0024854Y0015809D01*
X0024704Y0015860D01*
X0024555Y0015915D01*
X0024408Y0015973D01*
X0024262Y0016035D01*
X0024118Y0016100D01*
X0023976Y0016170D01*
X0023835Y0016242D01*
X0023696Y0016319D01*
X0023560Y0016398D01*
X0023425Y0016482D01*
X0023292Y0016568D01*
X0023162Y0016658D01*
X0023034Y0016751D01*
X0022908Y0016847D01*
X0022785Y0016947D01*
X0022664Y0017049D01*
X0022546Y0017154D01*
X0022431Y0017263D01*
X0022318Y0017374D01*
X0022208Y0017488D01*
X0022101Y0017605D01*
X0021997Y0017724D01*
X0021896Y0017846D01*
X0021799Y0017971D01*
X0021704Y0018098D01*
X0021613Y0018227D01*
X0021524Y0018358D01*
X0021440Y0018492D01*
X0021358Y0018628D01*
X0021280Y0018765D01*
X0021206Y0018905D01*
X0021135Y0019047D01*
X0021067Y0019190D01*
X0021003Y0019335D01*
X0020943Y0019481D01*
X0020887Y0019629D01*
X0020834Y0019778D01*
X0020785Y0019929D01*
X0020740Y0020081D01*
X0020699Y0020234D01*
X0020661Y0020387D01*
X0020628Y0020542D01*
X0020598Y0020698D01*
X0020572Y0020854D01*
X0020551Y0021011D01*
X0020533Y0021168D01*
X0020519Y0021326D01*
X0020509Y0021484D01*
X0020503Y0021642D01*
X0020501Y0021800D01*
X0020501Y0101800D02*
X0020503Y0101958D01*
X0020509Y0102116D01*
X0020519Y0102274D01*
X0020533Y0102432D01*
X0020551Y0102589D01*
X0020572Y0102746D01*
X0020598Y0102902D01*
X0020628Y0103058D01*
X0020661Y0103213D01*
X0020699Y0103366D01*
X0020740Y0103519D01*
X0020785Y0103671D01*
X0020834Y0103822D01*
X0020887Y0103971D01*
X0020943Y0104119D01*
X0021003Y0104265D01*
X0021067Y0104410D01*
X0021135Y0104553D01*
X0021206Y0104695D01*
X0021280Y0104835D01*
X0021358Y0104972D01*
X0021440Y0105108D01*
X0021524Y0105242D01*
X0021613Y0105373D01*
X0021704Y0105502D01*
X0021799Y0105629D01*
X0021896Y0105754D01*
X0021997Y0105876D01*
X0022101Y0105995D01*
X0022208Y0106112D01*
X0022318Y0106226D01*
X0022431Y0106337D01*
X0022546Y0106446D01*
X0022664Y0106551D01*
X0022785Y0106653D01*
X0022908Y0106753D01*
X0023034Y0106849D01*
X0023162Y0106942D01*
X0023292Y0107032D01*
X0023425Y0107118D01*
X0023560Y0107202D01*
X0023696Y0107281D01*
X0023835Y0107358D01*
X0023976Y0107430D01*
X0024118Y0107500D01*
X0024262Y0107565D01*
X0024408Y0107627D01*
X0024555Y0107685D01*
X0024704Y0107740D01*
X0024854Y0107791D01*
X0025005Y0107838D01*
X0025157Y0107881D01*
X0025310Y0107920D01*
X0025465Y0107956D01*
X0025620Y0107987D01*
X0025776Y0108015D01*
X0025932Y0108039D01*
X0026089Y0108059D01*
X0026247Y0108075D01*
X0026404Y0108087D01*
X0026563Y0108095D01*
X0026721Y0108099D01*
X0026879Y0108099D01*
X0027037Y0108095D01*
X0027196Y0108087D01*
X0027353Y0108075D01*
X0027511Y0108059D01*
X0027668Y0108039D01*
X0027824Y0108015D01*
X0027980Y0107987D01*
X0028135Y0107956D01*
X0028290Y0107920D01*
X0028443Y0107881D01*
X0028595Y0107838D01*
X0028746Y0107791D01*
X0028896Y0107740D01*
X0029045Y0107685D01*
X0029192Y0107627D01*
X0029338Y0107565D01*
X0029482Y0107500D01*
X0029624Y0107430D01*
X0029765Y0107358D01*
X0029904Y0107281D01*
X0030040Y0107202D01*
X0030175Y0107118D01*
X0030308Y0107032D01*
X0030438Y0106942D01*
X0030566Y0106849D01*
X0030692Y0106753D01*
X0030815Y0106653D01*
X0030936Y0106551D01*
X0031054Y0106446D01*
X0031169Y0106337D01*
X0031282Y0106226D01*
X0031392Y0106112D01*
X0031499Y0105995D01*
X0031603Y0105876D01*
X0031704Y0105754D01*
X0031801Y0105629D01*
X0031896Y0105502D01*
X0031987Y0105373D01*
X0032076Y0105242D01*
X0032160Y0105108D01*
X0032242Y0104972D01*
X0032320Y0104835D01*
X0032394Y0104695D01*
X0032465Y0104553D01*
X0032533Y0104410D01*
X0032597Y0104265D01*
X0032657Y0104119D01*
X0032713Y0103971D01*
X0032766Y0103822D01*
X0032815Y0103671D01*
X0032860Y0103519D01*
X0032901Y0103366D01*
X0032939Y0103213D01*
X0032972Y0103058D01*
X0033002Y0102902D01*
X0033028Y0102746D01*
X0033049Y0102589D01*
X0033067Y0102432D01*
X0033081Y0102274D01*
X0033091Y0102116D01*
X0033097Y0101958D01*
X0033099Y0101800D01*
X0033097Y0101642D01*
X0033091Y0101484D01*
X0033081Y0101326D01*
X0033067Y0101168D01*
X0033049Y0101011D01*
X0033028Y0100854D01*
X0033002Y0100698D01*
X0032972Y0100542D01*
X0032939Y0100387D01*
X0032901Y0100234D01*
X0032860Y0100081D01*
X0032815Y0099929D01*
X0032766Y0099778D01*
X0032713Y0099629D01*
X0032657Y0099481D01*
X0032597Y0099335D01*
X0032533Y0099190D01*
X0032465Y0099047D01*
X0032394Y0098905D01*
X0032320Y0098765D01*
X0032242Y0098628D01*
X0032160Y0098492D01*
X0032076Y0098358D01*
X0031987Y0098227D01*
X0031896Y0098098D01*
X0031801Y0097971D01*
X0031704Y0097846D01*
X0031603Y0097724D01*
X0031499Y0097605D01*
X0031392Y0097488D01*
X0031282Y0097374D01*
X0031169Y0097263D01*
X0031054Y0097154D01*
X0030936Y0097049D01*
X0030815Y0096947D01*
X0030692Y0096847D01*
X0030566Y0096751D01*
X0030438Y0096658D01*
X0030308Y0096568D01*
X0030175Y0096482D01*
X0030040Y0096398D01*
X0029904Y0096319D01*
X0029765Y0096242D01*
X0029624Y0096170D01*
X0029482Y0096100D01*
X0029338Y0096035D01*
X0029192Y0095973D01*
X0029045Y0095915D01*
X0028896Y0095860D01*
X0028746Y0095809D01*
X0028595Y0095762D01*
X0028443Y0095719D01*
X0028290Y0095680D01*
X0028135Y0095644D01*
X0027980Y0095613D01*
X0027824Y0095585D01*
X0027668Y0095561D01*
X0027511Y0095541D01*
X0027353Y0095525D01*
X0027196Y0095513D01*
X0027037Y0095505D01*
X0026879Y0095501D01*
X0026721Y0095501D01*
X0026563Y0095505D01*
X0026404Y0095513D01*
X0026247Y0095525D01*
X0026089Y0095541D01*
X0025932Y0095561D01*
X0025776Y0095585D01*
X0025620Y0095613D01*
X0025465Y0095644D01*
X0025310Y0095680D01*
X0025157Y0095719D01*
X0025005Y0095762D01*
X0024854Y0095809D01*
X0024704Y0095860D01*
X0024555Y0095915D01*
X0024408Y0095973D01*
X0024262Y0096035D01*
X0024118Y0096100D01*
X0023976Y0096170D01*
X0023835Y0096242D01*
X0023696Y0096319D01*
X0023560Y0096398D01*
X0023425Y0096482D01*
X0023292Y0096568D01*
X0023162Y0096658D01*
X0023034Y0096751D01*
X0022908Y0096847D01*
X0022785Y0096947D01*
X0022664Y0097049D01*
X0022546Y0097154D01*
X0022431Y0097263D01*
X0022318Y0097374D01*
X0022208Y0097488D01*
X0022101Y0097605D01*
X0021997Y0097724D01*
X0021896Y0097846D01*
X0021799Y0097971D01*
X0021704Y0098098D01*
X0021613Y0098227D01*
X0021524Y0098358D01*
X0021440Y0098492D01*
X0021358Y0098628D01*
X0021280Y0098765D01*
X0021206Y0098905D01*
X0021135Y0099047D01*
X0021067Y0099190D01*
X0021003Y0099335D01*
X0020943Y0099481D01*
X0020887Y0099629D01*
X0020834Y0099778D01*
X0020785Y0099929D01*
X0020740Y0100081D01*
X0020699Y0100234D01*
X0020661Y0100387D01*
X0020628Y0100542D01*
X0020598Y0100698D01*
X0020572Y0100854D01*
X0020551Y0101011D01*
X0020533Y0101168D01*
X0020519Y0101326D01*
X0020509Y0101484D01*
X0020503Y0101642D01*
X0020501Y0101800D01*
X0265501Y0101800D02*
X0265503Y0101958D01*
X0265509Y0102116D01*
X0265519Y0102274D01*
X0265533Y0102432D01*
X0265551Y0102589D01*
X0265572Y0102746D01*
X0265598Y0102902D01*
X0265628Y0103058D01*
X0265661Y0103213D01*
X0265699Y0103366D01*
X0265740Y0103519D01*
X0265785Y0103671D01*
X0265834Y0103822D01*
X0265887Y0103971D01*
X0265943Y0104119D01*
X0266003Y0104265D01*
X0266067Y0104410D01*
X0266135Y0104553D01*
X0266206Y0104695D01*
X0266280Y0104835D01*
X0266358Y0104972D01*
X0266440Y0105108D01*
X0266524Y0105242D01*
X0266613Y0105373D01*
X0266704Y0105502D01*
X0266799Y0105629D01*
X0266896Y0105754D01*
X0266997Y0105876D01*
X0267101Y0105995D01*
X0267208Y0106112D01*
X0267318Y0106226D01*
X0267431Y0106337D01*
X0267546Y0106446D01*
X0267664Y0106551D01*
X0267785Y0106653D01*
X0267908Y0106753D01*
X0268034Y0106849D01*
X0268162Y0106942D01*
X0268292Y0107032D01*
X0268425Y0107118D01*
X0268560Y0107202D01*
X0268696Y0107281D01*
X0268835Y0107358D01*
X0268976Y0107430D01*
X0269118Y0107500D01*
X0269262Y0107565D01*
X0269408Y0107627D01*
X0269555Y0107685D01*
X0269704Y0107740D01*
X0269854Y0107791D01*
X0270005Y0107838D01*
X0270157Y0107881D01*
X0270310Y0107920D01*
X0270465Y0107956D01*
X0270620Y0107987D01*
X0270776Y0108015D01*
X0270932Y0108039D01*
X0271089Y0108059D01*
X0271247Y0108075D01*
X0271404Y0108087D01*
X0271563Y0108095D01*
X0271721Y0108099D01*
X0271879Y0108099D01*
X0272037Y0108095D01*
X0272196Y0108087D01*
X0272353Y0108075D01*
X0272511Y0108059D01*
X0272668Y0108039D01*
X0272824Y0108015D01*
X0272980Y0107987D01*
X0273135Y0107956D01*
X0273290Y0107920D01*
X0273443Y0107881D01*
X0273595Y0107838D01*
X0273746Y0107791D01*
X0273896Y0107740D01*
X0274045Y0107685D01*
X0274192Y0107627D01*
X0274338Y0107565D01*
X0274482Y0107500D01*
X0274624Y0107430D01*
X0274765Y0107358D01*
X0274904Y0107281D01*
X0275040Y0107202D01*
X0275175Y0107118D01*
X0275308Y0107032D01*
X0275438Y0106942D01*
X0275566Y0106849D01*
X0275692Y0106753D01*
X0275815Y0106653D01*
X0275936Y0106551D01*
X0276054Y0106446D01*
X0276169Y0106337D01*
X0276282Y0106226D01*
X0276392Y0106112D01*
X0276499Y0105995D01*
X0276603Y0105876D01*
X0276704Y0105754D01*
X0276801Y0105629D01*
X0276896Y0105502D01*
X0276987Y0105373D01*
X0277076Y0105242D01*
X0277160Y0105108D01*
X0277242Y0104972D01*
X0277320Y0104835D01*
X0277394Y0104695D01*
X0277465Y0104553D01*
X0277533Y0104410D01*
X0277597Y0104265D01*
X0277657Y0104119D01*
X0277713Y0103971D01*
X0277766Y0103822D01*
X0277815Y0103671D01*
X0277860Y0103519D01*
X0277901Y0103366D01*
X0277939Y0103213D01*
X0277972Y0103058D01*
X0278002Y0102902D01*
X0278028Y0102746D01*
X0278049Y0102589D01*
X0278067Y0102432D01*
X0278081Y0102274D01*
X0278091Y0102116D01*
X0278097Y0101958D01*
X0278099Y0101800D01*
X0278097Y0101642D01*
X0278091Y0101484D01*
X0278081Y0101326D01*
X0278067Y0101168D01*
X0278049Y0101011D01*
X0278028Y0100854D01*
X0278002Y0100698D01*
X0277972Y0100542D01*
X0277939Y0100387D01*
X0277901Y0100234D01*
X0277860Y0100081D01*
X0277815Y0099929D01*
X0277766Y0099778D01*
X0277713Y0099629D01*
X0277657Y0099481D01*
X0277597Y0099335D01*
X0277533Y0099190D01*
X0277465Y0099047D01*
X0277394Y0098905D01*
X0277320Y0098765D01*
X0277242Y0098628D01*
X0277160Y0098492D01*
X0277076Y0098358D01*
X0276987Y0098227D01*
X0276896Y0098098D01*
X0276801Y0097971D01*
X0276704Y0097846D01*
X0276603Y0097724D01*
X0276499Y0097605D01*
X0276392Y0097488D01*
X0276282Y0097374D01*
X0276169Y0097263D01*
X0276054Y0097154D01*
X0275936Y0097049D01*
X0275815Y0096947D01*
X0275692Y0096847D01*
X0275566Y0096751D01*
X0275438Y0096658D01*
X0275308Y0096568D01*
X0275175Y0096482D01*
X0275040Y0096398D01*
X0274904Y0096319D01*
X0274765Y0096242D01*
X0274624Y0096170D01*
X0274482Y0096100D01*
X0274338Y0096035D01*
X0274192Y0095973D01*
X0274045Y0095915D01*
X0273896Y0095860D01*
X0273746Y0095809D01*
X0273595Y0095762D01*
X0273443Y0095719D01*
X0273290Y0095680D01*
X0273135Y0095644D01*
X0272980Y0095613D01*
X0272824Y0095585D01*
X0272668Y0095561D01*
X0272511Y0095541D01*
X0272353Y0095525D01*
X0272196Y0095513D01*
X0272037Y0095505D01*
X0271879Y0095501D01*
X0271721Y0095501D01*
X0271563Y0095505D01*
X0271404Y0095513D01*
X0271247Y0095525D01*
X0271089Y0095541D01*
X0270932Y0095561D01*
X0270776Y0095585D01*
X0270620Y0095613D01*
X0270465Y0095644D01*
X0270310Y0095680D01*
X0270157Y0095719D01*
X0270005Y0095762D01*
X0269854Y0095809D01*
X0269704Y0095860D01*
X0269555Y0095915D01*
X0269408Y0095973D01*
X0269262Y0096035D01*
X0269118Y0096100D01*
X0268976Y0096170D01*
X0268835Y0096242D01*
X0268696Y0096319D01*
X0268560Y0096398D01*
X0268425Y0096482D01*
X0268292Y0096568D01*
X0268162Y0096658D01*
X0268034Y0096751D01*
X0267908Y0096847D01*
X0267785Y0096947D01*
X0267664Y0097049D01*
X0267546Y0097154D01*
X0267431Y0097263D01*
X0267318Y0097374D01*
X0267208Y0097488D01*
X0267101Y0097605D01*
X0266997Y0097724D01*
X0266896Y0097846D01*
X0266799Y0097971D01*
X0266704Y0098098D01*
X0266613Y0098227D01*
X0266524Y0098358D01*
X0266440Y0098492D01*
X0266358Y0098628D01*
X0266280Y0098765D01*
X0266206Y0098905D01*
X0266135Y0099047D01*
X0266067Y0099190D01*
X0266003Y0099335D01*
X0265943Y0099481D01*
X0265887Y0099629D01*
X0265834Y0099778D01*
X0265785Y0099929D01*
X0265740Y0100081D01*
X0265699Y0100234D01*
X0265661Y0100387D01*
X0265628Y0100542D01*
X0265598Y0100698D01*
X0265572Y0100854D01*
X0265551Y0101011D01*
X0265533Y0101168D01*
X0265519Y0101326D01*
X0265509Y0101484D01*
X0265503Y0101642D01*
X0265501Y0101800D01*
X0265501Y0021800D02*
X0265503Y0021958D01*
X0265509Y0022116D01*
X0265519Y0022274D01*
X0265533Y0022432D01*
X0265551Y0022589D01*
X0265572Y0022746D01*
X0265598Y0022902D01*
X0265628Y0023058D01*
X0265661Y0023213D01*
X0265699Y0023366D01*
X0265740Y0023519D01*
X0265785Y0023671D01*
X0265834Y0023822D01*
X0265887Y0023971D01*
X0265943Y0024119D01*
X0266003Y0024265D01*
X0266067Y0024410D01*
X0266135Y0024553D01*
X0266206Y0024695D01*
X0266280Y0024835D01*
X0266358Y0024972D01*
X0266440Y0025108D01*
X0266524Y0025242D01*
X0266613Y0025373D01*
X0266704Y0025502D01*
X0266799Y0025629D01*
X0266896Y0025754D01*
X0266997Y0025876D01*
X0267101Y0025995D01*
X0267208Y0026112D01*
X0267318Y0026226D01*
X0267431Y0026337D01*
X0267546Y0026446D01*
X0267664Y0026551D01*
X0267785Y0026653D01*
X0267908Y0026753D01*
X0268034Y0026849D01*
X0268162Y0026942D01*
X0268292Y0027032D01*
X0268425Y0027118D01*
X0268560Y0027202D01*
X0268696Y0027281D01*
X0268835Y0027358D01*
X0268976Y0027430D01*
X0269118Y0027500D01*
X0269262Y0027565D01*
X0269408Y0027627D01*
X0269555Y0027685D01*
X0269704Y0027740D01*
X0269854Y0027791D01*
X0270005Y0027838D01*
X0270157Y0027881D01*
X0270310Y0027920D01*
X0270465Y0027956D01*
X0270620Y0027987D01*
X0270776Y0028015D01*
X0270932Y0028039D01*
X0271089Y0028059D01*
X0271247Y0028075D01*
X0271404Y0028087D01*
X0271563Y0028095D01*
X0271721Y0028099D01*
X0271879Y0028099D01*
X0272037Y0028095D01*
X0272196Y0028087D01*
X0272353Y0028075D01*
X0272511Y0028059D01*
X0272668Y0028039D01*
X0272824Y0028015D01*
X0272980Y0027987D01*
X0273135Y0027956D01*
X0273290Y0027920D01*
X0273443Y0027881D01*
X0273595Y0027838D01*
X0273746Y0027791D01*
X0273896Y0027740D01*
X0274045Y0027685D01*
X0274192Y0027627D01*
X0274338Y0027565D01*
X0274482Y0027500D01*
X0274624Y0027430D01*
X0274765Y0027358D01*
X0274904Y0027281D01*
X0275040Y0027202D01*
X0275175Y0027118D01*
X0275308Y0027032D01*
X0275438Y0026942D01*
X0275566Y0026849D01*
X0275692Y0026753D01*
X0275815Y0026653D01*
X0275936Y0026551D01*
X0276054Y0026446D01*
X0276169Y0026337D01*
X0276282Y0026226D01*
X0276392Y0026112D01*
X0276499Y0025995D01*
X0276603Y0025876D01*
X0276704Y0025754D01*
X0276801Y0025629D01*
X0276896Y0025502D01*
X0276987Y0025373D01*
X0277076Y0025242D01*
X0277160Y0025108D01*
X0277242Y0024972D01*
X0277320Y0024835D01*
X0277394Y0024695D01*
X0277465Y0024553D01*
X0277533Y0024410D01*
X0277597Y0024265D01*
X0277657Y0024119D01*
X0277713Y0023971D01*
X0277766Y0023822D01*
X0277815Y0023671D01*
X0277860Y0023519D01*
X0277901Y0023366D01*
X0277939Y0023213D01*
X0277972Y0023058D01*
X0278002Y0022902D01*
X0278028Y0022746D01*
X0278049Y0022589D01*
X0278067Y0022432D01*
X0278081Y0022274D01*
X0278091Y0022116D01*
X0278097Y0021958D01*
X0278099Y0021800D01*
X0278097Y0021642D01*
X0278091Y0021484D01*
X0278081Y0021326D01*
X0278067Y0021168D01*
X0278049Y0021011D01*
X0278028Y0020854D01*
X0278002Y0020698D01*
X0277972Y0020542D01*
X0277939Y0020387D01*
X0277901Y0020234D01*
X0277860Y0020081D01*
X0277815Y0019929D01*
X0277766Y0019778D01*
X0277713Y0019629D01*
X0277657Y0019481D01*
X0277597Y0019335D01*
X0277533Y0019190D01*
X0277465Y0019047D01*
X0277394Y0018905D01*
X0277320Y0018765D01*
X0277242Y0018628D01*
X0277160Y0018492D01*
X0277076Y0018358D01*
X0276987Y0018227D01*
X0276896Y0018098D01*
X0276801Y0017971D01*
X0276704Y0017846D01*
X0276603Y0017724D01*
X0276499Y0017605D01*
X0276392Y0017488D01*
X0276282Y0017374D01*
X0276169Y0017263D01*
X0276054Y0017154D01*
X0275936Y0017049D01*
X0275815Y0016947D01*
X0275692Y0016847D01*
X0275566Y0016751D01*
X0275438Y0016658D01*
X0275308Y0016568D01*
X0275175Y0016482D01*
X0275040Y0016398D01*
X0274904Y0016319D01*
X0274765Y0016242D01*
X0274624Y0016170D01*
X0274482Y0016100D01*
X0274338Y0016035D01*
X0274192Y0015973D01*
X0274045Y0015915D01*
X0273896Y0015860D01*
X0273746Y0015809D01*
X0273595Y0015762D01*
X0273443Y0015719D01*
X0273290Y0015680D01*
X0273135Y0015644D01*
X0272980Y0015613D01*
X0272824Y0015585D01*
X0272668Y0015561D01*
X0272511Y0015541D01*
X0272353Y0015525D01*
X0272196Y0015513D01*
X0272037Y0015505D01*
X0271879Y0015501D01*
X0271721Y0015501D01*
X0271563Y0015505D01*
X0271404Y0015513D01*
X0271247Y0015525D01*
X0271089Y0015541D01*
X0270932Y0015561D01*
X0270776Y0015585D01*
X0270620Y0015613D01*
X0270465Y0015644D01*
X0270310Y0015680D01*
X0270157Y0015719D01*
X0270005Y0015762D01*
X0269854Y0015809D01*
X0269704Y0015860D01*
X0269555Y0015915D01*
X0269408Y0015973D01*
X0269262Y0016035D01*
X0269118Y0016100D01*
X0268976Y0016170D01*
X0268835Y0016242D01*
X0268696Y0016319D01*
X0268560Y0016398D01*
X0268425Y0016482D01*
X0268292Y0016568D01*
X0268162Y0016658D01*
X0268034Y0016751D01*
X0267908Y0016847D01*
X0267785Y0016947D01*
X0267664Y0017049D01*
X0267546Y0017154D01*
X0267431Y0017263D01*
X0267318Y0017374D01*
X0267208Y0017488D01*
X0267101Y0017605D01*
X0266997Y0017724D01*
X0266896Y0017846D01*
X0266799Y0017971D01*
X0266704Y0018098D01*
X0266613Y0018227D01*
X0266524Y0018358D01*
X0266440Y0018492D01*
X0266358Y0018628D01*
X0266280Y0018765D01*
X0266206Y0018905D01*
X0266135Y0019047D01*
X0266067Y0019190D01*
X0266003Y0019335D01*
X0265943Y0019481D01*
X0265887Y0019629D01*
X0265834Y0019778D01*
X0265785Y0019929D01*
X0265740Y0020081D01*
X0265699Y0020234D01*
X0265661Y0020387D01*
X0265628Y0020542D01*
X0265598Y0020698D01*
X0265572Y0020854D01*
X0265551Y0021011D01*
X0265533Y0021168D01*
X0265519Y0021326D01*
X0265509Y0021484D01*
X0265503Y0021642D01*
X0265501Y0021800D01*
D11*
X0234300Y0053800D02*
X0234300Y0059800D01*
X0224300Y0059800D02*
X0224300Y0053800D01*
X0214300Y0053800D02*
X0214300Y0059800D01*
X0184300Y0059800D02*
X0184300Y0053800D01*
X0174300Y0053800D02*
X0174300Y0059800D01*
X0164300Y0059800D02*
X0164300Y0053800D01*
X0134300Y0053800D02*
X0134300Y0059800D01*
X0124300Y0059800D02*
X0124300Y0053800D01*
X0114300Y0053800D02*
X0114300Y0059800D01*
X0084300Y0059800D02*
X0084300Y0053800D01*
X0074300Y0053800D02*
X0074300Y0059800D01*
X0064300Y0059800D02*
X0064300Y0053800D01*
X0084300Y0103800D02*
X0084300Y0109800D01*
X0094300Y0109800D02*
X0094300Y0103800D01*
X0104300Y0103800D02*
X0104300Y0109800D01*
X0114300Y0109800D02*
X0114300Y0103800D01*
X0184300Y0103800D02*
X0184300Y0109800D01*
X0194300Y0109800D02*
X0194300Y0103800D01*
X0204300Y0103800D02*
X0204300Y0109800D01*
X0214300Y0109800D02*
X0214300Y0103800D01*
D12*
X0204300Y0076800D03*
X0194300Y0076800D03*
X0154300Y0076800D03*
X0144300Y0076800D03*
X0104300Y0076800D03*
X0094300Y0076800D03*
X0054300Y0076800D03*
X0244300Y0076800D03*
D13*
X0270775Y0071800D02*
X0277825Y0071800D01*
X0277825Y0051800D02*
X0270775Y0051800D01*
X0234300Y0022825D02*
X0234300Y0015775D01*
X0214300Y0015775D02*
X0214300Y0022825D01*
X0184300Y0022825D02*
X0184300Y0015775D01*
X0164300Y0015775D02*
X0164300Y0022825D01*
X0134300Y0022825D02*
X0134300Y0015775D01*
X0114300Y0015775D02*
X0114300Y0022825D01*
X0084300Y0022825D02*
X0084300Y0015775D01*
X0064300Y0015775D02*
X0064300Y0022825D01*
X0027825Y0051800D02*
X0020775Y0051800D01*
X0020775Y0071800D02*
X0027825Y0071800D01*
D14*
X0024675Y0072134D02*
X0051900Y0072134D01*
X0051900Y0073260D02*
X0051900Y0066323D01*
X0052265Y0065441D01*
X0059700Y0058006D01*
X0059700Y0052885D01*
X0060400Y0051194D01*
X0061694Y0049900D01*
X0063385Y0049200D01*
X0065215Y0049200D01*
X0066906Y0049900D01*
X0068200Y0051194D01*
X0068900Y0052885D01*
X0068900Y0060715D01*
X0068200Y0062406D01*
X0066906Y0063700D01*
X0065215Y0064400D01*
X0063385Y0064400D01*
X0061694Y0063700D01*
X0061244Y0063250D01*
X0056700Y0067794D01*
X0056700Y0073260D01*
X0058500Y0075060D01*
X0058500Y0077606D01*
X0081244Y0100350D01*
X0081694Y0099900D01*
X0083385Y0099200D01*
X0085215Y0099200D01*
X0086906Y0099900D01*
X0088200Y0101194D01*
X0088900Y0102885D01*
X0088900Y0110715D01*
X0088200Y0112406D01*
X0086906Y0113700D01*
X0085215Y0114400D01*
X0083385Y0114400D01*
X0081694Y0113700D01*
X0080400Y0112406D01*
X0079700Y0110715D01*
X0079700Y0105594D01*
X0055106Y0081000D01*
X0052560Y0081000D01*
X0050100Y0078540D01*
X0050100Y0075060D01*
X0051900Y0073260D01*
X0051427Y0073733D02*
X0032796Y0073733D01*
X0032760Y0073844D02*
X0032379Y0074591D01*
X0031887Y0075269D01*
X0031294Y0075862D01*
X0030616Y0076354D01*
X0029869Y0076735D01*
X0029072Y0076994D01*
X0028244Y0077125D01*
X0024675Y0077125D01*
X0024675Y0072175D01*
X0023925Y0072175D01*
X0023925Y0077125D01*
X0020356Y0077125D01*
X0019528Y0076994D01*
X0018731Y0076735D01*
X0017984Y0076354D01*
X0017306Y0075862D01*
X0016713Y0075269D01*
X0016221Y0074591D01*
X0015840Y0073844D01*
X0015581Y0073047D01*
X0015450Y0072219D01*
X0015450Y0072175D01*
X0023925Y0072175D01*
X0023925Y0071425D01*
X0024675Y0071425D01*
X0024675Y0072175D01*
X0033150Y0072175D01*
X0033150Y0072219D01*
X0033019Y0073047D01*
X0032760Y0073844D01*
X0031824Y0075332D02*
X0050100Y0075332D01*
X0050100Y0076930D02*
X0029268Y0076930D01*
X0024675Y0076930D02*
X0023925Y0076930D01*
X0023925Y0075332D02*
X0024675Y0075332D01*
X0024675Y0073733D02*
X0023925Y0073733D01*
X0023925Y0072134D02*
X0011600Y0072134D01*
X0011600Y0070536D02*
X0015587Y0070536D01*
X0015581Y0070553D02*
X0015840Y0069756D01*
X0016221Y0069009D01*
X0016713Y0068331D01*
X0017306Y0067738D01*
X0017984Y0067246D01*
X0018731Y0066865D01*
X0019528Y0066606D01*
X0020356Y0066475D01*
X0023925Y0066475D01*
X0023925Y0071425D01*
X0015450Y0071425D01*
X0015450Y0071381D01*
X0015581Y0070553D01*
X0016273Y0068937D02*
X0011600Y0068937D01*
X0011600Y0067339D02*
X0017856Y0067339D01*
X0023925Y0067339D02*
X0024675Y0067339D01*
X0024675Y0066475D02*
X0028244Y0066475D01*
X0029072Y0066606D01*
X0029869Y0066865D01*
X0030616Y0067246D01*
X0031294Y0067738D01*
X0031887Y0068331D01*
X0032379Y0069009D01*
X0032760Y0069756D01*
X0033019Y0070553D01*
X0033150Y0071381D01*
X0033150Y0071425D01*
X0024675Y0071425D01*
X0024675Y0066475D01*
X0024675Y0068937D02*
X0023925Y0068937D01*
X0023925Y0070536D02*
X0024675Y0070536D01*
X0030744Y0067339D02*
X0051900Y0067339D01*
X0051900Y0068937D02*
X0032327Y0068937D01*
X0033013Y0070536D02*
X0051900Y0070536D01*
X0056700Y0070536D02*
X0107170Y0070536D01*
X0105571Y0072134D02*
X0056700Y0072134D01*
X0057173Y0073733D02*
X0091144Y0073733D01*
X0089900Y0074977D02*
X0092477Y0072400D01*
X0094300Y0072400D01*
X0096123Y0072400D01*
X0098700Y0074977D01*
X0098700Y0076800D01*
X0098700Y0078623D01*
X0096123Y0081200D01*
X0094300Y0081200D01*
X0094300Y0076800D01*
X0098700Y0076800D01*
X0094300Y0076800D01*
X0094300Y0076800D01*
X0094300Y0076800D01*
X0094300Y0072400D01*
X0094300Y0076800D01*
X0094300Y0076800D01*
X0094300Y0076800D01*
X0089900Y0076800D01*
X0089900Y0078623D01*
X0092477Y0081200D01*
X0094300Y0081200D01*
X0094300Y0076800D01*
X0089900Y0076800D01*
X0089900Y0074977D01*
X0089900Y0075332D02*
X0058500Y0075332D01*
X0058500Y0076930D02*
X0089900Y0076930D01*
X0089900Y0078529D02*
X0059423Y0078529D01*
X0061021Y0080127D02*
X0091405Y0080127D01*
X0094300Y0080127D02*
X0094300Y0080127D01*
X0094300Y0078529D02*
X0094300Y0078529D01*
X0094300Y0076930D02*
X0094300Y0076930D01*
X0098700Y0076930D02*
X0100100Y0076930D01*
X0100100Y0077606D02*
X0100100Y0075060D01*
X0102560Y0072600D01*
X0105106Y0072600D01*
X0111900Y0065806D01*
X0111900Y0063785D01*
X0111694Y0063700D01*
X0110400Y0062406D01*
X0109700Y0060715D01*
X0109700Y0052885D01*
X0110400Y0051194D01*
X0111694Y0049900D01*
X0113385Y0049200D01*
X0115215Y0049200D01*
X0116906Y0049900D01*
X0118200Y0051194D01*
X0118900Y0052885D01*
X0118900Y0060715D01*
X0118200Y0062406D01*
X0116906Y0063700D01*
X0116700Y0063785D01*
X0116700Y0067277D01*
X0116335Y0068159D01*
X0115659Y0068835D01*
X0108500Y0075994D01*
X0108500Y0078540D01*
X0106040Y0081000D01*
X0103494Y0081000D01*
X0096700Y0087794D01*
X0096700Y0099815D01*
X0096906Y0099900D01*
X0098200Y0101194D01*
X0098900Y0102885D01*
X0098900Y0110715D01*
X0098200Y0112406D01*
X0096906Y0113700D01*
X0095215Y0114400D01*
X0093385Y0114400D01*
X0091694Y0113700D01*
X0090400Y0112406D01*
X0089700Y0110715D01*
X0089700Y0102885D01*
X0090400Y0101194D01*
X0091694Y0099900D01*
X0091900Y0099815D01*
X0091900Y0086323D01*
X0092265Y0085441D01*
X0092941Y0084765D01*
X0100100Y0077606D01*
X0099177Y0078529D02*
X0098700Y0078529D01*
X0097579Y0080127D02*
X0097195Y0080127D01*
X0095980Y0081726D02*
X0062620Y0081726D01*
X0064218Y0083324D02*
X0094382Y0083324D01*
X0092783Y0084923D02*
X0065817Y0084923D01*
X0067415Y0086521D02*
X0091900Y0086521D01*
X0091900Y0088120D02*
X0069014Y0088120D01*
X0070612Y0089718D02*
X0091900Y0089718D01*
X0091900Y0091317D02*
X0072211Y0091317D01*
X0073809Y0092915D02*
X0091900Y0092915D01*
X0091900Y0094514D02*
X0075408Y0094514D01*
X0077006Y0096112D02*
X0091900Y0096112D01*
X0096700Y0096112D02*
X0106594Y0096112D01*
X0108192Y0094514D02*
X0096700Y0094514D01*
X0096700Y0092915D02*
X0109791Y0092915D01*
X0111389Y0091317D02*
X0096700Y0091317D01*
X0096700Y0089718D02*
X0112988Y0089718D01*
X0114586Y0088120D02*
X0096700Y0088120D01*
X0097973Y0086521D02*
X0116185Y0086521D01*
X0119300Y0086800D02*
X0104300Y0101800D01*
X0104300Y0106800D01*
X0108900Y0107302D02*
X0109700Y0107302D01*
X0109700Y0105703D02*
X0108900Y0105703D01*
X0108900Y0104105D02*
X0109700Y0104105D01*
X0109700Y0102885D02*
X0110400Y0101194D01*
X0111694Y0099900D01*
X0113385Y0099200D01*
X0113506Y0099200D01*
X0122941Y0089765D01*
X0123823Y0089400D01*
X0188306Y0089400D01*
X0200100Y0077606D01*
X0200100Y0075060D01*
X0202560Y0072600D01*
X0205106Y0072600D01*
X0211900Y0065806D01*
X0211900Y0063785D01*
X0211694Y0063700D01*
X0210400Y0062406D01*
X0209700Y0060715D01*
X0209700Y0052885D01*
X0210400Y0051194D01*
X0211694Y0049900D01*
X0213385Y0049200D01*
X0215215Y0049200D01*
X0216906Y0049900D01*
X0218200Y0051194D01*
X0218900Y0052885D01*
X0218900Y0060715D01*
X0218200Y0062406D01*
X0216906Y0063700D01*
X0216700Y0063785D01*
X0216700Y0067277D01*
X0216335Y0068159D01*
X0215659Y0068835D01*
X0208500Y0075994D01*
X0208500Y0078540D01*
X0206040Y0081000D01*
X0203494Y0081000D01*
X0191335Y0093159D01*
X0190659Y0093835D01*
X0189777Y0094200D01*
X0125294Y0094200D01*
X0118229Y0101265D01*
X0118900Y0102885D01*
X0118900Y0110715D01*
X0118200Y0112406D01*
X0116906Y0113700D01*
X0115215Y0114400D01*
X0113385Y0114400D01*
X0111694Y0113700D01*
X0110400Y0112406D01*
X0109700Y0110715D01*
X0109700Y0102885D01*
X0109857Y0102506D02*
X0108743Y0102506D01*
X0108900Y0102885D02*
X0108229Y0101265D01*
X0120294Y0089200D01*
X0144777Y0089200D01*
X0145659Y0088835D01*
X0146335Y0088159D01*
X0146335Y0088159D01*
X0153494Y0081000D01*
X0156040Y0081000D01*
X0158500Y0078540D01*
X0158500Y0075994D01*
X0165659Y0068835D01*
X0165659Y0068835D01*
X0166335Y0068159D01*
X0166700Y0067277D01*
X0166700Y0063785D01*
X0166906Y0063700D01*
X0168200Y0062406D01*
X0168900Y0060715D01*
X0168900Y0052885D01*
X0168200Y0051194D01*
X0166906Y0049900D01*
X0165215Y0049200D01*
X0163385Y0049200D01*
X0161694Y0049900D01*
X0160400Y0051194D01*
X0159700Y0052885D01*
X0159700Y0060715D01*
X0160400Y0062406D01*
X0161694Y0063700D01*
X0161900Y0063785D01*
X0161900Y0065806D01*
X0155106Y0072600D01*
X0152560Y0072600D01*
X0150100Y0075060D01*
X0150100Y0077606D01*
X0143306Y0084400D01*
X0118823Y0084400D01*
X0117941Y0084765D01*
X0103506Y0099200D01*
X0103385Y0099200D01*
X0101694Y0099900D01*
X0100400Y0101194D01*
X0099700Y0102885D01*
X0099700Y0110715D01*
X0100400Y0112406D01*
X0101694Y0113700D01*
X0103385Y0114400D01*
X0105215Y0114400D01*
X0106906Y0113700D01*
X0108200Y0112406D01*
X0108900Y0110715D01*
X0108900Y0102885D01*
X0114300Y0101800D02*
X0114300Y0106800D01*
X0118900Y0107302D02*
X0179500Y0107302D01*
X0179500Y0107000D02*
X0184100Y0107000D01*
X0184100Y0114600D01*
X0183922Y0114600D01*
X0183176Y0114482D01*
X0182457Y0114248D01*
X0181784Y0113905D01*
X0181173Y0113461D01*
X0180639Y0112927D01*
X0180195Y0112316D01*
X0179852Y0111643D01*
X0179618Y0110924D01*
X0179500Y0110178D01*
X0179500Y0107000D01*
X0179500Y0106600D02*
X0179500Y0103422D01*
X0179618Y0102676D01*
X0179852Y0101957D01*
X0180195Y0101284D01*
X0180639Y0100673D01*
X0181173Y0100139D01*
X0181784Y0099695D01*
X0182457Y0099352D01*
X0183176Y0099118D01*
X0183922Y0099000D01*
X0184100Y0099000D01*
X0184100Y0106600D01*
X0184500Y0106600D01*
X0184500Y0107000D01*
X0189100Y0107000D01*
X0189100Y0110178D01*
X0188982Y0110924D01*
X0188748Y0111643D01*
X0188405Y0112316D01*
X0187961Y0112927D01*
X0187427Y0113461D01*
X0186816Y0113905D01*
X0186143Y0114248D01*
X0185424Y0114482D01*
X0184678Y0114600D01*
X0184500Y0114600D01*
X0184500Y0107000D01*
X0184100Y0107000D01*
X0184100Y0106600D01*
X0179500Y0106600D01*
X0179500Y0105703D02*
X0118900Y0105703D01*
X0118900Y0104105D02*
X0179500Y0104105D01*
X0184100Y0104105D02*
X0184500Y0104105D01*
X0184500Y0105703D02*
X0184100Y0105703D01*
X0184500Y0106600D02*
X0184500Y0099000D01*
X0184678Y0099000D01*
X0185424Y0099118D01*
X0186143Y0099352D01*
X0186816Y0099695D01*
X0187427Y0100139D01*
X0187961Y0100673D01*
X0188405Y0101284D01*
X0188748Y0101957D01*
X0188982Y0102676D01*
X0189100Y0103422D01*
X0189100Y0106600D01*
X0184500Y0106600D01*
X0184500Y0107302D02*
X0184100Y0107302D01*
X0184100Y0108900D02*
X0184500Y0108900D01*
X0184500Y0110499D02*
X0184100Y0110499D01*
X0184100Y0112097D02*
X0184500Y0112097D01*
X0184500Y0113696D02*
X0184100Y0113696D01*
X0181496Y0113696D02*
X0116910Y0113696D01*
X0118327Y0112097D02*
X0180083Y0112097D01*
X0179551Y0110499D02*
X0118900Y0110499D01*
X0118900Y0108900D02*
X0179500Y0108900D01*
X0187104Y0113696D02*
X0191496Y0113696D01*
X0191784Y0113905D02*
X0191173Y0113461D01*
X0190639Y0112927D01*
X0190195Y0112316D01*
X0189852Y0111643D01*
X0189618Y0110924D01*
X0189500Y0110178D01*
X0189500Y0107000D01*
X0194100Y0107000D01*
X0194100Y0114600D01*
X0193922Y0114600D01*
X0193176Y0114482D01*
X0192457Y0114248D01*
X0191784Y0113905D01*
X0194100Y0113696D02*
X0194500Y0113696D01*
X0194500Y0114600D02*
X0194500Y0107000D01*
X0199100Y0107000D01*
X0199100Y0110178D01*
X0198982Y0110924D01*
X0198748Y0111643D01*
X0198405Y0112316D01*
X0197961Y0112927D01*
X0197427Y0113461D01*
X0196816Y0113905D01*
X0196143Y0114248D01*
X0195424Y0114482D01*
X0194678Y0114600D01*
X0194500Y0114600D01*
X0197104Y0113696D02*
X0201496Y0113696D01*
X0201784Y0113905D02*
X0201173Y0113461D01*
X0200639Y0112927D01*
X0200195Y0112316D01*
X0199852Y0111643D01*
X0199618Y0110924D01*
X0199500Y0110178D01*
X0199500Y0107000D01*
X0204100Y0107000D01*
X0204100Y0114600D01*
X0203922Y0114600D01*
X0203176Y0114482D01*
X0202457Y0114248D01*
X0201784Y0113905D01*
X0204100Y0113696D02*
X0204500Y0113696D01*
X0204500Y0114600D02*
X0204500Y0107000D01*
X0209100Y0107000D01*
X0209100Y0110178D01*
X0208982Y0110924D01*
X0208748Y0111643D01*
X0208405Y0112316D01*
X0207961Y0112927D01*
X0207427Y0113461D01*
X0206816Y0113905D01*
X0206143Y0114248D01*
X0205424Y0114482D01*
X0204678Y0114600D01*
X0204500Y0114600D01*
X0207104Y0113696D02*
X0211496Y0113696D01*
X0211784Y0113905D02*
X0211173Y0113461D01*
X0210639Y0112927D01*
X0210195Y0112316D01*
X0209852Y0111643D01*
X0209618Y0110924D01*
X0209500Y0110178D01*
X0209500Y0107000D01*
X0214100Y0107000D01*
X0214100Y0114600D01*
X0213922Y0114600D01*
X0213176Y0114482D01*
X0212457Y0114248D01*
X0211784Y0113905D01*
X0214100Y0113696D02*
X0214500Y0113696D01*
X0214500Y0114600D02*
X0214500Y0107000D01*
X0219100Y0107000D01*
X0219100Y0110178D01*
X0218982Y0110924D01*
X0218748Y0111643D01*
X0218405Y0112316D01*
X0217961Y0112927D01*
X0217427Y0113461D01*
X0216816Y0113905D01*
X0216143Y0114248D01*
X0215424Y0114482D01*
X0214678Y0114600D01*
X0214500Y0114600D01*
X0217104Y0113696D02*
X0260073Y0113696D01*
X0259485Y0113227D02*
X0259485Y0113227D01*
X0263400Y0116349D01*
X0263400Y0116349D01*
X0264967Y0116964D01*
X0033704Y0116996D01*
X0037275Y0114935D01*
X0037275Y0114935D01*
X0040681Y0111264D01*
X0040681Y0111264D01*
X0042854Y0106752D01*
X0042854Y0106752D01*
X0043600Y0101800D01*
X0042854Y0096848D01*
X0042854Y0096848D01*
X0040681Y0092336D01*
X0040681Y0092336D01*
X0037275Y0088665D01*
X0037275Y0088665D01*
X0037275Y0088665D01*
X0032938Y0086161D01*
X0032938Y0086161D01*
X0028055Y0085047D01*
X0028055Y0085047D01*
X0023062Y0085421D01*
X0023062Y0085421D01*
X0018400Y0087251D01*
X0018400Y0087251D01*
X0014485Y0090373D01*
X0014485Y0090373D01*
X0014485Y0090373D01*
X0011664Y0094511D01*
X0011664Y0094511D01*
X0011600Y0094717D01*
X0011600Y0028883D01*
X0011664Y0029089D01*
X0011664Y0029089D01*
X0014485Y0033227D01*
X0014485Y0033227D01*
X0018400Y0036349D01*
X0018400Y0036349D01*
X0023062Y0038179D01*
X0023062Y0038179D01*
X0028055Y0038553D01*
X0028055Y0038553D01*
X0032938Y0037439D01*
X0032938Y0037439D01*
X0037275Y0034935D01*
X0037275Y0034935D01*
X0040681Y0031264D01*
X0040681Y0031264D01*
X0042854Y0026752D01*
X0043600Y0021800D01*
X0042854Y0016848D01*
X0042854Y0016848D01*
X0040681Y0012336D01*
X0040681Y0012336D01*
X0037275Y0008665D01*
X0037275Y0008665D01*
X0033697Y0006600D01*
X0065070Y0006600D01*
X0060146Y0011524D01*
X0059400Y0013325D01*
X0059400Y0014212D01*
X0059175Y0014756D01*
X0059175Y0023844D01*
X0059400Y0024388D01*
X0059400Y0024770D01*
X0037270Y0046900D01*
X0029388Y0046900D01*
X0028844Y0046675D01*
X0019756Y0046675D01*
X0017872Y0047455D01*
X0016430Y0048897D01*
X0015650Y0050781D01*
X0015650Y0052819D01*
X0016430Y0054703D01*
X0017872Y0056145D01*
X0019756Y0056925D01*
X0028844Y0056925D01*
X0029388Y0056700D01*
X0040275Y0056700D01*
X0042076Y0055954D01*
X0067076Y0030954D01*
X0068454Y0029576D01*
X0069200Y0027775D01*
X0069200Y0024388D01*
X0069425Y0023844D01*
X0069425Y0016105D01*
X0073830Y0011700D01*
X0081127Y0011700D01*
X0079955Y0012872D01*
X0079175Y0014756D01*
X0079175Y0023844D01*
X0079400Y0024388D01*
X0079400Y0024770D01*
X0071524Y0032646D01*
X0070146Y0034024D01*
X0069400Y0035825D01*
X0069400Y0057775D01*
X0069700Y0058499D01*
X0069700Y0060715D01*
X0070400Y0062406D01*
X0071694Y0063700D01*
X0073385Y0064400D01*
X0075215Y0064400D01*
X0076906Y0063700D01*
X0078200Y0062406D01*
X0078900Y0060715D01*
X0078900Y0058499D01*
X0079200Y0057775D01*
X0079200Y0038830D01*
X0088454Y0029576D01*
X0089200Y0027775D01*
X0089200Y0024388D01*
X0089425Y0023844D01*
X0089425Y0014756D01*
X0088645Y0012872D01*
X0087473Y0011700D01*
X0109400Y0011700D01*
X0109400Y0014212D01*
X0109175Y0014756D01*
X0109175Y0023844D01*
X0109955Y0025728D01*
X0111397Y0027170D01*
X0113281Y0027950D01*
X0115319Y0027950D01*
X0117203Y0027170D01*
X0118645Y0025728D01*
X0119425Y0023844D01*
X0119425Y0014756D01*
X0119200Y0014212D01*
X0119200Y0011700D01*
X0131127Y0011700D01*
X0129955Y0012872D01*
X0129175Y0014756D01*
X0129175Y0023844D01*
X0129400Y0024388D01*
X0129400Y0024770D01*
X0120146Y0034024D01*
X0119400Y0035825D01*
X0119400Y0057775D01*
X0119700Y0058499D01*
X0119700Y0060715D01*
X0120400Y0062406D01*
X0121694Y0063700D01*
X0123385Y0064400D01*
X0125215Y0064400D01*
X0126906Y0063700D01*
X0128200Y0062406D01*
X0128900Y0060715D01*
X0128900Y0058499D01*
X0129200Y0057775D01*
X0129200Y0038830D01*
X0137076Y0030954D01*
X0138454Y0029576D01*
X0139200Y0027775D01*
X0139200Y0024388D01*
X0139425Y0023844D01*
X0139425Y0014756D01*
X0138645Y0012872D01*
X0137473Y0011700D01*
X0159400Y0011700D01*
X0159400Y0014212D01*
X0159175Y0014756D01*
X0159175Y0023844D01*
X0159955Y0025728D01*
X0161397Y0027170D01*
X0163281Y0027950D01*
X0165319Y0027950D01*
X0167203Y0027170D01*
X0168645Y0025728D01*
X0169425Y0023844D01*
X0169425Y0014756D01*
X0169200Y0014212D01*
X0169200Y0011700D01*
X0181127Y0011700D01*
X0179955Y0012872D01*
X0179175Y0014756D01*
X0179175Y0023844D01*
X0179400Y0024388D01*
X0179400Y0024770D01*
X0170146Y0034024D01*
X0169400Y0035825D01*
X0169400Y0057775D01*
X0169700Y0058499D01*
X0169700Y0060715D01*
X0170400Y0062406D01*
X0171694Y0063700D01*
X0173385Y0064400D01*
X0175215Y0064400D01*
X0176906Y0063700D01*
X0178200Y0062406D01*
X0178900Y0060715D01*
X0178900Y0058499D01*
X0179200Y0057775D01*
X0179200Y0038830D01*
X0187076Y0030954D01*
X0188454Y0029576D01*
X0189200Y0027775D01*
X0189200Y0024388D01*
X0189425Y0023844D01*
X0189425Y0014756D01*
X0188645Y0012872D01*
X0187473Y0011700D01*
X0209400Y0011700D01*
X0209400Y0014212D01*
X0209175Y0014756D01*
X0209175Y0023844D01*
X0209955Y0025728D01*
X0211397Y0027170D01*
X0213281Y0027950D01*
X0215319Y0027950D01*
X0217203Y0027170D01*
X0218645Y0025728D01*
X0219425Y0023844D01*
X0219425Y0014756D01*
X0219200Y0014212D01*
X0219200Y0011700D01*
X0231127Y0011700D01*
X0229955Y0012872D01*
X0229175Y0014756D01*
X0229175Y0023844D01*
X0229400Y0024388D01*
X0229400Y0024770D01*
X0220146Y0034024D01*
X0219400Y0035825D01*
X0219400Y0057775D01*
X0219700Y0058499D01*
X0219700Y0060715D01*
X0220400Y0062406D01*
X0221694Y0063700D01*
X0223385Y0064400D01*
X0225215Y0064400D01*
X0226906Y0063700D01*
X0228200Y0062406D01*
X0228900Y0060715D01*
X0228900Y0058499D01*
X0229200Y0057775D01*
X0229200Y0038830D01*
X0237076Y0030954D01*
X0238454Y0029576D01*
X0239200Y0027775D01*
X0239200Y0024388D01*
X0239425Y0023844D01*
X0239425Y0014756D01*
X0238645Y0012872D01*
X0237473Y0011700D01*
X0239770Y0011700D01*
X0244400Y0016330D01*
X0244400Y0045275D01*
X0245146Y0047076D01*
X0252646Y0054576D01*
X0254024Y0055954D01*
X0255825Y0056700D01*
X0269212Y0056700D01*
X0269756Y0056925D01*
X0278844Y0056925D01*
X0280728Y0056145D01*
X0282170Y0054703D01*
X0282950Y0052819D01*
X0282950Y0050781D01*
X0282170Y0048897D01*
X0280728Y0047455D01*
X0278844Y0046675D01*
X0269756Y0046675D01*
X0269212Y0046900D01*
X0258830Y0046900D01*
X0254200Y0042270D01*
X0254200Y0013325D01*
X0253454Y0011524D01*
X0252076Y0010146D01*
X0248530Y0006600D01*
X0265058Y0006600D01*
X0263400Y0007251D01*
X0263400Y0007251D01*
X0259485Y0010373D01*
X0259485Y0010373D01*
X0259485Y0010373D01*
X0256664Y0014511D01*
X0256664Y0014511D01*
X0255188Y0019296D01*
X0255188Y0024304D01*
X0256664Y0029089D01*
X0259485Y0033227D01*
X0259485Y0033227D01*
X0263400Y0036349D01*
X0263400Y0036349D01*
X0268062Y0038179D01*
X0268062Y0038179D01*
X0273055Y0038553D01*
X0273055Y0038553D01*
X0277938Y0037439D01*
X0277938Y0037439D01*
X0282275Y0034935D01*
X0282275Y0034935D01*
X0285681Y0031264D01*
X0285681Y0031264D01*
X0285701Y0031222D01*
X0285701Y0092378D01*
X0285681Y0092336D01*
X0285681Y0092336D01*
X0282275Y0088665D01*
X0282275Y0088665D01*
X0282275Y0088665D01*
X0277938Y0086161D01*
X0277938Y0086161D01*
X0273055Y0085047D01*
X0273055Y0085047D01*
X0268062Y0085421D01*
X0268062Y0085421D01*
X0263400Y0087251D01*
X0263400Y0087251D01*
X0259485Y0090373D01*
X0259485Y0090373D01*
X0259485Y0090373D01*
X0256664Y0094511D01*
X0256664Y0094511D01*
X0255188Y0099296D01*
X0255188Y0104304D01*
X0256664Y0109089D01*
X0256664Y0109089D01*
X0259485Y0113227D01*
X0259485Y0113227D01*
X0258715Y0112097D02*
X0218517Y0112097D01*
X0219049Y0110499D02*
X0257625Y0110499D01*
X0256605Y0108900D02*
X0219100Y0108900D01*
X0214500Y0108900D02*
X0214100Y0108900D01*
X0214100Y0110499D02*
X0214500Y0110499D01*
X0214500Y0112097D02*
X0214100Y0112097D01*
X0210083Y0112097D02*
X0208517Y0112097D01*
X0209049Y0110499D02*
X0209551Y0110499D01*
X0209500Y0108900D02*
X0209100Y0108900D01*
X0209100Y0107302D02*
X0209500Y0107302D01*
X0209500Y0106600D02*
X0209500Y0103422D01*
X0209618Y0102676D01*
X0209852Y0101957D01*
X0210195Y0101284D01*
X0210639Y0100673D01*
X0211173Y0100139D01*
X0211784Y0099695D01*
X0212457Y0099352D01*
X0213176Y0099118D01*
X0213922Y0099000D01*
X0214100Y0099000D01*
X0214100Y0106600D01*
X0214500Y0106600D01*
X0214500Y0107000D01*
X0214100Y0107000D01*
X0214100Y0106600D01*
X0209500Y0106600D01*
X0209100Y0106600D02*
X0204500Y0106600D01*
X0204500Y0107000D01*
X0204100Y0107000D01*
X0204100Y0106600D01*
X0204500Y0106600D01*
X0204500Y0099000D01*
X0204678Y0099000D01*
X0205424Y0099118D01*
X0206143Y0099352D01*
X0206816Y0099695D01*
X0207427Y0100139D01*
X0207961Y0100673D01*
X0208405Y0101284D01*
X0208748Y0101957D01*
X0208982Y0102676D01*
X0209100Y0103422D01*
X0209100Y0106600D01*
X0209100Y0105703D02*
X0209500Y0105703D01*
X0209500Y0104105D02*
X0209100Y0104105D01*
X0214100Y0104105D02*
X0214500Y0104105D01*
X0214500Y0105703D02*
X0214100Y0105703D01*
X0214500Y0106600D02*
X0214500Y0099000D01*
X0214678Y0099000D01*
X0215424Y0099118D01*
X0216143Y0099352D01*
X0216816Y0099695D01*
X0217427Y0100139D01*
X0217961Y0100673D01*
X0218405Y0101284D01*
X0218748Y0101957D01*
X0218982Y0102676D01*
X0219100Y0103422D01*
X0219100Y0106600D01*
X0214500Y0106600D01*
X0214500Y0107302D02*
X0214100Y0107302D01*
X0219100Y0107302D02*
X0256112Y0107302D01*
X0255619Y0105703D02*
X0219100Y0105703D01*
X0219100Y0104105D02*
X0255188Y0104105D01*
X0255188Y0102506D02*
X0218927Y0102506D01*
X0218132Y0100908D02*
X0255188Y0100908D01*
X0255188Y0099309D02*
X0216012Y0099309D01*
X0214500Y0099309D02*
X0214100Y0099309D01*
X0212588Y0099309D02*
X0206012Y0099309D01*
X0204500Y0099309D02*
X0204100Y0099309D01*
X0204100Y0099000D02*
X0204100Y0106600D01*
X0199500Y0106600D01*
X0199500Y0103422D01*
X0199618Y0102676D01*
X0199852Y0101957D01*
X0200195Y0101284D01*
X0200639Y0100673D01*
X0201173Y0100139D01*
X0201784Y0099695D01*
X0202457Y0099352D01*
X0203176Y0099118D01*
X0203922Y0099000D01*
X0204100Y0099000D01*
X0202588Y0099309D02*
X0196012Y0099309D01*
X0196143Y0099352D02*
X0196816Y0099695D01*
X0197427Y0100139D01*
X0197961Y0100673D01*
X0198405Y0101284D01*
X0198748Y0101957D01*
X0198982Y0102676D01*
X0199100Y0103422D01*
X0199100Y0106600D01*
X0194500Y0106600D01*
X0194500Y0107000D01*
X0194100Y0107000D01*
X0194100Y0106600D01*
X0194500Y0106600D01*
X0194500Y0099000D01*
X0194678Y0099000D01*
X0195424Y0099118D01*
X0196143Y0099352D01*
X0194500Y0099309D02*
X0194100Y0099309D01*
X0194100Y0099000D02*
X0194100Y0106600D01*
X0189500Y0106600D01*
X0189500Y0103422D01*
X0189618Y0102676D01*
X0189852Y0101957D01*
X0190195Y0101284D01*
X0190639Y0100673D01*
X0191173Y0100139D01*
X0191784Y0099695D01*
X0192457Y0099352D01*
X0193176Y0099118D01*
X0193922Y0099000D01*
X0194100Y0099000D01*
X0192588Y0099309D02*
X0186012Y0099309D01*
X0184500Y0099309D02*
X0184100Y0099309D01*
X0182588Y0099309D02*
X0120185Y0099309D01*
X0121783Y0097711D02*
X0255677Y0097711D01*
X0256170Y0096112D02*
X0123382Y0096112D01*
X0124980Y0094514D02*
X0256663Y0094514D01*
X0257752Y0092915D02*
X0191579Y0092915D01*
X0189300Y0091800D02*
X0124300Y0091800D01*
X0114300Y0101800D01*
X0110687Y0100908D02*
X0108586Y0100908D01*
X0110185Y0099309D02*
X0113121Y0099309D01*
X0111783Y0097711D02*
X0114995Y0097711D01*
X0116594Y0096112D02*
X0113382Y0096112D01*
X0114980Y0094514D02*
X0118192Y0094514D01*
X0119791Y0092915D02*
X0116579Y0092915D01*
X0118177Y0091317D02*
X0121389Y0091317D01*
X0119776Y0089718D02*
X0123055Y0089718D01*
X0119300Y0086800D02*
X0144300Y0086800D01*
X0154300Y0076800D01*
X0164300Y0066800D01*
X0164300Y0056800D01*
X0159700Y0056149D02*
X0139100Y0056149D01*
X0139100Y0056600D02*
X0134500Y0056600D01*
X0134500Y0057000D01*
X0139100Y0057000D01*
X0139100Y0060178D01*
X0138982Y0060924D01*
X0138748Y0061643D01*
X0138405Y0062316D01*
X0137961Y0062927D01*
X0137427Y0063461D01*
X0136816Y0063905D01*
X0136143Y0064248D01*
X0135424Y0064482D01*
X0134678Y0064600D01*
X0134500Y0064600D01*
X0134500Y0057000D01*
X0134100Y0057000D01*
X0134100Y0064600D01*
X0133922Y0064600D01*
X0133176Y0064482D01*
X0132457Y0064248D01*
X0131784Y0063905D01*
X0131173Y0063461D01*
X0130639Y0062927D01*
X0130195Y0062316D01*
X0129852Y0061643D01*
X0129618Y0060924D01*
X0129500Y0060178D01*
X0129500Y0057000D01*
X0134100Y0057000D01*
X0134100Y0056600D01*
X0134500Y0056600D01*
X0134500Y0049000D01*
X0134678Y0049000D01*
X0135424Y0049118D01*
X0136143Y0049352D01*
X0136816Y0049695D01*
X0137427Y0050139D01*
X0137961Y0050673D01*
X0138405Y0051284D01*
X0138748Y0051957D01*
X0138982Y0052676D01*
X0139100Y0053422D01*
X0139100Y0056600D01*
X0139100Y0057748D02*
X0159700Y0057748D01*
X0159700Y0059346D02*
X0139100Y0059346D01*
X0138975Y0060945D02*
X0159795Y0060945D01*
X0160538Y0062543D02*
X0138240Y0062543D01*
X0136351Y0064142D02*
X0161900Y0064142D01*
X0166700Y0064142D02*
X0172762Y0064142D01*
X0170538Y0062543D02*
X0168062Y0062543D01*
X0168805Y0060945D02*
X0169795Y0060945D01*
X0169700Y0059346D02*
X0168900Y0059346D01*
X0168900Y0057748D02*
X0169400Y0057748D01*
X0169400Y0056149D02*
X0168900Y0056149D01*
X0168900Y0054551D02*
X0169400Y0054551D01*
X0169400Y0052952D02*
X0168900Y0052952D01*
X0169400Y0051354D02*
X0168266Y0051354D01*
X0169400Y0049755D02*
X0166556Y0049755D01*
X0162044Y0049755D02*
X0136899Y0049755D01*
X0138441Y0051354D02*
X0160334Y0051354D01*
X0159700Y0052952D02*
X0139026Y0052952D01*
X0139100Y0054551D02*
X0159700Y0054551D01*
X0169400Y0048157D02*
X0129200Y0048157D01*
X0129200Y0046558D02*
X0169400Y0046558D01*
X0169400Y0044960D02*
X0129200Y0044960D01*
X0129200Y0043361D02*
X0169400Y0043361D01*
X0169400Y0041763D02*
X0129200Y0041763D01*
X0129200Y0040164D02*
X0169400Y0040164D01*
X0169400Y0038566D02*
X0129464Y0038566D01*
X0131062Y0036967D02*
X0169400Y0036967D01*
X0169589Y0035369D02*
X0132661Y0035369D01*
X0134259Y0033770D02*
X0170400Y0033770D01*
X0171999Y0032172D02*
X0135858Y0032172D01*
X0137456Y0030573D02*
X0173597Y0030573D01*
X0175196Y0028975D02*
X0138703Y0028975D01*
X0139200Y0027376D02*
X0161895Y0027376D01*
X0166705Y0027376D02*
X0176794Y0027376D01*
X0178393Y0025778D02*
X0168595Y0025778D01*
X0169286Y0024179D02*
X0179314Y0024179D01*
X0179175Y0022581D02*
X0169425Y0022581D01*
X0169425Y0020982D02*
X0179175Y0020982D01*
X0179175Y0019384D02*
X0169425Y0019384D01*
X0169425Y0017785D02*
X0179175Y0017785D01*
X0179175Y0016187D02*
X0169425Y0016187D01*
X0169356Y0014588D02*
X0179244Y0014588D01*
X0179906Y0012990D02*
X0169200Y0012990D01*
X0159400Y0012990D02*
X0138693Y0012990D01*
X0139356Y0014588D02*
X0159244Y0014588D01*
X0159175Y0016187D02*
X0139425Y0016187D01*
X0139425Y0017785D02*
X0159175Y0017785D01*
X0159175Y0019384D02*
X0139425Y0019384D01*
X0139425Y0020982D02*
X0159175Y0020982D01*
X0159175Y0022581D02*
X0139425Y0022581D01*
X0139286Y0024179D02*
X0159314Y0024179D01*
X0160005Y0025778D02*
X0139200Y0025778D01*
X0129314Y0024179D02*
X0119286Y0024179D01*
X0119425Y0022581D02*
X0129175Y0022581D01*
X0129175Y0020982D02*
X0119425Y0020982D01*
X0119425Y0019384D02*
X0129175Y0019384D01*
X0129175Y0017785D02*
X0119425Y0017785D01*
X0119425Y0016187D02*
X0129175Y0016187D01*
X0129244Y0014588D02*
X0119356Y0014588D01*
X0119200Y0012990D02*
X0129906Y0012990D01*
X0109400Y0012990D02*
X0088693Y0012990D01*
X0089356Y0014588D02*
X0109244Y0014588D01*
X0109175Y0016187D02*
X0089425Y0016187D01*
X0089425Y0017785D02*
X0109175Y0017785D01*
X0109175Y0019384D02*
X0089425Y0019384D01*
X0089425Y0020982D02*
X0109175Y0020982D01*
X0109175Y0022581D02*
X0089425Y0022581D01*
X0089286Y0024179D02*
X0109314Y0024179D01*
X0110005Y0025778D02*
X0089200Y0025778D01*
X0089200Y0027376D02*
X0111895Y0027376D01*
X0116705Y0027376D02*
X0126794Y0027376D01*
X0125196Y0028975D02*
X0088703Y0028975D01*
X0087456Y0030573D02*
X0123597Y0030573D01*
X0121999Y0032172D02*
X0085858Y0032172D01*
X0084259Y0033770D02*
X0120400Y0033770D01*
X0119589Y0035369D02*
X0082661Y0035369D01*
X0081062Y0036967D02*
X0119400Y0036967D01*
X0119400Y0038566D02*
X0079464Y0038566D01*
X0079200Y0040164D02*
X0119400Y0040164D01*
X0119400Y0041763D02*
X0079200Y0041763D01*
X0079200Y0043361D02*
X0119400Y0043361D01*
X0119400Y0044960D02*
X0079200Y0044960D01*
X0079200Y0046558D02*
X0119400Y0046558D01*
X0119400Y0048157D02*
X0079200Y0048157D01*
X0079200Y0049755D02*
X0081701Y0049755D01*
X0081784Y0049695D02*
X0082457Y0049352D01*
X0083176Y0049118D01*
X0083922Y0049000D01*
X0084100Y0049000D01*
X0084100Y0056600D01*
X0084500Y0056600D01*
X0084500Y0057000D01*
X0089100Y0057000D01*
X0089100Y0060178D01*
X0088982Y0060924D01*
X0088748Y0061643D01*
X0088405Y0062316D01*
X0087961Y0062927D01*
X0087427Y0063461D01*
X0086816Y0063905D01*
X0086143Y0064248D01*
X0085424Y0064482D01*
X0084678Y0064600D01*
X0084500Y0064600D01*
X0084500Y0057000D01*
X0084100Y0057000D01*
X0084100Y0064600D01*
X0083922Y0064600D01*
X0083176Y0064482D01*
X0082457Y0064248D01*
X0081784Y0063905D01*
X0081173Y0063461D01*
X0080639Y0062927D01*
X0080195Y0062316D01*
X0079852Y0061643D01*
X0079618Y0060924D01*
X0079500Y0060178D01*
X0079500Y0057000D01*
X0084100Y0057000D01*
X0084100Y0056600D01*
X0079500Y0056600D01*
X0079500Y0053422D01*
X0079618Y0052676D01*
X0079852Y0051957D01*
X0080195Y0051284D01*
X0080639Y0050673D01*
X0081173Y0050139D01*
X0081784Y0049695D01*
X0084100Y0049755D02*
X0084500Y0049755D01*
X0084500Y0049000D02*
X0084678Y0049000D01*
X0085424Y0049118D01*
X0086143Y0049352D01*
X0086816Y0049695D01*
X0087427Y0050139D01*
X0087961Y0050673D01*
X0088405Y0051284D01*
X0088748Y0051957D01*
X0088982Y0052676D01*
X0089100Y0053422D01*
X0089100Y0056600D01*
X0084500Y0056600D01*
X0084500Y0049000D01*
X0086899Y0049755D02*
X0112044Y0049755D01*
X0110334Y0051354D02*
X0088441Y0051354D01*
X0089026Y0052952D02*
X0109700Y0052952D01*
X0109700Y0054551D02*
X0089100Y0054551D01*
X0089100Y0056149D02*
X0109700Y0056149D01*
X0109700Y0057748D02*
X0089100Y0057748D01*
X0089100Y0059346D02*
X0109700Y0059346D01*
X0109795Y0060945D02*
X0088975Y0060945D01*
X0088240Y0062543D02*
X0110538Y0062543D01*
X0111900Y0064142D02*
X0086351Y0064142D01*
X0084500Y0064142D02*
X0084100Y0064142D01*
X0084100Y0062543D02*
X0084500Y0062543D01*
X0084500Y0060945D02*
X0084100Y0060945D01*
X0084100Y0059346D02*
X0084500Y0059346D01*
X0079500Y0059346D02*
X0078900Y0059346D01*
X0078805Y0060945D02*
X0079625Y0060945D01*
X0080360Y0062543D02*
X0078062Y0062543D01*
X0075838Y0064142D02*
X0082249Y0064142D01*
X0072762Y0064142D02*
X0065838Y0064142D01*
X0068062Y0062543D02*
X0070538Y0062543D01*
X0069795Y0060945D02*
X0068805Y0060945D01*
X0068900Y0059346D02*
X0069700Y0059346D01*
X0069400Y0057748D02*
X0068900Y0057748D01*
X0068900Y0056149D02*
X0069400Y0056149D01*
X0069400Y0054551D02*
X0068900Y0054551D01*
X0068900Y0052952D02*
X0069400Y0052952D01*
X0069400Y0051354D02*
X0068266Y0051354D01*
X0069400Y0049755D02*
X0066556Y0049755D01*
X0062044Y0049755D02*
X0048274Y0049755D01*
X0046676Y0051354D02*
X0060334Y0051354D01*
X0059700Y0052952D02*
X0045077Y0052952D01*
X0043479Y0054551D02*
X0059700Y0054551D01*
X0059700Y0056149D02*
X0041604Y0056149D01*
X0055162Y0062543D02*
X0011600Y0062543D01*
X0011600Y0060945D02*
X0056761Y0060945D01*
X0058359Y0059346D02*
X0011600Y0059346D01*
X0011600Y0057748D02*
X0059700Y0057748D01*
X0064300Y0056800D02*
X0054300Y0066800D01*
X0054300Y0076800D01*
X0084300Y0106800D01*
X0079700Y0107302D02*
X0042589Y0107302D01*
X0043012Y0105703D02*
X0079700Y0105703D01*
X0078211Y0104105D02*
X0043253Y0104105D01*
X0043494Y0102506D02*
X0076612Y0102506D01*
X0075014Y0100908D02*
X0043465Y0100908D01*
X0043225Y0099309D02*
X0073415Y0099309D01*
X0071817Y0097711D02*
X0042984Y0097711D01*
X0042499Y0096112D02*
X0070218Y0096112D01*
X0068620Y0094514D02*
X0041729Y0094514D01*
X0040960Y0092915D02*
X0067021Y0092915D01*
X0065423Y0091317D02*
X0039735Y0091317D01*
X0038252Y0089718D02*
X0063824Y0089718D01*
X0062226Y0088120D02*
X0036330Y0088120D01*
X0033561Y0086521D02*
X0060627Y0086521D01*
X0059028Y0084923D02*
X0011600Y0084923D01*
X0011600Y0083324D02*
X0057430Y0083324D01*
X0055831Y0081726D02*
X0011600Y0081726D01*
X0011600Y0080127D02*
X0051687Y0080127D01*
X0050100Y0078529D02*
X0011600Y0078529D01*
X0011600Y0076930D02*
X0019332Y0076930D01*
X0016776Y0075332D02*
X0011600Y0075332D01*
X0011600Y0073733D02*
X0015804Y0073733D01*
X0011600Y0065740D02*
X0052141Y0065740D01*
X0053564Y0064142D02*
X0011600Y0064142D01*
X0011600Y0056149D02*
X0017883Y0056149D01*
X0016367Y0054551D02*
X0011600Y0054551D01*
X0011600Y0052952D02*
X0015705Y0052952D01*
X0015650Y0051354D02*
X0011600Y0051354D01*
X0011600Y0049755D02*
X0016075Y0049755D01*
X0017170Y0048157D02*
X0011600Y0048157D01*
X0011600Y0046558D02*
X0037612Y0046558D01*
X0039211Y0044960D02*
X0011600Y0044960D01*
X0011600Y0043361D02*
X0040809Y0043361D01*
X0042408Y0041763D02*
X0011600Y0041763D01*
X0011600Y0040164D02*
X0044006Y0040164D01*
X0045605Y0038566D02*
X0011600Y0038566D01*
X0011600Y0036967D02*
X0019975Y0036967D01*
X0017171Y0035369D02*
X0011600Y0035369D01*
X0011600Y0033770D02*
X0015166Y0033770D01*
X0014485Y0033227D02*
X0014485Y0033227D01*
X0013765Y0032172D02*
X0011600Y0032172D01*
X0011600Y0030573D02*
X0012675Y0030573D01*
X0011628Y0028975D02*
X0011600Y0028975D01*
X0033754Y0036967D02*
X0047203Y0036967D01*
X0048802Y0035369D02*
X0036523Y0035369D01*
X0038355Y0033770D02*
X0050400Y0033770D01*
X0051999Y0032172D02*
X0039838Y0032172D01*
X0041013Y0030573D02*
X0053597Y0030573D01*
X0055196Y0028975D02*
X0041783Y0028975D01*
X0042553Y0027376D02*
X0056794Y0027376D01*
X0058393Y0025778D02*
X0043000Y0025778D01*
X0043241Y0024179D02*
X0059314Y0024179D01*
X0059175Y0022581D02*
X0043482Y0022581D01*
X0043477Y0020982D02*
X0059175Y0020982D01*
X0059175Y0019384D02*
X0043236Y0019384D01*
X0042995Y0017785D02*
X0059175Y0017785D01*
X0059175Y0016187D02*
X0042535Y0016187D01*
X0041765Y0014588D02*
X0059244Y0014588D01*
X0059539Y0012990D02*
X0040995Y0012990D01*
X0039804Y0011391D02*
X0060279Y0011391D01*
X0061878Y0009793D02*
X0038321Y0009793D01*
X0036458Y0008194D02*
X0063476Y0008194D01*
X0072540Y0012990D02*
X0079906Y0012990D01*
X0079244Y0014588D02*
X0070942Y0014588D01*
X0069425Y0016187D02*
X0079175Y0016187D01*
X0079175Y0017785D02*
X0069425Y0017785D01*
X0069425Y0019384D02*
X0079175Y0019384D01*
X0079175Y0020982D02*
X0069425Y0020982D01*
X0069425Y0022581D02*
X0079175Y0022581D01*
X0079314Y0024179D02*
X0069286Y0024179D01*
X0069200Y0025778D02*
X0078393Y0025778D01*
X0076794Y0027376D02*
X0069200Y0027376D01*
X0068703Y0028975D02*
X0075196Y0028975D01*
X0073597Y0030573D02*
X0067456Y0030573D01*
X0065858Y0032172D02*
X0071999Y0032172D01*
X0070400Y0033770D02*
X0064259Y0033770D01*
X0062661Y0035369D02*
X0069589Y0035369D01*
X0069400Y0036967D02*
X0061062Y0036967D01*
X0059464Y0038566D02*
X0069400Y0038566D01*
X0069400Y0040164D02*
X0057865Y0040164D01*
X0056267Y0041763D02*
X0069400Y0041763D01*
X0069400Y0043361D02*
X0054668Y0043361D01*
X0053070Y0044960D02*
X0069400Y0044960D01*
X0069400Y0046558D02*
X0051471Y0046558D01*
X0049873Y0048157D02*
X0069400Y0048157D01*
X0079200Y0051354D02*
X0080159Y0051354D01*
X0079574Y0052952D02*
X0079200Y0052952D01*
X0079200Y0054551D02*
X0079500Y0054551D01*
X0079500Y0056149D02*
X0079200Y0056149D01*
X0079200Y0057748D02*
X0079500Y0057748D01*
X0084100Y0057748D02*
X0084500Y0057748D01*
X0084500Y0056149D02*
X0084100Y0056149D01*
X0084100Y0054551D02*
X0084500Y0054551D01*
X0084500Y0052952D02*
X0084100Y0052952D01*
X0084100Y0051354D02*
X0084500Y0051354D01*
X0062762Y0064142D02*
X0060352Y0064142D01*
X0058754Y0065740D02*
X0111900Y0065740D01*
X0110367Y0067339D02*
X0057155Y0067339D01*
X0056700Y0068937D02*
X0108768Y0068937D01*
X0114300Y0066800D02*
X0114300Y0056800D01*
X0118900Y0056149D02*
X0119400Y0056149D01*
X0119400Y0054551D02*
X0118900Y0054551D01*
X0118900Y0052952D02*
X0119400Y0052952D01*
X0119400Y0051354D02*
X0118266Y0051354D01*
X0119400Y0049755D02*
X0116556Y0049755D01*
X0129200Y0049755D02*
X0131701Y0049755D01*
X0131784Y0049695D02*
X0132457Y0049352D01*
X0133176Y0049118D01*
X0133922Y0049000D01*
X0134100Y0049000D01*
X0134100Y0056600D01*
X0129500Y0056600D01*
X0129500Y0053422D01*
X0129618Y0052676D01*
X0129852Y0051957D01*
X0130195Y0051284D01*
X0130639Y0050673D01*
X0131173Y0050139D01*
X0131784Y0049695D01*
X0134100Y0049755D02*
X0134500Y0049755D01*
X0134500Y0051354D02*
X0134100Y0051354D01*
X0134100Y0052952D02*
X0134500Y0052952D01*
X0130159Y0051354D02*
X0129200Y0051354D01*
X0129200Y0052952D02*
X0129574Y0052952D01*
X0129500Y0054551D02*
X0129200Y0054551D01*
X0129200Y0056149D02*
X0129500Y0056149D01*
X0129500Y0057748D02*
X0129200Y0057748D01*
X0134100Y0057748D02*
X0134500Y0057748D01*
X0134500Y0056149D02*
X0134100Y0056149D01*
X0134100Y0054551D02*
X0134500Y0054551D01*
X0134500Y0059346D02*
X0134100Y0059346D01*
X0134100Y0060945D02*
X0134500Y0060945D01*
X0134500Y0062543D02*
X0134100Y0062543D01*
X0134100Y0064142D02*
X0134500Y0064142D01*
X0132249Y0064142D02*
X0125838Y0064142D01*
X0128062Y0062543D02*
X0130360Y0062543D01*
X0129625Y0060945D02*
X0128805Y0060945D01*
X0128900Y0059346D02*
X0129500Y0059346D01*
X0122762Y0064142D02*
X0116700Y0064142D01*
X0118062Y0062543D02*
X0120538Y0062543D01*
X0119795Y0060945D02*
X0118805Y0060945D01*
X0118900Y0059346D02*
X0119700Y0059346D01*
X0119400Y0057748D02*
X0118900Y0057748D01*
X0116700Y0065740D02*
X0161900Y0065740D01*
X0160367Y0067339D02*
X0116674Y0067339D01*
X0115557Y0068937D02*
X0158768Y0068937D01*
X0157170Y0070536D02*
X0113958Y0070536D01*
X0112360Y0072134D02*
X0155571Y0072134D01*
X0151427Y0073733D02*
X0147456Y0073733D01*
X0148700Y0074977D02*
X0146123Y0072400D01*
X0144300Y0072400D01*
X0144300Y0076800D01*
X0148700Y0076800D01*
X0148700Y0078623D01*
X0146123Y0081200D01*
X0144300Y0081200D01*
X0144300Y0076800D01*
X0144300Y0076800D01*
X0144300Y0076800D01*
X0148700Y0076800D01*
X0148700Y0074977D01*
X0148700Y0075332D02*
X0150100Y0075332D01*
X0150100Y0076930D02*
X0148700Y0076930D01*
X0148700Y0078529D02*
X0149177Y0078529D01*
X0147579Y0080127D02*
X0147195Y0080127D01*
X0144300Y0080127D02*
X0144300Y0080127D01*
X0144300Y0081200D02*
X0142477Y0081200D01*
X0139900Y0078623D01*
X0139900Y0076800D01*
X0144300Y0076800D01*
X0144300Y0076800D01*
X0144300Y0076800D01*
X0144300Y0081200D01*
X0145980Y0081726D02*
X0102769Y0081726D01*
X0101170Y0083324D02*
X0144382Y0083324D01*
X0149571Y0084923D02*
X0192783Y0084923D01*
X0194382Y0083324D02*
X0151170Y0083324D01*
X0152769Y0081726D02*
X0195980Y0081726D01*
X0196123Y0081200D02*
X0194300Y0081200D01*
X0194300Y0076800D01*
X0198700Y0076800D01*
X0198700Y0078623D01*
X0196123Y0081200D01*
X0197195Y0080127D02*
X0197579Y0080127D01*
X0198700Y0078529D02*
X0199177Y0078529D01*
X0198700Y0076930D02*
X0200100Y0076930D01*
X0198700Y0076800D02*
X0194300Y0076800D01*
X0194300Y0076800D01*
X0194300Y0076800D01*
X0194300Y0072400D01*
X0196123Y0072400D01*
X0198700Y0074977D01*
X0198700Y0076800D01*
X0194300Y0076800D02*
X0194300Y0076800D01*
X0194300Y0076800D01*
X0189900Y0076800D01*
X0189900Y0078623D01*
X0192477Y0081200D01*
X0194300Y0081200D01*
X0194300Y0076800D01*
X0194300Y0072400D01*
X0192477Y0072400D01*
X0189900Y0074977D01*
X0189900Y0076800D01*
X0194300Y0076800D01*
X0194300Y0076930D02*
X0194300Y0076930D01*
X0194300Y0078529D02*
X0194300Y0078529D01*
X0194300Y0080127D02*
X0194300Y0080127D01*
X0191405Y0080127D02*
X0156913Y0080127D01*
X0158500Y0078529D02*
X0189900Y0078529D01*
X0189900Y0076930D02*
X0158500Y0076930D01*
X0159163Y0075332D02*
X0189900Y0075332D01*
X0191144Y0073733D02*
X0160761Y0073733D01*
X0162360Y0072134D02*
X0205571Y0072134D01*
X0207170Y0070536D02*
X0163958Y0070536D01*
X0165557Y0068937D02*
X0208768Y0068937D01*
X0210367Y0067339D02*
X0166674Y0067339D01*
X0166700Y0065740D02*
X0211900Y0065740D01*
X0214300Y0066800D02*
X0214300Y0056800D01*
X0209700Y0056149D02*
X0189100Y0056149D01*
X0189100Y0056600D02*
X0184500Y0056600D01*
X0184500Y0057000D01*
X0189100Y0057000D01*
X0189100Y0060178D01*
X0188982Y0060924D01*
X0188748Y0061643D01*
X0188405Y0062316D01*
X0187961Y0062927D01*
X0187427Y0063461D01*
X0186816Y0063905D01*
X0186143Y0064248D01*
X0185424Y0064482D01*
X0184678Y0064600D01*
X0184500Y0064600D01*
X0184500Y0057000D01*
X0184100Y0057000D01*
X0184100Y0064600D01*
X0183922Y0064600D01*
X0183176Y0064482D01*
X0182457Y0064248D01*
X0181784Y0063905D01*
X0181173Y0063461D01*
X0180639Y0062927D01*
X0180195Y0062316D01*
X0179852Y0061643D01*
X0179618Y0060924D01*
X0179500Y0060178D01*
X0179500Y0057000D01*
X0184100Y0057000D01*
X0184100Y0056600D01*
X0184500Y0056600D01*
X0184500Y0049000D01*
X0184678Y0049000D01*
X0185424Y0049118D01*
X0186143Y0049352D01*
X0186816Y0049695D01*
X0187427Y0050139D01*
X0187961Y0050673D01*
X0188405Y0051284D01*
X0188748Y0051957D01*
X0188982Y0052676D01*
X0189100Y0053422D01*
X0189100Y0056600D01*
X0189100Y0057748D02*
X0209700Y0057748D01*
X0209700Y0059346D02*
X0189100Y0059346D01*
X0188975Y0060945D02*
X0209795Y0060945D01*
X0210538Y0062543D02*
X0188240Y0062543D01*
X0186351Y0064142D02*
X0211900Y0064142D01*
X0216700Y0064142D02*
X0222762Y0064142D01*
X0220538Y0062543D02*
X0218062Y0062543D01*
X0218805Y0060945D02*
X0219795Y0060945D01*
X0219700Y0059346D02*
X0218900Y0059346D01*
X0218900Y0057748D02*
X0219400Y0057748D01*
X0219400Y0056149D02*
X0218900Y0056149D01*
X0218900Y0054551D02*
X0219400Y0054551D01*
X0219400Y0052952D02*
X0218900Y0052952D01*
X0219400Y0051354D02*
X0218266Y0051354D01*
X0219400Y0049755D02*
X0216556Y0049755D01*
X0212044Y0049755D02*
X0186899Y0049755D01*
X0188441Y0051354D02*
X0210334Y0051354D01*
X0209700Y0052952D02*
X0189026Y0052952D01*
X0189100Y0054551D02*
X0209700Y0054551D01*
X0219400Y0048157D02*
X0179200Y0048157D01*
X0179200Y0046558D02*
X0219400Y0046558D01*
X0219400Y0044960D02*
X0179200Y0044960D01*
X0179200Y0043361D02*
X0219400Y0043361D01*
X0219400Y0041763D02*
X0179200Y0041763D01*
X0179200Y0040164D02*
X0219400Y0040164D01*
X0219400Y0038566D02*
X0179464Y0038566D01*
X0181062Y0036967D02*
X0219400Y0036967D01*
X0219589Y0035369D02*
X0182661Y0035369D01*
X0184259Y0033770D02*
X0220400Y0033770D01*
X0221999Y0032172D02*
X0185858Y0032172D01*
X0187456Y0030573D02*
X0223597Y0030573D01*
X0225196Y0028975D02*
X0188703Y0028975D01*
X0189200Y0027376D02*
X0211895Y0027376D01*
X0216705Y0027376D02*
X0226794Y0027376D01*
X0228393Y0025778D02*
X0218595Y0025778D01*
X0219286Y0024179D02*
X0229314Y0024179D01*
X0229175Y0022581D02*
X0219425Y0022581D01*
X0219425Y0020982D02*
X0229175Y0020982D01*
X0229175Y0019384D02*
X0219425Y0019384D01*
X0219425Y0017785D02*
X0229175Y0017785D01*
X0229175Y0016187D02*
X0219425Y0016187D01*
X0219356Y0014588D02*
X0229244Y0014588D01*
X0229906Y0012990D02*
X0219200Y0012990D01*
X0209400Y0012990D02*
X0188693Y0012990D01*
X0189356Y0014588D02*
X0209244Y0014588D01*
X0209175Y0016187D02*
X0189425Y0016187D01*
X0189425Y0017785D02*
X0209175Y0017785D01*
X0209175Y0019384D02*
X0189425Y0019384D01*
X0189425Y0020982D02*
X0209175Y0020982D01*
X0209175Y0022581D02*
X0189425Y0022581D01*
X0189286Y0024179D02*
X0209314Y0024179D01*
X0210005Y0025778D02*
X0189200Y0025778D01*
X0229464Y0038566D02*
X0244400Y0038566D01*
X0244400Y0040164D02*
X0229200Y0040164D01*
X0229200Y0041763D02*
X0244400Y0041763D01*
X0244400Y0043361D02*
X0229200Y0043361D01*
X0229200Y0044960D02*
X0244400Y0044960D01*
X0244932Y0046558D02*
X0229200Y0046558D01*
X0229200Y0048157D02*
X0246227Y0048157D01*
X0247826Y0049755D02*
X0236899Y0049755D01*
X0236816Y0049695D02*
X0237427Y0050139D01*
X0237961Y0050673D01*
X0238405Y0051284D01*
X0238748Y0051957D01*
X0238982Y0052676D01*
X0239100Y0053422D01*
X0239100Y0056600D01*
X0234500Y0056600D01*
X0234500Y0057000D01*
X0239100Y0057000D01*
X0239100Y0060178D01*
X0238982Y0060924D01*
X0238748Y0061643D01*
X0238405Y0062316D01*
X0237961Y0062927D01*
X0237427Y0063461D01*
X0236816Y0063905D01*
X0236143Y0064248D01*
X0235424Y0064482D01*
X0234678Y0064600D01*
X0234500Y0064600D01*
X0234500Y0057000D01*
X0234100Y0057000D01*
X0234100Y0064600D01*
X0233922Y0064600D01*
X0233176Y0064482D01*
X0232457Y0064248D01*
X0231784Y0063905D01*
X0231173Y0063461D01*
X0230639Y0062927D01*
X0230195Y0062316D01*
X0229852Y0061643D01*
X0229618Y0060924D01*
X0229500Y0060178D01*
X0229500Y0057000D01*
X0234100Y0057000D01*
X0234100Y0056600D01*
X0234500Y0056600D01*
X0234500Y0049000D01*
X0234678Y0049000D01*
X0235424Y0049118D01*
X0236143Y0049352D01*
X0236816Y0049695D01*
X0234500Y0049755D02*
X0234100Y0049755D01*
X0234100Y0049000D02*
X0234100Y0056600D01*
X0229500Y0056600D01*
X0229500Y0053422D01*
X0229618Y0052676D01*
X0229852Y0051957D01*
X0230195Y0051284D01*
X0230639Y0050673D01*
X0231173Y0050139D01*
X0231784Y0049695D01*
X0232457Y0049352D01*
X0233176Y0049118D01*
X0233922Y0049000D01*
X0234100Y0049000D01*
X0231701Y0049755D02*
X0229200Y0049755D01*
X0229200Y0051354D02*
X0230159Y0051354D01*
X0229574Y0052952D02*
X0229200Y0052952D01*
X0234100Y0052952D02*
X0234500Y0052952D01*
X0234500Y0051354D02*
X0234100Y0051354D01*
X0238441Y0051354D02*
X0249424Y0051354D01*
X0251023Y0052952D02*
X0239026Y0052952D01*
X0239100Y0054551D02*
X0252621Y0054551D01*
X0254496Y0056149D02*
X0239100Y0056149D01*
X0239100Y0057748D02*
X0285701Y0057748D01*
X0285701Y0056149D02*
X0280717Y0056149D01*
X0282233Y0054551D02*
X0285701Y0054551D01*
X0285701Y0052952D02*
X0282895Y0052952D01*
X0282950Y0051354D02*
X0285701Y0051354D01*
X0285701Y0049755D02*
X0282525Y0049755D01*
X0281430Y0048157D02*
X0285701Y0048157D01*
X0285701Y0046558D02*
X0258488Y0046558D01*
X0256889Y0044960D02*
X0285701Y0044960D01*
X0285701Y0043361D02*
X0255291Y0043361D01*
X0254200Y0041763D02*
X0285701Y0041763D01*
X0285701Y0040164D02*
X0254200Y0040164D01*
X0254200Y0038566D02*
X0285701Y0038566D01*
X0285701Y0036967D02*
X0278754Y0036967D01*
X0281523Y0035369D02*
X0285701Y0035369D01*
X0285701Y0033770D02*
X0283355Y0033770D01*
X0284838Y0032172D02*
X0285701Y0032172D01*
X0264975Y0036967D02*
X0254200Y0036967D01*
X0254200Y0035369D02*
X0262171Y0035369D01*
X0260166Y0033770D02*
X0254200Y0033770D01*
X0254200Y0032172D02*
X0258765Y0032172D01*
X0257675Y0030573D02*
X0254200Y0030573D01*
X0254200Y0028975D02*
X0256628Y0028975D01*
X0256135Y0027376D02*
X0254200Y0027376D01*
X0254200Y0025778D02*
X0255642Y0025778D01*
X0255188Y0024179D02*
X0254200Y0024179D01*
X0254200Y0022581D02*
X0255188Y0022581D01*
X0255188Y0020982D02*
X0254200Y0020982D01*
X0254200Y0019384D02*
X0255188Y0019384D01*
X0255654Y0017785D02*
X0254200Y0017785D01*
X0254200Y0016187D02*
X0256147Y0016187D01*
X0256640Y0014588D02*
X0254200Y0014588D01*
X0254061Y0012990D02*
X0257701Y0012990D01*
X0258791Y0011391D02*
X0253321Y0011391D01*
X0251722Y0009793D02*
X0260213Y0009793D01*
X0262217Y0008194D02*
X0250124Y0008194D01*
X0241060Y0012990D02*
X0238693Y0012990D01*
X0239356Y0014588D02*
X0242658Y0014588D01*
X0244257Y0016187D02*
X0239425Y0016187D01*
X0239425Y0017785D02*
X0244400Y0017785D01*
X0244400Y0019384D02*
X0239425Y0019384D01*
X0239425Y0020982D02*
X0244400Y0020982D01*
X0244400Y0022581D02*
X0239425Y0022581D01*
X0239286Y0024179D02*
X0244400Y0024179D01*
X0244400Y0025778D02*
X0239200Y0025778D01*
X0239200Y0027376D02*
X0244400Y0027376D01*
X0244400Y0028975D02*
X0238703Y0028975D01*
X0237456Y0030573D02*
X0244400Y0030573D01*
X0244400Y0032172D02*
X0235858Y0032172D01*
X0234259Y0033770D02*
X0244400Y0033770D01*
X0244400Y0035369D02*
X0232661Y0035369D01*
X0231062Y0036967D02*
X0244400Y0036967D01*
X0234500Y0054551D02*
X0234100Y0054551D01*
X0234100Y0056149D02*
X0234500Y0056149D01*
X0234500Y0057748D02*
X0234100Y0057748D01*
X0229500Y0057748D02*
X0229200Y0057748D01*
X0229200Y0056149D02*
X0229500Y0056149D01*
X0229500Y0054551D02*
X0229200Y0054551D01*
X0228900Y0059346D02*
X0229500Y0059346D01*
X0229625Y0060945D02*
X0228805Y0060945D01*
X0228062Y0062543D02*
X0230360Y0062543D01*
X0232249Y0064142D02*
X0225838Y0064142D01*
X0234100Y0064142D02*
X0234500Y0064142D01*
X0234500Y0062543D02*
X0234100Y0062543D01*
X0234100Y0060945D02*
X0234500Y0060945D01*
X0234500Y0059346D02*
X0234100Y0059346D01*
X0239100Y0059346D02*
X0285701Y0059346D01*
X0285701Y0060945D02*
X0238975Y0060945D01*
X0238240Y0062543D02*
X0285701Y0062543D01*
X0285701Y0064142D02*
X0236351Y0064142D01*
X0242477Y0072400D02*
X0244300Y0072400D01*
X0246123Y0072400D01*
X0248700Y0074977D01*
X0248700Y0076800D01*
X0248700Y0078623D01*
X0246123Y0081200D01*
X0244300Y0081200D01*
X0244300Y0076800D01*
X0248700Y0076800D01*
X0244300Y0076800D01*
X0244300Y0076800D01*
X0244300Y0076800D01*
X0244300Y0072400D01*
X0244300Y0076800D01*
X0244300Y0076800D01*
X0244300Y0076800D01*
X0239900Y0076800D01*
X0239900Y0078623D01*
X0242477Y0081200D01*
X0244300Y0081200D01*
X0244300Y0076800D01*
X0239900Y0076800D01*
X0239900Y0074977D01*
X0242477Y0072400D01*
X0241144Y0073733D02*
X0210761Y0073733D01*
X0209163Y0075332D02*
X0239900Y0075332D01*
X0239900Y0076930D02*
X0208500Y0076930D01*
X0208500Y0078529D02*
X0239900Y0078529D01*
X0241405Y0080127D02*
X0206913Y0080127D01*
X0204300Y0076800D02*
X0189300Y0091800D01*
X0193177Y0091317D02*
X0258841Y0091317D01*
X0260306Y0089718D02*
X0194776Y0089718D01*
X0196374Y0088120D02*
X0262310Y0088120D01*
X0265259Y0086521D02*
X0197973Y0086521D01*
X0199572Y0084923D02*
X0285701Y0084923D01*
X0285701Y0083324D02*
X0201170Y0083324D01*
X0202769Y0081726D02*
X0285701Y0081726D01*
X0285701Y0080127D02*
X0247195Y0080127D01*
X0248700Y0078529D02*
X0285701Y0078529D01*
X0285701Y0076930D02*
X0279268Y0076930D01*
X0279072Y0076994D02*
X0278244Y0077125D01*
X0274675Y0077125D01*
X0274675Y0072175D01*
X0273925Y0072175D01*
X0273925Y0077125D01*
X0270356Y0077125D01*
X0269528Y0076994D01*
X0268731Y0076735D01*
X0267984Y0076354D01*
X0267306Y0075862D01*
X0266713Y0075269D01*
X0266221Y0074591D01*
X0265840Y0073844D01*
X0265581Y0073047D01*
X0265450Y0072219D01*
X0265450Y0072175D01*
X0273925Y0072175D01*
X0273925Y0071425D01*
X0274675Y0071425D01*
X0274675Y0072175D01*
X0283150Y0072175D01*
X0283150Y0072219D01*
X0283019Y0073047D01*
X0282760Y0073844D01*
X0282379Y0074591D01*
X0281887Y0075269D01*
X0281294Y0075862D01*
X0280616Y0076354D01*
X0279869Y0076735D01*
X0279072Y0076994D01*
X0281824Y0075332D02*
X0285701Y0075332D01*
X0285701Y0073733D02*
X0282796Y0073733D01*
X0285701Y0072134D02*
X0274675Y0072134D01*
X0274675Y0071425D02*
X0283150Y0071425D01*
X0283150Y0071381D01*
X0283019Y0070553D01*
X0282760Y0069756D01*
X0282379Y0069009D01*
X0281887Y0068331D01*
X0281294Y0067738D01*
X0280616Y0067246D01*
X0279869Y0066865D01*
X0279072Y0066606D01*
X0278244Y0066475D01*
X0274675Y0066475D01*
X0274675Y0071425D01*
X0273925Y0071425D02*
X0273925Y0066475D01*
X0270356Y0066475D01*
X0269528Y0066606D01*
X0268731Y0066865D01*
X0267984Y0067246D01*
X0267306Y0067738D01*
X0266713Y0068331D01*
X0266221Y0069009D01*
X0265840Y0069756D01*
X0265581Y0070553D01*
X0265450Y0071381D01*
X0265450Y0071425D01*
X0273925Y0071425D01*
X0273925Y0072134D02*
X0212360Y0072134D01*
X0213958Y0070536D02*
X0265587Y0070536D01*
X0266273Y0068937D02*
X0215557Y0068937D01*
X0216674Y0067339D02*
X0267856Y0067339D01*
X0273925Y0067339D02*
X0274675Y0067339D01*
X0274675Y0068937D02*
X0273925Y0068937D01*
X0273925Y0070536D02*
X0274675Y0070536D01*
X0274675Y0073733D02*
X0273925Y0073733D01*
X0273925Y0075332D02*
X0274675Y0075332D01*
X0274675Y0076930D02*
X0273925Y0076930D01*
X0269332Y0076930D02*
X0248700Y0076930D01*
X0244300Y0076930D02*
X0244300Y0076930D01*
X0244300Y0078529D02*
X0244300Y0078529D01*
X0244300Y0080127D02*
X0244300Y0080127D01*
X0244300Y0075332D02*
X0244300Y0075332D01*
X0244300Y0073733D02*
X0244300Y0073733D01*
X0247456Y0073733D02*
X0265804Y0073733D01*
X0266776Y0075332D02*
X0248700Y0075332D01*
X0278561Y0086521D02*
X0285701Y0086521D01*
X0285701Y0088120D02*
X0281330Y0088120D01*
X0283252Y0089718D02*
X0285701Y0089718D01*
X0285701Y0091317D02*
X0284735Y0091317D01*
X0285701Y0070536D02*
X0283013Y0070536D01*
X0282327Y0068937D02*
X0285701Y0068937D01*
X0285701Y0067339D02*
X0280744Y0067339D01*
X0285701Y0065740D02*
X0216700Y0065740D01*
X0214300Y0066800D02*
X0204300Y0076800D01*
X0200100Y0075332D02*
X0198700Y0075332D01*
X0197456Y0073733D02*
X0201427Y0073733D01*
X0194300Y0073733D02*
X0194300Y0073733D01*
X0194300Y0075332D02*
X0194300Y0075332D01*
X0184500Y0064142D02*
X0184100Y0064142D01*
X0184100Y0062543D02*
X0184500Y0062543D01*
X0184500Y0060945D02*
X0184100Y0060945D01*
X0184100Y0059346D02*
X0184500Y0059346D01*
X0179500Y0059346D02*
X0178900Y0059346D01*
X0178805Y0060945D02*
X0179625Y0060945D01*
X0180360Y0062543D02*
X0178062Y0062543D01*
X0175838Y0064142D02*
X0182249Y0064142D01*
X0184100Y0057748D02*
X0184500Y0057748D01*
X0184100Y0056600D02*
X0179500Y0056600D01*
X0179500Y0053422D01*
X0179618Y0052676D01*
X0179852Y0051957D01*
X0180195Y0051284D01*
X0180639Y0050673D01*
X0181173Y0050139D01*
X0181784Y0049695D01*
X0182457Y0049352D01*
X0183176Y0049118D01*
X0183922Y0049000D01*
X0184100Y0049000D01*
X0184100Y0056600D01*
X0184100Y0056149D02*
X0184500Y0056149D01*
X0184500Y0054551D02*
X0184100Y0054551D01*
X0179500Y0054551D02*
X0179200Y0054551D01*
X0179200Y0056149D02*
X0179500Y0056149D01*
X0179500Y0057748D02*
X0179200Y0057748D01*
X0179200Y0052952D02*
X0179574Y0052952D01*
X0179200Y0051354D02*
X0180159Y0051354D01*
X0179200Y0049755D02*
X0181701Y0049755D01*
X0184100Y0049755D02*
X0184500Y0049755D01*
X0184500Y0051354D02*
X0184100Y0051354D01*
X0184100Y0052952D02*
X0184500Y0052952D01*
X0144300Y0072400D02*
X0142477Y0072400D01*
X0139900Y0074977D01*
X0139900Y0076800D01*
X0144300Y0076800D01*
X0144300Y0072400D01*
X0144300Y0073733D02*
X0144300Y0073733D01*
X0144300Y0075332D02*
X0144300Y0075332D01*
X0141144Y0073733D02*
X0110761Y0073733D01*
X0109163Y0075332D02*
X0139900Y0075332D01*
X0139900Y0076930D02*
X0108500Y0076930D01*
X0108500Y0078529D02*
X0139900Y0078529D01*
X0141405Y0080127D02*
X0106913Y0080127D01*
X0104300Y0076800D02*
X0094300Y0086800D01*
X0094300Y0106800D01*
X0098900Y0107302D02*
X0099700Y0107302D01*
X0099700Y0105703D02*
X0098900Y0105703D01*
X0098900Y0104105D02*
X0099700Y0104105D01*
X0099857Y0102506D02*
X0098743Y0102506D01*
X0097913Y0100908D02*
X0100687Y0100908D01*
X0103121Y0099309D02*
X0096700Y0099309D01*
X0096700Y0097711D02*
X0104995Y0097711D01*
X0091900Y0097711D02*
X0078605Y0097711D01*
X0080203Y0099309D02*
X0083121Y0099309D01*
X0085479Y0099309D02*
X0091900Y0099309D01*
X0090687Y0100908D02*
X0087913Y0100908D01*
X0088743Y0102506D02*
X0089857Y0102506D01*
X0089700Y0104105D02*
X0088900Y0104105D01*
X0088900Y0105703D02*
X0089700Y0105703D01*
X0089700Y0107302D02*
X0088900Y0107302D01*
X0088900Y0108900D02*
X0089700Y0108900D01*
X0089700Y0110499D02*
X0088900Y0110499D01*
X0088327Y0112097D02*
X0090273Y0112097D01*
X0091690Y0113696D02*
X0086910Y0113696D01*
X0081690Y0113696D02*
X0038424Y0113696D01*
X0039907Y0112097D02*
X0080273Y0112097D01*
X0079700Y0110499D02*
X0041049Y0110499D01*
X0041819Y0108900D02*
X0079700Y0108900D01*
X0096910Y0113696D02*
X0101690Y0113696D01*
X0100273Y0112097D02*
X0098327Y0112097D01*
X0098900Y0110499D02*
X0099700Y0110499D01*
X0099700Y0108900D02*
X0098900Y0108900D01*
X0106910Y0113696D02*
X0111690Y0113696D01*
X0110273Y0112097D02*
X0108327Y0112097D01*
X0108900Y0110499D02*
X0109700Y0110499D01*
X0109700Y0108900D02*
X0108900Y0108900D01*
X0118743Y0102506D02*
X0179673Y0102506D01*
X0180468Y0100908D02*
X0118586Y0100908D01*
X0146374Y0088120D02*
X0189586Y0088120D01*
X0191185Y0086521D02*
X0147973Y0086521D01*
X0144300Y0078529D02*
X0144300Y0078529D01*
X0144300Y0076930D02*
X0144300Y0076930D01*
X0117783Y0084923D02*
X0099572Y0084923D01*
X0104300Y0076800D02*
X0114300Y0066800D01*
X0101427Y0073733D02*
X0097456Y0073733D01*
X0098700Y0075332D02*
X0100100Y0075332D01*
X0094300Y0075332D02*
X0094300Y0075332D01*
X0094300Y0073733D02*
X0094300Y0073733D01*
X0020259Y0086521D02*
X0011600Y0086521D01*
X0011600Y0088120D02*
X0017310Y0088120D01*
X0015306Y0089718D02*
X0011600Y0089718D01*
X0011600Y0091317D02*
X0013841Y0091317D01*
X0012752Y0092915D02*
X0011600Y0092915D01*
X0011600Y0094514D02*
X0011663Y0094514D01*
X0036652Y0115294D02*
X0262077Y0115294D01*
X0264785Y0116893D02*
X0033883Y0116893D01*
X0184100Y0102506D02*
X0184500Y0102506D01*
X0184500Y0100908D02*
X0184100Y0100908D01*
X0188132Y0100908D02*
X0190468Y0100908D01*
X0189673Y0102506D02*
X0188927Y0102506D01*
X0189100Y0104105D02*
X0189500Y0104105D01*
X0189500Y0105703D02*
X0189100Y0105703D01*
X0189100Y0107302D02*
X0189500Y0107302D01*
X0189500Y0108900D02*
X0189100Y0108900D01*
X0189049Y0110499D02*
X0189551Y0110499D01*
X0190083Y0112097D02*
X0188517Y0112097D01*
X0194100Y0112097D02*
X0194500Y0112097D01*
X0194500Y0110499D02*
X0194100Y0110499D01*
X0194100Y0108900D02*
X0194500Y0108900D01*
X0199100Y0108900D02*
X0199500Y0108900D01*
X0199551Y0110499D02*
X0199049Y0110499D01*
X0198517Y0112097D02*
X0200083Y0112097D01*
X0204100Y0112097D02*
X0204500Y0112097D01*
X0204500Y0110499D02*
X0204100Y0110499D01*
X0204100Y0108900D02*
X0204500Y0108900D01*
X0204500Y0107302D02*
X0204100Y0107302D01*
X0204100Y0105703D02*
X0204500Y0105703D01*
X0204500Y0104105D02*
X0204100Y0104105D01*
X0204100Y0102506D02*
X0204500Y0102506D01*
X0204500Y0100908D02*
X0204100Y0100908D01*
X0200468Y0100908D02*
X0198132Y0100908D01*
X0198927Y0102506D02*
X0199673Y0102506D01*
X0199500Y0104105D02*
X0199100Y0104105D01*
X0199100Y0105703D02*
X0199500Y0105703D01*
X0199500Y0107302D02*
X0199100Y0107302D01*
X0194500Y0107302D02*
X0194100Y0107302D01*
X0194100Y0105703D02*
X0194500Y0105703D01*
X0194500Y0104105D02*
X0194100Y0104105D01*
X0194100Y0102506D02*
X0194500Y0102506D01*
X0194500Y0100908D02*
X0194100Y0100908D01*
X0208132Y0100908D02*
X0210468Y0100908D01*
X0209673Y0102506D02*
X0208927Y0102506D01*
X0214100Y0102506D02*
X0214500Y0102506D01*
X0214500Y0100908D02*
X0214100Y0100908D01*
X0128393Y0025778D02*
X0118595Y0025778D01*
D15*
X0114300Y0019300D02*
X0114300Y0006800D01*
X0111800Y0006800D01*
X0071800Y0006800D01*
X0064300Y0014300D01*
X0064300Y0026800D01*
X0039300Y0051800D01*
X0021800Y0051800D01*
X0074300Y0056800D02*
X0074300Y0036800D01*
X0084300Y0026800D01*
X0084300Y0019300D01*
X0114300Y0006800D02*
X0164300Y0006800D01*
X0164300Y0019300D01*
X0184300Y0019300D02*
X0184300Y0026800D01*
X0174300Y0036800D01*
X0174300Y0056800D01*
X0134300Y0026800D02*
X0124300Y0036800D01*
X0124300Y0056800D01*
X0134300Y0026800D02*
X0134300Y0019300D01*
X0164300Y0006800D02*
X0214300Y0006800D01*
X0214300Y0019300D01*
X0234300Y0019300D02*
X0234300Y0026800D01*
X0224300Y0036800D01*
X0224300Y0056800D01*
X0249300Y0044300D02*
X0256800Y0051800D01*
X0276800Y0051800D01*
X0249300Y0044300D02*
X0249300Y0014300D01*
X0241800Y0006800D01*
X0214300Y0006800D01*
M02*
