G75*
%MOIN*%
%OFA0B0*%
%FSLAX25Y25*%
%IPPOS*%
%LPD*%
%AMOC8*
5,1,8,0,0,1.08239X$1,22.5*
%
%ADD10C,0.00000*%
%ADD11C,0.00400*%
%ADD12C,0.00300*%
D10*
X0006800Y0001800D02*
X0006800Y0121761D01*
X0290501Y0121761D01*
X0290501Y0001800D01*
X0006800Y0001800D01*
X0020501Y0021800D02*
X0020503Y0021958D01*
X0020509Y0022116D01*
X0020519Y0022274D01*
X0020533Y0022432D01*
X0020551Y0022589D01*
X0020572Y0022746D01*
X0020598Y0022902D01*
X0020628Y0023058D01*
X0020661Y0023213D01*
X0020699Y0023366D01*
X0020740Y0023519D01*
X0020785Y0023671D01*
X0020834Y0023822D01*
X0020887Y0023971D01*
X0020943Y0024119D01*
X0021003Y0024265D01*
X0021067Y0024410D01*
X0021135Y0024553D01*
X0021206Y0024695D01*
X0021280Y0024835D01*
X0021358Y0024972D01*
X0021440Y0025108D01*
X0021524Y0025242D01*
X0021613Y0025373D01*
X0021704Y0025502D01*
X0021799Y0025629D01*
X0021896Y0025754D01*
X0021997Y0025876D01*
X0022101Y0025995D01*
X0022208Y0026112D01*
X0022318Y0026226D01*
X0022431Y0026337D01*
X0022546Y0026446D01*
X0022664Y0026551D01*
X0022785Y0026653D01*
X0022908Y0026753D01*
X0023034Y0026849D01*
X0023162Y0026942D01*
X0023292Y0027032D01*
X0023425Y0027118D01*
X0023560Y0027202D01*
X0023696Y0027281D01*
X0023835Y0027358D01*
X0023976Y0027430D01*
X0024118Y0027500D01*
X0024262Y0027565D01*
X0024408Y0027627D01*
X0024555Y0027685D01*
X0024704Y0027740D01*
X0024854Y0027791D01*
X0025005Y0027838D01*
X0025157Y0027881D01*
X0025310Y0027920D01*
X0025465Y0027956D01*
X0025620Y0027987D01*
X0025776Y0028015D01*
X0025932Y0028039D01*
X0026089Y0028059D01*
X0026247Y0028075D01*
X0026404Y0028087D01*
X0026563Y0028095D01*
X0026721Y0028099D01*
X0026879Y0028099D01*
X0027037Y0028095D01*
X0027196Y0028087D01*
X0027353Y0028075D01*
X0027511Y0028059D01*
X0027668Y0028039D01*
X0027824Y0028015D01*
X0027980Y0027987D01*
X0028135Y0027956D01*
X0028290Y0027920D01*
X0028443Y0027881D01*
X0028595Y0027838D01*
X0028746Y0027791D01*
X0028896Y0027740D01*
X0029045Y0027685D01*
X0029192Y0027627D01*
X0029338Y0027565D01*
X0029482Y0027500D01*
X0029624Y0027430D01*
X0029765Y0027358D01*
X0029904Y0027281D01*
X0030040Y0027202D01*
X0030175Y0027118D01*
X0030308Y0027032D01*
X0030438Y0026942D01*
X0030566Y0026849D01*
X0030692Y0026753D01*
X0030815Y0026653D01*
X0030936Y0026551D01*
X0031054Y0026446D01*
X0031169Y0026337D01*
X0031282Y0026226D01*
X0031392Y0026112D01*
X0031499Y0025995D01*
X0031603Y0025876D01*
X0031704Y0025754D01*
X0031801Y0025629D01*
X0031896Y0025502D01*
X0031987Y0025373D01*
X0032076Y0025242D01*
X0032160Y0025108D01*
X0032242Y0024972D01*
X0032320Y0024835D01*
X0032394Y0024695D01*
X0032465Y0024553D01*
X0032533Y0024410D01*
X0032597Y0024265D01*
X0032657Y0024119D01*
X0032713Y0023971D01*
X0032766Y0023822D01*
X0032815Y0023671D01*
X0032860Y0023519D01*
X0032901Y0023366D01*
X0032939Y0023213D01*
X0032972Y0023058D01*
X0033002Y0022902D01*
X0033028Y0022746D01*
X0033049Y0022589D01*
X0033067Y0022432D01*
X0033081Y0022274D01*
X0033091Y0022116D01*
X0033097Y0021958D01*
X0033099Y0021800D01*
X0033097Y0021642D01*
X0033091Y0021484D01*
X0033081Y0021326D01*
X0033067Y0021168D01*
X0033049Y0021011D01*
X0033028Y0020854D01*
X0033002Y0020698D01*
X0032972Y0020542D01*
X0032939Y0020387D01*
X0032901Y0020234D01*
X0032860Y0020081D01*
X0032815Y0019929D01*
X0032766Y0019778D01*
X0032713Y0019629D01*
X0032657Y0019481D01*
X0032597Y0019335D01*
X0032533Y0019190D01*
X0032465Y0019047D01*
X0032394Y0018905D01*
X0032320Y0018765D01*
X0032242Y0018628D01*
X0032160Y0018492D01*
X0032076Y0018358D01*
X0031987Y0018227D01*
X0031896Y0018098D01*
X0031801Y0017971D01*
X0031704Y0017846D01*
X0031603Y0017724D01*
X0031499Y0017605D01*
X0031392Y0017488D01*
X0031282Y0017374D01*
X0031169Y0017263D01*
X0031054Y0017154D01*
X0030936Y0017049D01*
X0030815Y0016947D01*
X0030692Y0016847D01*
X0030566Y0016751D01*
X0030438Y0016658D01*
X0030308Y0016568D01*
X0030175Y0016482D01*
X0030040Y0016398D01*
X0029904Y0016319D01*
X0029765Y0016242D01*
X0029624Y0016170D01*
X0029482Y0016100D01*
X0029338Y0016035D01*
X0029192Y0015973D01*
X0029045Y0015915D01*
X0028896Y0015860D01*
X0028746Y0015809D01*
X0028595Y0015762D01*
X0028443Y0015719D01*
X0028290Y0015680D01*
X0028135Y0015644D01*
X0027980Y0015613D01*
X0027824Y0015585D01*
X0027668Y0015561D01*
X0027511Y0015541D01*
X0027353Y0015525D01*
X0027196Y0015513D01*
X0027037Y0015505D01*
X0026879Y0015501D01*
X0026721Y0015501D01*
X0026563Y0015505D01*
X0026404Y0015513D01*
X0026247Y0015525D01*
X0026089Y0015541D01*
X0025932Y0015561D01*
X0025776Y0015585D01*
X0025620Y0015613D01*
X0025465Y0015644D01*
X0025310Y0015680D01*
X0025157Y0015719D01*
X0025005Y0015762D01*
X0024854Y0015809D01*
X0024704Y0015860D01*
X0024555Y0015915D01*
X0024408Y0015973D01*
X0024262Y0016035D01*
X0024118Y0016100D01*
X0023976Y0016170D01*
X0023835Y0016242D01*
X0023696Y0016319D01*
X0023560Y0016398D01*
X0023425Y0016482D01*
X0023292Y0016568D01*
X0023162Y0016658D01*
X0023034Y0016751D01*
X0022908Y0016847D01*
X0022785Y0016947D01*
X0022664Y0017049D01*
X0022546Y0017154D01*
X0022431Y0017263D01*
X0022318Y0017374D01*
X0022208Y0017488D01*
X0022101Y0017605D01*
X0021997Y0017724D01*
X0021896Y0017846D01*
X0021799Y0017971D01*
X0021704Y0018098D01*
X0021613Y0018227D01*
X0021524Y0018358D01*
X0021440Y0018492D01*
X0021358Y0018628D01*
X0021280Y0018765D01*
X0021206Y0018905D01*
X0021135Y0019047D01*
X0021067Y0019190D01*
X0021003Y0019335D01*
X0020943Y0019481D01*
X0020887Y0019629D01*
X0020834Y0019778D01*
X0020785Y0019929D01*
X0020740Y0020081D01*
X0020699Y0020234D01*
X0020661Y0020387D01*
X0020628Y0020542D01*
X0020598Y0020698D01*
X0020572Y0020854D01*
X0020551Y0021011D01*
X0020533Y0021168D01*
X0020519Y0021326D01*
X0020509Y0021484D01*
X0020503Y0021642D01*
X0020501Y0021800D01*
X0020501Y0101800D02*
X0020503Y0101958D01*
X0020509Y0102116D01*
X0020519Y0102274D01*
X0020533Y0102432D01*
X0020551Y0102589D01*
X0020572Y0102746D01*
X0020598Y0102902D01*
X0020628Y0103058D01*
X0020661Y0103213D01*
X0020699Y0103366D01*
X0020740Y0103519D01*
X0020785Y0103671D01*
X0020834Y0103822D01*
X0020887Y0103971D01*
X0020943Y0104119D01*
X0021003Y0104265D01*
X0021067Y0104410D01*
X0021135Y0104553D01*
X0021206Y0104695D01*
X0021280Y0104835D01*
X0021358Y0104972D01*
X0021440Y0105108D01*
X0021524Y0105242D01*
X0021613Y0105373D01*
X0021704Y0105502D01*
X0021799Y0105629D01*
X0021896Y0105754D01*
X0021997Y0105876D01*
X0022101Y0105995D01*
X0022208Y0106112D01*
X0022318Y0106226D01*
X0022431Y0106337D01*
X0022546Y0106446D01*
X0022664Y0106551D01*
X0022785Y0106653D01*
X0022908Y0106753D01*
X0023034Y0106849D01*
X0023162Y0106942D01*
X0023292Y0107032D01*
X0023425Y0107118D01*
X0023560Y0107202D01*
X0023696Y0107281D01*
X0023835Y0107358D01*
X0023976Y0107430D01*
X0024118Y0107500D01*
X0024262Y0107565D01*
X0024408Y0107627D01*
X0024555Y0107685D01*
X0024704Y0107740D01*
X0024854Y0107791D01*
X0025005Y0107838D01*
X0025157Y0107881D01*
X0025310Y0107920D01*
X0025465Y0107956D01*
X0025620Y0107987D01*
X0025776Y0108015D01*
X0025932Y0108039D01*
X0026089Y0108059D01*
X0026247Y0108075D01*
X0026404Y0108087D01*
X0026563Y0108095D01*
X0026721Y0108099D01*
X0026879Y0108099D01*
X0027037Y0108095D01*
X0027196Y0108087D01*
X0027353Y0108075D01*
X0027511Y0108059D01*
X0027668Y0108039D01*
X0027824Y0108015D01*
X0027980Y0107987D01*
X0028135Y0107956D01*
X0028290Y0107920D01*
X0028443Y0107881D01*
X0028595Y0107838D01*
X0028746Y0107791D01*
X0028896Y0107740D01*
X0029045Y0107685D01*
X0029192Y0107627D01*
X0029338Y0107565D01*
X0029482Y0107500D01*
X0029624Y0107430D01*
X0029765Y0107358D01*
X0029904Y0107281D01*
X0030040Y0107202D01*
X0030175Y0107118D01*
X0030308Y0107032D01*
X0030438Y0106942D01*
X0030566Y0106849D01*
X0030692Y0106753D01*
X0030815Y0106653D01*
X0030936Y0106551D01*
X0031054Y0106446D01*
X0031169Y0106337D01*
X0031282Y0106226D01*
X0031392Y0106112D01*
X0031499Y0105995D01*
X0031603Y0105876D01*
X0031704Y0105754D01*
X0031801Y0105629D01*
X0031896Y0105502D01*
X0031987Y0105373D01*
X0032076Y0105242D01*
X0032160Y0105108D01*
X0032242Y0104972D01*
X0032320Y0104835D01*
X0032394Y0104695D01*
X0032465Y0104553D01*
X0032533Y0104410D01*
X0032597Y0104265D01*
X0032657Y0104119D01*
X0032713Y0103971D01*
X0032766Y0103822D01*
X0032815Y0103671D01*
X0032860Y0103519D01*
X0032901Y0103366D01*
X0032939Y0103213D01*
X0032972Y0103058D01*
X0033002Y0102902D01*
X0033028Y0102746D01*
X0033049Y0102589D01*
X0033067Y0102432D01*
X0033081Y0102274D01*
X0033091Y0102116D01*
X0033097Y0101958D01*
X0033099Y0101800D01*
X0033097Y0101642D01*
X0033091Y0101484D01*
X0033081Y0101326D01*
X0033067Y0101168D01*
X0033049Y0101011D01*
X0033028Y0100854D01*
X0033002Y0100698D01*
X0032972Y0100542D01*
X0032939Y0100387D01*
X0032901Y0100234D01*
X0032860Y0100081D01*
X0032815Y0099929D01*
X0032766Y0099778D01*
X0032713Y0099629D01*
X0032657Y0099481D01*
X0032597Y0099335D01*
X0032533Y0099190D01*
X0032465Y0099047D01*
X0032394Y0098905D01*
X0032320Y0098765D01*
X0032242Y0098628D01*
X0032160Y0098492D01*
X0032076Y0098358D01*
X0031987Y0098227D01*
X0031896Y0098098D01*
X0031801Y0097971D01*
X0031704Y0097846D01*
X0031603Y0097724D01*
X0031499Y0097605D01*
X0031392Y0097488D01*
X0031282Y0097374D01*
X0031169Y0097263D01*
X0031054Y0097154D01*
X0030936Y0097049D01*
X0030815Y0096947D01*
X0030692Y0096847D01*
X0030566Y0096751D01*
X0030438Y0096658D01*
X0030308Y0096568D01*
X0030175Y0096482D01*
X0030040Y0096398D01*
X0029904Y0096319D01*
X0029765Y0096242D01*
X0029624Y0096170D01*
X0029482Y0096100D01*
X0029338Y0096035D01*
X0029192Y0095973D01*
X0029045Y0095915D01*
X0028896Y0095860D01*
X0028746Y0095809D01*
X0028595Y0095762D01*
X0028443Y0095719D01*
X0028290Y0095680D01*
X0028135Y0095644D01*
X0027980Y0095613D01*
X0027824Y0095585D01*
X0027668Y0095561D01*
X0027511Y0095541D01*
X0027353Y0095525D01*
X0027196Y0095513D01*
X0027037Y0095505D01*
X0026879Y0095501D01*
X0026721Y0095501D01*
X0026563Y0095505D01*
X0026404Y0095513D01*
X0026247Y0095525D01*
X0026089Y0095541D01*
X0025932Y0095561D01*
X0025776Y0095585D01*
X0025620Y0095613D01*
X0025465Y0095644D01*
X0025310Y0095680D01*
X0025157Y0095719D01*
X0025005Y0095762D01*
X0024854Y0095809D01*
X0024704Y0095860D01*
X0024555Y0095915D01*
X0024408Y0095973D01*
X0024262Y0096035D01*
X0024118Y0096100D01*
X0023976Y0096170D01*
X0023835Y0096242D01*
X0023696Y0096319D01*
X0023560Y0096398D01*
X0023425Y0096482D01*
X0023292Y0096568D01*
X0023162Y0096658D01*
X0023034Y0096751D01*
X0022908Y0096847D01*
X0022785Y0096947D01*
X0022664Y0097049D01*
X0022546Y0097154D01*
X0022431Y0097263D01*
X0022318Y0097374D01*
X0022208Y0097488D01*
X0022101Y0097605D01*
X0021997Y0097724D01*
X0021896Y0097846D01*
X0021799Y0097971D01*
X0021704Y0098098D01*
X0021613Y0098227D01*
X0021524Y0098358D01*
X0021440Y0098492D01*
X0021358Y0098628D01*
X0021280Y0098765D01*
X0021206Y0098905D01*
X0021135Y0099047D01*
X0021067Y0099190D01*
X0021003Y0099335D01*
X0020943Y0099481D01*
X0020887Y0099629D01*
X0020834Y0099778D01*
X0020785Y0099929D01*
X0020740Y0100081D01*
X0020699Y0100234D01*
X0020661Y0100387D01*
X0020628Y0100542D01*
X0020598Y0100698D01*
X0020572Y0100854D01*
X0020551Y0101011D01*
X0020533Y0101168D01*
X0020519Y0101326D01*
X0020509Y0101484D01*
X0020503Y0101642D01*
X0020501Y0101800D01*
X0265501Y0101800D02*
X0265503Y0101958D01*
X0265509Y0102116D01*
X0265519Y0102274D01*
X0265533Y0102432D01*
X0265551Y0102589D01*
X0265572Y0102746D01*
X0265598Y0102902D01*
X0265628Y0103058D01*
X0265661Y0103213D01*
X0265699Y0103366D01*
X0265740Y0103519D01*
X0265785Y0103671D01*
X0265834Y0103822D01*
X0265887Y0103971D01*
X0265943Y0104119D01*
X0266003Y0104265D01*
X0266067Y0104410D01*
X0266135Y0104553D01*
X0266206Y0104695D01*
X0266280Y0104835D01*
X0266358Y0104972D01*
X0266440Y0105108D01*
X0266524Y0105242D01*
X0266613Y0105373D01*
X0266704Y0105502D01*
X0266799Y0105629D01*
X0266896Y0105754D01*
X0266997Y0105876D01*
X0267101Y0105995D01*
X0267208Y0106112D01*
X0267318Y0106226D01*
X0267431Y0106337D01*
X0267546Y0106446D01*
X0267664Y0106551D01*
X0267785Y0106653D01*
X0267908Y0106753D01*
X0268034Y0106849D01*
X0268162Y0106942D01*
X0268292Y0107032D01*
X0268425Y0107118D01*
X0268560Y0107202D01*
X0268696Y0107281D01*
X0268835Y0107358D01*
X0268976Y0107430D01*
X0269118Y0107500D01*
X0269262Y0107565D01*
X0269408Y0107627D01*
X0269555Y0107685D01*
X0269704Y0107740D01*
X0269854Y0107791D01*
X0270005Y0107838D01*
X0270157Y0107881D01*
X0270310Y0107920D01*
X0270465Y0107956D01*
X0270620Y0107987D01*
X0270776Y0108015D01*
X0270932Y0108039D01*
X0271089Y0108059D01*
X0271247Y0108075D01*
X0271404Y0108087D01*
X0271563Y0108095D01*
X0271721Y0108099D01*
X0271879Y0108099D01*
X0272037Y0108095D01*
X0272196Y0108087D01*
X0272353Y0108075D01*
X0272511Y0108059D01*
X0272668Y0108039D01*
X0272824Y0108015D01*
X0272980Y0107987D01*
X0273135Y0107956D01*
X0273290Y0107920D01*
X0273443Y0107881D01*
X0273595Y0107838D01*
X0273746Y0107791D01*
X0273896Y0107740D01*
X0274045Y0107685D01*
X0274192Y0107627D01*
X0274338Y0107565D01*
X0274482Y0107500D01*
X0274624Y0107430D01*
X0274765Y0107358D01*
X0274904Y0107281D01*
X0275040Y0107202D01*
X0275175Y0107118D01*
X0275308Y0107032D01*
X0275438Y0106942D01*
X0275566Y0106849D01*
X0275692Y0106753D01*
X0275815Y0106653D01*
X0275936Y0106551D01*
X0276054Y0106446D01*
X0276169Y0106337D01*
X0276282Y0106226D01*
X0276392Y0106112D01*
X0276499Y0105995D01*
X0276603Y0105876D01*
X0276704Y0105754D01*
X0276801Y0105629D01*
X0276896Y0105502D01*
X0276987Y0105373D01*
X0277076Y0105242D01*
X0277160Y0105108D01*
X0277242Y0104972D01*
X0277320Y0104835D01*
X0277394Y0104695D01*
X0277465Y0104553D01*
X0277533Y0104410D01*
X0277597Y0104265D01*
X0277657Y0104119D01*
X0277713Y0103971D01*
X0277766Y0103822D01*
X0277815Y0103671D01*
X0277860Y0103519D01*
X0277901Y0103366D01*
X0277939Y0103213D01*
X0277972Y0103058D01*
X0278002Y0102902D01*
X0278028Y0102746D01*
X0278049Y0102589D01*
X0278067Y0102432D01*
X0278081Y0102274D01*
X0278091Y0102116D01*
X0278097Y0101958D01*
X0278099Y0101800D01*
X0278097Y0101642D01*
X0278091Y0101484D01*
X0278081Y0101326D01*
X0278067Y0101168D01*
X0278049Y0101011D01*
X0278028Y0100854D01*
X0278002Y0100698D01*
X0277972Y0100542D01*
X0277939Y0100387D01*
X0277901Y0100234D01*
X0277860Y0100081D01*
X0277815Y0099929D01*
X0277766Y0099778D01*
X0277713Y0099629D01*
X0277657Y0099481D01*
X0277597Y0099335D01*
X0277533Y0099190D01*
X0277465Y0099047D01*
X0277394Y0098905D01*
X0277320Y0098765D01*
X0277242Y0098628D01*
X0277160Y0098492D01*
X0277076Y0098358D01*
X0276987Y0098227D01*
X0276896Y0098098D01*
X0276801Y0097971D01*
X0276704Y0097846D01*
X0276603Y0097724D01*
X0276499Y0097605D01*
X0276392Y0097488D01*
X0276282Y0097374D01*
X0276169Y0097263D01*
X0276054Y0097154D01*
X0275936Y0097049D01*
X0275815Y0096947D01*
X0275692Y0096847D01*
X0275566Y0096751D01*
X0275438Y0096658D01*
X0275308Y0096568D01*
X0275175Y0096482D01*
X0275040Y0096398D01*
X0274904Y0096319D01*
X0274765Y0096242D01*
X0274624Y0096170D01*
X0274482Y0096100D01*
X0274338Y0096035D01*
X0274192Y0095973D01*
X0274045Y0095915D01*
X0273896Y0095860D01*
X0273746Y0095809D01*
X0273595Y0095762D01*
X0273443Y0095719D01*
X0273290Y0095680D01*
X0273135Y0095644D01*
X0272980Y0095613D01*
X0272824Y0095585D01*
X0272668Y0095561D01*
X0272511Y0095541D01*
X0272353Y0095525D01*
X0272196Y0095513D01*
X0272037Y0095505D01*
X0271879Y0095501D01*
X0271721Y0095501D01*
X0271563Y0095505D01*
X0271404Y0095513D01*
X0271247Y0095525D01*
X0271089Y0095541D01*
X0270932Y0095561D01*
X0270776Y0095585D01*
X0270620Y0095613D01*
X0270465Y0095644D01*
X0270310Y0095680D01*
X0270157Y0095719D01*
X0270005Y0095762D01*
X0269854Y0095809D01*
X0269704Y0095860D01*
X0269555Y0095915D01*
X0269408Y0095973D01*
X0269262Y0096035D01*
X0269118Y0096100D01*
X0268976Y0096170D01*
X0268835Y0096242D01*
X0268696Y0096319D01*
X0268560Y0096398D01*
X0268425Y0096482D01*
X0268292Y0096568D01*
X0268162Y0096658D01*
X0268034Y0096751D01*
X0267908Y0096847D01*
X0267785Y0096947D01*
X0267664Y0097049D01*
X0267546Y0097154D01*
X0267431Y0097263D01*
X0267318Y0097374D01*
X0267208Y0097488D01*
X0267101Y0097605D01*
X0266997Y0097724D01*
X0266896Y0097846D01*
X0266799Y0097971D01*
X0266704Y0098098D01*
X0266613Y0098227D01*
X0266524Y0098358D01*
X0266440Y0098492D01*
X0266358Y0098628D01*
X0266280Y0098765D01*
X0266206Y0098905D01*
X0266135Y0099047D01*
X0266067Y0099190D01*
X0266003Y0099335D01*
X0265943Y0099481D01*
X0265887Y0099629D01*
X0265834Y0099778D01*
X0265785Y0099929D01*
X0265740Y0100081D01*
X0265699Y0100234D01*
X0265661Y0100387D01*
X0265628Y0100542D01*
X0265598Y0100698D01*
X0265572Y0100854D01*
X0265551Y0101011D01*
X0265533Y0101168D01*
X0265519Y0101326D01*
X0265509Y0101484D01*
X0265503Y0101642D01*
X0265501Y0101800D01*
X0265501Y0021800D02*
X0265503Y0021958D01*
X0265509Y0022116D01*
X0265519Y0022274D01*
X0265533Y0022432D01*
X0265551Y0022589D01*
X0265572Y0022746D01*
X0265598Y0022902D01*
X0265628Y0023058D01*
X0265661Y0023213D01*
X0265699Y0023366D01*
X0265740Y0023519D01*
X0265785Y0023671D01*
X0265834Y0023822D01*
X0265887Y0023971D01*
X0265943Y0024119D01*
X0266003Y0024265D01*
X0266067Y0024410D01*
X0266135Y0024553D01*
X0266206Y0024695D01*
X0266280Y0024835D01*
X0266358Y0024972D01*
X0266440Y0025108D01*
X0266524Y0025242D01*
X0266613Y0025373D01*
X0266704Y0025502D01*
X0266799Y0025629D01*
X0266896Y0025754D01*
X0266997Y0025876D01*
X0267101Y0025995D01*
X0267208Y0026112D01*
X0267318Y0026226D01*
X0267431Y0026337D01*
X0267546Y0026446D01*
X0267664Y0026551D01*
X0267785Y0026653D01*
X0267908Y0026753D01*
X0268034Y0026849D01*
X0268162Y0026942D01*
X0268292Y0027032D01*
X0268425Y0027118D01*
X0268560Y0027202D01*
X0268696Y0027281D01*
X0268835Y0027358D01*
X0268976Y0027430D01*
X0269118Y0027500D01*
X0269262Y0027565D01*
X0269408Y0027627D01*
X0269555Y0027685D01*
X0269704Y0027740D01*
X0269854Y0027791D01*
X0270005Y0027838D01*
X0270157Y0027881D01*
X0270310Y0027920D01*
X0270465Y0027956D01*
X0270620Y0027987D01*
X0270776Y0028015D01*
X0270932Y0028039D01*
X0271089Y0028059D01*
X0271247Y0028075D01*
X0271404Y0028087D01*
X0271563Y0028095D01*
X0271721Y0028099D01*
X0271879Y0028099D01*
X0272037Y0028095D01*
X0272196Y0028087D01*
X0272353Y0028075D01*
X0272511Y0028059D01*
X0272668Y0028039D01*
X0272824Y0028015D01*
X0272980Y0027987D01*
X0273135Y0027956D01*
X0273290Y0027920D01*
X0273443Y0027881D01*
X0273595Y0027838D01*
X0273746Y0027791D01*
X0273896Y0027740D01*
X0274045Y0027685D01*
X0274192Y0027627D01*
X0274338Y0027565D01*
X0274482Y0027500D01*
X0274624Y0027430D01*
X0274765Y0027358D01*
X0274904Y0027281D01*
X0275040Y0027202D01*
X0275175Y0027118D01*
X0275308Y0027032D01*
X0275438Y0026942D01*
X0275566Y0026849D01*
X0275692Y0026753D01*
X0275815Y0026653D01*
X0275936Y0026551D01*
X0276054Y0026446D01*
X0276169Y0026337D01*
X0276282Y0026226D01*
X0276392Y0026112D01*
X0276499Y0025995D01*
X0276603Y0025876D01*
X0276704Y0025754D01*
X0276801Y0025629D01*
X0276896Y0025502D01*
X0276987Y0025373D01*
X0277076Y0025242D01*
X0277160Y0025108D01*
X0277242Y0024972D01*
X0277320Y0024835D01*
X0277394Y0024695D01*
X0277465Y0024553D01*
X0277533Y0024410D01*
X0277597Y0024265D01*
X0277657Y0024119D01*
X0277713Y0023971D01*
X0277766Y0023822D01*
X0277815Y0023671D01*
X0277860Y0023519D01*
X0277901Y0023366D01*
X0277939Y0023213D01*
X0277972Y0023058D01*
X0278002Y0022902D01*
X0278028Y0022746D01*
X0278049Y0022589D01*
X0278067Y0022432D01*
X0278081Y0022274D01*
X0278091Y0022116D01*
X0278097Y0021958D01*
X0278099Y0021800D01*
X0278097Y0021642D01*
X0278091Y0021484D01*
X0278081Y0021326D01*
X0278067Y0021168D01*
X0278049Y0021011D01*
X0278028Y0020854D01*
X0278002Y0020698D01*
X0277972Y0020542D01*
X0277939Y0020387D01*
X0277901Y0020234D01*
X0277860Y0020081D01*
X0277815Y0019929D01*
X0277766Y0019778D01*
X0277713Y0019629D01*
X0277657Y0019481D01*
X0277597Y0019335D01*
X0277533Y0019190D01*
X0277465Y0019047D01*
X0277394Y0018905D01*
X0277320Y0018765D01*
X0277242Y0018628D01*
X0277160Y0018492D01*
X0277076Y0018358D01*
X0276987Y0018227D01*
X0276896Y0018098D01*
X0276801Y0017971D01*
X0276704Y0017846D01*
X0276603Y0017724D01*
X0276499Y0017605D01*
X0276392Y0017488D01*
X0276282Y0017374D01*
X0276169Y0017263D01*
X0276054Y0017154D01*
X0275936Y0017049D01*
X0275815Y0016947D01*
X0275692Y0016847D01*
X0275566Y0016751D01*
X0275438Y0016658D01*
X0275308Y0016568D01*
X0275175Y0016482D01*
X0275040Y0016398D01*
X0274904Y0016319D01*
X0274765Y0016242D01*
X0274624Y0016170D01*
X0274482Y0016100D01*
X0274338Y0016035D01*
X0274192Y0015973D01*
X0274045Y0015915D01*
X0273896Y0015860D01*
X0273746Y0015809D01*
X0273595Y0015762D01*
X0273443Y0015719D01*
X0273290Y0015680D01*
X0273135Y0015644D01*
X0272980Y0015613D01*
X0272824Y0015585D01*
X0272668Y0015561D01*
X0272511Y0015541D01*
X0272353Y0015525D01*
X0272196Y0015513D01*
X0272037Y0015505D01*
X0271879Y0015501D01*
X0271721Y0015501D01*
X0271563Y0015505D01*
X0271404Y0015513D01*
X0271247Y0015525D01*
X0271089Y0015541D01*
X0270932Y0015561D01*
X0270776Y0015585D01*
X0270620Y0015613D01*
X0270465Y0015644D01*
X0270310Y0015680D01*
X0270157Y0015719D01*
X0270005Y0015762D01*
X0269854Y0015809D01*
X0269704Y0015860D01*
X0269555Y0015915D01*
X0269408Y0015973D01*
X0269262Y0016035D01*
X0269118Y0016100D01*
X0268976Y0016170D01*
X0268835Y0016242D01*
X0268696Y0016319D01*
X0268560Y0016398D01*
X0268425Y0016482D01*
X0268292Y0016568D01*
X0268162Y0016658D01*
X0268034Y0016751D01*
X0267908Y0016847D01*
X0267785Y0016947D01*
X0267664Y0017049D01*
X0267546Y0017154D01*
X0267431Y0017263D01*
X0267318Y0017374D01*
X0267208Y0017488D01*
X0267101Y0017605D01*
X0266997Y0017724D01*
X0266896Y0017846D01*
X0266799Y0017971D01*
X0266704Y0018098D01*
X0266613Y0018227D01*
X0266524Y0018358D01*
X0266440Y0018492D01*
X0266358Y0018628D01*
X0266280Y0018765D01*
X0266206Y0018905D01*
X0266135Y0019047D01*
X0266067Y0019190D01*
X0266003Y0019335D01*
X0265943Y0019481D01*
X0265887Y0019629D01*
X0265834Y0019778D01*
X0265785Y0019929D01*
X0265740Y0020081D01*
X0265699Y0020234D01*
X0265661Y0020387D01*
X0265628Y0020542D01*
X0265598Y0020698D01*
X0265572Y0020854D01*
X0265551Y0021011D01*
X0265533Y0021168D01*
X0265519Y0021326D01*
X0265509Y0021484D01*
X0265503Y0021642D01*
X0265501Y0021800D01*
D11*
X0187343Y0080765D02*
X0186476Y0080765D01*
X0185609Y0081633D01*
X0185609Y0085970D01*
X0185609Y0087704D02*
X0185609Y0088572D01*
X0185187Y0090900D02*
X0182585Y0090900D01*
X0182585Y0093502D01*
X0183452Y0094370D01*
X0185187Y0094370D01*
X0187741Y0093502D02*
X0187741Y0090900D01*
X0186054Y0091767D02*
X0185187Y0090900D01*
X0186054Y0091767D02*
X0185187Y0092635D01*
X0182585Y0092635D01*
X0180898Y0090900D02*
X0180898Y0094370D01*
X0178296Y0094370D01*
X0177428Y0093502D01*
X0177428Y0090900D01*
X0175741Y0090900D02*
X0175741Y0094370D01*
X0173139Y0094370D01*
X0172272Y0093502D01*
X0172272Y0090900D01*
X0170585Y0091767D02*
X0170585Y0093502D01*
X0169718Y0094370D01*
X0167983Y0094370D01*
X0167115Y0093502D01*
X0167115Y0092635D01*
X0170585Y0092635D01*
X0170585Y0091767D02*
X0169718Y0090900D01*
X0167983Y0090900D01*
X0165429Y0090900D02*
X0163694Y0090900D01*
X0164561Y0090900D02*
X0164561Y0096104D01*
X0165429Y0096104D01*
X0156835Y0096104D02*
X0155100Y0094370D01*
X0153365Y0096104D01*
X0153365Y0090900D01*
X0151678Y0091767D02*
X0150811Y0090900D01*
X0149076Y0090900D01*
X0148209Y0091767D01*
X0148209Y0095237D01*
X0149076Y0096104D01*
X0150811Y0096104D01*
X0151678Y0095237D01*
X0151678Y0091767D01*
X0146522Y0091767D02*
X0145655Y0090900D01*
X0143920Y0090900D01*
X0143052Y0091767D01*
X0143052Y0092635D01*
X0143920Y0093502D01*
X0145655Y0093502D01*
X0146522Y0094370D01*
X0146522Y0095237D01*
X0145655Y0096104D01*
X0143920Y0096104D01*
X0143052Y0095237D01*
X0141366Y0096104D02*
X0137896Y0096104D01*
X0136209Y0096104D02*
X0136209Y0090900D01*
X0132739Y0090900D01*
X0129318Y0090900D02*
X0129318Y0096104D01*
X0131053Y0096104D02*
X0127583Y0096104D01*
X0132739Y0096104D02*
X0136209Y0096104D01*
X0136209Y0093502D02*
X0134474Y0093502D01*
X0139631Y0093502D02*
X0141366Y0093502D01*
X0141366Y0090900D02*
X0141366Y0096104D01*
X0156835Y0096104D02*
X0156835Y0090900D01*
X0152100Y0088572D02*
X0152100Y0087704D01*
X0152100Y0085970D02*
X0152100Y0082500D01*
X0152967Y0082500D02*
X0151233Y0082500D01*
X0149530Y0082500D02*
X0149530Y0085970D01*
X0146928Y0085970D01*
X0146060Y0085102D01*
X0146060Y0082500D01*
X0144373Y0083367D02*
X0144373Y0085102D01*
X0143506Y0085970D01*
X0140904Y0085970D01*
X0139217Y0085970D02*
X0135747Y0085970D01*
X0139217Y0082500D01*
X0135747Y0082500D01*
X0134061Y0083367D02*
X0133193Y0082500D01*
X0131458Y0082500D01*
X0130591Y0083367D01*
X0130591Y0085102D01*
X0131458Y0085970D01*
X0133193Y0085970D01*
X0134061Y0085102D01*
X0134061Y0083367D01*
X0128904Y0083367D02*
X0128037Y0082500D01*
X0126302Y0082500D01*
X0125435Y0083367D01*
X0125435Y0085102D01*
X0126302Y0085970D01*
X0128037Y0085970D01*
X0128904Y0085102D01*
X0128904Y0083367D01*
X0123748Y0083367D02*
X0123748Y0082500D01*
X0122880Y0082500D01*
X0122880Y0083367D01*
X0123748Y0083367D01*
X0121170Y0083367D02*
X0121170Y0085102D01*
X0120302Y0085970D01*
X0117700Y0085970D01*
X0117700Y0087704D02*
X0117700Y0082500D01*
X0120302Y0082500D01*
X0121170Y0083367D01*
X0116013Y0083367D02*
X0115146Y0082500D01*
X0113411Y0082500D01*
X0116013Y0083367D02*
X0116013Y0085102D01*
X0115146Y0085970D01*
X0113411Y0085970D01*
X0112544Y0085102D01*
X0112544Y0084235D01*
X0116013Y0084235D01*
X0117270Y0090900D02*
X0117270Y0093502D01*
X0118138Y0094370D01*
X0119005Y0093502D01*
X0119005Y0090900D01*
X0120740Y0090900D02*
X0120740Y0094370D01*
X0119873Y0094370D01*
X0119005Y0093502D01*
X0115584Y0093502D02*
X0115584Y0091767D01*
X0114716Y0090900D01*
X0112981Y0090900D01*
X0112114Y0091767D01*
X0112114Y0093502D01*
X0112981Y0094370D01*
X0114716Y0094370D01*
X0115584Y0093502D01*
X0110427Y0093502D02*
X0110427Y0091767D01*
X0109560Y0090900D01*
X0106958Y0090900D01*
X0106958Y0096104D01*
X0106958Y0094370D02*
X0109560Y0094370D01*
X0110427Y0093502D01*
X0105271Y0094370D02*
X0105271Y0091767D01*
X0104403Y0090900D01*
X0101801Y0090900D01*
X0101801Y0094370D01*
X0100114Y0096104D02*
X0099247Y0096104D01*
X0099247Y0090900D01*
X0100114Y0090900D02*
X0098380Y0090900D01*
X0096677Y0091767D02*
X0096677Y0093502D01*
X0095809Y0094370D01*
X0094075Y0094370D01*
X0093207Y0093502D01*
X0093207Y0092635D01*
X0096677Y0092635D01*
X0096677Y0091767D02*
X0095809Y0090900D01*
X0094075Y0090900D01*
X0140904Y0087704D02*
X0140904Y0082500D01*
X0143506Y0082500D01*
X0144373Y0083367D01*
X0152100Y0085970D02*
X0152967Y0085970D01*
X0154654Y0085102D02*
X0155522Y0085970D01*
X0156389Y0085102D01*
X0156389Y0082500D01*
X0158124Y0082500D02*
X0158124Y0085970D01*
X0157256Y0085970D01*
X0156389Y0085102D01*
X0154654Y0085102D02*
X0154654Y0082500D01*
X0159811Y0083367D02*
X0160678Y0082500D01*
X0162413Y0082500D01*
X0163280Y0083367D01*
X0163280Y0086837D01*
X0162413Y0087704D01*
X0160678Y0087704D01*
X0159811Y0086837D01*
X0159811Y0085102D01*
X0160678Y0084235D01*
X0160678Y0085970D01*
X0162413Y0085970D01*
X0162413Y0084235D01*
X0160678Y0084235D01*
X0164967Y0083367D02*
X0165834Y0082500D01*
X0168437Y0082500D01*
X0170123Y0082500D02*
X0172726Y0082500D01*
X0173593Y0083367D01*
X0173593Y0085102D01*
X0172726Y0085970D01*
X0170123Y0085970D01*
X0170123Y0081633D01*
X0170991Y0080765D01*
X0171858Y0080765D01*
X0175280Y0082500D02*
X0175280Y0085970D01*
X0178749Y0085970D02*
X0178749Y0083367D01*
X0177882Y0082500D01*
X0175280Y0082500D01*
X0180436Y0083367D02*
X0180436Y0085102D01*
X0181304Y0085970D01*
X0183038Y0085970D01*
X0183906Y0085102D01*
X0183906Y0083367D01*
X0183038Y0082500D01*
X0181304Y0082500D01*
X0180436Y0083367D01*
X0168437Y0085102D02*
X0167569Y0085970D01*
X0164967Y0085970D01*
X0165834Y0084235D02*
X0167569Y0084235D01*
X0168437Y0085102D01*
X0165834Y0084235D02*
X0164967Y0083367D01*
X0187741Y0093502D02*
X0188608Y0094370D01*
X0190343Y0094370D01*
X0191211Y0093502D01*
X0192897Y0094370D02*
X0195500Y0094370D01*
X0196367Y0093502D01*
X0196367Y0091767D01*
X0195500Y0090900D01*
X0192897Y0090900D01*
X0191211Y0090900D02*
X0191211Y0096104D01*
X0203210Y0093502D02*
X0206680Y0093502D01*
X0204078Y0096104D01*
X0204078Y0090900D01*
D12*
X0212031Y0045153D02*
X0212031Y0041450D01*
X0212031Y0042684D02*
X0210179Y0043919D01*
X0212031Y0042684D02*
X0210179Y0041450D01*
X0213245Y0042067D02*
X0213863Y0041450D01*
X0215097Y0041450D01*
X0215714Y0042067D01*
X0213245Y0044536D01*
X0213245Y0042067D01*
X0215714Y0042067D02*
X0215714Y0044536D01*
X0215097Y0045153D01*
X0213863Y0045153D01*
X0213245Y0044536D01*
X0218163Y0045153D02*
X0219397Y0043919D01*
X0218163Y0045153D02*
X0218163Y0041450D01*
X0219397Y0041450D02*
X0216928Y0041450D01*
X0212031Y0039153D02*
X0211414Y0039153D01*
X0211414Y0035450D01*
X0212031Y0035450D02*
X0210797Y0035450D01*
X0209576Y0035450D02*
X0208341Y0035450D01*
X0208958Y0035450D02*
X0208958Y0039153D01*
X0209576Y0039153D01*
X0213245Y0037919D02*
X0213245Y0035450D01*
X0215097Y0035450D01*
X0215714Y0036067D01*
X0215714Y0037919D01*
X0216928Y0037302D02*
X0216928Y0036067D01*
X0217546Y0035450D01*
X0219397Y0035450D01*
X0219397Y0034216D02*
X0219397Y0037919D01*
X0217546Y0037919D01*
X0216928Y0037302D01*
X0224305Y0037302D02*
X0224922Y0037302D01*
X0224922Y0037919D01*
X0224305Y0037919D01*
X0224305Y0037302D01*
X0224305Y0036067D02*
X0224305Y0035450D01*
X0224922Y0035450D01*
X0224922Y0036067D01*
X0224305Y0036067D01*
X0226136Y0035450D02*
X0226136Y0037302D01*
X0226754Y0037919D01*
X0228605Y0037919D01*
X0228605Y0035450D01*
X0229819Y0036684D02*
X0232288Y0036684D01*
X0232288Y0036067D02*
X0232288Y0037302D01*
X0231671Y0037919D01*
X0230437Y0037919D01*
X0229819Y0037302D01*
X0229819Y0036684D01*
X0230437Y0035450D02*
X0231671Y0035450D01*
X0232288Y0036067D01*
X0233503Y0034833D02*
X0235971Y0034833D01*
X0237186Y0035450D02*
X0239037Y0035450D01*
X0239655Y0036067D01*
X0239655Y0037302D01*
X0239037Y0037919D01*
X0237186Y0037919D01*
X0237186Y0039153D02*
X0237186Y0035450D01*
X0237803Y0033153D02*
X0237186Y0032536D01*
X0237186Y0030067D01*
X0237803Y0029450D01*
X0239037Y0029450D01*
X0239655Y0030067D01*
X0239655Y0032536D01*
X0239037Y0033153D01*
X0237803Y0033153D01*
X0235971Y0033153D02*
X0235971Y0030067D01*
X0235354Y0029450D01*
X0234120Y0029450D01*
X0233503Y0030067D01*
X0233503Y0033153D01*
X0232288Y0033153D02*
X0229819Y0033153D01*
X0231054Y0033153D02*
X0231054Y0029450D01*
X0224922Y0030684D02*
X0222453Y0030684D01*
X0222453Y0031919D02*
X0224922Y0031919D01*
X0217556Y0033153D02*
X0217556Y0030684D01*
X0216321Y0029450D01*
X0215087Y0030684D01*
X0215087Y0033153D01*
X0213873Y0033153D02*
X0212638Y0033153D01*
X0213255Y0033153D02*
X0213255Y0029450D01*
X0212638Y0029450D02*
X0213873Y0029450D01*
X0211417Y0029450D02*
X0211417Y0033153D01*
X0208948Y0029450D01*
X0208948Y0033153D01*
X0203437Y0036067D02*
X0202820Y0035450D01*
X0200968Y0035450D01*
X0200968Y0039153D01*
X0200968Y0037919D02*
X0202820Y0037919D01*
X0203437Y0037302D01*
X0203437Y0036067D01*
X0199754Y0036067D02*
X0199754Y0037302D01*
X0199137Y0037919D01*
X0197902Y0037919D01*
X0197285Y0037302D01*
X0197285Y0036067D01*
X0197902Y0035450D01*
X0199137Y0035450D01*
X0199754Y0036067D01*
X0196071Y0036067D02*
X0195453Y0035450D01*
X0194836Y0036067D01*
X0194219Y0035450D01*
X0193602Y0036067D01*
X0193602Y0037919D01*
X0192388Y0037919D02*
X0190536Y0037919D01*
X0189919Y0037302D01*
X0189919Y0035450D01*
X0192388Y0035450D02*
X0192388Y0037919D01*
X0196071Y0037919D02*
X0196071Y0036067D01*
X0185021Y0036067D02*
X0185021Y0037302D01*
X0184404Y0037919D01*
X0183170Y0037919D01*
X0182552Y0037302D01*
X0182552Y0036684D01*
X0185021Y0036684D01*
X0185021Y0036067D02*
X0184404Y0035450D01*
X0183170Y0035450D01*
X0181338Y0035450D02*
X0181338Y0037919D01*
X0179487Y0037919D01*
X0178869Y0037302D01*
X0178869Y0035450D01*
X0177655Y0036067D02*
X0177038Y0035450D01*
X0175186Y0035450D01*
X0175186Y0037302D01*
X0175803Y0037919D01*
X0177038Y0037919D01*
X0177038Y0036684D02*
X0175186Y0036684D01*
X0173972Y0035450D02*
X0172120Y0035450D01*
X0171503Y0036067D01*
X0171503Y0037302D01*
X0172120Y0037919D01*
X0173972Y0037919D01*
X0173972Y0039153D02*
X0173972Y0035450D01*
X0177038Y0036684D02*
X0177655Y0036067D01*
X0170289Y0035450D02*
X0169054Y0035450D01*
X0169671Y0035450D02*
X0169671Y0039153D01*
X0170289Y0039153D01*
X0167833Y0037302D02*
X0167216Y0037919D01*
X0165982Y0037919D01*
X0165364Y0037302D01*
X0165364Y0036684D01*
X0167833Y0036684D01*
X0167833Y0036067D02*
X0167833Y0037302D01*
X0167833Y0036067D02*
X0167216Y0035450D01*
X0165982Y0035450D01*
X0224305Y0041450D02*
X0224922Y0041450D01*
X0224922Y0042067D01*
X0224305Y0042067D01*
X0224305Y0041450D01*
X0226754Y0041450D02*
X0226754Y0045153D01*
X0228605Y0043302D01*
X0226136Y0043302D01*
X0224922Y0043302D02*
X0224922Y0043919D01*
X0224305Y0043919D01*
X0224305Y0043302D01*
X0224922Y0043302D01*
X0229819Y0043302D02*
X0230437Y0042684D01*
X0232288Y0042684D01*
X0232288Y0041450D02*
X0232288Y0045153D01*
X0230437Y0045153D01*
X0229819Y0044536D01*
X0229819Y0043302D01*
X0231054Y0042684D02*
X0229819Y0041450D01*
X0233503Y0043302D02*
X0235971Y0043302D01*
X0238420Y0045153D02*
X0238420Y0041450D01*
X0237186Y0041450D02*
X0239655Y0041450D01*
X0240869Y0041450D02*
X0242103Y0042684D01*
X0241486Y0042684D02*
X0243338Y0042684D01*
X0243338Y0041450D02*
X0243338Y0045153D01*
X0241486Y0045153D01*
X0240869Y0044536D01*
X0240869Y0043302D01*
X0241486Y0042684D01*
X0239655Y0043919D02*
X0238420Y0045153D01*
X0241486Y0037919D02*
X0240869Y0037302D01*
X0240869Y0036067D01*
X0241486Y0035450D01*
X0243338Y0035450D01*
X0243338Y0034216D02*
X0243338Y0037919D01*
X0241486Y0037919D01*
X0240869Y0033153D02*
X0240869Y0030684D01*
X0242103Y0029450D01*
X0243338Y0030684D01*
X0243338Y0033153D01*
M02*
