G75*
%MOIN*%
%OFA0B0*%
%FSLAX25Y25*%
%IPPOS*%
%LPD*%
%AMOC8*
5,1,8,0,0,1.08239X$1,22.5*
%
%ADD10C,0.00000*%
%ADD11C,0.05200*%
%ADD12C,0.06000*%
%ADD13OC8,0.06000*%
%ADD14OC8,0.06600*%
%ADD15C,0.07050*%
%ADD16C,0.01600*%
%ADD17C,0.05000*%
%ADD18C,0.02400*%
D10*
X0001800Y0001800D02*
X0001800Y0136761D01*
X0270501Y0136761D01*
X0270501Y0001800D01*
X0001800Y0001800D01*
X0015501Y0021800D02*
X0015503Y0021958D01*
X0015509Y0022116D01*
X0015519Y0022274D01*
X0015533Y0022432D01*
X0015551Y0022589D01*
X0015572Y0022746D01*
X0015598Y0022902D01*
X0015628Y0023058D01*
X0015661Y0023213D01*
X0015699Y0023366D01*
X0015740Y0023519D01*
X0015785Y0023671D01*
X0015834Y0023822D01*
X0015887Y0023971D01*
X0015943Y0024119D01*
X0016003Y0024265D01*
X0016067Y0024410D01*
X0016135Y0024553D01*
X0016206Y0024695D01*
X0016280Y0024835D01*
X0016358Y0024972D01*
X0016440Y0025108D01*
X0016524Y0025242D01*
X0016613Y0025373D01*
X0016704Y0025502D01*
X0016799Y0025629D01*
X0016896Y0025754D01*
X0016997Y0025876D01*
X0017101Y0025995D01*
X0017208Y0026112D01*
X0017318Y0026226D01*
X0017431Y0026337D01*
X0017546Y0026446D01*
X0017664Y0026551D01*
X0017785Y0026653D01*
X0017908Y0026753D01*
X0018034Y0026849D01*
X0018162Y0026942D01*
X0018292Y0027032D01*
X0018425Y0027118D01*
X0018560Y0027202D01*
X0018696Y0027281D01*
X0018835Y0027358D01*
X0018976Y0027430D01*
X0019118Y0027500D01*
X0019262Y0027565D01*
X0019408Y0027627D01*
X0019555Y0027685D01*
X0019704Y0027740D01*
X0019854Y0027791D01*
X0020005Y0027838D01*
X0020157Y0027881D01*
X0020310Y0027920D01*
X0020465Y0027956D01*
X0020620Y0027987D01*
X0020776Y0028015D01*
X0020932Y0028039D01*
X0021089Y0028059D01*
X0021247Y0028075D01*
X0021404Y0028087D01*
X0021563Y0028095D01*
X0021721Y0028099D01*
X0021879Y0028099D01*
X0022037Y0028095D01*
X0022196Y0028087D01*
X0022353Y0028075D01*
X0022511Y0028059D01*
X0022668Y0028039D01*
X0022824Y0028015D01*
X0022980Y0027987D01*
X0023135Y0027956D01*
X0023290Y0027920D01*
X0023443Y0027881D01*
X0023595Y0027838D01*
X0023746Y0027791D01*
X0023896Y0027740D01*
X0024045Y0027685D01*
X0024192Y0027627D01*
X0024338Y0027565D01*
X0024482Y0027500D01*
X0024624Y0027430D01*
X0024765Y0027358D01*
X0024904Y0027281D01*
X0025040Y0027202D01*
X0025175Y0027118D01*
X0025308Y0027032D01*
X0025438Y0026942D01*
X0025566Y0026849D01*
X0025692Y0026753D01*
X0025815Y0026653D01*
X0025936Y0026551D01*
X0026054Y0026446D01*
X0026169Y0026337D01*
X0026282Y0026226D01*
X0026392Y0026112D01*
X0026499Y0025995D01*
X0026603Y0025876D01*
X0026704Y0025754D01*
X0026801Y0025629D01*
X0026896Y0025502D01*
X0026987Y0025373D01*
X0027076Y0025242D01*
X0027160Y0025108D01*
X0027242Y0024972D01*
X0027320Y0024835D01*
X0027394Y0024695D01*
X0027465Y0024553D01*
X0027533Y0024410D01*
X0027597Y0024265D01*
X0027657Y0024119D01*
X0027713Y0023971D01*
X0027766Y0023822D01*
X0027815Y0023671D01*
X0027860Y0023519D01*
X0027901Y0023366D01*
X0027939Y0023213D01*
X0027972Y0023058D01*
X0028002Y0022902D01*
X0028028Y0022746D01*
X0028049Y0022589D01*
X0028067Y0022432D01*
X0028081Y0022274D01*
X0028091Y0022116D01*
X0028097Y0021958D01*
X0028099Y0021800D01*
X0028097Y0021642D01*
X0028091Y0021484D01*
X0028081Y0021326D01*
X0028067Y0021168D01*
X0028049Y0021011D01*
X0028028Y0020854D01*
X0028002Y0020698D01*
X0027972Y0020542D01*
X0027939Y0020387D01*
X0027901Y0020234D01*
X0027860Y0020081D01*
X0027815Y0019929D01*
X0027766Y0019778D01*
X0027713Y0019629D01*
X0027657Y0019481D01*
X0027597Y0019335D01*
X0027533Y0019190D01*
X0027465Y0019047D01*
X0027394Y0018905D01*
X0027320Y0018765D01*
X0027242Y0018628D01*
X0027160Y0018492D01*
X0027076Y0018358D01*
X0026987Y0018227D01*
X0026896Y0018098D01*
X0026801Y0017971D01*
X0026704Y0017846D01*
X0026603Y0017724D01*
X0026499Y0017605D01*
X0026392Y0017488D01*
X0026282Y0017374D01*
X0026169Y0017263D01*
X0026054Y0017154D01*
X0025936Y0017049D01*
X0025815Y0016947D01*
X0025692Y0016847D01*
X0025566Y0016751D01*
X0025438Y0016658D01*
X0025308Y0016568D01*
X0025175Y0016482D01*
X0025040Y0016398D01*
X0024904Y0016319D01*
X0024765Y0016242D01*
X0024624Y0016170D01*
X0024482Y0016100D01*
X0024338Y0016035D01*
X0024192Y0015973D01*
X0024045Y0015915D01*
X0023896Y0015860D01*
X0023746Y0015809D01*
X0023595Y0015762D01*
X0023443Y0015719D01*
X0023290Y0015680D01*
X0023135Y0015644D01*
X0022980Y0015613D01*
X0022824Y0015585D01*
X0022668Y0015561D01*
X0022511Y0015541D01*
X0022353Y0015525D01*
X0022196Y0015513D01*
X0022037Y0015505D01*
X0021879Y0015501D01*
X0021721Y0015501D01*
X0021563Y0015505D01*
X0021404Y0015513D01*
X0021247Y0015525D01*
X0021089Y0015541D01*
X0020932Y0015561D01*
X0020776Y0015585D01*
X0020620Y0015613D01*
X0020465Y0015644D01*
X0020310Y0015680D01*
X0020157Y0015719D01*
X0020005Y0015762D01*
X0019854Y0015809D01*
X0019704Y0015860D01*
X0019555Y0015915D01*
X0019408Y0015973D01*
X0019262Y0016035D01*
X0019118Y0016100D01*
X0018976Y0016170D01*
X0018835Y0016242D01*
X0018696Y0016319D01*
X0018560Y0016398D01*
X0018425Y0016482D01*
X0018292Y0016568D01*
X0018162Y0016658D01*
X0018034Y0016751D01*
X0017908Y0016847D01*
X0017785Y0016947D01*
X0017664Y0017049D01*
X0017546Y0017154D01*
X0017431Y0017263D01*
X0017318Y0017374D01*
X0017208Y0017488D01*
X0017101Y0017605D01*
X0016997Y0017724D01*
X0016896Y0017846D01*
X0016799Y0017971D01*
X0016704Y0018098D01*
X0016613Y0018227D01*
X0016524Y0018358D01*
X0016440Y0018492D01*
X0016358Y0018628D01*
X0016280Y0018765D01*
X0016206Y0018905D01*
X0016135Y0019047D01*
X0016067Y0019190D01*
X0016003Y0019335D01*
X0015943Y0019481D01*
X0015887Y0019629D01*
X0015834Y0019778D01*
X0015785Y0019929D01*
X0015740Y0020081D01*
X0015699Y0020234D01*
X0015661Y0020387D01*
X0015628Y0020542D01*
X0015598Y0020698D01*
X0015572Y0020854D01*
X0015551Y0021011D01*
X0015533Y0021168D01*
X0015519Y0021326D01*
X0015509Y0021484D01*
X0015503Y0021642D01*
X0015501Y0021800D01*
X0015501Y0116800D02*
X0015503Y0116958D01*
X0015509Y0117116D01*
X0015519Y0117274D01*
X0015533Y0117432D01*
X0015551Y0117589D01*
X0015572Y0117746D01*
X0015598Y0117902D01*
X0015628Y0118058D01*
X0015661Y0118213D01*
X0015699Y0118366D01*
X0015740Y0118519D01*
X0015785Y0118671D01*
X0015834Y0118822D01*
X0015887Y0118971D01*
X0015943Y0119119D01*
X0016003Y0119265D01*
X0016067Y0119410D01*
X0016135Y0119553D01*
X0016206Y0119695D01*
X0016280Y0119835D01*
X0016358Y0119972D01*
X0016440Y0120108D01*
X0016524Y0120242D01*
X0016613Y0120373D01*
X0016704Y0120502D01*
X0016799Y0120629D01*
X0016896Y0120754D01*
X0016997Y0120876D01*
X0017101Y0120995D01*
X0017208Y0121112D01*
X0017318Y0121226D01*
X0017431Y0121337D01*
X0017546Y0121446D01*
X0017664Y0121551D01*
X0017785Y0121653D01*
X0017908Y0121753D01*
X0018034Y0121849D01*
X0018162Y0121942D01*
X0018292Y0122032D01*
X0018425Y0122118D01*
X0018560Y0122202D01*
X0018696Y0122281D01*
X0018835Y0122358D01*
X0018976Y0122430D01*
X0019118Y0122500D01*
X0019262Y0122565D01*
X0019408Y0122627D01*
X0019555Y0122685D01*
X0019704Y0122740D01*
X0019854Y0122791D01*
X0020005Y0122838D01*
X0020157Y0122881D01*
X0020310Y0122920D01*
X0020465Y0122956D01*
X0020620Y0122987D01*
X0020776Y0123015D01*
X0020932Y0123039D01*
X0021089Y0123059D01*
X0021247Y0123075D01*
X0021404Y0123087D01*
X0021563Y0123095D01*
X0021721Y0123099D01*
X0021879Y0123099D01*
X0022037Y0123095D01*
X0022196Y0123087D01*
X0022353Y0123075D01*
X0022511Y0123059D01*
X0022668Y0123039D01*
X0022824Y0123015D01*
X0022980Y0122987D01*
X0023135Y0122956D01*
X0023290Y0122920D01*
X0023443Y0122881D01*
X0023595Y0122838D01*
X0023746Y0122791D01*
X0023896Y0122740D01*
X0024045Y0122685D01*
X0024192Y0122627D01*
X0024338Y0122565D01*
X0024482Y0122500D01*
X0024624Y0122430D01*
X0024765Y0122358D01*
X0024904Y0122281D01*
X0025040Y0122202D01*
X0025175Y0122118D01*
X0025308Y0122032D01*
X0025438Y0121942D01*
X0025566Y0121849D01*
X0025692Y0121753D01*
X0025815Y0121653D01*
X0025936Y0121551D01*
X0026054Y0121446D01*
X0026169Y0121337D01*
X0026282Y0121226D01*
X0026392Y0121112D01*
X0026499Y0120995D01*
X0026603Y0120876D01*
X0026704Y0120754D01*
X0026801Y0120629D01*
X0026896Y0120502D01*
X0026987Y0120373D01*
X0027076Y0120242D01*
X0027160Y0120108D01*
X0027242Y0119972D01*
X0027320Y0119835D01*
X0027394Y0119695D01*
X0027465Y0119553D01*
X0027533Y0119410D01*
X0027597Y0119265D01*
X0027657Y0119119D01*
X0027713Y0118971D01*
X0027766Y0118822D01*
X0027815Y0118671D01*
X0027860Y0118519D01*
X0027901Y0118366D01*
X0027939Y0118213D01*
X0027972Y0118058D01*
X0028002Y0117902D01*
X0028028Y0117746D01*
X0028049Y0117589D01*
X0028067Y0117432D01*
X0028081Y0117274D01*
X0028091Y0117116D01*
X0028097Y0116958D01*
X0028099Y0116800D01*
X0028097Y0116642D01*
X0028091Y0116484D01*
X0028081Y0116326D01*
X0028067Y0116168D01*
X0028049Y0116011D01*
X0028028Y0115854D01*
X0028002Y0115698D01*
X0027972Y0115542D01*
X0027939Y0115387D01*
X0027901Y0115234D01*
X0027860Y0115081D01*
X0027815Y0114929D01*
X0027766Y0114778D01*
X0027713Y0114629D01*
X0027657Y0114481D01*
X0027597Y0114335D01*
X0027533Y0114190D01*
X0027465Y0114047D01*
X0027394Y0113905D01*
X0027320Y0113765D01*
X0027242Y0113628D01*
X0027160Y0113492D01*
X0027076Y0113358D01*
X0026987Y0113227D01*
X0026896Y0113098D01*
X0026801Y0112971D01*
X0026704Y0112846D01*
X0026603Y0112724D01*
X0026499Y0112605D01*
X0026392Y0112488D01*
X0026282Y0112374D01*
X0026169Y0112263D01*
X0026054Y0112154D01*
X0025936Y0112049D01*
X0025815Y0111947D01*
X0025692Y0111847D01*
X0025566Y0111751D01*
X0025438Y0111658D01*
X0025308Y0111568D01*
X0025175Y0111482D01*
X0025040Y0111398D01*
X0024904Y0111319D01*
X0024765Y0111242D01*
X0024624Y0111170D01*
X0024482Y0111100D01*
X0024338Y0111035D01*
X0024192Y0110973D01*
X0024045Y0110915D01*
X0023896Y0110860D01*
X0023746Y0110809D01*
X0023595Y0110762D01*
X0023443Y0110719D01*
X0023290Y0110680D01*
X0023135Y0110644D01*
X0022980Y0110613D01*
X0022824Y0110585D01*
X0022668Y0110561D01*
X0022511Y0110541D01*
X0022353Y0110525D01*
X0022196Y0110513D01*
X0022037Y0110505D01*
X0021879Y0110501D01*
X0021721Y0110501D01*
X0021563Y0110505D01*
X0021404Y0110513D01*
X0021247Y0110525D01*
X0021089Y0110541D01*
X0020932Y0110561D01*
X0020776Y0110585D01*
X0020620Y0110613D01*
X0020465Y0110644D01*
X0020310Y0110680D01*
X0020157Y0110719D01*
X0020005Y0110762D01*
X0019854Y0110809D01*
X0019704Y0110860D01*
X0019555Y0110915D01*
X0019408Y0110973D01*
X0019262Y0111035D01*
X0019118Y0111100D01*
X0018976Y0111170D01*
X0018835Y0111242D01*
X0018696Y0111319D01*
X0018560Y0111398D01*
X0018425Y0111482D01*
X0018292Y0111568D01*
X0018162Y0111658D01*
X0018034Y0111751D01*
X0017908Y0111847D01*
X0017785Y0111947D01*
X0017664Y0112049D01*
X0017546Y0112154D01*
X0017431Y0112263D01*
X0017318Y0112374D01*
X0017208Y0112488D01*
X0017101Y0112605D01*
X0016997Y0112724D01*
X0016896Y0112846D01*
X0016799Y0112971D01*
X0016704Y0113098D01*
X0016613Y0113227D01*
X0016524Y0113358D01*
X0016440Y0113492D01*
X0016358Y0113628D01*
X0016280Y0113765D01*
X0016206Y0113905D01*
X0016135Y0114047D01*
X0016067Y0114190D01*
X0016003Y0114335D01*
X0015943Y0114481D01*
X0015887Y0114629D01*
X0015834Y0114778D01*
X0015785Y0114929D01*
X0015740Y0115081D01*
X0015699Y0115234D01*
X0015661Y0115387D01*
X0015628Y0115542D01*
X0015598Y0115698D01*
X0015572Y0115854D01*
X0015551Y0116011D01*
X0015533Y0116168D01*
X0015519Y0116326D01*
X0015509Y0116484D01*
X0015503Y0116642D01*
X0015501Y0116800D01*
X0245501Y0116800D02*
X0245503Y0116958D01*
X0245509Y0117116D01*
X0245519Y0117274D01*
X0245533Y0117432D01*
X0245551Y0117589D01*
X0245572Y0117746D01*
X0245598Y0117902D01*
X0245628Y0118058D01*
X0245661Y0118213D01*
X0245699Y0118366D01*
X0245740Y0118519D01*
X0245785Y0118671D01*
X0245834Y0118822D01*
X0245887Y0118971D01*
X0245943Y0119119D01*
X0246003Y0119265D01*
X0246067Y0119410D01*
X0246135Y0119553D01*
X0246206Y0119695D01*
X0246280Y0119835D01*
X0246358Y0119972D01*
X0246440Y0120108D01*
X0246524Y0120242D01*
X0246613Y0120373D01*
X0246704Y0120502D01*
X0246799Y0120629D01*
X0246896Y0120754D01*
X0246997Y0120876D01*
X0247101Y0120995D01*
X0247208Y0121112D01*
X0247318Y0121226D01*
X0247431Y0121337D01*
X0247546Y0121446D01*
X0247664Y0121551D01*
X0247785Y0121653D01*
X0247908Y0121753D01*
X0248034Y0121849D01*
X0248162Y0121942D01*
X0248292Y0122032D01*
X0248425Y0122118D01*
X0248560Y0122202D01*
X0248696Y0122281D01*
X0248835Y0122358D01*
X0248976Y0122430D01*
X0249118Y0122500D01*
X0249262Y0122565D01*
X0249408Y0122627D01*
X0249555Y0122685D01*
X0249704Y0122740D01*
X0249854Y0122791D01*
X0250005Y0122838D01*
X0250157Y0122881D01*
X0250310Y0122920D01*
X0250465Y0122956D01*
X0250620Y0122987D01*
X0250776Y0123015D01*
X0250932Y0123039D01*
X0251089Y0123059D01*
X0251247Y0123075D01*
X0251404Y0123087D01*
X0251563Y0123095D01*
X0251721Y0123099D01*
X0251879Y0123099D01*
X0252037Y0123095D01*
X0252196Y0123087D01*
X0252353Y0123075D01*
X0252511Y0123059D01*
X0252668Y0123039D01*
X0252824Y0123015D01*
X0252980Y0122987D01*
X0253135Y0122956D01*
X0253290Y0122920D01*
X0253443Y0122881D01*
X0253595Y0122838D01*
X0253746Y0122791D01*
X0253896Y0122740D01*
X0254045Y0122685D01*
X0254192Y0122627D01*
X0254338Y0122565D01*
X0254482Y0122500D01*
X0254624Y0122430D01*
X0254765Y0122358D01*
X0254904Y0122281D01*
X0255040Y0122202D01*
X0255175Y0122118D01*
X0255308Y0122032D01*
X0255438Y0121942D01*
X0255566Y0121849D01*
X0255692Y0121753D01*
X0255815Y0121653D01*
X0255936Y0121551D01*
X0256054Y0121446D01*
X0256169Y0121337D01*
X0256282Y0121226D01*
X0256392Y0121112D01*
X0256499Y0120995D01*
X0256603Y0120876D01*
X0256704Y0120754D01*
X0256801Y0120629D01*
X0256896Y0120502D01*
X0256987Y0120373D01*
X0257076Y0120242D01*
X0257160Y0120108D01*
X0257242Y0119972D01*
X0257320Y0119835D01*
X0257394Y0119695D01*
X0257465Y0119553D01*
X0257533Y0119410D01*
X0257597Y0119265D01*
X0257657Y0119119D01*
X0257713Y0118971D01*
X0257766Y0118822D01*
X0257815Y0118671D01*
X0257860Y0118519D01*
X0257901Y0118366D01*
X0257939Y0118213D01*
X0257972Y0118058D01*
X0258002Y0117902D01*
X0258028Y0117746D01*
X0258049Y0117589D01*
X0258067Y0117432D01*
X0258081Y0117274D01*
X0258091Y0117116D01*
X0258097Y0116958D01*
X0258099Y0116800D01*
X0258097Y0116642D01*
X0258091Y0116484D01*
X0258081Y0116326D01*
X0258067Y0116168D01*
X0258049Y0116011D01*
X0258028Y0115854D01*
X0258002Y0115698D01*
X0257972Y0115542D01*
X0257939Y0115387D01*
X0257901Y0115234D01*
X0257860Y0115081D01*
X0257815Y0114929D01*
X0257766Y0114778D01*
X0257713Y0114629D01*
X0257657Y0114481D01*
X0257597Y0114335D01*
X0257533Y0114190D01*
X0257465Y0114047D01*
X0257394Y0113905D01*
X0257320Y0113765D01*
X0257242Y0113628D01*
X0257160Y0113492D01*
X0257076Y0113358D01*
X0256987Y0113227D01*
X0256896Y0113098D01*
X0256801Y0112971D01*
X0256704Y0112846D01*
X0256603Y0112724D01*
X0256499Y0112605D01*
X0256392Y0112488D01*
X0256282Y0112374D01*
X0256169Y0112263D01*
X0256054Y0112154D01*
X0255936Y0112049D01*
X0255815Y0111947D01*
X0255692Y0111847D01*
X0255566Y0111751D01*
X0255438Y0111658D01*
X0255308Y0111568D01*
X0255175Y0111482D01*
X0255040Y0111398D01*
X0254904Y0111319D01*
X0254765Y0111242D01*
X0254624Y0111170D01*
X0254482Y0111100D01*
X0254338Y0111035D01*
X0254192Y0110973D01*
X0254045Y0110915D01*
X0253896Y0110860D01*
X0253746Y0110809D01*
X0253595Y0110762D01*
X0253443Y0110719D01*
X0253290Y0110680D01*
X0253135Y0110644D01*
X0252980Y0110613D01*
X0252824Y0110585D01*
X0252668Y0110561D01*
X0252511Y0110541D01*
X0252353Y0110525D01*
X0252196Y0110513D01*
X0252037Y0110505D01*
X0251879Y0110501D01*
X0251721Y0110501D01*
X0251563Y0110505D01*
X0251404Y0110513D01*
X0251247Y0110525D01*
X0251089Y0110541D01*
X0250932Y0110561D01*
X0250776Y0110585D01*
X0250620Y0110613D01*
X0250465Y0110644D01*
X0250310Y0110680D01*
X0250157Y0110719D01*
X0250005Y0110762D01*
X0249854Y0110809D01*
X0249704Y0110860D01*
X0249555Y0110915D01*
X0249408Y0110973D01*
X0249262Y0111035D01*
X0249118Y0111100D01*
X0248976Y0111170D01*
X0248835Y0111242D01*
X0248696Y0111319D01*
X0248560Y0111398D01*
X0248425Y0111482D01*
X0248292Y0111568D01*
X0248162Y0111658D01*
X0248034Y0111751D01*
X0247908Y0111847D01*
X0247785Y0111947D01*
X0247664Y0112049D01*
X0247546Y0112154D01*
X0247431Y0112263D01*
X0247318Y0112374D01*
X0247208Y0112488D01*
X0247101Y0112605D01*
X0246997Y0112724D01*
X0246896Y0112846D01*
X0246799Y0112971D01*
X0246704Y0113098D01*
X0246613Y0113227D01*
X0246524Y0113358D01*
X0246440Y0113492D01*
X0246358Y0113628D01*
X0246280Y0113765D01*
X0246206Y0113905D01*
X0246135Y0114047D01*
X0246067Y0114190D01*
X0246003Y0114335D01*
X0245943Y0114481D01*
X0245887Y0114629D01*
X0245834Y0114778D01*
X0245785Y0114929D01*
X0245740Y0115081D01*
X0245699Y0115234D01*
X0245661Y0115387D01*
X0245628Y0115542D01*
X0245598Y0115698D01*
X0245572Y0115854D01*
X0245551Y0116011D01*
X0245533Y0116168D01*
X0245519Y0116326D01*
X0245509Y0116484D01*
X0245503Y0116642D01*
X0245501Y0116800D01*
X0245501Y0021800D02*
X0245503Y0021958D01*
X0245509Y0022116D01*
X0245519Y0022274D01*
X0245533Y0022432D01*
X0245551Y0022589D01*
X0245572Y0022746D01*
X0245598Y0022902D01*
X0245628Y0023058D01*
X0245661Y0023213D01*
X0245699Y0023366D01*
X0245740Y0023519D01*
X0245785Y0023671D01*
X0245834Y0023822D01*
X0245887Y0023971D01*
X0245943Y0024119D01*
X0246003Y0024265D01*
X0246067Y0024410D01*
X0246135Y0024553D01*
X0246206Y0024695D01*
X0246280Y0024835D01*
X0246358Y0024972D01*
X0246440Y0025108D01*
X0246524Y0025242D01*
X0246613Y0025373D01*
X0246704Y0025502D01*
X0246799Y0025629D01*
X0246896Y0025754D01*
X0246997Y0025876D01*
X0247101Y0025995D01*
X0247208Y0026112D01*
X0247318Y0026226D01*
X0247431Y0026337D01*
X0247546Y0026446D01*
X0247664Y0026551D01*
X0247785Y0026653D01*
X0247908Y0026753D01*
X0248034Y0026849D01*
X0248162Y0026942D01*
X0248292Y0027032D01*
X0248425Y0027118D01*
X0248560Y0027202D01*
X0248696Y0027281D01*
X0248835Y0027358D01*
X0248976Y0027430D01*
X0249118Y0027500D01*
X0249262Y0027565D01*
X0249408Y0027627D01*
X0249555Y0027685D01*
X0249704Y0027740D01*
X0249854Y0027791D01*
X0250005Y0027838D01*
X0250157Y0027881D01*
X0250310Y0027920D01*
X0250465Y0027956D01*
X0250620Y0027987D01*
X0250776Y0028015D01*
X0250932Y0028039D01*
X0251089Y0028059D01*
X0251247Y0028075D01*
X0251404Y0028087D01*
X0251563Y0028095D01*
X0251721Y0028099D01*
X0251879Y0028099D01*
X0252037Y0028095D01*
X0252196Y0028087D01*
X0252353Y0028075D01*
X0252511Y0028059D01*
X0252668Y0028039D01*
X0252824Y0028015D01*
X0252980Y0027987D01*
X0253135Y0027956D01*
X0253290Y0027920D01*
X0253443Y0027881D01*
X0253595Y0027838D01*
X0253746Y0027791D01*
X0253896Y0027740D01*
X0254045Y0027685D01*
X0254192Y0027627D01*
X0254338Y0027565D01*
X0254482Y0027500D01*
X0254624Y0027430D01*
X0254765Y0027358D01*
X0254904Y0027281D01*
X0255040Y0027202D01*
X0255175Y0027118D01*
X0255308Y0027032D01*
X0255438Y0026942D01*
X0255566Y0026849D01*
X0255692Y0026753D01*
X0255815Y0026653D01*
X0255936Y0026551D01*
X0256054Y0026446D01*
X0256169Y0026337D01*
X0256282Y0026226D01*
X0256392Y0026112D01*
X0256499Y0025995D01*
X0256603Y0025876D01*
X0256704Y0025754D01*
X0256801Y0025629D01*
X0256896Y0025502D01*
X0256987Y0025373D01*
X0257076Y0025242D01*
X0257160Y0025108D01*
X0257242Y0024972D01*
X0257320Y0024835D01*
X0257394Y0024695D01*
X0257465Y0024553D01*
X0257533Y0024410D01*
X0257597Y0024265D01*
X0257657Y0024119D01*
X0257713Y0023971D01*
X0257766Y0023822D01*
X0257815Y0023671D01*
X0257860Y0023519D01*
X0257901Y0023366D01*
X0257939Y0023213D01*
X0257972Y0023058D01*
X0258002Y0022902D01*
X0258028Y0022746D01*
X0258049Y0022589D01*
X0258067Y0022432D01*
X0258081Y0022274D01*
X0258091Y0022116D01*
X0258097Y0021958D01*
X0258099Y0021800D01*
X0258097Y0021642D01*
X0258091Y0021484D01*
X0258081Y0021326D01*
X0258067Y0021168D01*
X0258049Y0021011D01*
X0258028Y0020854D01*
X0258002Y0020698D01*
X0257972Y0020542D01*
X0257939Y0020387D01*
X0257901Y0020234D01*
X0257860Y0020081D01*
X0257815Y0019929D01*
X0257766Y0019778D01*
X0257713Y0019629D01*
X0257657Y0019481D01*
X0257597Y0019335D01*
X0257533Y0019190D01*
X0257465Y0019047D01*
X0257394Y0018905D01*
X0257320Y0018765D01*
X0257242Y0018628D01*
X0257160Y0018492D01*
X0257076Y0018358D01*
X0256987Y0018227D01*
X0256896Y0018098D01*
X0256801Y0017971D01*
X0256704Y0017846D01*
X0256603Y0017724D01*
X0256499Y0017605D01*
X0256392Y0017488D01*
X0256282Y0017374D01*
X0256169Y0017263D01*
X0256054Y0017154D01*
X0255936Y0017049D01*
X0255815Y0016947D01*
X0255692Y0016847D01*
X0255566Y0016751D01*
X0255438Y0016658D01*
X0255308Y0016568D01*
X0255175Y0016482D01*
X0255040Y0016398D01*
X0254904Y0016319D01*
X0254765Y0016242D01*
X0254624Y0016170D01*
X0254482Y0016100D01*
X0254338Y0016035D01*
X0254192Y0015973D01*
X0254045Y0015915D01*
X0253896Y0015860D01*
X0253746Y0015809D01*
X0253595Y0015762D01*
X0253443Y0015719D01*
X0253290Y0015680D01*
X0253135Y0015644D01*
X0252980Y0015613D01*
X0252824Y0015585D01*
X0252668Y0015561D01*
X0252511Y0015541D01*
X0252353Y0015525D01*
X0252196Y0015513D01*
X0252037Y0015505D01*
X0251879Y0015501D01*
X0251721Y0015501D01*
X0251563Y0015505D01*
X0251404Y0015513D01*
X0251247Y0015525D01*
X0251089Y0015541D01*
X0250932Y0015561D01*
X0250776Y0015585D01*
X0250620Y0015613D01*
X0250465Y0015644D01*
X0250310Y0015680D01*
X0250157Y0015719D01*
X0250005Y0015762D01*
X0249854Y0015809D01*
X0249704Y0015860D01*
X0249555Y0015915D01*
X0249408Y0015973D01*
X0249262Y0016035D01*
X0249118Y0016100D01*
X0248976Y0016170D01*
X0248835Y0016242D01*
X0248696Y0016319D01*
X0248560Y0016398D01*
X0248425Y0016482D01*
X0248292Y0016568D01*
X0248162Y0016658D01*
X0248034Y0016751D01*
X0247908Y0016847D01*
X0247785Y0016947D01*
X0247664Y0017049D01*
X0247546Y0017154D01*
X0247431Y0017263D01*
X0247318Y0017374D01*
X0247208Y0017488D01*
X0247101Y0017605D01*
X0246997Y0017724D01*
X0246896Y0017846D01*
X0246799Y0017971D01*
X0246704Y0018098D01*
X0246613Y0018227D01*
X0246524Y0018358D01*
X0246440Y0018492D01*
X0246358Y0018628D01*
X0246280Y0018765D01*
X0246206Y0018905D01*
X0246135Y0019047D01*
X0246067Y0019190D01*
X0246003Y0019335D01*
X0245943Y0019481D01*
X0245887Y0019629D01*
X0245834Y0019778D01*
X0245785Y0019929D01*
X0245740Y0020081D01*
X0245699Y0020234D01*
X0245661Y0020387D01*
X0245628Y0020542D01*
X0245598Y0020698D01*
X0245572Y0020854D01*
X0245551Y0021011D01*
X0245533Y0021168D01*
X0245519Y0021326D01*
X0245509Y0021484D01*
X0245503Y0021642D01*
X0245501Y0021800D01*
D11*
X0219300Y0054200D02*
X0219300Y0059400D01*
X0209300Y0059400D02*
X0209300Y0054200D01*
X0199300Y0054200D02*
X0199300Y0059400D01*
X0189300Y0059400D02*
X0189300Y0054200D01*
X0179300Y0054200D02*
X0179300Y0059400D01*
X0169300Y0059400D02*
X0169300Y0054200D01*
X0159300Y0054200D02*
X0159300Y0059400D01*
X0149300Y0059400D02*
X0149300Y0054200D01*
X0134300Y0054200D02*
X0134300Y0059400D01*
X0124300Y0059400D02*
X0124300Y0054200D01*
X0114300Y0054200D02*
X0114300Y0059400D01*
X0104300Y0059400D02*
X0104300Y0054200D01*
X0094300Y0054200D02*
X0094300Y0059400D01*
X0084300Y0059400D02*
X0084300Y0054200D01*
X0074300Y0054200D02*
X0074300Y0059400D01*
X0064300Y0059400D02*
X0064300Y0054200D01*
X0064300Y0084200D02*
X0064300Y0089400D01*
X0074300Y0089400D02*
X0074300Y0084200D01*
X0084300Y0084200D02*
X0084300Y0089400D01*
X0094300Y0089400D02*
X0094300Y0084200D01*
X0104300Y0084200D02*
X0104300Y0089400D01*
X0114300Y0089400D02*
X0114300Y0084200D01*
X0124300Y0084200D02*
X0124300Y0089400D01*
X0134300Y0089400D02*
X0134300Y0084200D01*
X0149300Y0084200D02*
X0149300Y0089400D01*
X0159300Y0089400D02*
X0159300Y0084200D01*
X0169300Y0084200D02*
X0169300Y0089400D01*
X0179300Y0089400D02*
X0179300Y0084200D01*
X0189300Y0084200D02*
X0189300Y0089400D01*
X0199300Y0089400D02*
X0199300Y0084200D01*
X0209300Y0084200D02*
X0209300Y0089400D01*
X0219300Y0089400D02*
X0219300Y0084200D01*
D12*
X0216800Y0118800D02*
X0216800Y0124800D01*
X0206800Y0124800D02*
X0206800Y0118800D01*
X0196800Y0118800D02*
X0196800Y0124800D01*
X0186800Y0124800D02*
X0186800Y0118800D01*
X0176800Y0118800D02*
X0176800Y0124800D01*
X0166800Y0124800D02*
X0166800Y0118800D01*
X0106800Y0118800D02*
X0106800Y0124800D01*
X0096800Y0124800D02*
X0096800Y0118800D01*
X0086800Y0118800D02*
X0086800Y0124800D01*
X0076800Y0124800D02*
X0076800Y0118800D01*
X0066800Y0118800D02*
X0066800Y0124800D01*
X0056800Y0124800D02*
X0056800Y0118800D01*
X0041800Y0057300D02*
X0041800Y0051300D01*
X0031800Y0051300D02*
X0031800Y0057300D01*
X0021800Y0057300D02*
X0021800Y0051300D01*
D13*
X0046800Y0036800D03*
X0056800Y0036800D03*
X0066800Y0036800D03*
X0076800Y0036800D03*
X0091800Y0036800D03*
X0101800Y0036800D03*
X0111800Y0036800D03*
X0121800Y0036800D03*
X0121800Y0026800D03*
X0121800Y0026800D03*
X0111800Y0026800D03*
X0111800Y0026800D03*
X0101800Y0026800D03*
X0101800Y0026800D03*
X0091800Y0026800D03*
X0091800Y0026800D03*
X0076800Y0026800D03*
X0076800Y0026800D03*
X0066800Y0026800D03*
X0066800Y0026800D03*
X0056800Y0026800D03*
X0056800Y0026800D03*
X0046800Y0026800D03*
X0046800Y0026800D03*
X0046800Y0016800D03*
X0056800Y0016800D03*
X0066800Y0016800D03*
X0076800Y0016800D03*
X0091800Y0016800D03*
X0101800Y0016800D03*
X0111800Y0016800D03*
X0121800Y0016800D03*
X0151800Y0016800D03*
X0161800Y0016800D03*
X0171800Y0016800D03*
X0181800Y0016800D03*
X0196800Y0016800D03*
X0206800Y0016800D03*
X0216800Y0016800D03*
X0226800Y0016800D03*
X0226800Y0026800D03*
X0226800Y0026800D03*
X0216800Y0026800D03*
X0216800Y0026800D03*
X0206800Y0026800D03*
X0206800Y0026800D03*
X0196800Y0026800D03*
X0196800Y0026800D03*
X0181800Y0026800D03*
X0181800Y0026800D03*
X0171800Y0026800D03*
X0171800Y0026800D03*
X0161800Y0026800D03*
X0161800Y0026800D03*
X0151800Y0026800D03*
X0151800Y0026800D03*
X0151800Y0036800D03*
X0161800Y0036800D03*
X0171800Y0036800D03*
X0181800Y0036800D03*
X0196800Y0036800D03*
X0206800Y0036800D03*
X0216800Y0036800D03*
X0226800Y0036800D03*
D14*
X0051800Y0071800D03*
X0051800Y0085550D03*
X0011800Y0085550D03*
X0011800Y0071800D03*
D15*
X0126957Y0115775D02*
X0126957Y0122825D01*
X0146643Y0122825D02*
X0146643Y0115775D01*
X0250854Y0088985D02*
X0257904Y0088985D01*
X0257904Y0069300D02*
X0250854Y0069300D01*
X0250854Y0049615D02*
X0257904Y0049615D01*
D16*
X0263029Y0049755D02*
X0265701Y0049755D01*
X0265701Y0048157D02*
X0262847Y0048157D01*
X0263029Y0048596D02*
X0262248Y0046712D01*
X0260807Y0045270D01*
X0258923Y0044490D01*
X0249834Y0044490D01*
X0247951Y0045270D01*
X0246509Y0046712D01*
X0245729Y0048596D01*
X0245729Y0050634D01*
X0246509Y0052518D01*
X0247951Y0053960D01*
X0249834Y0054740D01*
X0258923Y0054740D01*
X0260807Y0053960D01*
X0262248Y0052518D01*
X0263029Y0050634D01*
X0263029Y0048596D01*
X0262095Y0046558D02*
X0265701Y0046558D01*
X0265701Y0044960D02*
X0260057Y0044960D01*
X0265701Y0043361D02*
X0006600Y0043361D01*
X0006600Y0041763D02*
X0265701Y0041763D01*
X0265701Y0040164D02*
X0229941Y0040164D01*
X0228705Y0041400D02*
X0224895Y0041400D01*
X0222200Y0038705D01*
X0222200Y0034895D01*
X0224895Y0032200D01*
X0228705Y0032200D01*
X0231400Y0034895D01*
X0231400Y0038705D01*
X0228705Y0041400D01*
X0231400Y0038566D02*
X0265701Y0038566D01*
X0265701Y0036967D02*
X0258754Y0036967D01*
X0257938Y0037439D02*
X0257938Y0037439D01*
X0262275Y0034935D01*
X0262275Y0034935D01*
X0265681Y0031264D01*
X0265681Y0031264D01*
X0265701Y0031222D01*
X0265701Y0107378D01*
X0265681Y0107336D01*
X0265681Y0107336D01*
X0262275Y0103665D01*
X0262275Y0103665D01*
X0257938Y0101161D01*
X0257938Y0101161D01*
X0253055Y0100047D01*
X0253055Y0100047D01*
X0248062Y0100421D01*
X0248062Y0100421D01*
X0243400Y0102251D01*
X0243400Y0102251D01*
X0239485Y0105373D01*
X0239485Y0105373D01*
X0239485Y0105373D01*
X0236664Y0109511D01*
X0236664Y0109511D01*
X0235188Y0114296D01*
X0235188Y0119304D01*
X0236664Y0124089D01*
X0239485Y0128227D01*
X0239485Y0128227D01*
X0243400Y0131349D01*
X0243400Y0131349D01*
X0244958Y0131961D01*
X0028766Y0131961D01*
X0032275Y0129935D01*
X0032275Y0129935D01*
X0035681Y0126264D01*
X0035681Y0126264D01*
X0037854Y0121752D01*
X0037854Y0121752D01*
X0038600Y0116800D01*
X0037854Y0111848D01*
X0035681Y0107336D01*
X0035681Y0107336D01*
X0032275Y0103665D01*
X0032275Y0103665D01*
X0032275Y0103665D01*
X0027938Y0101161D01*
X0027938Y0101161D01*
X0023055Y0100047D01*
X0023055Y0100047D01*
X0018062Y0100421D01*
X0018062Y0100421D01*
X0013400Y0102251D01*
X0013400Y0102251D01*
X0009485Y0105373D01*
X0009485Y0105373D01*
X0009485Y0105373D01*
X0006664Y0109511D01*
X0006664Y0109511D01*
X0006600Y0109717D01*
X0006600Y0028883D01*
X0006664Y0029089D01*
X0006664Y0029089D01*
X0009485Y0033227D01*
X0009485Y0033227D01*
X0013400Y0036349D01*
X0013400Y0036349D01*
X0018062Y0038179D01*
X0018062Y0038179D01*
X0023055Y0038553D01*
X0023055Y0038553D01*
X0027938Y0037439D01*
X0027938Y0037439D01*
X0032275Y0034935D01*
X0032275Y0034935D01*
X0035681Y0031264D01*
X0035681Y0031264D01*
X0037854Y0026752D01*
X0037854Y0026752D01*
X0038600Y0021800D01*
X0037854Y0016848D01*
X0037854Y0016848D01*
X0035681Y0012336D01*
X0035681Y0012336D01*
X0032275Y0008665D01*
X0032275Y0008665D01*
X0028697Y0006600D01*
X0245058Y0006600D01*
X0243400Y0007251D01*
X0243400Y0007251D01*
X0239485Y0010373D01*
X0239485Y0010373D01*
X0239485Y0010373D01*
X0236664Y0014511D01*
X0236664Y0014511D01*
X0235188Y0019296D01*
X0235188Y0024304D01*
X0236664Y0029089D01*
X0236664Y0029089D01*
X0239485Y0033227D01*
X0239485Y0033227D01*
X0243400Y0036349D01*
X0243400Y0036349D01*
X0248062Y0038179D01*
X0248062Y0038179D01*
X0253055Y0038553D01*
X0253055Y0038553D01*
X0257938Y0037439D01*
X0261523Y0035369D02*
X0265701Y0035369D01*
X0265701Y0033770D02*
X0263355Y0033770D01*
X0264838Y0032172D02*
X0265701Y0032172D01*
X0244975Y0036967D02*
X0231400Y0036967D01*
X0231400Y0035369D02*
X0242171Y0035369D01*
X0240166Y0033770D02*
X0230276Y0033770D01*
X0228705Y0031400D02*
X0224895Y0031400D01*
X0222200Y0028705D01*
X0222200Y0024895D01*
X0224895Y0022200D01*
X0228705Y0022200D01*
X0231400Y0024895D01*
X0231400Y0028705D01*
X0228705Y0031400D01*
X0229532Y0030573D02*
X0237675Y0030573D01*
X0238765Y0032172D02*
X0034838Y0032172D01*
X0036013Y0030573D02*
X0044068Y0030573D01*
X0044895Y0031400D02*
X0042200Y0028705D01*
X0042200Y0024895D01*
X0044895Y0022200D01*
X0048705Y0022200D01*
X0051400Y0024895D01*
X0051400Y0028705D01*
X0048705Y0031400D01*
X0044895Y0031400D01*
X0044895Y0032200D02*
X0048705Y0032200D01*
X0051400Y0034895D01*
X0051400Y0038705D01*
X0048705Y0041400D01*
X0044895Y0041400D01*
X0042200Y0038705D01*
X0042200Y0034895D01*
X0044895Y0032200D01*
X0043324Y0033770D02*
X0033355Y0033770D01*
X0031523Y0035369D02*
X0042200Y0035369D01*
X0042200Y0036967D02*
X0028754Y0036967D01*
X0042200Y0038566D02*
X0006600Y0038566D01*
X0006600Y0040164D02*
X0043659Y0040164D01*
X0049941Y0040164D02*
X0053659Y0040164D01*
X0054895Y0041400D02*
X0052200Y0038705D01*
X0052200Y0034895D01*
X0054895Y0032200D01*
X0058705Y0032200D01*
X0061400Y0034895D01*
X0061400Y0038705D01*
X0058705Y0041400D01*
X0054895Y0041400D01*
X0052200Y0038566D02*
X0051400Y0038566D01*
X0051400Y0036967D02*
X0052200Y0036967D01*
X0052200Y0035369D02*
X0051400Y0035369D01*
X0050276Y0033770D02*
X0053324Y0033770D01*
X0054895Y0031400D02*
X0052200Y0028705D01*
X0052200Y0024895D01*
X0054895Y0022200D01*
X0058705Y0022200D01*
X0061400Y0024895D01*
X0061400Y0028705D01*
X0058705Y0031400D01*
X0054895Y0031400D01*
X0054068Y0030573D02*
X0049532Y0030573D01*
X0051131Y0028975D02*
X0052469Y0028975D01*
X0052200Y0027376D02*
X0051400Y0027376D01*
X0051400Y0025778D02*
X0052200Y0025778D01*
X0052915Y0024179D02*
X0050685Y0024179D01*
X0049086Y0022581D02*
X0054514Y0022581D01*
X0054812Y0021600D02*
X0052000Y0018788D01*
X0052000Y0017000D01*
X0056600Y0017000D01*
X0056600Y0021600D01*
X0054812Y0021600D01*
X0054194Y0020982D02*
X0049406Y0020982D01*
X0048788Y0021600D02*
X0047000Y0021600D01*
X0047000Y0017000D01*
X0051600Y0017000D01*
X0051600Y0018788D01*
X0048788Y0021600D01*
X0047000Y0020982D02*
X0046600Y0020982D01*
X0046600Y0021600D02*
X0044812Y0021600D01*
X0042000Y0018788D01*
X0042000Y0017000D01*
X0046600Y0017000D01*
X0046600Y0021600D01*
X0044514Y0022581D02*
X0038482Y0022581D01*
X0038477Y0020982D02*
X0044194Y0020982D01*
X0042595Y0019384D02*
X0038236Y0019384D01*
X0037995Y0017785D02*
X0042000Y0017785D01*
X0042000Y0016600D02*
X0042000Y0014812D01*
X0044812Y0012000D01*
X0046600Y0012000D01*
X0046600Y0016600D01*
X0047000Y0016600D01*
X0047000Y0017000D01*
X0046600Y0017000D01*
X0046600Y0016600D01*
X0042000Y0016600D01*
X0042000Y0016187D02*
X0037535Y0016187D01*
X0036765Y0014588D02*
X0042224Y0014588D01*
X0043822Y0012990D02*
X0035995Y0012990D01*
X0034804Y0011391D02*
X0238791Y0011391D01*
X0237701Y0012990D02*
X0229778Y0012990D01*
X0228788Y0012000D02*
X0231600Y0014812D01*
X0231600Y0016600D01*
X0227000Y0016600D01*
X0227000Y0017000D01*
X0231600Y0017000D01*
X0231600Y0018788D01*
X0228788Y0021600D01*
X0227000Y0021600D01*
X0227000Y0017000D01*
X0226600Y0017000D01*
X0226600Y0021600D01*
X0224812Y0021600D01*
X0222000Y0018788D01*
X0222000Y0017000D01*
X0226600Y0017000D01*
X0226600Y0016600D01*
X0227000Y0016600D01*
X0227000Y0012000D01*
X0228788Y0012000D01*
X0227000Y0012990D02*
X0226600Y0012990D01*
X0226600Y0012000D02*
X0226600Y0016600D01*
X0222000Y0016600D01*
X0222000Y0014812D01*
X0224812Y0012000D01*
X0226600Y0012000D01*
X0223822Y0012990D02*
X0219778Y0012990D01*
X0218788Y0012000D02*
X0217000Y0012000D01*
X0217000Y0016600D01*
X0217000Y0017000D01*
X0221600Y0017000D01*
X0221600Y0018788D01*
X0218788Y0021600D01*
X0217000Y0021600D01*
X0217000Y0017000D01*
X0216600Y0017000D01*
X0216600Y0021600D01*
X0214812Y0021600D01*
X0212000Y0018788D01*
X0212000Y0017000D01*
X0216600Y0017000D01*
X0216600Y0016600D01*
X0217000Y0016600D01*
X0221600Y0016600D01*
X0221600Y0014812D01*
X0218788Y0012000D01*
X0217000Y0012990D02*
X0216600Y0012990D01*
X0216600Y0012000D02*
X0214812Y0012000D01*
X0212000Y0014812D01*
X0212000Y0016600D01*
X0216600Y0016600D01*
X0216600Y0012000D01*
X0213822Y0012990D02*
X0209778Y0012990D01*
X0208788Y0012000D02*
X0207000Y0012000D01*
X0207000Y0016600D01*
X0207000Y0017000D01*
X0211600Y0017000D01*
X0211600Y0018788D01*
X0208788Y0021600D01*
X0207000Y0021600D01*
X0207000Y0017000D01*
X0206600Y0017000D01*
X0206600Y0021600D01*
X0204812Y0021600D01*
X0202000Y0018788D01*
X0202000Y0017000D01*
X0206600Y0017000D01*
X0206600Y0016600D01*
X0207000Y0016600D01*
X0211600Y0016600D01*
X0211600Y0014812D01*
X0208788Y0012000D01*
X0207000Y0012990D02*
X0206600Y0012990D01*
X0206600Y0012000D02*
X0206600Y0016600D01*
X0202000Y0016600D01*
X0202000Y0014812D01*
X0204812Y0012000D01*
X0206600Y0012000D01*
X0203822Y0012990D02*
X0199778Y0012990D01*
X0198788Y0012000D02*
X0197000Y0012000D01*
X0197000Y0016600D01*
X0197000Y0017000D01*
X0201600Y0017000D01*
X0201600Y0018788D01*
X0198788Y0021600D01*
X0197000Y0021600D01*
X0197000Y0017000D01*
X0196600Y0017000D01*
X0196600Y0021600D01*
X0194812Y0021600D01*
X0192000Y0018788D01*
X0192000Y0017000D01*
X0196600Y0017000D01*
X0196600Y0016600D01*
X0197000Y0016600D01*
X0201600Y0016600D01*
X0201600Y0014812D01*
X0198788Y0012000D01*
X0197000Y0012990D02*
X0196600Y0012990D01*
X0196600Y0012000D02*
X0194812Y0012000D01*
X0192000Y0014812D01*
X0192000Y0016600D01*
X0196600Y0016600D01*
X0196600Y0012000D01*
X0193822Y0012990D02*
X0184778Y0012990D01*
X0183788Y0012000D02*
X0186600Y0014812D01*
X0186600Y0016600D01*
X0182000Y0016600D01*
X0182000Y0017000D01*
X0186600Y0017000D01*
X0186600Y0018788D01*
X0183788Y0021600D01*
X0182000Y0021600D01*
X0182000Y0017000D01*
X0181600Y0017000D01*
X0181600Y0021600D01*
X0179812Y0021600D01*
X0177000Y0018788D01*
X0177000Y0017000D01*
X0181600Y0017000D01*
X0181600Y0016600D01*
X0182000Y0016600D01*
X0182000Y0012000D01*
X0183788Y0012000D01*
X0182000Y0012990D02*
X0181600Y0012990D01*
X0181600Y0012000D02*
X0179812Y0012000D01*
X0177000Y0014812D01*
X0177000Y0016600D01*
X0181600Y0016600D01*
X0181600Y0012000D01*
X0178822Y0012990D02*
X0174778Y0012990D01*
X0173788Y0012000D02*
X0172000Y0012000D01*
X0172000Y0016600D01*
X0172000Y0017000D01*
X0176600Y0017000D01*
X0176600Y0018788D01*
X0173788Y0021600D01*
X0172000Y0021600D01*
X0172000Y0017000D01*
X0171600Y0017000D01*
X0171600Y0021600D01*
X0169812Y0021600D01*
X0167000Y0018788D01*
X0167000Y0017000D01*
X0171600Y0017000D01*
X0171600Y0016600D01*
X0172000Y0016600D01*
X0176600Y0016600D01*
X0176600Y0014812D01*
X0173788Y0012000D01*
X0172000Y0012990D02*
X0171600Y0012990D01*
X0171600Y0012000D02*
X0169812Y0012000D01*
X0167000Y0014812D01*
X0167000Y0016600D01*
X0171600Y0016600D01*
X0171600Y0012000D01*
X0168822Y0012990D02*
X0164778Y0012990D01*
X0163788Y0012000D02*
X0166600Y0014812D01*
X0166600Y0016600D01*
X0162000Y0016600D01*
X0162000Y0017000D01*
X0166600Y0017000D01*
X0166600Y0018788D01*
X0163788Y0021600D01*
X0162000Y0021600D01*
X0162000Y0017000D01*
X0161600Y0017000D01*
X0161600Y0021600D01*
X0159812Y0021600D01*
X0157000Y0018788D01*
X0157000Y0017000D01*
X0161600Y0017000D01*
X0161600Y0016600D01*
X0162000Y0016600D01*
X0162000Y0012000D01*
X0163788Y0012000D01*
X0162000Y0012990D02*
X0161600Y0012990D01*
X0161600Y0012000D02*
X0161600Y0016600D01*
X0157000Y0016600D01*
X0157000Y0014812D01*
X0159812Y0012000D01*
X0161600Y0012000D01*
X0158822Y0012990D02*
X0154778Y0012990D01*
X0153788Y0012000D02*
X0152000Y0012000D01*
X0152000Y0016600D01*
X0152000Y0017000D01*
X0156600Y0017000D01*
X0156600Y0018788D01*
X0153788Y0021600D01*
X0152000Y0021600D01*
X0152000Y0017000D01*
X0151600Y0017000D01*
X0151600Y0021600D01*
X0149812Y0021600D01*
X0147000Y0018788D01*
X0147000Y0017000D01*
X0151600Y0017000D01*
X0151600Y0016600D01*
X0152000Y0016600D01*
X0156600Y0016600D01*
X0156600Y0014812D01*
X0153788Y0012000D01*
X0152000Y0012990D02*
X0151600Y0012990D01*
X0151600Y0012000D02*
X0149812Y0012000D01*
X0147000Y0014812D01*
X0147000Y0016600D01*
X0151600Y0016600D01*
X0151600Y0012000D01*
X0148822Y0012990D02*
X0124778Y0012990D01*
X0123788Y0012000D02*
X0126600Y0014812D01*
X0126600Y0016600D01*
X0122000Y0016600D01*
X0122000Y0017000D01*
X0126600Y0017000D01*
X0126600Y0018788D01*
X0123788Y0021600D01*
X0122000Y0021600D01*
X0122000Y0017000D01*
X0121600Y0017000D01*
X0121600Y0021600D01*
X0119812Y0021600D01*
X0117000Y0018788D01*
X0117000Y0017000D01*
X0121600Y0017000D01*
X0121600Y0016600D01*
X0122000Y0016600D01*
X0122000Y0012000D01*
X0123788Y0012000D01*
X0122000Y0012990D02*
X0121600Y0012990D01*
X0121600Y0012000D02*
X0121600Y0016600D01*
X0117000Y0016600D01*
X0117000Y0014812D01*
X0119812Y0012000D01*
X0121600Y0012000D01*
X0118822Y0012990D02*
X0114778Y0012990D01*
X0113788Y0012000D02*
X0112000Y0012000D01*
X0112000Y0016600D01*
X0112000Y0017000D01*
X0116600Y0017000D01*
X0116600Y0018788D01*
X0113788Y0021600D01*
X0112000Y0021600D01*
X0112000Y0017000D01*
X0111600Y0017000D01*
X0111600Y0021600D01*
X0109812Y0021600D01*
X0107000Y0018788D01*
X0107000Y0017000D01*
X0111600Y0017000D01*
X0111600Y0016600D01*
X0112000Y0016600D01*
X0116600Y0016600D01*
X0116600Y0014812D01*
X0113788Y0012000D01*
X0112000Y0012990D02*
X0111600Y0012990D01*
X0111600Y0012000D02*
X0109812Y0012000D01*
X0107000Y0014812D01*
X0107000Y0016600D01*
X0111600Y0016600D01*
X0111600Y0012000D01*
X0108822Y0012990D02*
X0104778Y0012990D01*
X0103788Y0012000D02*
X0102000Y0012000D01*
X0102000Y0016600D01*
X0102000Y0017000D01*
X0106600Y0017000D01*
X0106600Y0018788D01*
X0103788Y0021600D01*
X0102000Y0021600D01*
X0102000Y0017000D01*
X0101600Y0017000D01*
X0101600Y0021600D01*
X0099812Y0021600D01*
X0097000Y0018788D01*
X0097000Y0017000D01*
X0101600Y0017000D01*
X0101600Y0016600D01*
X0102000Y0016600D01*
X0106600Y0016600D01*
X0106600Y0014812D01*
X0103788Y0012000D01*
X0102000Y0012990D02*
X0101600Y0012990D01*
X0101600Y0012000D02*
X0101600Y0016600D01*
X0097000Y0016600D01*
X0097000Y0014812D01*
X0099812Y0012000D01*
X0101600Y0012000D01*
X0098822Y0012990D02*
X0094778Y0012990D01*
X0093788Y0012000D02*
X0092000Y0012000D01*
X0092000Y0016600D01*
X0092000Y0017000D01*
X0096600Y0017000D01*
X0096600Y0018788D01*
X0093788Y0021600D01*
X0092000Y0021600D01*
X0092000Y0017000D01*
X0091600Y0017000D01*
X0091600Y0021600D01*
X0089812Y0021600D01*
X0087000Y0018788D01*
X0087000Y0017000D01*
X0091600Y0017000D01*
X0091600Y0016600D01*
X0092000Y0016600D01*
X0096600Y0016600D01*
X0096600Y0014812D01*
X0093788Y0012000D01*
X0092000Y0012990D02*
X0091600Y0012990D01*
X0091600Y0012000D02*
X0089812Y0012000D01*
X0087000Y0014812D01*
X0087000Y0016600D01*
X0091600Y0016600D01*
X0091600Y0012000D01*
X0088822Y0012990D02*
X0079778Y0012990D01*
X0078788Y0012000D02*
X0081600Y0014812D01*
X0081600Y0016600D01*
X0077000Y0016600D01*
X0077000Y0017000D01*
X0081600Y0017000D01*
X0081600Y0018788D01*
X0078788Y0021600D01*
X0077000Y0021600D01*
X0077000Y0017000D01*
X0076600Y0017000D01*
X0076600Y0021600D01*
X0074812Y0021600D01*
X0072000Y0018788D01*
X0072000Y0017000D01*
X0076600Y0017000D01*
X0076600Y0016600D01*
X0077000Y0016600D01*
X0077000Y0012000D01*
X0078788Y0012000D01*
X0077000Y0012990D02*
X0076600Y0012990D01*
X0076600Y0012000D02*
X0074812Y0012000D01*
X0072000Y0014812D01*
X0072000Y0016600D01*
X0076600Y0016600D01*
X0076600Y0012000D01*
X0073822Y0012990D02*
X0069778Y0012990D01*
X0068788Y0012000D02*
X0067000Y0012000D01*
X0067000Y0016600D01*
X0067000Y0017000D01*
X0071600Y0017000D01*
X0071600Y0018788D01*
X0068788Y0021600D01*
X0067000Y0021600D01*
X0067000Y0017000D01*
X0066600Y0017000D01*
X0066600Y0021600D01*
X0064812Y0021600D01*
X0062000Y0018788D01*
X0062000Y0017000D01*
X0066600Y0017000D01*
X0066600Y0016600D01*
X0067000Y0016600D01*
X0071600Y0016600D01*
X0071600Y0014812D01*
X0068788Y0012000D01*
X0067000Y0012990D02*
X0066600Y0012990D01*
X0066600Y0012000D02*
X0064812Y0012000D01*
X0062000Y0014812D01*
X0062000Y0016600D01*
X0066600Y0016600D01*
X0066600Y0012000D01*
X0063822Y0012990D02*
X0059778Y0012990D01*
X0058788Y0012000D02*
X0061600Y0014812D01*
X0061600Y0016600D01*
X0057000Y0016600D01*
X0057000Y0017000D01*
X0061600Y0017000D01*
X0061600Y0018788D01*
X0058788Y0021600D01*
X0057000Y0021600D01*
X0057000Y0017000D01*
X0056600Y0017000D01*
X0056600Y0016600D01*
X0057000Y0016600D01*
X0057000Y0012000D01*
X0058788Y0012000D01*
X0057000Y0012990D02*
X0056600Y0012990D01*
X0056600Y0012000D02*
X0056600Y0016600D01*
X0052000Y0016600D01*
X0052000Y0014812D01*
X0054812Y0012000D01*
X0056600Y0012000D01*
X0053822Y0012990D02*
X0049778Y0012990D01*
X0048788Y0012000D02*
X0047000Y0012000D01*
X0047000Y0016600D01*
X0051600Y0016600D01*
X0051600Y0014812D01*
X0048788Y0012000D01*
X0047000Y0012990D02*
X0046600Y0012990D01*
X0046600Y0014588D02*
X0047000Y0014588D01*
X0047000Y0016187D02*
X0046600Y0016187D01*
X0046600Y0017785D02*
X0047000Y0017785D01*
X0047000Y0019384D02*
X0046600Y0019384D01*
X0051005Y0019384D02*
X0052595Y0019384D01*
X0052000Y0017785D02*
X0051600Y0017785D01*
X0051600Y0016187D02*
X0052000Y0016187D01*
X0052224Y0014588D02*
X0051376Y0014588D01*
X0056600Y0014588D02*
X0057000Y0014588D01*
X0057000Y0016187D02*
X0056600Y0016187D01*
X0056600Y0017785D02*
X0057000Y0017785D01*
X0057000Y0019384D02*
X0056600Y0019384D01*
X0056600Y0020982D02*
X0057000Y0020982D01*
X0059406Y0020982D02*
X0064194Y0020982D01*
X0064895Y0022200D02*
X0068705Y0022200D01*
X0071400Y0024895D01*
X0071400Y0028705D01*
X0068705Y0031400D01*
X0064895Y0031400D01*
X0062200Y0028705D01*
X0062200Y0024895D01*
X0064895Y0022200D01*
X0064514Y0022581D02*
X0059086Y0022581D01*
X0060685Y0024179D02*
X0062915Y0024179D01*
X0062200Y0025778D02*
X0061400Y0025778D01*
X0061400Y0027376D02*
X0062200Y0027376D01*
X0062469Y0028975D02*
X0061131Y0028975D01*
X0059532Y0030573D02*
X0064068Y0030573D01*
X0064895Y0032200D02*
X0068705Y0032200D01*
X0071400Y0034895D01*
X0071400Y0038705D01*
X0068705Y0041400D01*
X0064895Y0041400D01*
X0062200Y0038705D01*
X0062200Y0034895D01*
X0064895Y0032200D01*
X0063324Y0033770D02*
X0060276Y0033770D01*
X0061400Y0035369D02*
X0062200Y0035369D01*
X0062200Y0036967D02*
X0061400Y0036967D01*
X0061400Y0038566D02*
X0062200Y0038566D01*
X0063659Y0040164D02*
X0059941Y0040164D01*
X0069941Y0040164D02*
X0073659Y0040164D01*
X0074895Y0041400D02*
X0072200Y0038705D01*
X0072200Y0034895D01*
X0074895Y0032200D01*
X0078705Y0032200D01*
X0081400Y0034895D01*
X0081400Y0038705D01*
X0078705Y0041400D01*
X0074895Y0041400D01*
X0072200Y0038566D02*
X0071400Y0038566D01*
X0071400Y0036967D02*
X0072200Y0036967D01*
X0072200Y0035369D02*
X0071400Y0035369D01*
X0070276Y0033770D02*
X0073324Y0033770D01*
X0074895Y0031400D02*
X0072200Y0028705D01*
X0072200Y0024895D01*
X0074895Y0022200D01*
X0078705Y0022200D01*
X0081400Y0024895D01*
X0081400Y0028705D01*
X0078705Y0031400D01*
X0074895Y0031400D01*
X0074068Y0030573D02*
X0069532Y0030573D01*
X0071131Y0028975D02*
X0072469Y0028975D01*
X0072200Y0027376D02*
X0071400Y0027376D01*
X0071400Y0025778D02*
X0072200Y0025778D01*
X0072915Y0024179D02*
X0070685Y0024179D01*
X0069086Y0022581D02*
X0074514Y0022581D01*
X0074194Y0020982D02*
X0069406Y0020982D01*
X0067000Y0020982D02*
X0066600Y0020982D01*
X0066600Y0019384D02*
X0067000Y0019384D01*
X0067000Y0017785D02*
X0066600Y0017785D01*
X0066600Y0016187D02*
X0067000Y0016187D01*
X0067000Y0014588D02*
X0066600Y0014588D01*
X0062224Y0014588D02*
X0061376Y0014588D01*
X0061600Y0016187D02*
X0062000Y0016187D01*
X0062000Y0017785D02*
X0061600Y0017785D01*
X0061005Y0019384D02*
X0062595Y0019384D01*
X0071005Y0019384D02*
X0072595Y0019384D01*
X0072000Y0017785D02*
X0071600Y0017785D01*
X0071600Y0016187D02*
X0072000Y0016187D01*
X0072224Y0014588D02*
X0071376Y0014588D01*
X0076600Y0014588D02*
X0077000Y0014588D01*
X0077000Y0016187D02*
X0076600Y0016187D01*
X0076600Y0017785D02*
X0077000Y0017785D01*
X0077000Y0019384D02*
X0076600Y0019384D01*
X0081005Y0019384D02*
X0087595Y0019384D01*
X0087000Y0017785D02*
X0081600Y0017785D01*
X0081600Y0016187D02*
X0087000Y0016187D01*
X0087224Y0014588D02*
X0081376Y0014588D01*
X0091600Y0014588D02*
X0092000Y0014588D01*
X0092000Y0016187D02*
X0091600Y0016187D01*
X0091600Y0017785D02*
X0092000Y0017785D01*
X0092000Y0019384D02*
X0091600Y0019384D01*
X0096005Y0019384D02*
X0097595Y0019384D01*
X0097000Y0017785D02*
X0096600Y0017785D01*
X0096600Y0016187D02*
X0097000Y0016187D01*
X0097224Y0014588D02*
X0096376Y0014588D01*
X0101600Y0014588D02*
X0102000Y0014588D01*
X0102000Y0016187D02*
X0101600Y0016187D01*
X0101600Y0017785D02*
X0102000Y0017785D01*
X0102000Y0019384D02*
X0101600Y0019384D01*
X0101600Y0020982D02*
X0102000Y0020982D01*
X0103705Y0022200D02*
X0099895Y0022200D01*
X0097200Y0024895D01*
X0097200Y0028705D01*
X0099895Y0031400D01*
X0103705Y0031400D01*
X0106400Y0028705D01*
X0106400Y0024895D01*
X0103705Y0022200D01*
X0104086Y0022581D02*
X0109514Y0022581D01*
X0109895Y0022200D02*
X0113705Y0022200D01*
X0116400Y0024895D01*
X0116400Y0028705D01*
X0113705Y0031400D01*
X0109895Y0031400D01*
X0107200Y0028705D01*
X0107200Y0024895D01*
X0109895Y0022200D01*
X0109194Y0020982D02*
X0104406Y0020982D01*
X0099514Y0022581D02*
X0094086Y0022581D01*
X0093705Y0022200D02*
X0096400Y0024895D01*
X0096400Y0028705D01*
X0093705Y0031400D01*
X0089895Y0031400D01*
X0087200Y0028705D01*
X0087200Y0024895D01*
X0089895Y0022200D01*
X0093705Y0022200D01*
X0094406Y0020982D02*
X0099194Y0020982D01*
X0097915Y0024179D02*
X0095685Y0024179D01*
X0096400Y0025778D02*
X0097200Y0025778D01*
X0097200Y0027376D02*
X0096400Y0027376D01*
X0096131Y0028975D02*
X0097469Y0028975D01*
X0099068Y0030573D02*
X0094532Y0030573D01*
X0093705Y0032200D02*
X0096400Y0034895D01*
X0096400Y0038705D01*
X0093705Y0041400D01*
X0089895Y0041400D01*
X0087200Y0038705D01*
X0087200Y0034895D01*
X0089895Y0032200D01*
X0093705Y0032200D01*
X0095276Y0033770D02*
X0098324Y0033770D01*
X0097200Y0034895D02*
X0099895Y0032200D01*
X0103705Y0032200D01*
X0106400Y0034895D01*
X0106400Y0038705D01*
X0103705Y0041400D01*
X0099895Y0041400D01*
X0097200Y0038705D01*
X0097200Y0034895D01*
X0097200Y0035369D02*
X0096400Y0035369D01*
X0096400Y0036967D02*
X0097200Y0036967D01*
X0097200Y0038566D02*
X0096400Y0038566D01*
X0094941Y0040164D02*
X0098659Y0040164D01*
X0104941Y0040164D02*
X0108659Y0040164D01*
X0109895Y0041400D02*
X0107200Y0038705D01*
X0107200Y0034895D01*
X0109895Y0032200D01*
X0113705Y0032200D01*
X0116400Y0034895D01*
X0116400Y0038705D01*
X0113705Y0041400D01*
X0109895Y0041400D01*
X0107200Y0038566D02*
X0106400Y0038566D01*
X0106400Y0036967D02*
X0107200Y0036967D01*
X0107200Y0035369D02*
X0106400Y0035369D01*
X0105276Y0033770D02*
X0108324Y0033770D01*
X0109068Y0030573D02*
X0104532Y0030573D01*
X0106131Y0028975D02*
X0107469Y0028975D01*
X0107200Y0027376D02*
X0106400Y0027376D01*
X0106400Y0025778D02*
X0107200Y0025778D01*
X0107915Y0024179D02*
X0105685Y0024179D01*
X0111600Y0020982D02*
X0112000Y0020982D01*
X0114406Y0020982D02*
X0119194Y0020982D01*
X0119895Y0022200D02*
X0123705Y0022200D01*
X0126400Y0024895D01*
X0126400Y0028705D01*
X0123705Y0031400D01*
X0119895Y0031400D01*
X0117200Y0028705D01*
X0117200Y0024895D01*
X0119895Y0022200D01*
X0119514Y0022581D02*
X0114086Y0022581D01*
X0115685Y0024179D02*
X0117915Y0024179D01*
X0117200Y0025778D02*
X0116400Y0025778D01*
X0116400Y0027376D02*
X0117200Y0027376D01*
X0117469Y0028975D02*
X0116131Y0028975D01*
X0114532Y0030573D02*
X0119068Y0030573D01*
X0119895Y0032200D02*
X0123705Y0032200D01*
X0126400Y0034895D01*
X0126400Y0038705D01*
X0123705Y0041400D01*
X0119895Y0041400D01*
X0117200Y0038705D01*
X0117200Y0034895D01*
X0119895Y0032200D01*
X0118324Y0033770D02*
X0115276Y0033770D01*
X0116400Y0035369D02*
X0117200Y0035369D01*
X0117200Y0036967D02*
X0116400Y0036967D01*
X0116400Y0038566D02*
X0117200Y0038566D01*
X0118659Y0040164D02*
X0114941Y0040164D01*
X0124941Y0040164D02*
X0148659Y0040164D01*
X0149895Y0041400D02*
X0147200Y0038705D01*
X0147200Y0034895D01*
X0149895Y0032200D01*
X0153705Y0032200D01*
X0156400Y0034895D01*
X0156400Y0038705D01*
X0153705Y0041400D01*
X0149895Y0041400D01*
X0147200Y0038566D02*
X0126400Y0038566D01*
X0126400Y0036967D02*
X0147200Y0036967D01*
X0147200Y0035369D02*
X0126400Y0035369D01*
X0125276Y0033770D02*
X0148324Y0033770D01*
X0149895Y0031400D02*
X0147200Y0028705D01*
X0147200Y0024895D01*
X0149895Y0022200D01*
X0153705Y0022200D01*
X0156400Y0024895D01*
X0156400Y0028705D01*
X0153705Y0031400D01*
X0149895Y0031400D01*
X0149068Y0030573D02*
X0124532Y0030573D01*
X0126131Y0028975D02*
X0147469Y0028975D01*
X0147200Y0027376D02*
X0126400Y0027376D01*
X0126400Y0025778D02*
X0147200Y0025778D01*
X0147915Y0024179D02*
X0125685Y0024179D01*
X0124086Y0022581D02*
X0149514Y0022581D01*
X0149194Y0020982D02*
X0124406Y0020982D01*
X0122000Y0020982D02*
X0121600Y0020982D01*
X0121600Y0019384D02*
X0122000Y0019384D01*
X0122000Y0017785D02*
X0121600Y0017785D01*
X0121600Y0016187D02*
X0122000Y0016187D01*
X0122000Y0014588D02*
X0121600Y0014588D01*
X0117224Y0014588D02*
X0116376Y0014588D01*
X0116600Y0016187D02*
X0117000Y0016187D01*
X0117000Y0017785D02*
X0116600Y0017785D01*
X0116005Y0019384D02*
X0117595Y0019384D01*
X0112000Y0019384D02*
X0111600Y0019384D01*
X0111600Y0017785D02*
X0112000Y0017785D01*
X0112000Y0016187D02*
X0111600Y0016187D01*
X0111600Y0014588D02*
X0112000Y0014588D01*
X0107224Y0014588D02*
X0106376Y0014588D01*
X0106600Y0016187D02*
X0107000Y0016187D01*
X0107000Y0017785D02*
X0106600Y0017785D01*
X0106005Y0019384D02*
X0107595Y0019384D01*
X0092000Y0020982D02*
X0091600Y0020982D01*
X0089194Y0020982D02*
X0079406Y0020982D01*
X0079086Y0022581D02*
X0089514Y0022581D01*
X0087915Y0024179D02*
X0080685Y0024179D01*
X0081400Y0025778D02*
X0087200Y0025778D01*
X0087200Y0027376D02*
X0081400Y0027376D01*
X0081131Y0028975D02*
X0087469Y0028975D01*
X0089068Y0030573D02*
X0079532Y0030573D01*
X0080276Y0033770D02*
X0088324Y0033770D01*
X0087200Y0035369D02*
X0081400Y0035369D01*
X0081400Y0036967D02*
X0087200Y0036967D01*
X0087200Y0038566D02*
X0081400Y0038566D01*
X0079941Y0040164D02*
X0088659Y0040164D01*
X0085135Y0050000D02*
X0083465Y0050000D01*
X0081921Y0050639D01*
X0080739Y0051821D01*
X0080100Y0053365D01*
X0080100Y0060235D01*
X0080739Y0061779D01*
X0081921Y0062961D01*
X0083465Y0063600D01*
X0085135Y0063600D01*
X0086679Y0062961D01*
X0087861Y0061779D01*
X0088500Y0060235D01*
X0088500Y0053365D01*
X0087861Y0051821D01*
X0086679Y0050639D01*
X0085135Y0050000D01*
X0087394Y0051354D02*
X0091206Y0051354D01*
X0090739Y0051821D02*
X0090100Y0053365D01*
X0090100Y0060235D01*
X0090739Y0061779D01*
X0091921Y0062961D01*
X0093465Y0063600D01*
X0095135Y0063600D01*
X0096679Y0062961D01*
X0097861Y0061779D01*
X0098500Y0060235D01*
X0098500Y0053365D01*
X0097861Y0051821D01*
X0096679Y0050639D01*
X0095135Y0050000D01*
X0093465Y0050000D01*
X0091921Y0050639D01*
X0090739Y0051821D01*
X0090271Y0052952D02*
X0088329Y0052952D01*
X0088500Y0054551D02*
X0090100Y0054551D01*
X0090100Y0056149D02*
X0088500Y0056149D01*
X0088500Y0057748D02*
X0090100Y0057748D01*
X0090100Y0059346D02*
X0088500Y0059346D01*
X0088206Y0060945D02*
X0090394Y0060945D01*
X0091504Y0062543D02*
X0087096Y0062543D01*
X0081504Y0062543D02*
X0077096Y0062543D01*
X0076679Y0062961D02*
X0075135Y0063600D01*
X0073465Y0063600D01*
X0071921Y0062961D01*
X0070739Y0061779D01*
X0070100Y0060235D01*
X0070100Y0053365D01*
X0070739Y0051821D01*
X0071921Y0050639D01*
X0073465Y0050000D01*
X0075135Y0050000D01*
X0076679Y0050639D01*
X0077861Y0051821D01*
X0078500Y0053365D01*
X0078500Y0060235D01*
X0077861Y0061779D01*
X0076679Y0062961D01*
X0078206Y0060945D02*
X0080394Y0060945D01*
X0080100Y0059346D02*
X0078500Y0059346D01*
X0078500Y0057748D02*
X0080100Y0057748D01*
X0080100Y0056149D02*
X0078500Y0056149D01*
X0078500Y0054551D02*
X0080100Y0054551D01*
X0080271Y0052952D02*
X0078329Y0052952D01*
X0077394Y0051354D02*
X0081206Y0051354D01*
X0071206Y0051354D02*
X0067394Y0051354D01*
X0067861Y0051821D02*
X0068500Y0053365D01*
X0068500Y0060235D01*
X0067861Y0061779D01*
X0066679Y0062961D01*
X0065135Y0063600D01*
X0063465Y0063600D01*
X0061921Y0062961D01*
X0060739Y0061779D01*
X0060100Y0060235D01*
X0060100Y0053365D01*
X0060739Y0051821D01*
X0061921Y0050639D01*
X0063465Y0050000D01*
X0065135Y0050000D01*
X0066679Y0050639D01*
X0067861Y0051821D01*
X0068329Y0052952D02*
X0070271Y0052952D01*
X0070100Y0054551D02*
X0068500Y0054551D01*
X0068500Y0056149D02*
X0070100Y0056149D01*
X0070100Y0057748D02*
X0068500Y0057748D01*
X0068500Y0059346D02*
X0070100Y0059346D01*
X0070394Y0060945D02*
X0068206Y0060945D01*
X0067096Y0062543D02*
X0071504Y0062543D01*
X0068743Y0064000D02*
X0164857Y0064000D01*
X0165886Y0064426D01*
X0166674Y0065214D01*
X0181674Y0080214D01*
X0181971Y0080931D01*
X0182861Y0081821D01*
X0183500Y0083365D01*
X0183500Y0090235D01*
X0182861Y0091779D01*
X0181679Y0092961D01*
X0180135Y0093600D01*
X0178465Y0093600D01*
X0176921Y0092961D01*
X0175739Y0091779D01*
X0175100Y0090235D01*
X0175100Y0083365D01*
X0175629Y0082088D01*
X0163140Y0069600D01*
X0070460Y0069600D01*
X0056620Y0083440D01*
X0056700Y0083520D01*
X0056700Y0085240D01*
X0060100Y0088640D01*
X0060100Y0083365D01*
X0060200Y0083123D01*
X0060200Y0080984D01*
X0060824Y0079478D01*
X0068324Y0071978D01*
X0069478Y0070824D01*
X0070984Y0070200D01*
X0142616Y0070200D01*
X0144122Y0070824D01*
X0145276Y0071978D01*
X0151622Y0078324D01*
X0152776Y0079478D01*
X0153400Y0080984D01*
X0153400Y0083123D01*
X0153500Y0083365D01*
X0153500Y0090235D01*
X0152861Y0091779D01*
X0151679Y0092961D01*
X0150135Y0093600D01*
X0148465Y0093600D01*
X0146921Y0092961D01*
X0145739Y0091779D01*
X0145100Y0090235D01*
X0145100Y0083398D01*
X0140102Y0078400D01*
X0073498Y0078400D01*
X0068500Y0083398D01*
X0068500Y0090235D01*
X0067861Y0091779D01*
X0066679Y0092961D01*
X0065135Y0093600D01*
X0065060Y0093600D01*
X0065460Y0094000D01*
X0088140Y0094000D01*
X0090629Y0091512D01*
X0090100Y0090235D01*
X0090100Y0083365D01*
X0090739Y0081821D01*
X0091921Y0080639D01*
X0093465Y0080000D01*
X0095135Y0080000D01*
X0096679Y0080639D01*
X0097861Y0081821D01*
X0098500Y0083365D01*
X0098500Y0090235D01*
X0097861Y0091779D01*
X0096971Y0092669D01*
X0096674Y0093386D01*
X0091674Y0098386D01*
X0090886Y0099174D01*
X0089857Y0099600D01*
X0063743Y0099600D01*
X0062714Y0099174D01*
X0053910Y0090370D01*
X0053830Y0090450D01*
X0049770Y0090450D01*
X0046900Y0087580D01*
X0046900Y0083520D01*
X0049770Y0080650D01*
X0051490Y0080650D01*
X0067714Y0064426D01*
X0068743Y0064000D01*
X0068400Y0064142D02*
X0025900Y0064142D01*
X0025900Y0065740D02*
X0066400Y0065740D01*
X0064801Y0067339D02*
X0054269Y0067339D01*
X0053830Y0066900D02*
X0056700Y0069770D01*
X0056700Y0073830D01*
X0053830Y0076700D01*
X0049770Y0076700D01*
X0046900Y0073830D01*
X0046900Y0069770D01*
X0049770Y0066900D01*
X0053830Y0066900D01*
X0055867Y0068937D02*
X0063203Y0068937D01*
X0061604Y0070536D02*
X0056700Y0070536D01*
X0056700Y0072134D02*
X0060006Y0072134D01*
X0058407Y0073733D02*
X0056700Y0073733D01*
X0056809Y0075332D02*
X0055198Y0075332D01*
X0055210Y0076930D02*
X0032728Y0076930D01*
X0031130Y0075332D02*
X0048402Y0075332D01*
X0046900Y0073733D02*
X0029531Y0073733D01*
X0027933Y0072134D02*
X0046900Y0072134D01*
X0046900Y0070536D02*
X0026334Y0070536D01*
X0025900Y0070102D02*
X0055998Y0100200D01*
X0095116Y0100200D01*
X0096622Y0100824D01*
X0109122Y0113324D01*
X0110276Y0114478D01*
X0110900Y0115984D01*
X0110900Y0116678D01*
X0111400Y0117885D01*
X0111400Y0125715D01*
X0110700Y0127406D01*
X0109406Y0128700D01*
X0107715Y0129400D01*
X0105885Y0129400D01*
X0104194Y0128700D01*
X0102900Y0127406D01*
X0102200Y0125715D01*
X0102200Y0117998D01*
X0100914Y0116713D01*
X0101400Y0117885D01*
X0101400Y0125715D01*
X0100700Y0127406D01*
X0099406Y0128700D01*
X0097715Y0129400D01*
X0095885Y0129400D01*
X0094194Y0128700D01*
X0092900Y0127406D01*
X0092200Y0125715D01*
X0092200Y0117885D01*
X0092705Y0116665D01*
X0090640Y0114600D01*
X0088681Y0114600D01*
X0089406Y0114900D01*
X0090700Y0116194D01*
X0091400Y0117885D01*
X0091400Y0125715D01*
X0090700Y0127406D01*
X0089406Y0128700D01*
X0087715Y0129400D01*
X0085885Y0129400D01*
X0084194Y0128700D01*
X0082900Y0127406D01*
X0082200Y0125715D01*
X0082200Y0117885D01*
X0082900Y0116194D01*
X0084194Y0114900D01*
X0084919Y0114600D01*
X0078681Y0114600D01*
X0079406Y0114900D01*
X0080700Y0116194D01*
X0081400Y0117885D01*
X0081400Y0125715D01*
X0080700Y0127406D01*
X0079406Y0128700D01*
X0077715Y0129400D01*
X0075885Y0129400D01*
X0074194Y0128700D01*
X0072900Y0127406D01*
X0072200Y0125715D01*
X0072200Y0117885D01*
X0072900Y0116194D01*
X0074194Y0114900D01*
X0074919Y0114600D01*
X0068681Y0114600D01*
X0069406Y0114900D01*
X0070700Y0116194D01*
X0071400Y0117885D01*
X0071400Y0125715D01*
X0070700Y0127406D01*
X0069406Y0128700D01*
X0067715Y0129400D01*
X0065885Y0129400D01*
X0064194Y0128700D01*
X0062900Y0127406D01*
X0062200Y0125715D01*
X0062200Y0117885D01*
X0062900Y0116194D01*
X0064194Y0114900D01*
X0064919Y0114600D01*
X0059130Y0114600D01*
X0059316Y0114695D01*
X0059927Y0115139D01*
X0060461Y0115673D01*
X0060905Y0116284D01*
X0061248Y0116957D01*
X0061482Y0117676D01*
X0061600Y0118422D01*
X0061600Y0121600D01*
X0057000Y0121600D01*
X0057000Y0122000D01*
X0056600Y0122000D01*
X0056600Y0129600D01*
X0056422Y0129600D01*
X0055676Y0129482D01*
X0054957Y0129248D01*
X0054284Y0128905D01*
X0053673Y0128461D01*
X0053139Y0127927D01*
X0052695Y0127316D01*
X0052352Y0126643D01*
X0052118Y0125924D01*
X0052000Y0125178D01*
X0052000Y0122000D01*
X0056600Y0122000D01*
X0056600Y0121600D01*
X0052000Y0121600D01*
X0052000Y0118422D01*
X0052118Y0117676D01*
X0052352Y0116957D01*
X0052695Y0116284D01*
X0053139Y0115673D01*
X0053673Y0115139D01*
X0054284Y0114695D01*
X0054470Y0114600D01*
X0051243Y0114600D01*
X0050214Y0114174D01*
X0049426Y0113386D01*
X0012740Y0076700D01*
X0009770Y0076700D01*
X0006900Y0073830D01*
X0006900Y0069770D01*
X0009770Y0066900D01*
X0013830Y0066900D01*
X0016700Y0069770D01*
X0016700Y0072740D01*
X0052960Y0109000D01*
X0092357Y0109000D01*
X0093386Y0109426D01*
X0098386Y0114426D01*
X0098474Y0114515D01*
X0098887Y0114686D01*
X0092602Y0108400D01*
X0053484Y0108400D01*
X0051978Y0107776D01*
X0050824Y0106622D01*
X0018324Y0074122D01*
X0017700Y0072616D01*
X0017700Y0059422D01*
X0017200Y0058215D01*
X0017200Y0050385D01*
X0017900Y0048694D01*
X0019194Y0047400D01*
X0020885Y0046700D01*
X0022715Y0046700D01*
X0024406Y0047400D01*
X0025700Y0048694D01*
X0026400Y0050385D01*
X0026400Y0058215D01*
X0025900Y0059422D01*
X0025900Y0070102D01*
X0025900Y0068937D02*
X0047733Y0068937D01*
X0049331Y0067339D02*
X0025900Y0067339D01*
X0025900Y0062543D02*
X0061504Y0062543D01*
X0060394Y0060945D02*
X0044660Y0060945D01*
X0044406Y0061200D02*
X0042715Y0061900D01*
X0040885Y0061900D01*
X0039194Y0061200D01*
X0037900Y0059906D01*
X0037200Y0058215D01*
X0037200Y0050385D01*
X0037900Y0048694D01*
X0039194Y0047400D01*
X0040885Y0046700D01*
X0042715Y0046700D01*
X0044406Y0047400D01*
X0045700Y0048694D01*
X0046400Y0050385D01*
X0046400Y0058215D01*
X0045700Y0059906D01*
X0044406Y0061200D01*
X0045931Y0059346D02*
X0060100Y0059346D01*
X0060100Y0057748D02*
X0046400Y0057748D01*
X0046400Y0056149D02*
X0060100Y0056149D01*
X0060100Y0054551D02*
X0046400Y0054551D01*
X0046400Y0052952D02*
X0060271Y0052952D01*
X0061206Y0051354D02*
X0046400Y0051354D01*
X0046139Y0049755D02*
X0245729Y0049755D01*
X0245910Y0048157D02*
X0045162Y0048157D01*
X0038438Y0048157D02*
X0035445Y0048157D01*
X0035461Y0048173D02*
X0035905Y0048784D01*
X0036248Y0049457D01*
X0036482Y0050176D01*
X0036600Y0050922D01*
X0036600Y0054100D01*
X0032000Y0054100D01*
X0032000Y0054500D01*
X0036600Y0054500D01*
X0036600Y0057678D01*
X0036482Y0058424D01*
X0036248Y0059143D01*
X0035905Y0059816D01*
X0035461Y0060427D01*
X0034927Y0060961D01*
X0034316Y0061405D01*
X0033643Y0061748D01*
X0032924Y0061982D01*
X0032178Y0062100D01*
X0032000Y0062100D01*
X0032000Y0054500D01*
X0031600Y0054500D01*
X0031600Y0062100D01*
X0031422Y0062100D01*
X0030676Y0061982D01*
X0029957Y0061748D01*
X0029284Y0061405D01*
X0028673Y0060961D01*
X0028139Y0060427D01*
X0027695Y0059816D01*
X0027352Y0059143D01*
X0027118Y0058424D01*
X0027000Y0057678D01*
X0027000Y0054500D01*
X0031600Y0054500D01*
X0031600Y0054100D01*
X0032000Y0054100D01*
X0032000Y0046500D01*
X0032178Y0046500D01*
X0032924Y0046618D01*
X0033643Y0046852D01*
X0034316Y0047195D01*
X0034927Y0047639D01*
X0035461Y0048173D01*
X0036345Y0049755D02*
X0037461Y0049755D01*
X0037200Y0051354D02*
X0036600Y0051354D01*
X0036600Y0052952D02*
X0037200Y0052952D01*
X0037200Y0054551D02*
X0036600Y0054551D01*
X0036600Y0056149D02*
X0037200Y0056149D01*
X0037200Y0057748D02*
X0036589Y0057748D01*
X0036144Y0059346D02*
X0037669Y0059346D01*
X0038940Y0060945D02*
X0034943Y0060945D01*
X0032000Y0060945D02*
X0031600Y0060945D01*
X0031600Y0059346D02*
X0032000Y0059346D01*
X0032000Y0057748D02*
X0031600Y0057748D01*
X0031600Y0056149D02*
X0032000Y0056149D01*
X0032000Y0054551D02*
X0031600Y0054551D01*
X0031600Y0054100D02*
X0027000Y0054100D01*
X0027000Y0050922D01*
X0027118Y0050176D01*
X0027352Y0049457D01*
X0027695Y0048784D01*
X0028139Y0048173D01*
X0028673Y0047639D01*
X0029284Y0047195D01*
X0029957Y0046852D01*
X0030676Y0046618D01*
X0031422Y0046500D01*
X0031600Y0046500D01*
X0031600Y0054100D01*
X0031600Y0052952D02*
X0032000Y0052952D01*
X0032000Y0051354D02*
X0031600Y0051354D01*
X0031600Y0049755D02*
X0032000Y0049755D01*
X0032000Y0048157D02*
X0031600Y0048157D01*
X0031600Y0046558D02*
X0032000Y0046558D01*
X0032546Y0046558D02*
X0246663Y0046558D01*
X0248700Y0044960D02*
X0006600Y0044960D01*
X0006600Y0046558D02*
X0031054Y0046558D01*
X0028155Y0048157D02*
X0025162Y0048157D01*
X0026139Y0049755D02*
X0027255Y0049755D01*
X0027000Y0051354D02*
X0026400Y0051354D01*
X0026400Y0052952D02*
X0027000Y0052952D01*
X0027000Y0054551D02*
X0026400Y0054551D01*
X0026400Y0056149D02*
X0027000Y0056149D01*
X0027011Y0057748D02*
X0026400Y0057748D01*
X0025931Y0059346D02*
X0027456Y0059346D01*
X0028657Y0060945D02*
X0025900Y0060945D01*
X0017700Y0060945D02*
X0006600Y0060945D01*
X0006600Y0059346D02*
X0017669Y0059346D01*
X0017200Y0057748D02*
X0006600Y0057748D01*
X0006600Y0056149D02*
X0017200Y0056149D01*
X0017200Y0054551D02*
X0006600Y0054551D01*
X0006600Y0052952D02*
X0017200Y0052952D01*
X0017200Y0051354D02*
X0006600Y0051354D01*
X0006600Y0049755D02*
X0017461Y0049755D01*
X0018438Y0048157D02*
X0006600Y0048157D01*
X0006600Y0036967D02*
X0014975Y0036967D01*
X0012171Y0035369D02*
X0006600Y0035369D01*
X0006600Y0033770D02*
X0010166Y0033770D01*
X0008765Y0032172D02*
X0006600Y0032172D01*
X0006600Y0030573D02*
X0007675Y0030573D01*
X0006628Y0028975D02*
X0006600Y0028975D01*
X0036783Y0028975D02*
X0042469Y0028975D01*
X0042200Y0027376D02*
X0037553Y0027376D01*
X0038000Y0025778D02*
X0042200Y0025778D01*
X0042915Y0024179D02*
X0038241Y0024179D01*
X0033321Y0009793D02*
X0240213Y0009793D01*
X0242217Y0008194D02*
X0031458Y0008194D01*
X0076600Y0020982D02*
X0077000Y0020982D01*
X0126005Y0019384D02*
X0147595Y0019384D01*
X0147000Y0017785D02*
X0126600Y0017785D01*
X0126600Y0016187D02*
X0147000Y0016187D01*
X0147224Y0014588D02*
X0126376Y0014588D01*
X0151600Y0014588D02*
X0152000Y0014588D01*
X0152000Y0016187D02*
X0151600Y0016187D01*
X0151600Y0017785D02*
X0152000Y0017785D01*
X0152000Y0019384D02*
X0151600Y0019384D01*
X0151600Y0020982D02*
X0152000Y0020982D01*
X0154406Y0020982D02*
X0159194Y0020982D01*
X0159895Y0022200D02*
X0163705Y0022200D01*
X0166400Y0024895D01*
X0166400Y0028705D01*
X0163705Y0031400D01*
X0159895Y0031400D01*
X0157200Y0028705D01*
X0157200Y0024895D01*
X0159895Y0022200D01*
X0159514Y0022581D02*
X0154086Y0022581D01*
X0155685Y0024179D02*
X0157915Y0024179D01*
X0157200Y0025778D02*
X0156400Y0025778D01*
X0156400Y0027376D02*
X0157200Y0027376D01*
X0157469Y0028975D02*
X0156131Y0028975D01*
X0154532Y0030573D02*
X0159068Y0030573D01*
X0159895Y0032200D02*
X0163705Y0032200D01*
X0166400Y0034895D01*
X0166400Y0038705D01*
X0163705Y0041400D01*
X0159895Y0041400D01*
X0157200Y0038705D01*
X0157200Y0034895D01*
X0159895Y0032200D01*
X0158324Y0033770D02*
X0155276Y0033770D01*
X0156400Y0035369D02*
X0157200Y0035369D01*
X0157200Y0036967D02*
X0156400Y0036967D01*
X0156400Y0038566D02*
X0157200Y0038566D01*
X0158659Y0040164D02*
X0154941Y0040164D01*
X0164941Y0040164D02*
X0168659Y0040164D01*
X0169895Y0041400D02*
X0167200Y0038705D01*
X0167200Y0034895D01*
X0169895Y0032200D01*
X0173705Y0032200D01*
X0176400Y0034895D01*
X0176400Y0038705D01*
X0173705Y0041400D01*
X0169895Y0041400D01*
X0167200Y0038566D02*
X0166400Y0038566D01*
X0166400Y0036967D02*
X0167200Y0036967D01*
X0167200Y0035369D02*
X0166400Y0035369D01*
X0165276Y0033770D02*
X0168324Y0033770D01*
X0169895Y0031400D02*
X0167200Y0028705D01*
X0167200Y0024895D01*
X0169895Y0022200D01*
X0173705Y0022200D01*
X0176400Y0024895D01*
X0176400Y0028705D01*
X0173705Y0031400D01*
X0169895Y0031400D01*
X0169068Y0030573D02*
X0164532Y0030573D01*
X0166131Y0028975D02*
X0167469Y0028975D01*
X0167200Y0027376D02*
X0166400Y0027376D01*
X0166400Y0025778D02*
X0167200Y0025778D01*
X0167915Y0024179D02*
X0165685Y0024179D01*
X0164086Y0022581D02*
X0169514Y0022581D01*
X0169194Y0020982D02*
X0164406Y0020982D01*
X0162000Y0020982D02*
X0161600Y0020982D01*
X0161600Y0019384D02*
X0162000Y0019384D01*
X0162000Y0017785D02*
X0161600Y0017785D01*
X0161600Y0016187D02*
X0162000Y0016187D01*
X0162000Y0014588D02*
X0161600Y0014588D01*
X0157224Y0014588D02*
X0156376Y0014588D01*
X0156600Y0016187D02*
X0157000Y0016187D01*
X0157000Y0017785D02*
X0156600Y0017785D01*
X0156005Y0019384D02*
X0157595Y0019384D01*
X0166005Y0019384D02*
X0167595Y0019384D01*
X0167000Y0017785D02*
X0166600Y0017785D01*
X0166600Y0016187D02*
X0167000Y0016187D01*
X0167224Y0014588D02*
X0166376Y0014588D01*
X0171600Y0014588D02*
X0172000Y0014588D01*
X0172000Y0016187D02*
X0171600Y0016187D01*
X0171600Y0017785D02*
X0172000Y0017785D01*
X0172000Y0019384D02*
X0171600Y0019384D01*
X0171600Y0020982D02*
X0172000Y0020982D01*
X0174406Y0020982D02*
X0179194Y0020982D01*
X0179895Y0022200D02*
X0183705Y0022200D01*
X0186400Y0024895D01*
X0186400Y0028705D01*
X0183705Y0031400D01*
X0179895Y0031400D01*
X0177200Y0028705D01*
X0177200Y0024895D01*
X0179895Y0022200D01*
X0179514Y0022581D02*
X0174086Y0022581D01*
X0175685Y0024179D02*
X0177915Y0024179D01*
X0177200Y0025778D02*
X0176400Y0025778D01*
X0176400Y0027376D02*
X0177200Y0027376D01*
X0177469Y0028975D02*
X0176131Y0028975D01*
X0174532Y0030573D02*
X0179068Y0030573D01*
X0179895Y0032200D02*
X0183705Y0032200D01*
X0186400Y0034895D01*
X0186400Y0038705D01*
X0183705Y0041400D01*
X0179895Y0041400D01*
X0177200Y0038705D01*
X0177200Y0034895D01*
X0179895Y0032200D01*
X0178324Y0033770D02*
X0175276Y0033770D01*
X0176400Y0035369D02*
X0177200Y0035369D01*
X0177200Y0036967D02*
X0176400Y0036967D01*
X0176400Y0038566D02*
X0177200Y0038566D01*
X0178659Y0040164D02*
X0174941Y0040164D01*
X0184941Y0040164D02*
X0193659Y0040164D01*
X0194895Y0041400D02*
X0192200Y0038705D01*
X0192200Y0034895D01*
X0194895Y0032200D01*
X0198705Y0032200D01*
X0201400Y0034895D01*
X0201400Y0038705D01*
X0198705Y0041400D01*
X0194895Y0041400D01*
X0192200Y0038566D02*
X0186400Y0038566D01*
X0186400Y0036967D02*
X0192200Y0036967D01*
X0192200Y0035369D02*
X0186400Y0035369D01*
X0185276Y0033770D02*
X0193324Y0033770D01*
X0194895Y0031400D02*
X0192200Y0028705D01*
X0192200Y0024895D01*
X0194895Y0022200D01*
X0198705Y0022200D01*
X0201400Y0024895D01*
X0201400Y0028705D01*
X0198705Y0031400D01*
X0194895Y0031400D01*
X0194068Y0030573D02*
X0184532Y0030573D01*
X0186131Y0028975D02*
X0192469Y0028975D01*
X0192200Y0027376D02*
X0186400Y0027376D01*
X0186400Y0025778D02*
X0192200Y0025778D01*
X0192915Y0024179D02*
X0185685Y0024179D01*
X0184086Y0022581D02*
X0194514Y0022581D01*
X0194194Y0020982D02*
X0184406Y0020982D01*
X0182000Y0020982D02*
X0181600Y0020982D01*
X0181600Y0019384D02*
X0182000Y0019384D01*
X0182000Y0017785D02*
X0181600Y0017785D01*
X0181600Y0016187D02*
X0182000Y0016187D01*
X0182000Y0014588D02*
X0181600Y0014588D01*
X0186376Y0014588D02*
X0192224Y0014588D01*
X0192000Y0016187D02*
X0186600Y0016187D01*
X0186600Y0017785D02*
X0192000Y0017785D01*
X0192595Y0019384D02*
X0186005Y0019384D01*
X0177595Y0019384D02*
X0176005Y0019384D01*
X0176600Y0017785D02*
X0177000Y0017785D01*
X0177000Y0016187D02*
X0176600Y0016187D01*
X0176376Y0014588D02*
X0177224Y0014588D01*
X0196600Y0014588D02*
X0197000Y0014588D01*
X0197000Y0016187D02*
X0196600Y0016187D01*
X0196600Y0017785D02*
X0197000Y0017785D01*
X0197000Y0019384D02*
X0196600Y0019384D01*
X0201005Y0019384D02*
X0202595Y0019384D01*
X0202000Y0017785D02*
X0201600Y0017785D01*
X0201600Y0016187D02*
X0202000Y0016187D01*
X0202224Y0014588D02*
X0201376Y0014588D01*
X0206600Y0014588D02*
X0207000Y0014588D01*
X0207000Y0016187D02*
X0206600Y0016187D01*
X0206600Y0017785D02*
X0207000Y0017785D01*
X0207000Y0019384D02*
X0206600Y0019384D01*
X0206600Y0020982D02*
X0207000Y0020982D01*
X0208705Y0022200D02*
X0204895Y0022200D01*
X0202200Y0024895D01*
X0202200Y0028705D01*
X0204895Y0031400D01*
X0208705Y0031400D01*
X0211400Y0028705D01*
X0211400Y0024895D01*
X0208705Y0022200D01*
X0209086Y0022581D02*
X0214514Y0022581D01*
X0214895Y0022200D02*
X0218705Y0022200D01*
X0221400Y0024895D01*
X0221400Y0028705D01*
X0218705Y0031400D01*
X0214895Y0031400D01*
X0212200Y0028705D01*
X0212200Y0024895D01*
X0214895Y0022200D01*
X0214194Y0020982D02*
X0209406Y0020982D01*
X0204514Y0022581D02*
X0199086Y0022581D01*
X0199406Y0020982D02*
X0204194Y0020982D01*
X0202915Y0024179D02*
X0200685Y0024179D01*
X0201400Y0025778D02*
X0202200Y0025778D01*
X0202200Y0027376D02*
X0201400Y0027376D01*
X0201131Y0028975D02*
X0202469Y0028975D01*
X0204068Y0030573D02*
X0199532Y0030573D01*
X0200276Y0033770D02*
X0203324Y0033770D01*
X0202200Y0034895D02*
X0204895Y0032200D01*
X0208705Y0032200D01*
X0211400Y0034895D01*
X0211400Y0038705D01*
X0208705Y0041400D01*
X0204895Y0041400D01*
X0202200Y0038705D01*
X0202200Y0034895D01*
X0202200Y0035369D02*
X0201400Y0035369D01*
X0201400Y0036967D02*
X0202200Y0036967D01*
X0202200Y0038566D02*
X0201400Y0038566D01*
X0199941Y0040164D02*
X0203659Y0040164D01*
X0209941Y0040164D02*
X0213659Y0040164D01*
X0214895Y0041400D02*
X0212200Y0038705D01*
X0212200Y0034895D01*
X0214895Y0032200D01*
X0218705Y0032200D01*
X0221400Y0034895D01*
X0221400Y0038705D01*
X0218705Y0041400D01*
X0214895Y0041400D01*
X0212200Y0038566D02*
X0211400Y0038566D01*
X0211400Y0036967D02*
X0212200Y0036967D01*
X0212200Y0035369D02*
X0211400Y0035369D01*
X0210276Y0033770D02*
X0213324Y0033770D01*
X0214068Y0030573D02*
X0209532Y0030573D01*
X0211131Y0028975D02*
X0212469Y0028975D01*
X0212200Y0027376D02*
X0211400Y0027376D01*
X0211400Y0025778D02*
X0212200Y0025778D01*
X0212915Y0024179D02*
X0210685Y0024179D01*
X0216600Y0020982D02*
X0217000Y0020982D01*
X0219406Y0020982D02*
X0224194Y0020982D01*
X0224514Y0022581D02*
X0219086Y0022581D01*
X0220685Y0024179D02*
X0222915Y0024179D01*
X0222200Y0025778D02*
X0221400Y0025778D01*
X0221400Y0027376D02*
X0222200Y0027376D01*
X0222469Y0028975D02*
X0221131Y0028975D01*
X0219532Y0030573D02*
X0224068Y0030573D01*
X0223324Y0033770D02*
X0220276Y0033770D01*
X0221400Y0035369D02*
X0222200Y0035369D01*
X0222200Y0036967D02*
X0221400Y0036967D01*
X0221400Y0038566D02*
X0222200Y0038566D01*
X0223659Y0040164D02*
X0219941Y0040164D01*
X0219646Y0049800D02*
X0220330Y0049908D01*
X0220989Y0050122D01*
X0221606Y0050437D01*
X0222166Y0050844D01*
X0222656Y0051334D01*
X0223063Y0051894D01*
X0223378Y0052511D01*
X0223592Y0053170D01*
X0223700Y0053854D01*
X0223700Y0056800D01*
X0223700Y0059746D01*
X0223592Y0060430D01*
X0223378Y0061089D01*
X0223063Y0061706D01*
X0222656Y0062266D01*
X0222166Y0062756D01*
X0221606Y0063163D01*
X0220989Y0063478D01*
X0220330Y0063692D01*
X0219646Y0063800D01*
X0219300Y0063800D01*
X0219300Y0056800D01*
X0223700Y0056800D01*
X0219300Y0056800D01*
X0219300Y0056800D01*
X0219300Y0056800D01*
X0219300Y0049800D01*
X0219646Y0049800D01*
X0219300Y0049800D02*
X0219300Y0056800D01*
X0219300Y0056800D01*
X0219300Y0056800D01*
X0214900Y0056800D01*
X0214900Y0059746D01*
X0215008Y0060430D01*
X0215222Y0061089D01*
X0215537Y0061706D01*
X0215944Y0062266D01*
X0216434Y0062756D01*
X0216994Y0063163D01*
X0217611Y0063478D01*
X0218270Y0063692D01*
X0218954Y0063800D01*
X0219300Y0063800D01*
X0219300Y0056800D01*
X0214900Y0056800D01*
X0214900Y0053854D01*
X0215008Y0053170D01*
X0215222Y0052511D01*
X0215537Y0051894D01*
X0215944Y0051334D01*
X0216434Y0050844D01*
X0216994Y0050437D01*
X0217611Y0050122D01*
X0218270Y0049908D01*
X0218954Y0049800D01*
X0219300Y0049800D01*
X0219300Y0051354D02*
X0219300Y0051354D01*
X0219300Y0052952D02*
X0219300Y0052952D01*
X0219300Y0054551D02*
X0219300Y0054551D01*
X0219300Y0056149D02*
X0219300Y0056149D01*
X0219300Y0057748D02*
X0219300Y0057748D01*
X0219300Y0059346D02*
X0219300Y0059346D01*
X0219300Y0060945D02*
X0219300Y0060945D01*
X0223424Y0060945D02*
X0265701Y0060945D01*
X0265701Y0059346D02*
X0223700Y0059346D01*
X0223700Y0057748D02*
X0265701Y0057748D01*
X0265701Y0056149D02*
X0223700Y0056149D01*
X0223700Y0054551D02*
X0249378Y0054551D01*
X0246943Y0052952D02*
X0223521Y0052952D01*
X0222671Y0051354D02*
X0246027Y0051354D01*
X0259380Y0054551D02*
X0265701Y0054551D01*
X0265701Y0052952D02*
X0261814Y0052952D01*
X0262731Y0051354D02*
X0265701Y0051354D01*
X0265701Y0062543D02*
X0222379Y0062543D01*
X0219300Y0062543D02*
X0219300Y0062543D01*
X0216221Y0062543D02*
X0212096Y0062543D01*
X0211679Y0062961D02*
X0210135Y0063600D01*
X0208465Y0063600D01*
X0206921Y0062961D01*
X0205739Y0061779D01*
X0205100Y0060235D01*
X0205100Y0053365D01*
X0205739Y0051821D01*
X0206921Y0050639D01*
X0208465Y0050000D01*
X0210135Y0050000D01*
X0211679Y0050639D01*
X0212861Y0051821D01*
X0213500Y0053365D01*
X0213500Y0060235D01*
X0212861Y0061779D01*
X0211679Y0062961D01*
X0213206Y0060945D02*
X0215176Y0060945D01*
X0214900Y0059346D02*
X0213500Y0059346D01*
X0213500Y0057748D02*
X0214900Y0057748D01*
X0214900Y0056149D02*
X0213500Y0056149D01*
X0213500Y0054551D02*
X0214900Y0054551D01*
X0215079Y0052952D02*
X0213329Y0052952D01*
X0212394Y0051354D02*
X0215929Y0051354D01*
X0206206Y0051354D02*
X0202394Y0051354D01*
X0202861Y0051821D02*
X0203500Y0053365D01*
X0203500Y0060235D01*
X0202861Y0061779D01*
X0201679Y0062961D01*
X0200135Y0063600D01*
X0198465Y0063600D01*
X0196921Y0062961D01*
X0195739Y0061779D01*
X0195100Y0060235D01*
X0195100Y0053365D01*
X0195739Y0051821D01*
X0196921Y0050639D01*
X0198465Y0050000D01*
X0200135Y0050000D01*
X0201679Y0050639D01*
X0202861Y0051821D01*
X0203329Y0052952D02*
X0205271Y0052952D01*
X0205100Y0054551D02*
X0203500Y0054551D01*
X0203500Y0056149D02*
X0205100Y0056149D01*
X0205100Y0057748D02*
X0203500Y0057748D01*
X0203500Y0059346D02*
X0205100Y0059346D01*
X0205394Y0060945D02*
X0203206Y0060945D01*
X0202096Y0062543D02*
X0206504Y0062543D01*
X0196504Y0062543D02*
X0192096Y0062543D01*
X0191679Y0062961D02*
X0190135Y0063600D01*
X0188465Y0063600D01*
X0186921Y0062961D01*
X0185739Y0061779D01*
X0185100Y0060235D01*
X0185100Y0053365D01*
X0185739Y0051821D01*
X0186921Y0050639D01*
X0188465Y0050000D01*
X0190135Y0050000D01*
X0191679Y0050639D01*
X0192861Y0051821D01*
X0193500Y0053365D01*
X0193500Y0060235D01*
X0192861Y0061779D01*
X0191679Y0062961D01*
X0193206Y0060945D02*
X0195394Y0060945D01*
X0195100Y0059346D02*
X0193500Y0059346D01*
X0193500Y0057748D02*
X0195100Y0057748D01*
X0195100Y0056149D02*
X0193500Y0056149D01*
X0193500Y0054551D02*
X0195100Y0054551D01*
X0195271Y0052952D02*
X0193329Y0052952D01*
X0192394Y0051354D02*
X0196206Y0051354D01*
X0186206Y0051354D02*
X0182394Y0051354D01*
X0182861Y0051821D02*
X0183500Y0053365D01*
X0183500Y0060235D01*
X0182861Y0061779D01*
X0181679Y0062961D01*
X0180135Y0063600D01*
X0178465Y0063600D01*
X0176921Y0062961D01*
X0175739Y0061779D01*
X0175100Y0060235D01*
X0175100Y0053365D01*
X0175739Y0051821D01*
X0176921Y0050639D01*
X0178465Y0050000D01*
X0180135Y0050000D01*
X0181679Y0050639D01*
X0182861Y0051821D01*
X0183329Y0052952D02*
X0185271Y0052952D01*
X0185100Y0054551D02*
X0183500Y0054551D01*
X0183500Y0056149D02*
X0185100Y0056149D01*
X0185100Y0057748D02*
X0183500Y0057748D01*
X0183500Y0059346D02*
X0185100Y0059346D01*
X0185394Y0060945D02*
X0183206Y0060945D01*
X0182096Y0062543D02*
X0186504Y0062543D01*
X0176504Y0062543D02*
X0172096Y0062543D01*
X0171679Y0062961D02*
X0170135Y0063600D01*
X0168465Y0063600D01*
X0166921Y0062961D01*
X0165739Y0061779D01*
X0165100Y0060235D01*
X0165100Y0053365D01*
X0165739Y0051821D01*
X0166921Y0050639D01*
X0168465Y0050000D01*
X0170135Y0050000D01*
X0171679Y0050639D01*
X0172861Y0051821D01*
X0173500Y0053365D01*
X0173500Y0060235D01*
X0172861Y0061779D01*
X0171679Y0062961D01*
X0173206Y0060945D02*
X0175394Y0060945D01*
X0175100Y0059346D02*
X0173500Y0059346D01*
X0173500Y0057748D02*
X0175100Y0057748D01*
X0175100Y0056149D02*
X0173500Y0056149D01*
X0173500Y0054551D02*
X0175100Y0054551D01*
X0175271Y0052952D02*
X0173329Y0052952D01*
X0172394Y0051354D02*
X0176206Y0051354D01*
X0166206Y0051354D02*
X0162394Y0051354D01*
X0162861Y0051821D02*
X0163500Y0053365D01*
X0163500Y0060235D01*
X0162861Y0061779D01*
X0161679Y0062961D01*
X0160135Y0063600D01*
X0158465Y0063600D01*
X0156921Y0062961D01*
X0155739Y0061779D01*
X0155100Y0060235D01*
X0155100Y0053365D01*
X0155739Y0051821D01*
X0156921Y0050639D01*
X0158465Y0050000D01*
X0160135Y0050000D01*
X0161679Y0050639D01*
X0162861Y0051821D01*
X0163329Y0052952D02*
X0165271Y0052952D01*
X0165100Y0054551D02*
X0163500Y0054551D01*
X0163500Y0056149D02*
X0165100Y0056149D01*
X0165100Y0057748D02*
X0163500Y0057748D01*
X0163500Y0059346D02*
X0165100Y0059346D01*
X0165394Y0060945D02*
X0163206Y0060945D01*
X0162096Y0062543D02*
X0166504Y0062543D01*
X0165200Y0064142D02*
X0249497Y0064142D01*
X0249607Y0064106D02*
X0248810Y0064365D01*
X0248063Y0064746D01*
X0247385Y0065238D01*
X0246792Y0065831D01*
X0246299Y0066509D01*
X0245919Y0067256D01*
X0245660Y0068053D01*
X0245529Y0068881D01*
X0245529Y0068925D01*
X0254004Y0068925D01*
X0254754Y0068925D01*
X0254754Y0069675D01*
X0263229Y0069675D01*
X0263229Y0069719D01*
X0263098Y0070547D01*
X0262839Y0071344D01*
X0262458Y0072091D01*
X0261965Y0072769D01*
X0261373Y0073362D01*
X0260695Y0073854D01*
X0259948Y0074235D01*
X0259151Y0074494D01*
X0258323Y0074625D01*
X0254754Y0074625D01*
X0254754Y0069675D01*
X0254004Y0069675D01*
X0254004Y0074625D01*
X0250435Y0074625D01*
X0249607Y0074494D01*
X0248810Y0074235D01*
X0248063Y0073854D01*
X0247385Y0073362D01*
X0246792Y0072769D01*
X0246299Y0072091D01*
X0245919Y0071344D01*
X0245660Y0070547D01*
X0245529Y0069719D01*
X0245529Y0069675D01*
X0254004Y0069675D01*
X0254004Y0068925D01*
X0254004Y0063975D01*
X0250435Y0063975D01*
X0249607Y0064106D01*
X0246883Y0065740D02*
X0167200Y0065740D01*
X0168799Y0067339D02*
X0245892Y0067339D01*
X0245658Y0070536D02*
X0171996Y0070536D01*
X0170397Y0068937D02*
X0254004Y0068937D01*
X0254754Y0068937D02*
X0265701Y0068937D01*
X0265701Y0067339D02*
X0262866Y0067339D01*
X0262839Y0067256D02*
X0263098Y0068053D01*
X0263229Y0068881D01*
X0263229Y0068925D01*
X0254754Y0068925D01*
X0254754Y0063975D01*
X0258323Y0063975D01*
X0259151Y0064106D01*
X0259948Y0064365D01*
X0260695Y0064746D01*
X0261373Y0065238D01*
X0261965Y0065831D01*
X0262458Y0066509D01*
X0262839Y0067256D01*
X0261875Y0065740D02*
X0265701Y0065740D01*
X0265701Y0064142D02*
X0259261Y0064142D01*
X0254754Y0064142D02*
X0254004Y0064142D01*
X0254004Y0065740D02*
X0254754Y0065740D01*
X0254754Y0067339D02*
X0254004Y0067339D01*
X0254004Y0070536D02*
X0254754Y0070536D01*
X0254754Y0072134D02*
X0254004Y0072134D01*
X0254004Y0073733D02*
X0254754Y0073733D01*
X0260862Y0073733D02*
X0265701Y0073733D01*
X0265701Y0072134D02*
X0262426Y0072134D01*
X0263099Y0070536D02*
X0265701Y0070536D01*
X0265701Y0075332D02*
X0176791Y0075332D01*
X0178390Y0076930D02*
X0265701Y0076930D01*
X0265701Y0078529D02*
X0179988Y0078529D01*
X0181587Y0080127D02*
X0188158Y0080127D01*
X0188465Y0080000D02*
X0190135Y0080000D01*
X0191679Y0080639D01*
X0192861Y0081821D01*
X0193500Y0083365D01*
X0193500Y0090235D01*
X0192861Y0091779D01*
X0191679Y0092961D01*
X0190135Y0093600D01*
X0188465Y0093600D01*
X0186921Y0092961D01*
X0185739Y0091779D01*
X0185100Y0090235D01*
X0185100Y0083365D01*
X0185739Y0081821D01*
X0186921Y0080639D01*
X0188465Y0080000D01*
X0190442Y0080127D02*
X0198158Y0080127D01*
X0198465Y0080000D02*
X0200135Y0080000D01*
X0201679Y0080639D01*
X0202861Y0081821D01*
X0203500Y0083365D01*
X0203500Y0090235D01*
X0202861Y0091779D01*
X0201679Y0092961D01*
X0200135Y0093600D01*
X0198465Y0093600D01*
X0196921Y0092961D01*
X0195739Y0091779D01*
X0195100Y0090235D01*
X0195100Y0083365D01*
X0195739Y0081821D01*
X0196921Y0080639D01*
X0198465Y0080000D01*
X0200442Y0080127D02*
X0208158Y0080127D01*
X0208465Y0080000D02*
X0210135Y0080000D01*
X0211679Y0080639D01*
X0212861Y0081821D01*
X0213500Y0083365D01*
X0213500Y0090235D01*
X0212861Y0091779D01*
X0211679Y0092961D01*
X0210135Y0093600D01*
X0208465Y0093600D01*
X0206921Y0092961D01*
X0205739Y0091779D01*
X0205100Y0090235D01*
X0205100Y0083365D01*
X0205739Y0081821D01*
X0206921Y0080639D01*
X0208465Y0080000D01*
X0210442Y0080127D02*
X0218158Y0080127D01*
X0218465Y0080000D02*
X0216921Y0080639D01*
X0215739Y0081821D01*
X0215100Y0083365D01*
X0215100Y0090235D01*
X0215739Y0091779D01*
X0216921Y0092961D01*
X0218465Y0093600D01*
X0220135Y0093600D01*
X0221679Y0092961D01*
X0222861Y0091779D01*
X0223500Y0090235D01*
X0223500Y0083365D01*
X0222861Y0081821D01*
X0221679Y0080639D01*
X0220135Y0080000D01*
X0218465Y0080000D01*
X0220442Y0080127D02*
X0265701Y0080127D01*
X0265701Y0081726D02*
X0222765Y0081726D01*
X0223483Y0083324D02*
X0265701Y0083324D01*
X0265701Y0084923D02*
X0261089Y0084923D01*
X0260807Y0084640D02*
X0258923Y0083860D01*
X0249834Y0083860D01*
X0247951Y0084640D01*
X0246509Y0086082D01*
X0245729Y0087966D01*
X0245729Y0090004D01*
X0246509Y0091888D01*
X0247951Y0093330D01*
X0249834Y0094110D01*
X0258923Y0094110D01*
X0260807Y0093330D01*
X0262248Y0091888D01*
X0263029Y0090004D01*
X0263029Y0087966D01*
X0262248Y0086082D01*
X0260807Y0084640D01*
X0262430Y0086521D02*
X0265701Y0086521D01*
X0265701Y0088120D02*
X0263029Y0088120D01*
X0263029Y0089718D02*
X0265701Y0089718D01*
X0265701Y0091317D02*
X0262485Y0091317D01*
X0261221Y0092915D02*
X0265701Y0092915D01*
X0265701Y0094514D02*
X0188473Y0094514D01*
X0188386Y0094426D02*
X0189174Y0095214D01*
X0208474Y0114515D01*
X0209406Y0114900D01*
X0210700Y0116194D01*
X0211400Y0117885D01*
X0211400Y0125715D01*
X0210700Y0127406D01*
X0209406Y0128700D01*
X0207715Y0129400D01*
X0205885Y0129400D01*
X0204194Y0128700D01*
X0202900Y0127406D01*
X0202200Y0125715D01*
X0202200Y0117885D01*
X0202705Y0116665D01*
X0185640Y0099600D01*
X0128743Y0099600D01*
X0127714Y0099174D01*
X0122714Y0094174D01*
X0121926Y0093386D01*
X0121629Y0092669D01*
X0120739Y0091779D01*
X0120100Y0090235D01*
X0120100Y0083365D01*
X0120739Y0081821D01*
X0121921Y0080639D01*
X0123465Y0080000D01*
X0125135Y0080000D01*
X0126679Y0080639D01*
X0127861Y0081821D01*
X0128500Y0083365D01*
X0128500Y0090235D01*
X0127971Y0091512D01*
X0130460Y0094000D01*
X0187357Y0094000D01*
X0188386Y0094426D01*
X0186875Y0092915D02*
X0181725Y0092915D01*
X0183052Y0091317D02*
X0185548Y0091317D01*
X0185100Y0089718D02*
X0183500Y0089718D01*
X0183500Y0088120D02*
X0185100Y0088120D01*
X0185100Y0086521D02*
X0183500Y0086521D01*
X0183500Y0084923D02*
X0185100Y0084923D01*
X0185117Y0083324D02*
X0183483Y0083324D01*
X0182765Y0081726D02*
X0185835Y0081726D01*
X0192765Y0081726D02*
X0195835Y0081726D01*
X0195117Y0083324D02*
X0193483Y0083324D01*
X0193500Y0084923D02*
X0195100Y0084923D01*
X0195100Y0086521D02*
X0193500Y0086521D01*
X0193500Y0088120D02*
X0195100Y0088120D01*
X0195100Y0089718D02*
X0193500Y0089718D01*
X0193052Y0091317D02*
X0195548Y0091317D01*
X0196875Y0092915D02*
X0191725Y0092915D01*
X0190072Y0096112D02*
X0265701Y0096112D01*
X0265701Y0097711D02*
X0191670Y0097711D01*
X0193269Y0099309D02*
X0265701Y0099309D01*
X0265701Y0100908D02*
X0256827Y0100908D01*
X0260267Y0102506D02*
X0265701Y0102506D01*
X0265701Y0104105D02*
X0262682Y0104105D01*
X0264166Y0105703D02*
X0265701Y0105703D01*
X0265649Y0107302D02*
X0265701Y0107302D01*
X0246822Y0100908D02*
X0194867Y0100908D01*
X0196466Y0102506D02*
X0243080Y0102506D01*
X0241075Y0104105D02*
X0198065Y0104105D01*
X0199663Y0105703D02*
X0239260Y0105703D01*
X0238170Y0107302D02*
X0201262Y0107302D01*
X0202860Y0108900D02*
X0237080Y0108900D01*
X0236359Y0110499D02*
X0204459Y0110499D01*
X0206057Y0112097D02*
X0235866Y0112097D01*
X0235373Y0113696D02*
X0207656Y0113696D01*
X0209800Y0115294D02*
X0213800Y0115294D01*
X0214194Y0114900D02*
X0212900Y0116194D01*
X0212200Y0117885D01*
X0212200Y0125715D01*
X0212900Y0127406D01*
X0214194Y0128700D01*
X0215885Y0129400D01*
X0217715Y0129400D01*
X0219406Y0128700D01*
X0220700Y0127406D01*
X0221400Y0125715D01*
X0221400Y0117885D01*
X0220700Y0116194D01*
X0219406Y0114900D01*
X0217715Y0114200D01*
X0215885Y0114200D01*
X0214194Y0114900D01*
X0212611Y0116893D02*
X0210989Y0116893D01*
X0211400Y0118491D02*
X0212200Y0118491D01*
X0212200Y0120090D02*
X0211400Y0120090D01*
X0211400Y0121688D02*
X0212200Y0121688D01*
X0212200Y0123287D02*
X0211400Y0123287D01*
X0211400Y0124885D02*
X0212200Y0124885D01*
X0212518Y0126484D02*
X0211082Y0126484D01*
X0210023Y0128082D02*
X0213577Y0128082D01*
X0220023Y0128082D02*
X0239386Y0128082D01*
X0238296Y0126484D02*
X0221082Y0126484D01*
X0221400Y0124885D02*
X0237207Y0124885D01*
X0236416Y0123287D02*
X0221400Y0123287D01*
X0221400Y0121688D02*
X0235923Y0121688D01*
X0235430Y0120090D02*
X0221400Y0120090D01*
X0221400Y0118491D02*
X0235188Y0118491D01*
X0235188Y0116893D02*
X0220989Y0116893D01*
X0219800Y0115294D02*
X0235188Y0115294D01*
X0241308Y0129681D02*
X0032510Y0129681D01*
X0033993Y0128082D02*
X0053294Y0128082D01*
X0052300Y0126484D02*
X0035477Y0126484D01*
X0036345Y0124885D02*
X0052000Y0124885D01*
X0056600Y0124885D02*
X0057000Y0124885D01*
X0057000Y0126484D02*
X0056600Y0126484D01*
X0056600Y0128082D02*
X0057000Y0128082D01*
X0057000Y0129600D02*
X0057000Y0122000D01*
X0061600Y0122000D01*
X0061600Y0125178D01*
X0061482Y0125924D01*
X0061248Y0126643D01*
X0060905Y0127316D01*
X0060461Y0127927D01*
X0059927Y0128461D01*
X0059316Y0128905D01*
X0058643Y0129248D01*
X0057924Y0129482D01*
X0057178Y0129600D01*
X0057000Y0129600D01*
X0060306Y0128082D02*
X0063577Y0128082D01*
X0062518Y0126484D02*
X0061300Y0126484D01*
X0061600Y0124885D02*
X0062200Y0124885D01*
X0062200Y0123287D02*
X0061600Y0123287D01*
X0062200Y0121688D02*
X0057000Y0121688D01*
X0056600Y0121688D02*
X0037863Y0121688D01*
X0038104Y0120090D02*
X0052000Y0120090D01*
X0052000Y0118491D02*
X0038345Y0118491D01*
X0038586Y0116893D02*
X0052385Y0116893D01*
X0053517Y0115294D02*
X0038373Y0115294D01*
X0038132Y0113696D02*
X0049736Y0113696D01*
X0048137Y0112097D02*
X0037891Y0112097D01*
X0037854Y0111848D02*
X0037854Y0111848D01*
X0037204Y0110499D02*
X0046539Y0110499D01*
X0044940Y0108900D02*
X0036434Y0108900D01*
X0035649Y0107302D02*
X0043342Y0107302D01*
X0041743Y0105703D02*
X0034166Y0105703D01*
X0032682Y0104105D02*
X0040145Y0104105D01*
X0038546Y0102506D02*
X0030267Y0102506D01*
X0026827Y0100908D02*
X0036948Y0100908D01*
X0035349Y0099309D02*
X0006600Y0099309D01*
X0006600Y0097711D02*
X0033751Y0097711D01*
X0032152Y0096112D02*
X0006600Y0096112D01*
X0006600Y0094514D02*
X0030554Y0094514D01*
X0028955Y0092915D02*
X0006600Y0092915D01*
X0006600Y0091317D02*
X0027357Y0091317D01*
X0025758Y0089718D02*
X0014844Y0089718D01*
X0013912Y0090650D02*
X0011800Y0090650D01*
X0011800Y0085550D01*
X0016900Y0085550D01*
X0016900Y0087662D01*
X0013912Y0090650D01*
X0011800Y0090650D02*
X0009688Y0090650D01*
X0006700Y0087662D01*
X0006700Y0085550D01*
X0011800Y0085550D01*
X0011800Y0085550D01*
X0011800Y0085550D01*
X0016900Y0085550D01*
X0016900Y0083438D01*
X0013912Y0080450D01*
X0011800Y0080450D01*
X0011800Y0085550D01*
X0011800Y0085550D01*
X0011800Y0085550D01*
X0011800Y0090650D01*
X0011800Y0089718D02*
X0011800Y0089718D01*
X0011800Y0088120D02*
X0011800Y0088120D01*
X0011800Y0086521D02*
X0011800Y0086521D01*
X0011800Y0085550D02*
X0006700Y0085550D01*
X0006700Y0083438D01*
X0009688Y0080450D01*
X0011800Y0080450D01*
X0011800Y0085550D01*
X0011800Y0084923D02*
X0011800Y0084923D01*
X0011800Y0083324D02*
X0011800Y0083324D01*
X0016787Y0083324D02*
X0019364Y0083324D01*
X0020963Y0084923D02*
X0016900Y0084923D01*
X0016900Y0086521D02*
X0022561Y0086521D01*
X0024160Y0088120D02*
X0016443Y0088120D01*
X0008756Y0089718D02*
X0006600Y0089718D01*
X0006600Y0088120D02*
X0007157Y0088120D01*
X0006700Y0086521D02*
X0006600Y0086521D01*
X0006600Y0084923D02*
X0006700Y0084923D01*
X0006600Y0083324D02*
X0006813Y0083324D01*
X0006600Y0081726D02*
X0008412Y0081726D01*
X0006600Y0080127D02*
X0016167Y0080127D01*
X0015188Y0081726D02*
X0017766Y0081726D01*
X0014569Y0078529D02*
X0006600Y0078529D01*
X0006600Y0076930D02*
X0012970Y0076930D01*
X0008402Y0075332D02*
X0006600Y0075332D01*
X0006600Y0073733D02*
X0006900Y0073733D01*
X0006900Y0072134D02*
X0006600Y0072134D01*
X0006600Y0070536D02*
X0006900Y0070536D01*
X0006600Y0068937D02*
X0007733Y0068937D01*
X0006600Y0067339D02*
X0009331Y0067339D01*
X0006600Y0065740D02*
X0017700Y0065740D01*
X0017700Y0064142D02*
X0006600Y0064142D01*
X0006600Y0062543D02*
X0017700Y0062543D01*
X0017700Y0067339D02*
X0014269Y0067339D01*
X0015867Y0068937D02*
X0017700Y0068937D01*
X0017700Y0070536D02*
X0016700Y0070536D01*
X0016700Y0072134D02*
X0017700Y0072134D01*
X0017693Y0073733D02*
X0018163Y0073733D01*
X0019291Y0075332D02*
X0019533Y0075332D01*
X0020890Y0076930D02*
X0021132Y0076930D01*
X0022488Y0078529D02*
X0022730Y0078529D01*
X0024087Y0080127D02*
X0024329Y0080127D01*
X0025685Y0081726D02*
X0025927Y0081726D01*
X0027284Y0083324D02*
X0027526Y0083324D01*
X0028882Y0084923D02*
X0029124Y0084923D01*
X0030481Y0086521D02*
X0030723Y0086521D01*
X0032079Y0088120D02*
X0032321Y0088120D01*
X0033678Y0089718D02*
X0033920Y0089718D01*
X0035276Y0091317D02*
X0035518Y0091317D01*
X0036875Y0092915D02*
X0037117Y0092915D01*
X0038473Y0094514D02*
X0038715Y0094514D01*
X0040072Y0096112D02*
X0040314Y0096112D01*
X0041670Y0097711D02*
X0041912Y0097711D01*
X0043269Y0099309D02*
X0043511Y0099309D01*
X0044867Y0100908D02*
X0045109Y0100908D01*
X0046466Y0102506D02*
X0046708Y0102506D01*
X0048065Y0104105D02*
X0048306Y0104105D01*
X0049663Y0105703D02*
X0049905Y0105703D01*
X0051262Y0107302D02*
X0051503Y0107302D01*
X0052860Y0108900D02*
X0093102Y0108900D01*
X0094459Y0110499D02*
X0094701Y0110499D01*
X0096057Y0112097D02*
X0096299Y0112097D01*
X0097656Y0113696D02*
X0097898Y0113696D01*
X0100989Y0116893D02*
X0101095Y0116893D01*
X0101400Y0118491D02*
X0102200Y0118491D01*
X0102200Y0120090D02*
X0101400Y0120090D01*
X0101400Y0121688D02*
X0102200Y0121688D01*
X0102200Y0123287D02*
X0101400Y0123287D01*
X0101400Y0124885D02*
X0102200Y0124885D01*
X0102518Y0126484D02*
X0101082Y0126484D01*
X0100023Y0128082D02*
X0103577Y0128082D01*
X0110023Y0128082D02*
X0126112Y0128082D01*
X0125711Y0128019D02*
X0124913Y0127760D01*
X0124167Y0127379D01*
X0123488Y0126887D01*
X0122896Y0126294D01*
X0122403Y0125616D01*
X0122023Y0124869D01*
X0121764Y0124072D01*
X0121632Y0123244D01*
X0121632Y0119675D01*
X0126582Y0119675D01*
X0126582Y0118925D01*
X0121632Y0118925D01*
X0121632Y0115356D01*
X0121764Y0114528D01*
X0122023Y0113731D01*
X0122403Y0112984D01*
X0122896Y0112306D01*
X0123102Y0112100D01*
X0121243Y0112100D01*
X0120214Y0111674D01*
X0119426Y0110886D01*
X0101926Y0093386D01*
X0101629Y0092669D01*
X0100739Y0091779D01*
X0100100Y0090235D01*
X0100100Y0083365D01*
X0100739Y0081821D01*
X0101921Y0080639D01*
X0103465Y0080000D01*
X0105135Y0080000D01*
X0106679Y0080639D01*
X0107861Y0081821D01*
X0108500Y0083365D01*
X0108500Y0090235D01*
X0107971Y0091512D01*
X0122960Y0106500D01*
X0179857Y0106500D01*
X0180886Y0106926D01*
X0188386Y0114426D01*
X0188474Y0114515D01*
X0189406Y0114900D01*
X0190700Y0116194D01*
X0191400Y0117885D01*
X0191400Y0125715D01*
X0190700Y0127406D01*
X0189406Y0128700D01*
X0187715Y0129400D01*
X0185885Y0129400D01*
X0184194Y0128700D01*
X0182900Y0127406D01*
X0182200Y0125715D01*
X0182200Y0117885D01*
X0182705Y0116665D01*
X0178140Y0112100D01*
X0150215Y0112100D01*
X0150987Y0112872D01*
X0151768Y0114756D01*
X0151768Y0123844D01*
X0150987Y0125728D01*
X0149546Y0127170D01*
X0147662Y0127950D01*
X0145623Y0127950D01*
X0143739Y0127170D01*
X0142298Y0125728D01*
X0141518Y0123844D01*
X0141518Y0114756D01*
X0142298Y0112872D01*
X0143070Y0112100D01*
X0130813Y0112100D01*
X0131019Y0112306D01*
X0131512Y0112984D01*
X0131892Y0113731D01*
X0132151Y0114528D01*
X0132282Y0115356D01*
X0132282Y0118925D01*
X0127333Y0118925D01*
X0127333Y0119675D01*
X0132282Y0119675D01*
X0132282Y0123244D01*
X0132151Y0124072D01*
X0131892Y0124869D01*
X0131512Y0125616D01*
X0131019Y0126294D01*
X0130426Y0126887D01*
X0129748Y0127379D01*
X0129002Y0127760D01*
X0128204Y0128019D01*
X0127377Y0128150D01*
X0127332Y0128150D01*
X0127332Y0119675D01*
X0126582Y0119675D01*
X0126582Y0128150D01*
X0126538Y0128150D01*
X0125711Y0128019D01*
X0126582Y0128082D02*
X0127332Y0128082D01*
X0127803Y0128082D02*
X0163294Y0128082D01*
X0163139Y0127927D02*
X0162695Y0127316D01*
X0162352Y0126643D01*
X0162118Y0125924D01*
X0162000Y0125178D01*
X0162000Y0122000D01*
X0166600Y0122000D01*
X0166600Y0129600D01*
X0166422Y0129600D01*
X0165676Y0129482D01*
X0164957Y0129248D01*
X0164284Y0128905D01*
X0163673Y0128461D01*
X0163139Y0127927D01*
X0162300Y0126484D02*
X0150231Y0126484D01*
X0151336Y0124885D02*
X0162000Y0124885D01*
X0166600Y0124885D02*
X0167000Y0124885D01*
X0167000Y0126484D02*
X0166600Y0126484D01*
X0166600Y0128082D02*
X0167000Y0128082D01*
X0167000Y0129600D02*
X0167000Y0122000D01*
X0171600Y0122000D01*
X0171600Y0125178D01*
X0171482Y0125924D01*
X0171248Y0126643D01*
X0170905Y0127316D01*
X0170461Y0127927D01*
X0169927Y0128461D01*
X0169316Y0128905D01*
X0168643Y0129248D01*
X0167924Y0129482D01*
X0167178Y0129600D01*
X0167000Y0129600D01*
X0170306Y0128082D02*
X0173577Y0128082D01*
X0174194Y0128700D02*
X0172900Y0127406D01*
X0172200Y0125715D01*
X0172200Y0117885D01*
X0172900Y0116194D01*
X0174194Y0114900D01*
X0175885Y0114200D01*
X0177715Y0114200D01*
X0179406Y0114900D01*
X0180700Y0116194D01*
X0181400Y0117885D01*
X0181400Y0125715D01*
X0180700Y0127406D01*
X0179406Y0128700D01*
X0177715Y0129400D01*
X0175885Y0129400D01*
X0174194Y0128700D01*
X0172518Y0126484D02*
X0171300Y0126484D01*
X0171600Y0124885D02*
X0172200Y0124885D01*
X0172200Y0123287D02*
X0171600Y0123287D01*
X0171600Y0121600D02*
X0167000Y0121600D01*
X0167000Y0122000D01*
X0166600Y0122000D01*
X0166600Y0121600D01*
X0167000Y0121600D01*
X0167000Y0114000D01*
X0167178Y0114000D01*
X0167924Y0114118D01*
X0168643Y0114352D01*
X0169316Y0114695D01*
X0169927Y0115139D01*
X0170461Y0115673D01*
X0170905Y0116284D01*
X0171248Y0116957D01*
X0171482Y0117676D01*
X0171600Y0118422D01*
X0171600Y0121600D01*
X0172200Y0121688D02*
X0167000Y0121688D01*
X0166600Y0121688D02*
X0151768Y0121688D01*
X0151768Y0120090D02*
X0162000Y0120090D01*
X0162000Y0121600D02*
X0162000Y0118422D01*
X0162118Y0117676D01*
X0162352Y0116957D01*
X0162695Y0116284D01*
X0163139Y0115673D01*
X0163673Y0115139D01*
X0164284Y0114695D01*
X0164957Y0114352D01*
X0165676Y0114118D01*
X0166422Y0114000D01*
X0166600Y0114000D01*
X0166600Y0121600D01*
X0162000Y0121600D01*
X0162000Y0123287D02*
X0151768Y0123287D01*
X0151768Y0118491D02*
X0162000Y0118491D01*
X0162385Y0116893D02*
X0151768Y0116893D01*
X0151768Y0115294D02*
X0163517Y0115294D01*
X0166600Y0115294D02*
X0167000Y0115294D01*
X0167000Y0116893D02*
X0166600Y0116893D01*
X0166600Y0118491D02*
X0167000Y0118491D01*
X0167000Y0120090D02*
X0166600Y0120090D01*
X0166600Y0123287D02*
X0167000Y0123287D01*
X0171600Y0120090D02*
X0172200Y0120090D01*
X0172200Y0118491D02*
X0171600Y0118491D01*
X0171215Y0116893D02*
X0172611Y0116893D01*
X0173800Y0115294D02*
X0170083Y0115294D01*
X0179800Y0115294D02*
X0181335Y0115294D01*
X0180989Y0116893D02*
X0182611Y0116893D01*
X0182200Y0118491D02*
X0181400Y0118491D01*
X0181400Y0120090D02*
X0182200Y0120090D01*
X0182200Y0121688D02*
X0181400Y0121688D01*
X0181400Y0123287D02*
X0182200Y0123287D01*
X0182200Y0124885D02*
X0181400Y0124885D01*
X0181082Y0126484D02*
X0182518Y0126484D01*
X0183577Y0128082D02*
X0180023Y0128082D01*
X0190023Y0128082D02*
X0193577Y0128082D01*
X0194194Y0128700D02*
X0192900Y0127406D01*
X0192200Y0125715D01*
X0192200Y0117885D01*
X0192705Y0116665D01*
X0181890Y0105850D01*
X0124993Y0105850D01*
X0123964Y0105424D01*
X0123176Y0104636D01*
X0112714Y0094174D01*
X0111926Y0093386D01*
X0111629Y0092669D01*
X0110739Y0091779D01*
X0110100Y0090235D01*
X0110100Y0083365D01*
X0110739Y0081821D01*
X0111921Y0080639D01*
X0113465Y0080000D01*
X0115135Y0080000D01*
X0116679Y0080639D01*
X0117861Y0081821D01*
X0118500Y0083365D01*
X0118500Y0090235D01*
X0117971Y0091512D01*
X0126710Y0100250D01*
X0183607Y0100250D01*
X0184636Y0100676D01*
X0185424Y0101464D01*
X0198474Y0114515D01*
X0199406Y0114900D01*
X0200700Y0116194D01*
X0201400Y0117885D01*
X0201400Y0125715D01*
X0200700Y0127406D01*
X0199406Y0128700D01*
X0197715Y0129400D01*
X0195885Y0129400D01*
X0194194Y0128700D01*
X0192518Y0126484D02*
X0191082Y0126484D01*
X0191400Y0124885D02*
X0192200Y0124885D01*
X0192200Y0123287D02*
X0191400Y0123287D01*
X0191400Y0121688D02*
X0192200Y0121688D01*
X0192200Y0120090D02*
X0191400Y0120090D01*
X0191400Y0118491D02*
X0192200Y0118491D01*
X0192611Y0116893D02*
X0190989Y0116893D01*
X0191335Y0115294D02*
X0189800Y0115294D01*
X0189736Y0113696D02*
X0187656Y0113696D01*
X0188137Y0112097D02*
X0186057Y0112097D01*
X0186539Y0110499D02*
X0184459Y0110499D01*
X0184940Y0108900D02*
X0182860Y0108900D01*
X0183342Y0107302D02*
X0181262Y0107302D01*
X0188065Y0104105D02*
X0190145Y0104105D01*
X0189663Y0105703D02*
X0191743Y0105703D01*
X0191262Y0107302D02*
X0193342Y0107302D01*
X0192860Y0108900D02*
X0194940Y0108900D01*
X0194459Y0110499D02*
X0196539Y0110499D01*
X0196057Y0112097D02*
X0198137Y0112097D01*
X0197656Y0113696D02*
X0199736Y0113696D01*
X0199800Y0115294D02*
X0201335Y0115294D01*
X0200989Y0116893D02*
X0202611Y0116893D01*
X0202200Y0118491D02*
X0201400Y0118491D01*
X0201400Y0120090D02*
X0202200Y0120090D01*
X0202200Y0121688D02*
X0201400Y0121688D01*
X0201400Y0123287D02*
X0202200Y0123287D01*
X0202200Y0124885D02*
X0201400Y0124885D01*
X0201082Y0126484D02*
X0202518Y0126484D01*
X0203577Y0128082D02*
X0200023Y0128082D01*
X0179736Y0113696D02*
X0151329Y0113696D01*
X0141956Y0113696D02*
X0131874Y0113696D01*
X0132273Y0115294D02*
X0141518Y0115294D01*
X0141518Y0116893D02*
X0132282Y0116893D01*
X0132282Y0118491D02*
X0141518Y0118491D01*
X0141518Y0120090D02*
X0132282Y0120090D01*
X0132282Y0121688D02*
X0141518Y0121688D01*
X0141518Y0123287D02*
X0132276Y0123287D01*
X0131884Y0124885D02*
X0141949Y0124885D01*
X0143054Y0126484D02*
X0130829Y0126484D01*
X0127332Y0126484D02*
X0126582Y0126484D01*
X0126582Y0124885D02*
X0127332Y0124885D01*
X0123086Y0126484D02*
X0111082Y0126484D01*
X0111400Y0124885D02*
X0122031Y0124885D01*
X0121639Y0123287D02*
X0111400Y0123287D01*
X0111400Y0121688D02*
X0121632Y0121688D01*
X0121632Y0120090D02*
X0111400Y0120090D01*
X0111400Y0118491D02*
X0121632Y0118491D01*
X0121632Y0116893D02*
X0110989Y0116893D01*
X0110614Y0115294D02*
X0121642Y0115294D01*
X0122041Y0113696D02*
X0109494Y0113696D01*
X0107896Y0112097D02*
X0121237Y0112097D01*
X0119039Y0110499D02*
X0106297Y0110499D01*
X0104699Y0108900D02*
X0117440Y0108900D01*
X0115842Y0107302D02*
X0103100Y0107302D01*
X0101502Y0105703D02*
X0114243Y0105703D01*
X0112645Y0104105D02*
X0099903Y0104105D01*
X0098304Y0102506D02*
X0111046Y0102506D01*
X0109448Y0100908D02*
X0096706Y0100908D01*
X0092349Y0097711D02*
X0106251Y0097711D01*
X0107849Y0099309D02*
X0090559Y0099309D01*
X0093948Y0096112D02*
X0104652Y0096112D01*
X0103054Y0094514D02*
X0095546Y0094514D01*
X0096869Y0092915D02*
X0101731Y0092915D01*
X0100548Y0091317D02*
X0098052Y0091317D01*
X0098500Y0089718D02*
X0100100Y0089718D01*
X0100100Y0088120D02*
X0098500Y0088120D01*
X0098500Y0086521D02*
X0100100Y0086521D01*
X0100100Y0084923D02*
X0098500Y0084923D01*
X0098483Y0083324D02*
X0100117Y0083324D01*
X0100835Y0081726D02*
X0097765Y0081726D01*
X0095442Y0080127D02*
X0103158Y0080127D01*
X0105442Y0080127D02*
X0113158Y0080127D01*
X0115442Y0080127D02*
X0123158Y0080127D01*
X0125442Y0080127D02*
X0133158Y0080127D01*
X0133465Y0080000D02*
X0131921Y0080639D01*
X0130739Y0081821D01*
X0130100Y0083365D01*
X0130100Y0090235D01*
X0130739Y0091779D01*
X0131921Y0092961D01*
X0133465Y0093600D01*
X0135135Y0093600D01*
X0136679Y0092961D01*
X0137861Y0091779D01*
X0138500Y0090235D01*
X0138500Y0083365D01*
X0137861Y0081821D01*
X0136679Y0080639D01*
X0135135Y0080000D01*
X0133465Y0080000D01*
X0135442Y0080127D02*
X0141829Y0080127D01*
X0143427Y0081726D02*
X0137765Y0081726D01*
X0138483Y0083324D02*
X0145026Y0083324D01*
X0145100Y0084923D02*
X0138500Y0084923D01*
X0138500Y0086521D02*
X0145100Y0086521D01*
X0145100Y0088120D02*
X0138500Y0088120D01*
X0138500Y0089718D02*
X0145100Y0089718D01*
X0145548Y0091317D02*
X0138052Y0091317D01*
X0136725Y0092915D02*
X0146875Y0092915D01*
X0151725Y0092915D02*
X0156875Y0092915D01*
X0156921Y0092961D02*
X0155739Y0091779D01*
X0155100Y0090235D01*
X0155100Y0083365D01*
X0155739Y0081821D01*
X0156921Y0080639D01*
X0158465Y0080000D01*
X0160135Y0080000D01*
X0161679Y0080639D01*
X0162861Y0081821D01*
X0163500Y0083365D01*
X0163500Y0090235D01*
X0162861Y0091779D01*
X0161679Y0092961D01*
X0160135Y0093600D01*
X0158465Y0093600D01*
X0156921Y0092961D01*
X0155548Y0091317D02*
X0153052Y0091317D01*
X0153500Y0089718D02*
X0155100Y0089718D01*
X0155100Y0088120D02*
X0153500Y0088120D01*
X0153500Y0086521D02*
X0155100Y0086521D01*
X0155100Y0084923D02*
X0153500Y0084923D01*
X0153483Y0083324D02*
X0155117Y0083324D01*
X0155835Y0081726D02*
X0153400Y0081726D01*
X0153045Y0080127D02*
X0158158Y0080127D01*
X0160442Y0080127D02*
X0168158Y0080127D01*
X0168465Y0080000D02*
X0170135Y0080000D01*
X0171679Y0080639D01*
X0172861Y0081821D01*
X0173500Y0083365D01*
X0173500Y0090235D01*
X0172861Y0091779D01*
X0171679Y0092961D01*
X0170135Y0093600D01*
X0168465Y0093600D01*
X0166921Y0092961D01*
X0165739Y0091779D01*
X0165100Y0090235D01*
X0165100Y0083365D01*
X0165739Y0081821D01*
X0166921Y0080639D01*
X0168465Y0080000D01*
X0170442Y0080127D02*
X0173667Y0080127D01*
X0172765Y0081726D02*
X0175266Y0081726D01*
X0175117Y0083324D02*
X0173483Y0083324D01*
X0173500Y0084923D02*
X0175100Y0084923D01*
X0175100Y0086521D02*
X0173500Y0086521D01*
X0173500Y0088120D02*
X0175100Y0088120D01*
X0175100Y0089718D02*
X0173500Y0089718D01*
X0173052Y0091317D02*
X0175548Y0091317D01*
X0176875Y0092915D02*
X0171725Y0092915D01*
X0166875Y0092915D02*
X0161725Y0092915D01*
X0163052Y0091317D02*
X0165548Y0091317D01*
X0165100Y0089718D02*
X0163500Y0089718D01*
X0163500Y0088120D02*
X0165100Y0088120D01*
X0165100Y0086521D02*
X0163500Y0086521D01*
X0163500Y0084923D02*
X0165100Y0084923D01*
X0165117Y0083324D02*
X0163483Y0083324D01*
X0162765Y0081726D02*
X0165835Y0081726D01*
X0172069Y0078529D02*
X0151827Y0078529D01*
X0150228Y0076930D02*
X0170470Y0076930D01*
X0168872Y0075332D02*
X0148630Y0075332D01*
X0147031Y0073733D02*
X0167273Y0073733D01*
X0165675Y0072134D02*
X0145433Y0072134D01*
X0143427Y0070536D02*
X0164076Y0070536D01*
X0173594Y0072134D02*
X0246331Y0072134D01*
X0247896Y0073733D02*
X0175193Y0073733D01*
X0156504Y0062543D02*
X0152096Y0062543D01*
X0151679Y0062961D02*
X0150135Y0063600D01*
X0148465Y0063600D01*
X0146921Y0062961D01*
X0145739Y0061779D01*
X0145100Y0060235D01*
X0145100Y0053365D01*
X0145739Y0051821D01*
X0146921Y0050639D01*
X0148465Y0050000D01*
X0150135Y0050000D01*
X0151679Y0050639D01*
X0152861Y0051821D01*
X0153500Y0053365D01*
X0153500Y0060235D01*
X0152861Y0061779D01*
X0151679Y0062961D01*
X0153206Y0060945D02*
X0155394Y0060945D01*
X0155100Y0059346D02*
X0153500Y0059346D01*
X0153500Y0057748D02*
X0155100Y0057748D01*
X0155100Y0056149D02*
X0153500Y0056149D01*
X0153500Y0054551D02*
X0155100Y0054551D01*
X0155271Y0052952D02*
X0153329Y0052952D01*
X0152394Y0051354D02*
X0156206Y0051354D01*
X0146206Y0051354D02*
X0137671Y0051354D01*
X0137656Y0051334D02*
X0138063Y0051894D01*
X0138378Y0052511D01*
X0138592Y0053170D01*
X0138700Y0053854D01*
X0138700Y0056800D01*
X0138700Y0059746D01*
X0138592Y0060430D01*
X0138378Y0061089D01*
X0138063Y0061706D01*
X0137656Y0062266D01*
X0137166Y0062756D01*
X0136606Y0063163D01*
X0135989Y0063478D01*
X0135330Y0063692D01*
X0134646Y0063800D01*
X0134300Y0063800D01*
X0134300Y0056800D01*
X0138700Y0056800D01*
X0134300Y0056800D01*
X0134300Y0056800D01*
X0134300Y0056800D01*
X0134300Y0049800D01*
X0134646Y0049800D01*
X0135330Y0049908D01*
X0135989Y0050122D01*
X0136606Y0050437D01*
X0137166Y0050844D01*
X0137656Y0051334D01*
X0138521Y0052952D02*
X0145271Y0052952D01*
X0145100Y0054551D02*
X0138700Y0054551D01*
X0138700Y0056149D02*
X0145100Y0056149D01*
X0145100Y0057748D02*
X0138700Y0057748D01*
X0138700Y0059346D02*
X0145100Y0059346D01*
X0145394Y0060945D02*
X0138424Y0060945D01*
X0134300Y0060945D02*
X0134300Y0060945D01*
X0134300Y0059346D02*
X0134300Y0059346D01*
X0134300Y0057748D02*
X0134300Y0057748D01*
X0134300Y0056800D02*
X0134300Y0063800D01*
X0133954Y0063800D01*
X0133270Y0063692D01*
X0132611Y0063478D01*
X0131994Y0063163D01*
X0131434Y0062756D01*
X0130944Y0062266D01*
X0130537Y0061706D01*
X0130222Y0061089D01*
X0130008Y0060430D01*
X0129900Y0059746D01*
X0129900Y0056800D01*
X0134300Y0056800D01*
X0134300Y0056800D01*
X0134300Y0056800D01*
X0134300Y0049800D01*
X0133954Y0049800D01*
X0133270Y0049908D01*
X0132611Y0050122D01*
X0131994Y0050437D01*
X0131434Y0050844D01*
X0130944Y0051334D01*
X0130537Y0051894D01*
X0130222Y0052511D01*
X0130008Y0053170D01*
X0129900Y0053854D01*
X0129900Y0056800D01*
X0134300Y0056800D01*
X0134300Y0056149D02*
X0134300Y0056149D01*
X0134300Y0054551D02*
X0134300Y0054551D01*
X0134300Y0052952D02*
X0134300Y0052952D01*
X0134300Y0051354D02*
X0134300Y0051354D01*
X0130929Y0051354D02*
X0127394Y0051354D01*
X0127861Y0051821D02*
X0126679Y0050639D01*
X0125135Y0050000D01*
X0123465Y0050000D01*
X0121921Y0050639D01*
X0120739Y0051821D01*
X0120100Y0053365D01*
X0120100Y0060235D01*
X0120739Y0061779D01*
X0121921Y0062961D01*
X0123465Y0063600D01*
X0125135Y0063600D01*
X0126679Y0062961D01*
X0127861Y0061779D01*
X0128500Y0060235D01*
X0128500Y0053365D01*
X0127861Y0051821D01*
X0128329Y0052952D02*
X0130079Y0052952D01*
X0129900Y0054551D02*
X0128500Y0054551D01*
X0128500Y0056149D02*
X0129900Y0056149D01*
X0129900Y0057748D02*
X0128500Y0057748D01*
X0128500Y0059346D02*
X0129900Y0059346D01*
X0130176Y0060945D02*
X0128206Y0060945D01*
X0127096Y0062543D02*
X0131221Y0062543D01*
X0134300Y0062543D02*
X0134300Y0062543D01*
X0137379Y0062543D02*
X0146504Y0062543D01*
X0121504Y0062543D02*
X0117096Y0062543D01*
X0116679Y0062961D02*
X0115135Y0063600D01*
X0113465Y0063600D01*
X0111921Y0062961D01*
X0110739Y0061779D01*
X0110100Y0060235D01*
X0110100Y0053365D01*
X0110739Y0051821D01*
X0111921Y0050639D01*
X0113465Y0050000D01*
X0115135Y0050000D01*
X0116679Y0050639D01*
X0117861Y0051821D01*
X0118500Y0053365D01*
X0118500Y0060235D01*
X0117861Y0061779D01*
X0116679Y0062961D01*
X0118206Y0060945D02*
X0120394Y0060945D01*
X0120100Y0059346D02*
X0118500Y0059346D01*
X0118500Y0057748D02*
X0120100Y0057748D01*
X0120100Y0056149D02*
X0118500Y0056149D01*
X0118500Y0054551D02*
X0120100Y0054551D01*
X0120271Y0052952D02*
X0118329Y0052952D01*
X0117394Y0051354D02*
X0121206Y0051354D01*
X0111206Y0051354D02*
X0107394Y0051354D01*
X0107861Y0051821D02*
X0106679Y0050639D01*
X0105135Y0050000D01*
X0103465Y0050000D01*
X0101921Y0050639D01*
X0100739Y0051821D01*
X0100100Y0053365D01*
X0100100Y0060235D01*
X0100739Y0061779D01*
X0101921Y0062961D01*
X0103465Y0063600D01*
X0105135Y0063600D01*
X0106679Y0062961D01*
X0107861Y0061779D01*
X0108500Y0060235D01*
X0108500Y0053365D01*
X0107861Y0051821D01*
X0108329Y0052952D02*
X0110271Y0052952D01*
X0110100Y0054551D02*
X0108500Y0054551D01*
X0108500Y0056149D02*
X0110100Y0056149D01*
X0110100Y0057748D02*
X0108500Y0057748D01*
X0108500Y0059346D02*
X0110100Y0059346D01*
X0110394Y0060945D02*
X0108206Y0060945D01*
X0107096Y0062543D02*
X0111504Y0062543D01*
X0101504Y0062543D02*
X0097096Y0062543D01*
X0098206Y0060945D02*
X0100394Y0060945D01*
X0100100Y0059346D02*
X0098500Y0059346D01*
X0098500Y0057748D02*
X0100100Y0057748D01*
X0100100Y0056149D02*
X0098500Y0056149D01*
X0098500Y0054551D02*
X0100100Y0054551D01*
X0100271Y0052952D02*
X0098329Y0052952D01*
X0097394Y0051354D02*
X0101206Y0051354D01*
X0070173Y0070536D02*
X0069524Y0070536D01*
X0068167Y0072134D02*
X0067925Y0072134D01*
X0066569Y0073733D02*
X0066327Y0073733D01*
X0064970Y0075332D02*
X0064728Y0075332D01*
X0063372Y0076930D02*
X0063130Y0076930D01*
X0061773Y0078529D02*
X0061531Y0078529D01*
X0060555Y0080127D02*
X0059933Y0080127D01*
X0060200Y0081726D02*
X0058334Y0081726D01*
X0056736Y0083324D02*
X0060117Y0083324D01*
X0060100Y0084923D02*
X0056700Y0084923D01*
X0057981Y0086521D02*
X0060100Y0086521D01*
X0060100Y0088120D02*
X0059579Y0088120D01*
X0054857Y0091317D02*
X0047115Y0091317D01*
X0045516Y0089718D02*
X0049038Y0089718D01*
X0047440Y0088120D02*
X0043918Y0088120D01*
X0042319Y0086521D02*
X0046900Y0086521D01*
X0046900Y0084923D02*
X0040721Y0084923D01*
X0039122Y0083324D02*
X0047096Y0083324D01*
X0048695Y0081726D02*
X0037524Y0081726D01*
X0035925Y0080127D02*
X0052013Y0080127D01*
X0053612Y0078529D02*
X0034327Y0078529D01*
X0011800Y0081726D02*
X0011800Y0081726D01*
X0048713Y0092915D02*
X0056455Y0092915D01*
X0058054Y0094514D02*
X0050312Y0094514D01*
X0051910Y0096112D02*
X0059652Y0096112D01*
X0061251Y0097711D02*
X0053509Y0097711D01*
X0055107Y0099309D02*
X0063041Y0099309D01*
X0066725Y0092915D02*
X0071875Y0092915D01*
X0071921Y0092961D02*
X0070739Y0091779D01*
X0070100Y0090235D01*
X0070100Y0083365D01*
X0070739Y0081821D01*
X0071921Y0080639D01*
X0073465Y0080000D01*
X0075135Y0080000D01*
X0076679Y0080639D01*
X0077861Y0081821D01*
X0078500Y0083365D01*
X0078500Y0090235D01*
X0077861Y0091779D01*
X0076679Y0092961D01*
X0075135Y0093600D01*
X0073465Y0093600D01*
X0071921Y0092961D01*
X0070548Y0091317D02*
X0068052Y0091317D01*
X0068500Y0089718D02*
X0070100Y0089718D01*
X0070100Y0088120D02*
X0068500Y0088120D01*
X0068500Y0086521D02*
X0070100Y0086521D01*
X0070100Y0084923D02*
X0068500Y0084923D01*
X0068574Y0083324D02*
X0070117Y0083324D01*
X0070173Y0081726D02*
X0070835Y0081726D01*
X0071771Y0080127D02*
X0073158Y0080127D01*
X0073370Y0078529D02*
X0140230Y0078529D01*
X0130835Y0081726D02*
X0127765Y0081726D01*
X0128483Y0083324D02*
X0130117Y0083324D01*
X0130100Y0084923D02*
X0128500Y0084923D01*
X0128500Y0086521D02*
X0130100Y0086521D01*
X0130100Y0088120D02*
X0128500Y0088120D01*
X0128500Y0089718D02*
X0130100Y0089718D01*
X0130548Y0091317D02*
X0128052Y0091317D01*
X0129375Y0092915D02*
X0131875Y0092915D01*
X0126251Y0097711D02*
X0124170Y0097711D01*
X0124652Y0096112D02*
X0122572Y0096112D01*
X0123054Y0094514D02*
X0120973Y0094514D01*
X0121731Y0092915D02*
X0119375Y0092915D01*
X0120548Y0091317D02*
X0118052Y0091317D01*
X0118500Y0089718D02*
X0120100Y0089718D01*
X0120100Y0088120D02*
X0118500Y0088120D01*
X0118500Y0086521D02*
X0120100Y0086521D01*
X0120100Y0084923D02*
X0118500Y0084923D01*
X0118483Y0083324D02*
X0120117Y0083324D01*
X0120835Y0081726D02*
X0117765Y0081726D01*
X0110835Y0081726D02*
X0107765Y0081726D01*
X0108483Y0083324D02*
X0110117Y0083324D01*
X0110100Y0084923D02*
X0108500Y0084923D01*
X0108500Y0086521D02*
X0110100Y0086521D01*
X0110100Y0088120D02*
X0108500Y0088120D01*
X0108500Y0089718D02*
X0110100Y0089718D01*
X0110548Y0091317D02*
X0108052Y0091317D01*
X0109375Y0092915D02*
X0111731Y0092915D01*
X0112714Y0094174D02*
X0112714Y0094174D01*
X0113054Y0094514D02*
X0110973Y0094514D01*
X0112572Y0096112D02*
X0114652Y0096112D01*
X0114170Y0097711D02*
X0116251Y0097711D01*
X0115769Y0099309D02*
X0117849Y0099309D01*
X0117367Y0100908D02*
X0119448Y0100908D01*
X0118966Y0102506D02*
X0121046Y0102506D01*
X0120565Y0104105D02*
X0122645Y0104105D01*
X0123176Y0104636D02*
X0123176Y0104636D01*
X0122163Y0105703D02*
X0124639Y0105703D01*
X0125769Y0099309D02*
X0128041Y0099309D01*
X0092611Y0116893D02*
X0090989Y0116893D01*
X0091335Y0115294D02*
X0089800Y0115294D01*
X0091400Y0118491D02*
X0092200Y0118491D01*
X0092200Y0120090D02*
X0091400Y0120090D01*
X0091400Y0121688D02*
X0092200Y0121688D01*
X0092200Y0123287D02*
X0091400Y0123287D01*
X0091400Y0124885D02*
X0092200Y0124885D01*
X0092518Y0126484D02*
X0091082Y0126484D01*
X0090023Y0128082D02*
X0093577Y0128082D01*
X0083577Y0128082D02*
X0080023Y0128082D01*
X0081082Y0126484D02*
X0082518Y0126484D01*
X0082200Y0124885D02*
X0081400Y0124885D01*
X0081400Y0123287D02*
X0082200Y0123287D01*
X0082200Y0121688D02*
X0081400Y0121688D01*
X0081400Y0120090D02*
X0082200Y0120090D01*
X0082200Y0118491D02*
X0081400Y0118491D01*
X0080989Y0116893D02*
X0082611Y0116893D01*
X0083800Y0115294D02*
X0079800Y0115294D01*
X0073800Y0115294D02*
X0069800Y0115294D01*
X0070989Y0116893D02*
X0072611Y0116893D01*
X0072200Y0118491D02*
X0071400Y0118491D01*
X0071400Y0120090D02*
X0072200Y0120090D01*
X0072200Y0121688D02*
X0071400Y0121688D01*
X0071400Y0123287D02*
X0072200Y0123287D01*
X0072200Y0124885D02*
X0071400Y0124885D01*
X0071082Y0126484D02*
X0072518Y0126484D01*
X0073577Y0128082D02*
X0070023Y0128082D01*
X0057000Y0123287D02*
X0056600Y0123287D01*
X0052000Y0123287D02*
X0037114Y0123287D01*
X0029946Y0131279D02*
X0243312Y0131279D01*
X0188546Y0102506D02*
X0186466Y0102506D01*
X0186948Y0100908D02*
X0184867Y0100908D01*
X0201725Y0092915D02*
X0206875Y0092915D01*
X0205548Y0091317D02*
X0203052Y0091317D01*
X0203500Y0089718D02*
X0205100Y0089718D01*
X0205100Y0088120D02*
X0203500Y0088120D01*
X0203500Y0086521D02*
X0205100Y0086521D01*
X0205100Y0084923D02*
X0203500Y0084923D01*
X0203483Y0083324D02*
X0205117Y0083324D01*
X0205835Y0081726D02*
X0202765Y0081726D01*
X0212765Y0081726D02*
X0215835Y0081726D01*
X0215117Y0083324D02*
X0213483Y0083324D01*
X0213500Y0084923D02*
X0215100Y0084923D01*
X0215100Y0086521D02*
X0213500Y0086521D01*
X0213500Y0088120D02*
X0215100Y0088120D01*
X0215100Y0089718D02*
X0213500Y0089718D01*
X0213052Y0091317D02*
X0215548Y0091317D01*
X0216875Y0092915D02*
X0211725Y0092915D01*
X0221725Y0092915D02*
X0247536Y0092915D01*
X0246272Y0091317D02*
X0223052Y0091317D01*
X0223500Y0089718D02*
X0245729Y0089718D01*
X0245729Y0088120D02*
X0223500Y0088120D01*
X0223500Y0086521D02*
X0246327Y0086521D01*
X0247668Y0084923D02*
X0223500Y0084923D01*
X0127332Y0120090D02*
X0126582Y0120090D01*
X0126582Y0121688D02*
X0127332Y0121688D01*
X0127332Y0123287D02*
X0126582Y0123287D01*
X0089225Y0092915D02*
X0086725Y0092915D01*
X0086679Y0092961D02*
X0085135Y0093600D01*
X0083465Y0093600D01*
X0081921Y0092961D01*
X0080739Y0091779D01*
X0080100Y0090235D01*
X0080100Y0083365D01*
X0080739Y0081821D01*
X0081921Y0080639D01*
X0083465Y0080000D01*
X0085135Y0080000D01*
X0086679Y0080639D01*
X0087861Y0081821D01*
X0088500Y0083365D01*
X0088500Y0090235D01*
X0087861Y0091779D01*
X0086679Y0092961D01*
X0088052Y0091317D02*
X0090548Y0091317D01*
X0090100Y0089718D02*
X0088500Y0089718D01*
X0088500Y0088120D02*
X0090100Y0088120D01*
X0090100Y0086521D02*
X0088500Y0086521D01*
X0088500Y0084923D02*
X0090100Y0084923D01*
X0090117Y0083324D02*
X0088483Y0083324D01*
X0087765Y0081726D02*
X0090835Y0081726D01*
X0093158Y0080127D02*
X0085442Y0080127D01*
X0083158Y0080127D02*
X0075442Y0080127D01*
X0077765Y0081726D02*
X0080835Y0081726D01*
X0080117Y0083324D02*
X0078483Y0083324D01*
X0078500Y0084923D02*
X0080100Y0084923D01*
X0080100Y0086521D02*
X0078500Y0086521D01*
X0078500Y0088120D02*
X0080100Y0088120D01*
X0080100Y0089718D02*
X0078500Y0089718D01*
X0078052Y0091317D02*
X0080548Y0091317D01*
X0081875Y0092915D02*
X0076725Y0092915D01*
X0063800Y0115294D02*
X0060083Y0115294D01*
X0061215Y0116893D02*
X0062611Y0116893D01*
X0062200Y0118491D02*
X0061600Y0118491D01*
X0061600Y0120090D02*
X0062200Y0120090D01*
X0016822Y0100908D02*
X0006600Y0100908D01*
X0006600Y0102506D02*
X0013080Y0102506D01*
X0011075Y0104105D02*
X0006600Y0104105D01*
X0006600Y0105703D02*
X0009260Y0105703D01*
X0008170Y0107302D02*
X0006600Y0107302D01*
X0006600Y0108900D02*
X0007080Y0108900D01*
X0196600Y0020982D02*
X0197000Y0020982D01*
X0211005Y0019384D02*
X0212595Y0019384D01*
X0212000Y0017785D02*
X0211600Y0017785D01*
X0211600Y0016187D02*
X0212000Y0016187D01*
X0212224Y0014588D02*
X0211376Y0014588D01*
X0216600Y0014588D02*
X0217000Y0014588D01*
X0217000Y0016187D02*
X0216600Y0016187D01*
X0216600Y0017785D02*
X0217000Y0017785D01*
X0217000Y0019384D02*
X0216600Y0019384D01*
X0221005Y0019384D02*
X0222595Y0019384D01*
X0222000Y0017785D02*
X0221600Y0017785D01*
X0221600Y0016187D02*
X0222000Y0016187D01*
X0222224Y0014588D02*
X0221376Y0014588D01*
X0226600Y0014588D02*
X0227000Y0014588D01*
X0227000Y0016187D02*
X0226600Y0016187D01*
X0226600Y0017785D02*
X0227000Y0017785D01*
X0227000Y0019384D02*
X0226600Y0019384D01*
X0226600Y0020982D02*
X0227000Y0020982D01*
X0229406Y0020982D02*
X0235188Y0020982D01*
X0235188Y0022581D02*
X0229086Y0022581D01*
X0230685Y0024179D02*
X0235188Y0024179D01*
X0235642Y0025778D02*
X0231400Y0025778D01*
X0231400Y0027376D02*
X0236135Y0027376D01*
X0236628Y0028975D02*
X0231131Y0028975D01*
X0239485Y0033227D02*
X0239485Y0033227D01*
X0235188Y0019384D02*
X0231005Y0019384D01*
X0231600Y0017785D02*
X0235654Y0017785D01*
X0236147Y0016187D02*
X0231600Y0016187D01*
X0231376Y0014588D02*
X0236640Y0014588D01*
D17*
X0149300Y0081800D02*
X0141800Y0074300D01*
X0071800Y0074300D01*
X0064300Y0081800D01*
X0064300Y0086800D01*
X0054300Y0104300D02*
X0094300Y0104300D01*
X0106800Y0116800D01*
X0106800Y0121800D01*
X0054300Y0104300D02*
X0021800Y0071800D01*
X0021800Y0054300D01*
X0149300Y0081800D02*
X0149300Y0086800D01*
D18*
X0129300Y0096800D02*
X0124300Y0091800D01*
X0124300Y0086800D01*
X0114300Y0086800D02*
X0114300Y0091800D01*
X0125550Y0103050D01*
X0183050Y0103050D01*
X0196800Y0116800D01*
X0196800Y0121800D01*
X0206800Y0121800D02*
X0206800Y0116800D01*
X0186800Y0096800D01*
X0129300Y0096800D01*
X0121800Y0109300D02*
X0179300Y0109300D01*
X0186800Y0116800D01*
X0186800Y0121800D01*
X0121800Y0109300D02*
X0104300Y0091800D01*
X0104300Y0086800D01*
X0094300Y0086800D02*
X0094300Y0091800D01*
X0089300Y0096800D01*
X0064300Y0096800D01*
X0053050Y0085550D01*
X0053050Y0083050D01*
X0069300Y0066800D01*
X0164300Y0066800D01*
X0179300Y0081800D01*
X0179300Y0086800D01*
X0096800Y0116800D02*
X0096800Y0121800D01*
X0096800Y0116800D02*
X0091800Y0111800D01*
X0051800Y0111800D01*
X0011800Y0071800D01*
X0051800Y0085550D02*
X0053050Y0085550D01*
M02*
