%
M48
M72
T01C0.0320
T02C0.0400
T03C0.0470
T04C0.1260
%
T01
X6430Y8680
X7430Y8680
X8430Y8680
X9430Y8680
X10430Y8680
X11430Y8680
X12430Y8680
X13430Y8680
X14930Y8680
X15930Y8680
X16930Y8680
X17930Y8680
X18930Y8680
X19930Y8680
X20930Y8680
X21930Y8680
X21930Y5680
X20930Y5680
X19930Y5680
X18930Y5680
X17930Y5680
X16930Y5680
X15930Y5680
X14930Y5680
X13430Y5680
X12430Y5680
X11430Y5680
X10430Y5680
X9430Y5680
X8430Y5680
X7430Y5680
X6430Y5680
X5180Y7180
X5180Y8555
X1180Y8555
X1180Y7180
T02
X5680Y12180
X6680Y12180
X7680Y12180
X8680Y12180
X9680Y12180
X10680Y12180
X16680Y12180
X17680Y12180
X18680Y12180
X19680Y12180
X20680Y12180
X21680Y12180
X22680Y3680
X21680Y3680
X20680Y3680
X19680Y3680
X18180Y3680
X17180Y3680
X16180Y3680
X15180Y3680
X15180Y2680
X15180Y2680
X16180Y2680
X16180Y2680
X17180Y2680
X17180Y2680
X18180Y2680
X18180Y2680
X19680Y2680
X19680Y2680
X20680Y2680
X20680Y2680
X21680Y2680
X21680Y2680
X22680Y2680
X22680Y2680
X22680Y1680
X21680Y1680
X20680Y1680
X19680Y1680
X18180Y1680
X17180Y1680
X16180Y1680
X15180Y1680
X12180Y1680
X11180Y1680
X10180Y1680
X9180Y1680
X7680Y1680
X6680Y1680
X5680Y1680
X4680Y1680
X4680Y2680
X4680Y2680
X5680Y2680
X5680Y2680
X6680Y2680
X6680Y2680
X7680Y2680
X7680Y2680
X9180Y2680
X9180Y2680
X10180Y2680
X10180Y2680
X11180Y2680
X11180Y2680
X12180Y2680
X12180Y2680
X12180Y3680
X11180Y3680
X10180Y3680
X9180Y3680
X7680Y3680
X6680Y3680
X5680Y3680
X4680Y3680
X2180Y5430
X3180Y5430
X4180Y5430
T03
X12696Y11930
X14664Y11930
X25438Y8899
X25438Y6930
X25438Y4961
T04
X2180Y2180
X2180Y11680
X25180Y11680
X25180Y2180
M30
