G75*
%MOIN*%
%OFA0B0*%
%FSLAX25Y25*%
%IPPOS*%
%LPD*%
%AMOC8*
5,1,8,0,0,1.08239X$1,22.5*
%
%ADD10C,0.00000*%
%ADD11C,0.00400*%
%ADD12C,0.00300*%
%ADD13C,0.00600*%
%ADD14C,0.00500*%
%ADD15R,0.42000X0.03000*%
%ADD16R,0.07500X0.02000*%
%ADD17R,0.03000X0.02000*%
%ADD18R,0.03400X0.02400*%
%ADD19C,0.00800*%
D10*
X0001800Y0001800D02*
X0001800Y0136761D01*
X0270501Y0136761D01*
X0270501Y0001800D01*
X0001800Y0001800D01*
X0015501Y0021800D02*
X0015503Y0021958D01*
X0015509Y0022116D01*
X0015519Y0022274D01*
X0015533Y0022432D01*
X0015551Y0022589D01*
X0015572Y0022746D01*
X0015598Y0022902D01*
X0015628Y0023058D01*
X0015661Y0023213D01*
X0015699Y0023366D01*
X0015740Y0023519D01*
X0015785Y0023671D01*
X0015834Y0023822D01*
X0015887Y0023971D01*
X0015943Y0024119D01*
X0016003Y0024265D01*
X0016067Y0024410D01*
X0016135Y0024553D01*
X0016206Y0024695D01*
X0016280Y0024835D01*
X0016358Y0024972D01*
X0016440Y0025108D01*
X0016524Y0025242D01*
X0016613Y0025373D01*
X0016704Y0025502D01*
X0016799Y0025629D01*
X0016896Y0025754D01*
X0016997Y0025876D01*
X0017101Y0025995D01*
X0017208Y0026112D01*
X0017318Y0026226D01*
X0017431Y0026337D01*
X0017546Y0026446D01*
X0017664Y0026551D01*
X0017785Y0026653D01*
X0017908Y0026753D01*
X0018034Y0026849D01*
X0018162Y0026942D01*
X0018292Y0027032D01*
X0018425Y0027118D01*
X0018560Y0027202D01*
X0018696Y0027281D01*
X0018835Y0027358D01*
X0018976Y0027430D01*
X0019118Y0027500D01*
X0019262Y0027565D01*
X0019408Y0027627D01*
X0019555Y0027685D01*
X0019704Y0027740D01*
X0019854Y0027791D01*
X0020005Y0027838D01*
X0020157Y0027881D01*
X0020310Y0027920D01*
X0020465Y0027956D01*
X0020620Y0027987D01*
X0020776Y0028015D01*
X0020932Y0028039D01*
X0021089Y0028059D01*
X0021247Y0028075D01*
X0021404Y0028087D01*
X0021563Y0028095D01*
X0021721Y0028099D01*
X0021879Y0028099D01*
X0022037Y0028095D01*
X0022196Y0028087D01*
X0022353Y0028075D01*
X0022511Y0028059D01*
X0022668Y0028039D01*
X0022824Y0028015D01*
X0022980Y0027987D01*
X0023135Y0027956D01*
X0023290Y0027920D01*
X0023443Y0027881D01*
X0023595Y0027838D01*
X0023746Y0027791D01*
X0023896Y0027740D01*
X0024045Y0027685D01*
X0024192Y0027627D01*
X0024338Y0027565D01*
X0024482Y0027500D01*
X0024624Y0027430D01*
X0024765Y0027358D01*
X0024904Y0027281D01*
X0025040Y0027202D01*
X0025175Y0027118D01*
X0025308Y0027032D01*
X0025438Y0026942D01*
X0025566Y0026849D01*
X0025692Y0026753D01*
X0025815Y0026653D01*
X0025936Y0026551D01*
X0026054Y0026446D01*
X0026169Y0026337D01*
X0026282Y0026226D01*
X0026392Y0026112D01*
X0026499Y0025995D01*
X0026603Y0025876D01*
X0026704Y0025754D01*
X0026801Y0025629D01*
X0026896Y0025502D01*
X0026987Y0025373D01*
X0027076Y0025242D01*
X0027160Y0025108D01*
X0027242Y0024972D01*
X0027320Y0024835D01*
X0027394Y0024695D01*
X0027465Y0024553D01*
X0027533Y0024410D01*
X0027597Y0024265D01*
X0027657Y0024119D01*
X0027713Y0023971D01*
X0027766Y0023822D01*
X0027815Y0023671D01*
X0027860Y0023519D01*
X0027901Y0023366D01*
X0027939Y0023213D01*
X0027972Y0023058D01*
X0028002Y0022902D01*
X0028028Y0022746D01*
X0028049Y0022589D01*
X0028067Y0022432D01*
X0028081Y0022274D01*
X0028091Y0022116D01*
X0028097Y0021958D01*
X0028099Y0021800D01*
X0028097Y0021642D01*
X0028091Y0021484D01*
X0028081Y0021326D01*
X0028067Y0021168D01*
X0028049Y0021011D01*
X0028028Y0020854D01*
X0028002Y0020698D01*
X0027972Y0020542D01*
X0027939Y0020387D01*
X0027901Y0020234D01*
X0027860Y0020081D01*
X0027815Y0019929D01*
X0027766Y0019778D01*
X0027713Y0019629D01*
X0027657Y0019481D01*
X0027597Y0019335D01*
X0027533Y0019190D01*
X0027465Y0019047D01*
X0027394Y0018905D01*
X0027320Y0018765D01*
X0027242Y0018628D01*
X0027160Y0018492D01*
X0027076Y0018358D01*
X0026987Y0018227D01*
X0026896Y0018098D01*
X0026801Y0017971D01*
X0026704Y0017846D01*
X0026603Y0017724D01*
X0026499Y0017605D01*
X0026392Y0017488D01*
X0026282Y0017374D01*
X0026169Y0017263D01*
X0026054Y0017154D01*
X0025936Y0017049D01*
X0025815Y0016947D01*
X0025692Y0016847D01*
X0025566Y0016751D01*
X0025438Y0016658D01*
X0025308Y0016568D01*
X0025175Y0016482D01*
X0025040Y0016398D01*
X0024904Y0016319D01*
X0024765Y0016242D01*
X0024624Y0016170D01*
X0024482Y0016100D01*
X0024338Y0016035D01*
X0024192Y0015973D01*
X0024045Y0015915D01*
X0023896Y0015860D01*
X0023746Y0015809D01*
X0023595Y0015762D01*
X0023443Y0015719D01*
X0023290Y0015680D01*
X0023135Y0015644D01*
X0022980Y0015613D01*
X0022824Y0015585D01*
X0022668Y0015561D01*
X0022511Y0015541D01*
X0022353Y0015525D01*
X0022196Y0015513D01*
X0022037Y0015505D01*
X0021879Y0015501D01*
X0021721Y0015501D01*
X0021563Y0015505D01*
X0021404Y0015513D01*
X0021247Y0015525D01*
X0021089Y0015541D01*
X0020932Y0015561D01*
X0020776Y0015585D01*
X0020620Y0015613D01*
X0020465Y0015644D01*
X0020310Y0015680D01*
X0020157Y0015719D01*
X0020005Y0015762D01*
X0019854Y0015809D01*
X0019704Y0015860D01*
X0019555Y0015915D01*
X0019408Y0015973D01*
X0019262Y0016035D01*
X0019118Y0016100D01*
X0018976Y0016170D01*
X0018835Y0016242D01*
X0018696Y0016319D01*
X0018560Y0016398D01*
X0018425Y0016482D01*
X0018292Y0016568D01*
X0018162Y0016658D01*
X0018034Y0016751D01*
X0017908Y0016847D01*
X0017785Y0016947D01*
X0017664Y0017049D01*
X0017546Y0017154D01*
X0017431Y0017263D01*
X0017318Y0017374D01*
X0017208Y0017488D01*
X0017101Y0017605D01*
X0016997Y0017724D01*
X0016896Y0017846D01*
X0016799Y0017971D01*
X0016704Y0018098D01*
X0016613Y0018227D01*
X0016524Y0018358D01*
X0016440Y0018492D01*
X0016358Y0018628D01*
X0016280Y0018765D01*
X0016206Y0018905D01*
X0016135Y0019047D01*
X0016067Y0019190D01*
X0016003Y0019335D01*
X0015943Y0019481D01*
X0015887Y0019629D01*
X0015834Y0019778D01*
X0015785Y0019929D01*
X0015740Y0020081D01*
X0015699Y0020234D01*
X0015661Y0020387D01*
X0015628Y0020542D01*
X0015598Y0020698D01*
X0015572Y0020854D01*
X0015551Y0021011D01*
X0015533Y0021168D01*
X0015519Y0021326D01*
X0015509Y0021484D01*
X0015503Y0021642D01*
X0015501Y0021800D01*
X0015501Y0116800D02*
X0015503Y0116958D01*
X0015509Y0117116D01*
X0015519Y0117274D01*
X0015533Y0117432D01*
X0015551Y0117589D01*
X0015572Y0117746D01*
X0015598Y0117902D01*
X0015628Y0118058D01*
X0015661Y0118213D01*
X0015699Y0118366D01*
X0015740Y0118519D01*
X0015785Y0118671D01*
X0015834Y0118822D01*
X0015887Y0118971D01*
X0015943Y0119119D01*
X0016003Y0119265D01*
X0016067Y0119410D01*
X0016135Y0119553D01*
X0016206Y0119695D01*
X0016280Y0119835D01*
X0016358Y0119972D01*
X0016440Y0120108D01*
X0016524Y0120242D01*
X0016613Y0120373D01*
X0016704Y0120502D01*
X0016799Y0120629D01*
X0016896Y0120754D01*
X0016997Y0120876D01*
X0017101Y0120995D01*
X0017208Y0121112D01*
X0017318Y0121226D01*
X0017431Y0121337D01*
X0017546Y0121446D01*
X0017664Y0121551D01*
X0017785Y0121653D01*
X0017908Y0121753D01*
X0018034Y0121849D01*
X0018162Y0121942D01*
X0018292Y0122032D01*
X0018425Y0122118D01*
X0018560Y0122202D01*
X0018696Y0122281D01*
X0018835Y0122358D01*
X0018976Y0122430D01*
X0019118Y0122500D01*
X0019262Y0122565D01*
X0019408Y0122627D01*
X0019555Y0122685D01*
X0019704Y0122740D01*
X0019854Y0122791D01*
X0020005Y0122838D01*
X0020157Y0122881D01*
X0020310Y0122920D01*
X0020465Y0122956D01*
X0020620Y0122987D01*
X0020776Y0123015D01*
X0020932Y0123039D01*
X0021089Y0123059D01*
X0021247Y0123075D01*
X0021404Y0123087D01*
X0021563Y0123095D01*
X0021721Y0123099D01*
X0021879Y0123099D01*
X0022037Y0123095D01*
X0022196Y0123087D01*
X0022353Y0123075D01*
X0022511Y0123059D01*
X0022668Y0123039D01*
X0022824Y0123015D01*
X0022980Y0122987D01*
X0023135Y0122956D01*
X0023290Y0122920D01*
X0023443Y0122881D01*
X0023595Y0122838D01*
X0023746Y0122791D01*
X0023896Y0122740D01*
X0024045Y0122685D01*
X0024192Y0122627D01*
X0024338Y0122565D01*
X0024482Y0122500D01*
X0024624Y0122430D01*
X0024765Y0122358D01*
X0024904Y0122281D01*
X0025040Y0122202D01*
X0025175Y0122118D01*
X0025308Y0122032D01*
X0025438Y0121942D01*
X0025566Y0121849D01*
X0025692Y0121753D01*
X0025815Y0121653D01*
X0025936Y0121551D01*
X0026054Y0121446D01*
X0026169Y0121337D01*
X0026282Y0121226D01*
X0026392Y0121112D01*
X0026499Y0120995D01*
X0026603Y0120876D01*
X0026704Y0120754D01*
X0026801Y0120629D01*
X0026896Y0120502D01*
X0026987Y0120373D01*
X0027076Y0120242D01*
X0027160Y0120108D01*
X0027242Y0119972D01*
X0027320Y0119835D01*
X0027394Y0119695D01*
X0027465Y0119553D01*
X0027533Y0119410D01*
X0027597Y0119265D01*
X0027657Y0119119D01*
X0027713Y0118971D01*
X0027766Y0118822D01*
X0027815Y0118671D01*
X0027860Y0118519D01*
X0027901Y0118366D01*
X0027939Y0118213D01*
X0027972Y0118058D01*
X0028002Y0117902D01*
X0028028Y0117746D01*
X0028049Y0117589D01*
X0028067Y0117432D01*
X0028081Y0117274D01*
X0028091Y0117116D01*
X0028097Y0116958D01*
X0028099Y0116800D01*
X0028097Y0116642D01*
X0028091Y0116484D01*
X0028081Y0116326D01*
X0028067Y0116168D01*
X0028049Y0116011D01*
X0028028Y0115854D01*
X0028002Y0115698D01*
X0027972Y0115542D01*
X0027939Y0115387D01*
X0027901Y0115234D01*
X0027860Y0115081D01*
X0027815Y0114929D01*
X0027766Y0114778D01*
X0027713Y0114629D01*
X0027657Y0114481D01*
X0027597Y0114335D01*
X0027533Y0114190D01*
X0027465Y0114047D01*
X0027394Y0113905D01*
X0027320Y0113765D01*
X0027242Y0113628D01*
X0027160Y0113492D01*
X0027076Y0113358D01*
X0026987Y0113227D01*
X0026896Y0113098D01*
X0026801Y0112971D01*
X0026704Y0112846D01*
X0026603Y0112724D01*
X0026499Y0112605D01*
X0026392Y0112488D01*
X0026282Y0112374D01*
X0026169Y0112263D01*
X0026054Y0112154D01*
X0025936Y0112049D01*
X0025815Y0111947D01*
X0025692Y0111847D01*
X0025566Y0111751D01*
X0025438Y0111658D01*
X0025308Y0111568D01*
X0025175Y0111482D01*
X0025040Y0111398D01*
X0024904Y0111319D01*
X0024765Y0111242D01*
X0024624Y0111170D01*
X0024482Y0111100D01*
X0024338Y0111035D01*
X0024192Y0110973D01*
X0024045Y0110915D01*
X0023896Y0110860D01*
X0023746Y0110809D01*
X0023595Y0110762D01*
X0023443Y0110719D01*
X0023290Y0110680D01*
X0023135Y0110644D01*
X0022980Y0110613D01*
X0022824Y0110585D01*
X0022668Y0110561D01*
X0022511Y0110541D01*
X0022353Y0110525D01*
X0022196Y0110513D01*
X0022037Y0110505D01*
X0021879Y0110501D01*
X0021721Y0110501D01*
X0021563Y0110505D01*
X0021404Y0110513D01*
X0021247Y0110525D01*
X0021089Y0110541D01*
X0020932Y0110561D01*
X0020776Y0110585D01*
X0020620Y0110613D01*
X0020465Y0110644D01*
X0020310Y0110680D01*
X0020157Y0110719D01*
X0020005Y0110762D01*
X0019854Y0110809D01*
X0019704Y0110860D01*
X0019555Y0110915D01*
X0019408Y0110973D01*
X0019262Y0111035D01*
X0019118Y0111100D01*
X0018976Y0111170D01*
X0018835Y0111242D01*
X0018696Y0111319D01*
X0018560Y0111398D01*
X0018425Y0111482D01*
X0018292Y0111568D01*
X0018162Y0111658D01*
X0018034Y0111751D01*
X0017908Y0111847D01*
X0017785Y0111947D01*
X0017664Y0112049D01*
X0017546Y0112154D01*
X0017431Y0112263D01*
X0017318Y0112374D01*
X0017208Y0112488D01*
X0017101Y0112605D01*
X0016997Y0112724D01*
X0016896Y0112846D01*
X0016799Y0112971D01*
X0016704Y0113098D01*
X0016613Y0113227D01*
X0016524Y0113358D01*
X0016440Y0113492D01*
X0016358Y0113628D01*
X0016280Y0113765D01*
X0016206Y0113905D01*
X0016135Y0114047D01*
X0016067Y0114190D01*
X0016003Y0114335D01*
X0015943Y0114481D01*
X0015887Y0114629D01*
X0015834Y0114778D01*
X0015785Y0114929D01*
X0015740Y0115081D01*
X0015699Y0115234D01*
X0015661Y0115387D01*
X0015628Y0115542D01*
X0015598Y0115698D01*
X0015572Y0115854D01*
X0015551Y0116011D01*
X0015533Y0116168D01*
X0015519Y0116326D01*
X0015509Y0116484D01*
X0015503Y0116642D01*
X0015501Y0116800D01*
X0245501Y0116800D02*
X0245503Y0116958D01*
X0245509Y0117116D01*
X0245519Y0117274D01*
X0245533Y0117432D01*
X0245551Y0117589D01*
X0245572Y0117746D01*
X0245598Y0117902D01*
X0245628Y0118058D01*
X0245661Y0118213D01*
X0245699Y0118366D01*
X0245740Y0118519D01*
X0245785Y0118671D01*
X0245834Y0118822D01*
X0245887Y0118971D01*
X0245943Y0119119D01*
X0246003Y0119265D01*
X0246067Y0119410D01*
X0246135Y0119553D01*
X0246206Y0119695D01*
X0246280Y0119835D01*
X0246358Y0119972D01*
X0246440Y0120108D01*
X0246524Y0120242D01*
X0246613Y0120373D01*
X0246704Y0120502D01*
X0246799Y0120629D01*
X0246896Y0120754D01*
X0246997Y0120876D01*
X0247101Y0120995D01*
X0247208Y0121112D01*
X0247318Y0121226D01*
X0247431Y0121337D01*
X0247546Y0121446D01*
X0247664Y0121551D01*
X0247785Y0121653D01*
X0247908Y0121753D01*
X0248034Y0121849D01*
X0248162Y0121942D01*
X0248292Y0122032D01*
X0248425Y0122118D01*
X0248560Y0122202D01*
X0248696Y0122281D01*
X0248835Y0122358D01*
X0248976Y0122430D01*
X0249118Y0122500D01*
X0249262Y0122565D01*
X0249408Y0122627D01*
X0249555Y0122685D01*
X0249704Y0122740D01*
X0249854Y0122791D01*
X0250005Y0122838D01*
X0250157Y0122881D01*
X0250310Y0122920D01*
X0250465Y0122956D01*
X0250620Y0122987D01*
X0250776Y0123015D01*
X0250932Y0123039D01*
X0251089Y0123059D01*
X0251247Y0123075D01*
X0251404Y0123087D01*
X0251563Y0123095D01*
X0251721Y0123099D01*
X0251879Y0123099D01*
X0252037Y0123095D01*
X0252196Y0123087D01*
X0252353Y0123075D01*
X0252511Y0123059D01*
X0252668Y0123039D01*
X0252824Y0123015D01*
X0252980Y0122987D01*
X0253135Y0122956D01*
X0253290Y0122920D01*
X0253443Y0122881D01*
X0253595Y0122838D01*
X0253746Y0122791D01*
X0253896Y0122740D01*
X0254045Y0122685D01*
X0254192Y0122627D01*
X0254338Y0122565D01*
X0254482Y0122500D01*
X0254624Y0122430D01*
X0254765Y0122358D01*
X0254904Y0122281D01*
X0255040Y0122202D01*
X0255175Y0122118D01*
X0255308Y0122032D01*
X0255438Y0121942D01*
X0255566Y0121849D01*
X0255692Y0121753D01*
X0255815Y0121653D01*
X0255936Y0121551D01*
X0256054Y0121446D01*
X0256169Y0121337D01*
X0256282Y0121226D01*
X0256392Y0121112D01*
X0256499Y0120995D01*
X0256603Y0120876D01*
X0256704Y0120754D01*
X0256801Y0120629D01*
X0256896Y0120502D01*
X0256987Y0120373D01*
X0257076Y0120242D01*
X0257160Y0120108D01*
X0257242Y0119972D01*
X0257320Y0119835D01*
X0257394Y0119695D01*
X0257465Y0119553D01*
X0257533Y0119410D01*
X0257597Y0119265D01*
X0257657Y0119119D01*
X0257713Y0118971D01*
X0257766Y0118822D01*
X0257815Y0118671D01*
X0257860Y0118519D01*
X0257901Y0118366D01*
X0257939Y0118213D01*
X0257972Y0118058D01*
X0258002Y0117902D01*
X0258028Y0117746D01*
X0258049Y0117589D01*
X0258067Y0117432D01*
X0258081Y0117274D01*
X0258091Y0117116D01*
X0258097Y0116958D01*
X0258099Y0116800D01*
X0258097Y0116642D01*
X0258091Y0116484D01*
X0258081Y0116326D01*
X0258067Y0116168D01*
X0258049Y0116011D01*
X0258028Y0115854D01*
X0258002Y0115698D01*
X0257972Y0115542D01*
X0257939Y0115387D01*
X0257901Y0115234D01*
X0257860Y0115081D01*
X0257815Y0114929D01*
X0257766Y0114778D01*
X0257713Y0114629D01*
X0257657Y0114481D01*
X0257597Y0114335D01*
X0257533Y0114190D01*
X0257465Y0114047D01*
X0257394Y0113905D01*
X0257320Y0113765D01*
X0257242Y0113628D01*
X0257160Y0113492D01*
X0257076Y0113358D01*
X0256987Y0113227D01*
X0256896Y0113098D01*
X0256801Y0112971D01*
X0256704Y0112846D01*
X0256603Y0112724D01*
X0256499Y0112605D01*
X0256392Y0112488D01*
X0256282Y0112374D01*
X0256169Y0112263D01*
X0256054Y0112154D01*
X0255936Y0112049D01*
X0255815Y0111947D01*
X0255692Y0111847D01*
X0255566Y0111751D01*
X0255438Y0111658D01*
X0255308Y0111568D01*
X0255175Y0111482D01*
X0255040Y0111398D01*
X0254904Y0111319D01*
X0254765Y0111242D01*
X0254624Y0111170D01*
X0254482Y0111100D01*
X0254338Y0111035D01*
X0254192Y0110973D01*
X0254045Y0110915D01*
X0253896Y0110860D01*
X0253746Y0110809D01*
X0253595Y0110762D01*
X0253443Y0110719D01*
X0253290Y0110680D01*
X0253135Y0110644D01*
X0252980Y0110613D01*
X0252824Y0110585D01*
X0252668Y0110561D01*
X0252511Y0110541D01*
X0252353Y0110525D01*
X0252196Y0110513D01*
X0252037Y0110505D01*
X0251879Y0110501D01*
X0251721Y0110501D01*
X0251563Y0110505D01*
X0251404Y0110513D01*
X0251247Y0110525D01*
X0251089Y0110541D01*
X0250932Y0110561D01*
X0250776Y0110585D01*
X0250620Y0110613D01*
X0250465Y0110644D01*
X0250310Y0110680D01*
X0250157Y0110719D01*
X0250005Y0110762D01*
X0249854Y0110809D01*
X0249704Y0110860D01*
X0249555Y0110915D01*
X0249408Y0110973D01*
X0249262Y0111035D01*
X0249118Y0111100D01*
X0248976Y0111170D01*
X0248835Y0111242D01*
X0248696Y0111319D01*
X0248560Y0111398D01*
X0248425Y0111482D01*
X0248292Y0111568D01*
X0248162Y0111658D01*
X0248034Y0111751D01*
X0247908Y0111847D01*
X0247785Y0111947D01*
X0247664Y0112049D01*
X0247546Y0112154D01*
X0247431Y0112263D01*
X0247318Y0112374D01*
X0247208Y0112488D01*
X0247101Y0112605D01*
X0246997Y0112724D01*
X0246896Y0112846D01*
X0246799Y0112971D01*
X0246704Y0113098D01*
X0246613Y0113227D01*
X0246524Y0113358D01*
X0246440Y0113492D01*
X0246358Y0113628D01*
X0246280Y0113765D01*
X0246206Y0113905D01*
X0246135Y0114047D01*
X0246067Y0114190D01*
X0246003Y0114335D01*
X0245943Y0114481D01*
X0245887Y0114629D01*
X0245834Y0114778D01*
X0245785Y0114929D01*
X0245740Y0115081D01*
X0245699Y0115234D01*
X0245661Y0115387D01*
X0245628Y0115542D01*
X0245598Y0115698D01*
X0245572Y0115854D01*
X0245551Y0116011D01*
X0245533Y0116168D01*
X0245519Y0116326D01*
X0245509Y0116484D01*
X0245503Y0116642D01*
X0245501Y0116800D01*
X0245501Y0021800D02*
X0245503Y0021958D01*
X0245509Y0022116D01*
X0245519Y0022274D01*
X0245533Y0022432D01*
X0245551Y0022589D01*
X0245572Y0022746D01*
X0245598Y0022902D01*
X0245628Y0023058D01*
X0245661Y0023213D01*
X0245699Y0023366D01*
X0245740Y0023519D01*
X0245785Y0023671D01*
X0245834Y0023822D01*
X0245887Y0023971D01*
X0245943Y0024119D01*
X0246003Y0024265D01*
X0246067Y0024410D01*
X0246135Y0024553D01*
X0246206Y0024695D01*
X0246280Y0024835D01*
X0246358Y0024972D01*
X0246440Y0025108D01*
X0246524Y0025242D01*
X0246613Y0025373D01*
X0246704Y0025502D01*
X0246799Y0025629D01*
X0246896Y0025754D01*
X0246997Y0025876D01*
X0247101Y0025995D01*
X0247208Y0026112D01*
X0247318Y0026226D01*
X0247431Y0026337D01*
X0247546Y0026446D01*
X0247664Y0026551D01*
X0247785Y0026653D01*
X0247908Y0026753D01*
X0248034Y0026849D01*
X0248162Y0026942D01*
X0248292Y0027032D01*
X0248425Y0027118D01*
X0248560Y0027202D01*
X0248696Y0027281D01*
X0248835Y0027358D01*
X0248976Y0027430D01*
X0249118Y0027500D01*
X0249262Y0027565D01*
X0249408Y0027627D01*
X0249555Y0027685D01*
X0249704Y0027740D01*
X0249854Y0027791D01*
X0250005Y0027838D01*
X0250157Y0027881D01*
X0250310Y0027920D01*
X0250465Y0027956D01*
X0250620Y0027987D01*
X0250776Y0028015D01*
X0250932Y0028039D01*
X0251089Y0028059D01*
X0251247Y0028075D01*
X0251404Y0028087D01*
X0251563Y0028095D01*
X0251721Y0028099D01*
X0251879Y0028099D01*
X0252037Y0028095D01*
X0252196Y0028087D01*
X0252353Y0028075D01*
X0252511Y0028059D01*
X0252668Y0028039D01*
X0252824Y0028015D01*
X0252980Y0027987D01*
X0253135Y0027956D01*
X0253290Y0027920D01*
X0253443Y0027881D01*
X0253595Y0027838D01*
X0253746Y0027791D01*
X0253896Y0027740D01*
X0254045Y0027685D01*
X0254192Y0027627D01*
X0254338Y0027565D01*
X0254482Y0027500D01*
X0254624Y0027430D01*
X0254765Y0027358D01*
X0254904Y0027281D01*
X0255040Y0027202D01*
X0255175Y0027118D01*
X0255308Y0027032D01*
X0255438Y0026942D01*
X0255566Y0026849D01*
X0255692Y0026753D01*
X0255815Y0026653D01*
X0255936Y0026551D01*
X0256054Y0026446D01*
X0256169Y0026337D01*
X0256282Y0026226D01*
X0256392Y0026112D01*
X0256499Y0025995D01*
X0256603Y0025876D01*
X0256704Y0025754D01*
X0256801Y0025629D01*
X0256896Y0025502D01*
X0256987Y0025373D01*
X0257076Y0025242D01*
X0257160Y0025108D01*
X0257242Y0024972D01*
X0257320Y0024835D01*
X0257394Y0024695D01*
X0257465Y0024553D01*
X0257533Y0024410D01*
X0257597Y0024265D01*
X0257657Y0024119D01*
X0257713Y0023971D01*
X0257766Y0023822D01*
X0257815Y0023671D01*
X0257860Y0023519D01*
X0257901Y0023366D01*
X0257939Y0023213D01*
X0257972Y0023058D01*
X0258002Y0022902D01*
X0258028Y0022746D01*
X0258049Y0022589D01*
X0258067Y0022432D01*
X0258081Y0022274D01*
X0258091Y0022116D01*
X0258097Y0021958D01*
X0258099Y0021800D01*
X0258097Y0021642D01*
X0258091Y0021484D01*
X0258081Y0021326D01*
X0258067Y0021168D01*
X0258049Y0021011D01*
X0258028Y0020854D01*
X0258002Y0020698D01*
X0257972Y0020542D01*
X0257939Y0020387D01*
X0257901Y0020234D01*
X0257860Y0020081D01*
X0257815Y0019929D01*
X0257766Y0019778D01*
X0257713Y0019629D01*
X0257657Y0019481D01*
X0257597Y0019335D01*
X0257533Y0019190D01*
X0257465Y0019047D01*
X0257394Y0018905D01*
X0257320Y0018765D01*
X0257242Y0018628D01*
X0257160Y0018492D01*
X0257076Y0018358D01*
X0256987Y0018227D01*
X0256896Y0018098D01*
X0256801Y0017971D01*
X0256704Y0017846D01*
X0256603Y0017724D01*
X0256499Y0017605D01*
X0256392Y0017488D01*
X0256282Y0017374D01*
X0256169Y0017263D01*
X0256054Y0017154D01*
X0255936Y0017049D01*
X0255815Y0016947D01*
X0255692Y0016847D01*
X0255566Y0016751D01*
X0255438Y0016658D01*
X0255308Y0016568D01*
X0255175Y0016482D01*
X0255040Y0016398D01*
X0254904Y0016319D01*
X0254765Y0016242D01*
X0254624Y0016170D01*
X0254482Y0016100D01*
X0254338Y0016035D01*
X0254192Y0015973D01*
X0254045Y0015915D01*
X0253896Y0015860D01*
X0253746Y0015809D01*
X0253595Y0015762D01*
X0253443Y0015719D01*
X0253290Y0015680D01*
X0253135Y0015644D01*
X0252980Y0015613D01*
X0252824Y0015585D01*
X0252668Y0015561D01*
X0252511Y0015541D01*
X0252353Y0015525D01*
X0252196Y0015513D01*
X0252037Y0015505D01*
X0251879Y0015501D01*
X0251721Y0015501D01*
X0251563Y0015505D01*
X0251404Y0015513D01*
X0251247Y0015525D01*
X0251089Y0015541D01*
X0250932Y0015561D01*
X0250776Y0015585D01*
X0250620Y0015613D01*
X0250465Y0015644D01*
X0250310Y0015680D01*
X0250157Y0015719D01*
X0250005Y0015762D01*
X0249854Y0015809D01*
X0249704Y0015860D01*
X0249555Y0015915D01*
X0249408Y0015973D01*
X0249262Y0016035D01*
X0249118Y0016100D01*
X0248976Y0016170D01*
X0248835Y0016242D01*
X0248696Y0016319D01*
X0248560Y0016398D01*
X0248425Y0016482D01*
X0248292Y0016568D01*
X0248162Y0016658D01*
X0248034Y0016751D01*
X0247908Y0016847D01*
X0247785Y0016947D01*
X0247664Y0017049D01*
X0247546Y0017154D01*
X0247431Y0017263D01*
X0247318Y0017374D01*
X0247208Y0017488D01*
X0247101Y0017605D01*
X0246997Y0017724D01*
X0246896Y0017846D01*
X0246799Y0017971D01*
X0246704Y0018098D01*
X0246613Y0018227D01*
X0246524Y0018358D01*
X0246440Y0018492D01*
X0246358Y0018628D01*
X0246280Y0018765D01*
X0246206Y0018905D01*
X0246135Y0019047D01*
X0246067Y0019190D01*
X0246003Y0019335D01*
X0245943Y0019481D01*
X0245887Y0019629D01*
X0245834Y0019778D01*
X0245785Y0019929D01*
X0245740Y0020081D01*
X0245699Y0020234D01*
X0245661Y0020387D01*
X0245628Y0020542D01*
X0245598Y0020698D01*
X0245572Y0020854D01*
X0245551Y0021011D01*
X0245533Y0021168D01*
X0245519Y0021326D01*
X0245509Y0021484D01*
X0245503Y0021642D01*
X0245501Y0021800D01*
D11*
X0227767Y0009104D02*
X0224698Y0009104D01*
X0224698Y0004500D01*
X0224698Y0006802D02*
X0226233Y0006802D01*
X0217767Y0009104D02*
X0214698Y0009104D01*
X0214698Y0004500D01*
X0217767Y0004500D01*
X0216233Y0006802D02*
X0214698Y0006802D01*
X0207767Y0008337D02*
X0207000Y0009104D01*
X0204698Y0009104D01*
X0204698Y0004500D01*
X0207000Y0004500D01*
X0207767Y0005267D01*
X0207767Y0008337D01*
X0197767Y0008337D02*
X0197000Y0009104D01*
X0195465Y0009104D01*
X0194698Y0008337D01*
X0194698Y0005267D01*
X0195465Y0004500D01*
X0197000Y0004500D01*
X0197767Y0005267D01*
X0182767Y0005267D02*
X0182000Y0004500D01*
X0179698Y0004500D01*
X0179698Y0009104D01*
X0182000Y0009104D01*
X0182767Y0008337D01*
X0182767Y0007569D01*
X0182000Y0006802D01*
X0179698Y0006802D01*
X0182000Y0006802D02*
X0182767Y0006035D01*
X0182767Y0005267D01*
X0172767Y0004500D02*
X0172767Y0007569D01*
X0171233Y0009104D01*
X0169698Y0007569D01*
X0169698Y0004500D01*
X0169698Y0006802D02*
X0172767Y0006802D01*
X0162767Y0006802D02*
X0160465Y0006802D01*
X0159698Y0007569D01*
X0159698Y0008337D01*
X0160465Y0009104D01*
X0162000Y0009104D01*
X0162767Y0008337D01*
X0162767Y0005267D01*
X0162000Y0004500D01*
X0160465Y0004500D01*
X0159698Y0005267D01*
X0152767Y0005267D02*
X0152000Y0004500D01*
X0150465Y0004500D01*
X0149698Y0005267D01*
X0149698Y0006035D01*
X0150465Y0006802D01*
X0152000Y0006802D01*
X0152767Y0006035D01*
X0152767Y0005267D01*
X0152000Y0006802D02*
X0152767Y0007569D01*
X0152767Y0008337D01*
X0152000Y0009104D01*
X0150465Y0009104D01*
X0149698Y0008337D01*
X0149698Y0007569D01*
X0150465Y0006802D01*
X0142371Y0015267D02*
X0141604Y0014500D01*
X0139302Y0014500D01*
X0139302Y0019104D01*
X0141604Y0019104D01*
X0142371Y0018337D01*
X0142371Y0015267D01*
X0137767Y0014500D02*
X0137767Y0019104D01*
X0134698Y0019104D02*
X0137767Y0014500D01*
X0134698Y0014500D02*
X0134698Y0019104D01*
X0133163Y0018337D02*
X0132396Y0019104D01*
X0130861Y0019104D01*
X0130094Y0018337D01*
X0130094Y0015267D01*
X0130861Y0014500D01*
X0132396Y0014500D01*
X0133163Y0015267D01*
X0133163Y0016802D01*
X0131629Y0016802D01*
X0133163Y0024500D02*
X0132396Y0025267D01*
X0133163Y0024500D02*
X0134698Y0024500D01*
X0135465Y0025267D01*
X0135465Y0026802D01*
X0134698Y0027569D01*
X0133931Y0027569D01*
X0132396Y0026802D01*
X0132396Y0029104D01*
X0135465Y0029104D01*
X0137000Y0029104D02*
X0137000Y0026035D01*
X0138535Y0024500D01*
X0140069Y0026035D01*
X0140069Y0029104D01*
X0139302Y0034500D02*
X0140837Y0034500D01*
X0141604Y0035267D01*
X0141604Y0036802D01*
X0140069Y0036802D01*
X0138535Y0038337D02*
X0138535Y0035267D01*
X0139302Y0034500D01*
X0137000Y0034500D02*
X0135465Y0034500D01*
X0136233Y0034500D02*
X0136233Y0039104D01*
X0137000Y0039104D02*
X0135465Y0039104D01*
X0133931Y0038337D02*
X0133163Y0039104D01*
X0131629Y0039104D01*
X0130861Y0038337D01*
X0130861Y0037569D01*
X0131629Y0036802D01*
X0133163Y0036802D01*
X0133931Y0036035D01*
X0133931Y0035267D01*
X0133163Y0034500D01*
X0131629Y0034500D01*
X0130861Y0035267D01*
X0138535Y0038337D02*
X0139302Y0039104D01*
X0140837Y0039104D01*
X0141604Y0038337D01*
X0122767Y0009104D02*
X0119698Y0009104D01*
X0122767Y0009104D02*
X0122767Y0008337D01*
X0119698Y0005267D01*
X0119698Y0004500D01*
X0112767Y0005267D02*
X0112767Y0006035D01*
X0112000Y0006802D01*
X0109698Y0006802D01*
X0109698Y0005267D01*
X0110465Y0004500D01*
X0112000Y0004500D01*
X0112767Y0005267D01*
X0111233Y0008337D02*
X0109698Y0006802D01*
X0111233Y0008337D02*
X0112767Y0009104D01*
X0102767Y0009104D02*
X0099698Y0009104D01*
X0099698Y0006802D01*
X0101233Y0007569D01*
X0102000Y0007569D01*
X0102767Y0006802D01*
X0102767Y0005267D01*
X0102000Y0004500D01*
X0100465Y0004500D01*
X0099698Y0005267D01*
X0092767Y0006802D02*
X0089698Y0006802D01*
X0092000Y0009104D01*
X0092000Y0004500D01*
X0077767Y0005267D02*
X0077000Y0004500D01*
X0075465Y0004500D01*
X0074698Y0005267D01*
X0076233Y0006802D02*
X0077000Y0006802D01*
X0077767Y0006035D01*
X0077767Y0005267D01*
X0077000Y0006802D02*
X0077767Y0007569D01*
X0077767Y0008337D01*
X0077000Y0009104D01*
X0075465Y0009104D01*
X0074698Y0008337D01*
X0067767Y0008337D02*
X0067767Y0007569D01*
X0064698Y0004500D01*
X0067767Y0004500D01*
X0067767Y0008337D02*
X0067000Y0009104D01*
X0065465Y0009104D01*
X0064698Y0008337D01*
X0057767Y0004500D02*
X0054698Y0004500D01*
X0056233Y0004500D02*
X0056233Y0009104D01*
X0054698Y0007569D01*
X0047767Y0008337D02*
X0047767Y0005267D01*
X0047000Y0004500D01*
X0045465Y0004500D01*
X0044698Y0005267D01*
X0047767Y0008337D01*
X0047000Y0009104D01*
X0045465Y0009104D01*
X0044698Y0008337D01*
X0044698Y0005267D01*
X0035300Y0042000D02*
X0036501Y0043201D01*
X0036501Y0045603D01*
X0034099Y0045603D02*
X0034099Y0043201D01*
X0035300Y0042000D01*
X0032818Y0042601D02*
X0032217Y0042000D01*
X0031016Y0042000D01*
X0030416Y0042601D01*
X0030416Y0045003D01*
X0031016Y0045603D01*
X0032217Y0045603D01*
X0032818Y0045003D01*
X0029135Y0045603D02*
X0026733Y0045603D01*
X0026733Y0043802D01*
X0027934Y0044402D01*
X0028534Y0044402D01*
X0029135Y0043802D01*
X0029135Y0042601D01*
X0028534Y0042000D01*
X0027333Y0042000D01*
X0026733Y0042601D01*
X0025451Y0042601D02*
X0024851Y0042000D01*
X0023650Y0042000D01*
X0023049Y0042601D01*
X0025451Y0045003D01*
X0025451Y0042601D01*
X0023049Y0042601D02*
X0023049Y0045003D01*
X0023650Y0045603D01*
X0024851Y0045603D01*
X0025451Y0045003D01*
X0021768Y0045003D02*
X0021768Y0044402D01*
X0021168Y0043802D01*
X0019967Y0043802D01*
X0019366Y0044402D01*
X0019366Y0045003D01*
X0019967Y0045603D01*
X0021168Y0045603D01*
X0021768Y0045003D01*
X0021168Y0043802D02*
X0021768Y0043201D01*
X0021768Y0042601D01*
X0021168Y0042000D01*
X0019967Y0042000D01*
X0019366Y0042601D01*
X0019366Y0043201D01*
X0019967Y0043802D01*
X0018085Y0045003D02*
X0015683Y0042601D01*
X0015683Y0042000D01*
X0014402Y0042000D02*
X0012000Y0042000D01*
X0012000Y0045603D01*
X0015683Y0045603D02*
X0018085Y0045603D01*
X0018085Y0045003D01*
X0089017Y0070000D02*
X0089017Y0070601D01*
X0091419Y0073003D01*
X0091419Y0073603D01*
X0089017Y0073603D01*
X0092701Y0071802D02*
X0095103Y0071802D01*
X0096384Y0071802D02*
X0098786Y0071802D01*
X0100067Y0073003D02*
X0100067Y0070601D01*
X0100667Y0070000D01*
X0101868Y0070000D01*
X0102469Y0070601D01*
X0103750Y0070601D02*
X0104350Y0070000D01*
X0105552Y0070000D01*
X0106152Y0070601D01*
X0106152Y0071802D01*
X0105552Y0072402D01*
X0104951Y0072402D01*
X0103750Y0071802D01*
X0103750Y0073603D01*
X0106152Y0073603D01*
X0107433Y0073003D02*
X0107433Y0072402D01*
X0108034Y0071802D01*
X0109835Y0071802D01*
X0109835Y0070601D02*
X0109835Y0073003D01*
X0109235Y0073603D01*
X0108034Y0073603D01*
X0107433Y0073003D01*
X0102469Y0073003D02*
X0101868Y0073603D01*
X0100667Y0073603D01*
X0100067Y0073003D01*
X0098786Y0073603D02*
X0098786Y0070000D01*
X0096384Y0070000D02*
X0096384Y0073603D01*
X0094502Y0073603D02*
X0092701Y0071802D01*
X0094502Y0073603D02*
X0094502Y0070000D01*
X0107433Y0070601D02*
X0108034Y0070000D01*
X0109235Y0070000D01*
X0109835Y0070601D01*
X0111116Y0070601D02*
X0111717Y0070000D01*
X0112918Y0070000D01*
X0113518Y0070601D01*
X0113518Y0071802D01*
X0112918Y0072402D01*
X0112317Y0072402D01*
X0111116Y0071802D01*
X0111116Y0073603D01*
X0113518Y0073603D01*
X0114799Y0073603D02*
X0117201Y0070000D01*
X0117201Y0073603D01*
X0114799Y0073603D02*
X0114799Y0070000D01*
X0120861Y0094500D02*
X0122396Y0094500D01*
X0123163Y0095267D01*
X0123163Y0096802D01*
X0121629Y0096802D01*
X0123163Y0098337D02*
X0122396Y0099104D01*
X0120861Y0099104D01*
X0120094Y0098337D01*
X0120094Y0095267D01*
X0120861Y0094500D01*
X0124698Y0094500D02*
X0124698Y0099104D01*
X0127767Y0094500D01*
X0127767Y0099104D01*
X0129302Y0099104D02*
X0131604Y0099104D01*
X0132371Y0098337D01*
X0132371Y0095267D01*
X0131604Y0094500D01*
X0129302Y0094500D01*
X0129302Y0099104D01*
X0142396Y0099104D02*
X0142396Y0096035D01*
X0143931Y0094500D01*
X0145465Y0096035D01*
X0145465Y0099104D01*
X0148535Y0098337D02*
X0148535Y0095267D01*
X0147000Y0096802D02*
X0150069Y0096802D01*
X0164496Y0101456D02*
X0165263Y0100688D01*
X0168333Y0100688D01*
X0169100Y0101456D01*
X0169100Y0102990D01*
X0168333Y0103757D01*
X0166798Y0103757D01*
X0166798Y0102223D01*
X0165263Y0103757D02*
X0164496Y0102990D01*
X0164496Y0101456D01*
X0164496Y0105292D02*
X0169100Y0108361D01*
X0164496Y0108361D01*
X0164496Y0109896D02*
X0164496Y0112198D01*
X0165263Y0112965D01*
X0168333Y0112965D01*
X0169100Y0112198D01*
X0169100Y0109896D01*
X0164496Y0109896D01*
X0174496Y0109896D02*
X0174496Y0112965D01*
X0174496Y0111431D02*
X0179100Y0111431D01*
X0178333Y0108361D02*
X0174496Y0108361D01*
X0178333Y0108361D02*
X0179100Y0107594D01*
X0179100Y0106059D01*
X0178333Y0105292D01*
X0174496Y0105292D01*
X0175263Y0103757D02*
X0174496Y0102990D01*
X0174496Y0101455D01*
X0175263Y0100688D01*
X0178333Y0100688D01*
X0179100Y0101455D01*
X0179100Y0102990D01*
X0178333Y0103757D01*
X0175263Y0103757D01*
X0169100Y0105292D02*
X0164496Y0105292D01*
X0174496Y0098386D02*
X0175263Y0099154D01*
X0178333Y0099154D01*
X0179100Y0098386D01*
X0179100Y0096084D01*
X0174496Y0096084D01*
X0174496Y0098386D01*
X0184496Y0100688D02*
X0189100Y0100688D01*
X0189100Y0103757D01*
X0188333Y0105292D02*
X0185263Y0105292D01*
X0184496Y0106059D01*
X0184496Y0107594D01*
X0185263Y0108361D01*
X0184496Y0109896D02*
X0189100Y0109896D01*
X0188333Y0108361D02*
X0189100Y0107594D01*
X0189100Y0106059D01*
X0188333Y0105292D01*
X0194496Y0105292D02*
X0199100Y0105292D01*
X0199100Y0108361D01*
X0199100Y0109896D02*
X0194496Y0109896D01*
X0196798Y0110663D02*
X0199100Y0112965D01*
X0197565Y0109896D02*
X0194496Y0112965D01*
X0189100Y0112965D02*
X0184496Y0112965D01*
X0186798Y0112965D02*
X0186798Y0109896D01*
X0194496Y0102990D02*
X0194496Y0101456D01*
X0195263Y0100688D01*
X0198333Y0100688D01*
X0199100Y0101456D01*
X0199100Y0102990D01*
X0198333Y0103757D01*
X0195263Y0103757D02*
X0194496Y0102990D01*
X0204496Y0102990D02*
X0204496Y0101456D01*
X0205263Y0100688D01*
X0208333Y0100688D01*
X0209100Y0101456D01*
X0209100Y0102990D01*
X0208333Y0103757D01*
X0209100Y0105292D02*
X0204496Y0105292D01*
X0205263Y0103757D02*
X0204496Y0102990D01*
X0209100Y0105292D02*
X0209100Y0108361D01*
X0209100Y0109896D02*
X0204496Y0109896D01*
X0204496Y0112198D01*
X0205263Y0112965D01*
X0206798Y0112965D01*
X0207565Y0112198D01*
X0207565Y0109896D01*
X0207565Y0111431D02*
X0209100Y0112965D01*
X0215263Y0111431D02*
X0218333Y0111431D01*
X0216798Y0109896D02*
X0216798Y0112965D01*
X0217565Y0108361D02*
X0214496Y0108361D01*
X0217565Y0108361D02*
X0219100Y0106827D01*
X0217565Y0105292D01*
X0214496Y0105292D01*
X0231798Y0092569D02*
X0231798Y0089500D01*
X0232565Y0087965D02*
X0229496Y0087965D01*
X0229496Y0084896D02*
X0232565Y0084896D01*
X0234100Y0086431D01*
X0232565Y0087965D01*
X0233333Y0091035D02*
X0230263Y0091035D01*
X0230263Y0074871D02*
X0229496Y0074104D01*
X0229496Y0071802D01*
X0234100Y0071802D01*
X0234100Y0074104D01*
X0233333Y0074871D01*
X0230263Y0074871D01*
X0229496Y0070267D02*
X0234100Y0070267D01*
X0229496Y0067198D01*
X0234100Y0067198D01*
X0233333Y0065663D02*
X0231798Y0065663D01*
X0231798Y0064129D01*
X0230263Y0065663D02*
X0229496Y0064896D01*
X0229496Y0063361D01*
X0230263Y0062594D01*
X0233333Y0062594D01*
X0234100Y0063361D01*
X0234100Y0064896D01*
X0233333Y0065663D01*
X0232565Y0052569D02*
X0229496Y0052569D01*
X0229496Y0049500D02*
X0232565Y0049500D01*
X0234100Y0051035D01*
X0232565Y0052569D01*
X0231798Y0047965D02*
X0233333Y0047965D01*
X0234100Y0047198D01*
X0234100Y0045663D01*
X0233333Y0044896D01*
X0231798Y0044896D02*
X0231031Y0046431D01*
X0231031Y0047198D01*
X0231798Y0047965D01*
X0229496Y0047965D02*
X0229496Y0044896D01*
X0231798Y0044896D01*
X0197201Y0070000D02*
X0197201Y0073603D01*
X0194799Y0073603D02*
X0197201Y0070000D01*
X0194799Y0070000D02*
X0194799Y0073603D01*
X0193518Y0073603D02*
X0191116Y0073603D01*
X0191116Y0071802D01*
X0192317Y0072402D01*
X0192918Y0072402D01*
X0193518Y0071802D01*
X0193518Y0070601D01*
X0192918Y0070000D01*
X0191717Y0070000D01*
X0191116Y0070601D01*
X0189835Y0070601D02*
X0189835Y0073003D01*
X0189235Y0073603D01*
X0188034Y0073603D01*
X0187433Y0073003D01*
X0187433Y0072402D01*
X0188034Y0071802D01*
X0189835Y0071802D01*
X0189835Y0070601D02*
X0189235Y0070000D01*
X0188034Y0070000D01*
X0187433Y0070601D01*
X0186152Y0070601D02*
X0186152Y0071802D01*
X0185552Y0072402D01*
X0184951Y0072402D01*
X0183750Y0071802D01*
X0183750Y0073603D01*
X0186152Y0073603D01*
X0182469Y0073003D02*
X0181868Y0073603D01*
X0180667Y0073603D01*
X0180067Y0073003D01*
X0180067Y0070601D01*
X0180667Y0070000D01*
X0181868Y0070000D01*
X0182469Y0070601D01*
X0183750Y0070601D02*
X0184350Y0070000D01*
X0185552Y0070000D01*
X0186152Y0070601D01*
X0178786Y0070000D02*
X0178786Y0073603D01*
X0176384Y0073603D02*
X0176384Y0070000D01*
X0176384Y0071802D02*
X0178786Y0071802D01*
X0175103Y0071802D02*
X0172701Y0071802D01*
X0174502Y0073603D01*
X0174502Y0070000D01*
X0171419Y0073003D02*
X0169017Y0070601D01*
X0169017Y0070000D01*
X0171419Y0073003D02*
X0171419Y0073603D01*
X0169017Y0073603D01*
X0109100Y0106827D02*
X0107565Y0105292D01*
X0104496Y0105292D01*
X0107565Y0108361D02*
X0109100Y0106827D01*
X0107565Y0108361D02*
X0104496Y0108361D01*
X0106798Y0109896D02*
X0106798Y0112965D01*
X0105263Y0111431D02*
X0108333Y0111431D01*
X0099100Y0112965D02*
X0097565Y0111431D01*
X0097565Y0112198D02*
X0097565Y0109896D01*
X0099100Y0109896D02*
X0094496Y0109896D01*
X0094496Y0112198D01*
X0095263Y0112965D01*
X0096798Y0112965D01*
X0097565Y0112198D01*
X0099100Y0108361D02*
X0099100Y0105292D01*
X0094496Y0105292D01*
X0095263Y0103757D02*
X0094496Y0102990D01*
X0094496Y0101456D01*
X0095263Y0100688D01*
X0098333Y0100688D01*
X0099100Y0101456D01*
X0099100Y0102990D01*
X0098333Y0103757D01*
X0089100Y0102990D02*
X0089100Y0101456D01*
X0088333Y0100688D01*
X0085263Y0100688D01*
X0084496Y0101456D01*
X0084496Y0102990D01*
X0085263Y0103757D01*
X0084496Y0105292D02*
X0089100Y0105292D01*
X0089100Y0108361D01*
X0089100Y0109896D02*
X0084496Y0109896D01*
X0086798Y0110663D02*
X0089100Y0112965D01*
X0087565Y0109896D02*
X0084496Y0112965D01*
X0079100Y0112965D02*
X0074496Y0112965D01*
X0076798Y0112965D02*
X0076798Y0109896D01*
X0075263Y0108361D02*
X0074496Y0107594D01*
X0074496Y0106059D01*
X0075263Y0105292D01*
X0078333Y0105292D01*
X0079100Y0106059D01*
X0079100Y0107594D01*
X0078333Y0108361D01*
X0079100Y0109896D02*
X0074496Y0109896D01*
X0069100Y0109896D02*
X0064496Y0109896D01*
X0069100Y0112965D01*
X0064496Y0112965D01*
X0059100Y0112198D02*
X0059100Y0109896D01*
X0054496Y0109896D01*
X0054496Y0112198D01*
X0055263Y0112965D01*
X0058333Y0112965D01*
X0059100Y0112198D01*
X0059100Y0108361D02*
X0054496Y0108361D01*
X0054496Y0105292D02*
X0059100Y0108361D01*
X0064496Y0108361D02*
X0064496Y0106827D01*
X0064496Y0107594D02*
X0069100Y0107594D01*
X0069100Y0106827D02*
X0069100Y0108361D01*
X0068333Y0105292D02*
X0065263Y0105292D01*
X0064496Y0104525D01*
X0064496Y0102223D01*
X0069100Y0102223D01*
X0069100Y0104525D01*
X0068333Y0105292D01*
X0074496Y0100688D02*
X0079100Y0100688D01*
X0079100Y0103757D01*
X0088333Y0103757D02*
X0089100Y0102990D01*
X0059100Y0102990D02*
X0059100Y0101456D01*
X0058333Y0100688D01*
X0055263Y0100688D01*
X0054496Y0101456D01*
X0054496Y0102990D01*
X0055263Y0103757D01*
X0056798Y0103757D02*
X0056798Y0102223D01*
X0056798Y0103757D02*
X0058333Y0103757D01*
X0059100Y0102990D01*
X0059100Y0105292D02*
X0054496Y0105292D01*
D12*
X0053448Y0094919D02*
X0051597Y0094919D01*
X0050980Y0094302D01*
X0051597Y0093684D01*
X0052831Y0093684D01*
X0053448Y0093067D01*
X0052831Y0092450D01*
X0050980Y0092450D01*
X0047910Y0092450D02*
X0047910Y0094919D01*
X0047910Y0093684D02*
X0049145Y0094919D01*
X0049762Y0094919D01*
X0046696Y0094302D02*
X0046696Y0093067D01*
X0046079Y0092450D01*
X0044844Y0092450D01*
X0044227Y0093067D01*
X0044227Y0094302D01*
X0044844Y0094919D01*
X0046079Y0094919D01*
X0046696Y0094302D01*
X0043006Y0094919D02*
X0041772Y0094919D01*
X0042389Y0095536D02*
X0042389Y0093067D01*
X0043006Y0092450D01*
X0040557Y0093067D02*
X0039940Y0093684D01*
X0038706Y0093684D01*
X0038089Y0094302D01*
X0038706Y0094919D01*
X0040557Y0094919D01*
X0040557Y0093067D02*
X0039940Y0092450D01*
X0038089Y0092450D01*
X0036868Y0092450D02*
X0035633Y0092450D01*
X0036250Y0092450D02*
X0036250Y0094919D01*
X0035633Y0094919D01*
X0034419Y0094919D02*
X0032567Y0094919D01*
X0031950Y0094302D01*
X0032567Y0093684D01*
X0033802Y0093684D01*
X0034419Y0093067D01*
X0033802Y0092450D01*
X0031950Y0092450D01*
X0030736Y0093684D02*
X0028267Y0093684D01*
X0028267Y0093067D02*
X0028267Y0094302D01*
X0028884Y0094919D01*
X0030118Y0094919D01*
X0030736Y0094302D01*
X0030736Y0093684D01*
X0030118Y0092450D02*
X0028884Y0092450D01*
X0028267Y0093067D01*
X0027049Y0094919D02*
X0026432Y0094919D01*
X0025198Y0093684D01*
X0025198Y0092450D02*
X0025198Y0094919D01*
X0020293Y0092450D02*
X0019059Y0092450D01*
X0019676Y0092450D02*
X0019676Y0096153D01*
X0019059Y0096153D01*
X0017221Y0096153D02*
X0017221Y0092450D01*
X0016604Y0092450D02*
X0017838Y0092450D01*
X0015389Y0092450D02*
X0015389Y0094919D01*
X0016604Y0096153D02*
X0017221Y0096153D01*
X0012920Y0094919D02*
X0012920Y0093067D01*
X0013538Y0092450D01*
X0015389Y0092450D01*
X0011706Y0094302D02*
X0011089Y0093684D01*
X0009237Y0093684D01*
X0009237Y0092450D02*
X0009237Y0096153D01*
X0011089Y0096153D01*
X0011706Y0095536D01*
X0011706Y0094302D01*
X0021146Y0085551D02*
X0021630Y0086035D01*
X0023081Y0086035D01*
X0023081Y0087002D02*
X0023081Y0084100D01*
X0021630Y0084100D01*
X0021146Y0084584D01*
X0021146Y0085551D01*
X0024093Y0086035D02*
X0024093Y0084584D01*
X0024576Y0084100D01*
X0025060Y0084584D01*
X0025544Y0084100D01*
X0026028Y0084584D01*
X0026028Y0086035D01*
X0027039Y0086035D02*
X0028490Y0086035D01*
X0028974Y0085551D01*
X0028974Y0084100D01*
X0027039Y0084100D02*
X0027039Y0086035D01*
X0032932Y0086035D02*
X0032932Y0085067D01*
X0033900Y0084100D01*
X0034897Y0084584D02*
X0035380Y0084100D01*
X0036348Y0084100D01*
X0036831Y0084584D01*
X0036831Y0086519D01*
X0036348Y0087002D01*
X0035380Y0087002D01*
X0034897Y0086519D01*
X0034897Y0084584D01*
X0032932Y0086035D02*
X0033900Y0087002D01*
X0037843Y0087002D02*
X0037843Y0084100D01*
X0039778Y0084100D01*
X0040790Y0084100D02*
X0041757Y0085067D01*
X0041757Y0086035D01*
X0040790Y0087002D01*
X0039778Y0087002D02*
X0037843Y0087002D01*
X0037843Y0085551D02*
X0038811Y0085551D01*
X0036250Y0096153D02*
X0036250Y0096770D01*
X0034897Y0073252D02*
X0034897Y0070350D01*
X0036831Y0070350D01*
X0037843Y0070350D02*
X0037843Y0073252D01*
X0039294Y0073252D01*
X0039778Y0072769D01*
X0039778Y0071801D01*
X0039294Y0071317D01*
X0037843Y0071317D01*
X0038811Y0071317D02*
X0039778Y0070350D01*
X0040790Y0070350D02*
X0041757Y0071317D01*
X0041757Y0072285D01*
X0040790Y0073252D01*
X0033885Y0072769D02*
X0033401Y0073252D01*
X0032434Y0073252D01*
X0031950Y0072769D01*
X0031950Y0070834D01*
X0032434Y0070350D01*
X0033401Y0070350D01*
X0033885Y0070834D01*
X0030953Y0070350D02*
X0029986Y0071317D01*
X0029986Y0072285D01*
X0030953Y0073252D01*
X0026028Y0071801D02*
X0026028Y0070834D01*
X0025544Y0070350D01*
X0024093Y0070350D01*
X0024093Y0069383D02*
X0024093Y0072285D01*
X0025544Y0072285D01*
X0026028Y0071801D01*
X0023081Y0072285D02*
X0023081Y0070350D01*
X0021630Y0070350D01*
X0021146Y0070834D01*
X0021146Y0072285D01*
X0051668Y0048669D02*
X0052903Y0049903D01*
X0052903Y0046200D01*
X0054137Y0046200D02*
X0051668Y0046200D01*
X0055351Y0046817D02*
X0055351Y0048052D01*
X0057203Y0048052D01*
X0057820Y0047434D01*
X0057820Y0046817D01*
X0057203Y0046200D01*
X0055969Y0046200D01*
X0055351Y0046817D01*
X0055351Y0048052D02*
X0056586Y0049286D01*
X0057820Y0049903D01*
X0062718Y0048052D02*
X0062718Y0046817D01*
X0063335Y0046200D01*
X0065187Y0046200D01*
X0066401Y0046200D02*
X0066401Y0049903D01*
X0067018Y0048669D02*
X0068252Y0048669D01*
X0068870Y0048052D01*
X0068870Y0046200D01*
X0070084Y0046817D02*
X0070701Y0047434D01*
X0072553Y0047434D01*
X0072553Y0048052D02*
X0072553Y0046200D01*
X0070701Y0046200D01*
X0070084Y0046817D01*
X0071936Y0048669D02*
X0072553Y0048052D01*
X0071936Y0048669D02*
X0070701Y0048669D01*
X0067018Y0048669D02*
X0066401Y0048052D01*
X0065187Y0048669D02*
X0063335Y0048669D01*
X0062718Y0048052D01*
X0073767Y0048669D02*
X0073767Y0046200D01*
X0076236Y0046200D02*
X0076236Y0048052D01*
X0075619Y0048669D01*
X0073767Y0048669D01*
X0077450Y0048669D02*
X0079302Y0048669D01*
X0079919Y0048052D01*
X0079919Y0046200D01*
X0081133Y0046817D02*
X0081133Y0048052D01*
X0081751Y0048669D01*
X0082985Y0048669D01*
X0083602Y0048052D01*
X0083602Y0047434D01*
X0081133Y0047434D01*
X0081133Y0046817D02*
X0081751Y0046200D01*
X0082985Y0046200D01*
X0084817Y0046200D02*
X0086051Y0046200D01*
X0085434Y0046200D02*
X0085434Y0049903D01*
X0084817Y0049903D01*
X0077450Y0048669D02*
X0077450Y0046200D01*
X0090955Y0046200D02*
X0092807Y0046200D01*
X0093424Y0046817D01*
X0093424Y0048052D01*
X0092807Y0048669D01*
X0090955Y0048669D01*
X0090955Y0049903D02*
X0090955Y0046200D01*
X0094638Y0046817D02*
X0095256Y0046200D01*
X0097107Y0046200D01*
X0097107Y0048669D01*
X0098321Y0048052D02*
X0099556Y0048052D01*
X0100777Y0048052D02*
X0102011Y0048052D01*
X0103232Y0048052D02*
X0103232Y0046817D01*
X0103850Y0046200D01*
X0105084Y0046200D01*
X0105701Y0047434D02*
X0103232Y0047434D01*
X0103232Y0048052D02*
X0103850Y0048669D01*
X0105084Y0048669D01*
X0105701Y0048052D01*
X0105701Y0047434D01*
X0106915Y0047434D02*
X0108150Y0048669D01*
X0108767Y0048669D01*
X0109985Y0048052D02*
X0110602Y0048669D01*
X0111836Y0048669D01*
X0112454Y0048052D01*
X0112454Y0047434D01*
X0109985Y0047434D01*
X0109985Y0046817D02*
X0109985Y0048052D01*
X0109985Y0046817D02*
X0110602Y0046200D01*
X0111836Y0046200D01*
X0113668Y0046817D02*
X0113668Y0048052D01*
X0114285Y0048669D01*
X0116137Y0048669D01*
X0116137Y0049903D02*
X0116137Y0046200D01*
X0114285Y0046200D01*
X0113668Y0046817D01*
X0121034Y0046817D02*
X0121651Y0046200D01*
X0122886Y0046200D01*
X0123503Y0046817D01*
X0123503Y0048052D01*
X0122886Y0048669D01*
X0121651Y0048669D01*
X0121034Y0048052D01*
X0121034Y0046817D01*
X0124717Y0046817D02*
X0125335Y0046200D01*
X0127186Y0046200D01*
X0127186Y0048669D01*
X0128400Y0048669D02*
X0129635Y0048669D01*
X0129018Y0049286D02*
X0129018Y0046817D01*
X0129635Y0046200D01*
X0130856Y0046200D02*
X0132707Y0046200D01*
X0133325Y0046817D01*
X0133325Y0048052D01*
X0132707Y0048669D01*
X0130856Y0048669D01*
X0130856Y0044966D01*
X0134539Y0046817D02*
X0135156Y0046200D01*
X0137008Y0046200D01*
X0137008Y0048669D01*
X0138222Y0048669D02*
X0139457Y0048669D01*
X0138839Y0049286D02*
X0138839Y0046817D01*
X0139457Y0046200D01*
X0144361Y0046200D02*
X0146212Y0046200D01*
X0146830Y0046817D01*
X0146212Y0047434D01*
X0144978Y0047434D01*
X0144361Y0048052D01*
X0144978Y0048669D01*
X0146830Y0048669D01*
X0148044Y0048669D02*
X0149278Y0048669D01*
X0148661Y0049286D02*
X0148661Y0046817D01*
X0149278Y0046200D01*
X0150499Y0046817D02*
X0151117Y0047434D01*
X0152968Y0047434D01*
X0152968Y0048052D02*
X0152968Y0046200D01*
X0151117Y0046200D01*
X0150499Y0046817D01*
X0152351Y0048669D02*
X0152968Y0048052D01*
X0152351Y0048669D02*
X0151117Y0048669D01*
X0154182Y0048052D02*
X0154182Y0046817D01*
X0154800Y0046200D01*
X0156651Y0046200D01*
X0156651Y0045583D02*
X0156651Y0048669D01*
X0154800Y0048669D01*
X0154182Y0048052D01*
X0157866Y0048052D02*
X0157866Y0046817D01*
X0158483Y0046200D01*
X0159717Y0046200D01*
X0160334Y0047434D02*
X0157866Y0047434D01*
X0157866Y0048052D02*
X0158483Y0048669D01*
X0159717Y0048669D01*
X0160334Y0048052D01*
X0160334Y0047434D01*
X0156651Y0045583D02*
X0156034Y0044966D01*
X0155417Y0044966D01*
X0165232Y0048052D02*
X0167701Y0048052D01*
X0172598Y0044966D02*
X0173215Y0044966D01*
X0173833Y0045583D01*
X0173833Y0048669D01*
X0173833Y0049903D02*
X0173833Y0050520D01*
X0175671Y0048669D02*
X0175054Y0048052D01*
X0175054Y0046817D01*
X0175671Y0046200D01*
X0176905Y0046200D01*
X0177522Y0046817D01*
X0177522Y0048052D01*
X0176905Y0048669D01*
X0175671Y0048669D01*
X0178737Y0048669D02*
X0178737Y0046817D01*
X0179354Y0046200D01*
X0181206Y0046200D01*
X0181206Y0048669D01*
X0182420Y0048052D02*
X0182420Y0046817D01*
X0183037Y0046200D01*
X0184889Y0046200D01*
X0184889Y0045583D02*
X0184271Y0044966D01*
X0183654Y0044966D01*
X0184889Y0045583D02*
X0184889Y0048669D01*
X0183037Y0048669D01*
X0182420Y0048052D01*
X0186103Y0048052D02*
X0186720Y0048669D01*
X0188572Y0048669D01*
X0189786Y0049286D02*
X0190403Y0049903D01*
X0191638Y0049903D01*
X0192255Y0049286D01*
X0192255Y0048052D01*
X0191638Y0047434D01*
X0191638Y0048669D01*
X0190403Y0048669D01*
X0190403Y0047434D01*
X0191638Y0047434D01*
X0192255Y0046817D02*
X0191638Y0046200D01*
X0190403Y0046200D01*
X0189786Y0046817D01*
X0189786Y0049286D01*
X0187955Y0047434D02*
X0186720Y0047434D01*
X0186103Y0048052D01*
X0186103Y0046200D02*
X0187955Y0046200D01*
X0188572Y0046817D01*
X0187955Y0047434D01*
X0193469Y0046200D02*
X0193469Y0048669D01*
X0194087Y0048669D01*
X0194704Y0048052D01*
X0195321Y0048669D01*
X0195938Y0048052D01*
X0195938Y0046200D01*
X0197152Y0046200D02*
X0198387Y0046200D01*
X0197770Y0046200D02*
X0197770Y0048669D01*
X0197152Y0048669D01*
X0197770Y0049903D02*
X0197770Y0050520D01*
X0199608Y0048669D02*
X0201459Y0048669D01*
X0202077Y0048052D01*
X0202077Y0046200D01*
X0203291Y0046817D02*
X0203291Y0048052D01*
X0203908Y0048669D01*
X0205760Y0048669D01*
X0206974Y0048669D02*
X0209443Y0048669D01*
X0206974Y0046200D01*
X0209443Y0046200D01*
X0210657Y0046817D02*
X0210657Y0048052D01*
X0211275Y0048669D01*
X0212509Y0048669D01*
X0213126Y0048052D01*
X0213126Y0046817D01*
X0212509Y0046200D01*
X0211275Y0046200D01*
X0210657Y0046817D01*
X0214340Y0046817D02*
X0214340Y0048052D01*
X0214958Y0048669D01*
X0216192Y0048669D01*
X0216809Y0048052D01*
X0216809Y0046817D01*
X0216192Y0046200D01*
X0214958Y0046200D01*
X0214340Y0046817D01*
X0218024Y0046817D02*
X0218641Y0046817D01*
X0218641Y0046200D01*
X0218024Y0046200D01*
X0218024Y0046817D01*
X0219865Y0046817D02*
X0219865Y0048052D01*
X0220482Y0048669D01*
X0222334Y0048669D01*
X0222334Y0049903D02*
X0222334Y0046200D01*
X0220482Y0046200D01*
X0219865Y0046817D01*
X0223548Y0046817D02*
X0223548Y0048052D01*
X0224166Y0048669D01*
X0225400Y0048669D01*
X0226017Y0048052D01*
X0226017Y0047434D01*
X0223548Y0047434D01*
X0223548Y0046817D02*
X0224166Y0046200D01*
X0225400Y0046200D01*
X0205760Y0046200D02*
X0203908Y0046200D01*
X0203291Y0046817D01*
X0205760Y0046200D02*
X0205760Y0049903D01*
X0199608Y0048669D02*
X0199608Y0046200D01*
X0194704Y0046200D02*
X0194704Y0048052D01*
X0134539Y0048669D02*
X0134539Y0046817D01*
X0124717Y0046817D02*
X0124717Y0048669D01*
X0106915Y0048669D02*
X0106915Y0046200D01*
X0101394Y0046200D02*
X0101394Y0049286D01*
X0102011Y0049903D01*
X0099556Y0049903D02*
X0098939Y0049286D01*
X0098939Y0046200D01*
X0094638Y0046817D02*
X0094638Y0048669D01*
X0072128Y0128716D02*
X0072128Y0132419D01*
X0073980Y0132419D01*
X0074597Y0131802D01*
X0074597Y0130567D01*
X0073980Y0129950D01*
X0072128Y0129950D01*
X0075811Y0129950D02*
X0075811Y0132419D01*
X0075811Y0131184D02*
X0077046Y0132419D01*
X0077663Y0132419D01*
X0078881Y0131802D02*
X0079498Y0132419D01*
X0080732Y0132419D01*
X0081349Y0131802D01*
X0081349Y0131184D01*
X0078881Y0131184D01*
X0078881Y0130567D02*
X0078881Y0131802D01*
X0078881Y0130567D02*
X0079498Y0129950D01*
X0080732Y0129950D01*
X0083798Y0129950D02*
X0085033Y0132419D01*
X0086247Y0130567D02*
X0086864Y0130567D01*
X0086864Y0129950D01*
X0086247Y0129950D01*
X0086247Y0130567D01*
X0083798Y0129950D02*
X0082564Y0132419D01*
X0091772Y0132419D02*
X0093623Y0132419D01*
X0094240Y0131802D01*
X0094240Y0130567D01*
X0093623Y0129950D01*
X0091772Y0129950D01*
X0091772Y0133653D01*
X0095455Y0131802D02*
X0095455Y0130567D01*
X0096072Y0129950D01*
X0097306Y0129950D01*
X0097924Y0130567D01*
X0097924Y0131802D01*
X0097306Y0132419D01*
X0096072Y0132419D01*
X0095455Y0131802D01*
X0099138Y0130567D02*
X0099755Y0131184D01*
X0101607Y0131184D01*
X0101607Y0131802D02*
X0101607Y0129950D01*
X0099755Y0129950D01*
X0099138Y0130567D01*
X0099755Y0132419D02*
X0100990Y0132419D01*
X0101607Y0131802D01*
X0102821Y0132419D02*
X0102821Y0129950D01*
X0102821Y0131184D02*
X0104055Y0132419D01*
X0104673Y0132419D01*
X0105890Y0131802D02*
X0105890Y0130567D01*
X0106508Y0129950D01*
X0108359Y0129950D01*
X0108359Y0133653D01*
X0108359Y0132419D02*
X0106508Y0132419D01*
X0105890Y0131802D01*
X0067231Y0131802D02*
X0067231Y0129950D01*
X0065996Y0129950D02*
X0065996Y0131802D01*
X0066614Y0132419D01*
X0067231Y0131802D01*
X0065996Y0131802D02*
X0065379Y0132419D01*
X0064762Y0132419D01*
X0064762Y0129950D01*
X0063548Y0130567D02*
X0062930Y0129950D01*
X0061696Y0129950D01*
X0061079Y0130567D01*
X0061079Y0131802D01*
X0061696Y0132419D01*
X0062930Y0132419D01*
X0063548Y0131802D01*
X0063548Y0130567D01*
X0059861Y0132419D02*
X0059244Y0132419D01*
X0058010Y0131184D01*
X0058010Y0129950D02*
X0058010Y0132419D01*
X0056795Y0133653D02*
X0054326Y0133653D01*
X0054326Y0129950D01*
X0054326Y0131802D02*
X0055561Y0131802D01*
X0168930Y0133653D02*
X0171399Y0133653D01*
X0170165Y0133653D02*
X0170165Y0129950D01*
X0172613Y0130567D02*
X0173231Y0129950D01*
X0174465Y0129950D01*
X0175082Y0130567D01*
X0175082Y0131802D01*
X0174465Y0132419D01*
X0173231Y0132419D01*
X0172613Y0131802D01*
X0172613Y0130567D01*
X0179980Y0129950D02*
X0179980Y0132419D01*
X0181831Y0132419D01*
X0182449Y0131802D01*
X0182449Y0129950D01*
X0183663Y0130567D02*
X0184280Y0129950D01*
X0185514Y0129950D01*
X0186132Y0131184D02*
X0183663Y0131184D01*
X0183663Y0130567D02*
X0183663Y0131802D01*
X0184280Y0132419D01*
X0185514Y0132419D01*
X0186132Y0131802D01*
X0186132Y0131184D01*
X0187346Y0129950D02*
X0189815Y0132419D01*
X0191029Y0132419D02*
X0192264Y0132419D01*
X0191646Y0133036D02*
X0191646Y0130567D01*
X0192264Y0129950D01*
X0189815Y0129950D02*
X0187346Y0132419D01*
X0197168Y0132419D02*
X0199019Y0132419D01*
X0199637Y0131802D01*
X0199637Y0130567D01*
X0199019Y0129950D01*
X0197168Y0129950D01*
X0197168Y0133653D01*
X0200851Y0131802D02*
X0200851Y0130567D01*
X0201468Y0129950D01*
X0202702Y0129950D01*
X0203320Y0130567D01*
X0203320Y0131802D01*
X0202702Y0132419D01*
X0201468Y0132419D01*
X0200851Y0131802D01*
X0204534Y0130567D02*
X0205151Y0129950D01*
X0207003Y0129950D01*
X0207003Y0131802D01*
X0206386Y0132419D01*
X0205151Y0132419D01*
X0205151Y0131184D02*
X0207003Y0131184D01*
X0208217Y0131184D02*
X0209452Y0132419D01*
X0210069Y0132419D01*
X0211286Y0131802D02*
X0211904Y0132419D01*
X0213755Y0132419D01*
X0213755Y0133653D02*
X0213755Y0129950D01*
X0211904Y0129950D01*
X0211286Y0130567D01*
X0211286Y0131802D01*
X0208217Y0132419D02*
X0208217Y0129950D01*
X0205151Y0131184D02*
X0204534Y0130567D01*
D13*
X0204300Y0126800D02*
X0209300Y0126800D01*
X0211800Y0124300D01*
X0214300Y0126800D01*
X0219300Y0126800D01*
X0221800Y0124300D01*
X0221800Y0119300D01*
X0219300Y0116800D01*
X0214300Y0116800D01*
X0211800Y0119300D01*
X0209300Y0116800D01*
X0204300Y0116800D01*
X0201800Y0119300D01*
X0199300Y0116800D01*
X0194300Y0116800D01*
X0191800Y0119300D01*
X0189300Y0116800D01*
X0184300Y0116800D01*
X0181800Y0119300D01*
X0179300Y0116800D01*
X0174300Y0116800D01*
X0171800Y0119300D01*
X0169300Y0116800D01*
X0164300Y0116800D01*
X0161800Y0119300D01*
X0161800Y0124300D01*
X0164300Y0126800D01*
X0169300Y0126800D01*
X0171800Y0124300D01*
X0174300Y0126800D01*
X0179300Y0126800D01*
X0181800Y0124300D01*
X0181800Y0119300D01*
X0181800Y0124300D02*
X0184300Y0126800D01*
X0189300Y0126800D01*
X0191800Y0124300D01*
X0194300Y0126800D01*
X0199300Y0126800D01*
X0201800Y0124300D01*
X0204300Y0126800D01*
X0201800Y0124300D02*
X0201800Y0119300D01*
X0211800Y0119300D02*
X0211800Y0124300D01*
X0191800Y0124300D02*
X0191800Y0119300D01*
X0171800Y0119300D02*
X0171800Y0124300D01*
X0156442Y0126398D02*
X0156442Y0100398D01*
X0156442Y0099599D01*
X0117143Y0099599D01*
X0117143Y0100398D01*
X0117143Y0126398D01*
X0117143Y0135800D01*
X0156442Y0135800D01*
X0156442Y0126398D01*
X0150143Y0126398D01*
X0143143Y0126398D02*
X0130442Y0126398D01*
X0123442Y0126398D02*
X0117143Y0126398D01*
X0111800Y0124300D02*
X0111800Y0119300D01*
X0109300Y0116800D01*
X0104300Y0116800D01*
X0101800Y0119300D01*
X0099300Y0116800D01*
X0094300Y0116800D01*
X0091800Y0119300D01*
X0089300Y0116800D01*
X0084300Y0116800D01*
X0081800Y0119300D01*
X0079300Y0116800D01*
X0074300Y0116800D01*
X0071800Y0119300D01*
X0069300Y0116800D01*
X0064300Y0116800D01*
X0061800Y0119300D01*
X0059300Y0116800D01*
X0054300Y0116800D01*
X0051800Y0119300D01*
X0051800Y0124300D01*
X0054300Y0126800D01*
X0059300Y0126800D01*
X0061800Y0124300D01*
X0064300Y0126800D01*
X0069300Y0126800D01*
X0071800Y0124300D01*
X0071800Y0119300D01*
X0071800Y0124300D02*
X0074300Y0126800D01*
X0079300Y0126800D01*
X0081800Y0124300D01*
X0084300Y0126800D01*
X0089300Y0126800D01*
X0091800Y0124300D01*
X0094300Y0126800D01*
X0099300Y0126800D01*
X0101800Y0124300D01*
X0104300Y0126800D01*
X0109300Y0126800D01*
X0111800Y0124300D01*
X0101800Y0124300D02*
X0101800Y0119300D01*
X0091800Y0119300D02*
X0091800Y0124300D01*
X0081800Y0124300D02*
X0081800Y0119300D01*
X0061800Y0119300D02*
X0061800Y0124300D01*
X0008300Y0116800D02*
X0008304Y0117131D01*
X0008316Y0117462D01*
X0008337Y0117793D01*
X0008365Y0118123D01*
X0008402Y0118453D01*
X0008446Y0118781D01*
X0008499Y0119108D01*
X0008559Y0119434D01*
X0008628Y0119758D01*
X0008705Y0120080D01*
X0008789Y0120401D01*
X0008881Y0120719D01*
X0008981Y0121035D01*
X0009089Y0121348D01*
X0009205Y0121659D01*
X0009328Y0121966D01*
X0009458Y0122271D01*
X0009596Y0122572D01*
X0009741Y0122870D01*
X0009894Y0123164D01*
X0010054Y0123454D01*
X0010221Y0123740D01*
X0010394Y0124022D01*
X0010575Y0124300D01*
X0010763Y0124573D01*
X0010957Y0124842D01*
X0011157Y0125106D01*
X0011364Y0125364D01*
X0011578Y0125618D01*
X0011797Y0125866D01*
X0012023Y0126109D01*
X0012254Y0126346D01*
X0012491Y0126577D01*
X0012734Y0126803D01*
X0012982Y0127022D01*
X0013236Y0127236D01*
X0013494Y0127443D01*
X0013758Y0127643D01*
X0014027Y0127837D01*
X0014300Y0128025D01*
X0014578Y0128206D01*
X0014860Y0128379D01*
X0015146Y0128546D01*
X0015436Y0128706D01*
X0015730Y0128859D01*
X0016028Y0129004D01*
X0016329Y0129142D01*
X0016634Y0129272D01*
X0016941Y0129395D01*
X0017252Y0129511D01*
X0017565Y0129619D01*
X0017881Y0129719D01*
X0018199Y0129811D01*
X0018520Y0129895D01*
X0018842Y0129972D01*
X0019166Y0130041D01*
X0019492Y0130101D01*
X0019819Y0130154D01*
X0020147Y0130198D01*
X0020477Y0130235D01*
X0020807Y0130263D01*
X0021138Y0130284D01*
X0021469Y0130296D01*
X0021800Y0130300D01*
X0022131Y0130296D01*
X0022462Y0130284D01*
X0022793Y0130263D01*
X0023123Y0130235D01*
X0023453Y0130198D01*
X0023781Y0130154D01*
X0024108Y0130101D01*
X0024434Y0130041D01*
X0024758Y0129972D01*
X0025080Y0129895D01*
X0025401Y0129811D01*
X0025719Y0129719D01*
X0026035Y0129619D01*
X0026348Y0129511D01*
X0026659Y0129395D01*
X0026966Y0129272D01*
X0027271Y0129142D01*
X0027572Y0129004D01*
X0027870Y0128859D01*
X0028164Y0128706D01*
X0028454Y0128546D01*
X0028740Y0128379D01*
X0029022Y0128206D01*
X0029300Y0128025D01*
X0029573Y0127837D01*
X0029842Y0127643D01*
X0030106Y0127443D01*
X0030364Y0127236D01*
X0030618Y0127022D01*
X0030866Y0126803D01*
X0031109Y0126577D01*
X0031346Y0126346D01*
X0031577Y0126109D01*
X0031803Y0125866D01*
X0032022Y0125618D01*
X0032236Y0125364D01*
X0032443Y0125106D01*
X0032643Y0124842D01*
X0032837Y0124573D01*
X0033025Y0124300D01*
X0033206Y0124022D01*
X0033379Y0123740D01*
X0033546Y0123454D01*
X0033706Y0123164D01*
X0033859Y0122870D01*
X0034004Y0122572D01*
X0034142Y0122271D01*
X0034272Y0121966D01*
X0034395Y0121659D01*
X0034511Y0121348D01*
X0034619Y0121035D01*
X0034719Y0120719D01*
X0034811Y0120401D01*
X0034895Y0120080D01*
X0034972Y0119758D01*
X0035041Y0119434D01*
X0035101Y0119108D01*
X0035154Y0118781D01*
X0035198Y0118453D01*
X0035235Y0118123D01*
X0035263Y0117793D01*
X0035284Y0117462D01*
X0035296Y0117131D01*
X0035300Y0116800D01*
X0035296Y0116469D01*
X0035284Y0116138D01*
X0035263Y0115807D01*
X0035235Y0115477D01*
X0035198Y0115147D01*
X0035154Y0114819D01*
X0035101Y0114492D01*
X0035041Y0114166D01*
X0034972Y0113842D01*
X0034895Y0113520D01*
X0034811Y0113199D01*
X0034719Y0112881D01*
X0034619Y0112565D01*
X0034511Y0112252D01*
X0034395Y0111941D01*
X0034272Y0111634D01*
X0034142Y0111329D01*
X0034004Y0111028D01*
X0033859Y0110730D01*
X0033706Y0110436D01*
X0033546Y0110146D01*
X0033379Y0109860D01*
X0033206Y0109578D01*
X0033025Y0109300D01*
X0032837Y0109027D01*
X0032643Y0108758D01*
X0032443Y0108494D01*
X0032236Y0108236D01*
X0032022Y0107982D01*
X0031803Y0107734D01*
X0031577Y0107491D01*
X0031346Y0107254D01*
X0031109Y0107023D01*
X0030866Y0106797D01*
X0030618Y0106578D01*
X0030364Y0106364D01*
X0030106Y0106157D01*
X0029842Y0105957D01*
X0029573Y0105763D01*
X0029300Y0105575D01*
X0029022Y0105394D01*
X0028740Y0105221D01*
X0028454Y0105054D01*
X0028164Y0104894D01*
X0027870Y0104741D01*
X0027572Y0104596D01*
X0027271Y0104458D01*
X0026966Y0104328D01*
X0026659Y0104205D01*
X0026348Y0104089D01*
X0026035Y0103981D01*
X0025719Y0103881D01*
X0025401Y0103789D01*
X0025080Y0103705D01*
X0024758Y0103628D01*
X0024434Y0103559D01*
X0024108Y0103499D01*
X0023781Y0103446D01*
X0023453Y0103402D01*
X0023123Y0103365D01*
X0022793Y0103337D01*
X0022462Y0103316D01*
X0022131Y0103304D01*
X0021800Y0103300D01*
X0021469Y0103304D01*
X0021138Y0103316D01*
X0020807Y0103337D01*
X0020477Y0103365D01*
X0020147Y0103402D01*
X0019819Y0103446D01*
X0019492Y0103499D01*
X0019166Y0103559D01*
X0018842Y0103628D01*
X0018520Y0103705D01*
X0018199Y0103789D01*
X0017881Y0103881D01*
X0017565Y0103981D01*
X0017252Y0104089D01*
X0016941Y0104205D01*
X0016634Y0104328D01*
X0016329Y0104458D01*
X0016028Y0104596D01*
X0015730Y0104741D01*
X0015436Y0104894D01*
X0015146Y0105054D01*
X0014860Y0105221D01*
X0014578Y0105394D01*
X0014300Y0105575D01*
X0014027Y0105763D01*
X0013758Y0105957D01*
X0013494Y0106157D01*
X0013236Y0106364D01*
X0012982Y0106578D01*
X0012734Y0106797D01*
X0012491Y0107023D01*
X0012254Y0107254D01*
X0012023Y0107491D01*
X0011797Y0107734D01*
X0011578Y0107982D01*
X0011364Y0108236D01*
X0011157Y0108494D01*
X0010957Y0108758D01*
X0010763Y0109027D01*
X0010575Y0109300D01*
X0010394Y0109578D01*
X0010221Y0109860D01*
X0010054Y0110146D01*
X0009894Y0110436D01*
X0009741Y0110730D01*
X0009596Y0111028D01*
X0009458Y0111329D01*
X0009328Y0111634D01*
X0009205Y0111941D01*
X0009089Y0112252D01*
X0008981Y0112565D01*
X0008881Y0112881D01*
X0008789Y0113199D01*
X0008705Y0113520D01*
X0008628Y0113842D01*
X0008559Y0114166D01*
X0008499Y0114492D01*
X0008446Y0114819D01*
X0008402Y0115147D01*
X0008365Y0115477D01*
X0008337Y0115807D01*
X0008316Y0116138D01*
X0008304Y0116469D01*
X0008300Y0116800D01*
X0020300Y0090050D02*
X0021800Y0090050D01*
X0022300Y0089550D01*
X0041300Y0089550D01*
X0041800Y0090050D01*
X0043300Y0090050D01*
X0043360Y0090048D01*
X0043421Y0090043D01*
X0043480Y0090034D01*
X0043539Y0090021D01*
X0043598Y0090005D01*
X0043655Y0089985D01*
X0043710Y0089962D01*
X0043765Y0089935D01*
X0043817Y0089906D01*
X0043868Y0089873D01*
X0043917Y0089837D01*
X0043963Y0089799D01*
X0044007Y0089757D01*
X0044049Y0089713D01*
X0044087Y0089667D01*
X0044123Y0089618D01*
X0044156Y0089567D01*
X0044185Y0089515D01*
X0044212Y0089460D01*
X0044235Y0089405D01*
X0044255Y0089348D01*
X0044271Y0089289D01*
X0044284Y0089230D01*
X0044293Y0089171D01*
X0044298Y0089110D01*
X0044300Y0089050D01*
X0044300Y0082050D01*
X0044298Y0081990D01*
X0044293Y0081929D01*
X0044284Y0081870D01*
X0044271Y0081811D01*
X0044255Y0081752D01*
X0044235Y0081695D01*
X0044212Y0081640D01*
X0044185Y0081585D01*
X0044156Y0081533D01*
X0044123Y0081482D01*
X0044087Y0081433D01*
X0044049Y0081387D01*
X0044007Y0081343D01*
X0043963Y0081301D01*
X0043917Y0081263D01*
X0043868Y0081227D01*
X0043817Y0081194D01*
X0043765Y0081165D01*
X0043710Y0081138D01*
X0043655Y0081115D01*
X0043598Y0081095D01*
X0043539Y0081079D01*
X0043480Y0081066D01*
X0043421Y0081057D01*
X0043360Y0081052D01*
X0043300Y0081050D01*
X0041800Y0081050D01*
X0041300Y0081550D01*
X0022300Y0081550D01*
X0021800Y0081050D01*
X0020300Y0081050D01*
X0020240Y0081052D01*
X0020179Y0081057D01*
X0020120Y0081066D01*
X0020061Y0081079D01*
X0020002Y0081095D01*
X0019945Y0081115D01*
X0019890Y0081138D01*
X0019835Y0081165D01*
X0019783Y0081194D01*
X0019732Y0081227D01*
X0019683Y0081263D01*
X0019637Y0081301D01*
X0019593Y0081343D01*
X0019551Y0081387D01*
X0019513Y0081433D01*
X0019477Y0081482D01*
X0019444Y0081533D01*
X0019415Y0081585D01*
X0019388Y0081640D01*
X0019365Y0081695D01*
X0019345Y0081752D01*
X0019329Y0081811D01*
X0019316Y0081870D01*
X0019307Y0081929D01*
X0019302Y0081990D01*
X0019300Y0082050D01*
X0019300Y0089050D01*
X0019302Y0089110D01*
X0019307Y0089171D01*
X0019316Y0089230D01*
X0019329Y0089289D01*
X0019345Y0089348D01*
X0019365Y0089405D01*
X0019388Y0089460D01*
X0019415Y0089515D01*
X0019444Y0089567D01*
X0019477Y0089618D01*
X0019513Y0089667D01*
X0019551Y0089713D01*
X0019593Y0089757D01*
X0019637Y0089799D01*
X0019683Y0089837D01*
X0019732Y0089873D01*
X0019783Y0089906D01*
X0019835Y0089935D01*
X0019890Y0089962D01*
X0019945Y0089985D01*
X0020002Y0090005D01*
X0020061Y0090021D01*
X0020120Y0090034D01*
X0020179Y0090043D01*
X0020240Y0090048D01*
X0020300Y0090050D01*
X0020300Y0076300D02*
X0021800Y0076300D01*
X0022300Y0075800D01*
X0041300Y0075800D01*
X0041800Y0076300D01*
X0043300Y0076300D01*
X0043360Y0076298D01*
X0043421Y0076293D01*
X0043480Y0076284D01*
X0043539Y0076271D01*
X0043598Y0076255D01*
X0043655Y0076235D01*
X0043710Y0076212D01*
X0043765Y0076185D01*
X0043817Y0076156D01*
X0043868Y0076123D01*
X0043917Y0076087D01*
X0043963Y0076049D01*
X0044007Y0076007D01*
X0044049Y0075963D01*
X0044087Y0075917D01*
X0044123Y0075868D01*
X0044156Y0075817D01*
X0044185Y0075765D01*
X0044212Y0075710D01*
X0044235Y0075655D01*
X0044255Y0075598D01*
X0044271Y0075539D01*
X0044284Y0075480D01*
X0044293Y0075421D01*
X0044298Y0075360D01*
X0044300Y0075300D01*
X0044300Y0068300D01*
X0044298Y0068240D01*
X0044293Y0068179D01*
X0044284Y0068120D01*
X0044271Y0068061D01*
X0044255Y0068002D01*
X0044235Y0067945D01*
X0044212Y0067890D01*
X0044185Y0067835D01*
X0044156Y0067783D01*
X0044123Y0067732D01*
X0044087Y0067683D01*
X0044049Y0067637D01*
X0044007Y0067593D01*
X0043963Y0067551D01*
X0043917Y0067513D01*
X0043868Y0067477D01*
X0043817Y0067444D01*
X0043765Y0067415D01*
X0043710Y0067388D01*
X0043655Y0067365D01*
X0043598Y0067345D01*
X0043539Y0067329D01*
X0043480Y0067316D01*
X0043421Y0067307D01*
X0043360Y0067302D01*
X0043300Y0067300D01*
X0041800Y0067300D01*
X0041300Y0067800D01*
X0022300Y0067800D01*
X0021800Y0067300D01*
X0020300Y0067300D01*
X0020240Y0067302D01*
X0020179Y0067307D01*
X0020120Y0067316D01*
X0020061Y0067329D01*
X0020002Y0067345D01*
X0019945Y0067365D01*
X0019890Y0067388D01*
X0019835Y0067415D01*
X0019783Y0067444D01*
X0019732Y0067477D01*
X0019683Y0067513D01*
X0019637Y0067551D01*
X0019593Y0067593D01*
X0019551Y0067637D01*
X0019513Y0067683D01*
X0019477Y0067732D01*
X0019444Y0067783D01*
X0019415Y0067835D01*
X0019388Y0067890D01*
X0019365Y0067945D01*
X0019345Y0068002D01*
X0019329Y0068061D01*
X0019316Y0068120D01*
X0019307Y0068179D01*
X0019302Y0068240D01*
X0019300Y0068300D01*
X0019300Y0075300D01*
X0019302Y0075360D01*
X0019307Y0075421D01*
X0019316Y0075480D01*
X0019329Y0075539D01*
X0019345Y0075598D01*
X0019365Y0075655D01*
X0019388Y0075710D01*
X0019415Y0075765D01*
X0019444Y0075817D01*
X0019477Y0075868D01*
X0019513Y0075917D01*
X0019551Y0075963D01*
X0019593Y0076007D01*
X0019637Y0076049D01*
X0019683Y0076087D01*
X0019732Y0076123D01*
X0019783Y0076156D01*
X0019835Y0076185D01*
X0019890Y0076212D01*
X0019945Y0076235D01*
X0020002Y0076255D01*
X0020061Y0076271D01*
X0020120Y0076284D01*
X0020179Y0076293D01*
X0020240Y0076298D01*
X0020300Y0076300D01*
X0059300Y0075800D02*
X0059300Y0083300D01*
X0139300Y0083300D01*
X0139300Y0060300D01*
X0059300Y0060300D01*
X0059300Y0067800D01*
X0059426Y0067802D01*
X0059551Y0067808D01*
X0059676Y0067818D01*
X0059801Y0067832D01*
X0059926Y0067849D01*
X0060050Y0067871D01*
X0060173Y0067896D01*
X0060295Y0067926D01*
X0060416Y0067959D01*
X0060536Y0067996D01*
X0060655Y0068036D01*
X0060772Y0068081D01*
X0060889Y0068129D01*
X0061003Y0068181D01*
X0061116Y0068236D01*
X0061227Y0068295D01*
X0061336Y0068357D01*
X0061443Y0068423D01*
X0061548Y0068492D01*
X0061651Y0068564D01*
X0061752Y0068639D01*
X0061850Y0068718D01*
X0061945Y0068800D01*
X0062038Y0068884D01*
X0062128Y0068972D01*
X0062216Y0069062D01*
X0062300Y0069155D01*
X0062382Y0069250D01*
X0062461Y0069348D01*
X0062536Y0069449D01*
X0062608Y0069552D01*
X0062677Y0069657D01*
X0062743Y0069764D01*
X0062805Y0069873D01*
X0062864Y0069984D01*
X0062919Y0070097D01*
X0062971Y0070211D01*
X0063019Y0070328D01*
X0063064Y0070445D01*
X0063104Y0070564D01*
X0063141Y0070684D01*
X0063174Y0070805D01*
X0063204Y0070927D01*
X0063229Y0071050D01*
X0063251Y0071174D01*
X0063268Y0071299D01*
X0063282Y0071424D01*
X0063292Y0071549D01*
X0063298Y0071674D01*
X0063300Y0071800D01*
X0063298Y0071926D01*
X0063292Y0072051D01*
X0063282Y0072176D01*
X0063268Y0072301D01*
X0063251Y0072426D01*
X0063229Y0072550D01*
X0063204Y0072673D01*
X0063174Y0072795D01*
X0063141Y0072916D01*
X0063104Y0073036D01*
X0063064Y0073155D01*
X0063019Y0073272D01*
X0062971Y0073389D01*
X0062919Y0073503D01*
X0062864Y0073616D01*
X0062805Y0073727D01*
X0062743Y0073836D01*
X0062677Y0073943D01*
X0062608Y0074048D01*
X0062536Y0074151D01*
X0062461Y0074252D01*
X0062382Y0074350D01*
X0062300Y0074445D01*
X0062216Y0074538D01*
X0062128Y0074628D01*
X0062038Y0074716D01*
X0061945Y0074800D01*
X0061850Y0074882D01*
X0061752Y0074961D01*
X0061651Y0075036D01*
X0061548Y0075108D01*
X0061443Y0075177D01*
X0061336Y0075243D01*
X0061227Y0075305D01*
X0061116Y0075364D01*
X0061003Y0075419D01*
X0060889Y0075471D01*
X0060772Y0075519D01*
X0060655Y0075564D01*
X0060536Y0075604D01*
X0060416Y0075641D01*
X0060295Y0075674D01*
X0060173Y0075704D01*
X0060050Y0075729D01*
X0059926Y0075751D01*
X0059801Y0075768D01*
X0059676Y0075782D01*
X0059551Y0075792D01*
X0059426Y0075798D01*
X0059300Y0075800D01*
X0117143Y0100398D02*
X0156442Y0100398D01*
X0144643Y0105600D02*
X0144645Y0105689D01*
X0144651Y0105778D01*
X0144661Y0105867D01*
X0144675Y0105955D01*
X0144692Y0106042D01*
X0144714Y0106128D01*
X0144740Y0106214D01*
X0144769Y0106298D01*
X0144802Y0106381D01*
X0144838Y0106462D01*
X0144879Y0106542D01*
X0144922Y0106619D01*
X0144969Y0106695D01*
X0145020Y0106768D01*
X0145073Y0106839D01*
X0145130Y0106908D01*
X0145190Y0106974D01*
X0145253Y0107038D01*
X0145318Y0107098D01*
X0145386Y0107156D01*
X0145457Y0107210D01*
X0145530Y0107261D01*
X0145605Y0107309D01*
X0145682Y0107354D01*
X0145761Y0107395D01*
X0145842Y0107432D01*
X0145924Y0107466D01*
X0146008Y0107497D01*
X0146093Y0107523D01*
X0146179Y0107546D01*
X0146266Y0107564D01*
X0146354Y0107579D01*
X0146443Y0107590D01*
X0146532Y0107597D01*
X0146621Y0107600D01*
X0146710Y0107599D01*
X0146799Y0107594D01*
X0146887Y0107585D01*
X0146976Y0107572D01*
X0147063Y0107555D01*
X0147150Y0107535D01*
X0147236Y0107510D01*
X0147320Y0107482D01*
X0147403Y0107450D01*
X0147485Y0107414D01*
X0147565Y0107375D01*
X0147643Y0107332D01*
X0147719Y0107286D01*
X0147793Y0107236D01*
X0147865Y0107183D01*
X0147934Y0107127D01*
X0148001Y0107068D01*
X0148065Y0107006D01*
X0148126Y0106942D01*
X0148185Y0106874D01*
X0148240Y0106804D01*
X0148292Y0106732D01*
X0148341Y0106657D01*
X0148386Y0106581D01*
X0148428Y0106502D01*
X0148466Y0106422D01*
X0148501Y0106340D01*
X0148532Y0106256D01*
X0148560Y0106171D01*
X0148583Y0106085D01*
X0148603Y0105998D01*
X0148619Y0105911D01*
X0148631Y0105822D01*
X0148639Y0105734D01*
X0148643Y0105645D01*
X0148643Y0105555D01*
X0148639Y0105466D01*
X0148631Y0105378D01*
X0148619Y0105289D01*
X0148603Y0105202D01*
X0148583Y0105115D01*
X0148560Y0105029D01*
X0148532Y0104944D01*
X0148501Y0104860D01*
X0148466Y0104778D01*
X0148428Y0104698D01*
X0148386Y0104619D01*
X0148341Y0104543D01*
X0148292Y0104468D01*
X0148240Y0104396D01*
X0148185Y0104326D01*
X0148126Y0104258D01*
X0148065Y0104194D01*
X0148001Y0104132D01*
X0147934Y0104073D01*
X0147865Y0104017D01*
X0147793Y0103964D01*
X0147719Y0103914D01*
X0147643Y0103868D01*
X0147565Y0103825D01*
X0147485Y0103786D01*
X0147403Y0103750D01*
X0147320Y0103718D01*
X0147236Y0103690D01*
X0147150Y0103665D01*
X0147063Y0103645D01*
X0146976Y0103628D01*
X0146887Y0103615D01*
X0146799Y0103606D01*
X0146710Y0103601D01*
X0146621Y0103600D01*
X0146532Y0103603D01*
X0146443Y0103610D01*
X0146354Y0103621D01*
X0146266Y0103636D01*
X0146179Y0103654D01*
X0146093Y0103677D01*
X0146008Y0103703D01*
X0145924Y0103734D01*
X0145842Y0103768D01*
X0145761Y0103805D01*
X0145682Y0103846D01*
X0145605Y0103891D01*
X0145530Y0103939D01*
X0145457Y0103990D01*
X0145386Y0104044D01*
X0145318Y0104102D01*
X0145253Y0104162D01*
X0145190Y0104226D01*
X0145130Y0104292D01*
X0145073Y0104361D01*
X0145020Y0104432D01*
X0144969Y0104505D01*
X0144922Y0104581D01*
X0144879Y0104658D01*
X0144838Y0104738D01*
X0144802Y0104819D01*
X0144769Y0104902D01*
X0144740Y0104986D01*
X0144714Y0105072D01*
X0144692Y0105158D01*
X0144675Y0105245D01*
X0144661Y0105333D01*
X0144651Y0105422D01*
X0144645Y0105511D01*
X0144643Y0105600D01*
X0124943Y0105600D02*
X0124945Y0105689D01*
X0124951Y0105778D01*
X0124961Y0105867D01*
X0124975Y0105955D01*
X0124992Y0106042D01*
X0125014Y0106128D01*
X0125040Y0106214D01*
X0125069Y0106298D01*
X0125102Y0106381D01*
X0125138Y0106462D01*
X0125179Y0106542D01*
X0125222Y0106619D01*
X0125269Y0106695D01*
X0125320Y0106768D01*
X0125373Y0106839D01*
X0125430Y0106908D01*
X0125490Y0106974D01*
X0125553Y0107038D01*
X0125618Y0107098D01*
X0125686Y0107156D01*
X0125757Y0107210D01*
X0125830Y0107261D01*
X0125905Y0107309D01*
X0125982Y0107354D01*
X0126061Y0107395D01*
X0126142Y0107432D01*
X0126224Y0107466D01*
X0126308Y0107497D01*
X0126393Y0107523D01*
X0126479Y0107546D01*
X0126566Y0107564D01*
X0126654Y0107579D01*
X0126743Y0107590D01*
X0126832Y0107597D01*
X0126921Y0107600D01*
X0127010Y0107599D01*
X0127099Y0107594D01*
X0127187Y0107585D01*
X0127276Y0107572D01*
X0127363Y0107555D01*
X0127450Y0107535D01*
X0127536Y0107510D01*
X0127620Y0107482D01*
X0127703Y0107450D01*
X0127785Y0107414D01*
X0127865Y0107375D01*
X0127943Y0107332D01*
X0128019Y0107286D01*
X0128093Y0107236D01*
X0128165Y0107183D01*
X0128234Y0107127D01*
X0128301Y0107068D01*
X0128365Y0107006D01*
X0128426Y0106942D01*
X0128485Y0106874D01*
X0128540Y0106804D01*
X0128592Y0106732D01*
X0128641Y0106657D01*
X0128686Y0106581D01*
X0128728Y0106502D01*
X0128766Y0106422D01*
X0128801Y0106340D01*
X0128832Y0106256D01*
X0128860Y0106171D01*
X0128883Y0106085D01*
X0128903Y0105998D01*
X0128919Y0105911D01*
X0128931Y0105822D01*
X0128939Y0105734D01*
X0128943Y0105645D01*
X0128943Y0105555D01*
X0128939Y0105466D01*
X0128931Y0105378D01*
X0128919Y0105289D01*
X0128903Y0105202D01*
X0128883Y0105115D01*
X0128860Y0105029D01*
X0128832Y0104944D01*
X0128801Y0104860D01*
X0128766Y0104778D01*
X0128728Y0104698D01*
X0128686Y0104619D01*
X0128641Y0104543D01*
X0128592Y0104468D01*
X0128540Y0104396D01*
X0128485Y0104326D01*
X0128426Y0104258D01*
X0128365Y0104194D01*
X0128301Y0104132D01*
X0128234Y0104073D01*
X0128165Y0104017D01*
X0128093Y0103964D01*
X0128019Y0103914D01*
X0127943Y0103868D01*
X0127865Y0103825D01*
X0127785Y0103786D01*
X0127703Y0103750D01*
X0127620Y0103718D01*
X0127536Y0103690D01*
X0127450Y0103665D01*
X0127363Y0103645D01*
X0127276Y0103628D01*
X0127187Y0103615D01*
X0127099Y0103606D01*
X0127010Y0103601D01*
X0126921Y0103600D01*
X0126832Y0103603D01*
X0126743Y0103610D01*
X0126654Y0103621D01*
X0126566Y0103636D01*
X0126479Y0103654D01*
X0126393Y0103677D01*
X0126308Y0103703D01*
X0126224Y0103734D01*
X0126142Y0103768D01*
X0126061Y0103805D01*
X0125982Y0103846D01*
X0125905Y0103891D01*
X0125830Y0103939D01*
X0125757Y0103990D01*
X0125686Y0104044D01*
X0125618Y0104102D01*
X0125553Y0104162D01*
X0125490Y0104226D01*
X0125430Y0104292D01*
X0125373Y0104361D01*
X0125320Y0104432D01*
X0125269Y0104505D01*
X0125222Y0104581D01*
X0125179Y0104658D01*
X0125138Y0104738D01*
X0125102Y0104819D01*
X0125069Y0104902D01*
X0125040Y0104986D01*
X0125014Y0105072D01*
X0124992Y0105158D01*
X0124975Y0105245D01*
X0124961Y0105333D01*
X0124951Y0105422D01*
X0124945Y0105511D01*
X0124943Y0105600D01*
X0144300Y0083300D02*
X0144300Y0075800D01*
X0144426Y0075798D01*
X0144551Y0075792D01*
X0144676Y0075782D01*
X0144801Y0075768D01*
X0144926Y0075751D01*
X0145050Y0075729D01*
X0145173Y0075704D01*
X0145295Y0075674D01*
X0145416Y0075641D01*
X0145536Y0075604D01*
X0145655Y0075564D01*
X0145772Y0075519D01*
X0145889Y0075471D01*
X0146003Y0075419D01*
X0146116Y0075364D01*
X0146227Y0075305D01*
X0146336Y0075243D01*
X0146443Y0075177D01*
X0146548Y0075108D01*
X0146651Y0075036D01*
X0146752Y0074961D01*
X0146850Y0074882D01*
X0146945Y0074800D01*
X0147038Y0074716D01*
X0147128Y0074628D01*
X0147216Y0074538D01*
X0147300Y0074445D01*
X0147382Y0074350D01*
X0147461Y0074252D01*
X0147536Y0074151D01*
X0147608Y0074048D01*
X0147677Y0073943D01*
X0147743Y0073836D01*
X0147805Y0073727D01*
X0147864Y0073616D01*
X0147919Y0073503D01*
X0147971Y0073389D01*
X0148019Y0073272D01*
X0148064Y0073155D01*
X0148104Y0073036D01*
X0148141Y0072916D01*
X0148174Y0072795D01*
X0148204Y0072673D01*
X0148229Y0072550D01*
X0148251Y0072426D01*
X0148268Y0072301D01*
X0148282Y0072176D01*
X0148292Y0072051D01*
X0148298Y0071926D01*
X0148300Y0071800D01*
X0148298Y0071674D01*
X0148292Y0071549D01*
X0148282Y0071424D01*
X0148268Y0071299D01*
X0148251Y0071174D01*
X0148229Y0071050D01*
X0148204Y0070927D01*
X0148174Y0070805D01*
X0148141Y0070684D01*
X0148104Y0070564D01*
X0148064Y0070445D01*
X0148019Y0070328D01*
X0147971Y0070211D01*
X0147919Y0070097D01*
X0147864Y0069984D01*
X0147805Y0069873D01*
X0147743Y0069764D01*
X0147677Y0069657D01*
X0147608Y0069552D01*
X0147536Y0069449D01*
X0147461Y0069348D01*
X0147382Y0069250D01*
X0147300Y0069155D01*
X0147216Y0069062D01*
X0147128Y0068972D01*
X0147038Y0068884D01*
X0146945Y0068800D01*
X0146850Y0068718D01*
X0146752Y0068639D01*
X0146651Y0068564D01*
X0146548Y0068492D01*
X0146443Y0068423D01*
X0146336Y0068357D01*
X0146227Y0068295D01*
X0146116Y0068236D01*
X0146003Y0068181D01*
X0145889Y0068129D01*
X0145772Y0068081D01*
X0145655Y0068036D01*
X0145536Y0067996D01*
X0145416Y0067959D01*
X0145295Y0067926D01*
X0145173Y0067896D01*
X0145050Y0067871D01*
X0144926Y0067849D01*
X0144801Y0067832D01*
X0144676Y0067818D01*
X0144551Y0067808D01*
X0144426Y0067802D01*
X0144300Y0067800D01*
X0144300Y0060300D01*
X0224300Y0060300D01*
X0224300Y0083300D01*
X0144300Y0083300D01*
X0149300Y0041800D02*
X0154300Y0041800D01*
X0156800Y0039300D01*
X0156800Y0024300D01*
X0154300Y0021800D01*
X0149300Y0021800D01*
X0146800Y0024300D01*
X0146800Y0039300D01*
X0149300Y0041800D01*
X0156800Y0039300D02*
X0159300Y0041800D01*
X0164300Y0041800D01*
X0166800Y0039300D01*
X0166800Y0024300D01*
X0164300Y0021800D01*
X0159300Y0021800D01*
X0156800Y0024300D01*
X0166800Y0024300D02*
X0169300Y0021800D01*
X0174300Y0021800D01*
X0176800Y0024300D01*
X0176800Y0039300D01*
X0174300Y0041800D01*
X0169300Y0041800D01*
X0166800Y0039300D01*
X0176800Y0039300D02*
X0179300Y0041800D01*
X0184300Y0041800D01*
X0186800Y0039300D01*
X0186800Y0024300D01*
X0184300Y0021800D01*
X0179300Y0021800D01*
X0176800Y0024300D01*
X0176800Y0029300D02*
X0176800Y0014300D01*
X0174300Y0011800D01*
X0169300Y0011800D01*
X0166800Y0014300D01*
X0166800Y0029300D01*
X0164300Y0031800D01*
X0159300Y0031800D01*
X0156800Y0029300D01*
X0154300Y0031800D01*
X0149300Y0031800D01*
X0146800Y0029300D01*
X0146800Y0014300D01*
X0149300Y0011800D01*
X0154300Y0011800D01*
X0156800Y0014300D01*
X0156800Y0029300D01*
X0166800Y0029300D02*
X0169300Y0031800D01*
X0174300Y0031800D01*
X0176800Y0029300D01*
X0179300Y0031800D01*
X0184300Y0031800D01*
X0186800Y0029300D01*
X0186800Y0014300D01*
X0184300Y0011800D01*
X0179300Y0011800D01*
X0176800Y0014300D01*
X0166800Y0014300D02*
X0164300Y0011800D01*
X0159300Y0011800D01*
X0156800Y0014300D01*
X0126800Y0014300D02*
X0126800Y0029300D01*
X0124300Y0031800D01*
X0119300Y0031800D01*
X0116800Y0029300D01*
X0116800Y0014300D01*
X0114300Y0011800D01*
X0109300Y0011800D01*
X0106800Y0014300D01*
X0106800Y0029300D01*
X0104300Y0031800D01*
X0099300Y0031800D01*
X0096800Y0029300D01*
X0094300Y0031800D01*
X0089300Y0031800D01*
X0086800Y0029300D01*
X0086800Y0014300D01*
X0089300Y0011800D01*
X0094300Y0011800D01*
X0096800Y0014300D01*
X0096800Y0029300D01*
X0106800Y0029300D02*
X0109300Y0031800D01*
X0114300Y0031800D01*
X0116800Y0029300D01*
X0116800Y0024300D02*
X0116800Y0039300D01*
X0114300Y0041800D01*
X0109300Y0041800D01*
X0106800Y0039300D01*
X0106800Y0024300D01*
X0104300Y0021800D01*
X0099300Y0021800D01*
X0096800Y0024300D01*
X0094300Y0021800D01*
X0089300Y0021800D01*
X0086800Y0024300D01*
X0086800Y0039300D01*
X0089300Y0041800D01*
X0094300Y0041800D01*
X0096800Y0039300D01*
X0096800Y0024300D01*
X0106800Y0024300D02*
X0109300Y0021800D01*
X0114300Y0021800D01*
X0116800Y0024300D01*
X0119300Y0021800D01*
X0124300Y0021800D01*
X0126800Y0024300D01*
X0126800Y0039300D01*
X0124300Y0041800D01*
X0119300Y0041800D01*
X0116800Y0039300D01*
X0106800Y0039300D02*
X0104300Y0041800D01*
X0099300Y0041800D01*
X0096800Y0039300D01*
X0081800Y0039300D02*
X0081800Y0024300D01*
X0079300Y0021800D01*
X0074300Y0021800D01*
X0071800Y0024300D01*
X0071800Y0039300D01*
X0069300Y0041800D01*
X0064300Y0041800D01*
X0061800Y0039300D01*
X0061800Y0024300D01*
X0059300Y0021800D01*
X0054300Y0021800D01*
X0051800Y0024300D01*
X0049300Y0021800D01*
X0044300Y0021800D01*
X0041800Y0024300D01*
X0041800Y0039300D01*
X0044300Y0041800D01*
X0049300Y0041800D01*
X0051800Y0039300D01*
X0051800Y0024300D01*
X0061800Y0024300D02*
X0064300Y0021800D01*
X0069300Y0021800D01*
X0071800Y0024300D01*
X0071800Y0029300D02*
X0071800Y0014300D01*
X0069300Y0011800D01*
X0064300Y0011800D01*
X0061800Y0014300D01*
X0061800Y0029300D01*
X0059300Y0031800D01*
X0054300Y0031800D01*
X0051800Y0029300D01*
X0049300Y0031800D01*
X0044300Y0031800D01*
X0041800Y0029300D01*
X0041800Y0014300D01*
X0044300Y0011800D01*
X0049300Y0011800D01*
X0051800Y0014300D01*
X0051800Y0029300D01*
X0061800Y0029300D02*
X0064300Y0031800D01*
X0069300Y0031800D01*
X0071800Y0029300D01*
X0074300Y0031800D01*
X0079300Y0031800D01*
X0081800Y0029300D01*
X0081800Y0014300D01*
X0079300Y0011800D01*
X0074300Y0011800D01*
X0071800Y0014300D01*
X0061800Y0014300D02*
X0059300Y0011800D01*
X0054300Y0011800D01*
X0051800Y0014300D01*
X0008300Y0021800D02*
X0008304Y0022131D01*
X0008316Y0022462D01*
X0008337Y0022793D01*
X0008365Y0023123D01*
X0008402Y0023453D01*
X0008446Y0023781D01*
X0008499Y0024108D01*
X0008559Y0024434D01*
X0008628Y0024758D01*
X0008705Y0025080D01*
X0008789Y0025401D01*
X0008881Y0025719D01*
X0008981Y0026035D01*
X0009089Y0026348D01*
X0009205Y0026659D01*
X0009328Y0026966D01*
X0009458Y0027271D01*
X0009596Y0027572D01*
X0009741Y0027870D01*
X0009894Y0028164D01*
X0010054Y0028454D01*
X0010221Y0028740D01*
X0010394Y0029022D01*
X0010575Y0029300D01*
X0010763Y0029573D01*
X0010957Y0029842D01*
X0011157Y0030106D01*
X0011364Y0030364D01*
X0011578Y0030618D01*
X0011797Y0030866D01*
X0012023Y0031109D01*
X0012254Y0031346D01*
X0012491Y0031577D01*
X0012734Y0031803D01*
X0012982Y0032022D01*
X0013236Y0032236D01*
X0013494Y0032443D01*
X0013758Y0032643D01*
X0014027Y0032837D01*
X0014300Y0033025D01*
X0014578Y0033206D01*
X0014860Y0033379D01*
X0015146Y0033546D01*
X0015436Y0033706D01*
X0015730Y0033859D01*
X0016028Y0034004D01*
X0016329Y0034142D01*
X0016634Y0034272D01*
X0016941Y0034395D01*
X0017252Y0034511D01*
X0017565Y0034619D01*
X0017881Y0034719D01*
X0018199Y0034811D01*
X0018520Y0034895D01*
X0018842Y0034972D01*
X0019166Y0035041D01*
X0019492Y0035101D01*
X0019819Y0035154D01*
X0020147Y0035198D01*
X0020477Y0035235D01*
X0020807Y0035263D01*
X0021138Y0035284D01*
X0021469Y0035296D01*
X0021800Y0035300D01*
X0022131Y0035296D01*
X0022462Y0035284D01*
X0022793Y0035263D01*
X0023123Y0035235D01*
X0023453Y0035198D01*
X0023781Y0035154D01*
X0024108Y0035101D01*
X0024434Y0035041D01*
X0024758Y0034972D01*
X0025080Y0034895D01*
X0025401Y0034811D01*
X0025719Y0034719D01*
X0026035Y0034619D01*
X0026348Y0034511D01*
X0026659Y0034395D01*
X0026966Y0034272D01*
X0027271Y0034142D01*
X0027572Y0034004D01*
X0027870Y0033859D01*
X0028164Y0033706D01*
X0028454Y0033546D01*
X0028740Y0033379D01*
X0029022Y0033206D01*
X0029300Y0033025D01*
X0029573Y0032837D01*
X0029842Y0032643D01*
X0030106Y0032443D01*
X0030364Y0032236D01*
X0030618Y0032022D01*
X0030866Y0031803D01*
X0031109Y0031577D01*
X0031346Y0031346D01*
X0031577Y0031109D01*
X0031803Y0030866D01*
X0032022Y0030618D01*
X0032236Y0030364D01*
X0032443Y0030106D01*
X0032643Y0029842D01*
X0032837Y0029573D01*
X0033025Y0029300D01*
X0033206Y0029022D01*
X0033379Y0028740D01*
X0033546Y0028454D01*
X0033706Y0028164D01*
X0033859Y0027870D01*
X0034004Y0027572D01*
X0034142Y0027271D01*
X0034272Y0026966D01*
X0034395Y0026659D01*
X0034511Y0026348D01*
X0034619Y0026035D01*
X0034719Y0025719D01*
X0034811Y0025401D01*
X0034895Y0025080D01*
X0034972Y0024758D01*
X0035041Y0024434D01*
X0035101Y0024108D01*
X0035154Y0023781D01*
X0035198Y0023453D01*
X0035235Y0023123D01*
X0035263Y0022793D01*
X0035284Y0022462D01*
X0035296Y0022131D01*
X0035300Y0021800D01*
X0035296Y0021469D01*
X0035284Y0021138D01*
X0035263Y0020807D01*
X0035235Y0020477D01*
X0035198Y0020147D01*
X0035154Y0019819D01*
X0035101Y0019492D01*
X0035041Y0019166D01*
X0034972Y0018842D01*
X0034895Y0018520D01*
X0034811Y0018199D01*
X0034719Y0017881D01*
X0034619Y0017565D01*
X0034511Y0017252D01*
X0034395Y0016941D01*
X0034272Y0016634D01*
X0034142Y0016329D01*
X0034004Y0016028D01*
X0033859Y0015730D01*
X0033706Y0015436D01*
X0033546Y0015146D01*
X0033379Y0014860D01*
X0033206Y0014578D01*
X0033025Y0014300D01*
X0032837Y0014027D01*
X0032643Y0013758D01*
X0032443Y0013494D01*
X0032236Y0013236D01*
X0032022Y0012982D01*
X0031803Y0012734D01*
X0031577Y0012491D01*
X0031346Y0012254D01*
X0031109Y0012023D01*
X0030866Y0011797D01*
X0030618Y0011578D01*
X0030364Y0011364D01*
X0030106Y0011157D01*
X0029842Y0010957D01*
X0029573Y0010763D01*
X0029300Y0010575D01*
X0029022Y0010394D01*
X0028740Y0010221D01*
X0028454Y0010054D01*
X0028164Y0009894D01*
X0027870Y0009741D01*
X0027572Y0009596D01*
X0027271Y0009458D01*
X0026966Y0009328D01*
X0026659Y0009205D01*
X0026348Y0009089D01*
X0026035Y0008981D01*
X0025719Y0008881D01*
X0025401Y0008789D01*
X0025080Y0008705D01*
X0024758Y0008628D01*
X0024434Y0008559D01*
X0024108Y0008499D01*
X0023781Y0008446D01*
X0023453Y0008402D01*
X0023123Y0008365D01*
X0022793Y0008337D01*
X0022462Y0008316D01*
X0022131Y0008304D01*
X0021800Y0008300D01*
X0021469Y0008304D01*
X0021138Y0008316D01*
X0020807Y0008337D01*
X0020477Y0008365D01*
X0020147Y0008402D01*
X0019819Y0008446D01*
X0019492Y0008499D01*
X0019166Y0008559D01*
X0018842Y0008628D01*
X0018520Y0008705D01*
X0018199Y0008789D01*
X0017881Y0008881D01*
X0017565Y0008981D01*
X0017252Y0009089D01*
X0016941Y0009205D01*
X0016634Y0009328D01*
X0016329Y0009458D01*
X0016028Y0009596D01*
X0015730Y0009741D01*
X0015436Y0009894D01*
X0015146Y0010054D01*
X0014860Y0010221D01*
X0014578Y0010394D01*
X0014300Y0010575D01*
X0014027Y0010763D01*
X0013758Y0010957D01*
X0013494Y0011157D01*
X0013236Y0011364D01*
X0012982Y0011578D01*
X0012734Y0011797D01*
X0012491Y0012023D01*
X0012254Y0012254D01*
X0012023Y0012491D01*
X0011797Y0012734D01*
X0011578Y0012982D01*
X0011364Y0013236D01*
X0011157Y0013494D01*
X0010957Y0013758D01*
X0010763Y0014027D01*
X0010575Y0014300D01*
X0010394Y0014578D01*
X0010221Y0014860D01*
X0010054Y0015146D01*
X0009894Y0015436D01*
X0009741Y0015730D01*
X0009596Y0016028D01*
X0009458Y0016329D01*
X0009328Y0016634D01*
X0009205Y0016941D01*
X0009089Y0017252D01*
X0008981Y0017565D01*
X0008881Y0017881D01*
X0008789Y0018199D01*
X0008705Y0018520D01*
X0008628Y0018842D01*
X0008559Y0019166D01*
X0008499Y0019492D01*
X0008446Y0019819D01*
X0008402Y0020147D01*
X0008365Y0020477D01*
X0008337Y0020807D01*
X0008316Y0021138D01*
X0008304Y0021469D01*
X0008300Y0021800D01*
X0051800Y0039300D02*
X0054300Y0041800D01*
X0059300Y0041800D01*
X0061800Y0039300D01*
X0071800Y0039300D02*
X0074300Y0041800D01*
X0079300Y0041800D01*
X0081800Y0039300D01*
X0096800Y0014300D02*
X0099300Y0011800D01*
X0104300Y0011800D01*
X0106800Y0014300D01*
X0116800Y0014300D02*
X0119300Y0011800D01*
X0124300Y0011800D01*
X0126800Y0014300D01*
X0191800Y0014300D02*
X0191800Y0029300D01*
X0194300Y0031800D01*
X0199300Y0031800D01*
X0201800Y0029300D01*
X0201800Y0014300D01*
X0199300Y0011800D01*
X0194300Y0011800D01*
X0191800Y0014300D01*
X0201800Y0014300D02*
X0204300Y0011800D01*
X0209300Y0011800D01*
X0211800Y0014300D01*
X0211800Y0029300D01*
X0209300Y0031800D01*
X0204300Y0031800D01*
X0201800Y0029300D01*
X0211800Y0029300D02*
X0214300Y0031800D01*
X0219300Y0031800D01*
X0221800Y0029300D01*
X0221800Y0014300D01*
X0219300Y0011800D01*
X0214300Y0011800D01*
X0211800Y0014300D01*
X0221800Y0014300D02*
X0224300Y0011800D01*
X0229300Y0011800D01*
X0231800Y0014300D01*
X0231800Y0029300D01*
X0229300Y0031800D01*
X0224300Y0031800D01*
X0221800Y0029300D01*
X0221800Y0024300D02*
X0221800Y0039300D01*
X0219300Y0041800D01*
X0214300Y0041800D01*
X0211800Y0039300D01*
X0211800Y0024300D01*
X0209300Y0021800D01*
X0204300Y0021800D01*
X0201800Y0024300D01*
X0199300Y0021800D01*
X0194300Y0021800D01*
X0191800Y0024300D01*
X0191800Y0039300D01*
X0194300Y0041800D01*
X0199300Y0041800D01*
X0201800Y0039300D01*
X0201800Y0024300D01*
X0211800Y0024300D02*
X0214300Y0021800D01*
X0219300Y0021800D01*
X0221800Y0024300D01*
X0224300Y0021800D01*
X0229300Y0021800D01*
X0231800Y0024300D01*
X0231800Y0039300D01*
X0229300Y0041800D01*
X0224300Y0041800D01*
X0221800Y0039300D01*
X0211800Y0039300D02*
X0209300Y0041800D01*
X0204300Y0041800D01*
X0201800Y0039300D01*
X0234678Y0039816D02*
X0235477Y0039816D01*
X0235477Y0098816D01*
X0261477Y0098816D01*
X0270879Y0098816D01*
X0270879Y0039816D01*
X0261477Y0039816D01*
X0235477Y0039816D01*
X0234678Y0039816D02*
X0234678Y0098816D01*
X0235477Y0098816D01*
X0238679Y0089015D02*
X0238681Y0089104D01*
X0238687Y0089193D01*
X0238697Y0089282D01*
X0238711Y0089370D01*
X0238728Y0089457D01*
X0238750Y0089543D01*
X0238776Y0089629D01*
X0238805Y0089713D01*
X0238838Y0089796D01*
X0238874Y0089877D01*
X0238915Y0089957D01*
X0238958Y0090034D01*
X0239005Y0090110D01*
X0239056Y0090183D01*
X0239109Y0090254D01*
X0239166Y0090323D01*
X0239226Y0090389D01*
X0239289Y0090453D01*
X0239354Y0090513D01*
X0239422Y0090571D01*
X0239493Y0090625D01*
X0239566Y0090676D01*
X0239641Y0090724D01*
X0239718Y0090769D01*
X0239797Y0090810D01*
X0239878Y0090847D01*
X0239960Y0090881D01*
X0240044Y0090912D01*
X0240129Y0090938D01*
X0240215Y0090961D01*
X0240302Y0090979D01*
X0240390Y0090994D01*
X0240479Y0091005D01*
X0240568Y0091012D01*
X0240657Y0091015D01*
X0240746Y0091014D01*
X0240835Y0091009D01*
X0240923Y0091000D01*
X0241012Y0090987D01*
X0241099Y0090970D01*
X0241186Y0090950D01*
X0241272Y0090925D01*
X0241356Y0090897D01*
X0241439Y0090865D01*
X0241521Y0090829D01*
X0241601Y0090790D01*
X0241679Y0090747D01*
X0241755Y0090701D01*
X0241829Y0090651D01*
X0241901Y0090598D01*
X0241970Y0090542D01*
X0242037Y0090483D01*
X0242101Y0090421D01*
X0242162Y0090357D01*
X0242221Y0090289D01*
X0242276Y0090219D01*
X0242328Y0090147D01*
X0242377Y0090072D01*
X0242422Y0089996D01*
X0242464Y0089917D01*
X0242502Y0089837D01*
X0242537Y0089755D01*
X0242568Y0089671D01*
X0242596Y0089586D01*
X0242619Y0089500D01*
X0242639Y0089413D01*
X0242655Y0089326D01*
X0242667Y0089237D01*
X0242675Y0089149D01*
X0242679Y0089060D01*
X0242679Y0088970D01*
X0242675Y0088881D01*
X0242667Y0088793D01*
X0242655Y0088704D01*
X0242639Y0088617D01*
X0242619Y0088530D01*
X0242596Y0088444D01*
X0242568Y0088359D01*
X0242537Y0088275D01*
X0242502Y0088193D01*
X0242464Y0088113D01*
X0242422Y0088034D01*
X0242377Y0087958D01*
X0242328Y0087883D01*
X0242276Y0087811D01*
X0242221Y0087741D01*
X0242162Y0087673D01*
X0242101Y0087609D01*
X0242037Y0087547D01*
X0241970Y0087488D01*
X0241901Y0087432D01*
X0241829Y0087379D01*
X0241755Y0087329D01*
X0241679Y0087283D01*
X0241601Y0087240D01*
X0241521Y0087201D01*
X0241439Y0087165D01*
X0241356Y0087133D01*
X0241272Y0087105D01*
X0241186Y0087080D01*
X0241099Y0087060D01*
X0241012Y0087043D01*
X0240923Y0087030D01*
X0240835Y0087021D01*
X0240746Y0087016D01*
X0240657Y0087015D01*
X0240568Y0087018D01*
X0240479Y0087025D01*
X0240390Y0087036D01*
X0240302Y0087051D01*
X0240215Y0087069D01*
X0240129Y0087092D01*
X0240044Y0087118D01*
X0239960Y0087149D01*
X0239878Y0087183D01*
X0239797Y0087220D01*
X0239718Y0087261D01*
X0239641Y0087306D01*
X0239566Y0087354D01*
X0239493Y0087405D01*
X0239422Y0087459D01*
X0239354Y0087517D01*
X0239289Y0087577D01*
X0239226Y0087641D01*
X0239166Y0087707D01*
X0239109Y0087776D01*
X0239056Y0087847D01*
X0239005Y0087920D01*
X0238958Y0087996D01*
X0238915Y0088073D01*
X0238874Y0088153D01*
X0238838Y0088234D01*
X0238805Y0088317D01*
X0238776Y0088401D01*
X0238750Y0088487D01*
X0238728Y0088573D01*
X0238711Y0088660D01*
X0238697Y0088748D01*
X0238687Y0088837D01*
X0238681Y0088926D01*
X0238679Y0089015D01*
X0261477Y0085517D02*
X0261477Y0072816D01*
X0261477Y0065816D02*
X0261477Y0053115D01*
X0261477Y0046115D02*
X0261477Y0039816D01*
X0238679Y0049615D02*
X0238681Y0049704D01*
X0238687Y0049793D01*
X0238697Y0049882D01*
X0238711Y0049970D01*
X0238728Y0050057D01*
X0238750Y0050143D01*
X0238776Y0050229D01*
X0238805Y0050313D01*
X0238838Y0050396D01*
X0238874Y0050477D01*
X0238915Y0050557D01*
X0238958Y0050634D01*
X0239005Y0050710D01*
X0239056Y0050783D01*
X0239109Y0050854D01*
X0239166Y0050923D01*
X0239226Y0050989D01*
X0239289Y0051053D01*
X0239354Y0051113D01*
X0239422Y0051171D01*
X0239493Y0051225D01*
X0239566Y0051276D01*
X0239641Y0051324D01*
X0239718Y0051369D01*
X0239797Y0051410D01*
X0239878Y0051447D01*
X0239960Y0051481D01*
X0240044Y0051512D01*
X0240129Y0051538D01*
X0240215Y0051561D01*
X0240302Y0051579D01*
X0240390Y0051594D01*
X0240479Y0051605D01*
X0240568Y0051612D01*
X0240657Y0051615D01*
X0240746Y0051614D01*
X0240835Y0051609D01*
X0240923Y0051600D01*
X0241012Y0051587D01*
X0241099Y0051570D01*
X0241186Y0051550D01*
X0241272Y0051525D01*
X0241356Y0051497D01*
X0241439Y0051465D01*
X0241521Y0051429D01*
X0241601Y0051390D01*
X0241679Y0051347D01*
X0241755Y0051301D01*
X0241829Y0051251D01*
X0241901Y0051198D01*
X0241970Y0051142D01*
X0242037Y0051083D01*
X0242101Y0051021D01*
X0242162Y0050957D01*
X0242221Y0050889D01*
X0242276Y0050819D01*
X0242328Y0050747D01*
X0242377Y0050672D01*
X0242422Y0050596D01*
X0242464Y0050517D01*
X0242502Y0050437D01*
X0242537Y0050355D01*
X0242568Y0050271D01*
X0242596Y0050186D01*
X0242619Y0050100D01*
X0242639Y0050013D01*
X0242655Y0049926D01*
X0242667Y0049837D01*
X0242675Y0049749D01*
X0242679Y0049660D01*
X0242679Y0049570D01*
X0242675Y0049481D01*
X0242667Y0049393D01*
X0242655Y0049304D01*
X0242639Y0049217D01*
X0242619Y0049130D01*
X0242596Y0049044D01*
X0242568Y0048959D01*
X0242537Y0048875D01*
X0242502Y0048793D01*
X0242464Y0048713D01*
X0242422Y0048634D01*
X0242377Y0048558D01*
X0242328Y0048483D01*
X0242276Y0048411D01*
X0242221Y0048341D01*
X0242162Y0048273D01*
X0242101Y0048209D01*
X0242037Y0048147D01*
X0241970Y0048088D01*
X0241901Y0048032D01*
X0241829Y0047979D01*
X0241755Y0047929D01*
X0241679Y0047883D01*
X0241601Y0047840D01*
X0241521Y0047801D01*
X0241439Y0047765D01*
X0241356Y0047733D01*
X0241272Y0047705D01*
X0241186Y0047680D01*
X0241099Y0047660D01*
X0241012Y0047643D01*
X0240923Y0047630D01*
X0240835Y0047621D01*
X0240746Y0047616D01*
X0240657Y0047615D01*
X0240568Y0047618D01*
X0240479Y0047625D01*
X0240390Y0047636D01*
X0240302Y0047651D01*
X0240215Y0047669D01*
X0240129Y0047692D01*
X0240044Y0047718D01*
X0239960Y0047749D01*
X0239878Y0047783D01*
X0239797Y0047820D01*
X0239718Y0047861D01*
X0239641Y0047906D01*
X0239566Y0047954D01*
X0239493Y0048005D01*
X0239422Y0048059D01*
X0239354Y0048117D01*
X0239289Y0048177D01*
X0239226Y0048241D01*
X0239166Y0048307D01*
X0239109Y0048376D01*
X0239056Y0048447D01*
X0239005Y0048520D01*
X0238958Y0048596D01*
X0238915Y0048673D01*
X0238874Y0048753D01*
X0238838Y0048834D01*
X0238805Y0048917D01*
X0238776Y0049001D01*
X0238750Y0049087D01*
X0238728Y0049173D01*
X0238711Y0049260D01*
X0238697Y0049348D01*
X0238687Y0049437D01*
X0238681Y0049526D01*
X0238679Y0049615D01*
X0238679Y0069315D02*
X0238681Y0069404D01*
X0238687Y0069493D01*
X0238697Y0069582D01*
X0238711Y0069670D01*
X0238728Y0069757D01*
X0238750Y0069843D01*
X0238776Y0069929D01*
X0238805Y0070013D01*
X0238838Y0070096D01*
X0238874Y0070177D01*
X0238915Y0070257D01*
X0238958Y0070334D01*
X0239005Y0070410D01*
X0239056Y0070483D01*
X0239109Y0070554D01*
X0239166Y0070623D01*
X0239226Y0070689D01*
X0239289Y0070753D01*
X0239354Y0070813D01*
X0239422Y0070871D01*
X0239493Y0070925D01*
X0239566Y0070976D01*
X0239641Y0071024D01*
X0239718Y0071069D01*
X0239797Y0071110D01*
X0239878Y0071147D01*
X0239960Y0071181D01*
X0240044Y0071212D01*
X0240129Y0071238D01*
X0240215Y0071261D01*
X0240302Y0071279D01*
X0240390Y0071294D01*
X0240479Y0071305D01*
X0240568Y0071312D01*
X0240657Y0071315D01*
X0240746Y0071314D01*
X0240835Y0071309D01*
X0240923Y0071300D01*
X0241012Y0071287D01*
X0241099Y0071270D01*
X0241186Y0071250D01*
X0241272Y0071225D01*
X0241356Y0071197D01*
X0241439Y0071165D01*
X0241521Y0071129D01*
X0241601Y0071090D01*
X0241679Y0071047D01*
X0241755Y0071001D01*
X0241829Y0070951D01*
X0241901Y0070898D01*
X0241970Y0070842D01*
X0242037Y0070783D01*
X0242101Y0070721D01*
X0242162Y0070657D01*
X0242221Y0070589D01*
X0242276Y0070519D01*
X0242328Y0070447D01*
X0242377Y0070372D01*
X0242422Y0070296D01*
X0242464Y0070217D01*
X0242502Y0070137D01*
X0242537Y0070055D01*
X0242568Y0069971D01*
X0242596Y0069886D01*
X0242619Y0069800D01*
X0242639Y0069713D01*
X0242655Y0069626D01*
X0242667Y0069537D01*
X0242675Y0069449D01*
X0242679Y0069360D01*
X0242679Y0069270D01*
X0242675Y0069181D01*
X0242667Y0069093D01*
X0242655Y0069004D01*
X0242639Y0068917D01*
X0242619Y0068830D01*
X0242596Y0068744D01*
X0242568Y0068659D01*
X0242537Y0068575D01*
X0242502Y0068493D01*
X0242464Y0068413D01*
X0242422Y0068334D01*
X0242377Y0068258D01*
X0242328Y0068183D01*
X0242276Y0068111D01*
X0242221Y0068041D01*
X0242162Y0067973D01*
X0242101Y0067909D01*
X0242037Y0067847D01*
X0241970Y0067788D01*
X0241901Y0067732D01*
X0241829Y0067679D01*
X0241755Y0067629D01*
X0241679Y0067583D01*
X0241601Y0067540D01*
X0241521Y0067501D01*
X0241439Y0067465D01*
X0241356Y0067433D01*
X0241272Y0067405D01*
X0241186Y0067380D01*
X0241099Y0067360D01*
X0241012Y0067343D01*
X0240923Y0067330D01*
X0240835Y0067321D01*
X0240746Y0067316D01*
X0240657Y0067315D01*
X0240568Y0067318D01*
X0240479Y0067325D01*
X0240390Y0067336D01*
X0240302Y0067351D01*
X0240215Y0067369D01*
X0240129Y0067392D01*
X0240044Y0067418D01*
X0239960Y0067449D01*
X0239878Y0067483D01*
X0239797Y0067520D01*
X0239718Y0067561D01*
X0239641Y0067606D01*
X0239566Y0067654D01*
X0239493Y0067705D01*
X0239422Y0067759D01*
X0239354Y0067817D01*
X0239289Y0067877D01*
X0239226Y0067941D01*
X0239166Y0068007D01*
X0239109Y0068076D01*
X0239056Y0068147D01*
X0239005Y0068220D01*
X0238958Y0068296D01*
X0238915Y0068373D01*
X0238874Y0068453D01*
X0238838Y0068534D01*
X0238805Y0068617D01*
X0238776Y0068701D01*
X0238750Y0068787D01*
X0238728Y0068873D01*
X0238711Y0068960D01*
X0238697Y0069048D01*
X0238687Y0069137D01*
X0238681Y0069226D01*
X0238679Y0069315D01*
X0261477Y0092517D02*
X0261477Y0098816D01*
X0238300Y0116800D02*
X0238304Y0117131D01*
X0238316Y0117462D01*
X0238337Y0117793D01*
X0238365Y0118123D01*
X0238402Y0118453D01*
X0238446Y0118781D01*
X0238499Y0119108D01*
X0238559Y0119434D01*
X0238628Y0119758D01*
X0238705Y0120080D01*
X0238789Y0120401D01*
X0238881Y0120719D01*
X0238981Y0121035D01*
X0239089Y0121348D01*
X0239205Y0121659D01*
X0239328Y0121966D01*
X0239458Y0122271D01*
X0239596Y0122572D01*
X0239741Y0122870D01*
X0239894Y0123164D01*
X0240054Y0123454D01*
X0240221Y0123740D01*
X0240394Y0124022D01*
X0240575Y0124300D01*
X0240763Y0124573D01*
X0240957Y0124842D01*
X0241157Y0125106D01*
X0241364Y0125364D01*
X0241578Y0125618D01*
X0241797Y0125866D01*
X0242023Y0126109D01*
X0242254Y0126346D01*
X0242491Y0126577D01*
X0242734Y0126803D01*
X0242982Y0127022D01*
X0243236Y0127236D01*
X0243494Y0127443D01*
X0243758Y0127643D01*
X0244027Y0127837D01*
X0244300Y0128025D01*
X0244578Y0128206D01*
X0244860Y0128379D01*
X0245146Y0128546D01*
X0245436Y0128706D01*
X0245730Y0128859D01*
X0246028Y0129004D01*
X0246329Y0129142D01*
X0246634Y0129272D01*
X0246941Y0129395D01*
X0247252Y0129511D01*
X0247565Y0129619D01*
X0247881Y0129719D01*
X0248199Y0129811D01*
X0248520Y0129895D01*
X0248842Y0129972D01*
X0249166Y0130041D01*
X0249492Y0130101D01*
X0249819Y0130154D01*
X0250147Y0130198D01*
X0250477Y0130235D01*
X0250807Y0130263D01*
X0251138Y0130284D01*
X0251469Y0130296D01*
X0251800Y0130300D01*
X0252131Y0130296D01*
X0252462Y0130284D01*
X0252793Y0130263D01*
X0253123Y0130235D01*
X0253453Y0130198D01*
X0253781Y0130154D01*
X0254108Y0130101D01*
X0254434Y0130041D01*
X0254758Y0129972D01*
X0255080Y0129895D01*
X0255401Y0129811D01*
X0255719Y0129719D01*
X0256035Y0129619D01*
X0256348Y0129511D01*
X0256659Y0129395D01*
X0256966Y0129272D01*
X0257271Y0129142D01*
X0257572Y0129004D01*
X0257870Y0128859D01*
X0258164Y0128706D01*
X0258454Y0128546D01*
X0258740Y0128379D01*
X0259022Y0128206D01*
X0259300Y0128025D01*
X0259573Y0127837D01*
X0259842Y0127643D01*
X0260106Y0127443D01*
X0260364Y0127236D01*
X0260618Y0127022D01*
X0260866Y0126803D01*
X0261109Y0126577D01*
X0261346Y0126346D01*
X0261577Y0126109D01*
X0261803Y0125866D01*
X0262022Y0125618D01*
X0262236Y0125364D01*
X0262443Y0125106D01*
X0262643Y0124842D01*
X0262837Y0124573D01*
X0263025Y0124300D01*
X0263206Y0124022D01*
X0263379Y0123740D01*
X0263546Y0123454D01*
X0263706Y0123164D01*
X0263859Y0122870D01*
X0264004Y0122572D01*
X0264142Y0122271D01*
X0264272Y0121966D01*
X0264395Y0121659D01*
X0264511Y0121348D01*
X0264619Y0121035D01*
X0264719Y0120719D01*
X0264811Y0120401D01*
X0264895Y0120080D01*
X0264972Y0119758D01*
X0265041Y0119434D01*
X0265101Y0119108D01*
X0265154Y0118781D01*
X0265198Y0118453D01*
X0265235Y0118123D01*
X0265263Y0117793D01*
X0265284Y0117462D01*
X0265296Y0117131D01*
X0265300Y0116800D01*
X0265296Y0116469D01*
X0265284Y0116138D01*
X0265263Y0115807D01*
X0265235Y0115477D01*
X0265198Y0115147D01*
X0265154Y0114819D01*
X0265101Y0114492D01*
X0265041Y0114166D01*
X0264972Y0113842D01*
X0264895Y0113520D01*
X0264811Y0113199D01*
X0264719Y0112881D01*
X0264619Y0112565D01*
X0264511Y0112252D01*
X0264395Y0111941D01*
X0264272Y0111634D01*
X0264142Y0111329D01*
X0264004Y0111028D01*
X0263859Y0110730D01*
X0263706Y0110436D01*
X0263546Y0110146D01*
X0263379Y0109860D01*
X0263206Y0109578D01*
X0263025Y0109300D01*
X0262837Y0109027D01*
X0262643Y0108758D01*
X0262443Y0108494D01*
X0262236Y0108236D01*
X0262022Y0107982D01*
X0261803Y0107734D01*
X0261577Y0107491D01*
X0261346Y0107254D01*
X0261109Y0107023D01*
X0260866Y0106797D01*
X0260618Y0106578D01*
X0260364Y0106364D01*
X0260106Y0106157D01*
X0259842Y0105957D01*
X0259573Y0105763D01*
X0259300Y0105575D01*
X0259022Y0105394D01*
X0258740Y0105221D01*
X0258454Y0105054D01*
X0258164Y0104894D01*
X0257870Y0104741D01*
X0257572Y0104596D01*
X0257271Y0104458D01*
X0256966Y0104328D01*
X0256659Y0104205D01*
X0256348Y0104089D01*
X0256035Y0103981D01*
X0255719Y0103881D01*
X0255401Y0103789D01*
X0255080Y0103705D01*
X0254758Y0103628D01*
X0254434Y0103559D01*
X0254108Y0103499D01*
X0253781Y0103446D01*
X0253453Y0103402D01*
X0253123Y0103365D01*
X0252793Y0103337D01*
X0252462Y0103316D01*
X0252131Y0103304D01*
X0251800Y0103300D01*
X0251469Y0103304D01*
X0251138Y0103316D01*
X0250807Y0103337D01*
X0250477Y0103365D01*
X0250147Y0103402D01*
X0249819Y0103446D01*
X0249492Y0103499D01*
X0249166Y0103559D01*
X0248842Y0103628D01*
X0248520Y0103705D01*
X0248199Y0103789D01*
X0247881Y0103881D01*
X0247565Y0103981D01*
X0247252Y0104089D01*
X0246941Y0104205D01*
X0246634Y0104328D01*
X0246329Y0104458D01*
X0246028Y0104596D01*
X0245730Y0104741D01*
X0245436Y0104894D01*
X0245146Y0105054D01*
X0244860Y0105221D01*
X0244578Y0105394D01*
X0244300Y0105575D01*
X0244027Y0105763D01*
X0243758Y0105957D01*
X0243494Y0106157D01*
X0243236Y0106364D01*
X0242982Y0106578D01*
X0242734Y0106797D01*
X0242491Y0107023D01*
X0242254Y0107254D01*
X0242023Y0107491D01*
X0241797Y0107734D01*
X0241578Y0107982D01*
X0241364Y0108236D01*
X0241157Y0108494D01*
X0240957Y0108758D01*
X0240763Y0109027D01*
X0240575Y0109300D01*
X0240394Y0109578D01*
X0240221Y0109860D01*
X0240054Y0110146D01*
X0239894Y0110436D01*
X0239741Y0110730D01*
X0239596Y0111028D01*
X0239458Y0111329D01*
X0239328Y0111634D01*
X0239205Y0111941D01*
X0239089Y0112252D01*
X0238981Y0112565D01*
X0238881Y0112881D01*
X0238789Y0113199D01*
X0238705Y0113520D01*
X0238628Y0113842D01*
X0238559Y0114166D01*
X0238499Y0114492D01*
X0238446Y0114819D01*
X0238402Y0115147D01*
X0238365Y0115477D01*
X0238337Y0115807D01*
X0238316Y0116138D01*
X0238304Y0116469D01*
X0238300Y0116800D01*
X0238300Y0021800D02*
X0238304Y0022131D01*
X0238316Y0022462D01*
X0238337Y0022793D01*
X0238365Y0023123D01*
X0238402Y0023453D01*
X0238446Y0023781D01*
X0238499Y0024108D01*
X0238559Y0024434D01*
X0238628Y0024758D01*
X0238705Y0025080D01*
X0238789Y0025401D01*
X0238881Y0025719D01*
X0238981Y0026035D01*
X0239089Y0026348D01*
X0239205Y0026659D01*
X0239328Y0026966D01*
X0239458Y0027271D01*
X0239596Y0027572D01*
X0239741Y0027870D01*
X0239894Y0028164D01*
X0240054Y0028454D01*
X0240221Y0028740D01*
X0240394Y0029022D01*
X0240575Y0029300D01*
X0240763Y0029573D01*
X0240957Y0029842D01*
X0241157Y0030106D01*
X0241364Y0030364D01*
X0241578Y0030618D01*
X0241797Y0030866D01*
X0242023Y0031109D01*
X0242254Y0031346D01*
X0242491Y0031577D01*
X0242734Y0031803D01*
X0242982Y0032022D01*
X0243236Y0032236D01*
X0243494Y0032443D01*
X0243758Y0032643D01*
X0244027Y0032837D01*
X0244300Y0033025D01*
X0244578Y0033206D01*
X0244860Y0033379D01*
X0245146Y0033546D01*
X0245436Y0033706D01*
X0245730Y0033859D01*
X0246028Y0034004D01*
X0246329Y0034142D01*
X0246634Y0034272D01*
X0246941Y0034395D01*
X0247252Y0034511D01*
X0247565Y0034619D01*
X0247881Y0034719D01*
X0248199Y0034811D01*
X0248520Y0034895D01*
X0248842Y0034972D01*
X0249166Y0035041D01*
X0249492Y0035101D01*
X0249819Y0035154D01*
X0250147Y0035198D01*
X0250477Y0035235D01*
X0250807Y0035263D01*
X0251138Y0035284D01*
X0251469Y0035296D01*
X0251800Y0035300D01*
X0252131Y0035296D01*
X0252462Y0035284D01*
X0252793Y0035263D01*
X0253123Y0035235D01*
X0253453Y0035198D01*
X0253781Y0035154D01*
X0254108Y0035101D01*
X0254434Y0035041D01*
X0254758Y0034972D01*
X0255080Y0034895D01*
X0255401Y0034811D01*
X0255719Y0034719D01*
X0256035Y0034619D01*
X0256348Y0034511D01*
X0256659Y0034395D01*
X0256966Y0034272D01*
X0257271Y0034142D01*
X0257572Y0034004D01*
X0257870Y0033859D01*
X0258164Y0033706D01*
X0258454Y0033546D01*
X0258740Y0033379D01*
X0259022Y0033206D01*
X0259300Y0033025D01*
X0259573Y0032837D01*
X0259842Y0032643D01*
X0260106Y0032443D01*
X0260364Y0032236D01*
X0260618Y0032022D01*
X0260866Y0031803D01*
X0261109Y0031577D01*
X0261346Y0031346D01*
X0261577Y0031109D01*
X0261803Y0030866D01*
X0262022Y0030618D01*
X0262236Y0030364D01*
X0262443Y0030106D01*
X0262643Y0029842D01*
X0262837Y0029573D01*
X0263025Y0029300D01*
X0263206Y0029022D01*
X0263379Y0028740D01*
X0263546Y0028454D01*
X0263706Y0028164D01*
X0263859Y0027870D01*
X0264004Y0027572D01*
X0264142Y0027271D01*
X0264272Y0026966D01*
X0264395Y0026659D01*
X0264511Y0026348D01*
X0264619Y0026035D01*
X0264719Y0025719D01*
X0264811Y0025401D01*
X0264895Y0025080D01*
X0264972Y0024758D01*
X0265041Y0024434D01*
X0265101Y0024108D01*
X0265154Y0023781D01*
X0265198Y0023453D01*
X0265235Y0023123D01*
X0265263Y0022793D01*
X0265284Y0022462D01*
X0265296Y0022131D01*
X0265300Y0021800D01*
X0265296Y0021469D01*
X0265284Y0021138D01*
X0265263Y0020807D01*
X0265235Y0020477D01*
X0265198Y0020147D01*
X0265154Y0019819D01*
X0265101Y0019492D01*
X0265041Y0019166D01*
X0264972Y0018842D01*
X0264895Y0018520D01*
X0264811Y0018199D01*
X0264719Y0017881D01*
X0264619Y0017565D01*
X0264511Y0017252D01*
X0264395Y0016941D01*
X0264272Y0016634D01*
X0264142Y0016329D01*
X0264004Y0016028D01*
X0263859Y0015730D01*
X0263706Y0015436D01*
X0263546Y0015146D01*
X0263379Y0014860D01*
X0263206Y0014578D01*
X0263025Y0014300D01*
X0262837Y0014027D01*
X0262643Y0013758D01*
X0262443Y0013494D01*
X0262236Y0013236D01*
X0262022Y0012982D01*
X0261803Y0012734D01*
X0261577Y0012491D01*
X0261346Y0012254D01*
X0261109Y0012023D01*
X0260866Y0011797D01*
X0260618Y0011578D01*
X0260364Y0011364D01*
X0260106Y0011157D01*
X0259842Y0010957D01*
X0259573Y0010763D01*
X0259300Y0010575D01*
X0259022Y0010394D01*
X0258740Y0010221D01*
X0258454Y0010054D01*
X0258164Y0009894D01*
X0257870Y0009741D01*
X0257572Y0009596D01*
X0257271Y0009458D01*
X0256966Y0009328D01*
X0256659Y0009205D01*
X0256348Y0009089D01*
X0256035Y0008981D01*
X0255719Y0008881D01*
X0255401Y0008789D01*
X0255080Y0008705D01*
X0254758Y0008628D01*
X0254434Y0008559D01*
X0254108Y0008499D01*
X0253781Y0008446D01*
X0253453Y0008402D01*
X0253123Y0008365D01*
X0252793Y0008337D01*
X0252462Y0008316D01*
X0252131Y0008304D01*
X0251800Y0008300D01*
X0251469Y0008304D01*
X0251138Y0008316D01*
X0250807Y0008337D01*
X0250477Y0008365D01*
X0250147Y0008402D01*
X0249819Y0008446D01*
X0249492Y0008499D01*
X0249166Y0008559D01*
X0248842Y0008628D01*
X0248520Y0008705D01*
X0248199Y0008789D01*
X0247881Y0008881D01*
X0247565Y0008981D01*
X0247252Y0009089D01*
X0246941Y0009205D01*
X0246634Y0009328D01*
X0246329Y0009458D01*
X0246028Y0009596D01*
X0245730Y0009741D01*
X0245436Y0009894D01*
X0245146Y0010054D01*
X0244860Y0010221D01*
X0244578Y0010394D01*
X0244300Y0010575D01*
X0244027Y0010763D01*
X0243758Y0010957D01*
X0243494Y0011157D01*
X0243236Y0011364D01*
X0242982Y0011578D01*
X0242734Y0011797D01*
X0242491Y0012023D01*
X0242254Y0012254D01*
X0242023Y0012491D01*
X0241797Y0012734D01*
X0241578Y0012982D01*
X0241364Y0013236D01*
X0241157Y0013494D01*
X0240957Y0013758D01*
X0240763Y0014027D01*
X0240575Y0014300D01*
X0240394Y0014578D01*
X0240221Y0014860D01*
X0240054Y0015146D01*
X0239894Y0015436D01*
X0239741Y0015730D01*
X0239596Y0016028D01*
X0239458Y0016329D01*
X0239328Y0016634D01*
X0239205Y0016941D01*
X0239089Y0017252D01*
X0238981Y0017565D01*
X0238881Y0017881D01*
X0238789Y0018199D01*
X0238705Y0018520D01*
X0238628Y0018842D01*
X0238559Y0019166D01*
X0238499Y0019492D01*
X0238446Y0019819D01*
X0238402Y0020147D01*
X0238365Y0020477D01*
X0238337Y0020807D01*
X0238316Y0021138D01*
X0238304Y0021469D01*
X0238300Y0021800D01*
D14*
X0153291Y0107050D02*
X0150289Y0107050D01*
X0151790Y0107050D02*
X0151790Y0111554D01*
X0150289Y0110053D01*
X0133791Y0110053D02*
X0133791Y0110803D01*
X0133041Y0111554D01*
X0131539Y0111554D01*
X0130789Y0110803D01*
X0133791Y0110053D02*
X0130789Y0107050D01*
X0133791Y0107050D01*
X0051800Y0059800D02*
X0051300Y0048300D01*
X0050300Y0047300D01*
X0013300Y0047300D01*
X0012300Y0048300D01*
X0011800Y0059800D01*
X0013100Y0049700D02*
X0013102Y0049763D01*
X0013108Y0049825D01*
X0013118Y0049887D01*
X0013131Y0049949D01*
X0013149Y0050009D01*
X0013170Y0050068D01*
X0013195Y0050126D01*
X0013224Y0050182D01*
X0013256Y0050236D01*
X0013291Y0050288D01*
X0013329Y0050337D01*
X0013371Y0050385D01*
X0013415Y0050429D01*
X0013463Y0050471D01*
X0013512Y0050509D01*
X0013564Y0050544D01*
X0013618Y0050576D01*
X0013674Y0050605D01*
X0013732Y0050630D01*
X0013791Y0050651D01*
X0013851Y0050669D01*
X0013913Y0050682D01*
X0013975Y0050692D01*
X0014037Y0050698D01*
X0014100Y0050700D01*
X0014163Y0050698D01*
X0014225Y0050692D01*
X0014287Y0050682D01*
X0014349Y0050669D01*
X0014409Y0050651D01*
X0014468Y0050630D01*
X0014526Y0050605D01*
X0014582Y0050576D01*
X0014636Y0050544D01*
X0014688Y0050509D01*
X0014737Y0050471D01*
X0014785Y0050429D01*
X0014829Y0050385D01*
X0014871Y0050337D01*
X0014909Y0050288D01*
X0014944Y0050236D01*
X0014976Y0050182D01*
X0015005Y0050126D01*
X0015030Y0050068D01*
X0015051Y0050009D01*
X0015069Y0049949D01*
X0015082Y0049887D01*
X0015092Y0049825D01*
X0015098Y0049763D01*
X0015100Y0049700D01*
X0015098Y0049637D01*
X0015092Y0049575D01*
X0015082Y0049513D01*
X0015069Y0049451D01*
X0015051Y0049391D01*
X0015030Y0049332D01*
X0015005Y0049274D01*
X0014976Y0049218D01*
X0014944Y0049164D01*
X0014909Y0049112D01*
X0014871Y0049063D01*
X0014829Y0049015D01*
X0014785Y0048971D01*
X0014737Y0048929D01*
X0014688Y0048891D01*
X0014636Y0048856D01*
X0014582Y0048824D01*
X0014526Y0048795D01*
X0014468Y0048770D01*
X0014409Y0048749D01*
X0014349Y0048731D01*
X0014287Y0048718D01*
X0014225Y0048708D01*
X0014163Y0048702D01*
X0014100Y0048700D01*
X0014037Y0048702D01*
X0013975Y0048708D01*
X0013913Y0048718D01*
X0013851Y0048731D01*
X0013791Y0048749D01*
X0013732Y0048770D01*
X0013674Y0048795D01*
X0013618Y0048824D01*
X0013564Y0048856D01*
X0013512Y0048891D01*
X0013463Y0048929D01*
X0013415Y0048971D01*
X0013371Y0049015D01*
X0013329Y0049063D01*
X0013291Y0049112D01*
X0013256Y0049164D01*
X0013224Y0049218D01*
X0013195Y0049274D01*
X0013170Y0049332D01*
X0013149Y0049391D01*
X0013131Y0049451D01*
X0013118Y0049513D01*
X0013108Y0049575D01*
X0013102Y0049637D01*
X0013100Y0049700D01*
D15*
X0031800Y0062800D03*
D16*
X0014550Y0060300D03*
X0049050Y0060300D03*
D17*
X0036800Y0060300D03*
X0026800Y0060300D03*
D18*
X0017600Y0071800D03*
X0017600Y0085550D03*
X0046000Y0085550D03*
X0046000Y0071800D03*
D19*
X0015107Y0116800D02*
X0015109Y0116964D01*
X0015115Y0117128D01*
X0015125Y0117292D01*
X0015139Y0117456D01*
X0015157Y0117619D01*
X0015179Y0117782D01*
X0015206Y0117944D01*
X0015236Y0118106D01*
X0015270Y0118266D01*
X0015308Y0118426D01*
X0015349Y0118585D01*
X0015395Y0118743D01*
X0015445Y0118899D01*
X0015498Y0119055D01*
X0015555Y0119209D01*
X0015616Y0119361D01*
X0015681Y0119512D01*
X0015750Y0119662D01*
X0015822Y0119809D01*
X0015897Y0119955D01*
X0015977Y0120099D01*
X0016059Y0120241D01*
X0016145Y0120381D01*
X0016235Y0120518D01*
X0016328Y0120654D01*
X0016424Y0120787D01*
X0016524Y0120918D01*
X0016626Y0121046D01*
X0016732Y0121172D01*
X0016841Y0121295D01*
X0016953Y0121415D01*
X0017067Y0121533D01*
X0017185Y0121647D01*
X0017305Y0121759D01*
X0017428Y0121868D01*
X0017554Y0121974D01*
X0017682Y0122076D01*
X0017813Y0122176D01*
X0017946Y0122272D01*
X0018082Y0122365D01*
X0018219Y0122455D01*
X0018359Y0122541D01*
X0018501Y0122623D01*
X0018645Y0122703D01*
X0018791Y0122778D01*
X0018938Y0122850D01*
X0019088Y0122919D01*
X0019239Y0122984D01*
X0019391Y0123045D01*
X0019545Y0123102D01*
X0019701Y0123155D01*
X0019857Y0123205D01*
X0020015Y0123251D01*
X0020174Y0123292D01*
X0020334Y0123330D01*
X0020494Y0123364D01*
X0020656Y0123394D01*
X0020818Y0123421D01*
X0020981Y0123443D01*
X0021144Y0123461D01*
X0021308Y0123475D01*
X0021472Y0123485D01*
X0021636Y0123491D01*
X0021800Y0123493D01*
X0021964Y0123491D01*
X0022128Y0123485D01*
X0022292Y0123475D01*
X0022456Y0123461D01*
X0022619Y0123443D01*
X0022782Y0123421D01*
X0022944Y0123394D01*
X0023106Y0123364D01*
X0023266Y0123330D01*
X0023426Y0123292D01*
X0023585Y0123251D01*
X0023743Y0123205D01*
X0023899Y0123155D01*
X0024055Y0123102D01*
X0024209Y0123045D01*
X0024361Y0122984D01*
X0024512Y0122919D01*
X0024662Y0122850D01*
X0024809Y0122778D01*
X0024955Y0122703D01*
X0025099Y0122623D01*
X0025241Y0122541D01*
X0025381Y0122455D01*
X0025518Y0122365D01*
X0025654Y0122272D01*
X0025787Y0122176D01*
X0025918Y0122076D01*
X0026046Y0121974D01*
X0026172Y0121868D01*
X0026295Y0121759D01*
X0026415Y0121647D01*
X0026533Y0121533D01*
X0026647Y0121415D01*
X0026759Y0121295D01*
X0026868Y0121172D01*
X0026974Y0121046D01*
X0027076Y0120918D01*
X0027176Y0120787D01*
X0027272Y0120654D01*
X0027365Y0120518D01*
X0027455Y0120381D01*
X0027541Y0120241D01*
X0027623Y0120099D01*
X0027703Y0119955D01*
X0027778Y0119809D01*
X0027850Y0119662D01*
X0027919Y0119512D01*
X0027984Y0119361D01*
X0028045Y0119209D01*
X0028102Y0119055D01*
X0028155Y0118899D01*
X0028205Y0118743D01*
X0028251Y0118585D01*
X0028292Y0118426D01*
X0028330Y0118266D01*
X0028364Y0118106D01*
X0028394Y0117944D01*
X0028421Y0117782D01*
X0028443Y0117619D01*
X0028461Y0117456D01*
X0028475Y0117292D01*
X0028485Y0117128D01*
X0028491Y0116964D01*
X0028493Y0116800D01*
X0028491Y0116636D01*
X0028485Y0116472D01*
X0028475Y0116308D01*
X0028461Y0116144D01*
X0028443Y0115981D01*
X0028421Y0115818D01*
X0028394Y0115656D01*
X0028364Y0115494D01*
X0028330Y0115334D01*
X0028292Y0115174D01*
X0028251Y0115015D01*
X0028205Y0114857D01*
X0028155Y0114701D01*
X0028102Y0114545D01*
X0028045Y0114391D01*
X0027984Y0114239D01*
X0027919Y0114088D01*
X0027850Y0113938D01*
X0027778Y0113791D01*
X0027703Y0113645D01*
X0027623Y0113501D01*
X0027541Y0113359D01*
X0027455Y0113219D01*
X0027365Y0113082D01*
X0027272Y0112946D01*
X0027176Y0112813D01*
X0027076Y0112682D01*
X0026974Y0112554D01*
X0026868Y0112428D01*
X0026759Y0112305D01*
X0026647Y0112185D01*
X0026533Y0112067D01*
X0026415Y0111953D01*
X0026295Y0111841D01*
X0026172Y0111732D01*
X0026046Y0111626D01*
X0025918Y0111524D01*
X0025787Y0111424D01*
X0025654Y0111328D01*
X0025518Y0111235D01*
X0025381Y0111145D01*
X0025241Y0111059D01*
X0025099Y0110977D01*
X0024955Y0110897D01*
X0024809Y0110822D01*
X0024662Y0110750D01*
X0024512Y0110681D01*
X0024361Y0110616D01*
X0024209Y0110555D01*
X0024055Y0110498D01*
X0023899Y0110445D01*
X0023743Y0110395D01*
X0023585Y0110349D01*
X0023426Y0110308D01*
X0023266Y0110270D01*
X0023106Y0110236D01*
X0022944Y0110206D01*
X0022782Y0110179D01*
X0022619Y0110157D01*
X0022456Y0110139D01*
X0022292Y0110125D01*
X0022128Y0110115D01*
X0021964Y0110109D01*
X0021800Y0110107D01*
X0021636Y0110109D01*
X0021472Y0110115D01*
X0021308Y0110125D01*
X0021144Y0110139D01*
X0020981Y0110157D01*
X0020818Y0110179D01*
X0020656Y0110206D01*
X0020494Y0110236D01*
X0020334Y0110270D01*
X0020174Y0110308D01*
X0020015Y0110349D01*
X0019857Y0110395D01*
X0019701Y0110445D01*
X0019545Y0110498D01*
X0019391Y0110555D01*
X0019239Y0110616D01*
X0019088Y0110681D01*
X0018938Y0110750D01*
X0018791Y0110822D01*
X0018645Y0110897D01*
X0018501Y0110977D01*
X0018359Y0111059D01*
X0018219Y0111145D01*
X0018082Y0111235D01*
X0017946Y0111328D01*
X0017813Y0111424D01*
X0017682Y0111524D01*
X0017554Y0111626D01*
X0017428Y0111732D01*
X0017305Y0111841D01*
X0017185Y0111953D01*
X0017067Y0112067D01*
X0016953Y0112185D01*
X0016841Y0112305D01*
X0016732Y0112428D01*
X0016626Y0112554D01*
X0016524Y0112682D01*
X0016424Y0112813D01*
X0016328Y0112946D01*
X0016235Y0113082D01*
X0016145Y0113219D01*
X0016059Y0113359D01*
X0015977Y0113501D01*
X0015897Y0113645D01*
X0015822Y0113791D01*
X0015750Y0113938D01*
X0015681Y0114088D01*
X0015616Y0114239D01*
X0015555Y0114391D01*
X0015498Y0114545D01*
X0015445Y0114701D01*
X0015395Y0114857D01*
X0015349Y0115015D01*
X0015308Y0115174D01*
X0015270Y0115334D01*
X0015236Y0115494D01*
X0015206Y0115656D01*
X0015179Y0115818D01*
X0015157Y0115981D01*
X0015139Y0116144D01*
X0015125Y0116308D01*
X0015115Y0116472D01*
X0015109Y0116636D01*
X0015107Y0116800D01*
X0015107Y0021800D02*
X0015109Y0021964D01*
X0015115Y0022128D01*
X0015125Y0022292D01*
X0015139Y0022456D01*
X0015157Y0022619D01*
X0015179Y0022782D01*
X0015206Y0022944D01*
X0015236Y0023106D01*
X0015270Y0023266D01*
X0015308Y0023426D01*
X0015349Y0023585D01*
X0015395Y0023743D01*
X0015445Y0023899D01*
X0015498Y0024055D01*
X0015555Y0024209D01*
X0015616Y0024361D01*
X0015681Y0024512D01*
X0015750Y0024662D01*
X0015822Y0024809D01*
X0015897Y0024955D01*
X0015977Y0025099D01*
X0016059Y0025241D01*
X0016145Y0025381D01*
X0016235Y0025518D01*
X0016328Y0025654D01*
X0016424Y0025787D01*
X0016524Y0025918D01*
X0016626Y0026046D01*
X0016732Y0026172D01*
X0016841Y0026295D01*
X0016953Y0026415D01*
X0017067Y0026533D01*
X0017185Y0026647D01*
X0017305Y0026759D01*
X0017428Y0026868D01*
X0017554Y0026974D01*
X0017682Y0027076D01*
X0017813Y0027176D01*
X0017946Y0027272D01*
X0018082Y0027365D01*
X0018219Y0027455D01*
X0018359Y0027541D01*
X0018501Y0027623D01*
X0018645Y0027703D01*
X0018791Y0027778D01*
X0018938Y0027850D01*
X0019088Y0027919D01*
X0019239Y0027984D01*
X0019391Y0028045D01*
X0019545Y0028102D01*
X0019701Y0028155D01*
X0019857Y0028205D01*
X0020015Y0028251D01*
X0020174Y0028292D01*
X0020334Y0028330D01*
X0020494Y0028364D01*
X0020656Y0028394D01*
X0020818Y0028421D01*
X0020981Y0028443D01*
X0021144Y0028461D01*
X0021308Y0028475D01*
X0021472Y0028485D01*
X0021636Y0028491D01*
X0021800Y0028493D01*
X0021964Y0028491D01*
X0022128Y0028485D01*
X0022292Y0028475D01*
X0022456Y0028461D01*
X0022619Y0028443D01*
X0022782Y0028421D01*
X0022944Y0028394D01*
X0023106Y0028364D01*
X0023266Y0028330D01*
X0023426Y0028292D01*
X0023585Y0028251D01*
X0023743Y0028205D01*
X0023899Y0028155D01*
X0024055Y0028102D01*
X0024209Y0028045D01*
X0024361Y0027984D01*
X0024512Y0027919D01*
X0024662Y0027850D01*
X0024809Y0027778D01*
X0024955Y0027703D01*
X0025099Y0027623D01*
X0025241Y0027541D01*
X0025381Y0027455D01*
X0025518Y0027365D01*
X0025654Y0027272D01*
X0025787Y0027176D01*
X0025918Y0027076D01*
X0026046Y0026974D01*
X0026172Y0026868D01*
X0026295Y0026759D01*
X0026415Y0026647D01*
X0026533Y0026533D01*
X0026647Y0026415D01*
X0026759Y0026295D01*
X0026868Y0026172D01*
X0026974Y0026046D01*
X0027076Y0025918D01*
X0027176Y0025787D01*
X0027272Y0025654D01*
X0027365Y0025518D01*
X0027455Y0025381D01*
X0027541Y0025241D01*
X0027623Y0025099D01*
X0027703Y0024955D01*
X0027778Y0024809D01*
X0027850Y0024662D01*
X0027919Y0024512D01*
X0027984Y0024361D01*
X0028045Y0024209D01*
X0028102Y0024055D01*
X0028155Y0023899D01*
X0028205Y0023743D01*
X0028251Y0023585D01*
X0028292Y0023426D01*
X0028330Y0023266D01*
X0028364Y0023106D01*
X0028394Y0022944D01*
X0028421Y0022782D01*
X0028443Y0022619D01*
X0028461Y0022456D01*
X0028475Y0022292D01*
X0028485Y0022128D01*
X0028491Y0021964D01*
X0028493Y0021800D01*
X0028491Y0021636D01*
X0028485Y0021472D01*
X0028475Y0021308D01*
X0028461Y0021144D01*
X0028443Y0020981D01*
X0028421Y0020818D01*
X0028394Y0020656D01*
X0028364Y0020494D01*
X0028330Y0020334D01*
X0028292Y0020174D01*
X0028251Y0020015D01*
X0028205Y0019857D01*
X0028155Y0019701D01*
X0028102Y0019545D01*
X0028045Y0019391D01*
X0027984Y0019239D01*
X0027919Y0019088D01*
X0027850Y0018938D01*
X0027778Y0018791D01*
X0027703Y0018645D01*
X0027623Y0018501D01*
X0027541Y0018359D01*
X0027455Y0018219D01*
X0027365Y0018082D01*
X0027272Y0017946D01*
X0027176Y0017813D01*
X0027076Y0017682D01*
X0026974Y0017554D01*
X0026868Y0017428D01*
X0026759Y0017305D01*
X0026647Y0017185D01*
X0026533Y0017067D01*
X0026415Y0016953D01*
X0026295Y0016841D01*
X0026172Y0016732D01*
X0026046Y0016626D01*
X0025918Y0016524D01*
X0025787Y0016424D01*
X0025654Y0016328D01*
X0025518Y0016235D01*
X0025381Y0016145D01*
X0025241Y0016059D01*
X0025099Y0015977D01*
X0024955Y0015897D01*
X0024809Y0015822D01*
X0024662Y0015750D01*
X0024512Y0015681D01*
X0024361Y0015616D01*
X0024209Y0015555D01*
X0024055Y0015498D01*
X0023899Y0015445D01*
X0023743Y0015395D01*
X0023585Y0015349D01*
X0023426Y0015308D01*
X0023266Y0015270D01*
X0023106Y0015236D01*
X0022944Y0015206D01*
X0022782Y0015179D01*
X0022619Y0015157D01*
X0022456Y0015139D01*
X0022292Y0015125D01*
X0022128Y0015115D01*
X0021964Y0015109D01*
X0021800Y0015107D01*
X0021636Y0015109D01*
X0021472Y0015115D01*
X0021308Y0015125D01*
X0021144Y0015139D01*
X0020981Y0015157D01*
X0020818Y0015179D01*
X0020656Y0015206D01*
X0020494Y0015236D01*
X0020334Y0015270D01*
X0020174Y0015308D01*
X0020015Y0015349D01*
X0019857Y0015395D01*
X0019701Y0015445D01*
X0019545Y0015498D01*
X0019391Y0015555D01*
X0019239Y0015616D01*
X0019088Y0015681D01*
X0018938Y0015750D01*
X0018791Y0015822D01*
X0018645Y0015897D01*
X0018501Y0015977D01*
X0018359Y0016059D01*
X0018219Y0016145D01*
X0018082Y0016235D01*
X0017946Y0016328D01*
X0017813Y0016424D01*
X0017682Y0016524D01*
X0017554Y0016626D01*
X0017428Y0016732D01*
X0017305Y0016841D01*
X0017185Y0016953D01*
X0017067Y0017067D01*
X0016953Y0017185D01*
X0016841Y0017305D01*
X0016732Y0017428D01*
X0016626Y0017554D01*
X0016524Y0017682D01*
X0016424Y0017813D01*
X0016328Y0017946D01*
X0016235Y0018082D01*
X0016145Y0018219D01*
X0016059Y0018359D01*
X0015977Y0018501D01*
X0015897Y0018645D01*
X0015822Y0018791D01*
X0015750Y0018938D01*
X0015681Y0019088D01*
X0015616Y0019239D01*
X0015555Y0019391D01*
X0015498Y0019545D01*
X0015445Y0019701D01*
X0015395Y0019857D01*
X0015349Y0020015D01*
X0015308Y0020174D01*
X0015270Y0020334D01*
X0015236Y0020494D01*
X0015206Y0020656D01*
X0015179Y0020818D01*
X0015157Y0020981D01*
X0015139Y0021144D01*
X0015125Y0021308D01*
X0015115Y0021472D01*
X0015109Y0021636D01*
X0015107Y0021800D01*
X0245107Y0021800D02*
X0245109Y0021964D01*
X0245115Y0022128D01*
X0245125Y0022292D01*
X0245139Y0022456D01*
X0245157Y0022619D01*
X0245179Y0022782D01*
X0245206Y0022944D01*
X0245236Y0023106D01*
X0245270Y0023266D01*
X0245308Y0023426D01*
X0245349Y0023585D01*
X0245395Y0023743D01*
X0245445Y0023899D01*
X0245498Y0024055D01*
X0245555Y0024209D01*
X0245616Y0024361D01*
X0245681Y0024512D01*
X0245750Y0024662D01*
X0245822Y0024809D01*
X0245897Y0024955D01*
X0245977Y0025099D01*
X0246059Y0025241D01*
X0246145Y0025381D01*
X0246235Y0025518D01*
X0246328Y0025654D01*
X0246424Y0025787D01*
X0246524Y0025918D01*
X0246626Y0026046D01*
X0246732Y0026172D01*
X0246841Y0026295D01*
X0246953Y0026415D01*
X0247067Y0026533D01*
X0247185Y0026647D01*
X0247305Y0026759D01*
X0247428Y0026868D01*
X0247554Y0026974D01*
X0247682Y0027076D01*
X0247813Y0027176D01*
X0247946Y0027272D01*
X0248082Y0027365D01*
X0248219Y0027455D01*
X0248359Y0027541D01*
X0248501Y0027623D01*
X0248645Y0027703D01*
X0248791Y0027778D01*
X0248938Y0027850D01*
X0249088Y0027919D01*
X0249239Y0027984D01*
X0249391Y0028045D01*
X0249545Y0028102D01*
X0249701Y0028155D01*
X0249857Y0028205D01*
X0250015Y0028251D01*
X0250174Y0028292D01*
X0250334Y0028330D01*
X0250494Y0028364D01*
X0250656Y0028394D01*
X0250818Y0028421D01*
X0250981Y0028443D01*
X0251144Y0028461D01*
X0251308Y0028475D01*
X0251472Y0028485D01*
X0251636Y0028491D01*
X0251800Y0028493D01*
X0251964Y0028491D01*
X0252128Y0028485D01*
X0252292Y0028475D01*
X0252456Y0028461D01*
X0252619Y0028443D01*
X0252782Y0028421D01*
X0252944Y0028394D01*
X0253106Y0028364D01*
X0253266Y0028330D01*
X0253426Y0028292D01*
X0253585Y0028251D01*
X0253743Y0028205D01*
X0253899Y0028155D01*
X0254055Y0028102D01*
X0254209Y0028045D01*
X0254361Y0027984D01*
X0254512Y0027919D01*
X0254662Y0027850D01*
X0254809Y0027778D01*
X0254955Y0027703D01*
X0255099Y0027623D01*
X0255241Y0027541D01*
X0255381Y0027455D01*
X0255518Y0027365D01*
X0255654Y0027272D01*
X0255787Y0027176D01*
X0255918Y0027076D01*
X0256046Y0026974D01*
X0256172Y0026868D01*
X0256295Y0026759D01*
X0256415Y0026647D01*
X0256533Y0026533D01*
X0256647Y0026415D01*
X0256759Y0026295D01*
X0256868Y0026172D01*
X0256974Y0026046D01*
X0257076Y0025918D01*
X0257176Y0025787D01*
X0257272Y0025654D01*
X0257365Y0025518D01*
X0257455Y0025381D01*
X0257541Y0025241D01*
X0257623Y0025099D01*
X0257703Y0024955D01*
X0257778Y0024809D01*
X0257850Y0024662D01*
X0257919Y0024512D01*
X0257984Y0024361D01*
X0258045Y0024209D01*
X0258102Y0024055D01*
X0258155Y0023899D01*
X0258205Y0023743D01*
X0258251Y0023585D01*
X0258292Y0023426D01*
X0258330Y0023266D01*
X0258364Y0023106D01*
X0258394Y0022944D01*
X0258421Y0022782D01*
X0258443Y0022619D01*
X0258461Y0022456D01*
X0258475Y0022292D01*
X0258485Y0022128D01*
X0258491Y0021964D01*
X0258493Y0021800D01*
X0258491Y0021636D01*
X0258485Y0021472D01*
X0258475Y0021308D01*
X0258461Y0021144D01*
X0258443Y0020981D01*
X0258421Y0020818D01*
X0258394Y0020656D01*
X0258364Y0020494D01*
X0258330Y0020334D01*
X0258292Y0020174D01*
X0258251Y0020015D01*
X0258205Y0019857D01*
X0258155Y0019701D01*
X0258102Y0019545D01*
X0258045Y0019391D01*
X0257984Y0019239D01*
X0257919Y0019088D01*
X0257850Y0018938D01*
X0257778Y0018791D01*
X0257703Y0018645D01*
X0257623Y0018501D01*
X0257541Y0018359D01*
X0257455Y0018219D01*
X0257365Y0018082D01*
X0257272Y0017946D01*
X0257176Y0017813D01*
X0257076Y0017682D01*
X0256974Y0017554D01*
X0256868Y0017428D01*
X0256759Y0017305D01*
X0256647Y0017185D01*
X0256533Y0017067D01*
X0256415Y0016953D01*
X0256295Y0016841D01*
X0256172Y0016732D01*
X0256046Y0016626D01*
X0255918Y0016524D01*
X0255787Y0016424D01*
X0255654Y0016328D01*
X0255518Y0016235D01*
X0255381Y0016145D01*
X0255241Y0016059D01*
X0255099Y0015977D01*
X0254955Y0015897D01*
X0254809Y0015822D01*
X0254662Y0015750D01*
X0254512Y0015681D01*
X0254361Y0015616D01*
X0254209Y0015555D01*
X0254055Y0015498D01*
X0253899Y0015445D01*
X0253743Y0015395D01*
X0253585Y0015349D01*
X0253426Y0015308D01*
X0253266Y0015270D01*
X0253106Y0015236D01*
X0252944Y0015206D01*
X0252782Y0015179D01*
X0252619Y0015157D01*
X0252456Y0015139D01*
X0252292Y0015125D01*
X0252128Y0015115D01*
X0251964Y0015109D01*
X0251800Y0015107D01*
X0251636Y0015109D01*
X0251472Y0015115D01*
X0251308Y0015125D01*
X0251144Y0015139D01*
X0250981Y0015157D01*
X0250818Y0015179D01*
X0250656Y0015206D01*
X0250494Y0015236D01*
X0250334Y0015270D01*
X0250174Y0015308D01*
X0250015Y0015349D01*
X0249857Y0015395D01*
X0249701Y0015445D01*
X0249545Y0015498D01*
X0249391Y0015555D01*
X0249239Y0015616D01*
X0249088Y0015681D01*
X0248938Y0015750D01*
X0248791Y0015822D01*
X0248645Y0015897D01*
X0248501Y0015977D01*
X0248359Y0016059D01*
X0248219Y0016145D01*
X0248082Y0016235D01*
X0247946Y0016328D01*
X0247813Y0016424D01*
X0247682Y0016524D01*
X0247554Y0016626D01*
X0247428Y0016732D01*
X0247305Y0016841D01*
X0247185Y0016953D01*
X0247067Y0017067D01*
X0246953Y0017185D01*
X0246841Y0017305D01*
X0246732Y0017428D01*
X0246626Y0017554D01*
X0246524Y0017682D01*
X0246424Y0017813D01*
X0246328Y0017946D01*
X0246235Y0018082D01*
X0246145Y0018219D01*
X0246059Y0018359D01*
X0245977Y0018501D01*
X0245897Y0018645D01*
X0245822Y0018791D01*
X0245750Y0018938D01*
X0245681Y0019088D01*
X0245616Y0019239D01*
X0245555Y0019391D01*
X0245498Y0019545D01*
X0245445Y0019701D01*
X0245395Y0019857D01*
X0245349Y0020015D01*
X0245308Y0020174D01*
X0245270Y0020334D01*
X0245236Y0020494D01*
X0245206Y0020656D01*
X0245179Y0020818D01*
X0245157Y0020981D01*
X0245139Y0021144D01*
X0245125Y0021308D01*
X0245115Y0021472D01*
X0245109Y0021636D01*
X0245107Y0021800D01*
X0245107Y0116800D02*
X0245109Y0116964D01*
X0245115Y0117128D01*
X0245125Y0117292D01*
X0245139Y0117456D01*
X0245157Y0117619D01*
X0245179Y0117782D01*
X0245206Y0117944D01*
X0245236Y0118106D01*
X0245270Y0118266D01*
X0245308Y0118426D01*
X0245349Y0118585D01*
X0245395Y0118743D01*
X0245445Y0118899D01*
X0245498Y0119055D01*
X0245555Y0119209D01*
X0245616Y0119361D01*
X0245681Y0119512D01*
X0245750Y0119662D01*
X0245822Y0119809D01*
X0245897Y0119955D01*
X0245977Y0120099D01*
X0246059Y0120241D01*
X0246145Y0120381D01*
X0246235Y0120518D01*
X0246328Y0120654D01*
X0246424Y0120787D01*
X0246524Y0120918D01*
X0246626Y0121046D01*
X0246732Y0121172D01*
X0246841Y0121295D01*
X0246953Y0121415D01*
X0247067Y0121533D01*
X0247185Y0121647D01*
X0247305Y0121759D01*
X0247428Y0121868D01*
X0247554Y0121974D01*
X0247682Y0122076D01*
X0247813Y0122176D01*
X0247946Y0122272D01*
X0248082Y0122365D01*
X0248219Y0122455D01*
X0248359Y0122541D01*
X0248501Y0122623D01*
X0248645Y0122703D01*
X0248791Y0122778D01*
X0248938Y0122850D01*
X0249088Y0122919D01*
X0249239Y0122984D01*
X0249391Y0123045D01*
X0249545Y0123102D01*
X0249701Y0123155D01*
X0249857Y0123205D01*
X0250015Y0123251D01*
X0250174Y0123292D01*
X0250334Y0123330D01*
X0250494Y0123364D01*
X0250656Y0123394D01*
X0250818Y0123421D01*
X0250981Y0123443D01*
X0251144Y0123461D01*
X0251308Y0123475D01*
X0251472Y0123485D01*
X0251636Y0123491D01*
X0251800Y0123493D01*
X0251964Y0123491D01*
X0252128Y0123485D01*
X0252292Y0123475D01*
X0252456Y0123461D01*
X0252619Y0123443D01*
X0252782Y0123421D01*
X0252944Y0123394D01*
X0253106Y0123364D01*
X0253266Y0123330D01*
X0253426Y0123292D01*
X0253585Y0123251D01*
X0253743Y0123205D01*
X0253899Y0123155D01*
X0254055Y0123102D01*
X0254209Y0123045D01*
X0254361Y0122984D01*
X0254512Y0122919D01*
X0254662Y0122850D01*
X0254809Y0122778D01*
X0254955Y0122703D01*
X0255099Y0122623D01*
X0255241Y0122541D01*
X0255381Y0122455D01*
X0255518Y0122365D01*
X0255654Y0122272D01*
X0255787Y0122176D01*
X0255918Y0122076D01*
X0256046Y0121974D01*
X0256172Y0121868D01*
X0256295Y0121759D01*
X0256415Y0121647D01*
X0256533Y0121533D01*
X0256647Y0121415D01*
X0256759Y0121295D01*
X0256868Y0121172D01*
X0256974Y0121046D01*
X0257076Y0120918D01*
X0257176Y0120787D01*
X0257272Y0120654D01*
X0257365Y0120518D01*
X0257455Y0120381D01*
X0257541Y0120241D01*
X0257623Y0120099D01*
X0257703Y0119955D01*
X0257778Y0119809D01*
X0257850Y0119662D01*
X0257919Y0119512D01*
X0257984Y0119361D01*
X0258045Y0119209D01*
X0258102Y0119055D01*
X0258155Y0118899D01*
X0258205Y0118743D01*
X0258251Y0118585D01*
X0258292Y0118426D01*
X0258330Y0118266D01*
X0258364Y0118106D01*
X0258394Y0117944D01*
X0258421Y0117782D01*
X0258443Y0117619D01*
X0258461Y0117456D01*
X0258475Y0117292D01*
X0258485Y0117128D01*
X0258491Y0116964D01*
X0258493Y0116800D01*
X0258491Y0116636D01*
X0258485Y0116472D01*
X0258475Y0116308D01*
X0258461Y0116144D01*
X0258443Y0115981D01*
X0258421Y0115818D01*
X0258394Y0115656D01*
X0258364Y0115494D01*
X0258330Y0115334D01*
X0258292Y0115174D01*
X0258251Y0115015D01*
X0258205Y0114857D01*
X0258155Y0114701D01*
X0258102Y0114545D01*
X0258045Y0114391D01*
X0257984Y0114239D01*
X0257919Y0114088D01*
X0257850Y0113938D01*
X0257778Y0113791D01*
X0257703Y0113645D01*
X0257623Y0113501D01*
X0257541Y0113359D01*
X0257455Y0113219D01*
X0257365Y0113082D01*
X0257272Y0112946D01*
X0257176Y0112813D01*
X0257076Y0112682D01*
X0256974Y0112554D01*
X0256868Y0112428D01*
X0256759Y0112305D01*
X0256647Y0112185D01*
X0256533Y0112067D01*
X0256415Y0111953D01*
X0256295Y0111841D01*
X0256172Y0111732D01*
X0256046Y0111626D01*
X0255918Y0111524D01*
X0255787Y0111424D01*
X0255654Y0111328D01*
X0255518Y0111235D01*
X0255381Y0111145D01*
X0255241Y0111059D01*
X0255099Y0110977D01*
X0254955Y0110897D01*
X0254809Y0110822D01*
X0254662Y0110750D01*
X0254512Y0110681D01*
X0254361Y0110616D01*
X0254209Y0110555D01*
X0254055Y0110498D01*
X0253899Y0110445D01*
X0253743Y0110395D01*
X0253585Y0110349D01*
X0253426Y0110308D01*
X0253266Y0110270D01*
X0253106Y0110236D01*
X0252944Y0110206D01*
X0252782Y0110179D01*
X0252619Y0110157D01*
X0252456Y0110139D01*
X0252292Y0110125D01*
X0252128Y0110115D01*
X0251964Y0110109D01*
X0251800Y0110107D01*
X0251636Y0110109D01*
X0251472Y0110115D01*
X0251308Y0110125D01*
X0251144Y0110139D01*
X0250981Y0110157D01*
X0250818Y0110179D01*
X0250656Y0110206D01*
X0250494Y0110236D01*
X0250334Y0110270D01*
X0250174Y0110308D01*
X0250015Y0110349D01*
X0249857Y0110395D01*
X0249701Y0110445D01*
X0249545Y0110498D01*
X0249391Y0110555D01*
X0249239Y0110616D01*
X0249088Y0110681D01*
X0248938Y0110750D01*
X0248791Y0110822D01*
X0248645Y0110897D01*
X0248501Y0110977D01*
X0248359Y0111059D01*
X0248219Y0111145D01*
X0248082Y0111235D01*
X0247946Y0111328D01*
X0247813Y0111424D01*
X0247682Y0111524D01*
X0247554Y0111626D01*
X0247428Y0111732D01*
X0247305Y0111841D01*
X0247185Y0111953D01*
X0247067Y0112067D01*
X0246953Y0112185D01*
X0246841Y0112305D01*
X0246732Y0112428D01*
X0246626Y0112554D01*
X0246524Y0112682D01*
X0246424Y0112813D01*
X0246328Y0112946D01*
X0246235Y0113082D01*
X0246145Y0113219D01*
X0246059Y0113359D01*
X0245977Y0113501D01*
X0245897Y0113645D01*
X0245822Y0113791D01*
X0245750Y0113938D01*
X0245681Y0114088D01*
X0245616Y0114239D01*
X0245555Y0114391D01*
X0245498Y0114545D01*
X0245445Y0114701D01*
X0245395Y0114857D01*
X0245349Y0115015D01*
X0245308Y0115174D01*
X0245270Y0115334D01*
X0245236Y0115494D01*
X0245206Y0115656D01*
X0245179Y0115818D01*
X0245157Y0115981D01*
X0245139Y0116144D01*
X0245125Y0116308D01*
X0245115Y0116472D01*
X0245109Y0116636D01*
X0245107Y0116800D01*
M02*
