G75*
%MOIN*%
%OFA0B0*%
%FSLAX25Y25*%
%IPPOS*%
%LPD*%
%AMOC8*
5,1,8,0,0,1.08239X$1,22.5*
%
%ADD10C,0.00000*%
%ADD11C,0.05200*%
%ADD12C,0.06000*%
%ADD13OC8,0.06000*%
%ADD14OC8,0.06600*%
%ADD15C,0.07050*%
%ADD16C,0.01600*%
%ADD17C,0.05000*%
%ADD18C,0.04000*%
%ADD19C,0.02400*%
D10*
X0001800Y0001800D02*
X0001800Y0136761D01*
X0270501Y0136761D01*
X0270501Y0001800D01*
X0001800Y0001800D01*
X0015501Y0021800D02*
X0015503Y0021958D01*
X0015509Y0022116D01*
X0015519Y0022274D01*
X0015533Y0022432D01*
X0015551Y0022589D01*
X0015572Y0022746D01*
X0015598Y0022902D01*
X0015628Y0023058D01*
X0015661Y0023213D01*
X0015699Y0023366D01*
X0015740Y0023519D01*
X0015785Y0023671D01*
X0015834Y0023822D01*
X0015887Y0023971D01*
X0015943Y0024119D01*
X0016003Y0024265D01*
X0016067Y0024410D01*
X0016135Y0024553D01*
X0016206Y0024695D01*
X0016280Y0024835D01*
X0016358Y0024972D01*
X0016440Y0025108D01*
X0016524Y0025242D01*
X0016613Y0025373D01*
X0016704Y0025502D01*
X0016799Y0025629D01*
X0016896Y0025754D01*
X0016997Y0025876D01*
X0017101Y0025995D01*
X0017208Y0026112D01*
X0017318Y0026226D01*
X0017431Y0026337D01*
X0017546Y0026446D01*
X0017664Y0026551D01*
X0017785Y0026653D01*
X0017908Y0026753D01*
X0018034Y0026849D01*
X0018162Y0026942D01*
X0018292Y0027032D01*
X0018425Y0027118D01*
X0018560Y0027202D01*
X0018696Y0027281D01*
X0018835Y0027358D01*
X0018976Y0027430D01*
X0019118Y0027500D01*
X0019262Y0027565D01*
X0019408Y0027627D01*
X0019555Y0027685D01*
X0019704Y0027740D01*
X0019854Y0027791D01*
X0020005Y0027838D01*
X0020157Y0027881D01*
X0020310Y0027920D01*
X0020465Y0027956D01*
X0020620Y0027987D01*
X0020776Y0028015D01*
X0020932Y0028039D01*
X0021089Y0028059D01*
X0021247Y0028075D01*
X0021404Y0028087D01*
X0021563Y0028095D01*
X0021721Y0028099D01*
X0021879Y0028099D01*
X0022037Y0028095D01*
X0022196Y0028087D01*
X0022353Y0028075D01*
X0022511Y0028059D01*
X0022668Y0028039D01*
X0022824Y0028015D01*
X0022980Y0027987D01*
X0023135Y0027956D01*
X0023290Y0027920D01*
X0023443Y0027881D01*
X0023595Y0027838D01*
X0023746Y0027791D01*
X0023896Y0027740D01*
X0024045Y0027685D01*
X0024192Y0027627D01*
X0024338Y0027565D01*
X0024482Y0027500D01*
X0024624Y0027430D01*
X0024765Y0027358D01*
X0024904Y0027281D01*
X0025040Y0027202D01*
X0025175Y0027118D01*
X0025308Y0027032D01*
X0025438Y0026942D01*
X0025566Y0026849D01*
X0025692Y0026753D01*
X0025815Y0026653D01*
X0025936Y0026551D01*
X0026054Y0026446D01*
X0026169Y0026337D01*
X0026282Y0026226D01*
X0026392Y0026112D01*
X0026499Y0025995D01*
X0026603Y0025876D01*
X0026704Y0025754D01*
X0026801Y0025629D01*
X0026896Y0025502D01*
X0026987Y0025373D01*
X0027076Y0025242D01*
X0027160Y0025108D01*
X0027242Y0024972D01*
X0027320Y0024835D01*
X0027394Y0024695D01*
X0027465Y0024553D01*
X0027533Y0024410D01*
X0027597Y0024265D01*
X0027657Y0024119D01*
X0027713Y0023971D01*
X0027766Y0023822D01*
X0027815Y0023671D01*
X0027860Y0023519D01*
X0027901Y0023366D01*
X0027939Y0023213D01*
X0027972Y0023058D01*
X0028002Y0022902D01*
X0028028Y0022746D01*
X0028049Y0022589D01*
X0028067Y0022432D01*
X0028081Y0022274D01*
X0028091Y0022116D01*
X0028097Y0021958D01*
X0028099Y0021800D01*
X0028097Y0021642D01*
X0028091Y0021484D01*
X0028081Y0021326D01*
X0028067Y0021168D01*
X0028049Y0021011D01*
X0028028Y0020854D01*
X0028002Y0020698D01*
X0027972Y0020542D01*
X0027939Y0020387D01*
X0027901Y0020234D01*
X0027860Y0020081D01*
X0027815Y0019929D01*
X0027766Y0019778D01*
X0027713Y0019629D01*
X0027657Y0019481D01*
X0027597Y0019335D01*
X0027533Y0019190D01*
X0027465Y0019047D01*
X0027394Y0018905D01*
X0027320Y0018765D01*
X0027242Y0018628D01*
X0027160Y0018492D01*
X0027076Y0018358D01*
X0026987Y0018227D01*
X0026896Y0018098D01*
X0026801Y0017971D01*
X0026704Y0017846D01*
X0026603Y0017724D01*
X0026499Y0017605D01*
X0026392Y0017488D01*
X0026282Y0017374D01*
X0026169Y0017263D01*
X0026054Y0017154D01*
X0025936Y0017049D01*
X0025815Y0016947D01*
X0025692Y0016847D01*
X0025566Y0016751D01*
X0025438Y0016658D01*
X0025308Y0016568D01*
X0025175Y0016482D01*
X0025040Y0016398D01*
X0024904Y0016319D01*
X0024765Y0016242D01*
X0024624Y0016170D01*
X0024482Y0016100D01*
X0024338Y0016035D01*
X0024192Y0015973D01*
X0024045Y0015915D01*
X0023896Y0015860D01*
X0023746Y0015809D01*
X0023595Y0015762D01*
X0023443Y0015719D01*
X0023290Y0015680D01*
X0023135Y0015644D01*
X0022980Y0015613D01*
X0022824Y0015585D01*
X0022668Y0015561D01*
X0022511Y0015541D01*
X0022353Y0015525D01*
X0022196Y0015513D01*
X0022037Y0015505D01*
X0021879Y0015501D01*
X0021721Y0015501D01*
X0021563Y0015505D01*
X0021404Y0015513D01*
X0021247Y0015525D01*
X0021089Y0015541D01*
X0020932Y0015561D01*
X0020776Y0015585D01*
X0020620Y0015613D01*
X0020465Y0015644D01*
X0020310Y0015680D01*
X0020157Y0015719D01*
X0020005Y0015762D01*
X0019854Y0015809D01*
X0019704Y0015860D01*
X0019555Y0015915D01*
X0019408Y0015973D01*
X0019262Y0016035D01*
X0019118Y0016100D01*
X0018976Y0016170D01*
X0018835Y0016242D01*
X0018696Y0016319D01*
X0018560Y0016398D01*
X0018425Y0016482D01*
X0018292Y0016568D01*
X0018162Y0016658D01*
X0018034Y0016751D01*
X0017908Y0016847D01*
X0017785Y0016947D01*
X0017664Y0017049D01*
X0017546Y0017154D01*
X0017431Y0017263D01*
X0017318Y0017374D01*
X0017208Y0017488D01*
X0017101Y0017605D01*
X0016997Y0017724D01*
X0016896Y0017846D01*
X0016799Y0017971D01*
X0016704Y0018098D01*
X0016613Y0018227D01*
X0016524Y0018358D01*
X0016440Y0018492D01*
X0016358Y0018628D01*
X0016280Y0018765D01*
X0016206Y0018905D01*
X0016135Y0019047D01*
X0016067Y0019190D01*
X0016003Y0019335D01*
X0015943Y0019481D01*
X0015887Y0019629D01*
X0015834Y0019778D01*
X0015785Y0019929D01*
X0015740Y0020081D01*
X0015699Y0020234D01*
X0015661Y0020387D01*
X0015628Y0020542D01*
X0015598Y0020698D01*
X0015572Y0020854D01*
X0015551Y0021011D01*
X0015533Y0021168D01*
X0015519Y0021326D01*
X0015509Y0021484D01*
X0015503Y0021642D01*
X0015501Y0021800D01*
X0015501Y0116800D02*
X0015503Y0116958D01*
X0015509Y0117116D01*
X0015519Y0117274D01*
X0015533Y0117432D01*
X0015551Y0117589D01*
X0015572Y0117746D01*
X0015598Y0117902D01*
X0015628Y0118058D01*
X0015661Y0118213D01*
X0015699Y0118366D01*
X0015740Y0118519D01*
X0015785Y0118671D01*
X0015834Y0118822D01*
X0015887Y0118971D01*
X0015943Y0119119D01*
X0016003Y0119265D01*
X0016067Y0119410D01*
X0016135Y0119553D01*
X0016206Y0119695D01*
X0016280Y0119835D01*
X0016358Y0119972D01*
X0016440Y0120108D01*
X0016524Y0120242D01*
X0016613Y0120373D01*
X0016704Y0120502D01*
X0016799Y0120629D01*
X0016896Y0120754D01*
X0016997Y0120876D01*
X0017101Y0120995D01*
X0017208Y0121112D01*
X0017318Y0121226D01*
X0017431Y0121337D01*
X0017546Y0121446D01*
X0017664Y0121551D01*
X0017785Y0121653D01*
X0017908Y0121753D01*
X0018034Y0121849D01*
X0018162Y0121942D01*
X0018292Y0122032D01*
X0018425Y0122118D01*
X0018560Y0122202D01*
X0018696Y0122281D01*
X0018835Y0122358D01*
X0018976Y0122430D01*
X0019118Y0122500D01*
X0019262Y0122565D01*
X0019408Y0122627D01*
X0019555Y0122685D01*
X0019704Y0122740D01*
X0019854Y0122791D01*
X0020005Y0122838D01*
X0020157Y0122881D01*
X0020310Y0122920D01*
X0020465Y0122956D01*
X0020620Y0122987D01*
X0020776Y0123015D01*
X0020932Y0123039D01*
X0021089Y0123059D01*
X0021247Y0123075D01*
X0021404Y0123087D01*
X0021563Y0123095D01*
X0021721Y0123099D01*
X0021879Y0123099D01*
X0022037Y0123095D01*
X0022196Y0123087D01*
X0022353Y0123075D01*
X0022511Y0123059D01*
X0022668Y0123039D01*
X0022824Y0123015D01*
X0022980Y0122987D01*
X0023135Y0122956D01*
X0023290Y0122920D01*
X0023443Y0122881D01*
X0023595Y0122838D01*
X0023746Y0122791D01*
X0023896Y0122740D01*
X0024045Y0122685D01*
X0024192Y0122627D01*
X0024338Y0122565D01*
X0024482Y0122500D01*
X0024624Y0122430D01*
X0024765Y0122358D01*
X0024904Y0122281D01*
X0025040Y0122202D01*
X0025175Y0122118D01*
X0025308Y0122032D01*
X0025438Y0121942D01*
X0025566Y0121849D01*
X0025692Y0121753D01*
X0025815Y0121653D01*
X0025936Y0121551D01*
X0026054Y0121446D01*
X0026169Y0121337D01*
X0026282Y0121226D01*
X0026392Y0121112D01*
X0026499Y0120995D01*
X0026603Y0120876D01*
X0026704Y0120754D01*
X0026801Y0120629D01*
X0026896Y0120502D01*
X0026987Y0120373D01*
X0027076Y0120242D01*
X0027160Y0120108D01*
X0027242Y0119972D01*
X0027320Y0119835D01*
X0027394Y0119695D01*
X0027465Y0119553D01*
X0027533Y0119410D01*
X0027597Y0119265D01*
X0027657Y0119119D01*
X0027713Y0118971D01*
X0027766Y0118822D01*
X0027815Y0118671D01*
X0027860Y0118519D01*
X0027901Y0118366D01*
X0027939Y0118213D01*
X0027972Y0118058D01*
X0028002Y0117902D01*
X0028028Y0117746D01*
X0028049Y0117589D01*
X0028067Y0117432D01*
X0028081Y0117274D01*
X0028091Y0117116D01*
X0028097Y0116958D01*
X0028099Y0116800D01*
X0028097Y0116642D01*
X0028091Y0116484D01*
X0028081Y0116326D01*
X0028067Y0116168D01*
X0028049Y0116011D01*
X0028028Y0115854D01*
X0028002Y0115698D01*
X0027972Y0115542D01*
X0027939Y0115387D01*
X0027901Y0115234D01*
X0027860Y0115081D01*
X0027815Y0114929D01*
X0027766Y0114778D01*
X0027713Y0114629D01*
X0027657Y0114481D01*
X0027597Y0114335D01*
X0027533Y0114190D01*
X0027465Y0114047D01*
X0027394Y0113905D01*
X0027320Y0113765D01*
X0027242Y0113628D01*
X0027160Y0113492D01*
X0027076Y0113358D01*
X0026987Y0113227D01*
X0026896Y0113098D01*
X0026801Y0112971D01*
X0026704Y0112846D01*
X0026603Y0112724D01*
X0026499Y0112605D01*
X0026392Y0112488D01*
X0026282Y0112374D01*
X0026169Y0112263D01*
X0026054Y0112154D01*
X0025936Y0112049D01*
X0025815Y0111947D01*
X0025692Y0111847D01*
X0025566Y0111751D01*
X0025438Y0111658D01*
X0025308Y0111568D01*
X0025175Y0111482D01*
X0025040Y0111398D01*
X0024904Y0111319D01*
X0024765Y0111242D01*
X0024624Y0111170D01*
X0024482Y0111100D01*
X0024338Y0111035D01*
X0024192Y0110973D01*
X0024045Y0110915D01*
X0023896Y0110860D01*
X0023746Y0110809D01*
X0023595Y0110762D01*
X0023443Y0110719D01*
X0023290Y0110680D01*
X0023135Y0110644D01*
X0022980Y0110613D01*
X0022824Y0110585D01*
X0022668Y0110561D01*
X0022511Y0110541D01*
X0022353Y0110525D01*
X0022196Y0110513D01*
X0022037Y0110505D01*
X0021879Y0110501D01*
X0021721Y0110501D01*
X0021563Y0110505D01*
X0021404Y0110513D01*
X0021247Y0110525D01*
X0021089Y0110541D01*
X0020932Y0110561D01*
X0020776Y0110585D01*
X0020620Y0110613D01*
X0020465Y0110644D01*
X0020310Y0110680D01*
X0020157Y0110719D01*
X0020005Y0110762D01*
X0019854Y0110809D01*
X0019704Y0110860D01*
X0019555Y0110915D01*
X0019408Y0110973D01*
X0019262Y0111035D01*
X0019118Y0111100D01*
X0018976Y0111170D01*
X0018835Y0111242D01*
X0018696Y0111319D01*
X0018560Y0111398D01*
X0018425Y0111482D01*
X0018292Y0111568D01*
X0018162Y0111658D01*
X0018034Y0111751D01*
X0017908Y0111847D01*
X0017785Y0111947D01*
X0017664Y0112049D01*
X0017546Y0112154D01*
X0017431Y0112263D01*
X0017318Y0112374D01*
X0017208Y0112488D01*
X0017101Y0112605D01*
X0016997Y0112724D01*
X0016896Y0112846D01*
X0016799Y0112971D01*
X0016704Y0113098D01*
X0016613Y0113227D01*
X0016524Y0113358D01*
X0016440Y0113492D01*
X0016358Y0113628D01*
X0016280Y0113765D01*
X0016206Y0113905D01*
X0016135Y0114047D01*
X0016067Y0114190D01*
X0016003Y0114335D01*
X0015943Y0114481D01*
X0015887Y0114629D01*
X0015834Y0114778D01*
X0015785Y0114929D01*
X0015740Y0115081D01*
X0015699Y0115234D01*
X0015661Y0115387D01*
X0015628Y0115542D01*
X0015598Y0115698D01*
X0015572Y0115854D01*
X0015551Y0116011D01*
X0015533Y0116168D01*
X0015519Y0116326D01*
X0015509Y0116484D01*
X0015503Y0116642D01*
X0015501Y0116800D01*
X0245501Y0116800D02*
X0245503Y0116958D01*
X0245509Y0117116D01*
X0245519Y0117274D01*
X0245533Y0117432D01*
X0245551Y0117589D01*
X0245572Y0117746D01*
X0245598Y0117902D01*
X0245628Y0118058D01*
X0245661Y0118213D01*
X0245699Y0118366D01*
X0245740Y0118519D01*
X0245785Y0118671D01*
X0245834Y0118822D01*
X0245887Y0118971D01*
X0245943Y0119119D01*
X0246003Y0119265D01*
X0246067Y0119410D01*
X0246135Y0119553D01*
X0246206Y0119695D01*
X0246280Y0119835D01*
X0246358Y0119972D01*
X0246440Y0120108D01*
X0246524Y0120242D01*
X0246613Y0120373D01*
X0246704Y0120502D01*
X0246799Y0120629D01*
X0246896Y0120754D01*
X0246997Y0120876D01*
X0247101Y0120995D01*
X0247208Y0121112D01*
X0247318Y0121226D01*
X0247431Y0121337D01*
X0247546Y0121446D01*
X0247664Y0121551D01*
X0247785Y0121653D01*
X0247908Y0121753D01*
X0248034Y0121849D01*
X0248162Y0121942D01*
X0248292Y0122032D01*
X0248425Y0122118D01*
X0248560Y0122202D01*
X0248696Y0122281D01*
X0248835Y0122358D01*
X0248976Y0122430D01*
X0249118Y0122500D01*
X0249262Y0122565D01*
X0249408Y0122627D01*
X0249555Y0122685D01*
X0249704Y0122740D01*
X0249854Y0122791D01*
X0250005Y0122838D01*
X0250157Y0122881D01*
X0250310Y0122920D01*
X0250465Y0122956D01*
X0250620Y0122987D01*
X0250776Y0123015D01*
X0250932Y0123039D01*
X0251089Y0123059D01*
X0251247Y0123075D01*
X0251404Y0123087D01*
X0251563Y0123095D01*
X0251721Y0123099D01*
X0251879Y0123099D01*
X0252037Y0123095D01*
X0252196Y0123087D01*
X0252353Y0123075D01*
X0252511Y0123059D01*
X0252668Y0123039D01*
X0252824Y0123015D01*
X0252980Y0122987D01*
X0253135Y0122956D01*
X0253290Y0122920D01*
X0253443Y0122881D01*
X0253595Y0122838D01*
X0253746Y0122791D01*
X0253896Y0122740D01*
X0254045Y0122685D01*
X0254192Y0122627D01*
X0254338Y0122565D01*
X0254482Y0122500D01*
X0254624Y0122430D01*
X0254765Y0122358D01*
X0254904Y0122281D01*
X0255040Y0122202D01*
X0255175Y0122118D01*
X0255308Y0122032D01*
X0255438Y0121942D01*
X0255566Y0121849D01*
X0255692Y0121753D01*
X0255815Y0121653D01*
X0255936Y0121551D01*
X0256054Y0121446D01*
X0256169Y0121337D01*
X0256282Y0121226D01*
X0256392Y0121112D01*
X0256499Y0120995D01*
X0256603Y0120876D01*
X0256704Y0120754D01*
X0256801Y0120629D01*
X0256896Y0120502D01*
X0256987Y0120373D01*
X0257076Y0120242D01*
X0257160Y0120108D01*
X0257242Y0119972D01*
X0257320Y0119835D01*
X0257394Y0119695D01*
X0257465Y0119553D01*
X0257533Y0119410D01*
X0257597Y0119265D01*
X0257657Y0119119D01*
X0257713Y0118971D01*
X0257766Y0118822D01*
X0257815Y0118671D01*
X0257860Y0118519D01*
X0257901Y0118366D01*
X0257939Y0118213D01*
X0257972Y0118058D01*
X0258002Y0117902D01*
X0258028Y0117746D01*
X0258049Y0117589D01*
X0258067Y0117432D01*
X0258081Y0117274D01*
X0258091Y0117116D01*
X0258097Y0116958D01*
X0258099Y0116800D01*
X0258097Y0116642D01*
X0258091Y0116484D01*
X0258081Y0116326D01*
X0258067Y0116168D01*
X0258049Y0116011D01*
X0258028Y0115854D01*
X0258002Y0115698D01*
X0257972Y0115542D01*
X0257939Y0115387D01*
X0257901Y0115234D01*
X0257860Y0115081D01*
X0257815Y0114929D01*
X0257766Y0114778D01*
X0257713Y0114629D01*
X0257657Y0114481D01*
X0257597Y0114335D01*
X0257533Y0114190D01*
X0257465Y0114047D01*
X0257394Y0113905D01*
X0257320Y0113765D01*
X0257242Y0113628D01*
X0257160Y0113492D01*
X0257076Y0113358D01*
X0256987Y0113227D01*
X0256896Y0113098D01*
X0256801Y0112971D01*
X0256704Y0112846D01*
X0256603Y0112724D01*
X0256499Y0112605D01*
X0256392Y0112488D01*
X0256282Y0112374D01*
X0256169Y0112263D01*
X0256054Y0112154D01*
X0255936Y0112049D01*
X0255815Y0111947D01*
X0255692Y0111847D01*
X0255566Y0111751D01*
X0255438Y0111658D01*
X0255308Y0111568D01*
X0255175Y0111482D01*
X0255040Y0111398D01*
X0254904Y0111319D01*
X0254765Y0111242D01*
X0254624Y0111170D01*
X0254482Y0111100D01*
X0254338Y0111035D01*
X0254192Y0110973D01*
X0254045Y0110915D01*
X0253896Y0110860D01*
X0253746Y0110809D01*
X0253595Y0110762D01*
X0253443Y0110719D01*
X0253290Y0110680D01*
X0253135Y0110644D01*
X0252980Y0110613D01*
X0252824Y0110585D01*
X0252668Y0110561D01*
X0252511Y0110541D01*
X0252353Y0110525D01*
X0252196Y0110513D01*
X0252037Y0110505D01*
X0251879Y0110501D01*
X0251721Y0110501D01*
X0251563Y0110505D01*
X0251404Y0110513D01*
X0251247Y0110525D01*
X0251089Y0110541D01*
X0250932Y0110561D01*
X0250776Y0110585D01*
X0250620Y0110613D01*
X0250465Y0110644D01*
X0250310Y0110680D01*
X0250157Y0110719D01*
X0250005Y0110762D01*
X0249854Y0110809D01*
X0249704Y0110860D01*
X0249555Y0110915D01*
X0249408Y0110973D01*
X0249262Y0111035D01*
X0249118Y0111100D01*
X0248976Y0111170D01*
X0248835Y0111242D01*
X0248696Y0111319D01*
X0248560Y0111398D01*
X0248425Y0111482D01*
X0248292Y0111568D01*
X0248162Y0111658D01*
X0248034Y0111751D01*
X0247908Y0111847D01*
X0247785Y0111947D01*
X0247664Y0112049D01*
X0247546Y0112154D01*
X0247431Y0112263D01*
X0247318Y0112374D01*
X0247208Y0112488D01*
X0247101Y0112605D01*
X0246997Y0112724D01*
X0246896Y0112846D01*
X0246799Y0112971D01*
X0246704Y0113098D01*
X0246613Y0113227D01*
X0246524Y0113358D01*
X0246440Y0113492D01*
X0246358Y0113628D01*
X0246280Y0113765D01*
X0246206Y0113905D01*
X0246135Y0114047D01*
X0246067Y0114190D01*
X0246003Y0114335D01*
X0245943Y0114481D01*
X0245887Y0114629D01*
X0245834Y0114778D01*
X0245785Y0114929D01*
X0245740Y0115081D01*
X0245699Y0115234D01*
X0245661Y0115387D01*
X0245628Y0115542D01*
X0245598Y0115698D01*
X0245572Y0115854D01*
X0245551Y0116011D01*
X0245533Y0116168D01*
X0245519Y0116326D01*
X0245509Y0116484D01*
X0245503Y0116642D01*
X0245501Y0116800D01*
X0245501Y0021800D02*
X0245503Y0021958D01*
X0245509Y0022116D01*
X0245519Y0022274D01*
X0245533Y0022432D01*
X0245551Y0022589D01*
X0245572Y0022746D01*
X0245598Y0022902D01*
X0245628Y0023058D01*
X0245661Y0023213D01*
X0245699Y0023366D01*
X0245740Y0023519D01*
X0245785Y0023671D01*
X0245834Y0023822D01*
X0245887Y0023971D01*
X0245943Y0024119D01*
X0246003Y0024265D01*
X0246067Y0024410D01*
X0246135Y0024553D01*
X0246206Y0024695D01*
X0246280Y0024835D01*
X0246358Y0024972D01*
X0246440Y0025108D01*
X0246524Y0025242D01*
X0246613Y0025373D01*
X0246704Y0025502D01*
X0246799Y0025629D01*
X0246896Y0025754D01*
X0246997Y0025876D01*
X0247101Y0025995D01*
X0247208Y0026112D01*
X0247318Y0026226D01*
X0247431Y0026337D01*
X0247546Y0026446D01*
X0247664Y0026551D01*
X0247785Y0026653D01*
X0247908Y0026753D01*
X0248034Y0026849D01*
X0248162Y0026942D01*
X0248292Y0027032D01*
X0248425Y0027118D01*
X0248560Y0027202D01*
X0248696Y0027281D01*
X0248835Y0027358D01*
X0248976Y0027430D01*
X0249118Y0027500D01*
X0249262Y0027565D01*
X0249408Y0027627D01*
X0249555Y0027685D01*
X0249704Y0027740D01*
X0249854Y0027791D01*
X0250005Y0027838D01*
X0250157Y0027881D01*
X0250310Y0027920D01*
X0250465Y0027956D01*
X0250620Y0027987D01*
X0250776Y0028015D01*
X0250932Y0028039D01*
X0251089Y0028059D01*
X0251247Y0028075D01*
X0251404Y0028087D01*
X0251563Y0028095D01*
X0251721Y0028099D01*
X0251879Y0028099D01*
X0252037Y0028095D01*
X0252196Y0028087D01*
X0252353Y0028075D01*
X0252511Y0028059D01*
X0252668Y0028039D01*
X0252824Y0028015D01*
X0252980Y0027987D01*
X0253135Y0027956D01*
X0253290Y0027920D01*
X0253443Y0027881D01*
X0253595Y0027838D01*
X0253746Y0027791D01*
X0253896Y0027740D01*
X0254045Y0027685D01*
X0254192Y0027627D01*
X0254338Y0027565D01*
X0254482Y0027500D01*
X0254624Y0027430D01*
X0254765Y0027358D01*
X0254904Y0027281D01*
X0255040Y0027202D01*
X0255175Y0027118D01*
X0255308Y0027032D01*
X0255438Y0026942D01*
X0255566Y0026849D01*
X0255692Y0026753D01*
X0255815Y0026653D01*
X0255936Y0026551D01*
X0256054Y0026446D01*
X0256169Y0026337D01*
X0256282Y0026226D01*
X0256392Y0026112D01*
X0256499Y0025995D01*
X0256603Y0025876D01*
X0256704Y0025754D01*
X0256801Y0025629D01*
X0256896Y0025502D01*
X0256987Y0025373D01*
X0257076Y0025242D01*
X0257160Y0025108D01*
X0257242Y0024972D01*
X0257320Y0024835D01*
X0257394Y0024695D01*
X0257465Y0024553D01*
X0257533Y0024410D01*
X0257597Y0024265D01*
X0257657Y0024119D01*
X0257713Y0023971D01*
X0257766Y0023822D01*
X0257815Y0023671D01*
X0257860Y0023519D01*
X0257901Y0023366D01*
X0257939Y0023213D01*
X0257972Y0023058D01*
X0258002Y0022902D01*
X0258028Y0022746D01*
X0258049Y0022589D01*
X0258067Y0022432D01*
X0258081Y0022274D01*
X0258091Y0022116D01*
X0258097Y0021958D01*
X0258099Y0021800D01*
X0258097Y0021642D01*
X0258091Y0021484D01*
X0258081Y0021326D01*
X0258067Y0021168D01*
X0258049Y0021011D01*
X0258028Y0020854D01*
X0258002Y0020698D01*
X0257972Y0020542D01*
X0257939Y0020387D01*
X0257901Y0020234D01*
X0257860Y0020081D01*
X0257815Y0019929D01*
X0257766Y0019778D01*
X0257713Y0019629D01*
X0257657Y0019481D01*
X0257597Y0019335D01*
X0257533Y0019190D01*
X0257465Y0019047D01*
X0257394Y0018905D01*
X0257320Y0018765D01*
X0257242Y0018628D01*
X0257160Y0018492D01*
X0257076Y0018358D01*
X0256987Y0018227D01*
X0256896Y0018098D01*
X0256801Y0017971D01*
X0256704Y0017846D01*
X0256603Y0017724D01*
X0256499Y0017605D01*
X0256392Y0017488D01*
X0256282Y0017374D01*
X0256169Y0017263D01*
X0256054Y0017154D01*
X0255936Y0017049D01*
X0255815Y0016947D01*
X0255692Y0016847D01*
X0255566Y0016751D01*
X0255438Y0016658D01*
X0255308Y0016568D01*
X0255175Y0016482D01*
X0255040Y0016398D01*
X0254904Y0016319D01*
X0254765Y0016242D01*
X0254624Y0016170D01*
X0254482Y0016100D01*
X0254338Y0016035D01*
X0254192Y0015973D01*
X0254045Y0015915D01*
X0253896Y0015860D01*
X0253746Y0015809D01*
X0253595Y0015762D01*
X0253443Y0015719D01*
X0253290Y0015680D01*
X0253135Y0015644D01*
X0252980Y0015613D01*
X0252824Y0015585D01*
X0252668Y0015561D01*
X0252511Y0015541D01*
X0252353Y0015525D01*
X0252196Y0015513D01*
X0252037Y0015505D01*
X0251879Y0015501D01*
X0251721Y0015501D01*
X0251563Y0015505D01*
X0251404Y0015513D01*
X0251247Y0015525D01*
X0251089Y0015541D01*
X0250932Y0015561D01*
X0250776Y0015585D01*
X0250620Y0015613D01*
X0250465Y0015644D01*
X0250310Y0015680D01*
X0250157Y0015719D01*
X0250005Y0015762D01*
X0249854Y0015809D01*
X0249704Y0015860D01*
X0249555Y0015915D01*
X0249408Y0015973D01*
X0249262Y0016035D01*
X0249118Y0016100D01*
X0248976Y0016170D01*
X0248835Y0016242D01*
X0248696Y0016319D01*
X0248560Y0016398D01*
X0248425Y0016482D01*
X0248292Y0016568D01*
X0248162Y0016658D01*
X0248034Y0016751D01*
X0247908Y0016847D01*
X0247785Y0016947D01*
X0247664Y0017049D01*
X0247546Y0017154D01*
X0247431Y0017263D01*
X0247318Y0017374D01*
X0247208Y0017488D01*
X0247101Y0017605D01*
X0246997Y0017724D01*
X0246896Y0017846D01*
X0246799Y0017971D01*
X0246704Y0018098D01*
X0246613Y0018227D01*
X0246524Y0018358D01*
X0246440Y0018492D01*
X0246358Y0018628D01*
X0246280Y0018765D01*
X0246206Y0018905D01*
X0246135Y0019047D01*
X0246067Y0019190D01*
X0246003Y0019335D01*
X0245943Y0019481D01*
X0245887Y0019629D01*
X0245834Y0019778D01*
X0245785Y0019929D01*
X0245740Y0020081D01*
X0245699Y0020234D01*
X0245661Y0020387D01*
X0245628Y0020542D01*
X0245598Y0020698D01*
X0245572Y0020854D01*
X0245551Y0021011D01*
X0245533Y0021168D01*
X0245519Y0021326D01*
X0245509Y0021484D01*
X0245503Y0021642D01*
X0245501Y0021800D01*
D11*
X0219300Y0054200D02*
X0219300Y0059400D01*
X0209300Y0059400D02*
X0209300Y0054200D01*
X0199300Y0054200D02*
X0199300Y0059400D01*
X0189300Y0059400D02*
X0189300Y0054200D01*
X0179300Y0054200D02*
X0179300Y0059400D01*
X0169300Y0059400D02*
X0169300Y0054200D01*
X0159300Y0054200D02*
X0159300Y0059400D01*
X0149300Y0059400D02*
X0149300Y0054200D01*
X0134300Y0054200D02*
X0134300Y0059400D01*
X0124300Y0059400D02*
X0124300Y0054200D01*
X0114300Y0054200D02*
X0114300Y0059400D01*
X0104300Y0059400D02*
X0104300Y0054200D01*
X0094300Y0054200D02*
X0094300Y0059400D01*
X0084300Y0059400D02*
X0084300Y0054200D01*
X0074300Y0054200D02*
X0074300Y0059400D01*
X0064300Y0059400D02*
X0064300Y0054200D01*
X0064300Y0084200D02*
X0064300Y0089400D01*
X0074300Y0089400D02*
X0074300Y0084200D01*
X0084300Y0084200D02*
X0084300Y0089400D01*
X0094300Y0089400D02*
X0094300Y0084200D01*
X0104300Y0084200D02*
X0104300Y0089400D01*
X0114300Y0089400D02*
X0114300Y0084200D01*
X0124300Y0084200D02*
X0124300Y0089400D01*
X0134300Y0089400D02*
X0134300Y0084200D01*
X0149300Y0084200D02*
X0149300Y0089400D01*
X0159300Y0089400D02*
X0159300Y0084200D01*
X0169300Y0084200D02*
X0169300Y0089400D01*
X0179300Y0089400D02*
X0179300Y0084200D01*
X0189300Y0084200D02*
X0189300Y0089400D01*
X0199300Y0089400D02*
X0199300Y0084200D01*
X0209300Y0084200D02*
X0209300Y0089400D01*
X0219300Y0089400D02*
X0219300Y0084200D01*
D12*
X0216800Y0118800D02*
X0216800Y0124800D01*
X0206800Y0124800D02*
X0206800Y0118800D01*
X0196800Y0118800D02*
X0196800Y0124800D01*
X0186800Y0124800D02*
X0186800Y0118800D01*
X0176800Y0118800D02*
X0176800Y0124800D01*
X0166800Y0124800D02*
X0166800Y0118800D01*
X0106800Y0118800D02*
X0106800Y0124800D01*
X0096800Y0124800D02*
X0096800Y0118800D01*
X0086800Y0118800D02*
X0086800Y0124800D01*
X0076800Y0124800D02*
X0076800Y0118800D01*
X0066800Y0118800D02*
X0066800Y0124800D01*
X0056800Y0124800D02*
X0056800Y0118800D01*
X0041800Y0057300D02*
X0041800Y0051300D01*
X0031800Y0051300D02*
X0031800Y0057300D01*
X0021800Y0057300D02*
X0021800Y0051300D01*
D13*
X0046800Y0036800D03*
X0056800Y0036800D03*
X0066800Y0036800D03*
X0076800Y0036800D03*
X0091800Y0036800D03*
X0101800Y0036800D03*
X0111800Y0036800D03*
X0121800Y0036800D03*
X0121800Y0026800D03*
X0121800Y0026800D03*
X0111800Y0026800D03*
X0111800Y0026800D03*
X0101800Y0026800D03*
X0101800Y0026800D03*
X0091800Y0026800D03*
X0091800Y0026800D03*
X0076800Y0026800D03*
X0076800Y0026800D03*
X0066800Y0026800D03*
X0066800Y0026800D03*
X0056800Y0026800D03*
X0056800Y0026800D03*
X0046800Y0026800D03*
X0046800Y0026800D03*
X0046800Y0016800D03*
X0056800Y0016800D03*
X0066800Y0016800D03*
X0076800Y0016800D03*
X0091800Y0016800D03*
X0101800Y0016800D03*
X0111800Y0016800D03*
X0121800Y0016800D03*
X0151800Y0016800D03*
X0161800Y0016800D03*
X0171800Y0016800D03*
X0181800Y0016800D03*
X0196800Y0016800D03*
X0206800Y0016800D03*
X0216800Y0016800D03*
X0226800Y0016800D03*
X0226800Y0026800D03*
X0226800Y0026800D03*
X0216800Y0026800D03*
X0216800Y0026800D03*
X0206800Y0026800D03*
X0206800Y0026800D03*
X0196800Y0026800D03*
X0196800Y0026800D03*
X0181800Y0026800D03*
X0181800Y0026800D03*
X0171800Y0026800D03*
X0171800Y0026800D03*
X0161800Y0026800D03*
X0161800Y0026800D03*
X0151800Y0026800D03*
X0151800Y0026800D03*
X0151800Y0036800D03*
X0161800Y0036800D03*
X0171800Y0036800D03*
X0181800Y0036800D03*
X0196800Y0036800D03*
X0206800Y0036800D03*
X0216800Y0036800D03*
X0226800Y0036800D03*
D14*
X0051800Y0071800D03*
X0051800Y0085550D03*
X0011800Y0085550D03*
X0011800Y0071800D03*
D15*
X0126957Y0115775D02*
X0126957Y0122825D01*
X0146643Y0122825D02*
X0146643Y0115775D01*
X0250854Y0088985D02*
X0257904Y0088985D01*
X0257904Y0069300D02*
X0250854Y0069300D01*
X0250854Y0049615D02*
X0257904Y0049615D01*
D16*
X0263029Y0049755D02*
X0265701Y0049755D01*
X0265701Y0048157D02*
X0262847Y0048157D01*
X0263029Y0048596D02*
X0262248Y0046712D01*
X0260807Y0045270D01*
X0258923Y0044490D01*
X0249834Y0044490D01*
X0247951Y0045270D01*
X0247706Y0045515D01*
X0246313Y0045515D01*
X0243400Y0042602D01*
X0243400Y0036349D01*
X0243400Y0036349D01*
X0243400Y0036349D01*
X0248062Y0038179D01*
X0248062Y0038179D01*
X0253055Y0038553D01*
X0253055Y0038553D01*
X0257938Y0037439D01*
X0257938Y0037439D01*
X0262275Y0034935D01*
X0262275Y0034935D01*
X0265681Y0031264D01*
X0265681Y0031264D01*
X0265701Y0031222D01*
X0265701Y0107378D01*
X0265681Y0107336D01*
X0265681Y0107336D01*
X0262275Y0103665D01*
X0262275Y0103665D01*
X0257938Y0101161D01*
X0257938Y0101161D01*
X0253055Y0100047D01*
X0253055Y0100047D01*
X0248062Y0100421D01*
X0248062Y0100421D01*
X0243400Y0102251D01*
X0243400Y0102251D01*
X0239485Y0105373D01*
X0239485Y0105373D01*
X0239485Y0105373D01*
X0236664Y0109511D01*
X0236664Y0109511D01*
X0235188Y0114296D01*
X0235188Y0119304D01*
X0236664Y0124089D01*
X0239485Y0128227D01*
X0239485Y0128227D01*
X0243400Y0131349D01*
X0243400Y0131349D01*
X0244958Y0131961D01*
X0217438Y0131961D01*
X0219122Y0130276D01*
X0220276Y0129122D01*
X0220900Y0127616D01*
X0220900Y0126922D01*
X0221400Y0125715D01*
X0221400Y0120498D01*
X0248387Y0093511D01*
X0249834Y0094110D01*
X0258923Y0094110D01*
X0260807Y0093330D01*
X0262248Y0091888D01*
X0263029Y0090004D01*
X0263029Y0087966D01*
X0262248Y0086082D01*
X0260807Y0084640D01*
X0258923Y0083860D01*
X0249834Y0083860D01*
X0247951Y0084640D01*
X0247391Y0085200D01*
X0245984Y0085200D01*
X0244478Y0085824D01*
X0243324Y0086978D01*
X0243324Y0086978D01*
X0216102Y0114200D01*
X0215885Y0114200D01*
X0214194Y0114900D01*
X0212900Y0116194D01*
X0212200Y0117885D01*
X0212200Y0125602D01*
X0210914Y0126887D01*
X0211400Y0125715D01*
X0211400Y0117885D01*
X0210895Y0116665D01*
X0211674Y0115886D01*
X0212100Y0114857D01*
X0212100Y0092540D01*
X0212861Y0091779D01*
X0213500Y0090235D01*
X0213500Y0083365D01*
X0212861Y0081821D01*
X0211679Y0080639D01*
X0210135Y0080000D01*
X0208465Y0080000D01*
X0206921Y0080639D01*
X0205739Y0081821D01*
X0205100Y0083365D01*
X0205100Y0090235D01*
X0205739Y0091779D01*
X0206500Y0092540D01*
X0206500Y0113140D01*
X0205126Y0114515D01*
X0204194Y0114900D01*
X0202900Y0116194D01*
X0202200Y0117885D01*
X0202200Y0125715D01*
X0202900Y0127406D01*
X0203195Y0127700D01*
X0200405Y0127700D01*
X0200700Y0127406D01*
X0201400Y0125715D01*
X0201400Y0117885D01*
X0200895Y0116665D01*
X0201674Y0115886D01*
X0202100Y0114857D01*
X0202100Y0092540D01*
X0202861Y0091779D01*
X0203500Y0090235D01*
X0203500Y0083365D01*
X0202861Y0081821D01*
X0201679Y0080639D01*
X0200135Y0080000D01*
X0198465Y0080000D01*
X0196921Y0080639D01*
X0195739Y0081821D01*
X0195100Y0083365D01*
X0195100Y0090235D01*
X0195739Y0091779D01*
X0196500Y0092540D01*
X0196500Y0113140D01*
X0195126Y0114515D01*
X0194194Y0114900D01*
X0192900Y0116194D01*
X0192200Y0117885D01*
X0192200Y0125715D01*
X0192900Y0127406D01*
X0193195Y0127700D01*
X0190405Y0127700D01*
X0190700Y0127406D01*
X0191400Y0125715D01*
X0191400Y0117885D01*
X0190895Y0116665D01*
X0191674Y0115886D01*
X0192100Y0114857D01*
X0192100Y0092540D01*
X0192861Y0091779D01*
X0193500Y0090235D01*
X0193500Y0083365D01*
X0192861Y0081821D01*
X0191679Y0080639D01*
X0190135Y0080000D01*
X0188465Y0080000D01*
X0187100Y0080565D01*
X0187100Y0080460D01*
X0187960Y0079600D01*
X0213140Y0079600D01*
X0215629Y0082088D01*
X0215100Y0083365D01*
X0215100Y0090235D01*
X0215739Y0091779D01*
X0216921Y0092961D01*
X0218465Y0093600D01*
X0220135Y0093600D01*
X0221679Y0092961D01*
X0222861Y0091779D01*
X0223500Y0090235D01*
X0223500Y0083365D01*
X0222861Y0081821D01*
X0221971Y0080931D01*
X0221674Y0080214D01*
X0216674Y0075214D01*
X0215886Y0074426D01*
X0214857Y0074000D01*
X0186243Y0074000D01*
X0185214Y0074426D01*
X0182714Y0076926D01*
X0181926Y0077714D01*
X0181500Y0078743D01*
X0181500Y0080565D01*
X0180135Y0080000D01*
X0178465Y0080000D01*
X0176921Y0080639D01*
X0175739Y0081821D01*
X0175100Y0083365D01*
X0175100Y0090235D01*
X0175739Y0091779D01*
X0176921Y0092961D01*
X0178465Y0093600D01*
X0180135Y0093600D01*
X0181500Y0093035D01*
X0181500Y0108140D01*
X0175214Y0114426D01*
X0175126Y0114515D01*
X0174194Y0114900D01*
X0172900Y0116194D01*
X0172200Y0117885D01*
X0172200Y0125715D01*
X0172900Y0127406D01*
X0173195Y0127700D01*
X0170626Y0127700D01*
X0170905Y0127316D01*
X0171248Y0126643D01*
X0171482Y0125924D01*
X0171600Y0125178D01*
X0171600Y0122000D01*
X0167000Y0122000D01*
X0167000Y0121600D01*
X0171600Y0121600D01*
X0171600Y0118422D01*
X0171482Y0117676D01*
X0171248Y0116957D01*
X0170905Y0116284D01*
X0170461Y0115673D01*
X0169927Y0115139D01*
X0169316Y0114695D01*
X0168643Y0114352D01*
X0167924Y0114118D01*
X0167178Y0114000D01*
X0167000Y0114000D01*
X0167000Y0121600D01*
X0166600Y0121600D01*
X0166600Y0114000D01*
X0166422Y0114000D01*
X0165676Y0114118D01*
X0164957Y0114352D01*
X0164284Y0114695D01*
X0163673Y0115139D01*
X0163139Y0115673D01*
X0162695Y0116284D01*
X0162352Y0116957D01*
X0162118Y0117676D01*
X0162000Y0118422D01*
X0162000Y0121600D01*
X0166600Y0121600D01*
X0166600Y0122000D01*
X0162000Y0122000D01*
X0162000Y0125178D01*
X0162118Y0125924D01*
X0162352Y0126643D01*
X0162695Y0127316D01*
X0162974Y0127700D01*
X0150743Y0127700D01*
X0150743Y0125973D01*
X0150987Y0125728D01*
X0151768Y0123844D01*
X0151768Y0114756D01*
X0150987Y0112872D01*
X0149546Y0111430D01*
X0147662Y0110650D01*
X0145623Y0110650D01*
X0143739Y0111430D01*
X0142298Y0112872D01*
X0141518Y0114756D01*
X0141518Y0123844D01*
X0142298Y0125728D01*
X0142543Y0125973D01*
X0142543Y0127700D01*
X0129119Y0127700D01*
X0129748Y0127379D01*
X0130426Y0126887D01*
X0131019Y0126294D01*
X0131512Y0125616D01*
X0131892Y0124869D01*
X0132151Y0124072D01*
X0132282Y0123244D01*
X0132282Y0119675D01*
X0127333Y0119675D01*
X0127333Y0118925D01*
X0132282Y0118925D01*
X0132282Y0115356D01*
X0132151Y0114528D01*
X0131892Y0113731D01*
X0131512Y0112984D01*
X0131019Y0112306D01*
X0130426Y0111713D01*
X0129748Y0111221D01*
X0129002Y0110840D01*
X0128204Y0110581D01*
X0127377Y0110450D01*
X0127332Y0110450D01*
X0127332Y0118925D01*
X0126582Y0118925D01*
X0121632Y0118925D01*
X0121632Y0115356D01*
X0121764Y0114528D01*
X0122023Y0113731D01*
X0122403Y0112984D01*
X0122896Y0112306D01*
X0123488Y0111713D01*
X0124167Y0111221D01*
X0124913Y0110840D01*
X0125711Y0110581D01*
X0126538Y0110450D01*
X0126582Y0110450D01*
X0126582Y0118925D01*
X0126582Y0119675D01*
X0121632Y0119675D01*
X0121632Y0123244D01*
X0121764Y0124072D01*
X0122023Y0124869D01*
X0122403Y0125616D01*
X0122896Y0126294D01*
X0123488Y0126887D01*
X0124167Y0127379D01*
X0124796Y0127700D01*
X0113498Y0127700D01*
X0111400Y0125602D01*
X0111400Y0117885D01*
X0110700Y0116194D01*
X0109406Y0114900D01*
X0107715Y0114200D01*
X0105885Y0114200D01*
X0105842Y0114218D01*
X0125886Y0094174D01*
X0126674Y0093386D01*
X0126971Y0092669D01*
X0127861Y0091779D01*
X0128500Y0090235D01*
X0128500Y0083365D01*
X0127861Y0081821D01*
X0126679Y0080639D01*
X0125135Y0080000D01*
X0123465Y0080000D01*
X0121921Y0080639D01*
X0120739Y0081821D01*
X0120100Y0083365D01*
X0120100Y0090235D01*
X0120629Y0091512D01*
X0097874Y0114266D01*
X0097715Y0114200D01*
X0095885Y0114200D01*
X0095842Y0114218D01*
X0115886Y0094174D01*
X0116674Y0093386D01*
X0116971Y0092669D01*
X0117861Y0091779D01*
X0118500Y0090235D01*
X0118500Y0083365D01*
X0117861Y0081821D01*
X0116679Y0080639D01*
X0115135Y0080000D01*
X0113465Y0080000D01*
X0111921Y0080639D01*
X0110739Y0081821D01*
X0110100Y0083365D01*
X0110100Y0090235D01*
X0110629Y0091512D01*
X0087874Y0114266D01*
X0087715Y0114200D01*
X0085885Y0114200D01*
X0085842Y0114218D01*
X0105886Y0094174D01*
X0106674Y0093386D01*
X0106971Y0092669D01*
X0107861Y0091779D01*
X0108500Y0090235D01*
X0108500Y0083365D01*
X0107861Y0081821D01*
X0106679Y0080639D01*
X0105135Y0080000D01*
X0103465Y0080000D01*
X0101921Y0080639D01*
X0100739Y0081821D01*
X0100100Y0083365D01*
X0100100Y0090235D01*
X0100629Y0091512D01*
X0077874Y0114266D01*
X0077715Y0114200D01*
X0075885Y0114200D01*
X0075842Y0114218D01*
X0085886Y0104174D01*
X0086674Y0103386D01*
X0087100Y0102357D01*
X0087100Y0092540D01*
X0087861Y0091779D01*
X0088500Y0090235D01*
X0088500Y0083365D01*
X0087861Y0081821D01*
X0086679Y0080639D01*
X0085135Y0080000D01*
X0083465Y0080000D01*
X0081921Y0080639D01*
X0080739Y0081821D01*
X0080100Y0083365D01*
X0080100Y0090235D01*
X0080739Y0091779D01*
X0081500Y0092540D01*
X0081500Y0100640D01*
X0067874Y0114266D01*
X0067715Y0114200D01*
X0065885Y0114200D01*
X0064194Y0114900D01*
X0062900Y0116194D01*
X0062200Y0117885D01*
X0062200Y0125715D01*
X0062900Y0127406D01*
X0064194Y0128700D01*
X0065885Y0129400D01*
X0067715Y0129400D01*
X0069406Y0128700D01*
X0070700Y0127406D01*
X0071400Y0125715D01*
X0071400Y0118660D01*
X0072218Y0117842D01*
X0072200Y0117885D01*
X0072200Y0125715D01*
X0072900Y0127406D01*
X0074194Y0128700D01*
X0075885Y0129400D01*
X0077715Y0129400D01*
X0079406Y0128700D01*
X0080700Y0127406D01*
X0081400Y0125715D01*
X0081400Y0118660D01*
X0082218Y0117842D01*
X0082200Y0117885D01*
X0082200Y0125715D01*
X0082900Y0127406D01*
X0084194Y0128700D01*
X0085885Y0129400D01*
X0087715Y0129400D01*
X0089406Y0128700D01*
X0090700Y0127406D01*
X0091400Y0125715D01*
X0091400Y0118660D01*
X0092218Y0117842D01*
X0092200Y0117885D01*
X0092200Y0125715D01*
X0092900Y0127406D01*
X0094194Y0128700D01*
X0095885Y0129400D01*
X0097715Y0129400D01*
X0099406Y0128700D01*
X0100700Y0127406D01*
X0101400Y0125715D01*
X0101400Y0118660D01*
X0102218Y0117842D01*
X0102200Y0117885D01*
X0102200Y0125715D01*
X0102700Y0126922D01*
X0102700Y0127616D01*
X0103324Y0129122D01*
X0106162Y0131961D01*
X0028766Y0131961D01*
X0032275Y0129935D01*
X0032275Y0129935D01*
X0035681Y0126264D01*
X0035681Y0126264D01*
X0037854Y0121752D01*
X0037854Y0121752D01*
X0038600Y0116800D01*
X0037854Y0111848D01*
X0037854Y0111848D01*
X0035681Y0107336D01*
X0035681Y0107336D01*
X0032275Y0103665D01*
X0032275Y0103665D01*
X0032275Y0103665D01*
X0027938Y0101161D01*
X0027938Y0101161D01*
X0023055Y0100047D01*
X0023055Y0100047D01*
X0018062Y0100421D01*
X0018062Y0100421D01*
X0013400Y0102251D01*
X0013400Y0102251D01*
X0009485Y0105373D01*
X0009485Y0105373D01*
X0009485Y0105373D01*
X0006664Y0109511D01*
X0006664Y0109511D01*
X0006600Y0109717D01*
X0006600Y0028883D01*
X0006664Y0029089D01*
X0006664Y0029089D01*
X0009485Y0033227D01*
X0009485Y0033227D01*
X0013400Y0036349D01*
X0013400Y0036349D01*
X0018062Y0038179D01*
X0018062Y0038179D01*
X0023055Y0038553D01*
X0023055Y0038553D01*
X0027938Y0037439D01*
X0027938Y0037439D01*
X0032275Y0034935D01*
X0032275Y0034935D01*
X0032700Y0034476D01*
X0032700Y0042616D01*
X0033324Y0044122D01*
X0034478Y0045276D01*
X0037700Y0048498D01*
X0037700Y0049178D01*
X0037200Y0050385D01*
X0037200Y0058215D01*
X0037700Y0059422D01*
X0037700Y0062616D01*
X0038324Y0064122D01*
X0046900Y0072698D01*
X0046900Y0073830D01*
X0049770Y0076700D01*
X0050902Y0076700D01*
X0060100Y0085898D01*
X0060100Y0090235D01*
X0060739Y0091779D01*
X0061921Y0092961D01*
X0063465Y0093600D01*
X0065135Y0093600D01*
X0066679Y0092961D01*
X0067861Y0091779D01*
X0068500Y0090235D01*
X0068500Y0083365D01*
X0067861Y0081821D01*
X0066679Y0080639D01*
X0066267Y0080469D01*
X0056700Y0070902D01*
X0056700Y0069770D01*
X0053830Y0066900D01*
X0052698Y0066900D01*
X0045900Y0060102D01*
X0045900Y0059422D01*
X0046400Y0058215D01*
X0046400Y0050385D01*
X0045900Y0049178D01*
X0045900Y0045984D01*
X0045276Y0044478D01*
X0040900Y0040102D01*
X0040900Y0033498D01*
X0043498Y0030900D01*
X0044395Y0030900D01*
X0044895Y0031400D01*
X0048705Y0031400D01*
X0049205Y0030900D01*
X0054395Y0030900D01*
X0054895Y0031400D01*
X0058705Y0031400D01*
X0059205Y0030900D01*
X0064395Y0030900D01*
X0064895Y0031400D01*
X0068705Y0031400D01*
X0069205Y0030900D01*
X0074395Y0030900D01*
X0074895Y0031400D01*
X0078705Y0031400D01*
X0079205Y0030900D01*
X0089395Y0030900D01*
X0089895Y0031400D01*
X0093705Y0031400D01*
X0094205Y0030900D01*
X0099395Y0030900D01*
X0099895Y0031400D01*
X0103705Y0031400D01*
X0104205Y0030900D01*
X0109395Y0030900D01*
X0109895Y0031400D01*
X0113705Y0031400D01*
X0114205Y0030900D01*
X0119395Y0030900D01*
X0119895Y0031400D01*
X0123705Y0031400D01*
X0124205Y0030900D01*
X0149395Y0030900D01*
X0149895Y0031400D01*
X0153705Y0031400D01*
X0154205Y0030900D01*
X0159395Y0030900D01*
X0159895Y0031400D01*
X0163705Y0031400D01*
X0164205Y0030900D01*
X0169395Y0030900D01*
X0169895Y0031400D01*
X0173705Y0031400D01*
X0174205Y0030900D01*
X0179395Y0030900D01*
X0179895Y0031400D01*
X0183705Y0031400D01*
X0184205Y0030900D01*
X0194395Y0030900D01*
X0194895Y0031400D01*
X0198705Y0031400D01*
X0199205Y0030900D01*
X0204395Y0030900D01*
X0204895Y0031400D01*
X0208705Y0031400D01*
X0209205Y0030900D01*
X0214395Y0030900D01*
X0214895Y0031400D01*
X0218705Y0031400D01*
X0219205Y0030900D01*
X0224395Y0030900D01*
X0224895Y0031400D01*
X0228102Y0031400D01*
X0235200Y0038498D01*
X0235200Y0045116D01*
X0235824Y0046622D01*
X0241139Y0051937D01*
X0242292Y0053091D01*
X0243799Y0053715D01*
X0247706Y0053715D01*
X0247951Y0053960D01*
X0249834Y0054740D01*
X0258923Y0054740D01*
X0260807Y0053960D01*
X0262248Y0052518D01*
X0263029Y0050634D01*
X0263029Y0048596D01*
X0262095Y0046558D02*
X0265701Y0046558D01*
X0265701Y0044960D02*
X0260057Y0044960D01*
X0265701Y0043361D02*
X0244160Y0043361D01*
X0243400Y0041763D02*
X0265701Y0041763D01*
X0265701Y0040164D02*
X0243400Y0040164D01*
X0243400Y0038566D02*
X0265701Y0038566D01*
X0265701Y0036967D02*
X0258754Y0036967D01*
X0261523Y0035369D02*
X0265701Y0035369D01*
X0265701Y0033770D02*
X0263355Y0033770D01*
X0264838Y0032172D02*
X0265701Y0032172D01*
X0244975Y0036967D02*
X0243400Y0036967D01*
X0235200Y0038566D02*
X0231400Y0038566D01*
X0231400Y0038705D02*
X0228705Y0041400D01*
X0226160Y0041400D01*
X0217257Y0050303D01*
X0217611Y0050122D01*
X0218270Y0049908D01*
X0218954Y0049800D01*
X0219300Y0049800D01*
X0219646Y0049800D01*
X0220330Y0049908D01*
X0220989Y0050122D01*
X0221606Y0050437D01*
X0222166Y0050844D01*
X0222656Y0051334D01*
X0223063Y0051894D01*
X0223378Y0052511D01*
X0223592Y0053170D01*
X0223700Y0053854D01*
X0223700Y0056800D01*
X0223700Y0059746D01*
X0223592Y0060430D01*
X0223378Y0061089D01*
X0223063Y0061706D01*
X0222656Y0062266D01*
X0222166Y0062756D01*
X0221606Y0063163D01*
X0220989Y0063478D01*
X0220330Y0063692D01*
X0219646Y0063800D01*
X0219300Y0063800D01*
X0219300Y0056800D01*
X0219300Y0056800D01*
X0223700Y0056800D01*
X0219300Y0056800D01*
X0219300Y0056800D01*
X0219300Y0056800D01*
X0214900Y0056800D01*
X0214900Y0059746D01*
X0215008Y0060430D01*
X0215222Y0061089D01*
X0215537Y0061706D01*
X0215944Y0062266D01*
X0216434Y0062756D01*
X0216994Y0063163D01*
X0217611Y0063478D01*
X0218270Y0063692D01*
X0218954Y0063800D01*
X0219300Y0063800D01*
X0219300Y0056800D01*
X0219300Y0049800D01*
X0219300Y0056800D01*
X0219300Y0056800D01*
X0214900Y0056800D01*
X0214900Y0053854D01*
X0215008Y0053170D01*
X0215222Y0052511D01*
X0215403Y0052157D01*
X0213500Y0054060D01*
X0213500Y0060235D01*
X0212861Y0061779D01*
X0211679Y0062961D01*
X0210135Y0063600D01*
X0208465Y0063600D01*
X0206921Y0062961D01*
X0205739Y0061779D01*
X0205100Y0060235D01*
X0205100Y0053365D01*
X0205739Y0051821D01*
X0206921Y0050639D01*
X0208465Y0050000D01*
X0209640Y0050000D01*
X0218240Y0041400D01*
X0216160Y0041400D01*
X0203500Y0054060D01*
X0203500Y0060235D01*
X0202861Y0061779D01*
X0201679Y0062961D01*
X0200135Y0063600D01*
X0198465Y0063600D01*
X0196921Y0062961D01*
X0195739Y0061779D01*
X0195100Y0060235D01*
X0195100Y0053365D01*
X0195739Y0051821D01*
X0196921Y0050639D01*
X0198465Y0050000D01*
X0199640Y0050000D01*
X0208240Y0041400D01*
X0206160Y0041400D01*
X0193500Y0054060D01*
X0193500Y0060235D01*
X0192861Y0061779D01*
X0191679Y0062961D01*
X0190135Y0063600D01*
X0188465Y0063600D01*
X0186921Y0062961D01*
X0185739Y0061779D01*
X0185100Y0060235D01*
X0185100Y0053365D01*
X0185739Y0051821D01*
X0186921Y0050639D01*
X0188465Y0050000D01*
X0189640Y0050000D01*
X0198240Y0041400D01*
X0196160Y0041400D01*
X0183500Y0054060D01*
X0183500Y0060235D01*
X0182861Y0061779D01*
X0181679Y0062961D01*
X0180135Y0063600D01*
X0178465Y0063600D01*
X0176921Y0062961D01*
X0175739Y0061779D01*
X0175100Y0060235D01*
X0175100Y0053365D01*
X0175739Y0051821D01*
X0176921Y0050639D01*
X0178465Y0050000D01*
X0179640Y0050000D01*
X0192200Y0037440D01*
X0192200Y0034895D01*
X0194895Y0032200D01*
X0198705Y0032200D01*
X0201400Y0034895D01*
X0201400Y0038240D01*
X0202200Y0037440D01*
X0202200Y0034895D01*
X0204895Y0032200D01*
X0208705Y0032200D01*
X0211400Y0034895D01*
X0211400Y0038240D01*
X0212200Y0037440D01*
X0212200Y0034895D01*
X0214895Y0032200D01*
X0218705Y0032200D01*
X0221400Y0034895D01*
X0221400Y0038240D01*
X0222200Y0037440D01*
X0222200Y0034895D01*
X0224895Y0032200D01*
X0228705Y0032200D01*
X0231400Y0034895D01*
X0231400Y0038705D01*
X0231400Y0036967D02*
X0233669Y0036967D01*
X0232070Y0035369D02*
X0231400Y0035369D01*
X0230472Y0033770D02*
X0230276Y0033770D01*
X0228873Y0032172D02*
X0042227Y0032172D01*
X0043324Y0033770D02*
X0040900Y0033770D01*
X0040900Y0035369D02*
X0042200Y0035369D01*
X0042200Y0034895D02*
X0044895Y0032200D01*
X0048705Y0032200D01*
X0051400Y0034895D01*
X0051400Y0038705D01*
X0049600Y0040505D01*
X0049600Y0040640D01*
X0058386Y0049426D01*
X0059174Y0050214D01*
X0059600Y0051243D01*
X0059600Y0063140D01*
X0076674Y0080214D01*
X0076971Y0080931D01*
X0077861Y0081821D01*
X0078500Y0083365D01*
X0078500Y0090235D01*
X0077861Y0091779D01*
X0076679Y0092961D01*
X0075135Y0093600D01*
X0073465Y0093600D01*
X0071921Y0092961D01*
X0070739Y0091779D01*
X0070100Y0090235D01*
X0070100Y0083365D01*
X0070629Y0082088D01*
X0055214Y0066674D01*
X0054426Y0065886D01*
X0054000Y0064857D01*
X0054000Y0052960D01*
X0045214Y0044174D01*
X0044426Y0043386D01*
X0044000Y0042357D01*
X0044000Y0040505D01*
X0042200Y0038705D01*
X0042200Y0034895D01*
X0042200Y0036967D02*
X0040900Y0036967D01*
X0040900Y0038566D02*
X0042200Y0038566D01*
X0040963Y0040164D02*
X0043659Y0040164D01*
X0044000Y0041763D02*
X0042561Y0041763D01*
X0044160Y0043361D02*
X0044416Y0043361D01*
X0045214Y0044174D02*
X0045214Y0044174D01*
X0045476Y0044960D02*
X0046000Y0044960D01*
X0045900Y0046558D02*
X0047599Y0046558D01*
X0049197Y0048157D02*
X0045900Y0048157D01*
X0046139Y0049755D02*
X0050796Y0049755D01*
X0052394Y0051354D02*
X0046400Y0051354D01*
X0046400Y0052952D02*
X0053993Y0052952D01*
X0054000Y0054551D02*
X0046400Y0054551D01*
X0046400Y0056149D02*
X0054000Y0056149D01*
X0054000Y0057748D02*
X0046400Y0057748D01*
X0045931Y0059346D02*
X0054000Y0059346D01*
X0054000Y0060945D02*
X0046743Y0060945D01*
X0048342Y0062543D02*
X0054000Y0062543D01*
X0054000Y0064142D02*
X0049940Y0064142D01*
X0051539Y0065740D02*
X0054366Y0065740D01*
X0054269Y0067339D02*
X0055879Y0067339D01*
X0055867Y0068937D02*
X0057478Y0068937D01*
X0056700Y0070536D02*
X0059076Y0070536D01*
X0057933Y0072134D02*
X0060675Y0072134D01*
X0059531Y0073733D02*
X0062273Y0073733D01*
X0061130Y0075332D02*
X0063872Y0075332D01*
X0062728Y0076930D02*
X0065470Y0076930D01*
X0064327Y0078529D02*
X0067069Y0078529D01*
X0065925Y0080127D02*
X0068667Y0080127D01*
X0067765Y0081726D02*
X0070266Y0081726D01*
X0070117Y0083324D02*
X0068483Y0083324D01*
X0068500Y0084923D02*
X0070100Y0084923D01*
X0070100Y0086521D02*
X0068500Y0086521D01*
X0068500Y0088120D02*
X0070100Y0088120D01*
X0070100Y0089718D02*
X0068500Y0089718D01*
X0068052Y0091317D02*
X0070548Y0091317D01*
X0071875Y0092915D02*
X0066725Y0092915D01*
X0061875Y0092915D02*
X0006600Y0092915D01*
X0006600Y0094514D02*
X0081500Y0094514D01*
X0081500Y0096112D02*
X0006600Y0096112D01*
X0006600Y0097711D02*
X0081500Y0097711D01*
X0081500Y0099309D02*
X0006600Y0099309D01*
X0006600Y0100908D02*
X0016822Y0100908D01*
X0013080Y0102506D02*
X0006600Y0102506D01*
X0006600Y0104105D02*
X0011075Y0104105D01*
X0009260Y0105703D02*
X0006600Y0105703D01*
X0006600Y0107302D02*
X0008170Y0107302D01*
X0007080Y0108900D02*
X0006600Y0108900D01*
X0026827Y0100908D02*
X0081232Y0100908D01*
X0079634Y0102506D02*
X0030267Y0102506D01*
X0032682Y0104105D02*
X0078035Y0104105D01*
X0076437Y0105703D02*
X0034166Y0105703D01*
X0035649Y0107302D02*
X0074838Y0107302D01*
X0073240Y0108900D02*
X0036434Y0108900D01*
X0037204Y0110499D02*
X0071641Y0110499D01*
X0070043Y0112097D02*
X0037891Y0112097D01*
X0038132Y0113696D02*
X0068444Y0113696D01*
X0063800Y0115294D02*
X0060083Y0115294D01*
X0059927Y0115139D02*
X0060461Y0115673D01*
X0060905Y0116284D01*
X0061248Y0116957D01*
X0061482Y0117676D01*
X0061600Y0118422D01*
X0061600Y0121600D01*
X0057000Y0121600D01*
X0057000Y0122000D01*
X0061600Y0122000D01*
X0061600Y0125178D01*
X0061482Y0125924D01*
X0061248Y0126643D01*
X0060905Y0127316D01*
X0060461Y0127927D01*
X0059927Y0128461D01*
X0059316Y0128905D01*
X0058643Y0129248D01*
X0057924Y0129482D01*
X0057178Y0129600D01*
X0057000Y0129600D01*
X0057000Y0122000D01*
X0056600Y0122000D01*
X0056600Y0129600D01*
X0056422Y0129600D01*
X0055676Y0129482D01*
X0054957Y0129248D01*
X0054284Y0128905D01*
X0053673Y0128461D01*
X0053139Y0127927D01*
X0052695Y0127316D01*
X0052352Y0126643D01*
X0052118Y0125924D01*
X0052000Y0125178D01*
X0052000Y0122000D01*
X0056600Y0122000D01*
X0056600Y0121600D01*
X0057000Y0121600D01*
X0057000Y0114000D01*
X0057178Y0114000D01*
X0057924Y0114118D01*
X0058643Y0114352D01*
X0059316Y0114695D01*
X0059927Y0115139D01*
X0061215Y0116893D02*
X0062611Y0116893D01*
X0062200Y0118491D02*
X0061600Y0118491D01*
X0061600Y0120090D02*
X0062200Y0120090D01*
X0062200Y0121688D02*
X0057000Y0121688D01*
X0056600Y0121688D02*
X0037863Y0121688D01*
X0038104Y0120090D02*
X0052000Y0120090D01*
X0052000Y0121600D02*
X0052000Y0118422D01*
X0052118Y0117676D01*
X0052352Y0116957D01*
X0052695Y0116284D01*
X0053139Y0115673D01*
X0053673Y0115139D01*
X0054284Y0114695D01*
X0054957Y0114352D01*
X0055676Y0114118D01*
X0056422Y0114000D01*
X0056600Y0114000D01*
X0056600Y0121600D01*
X0052000Y0121600D01*
X0052000Y0123287D02*
X0037114Y0123287D01*
X0036345Y0124885D02*
X0052000Y0124885D01*
X0052300Y0126484D02*
X0035477Y0126484D01*
X0033993Y0128082D02*
X0053294Y0128082D01*
X0056600Y0128082D02*
X0057000Y0128082D01*
X0057000Y0126484D02*
X0056600Y0126484D01*
X0056600Y0124885D02*
X0057000Y0124885D01*
X0061300Y0126484D02*
X0062518Y0126484D01*
X0062200Y0124885D02*
X0061600Y0124885D01*
X0061600Y0123287D02*
X0062200Y0123287D01*
X0057000Y0123287D02*
X0056600Y0123287D01*
X0056600Y0120090D02*
X0057000Y0120090D01*
X0057000Y0118491D02*
X0056600Y0118491D01*
X0056600Y0116893D02*
X0057000Y0116893D01*
X0057000Y0115294D02*
X0056600Y0115294D01*
X0053517Y0115294D02*
X0038373Y0115294D01*
X0038586Y0116893D02*
X0052385Y0116893D01*
X0052000Y0118491D02*
X0038345Y0118491D01*
X0032510Y0129681D02*
X0103883Y0129681D01*
X0102893Y0128082D02*
X0100023Y0128082D01*
X0101082Y0126484D02*
X0102518Y0126484D01*
X0102200Y0124885D02*
X0101400Y0124885D01*
X0101400Y0123287D02*
X0102200Y0123287D01*
X0102200Y0121688D02*
X0101400Y0121688D01*
X0101400Y0120090D02*
X0102200Y0120090D01*
X0102200Y0118491D02*
X0101568Y0118491D01*
X0098444Y0113696D02*
X0096364Y0113696D01*
X0097962Y0112097D02*
X0100043Y0112097D01*
X0099561Y0110499D02*
X0101641Y0110499D01*
X0101160Y0108900D02*
X0103240Y0108900D01*
X0102758Y0107302D02*
X0104838Y0107302D01*
X0104357Y0105703D02*
X0106437Y0105703D01*
X0105955Y0104105D02*
X0108035Y0104105D01*
X0107554Y0102506D02*
X0109634Y0102506D01*
X0109152Y0100908D02*
X0111232Y0100908D01*
X0110751Y0099309D02*
X0112831Y0099309D01*
X0112349Y0097711D02*
X0114430Y0097711D01*
X0113948Y0096112D02*
X0116028Y0096112D01*
X0115546Y0094514D02*
X0117627Y0094514D01*
X0116869Y0092915D02*
X0119225Y0092915D01*
X0118052Y0091317D02*
X0120548Y0091317D01*
X0120100Y0089718D02*
X0118500Y0089718D01*
X0118500Y0088120D02*
X0120100Y0088120D01*
X0120100Y0086521D02*
X0118500Y0086521D01*
X0118500Y0084923D02*
X0120100Y0084923D01*
X0120117Y0083324D02*
X0118483Y0083324D01*
X0117765Y0081726D02*
X0120835Y0081726D01*
X0123158Y0080127D02*
X0115442Y0080127D01*
X0113158Y0080127D02*
X0105442Y0080127D01*
X0103158Y0080127D02*
X0095442Y0080127D01*
X0095135Y0080000D02*
X0096679Y0080639D01*
X0097861Y0081821D01*
X0098500Y0083365D01*
X0098500Y0090235D01*
X0097861Y0091779D01*
X0096679Y0092961D01*
X0095135Y0093600D01*
X0093465Y0093600D01*
X0091921Y0092961D01*
X0090739Y0091779D01*
X0090100Y0090235D01*
X0090100Y0083365D01*
X0090739Y0081821D01*
X0091921Y0080639D01*
X0093465Y0080000D01*
X0095135Y0080000D01*
X0093158Y0080127D02*
X0085442Y0080127D01*
X0083158Y0080127D02*
X0076587Y0080127D01*
X0077765Y0081726D02*
X0080835Y0081726D01*
X0080117Y0083324D02*
X0078483Y0083324D01*
X0078500Y0084923D02*
X0080100Y0084923D01*
X0080100Y0086521D02*
X0078500Y0086521D01*
X0078500Y0088120D02*
X0080100Y0088120D01*
X0080100Y0089718D02*
X0078500Y0089718D01*
X0078052Y0091317D02*
X0080548Y0091317D01*
X0081500Y0092915D02*
X0076725Y0092915D01*
X0087100Y0092915D02*
X0091875Y0092915D01*
X0090548Y0091317D02*
X0088052Y0091317D01*
X0088500Y0089718D02*
X0090100Y0089718D01*
X0090100Y0088120D02*
X0088500Y0088120D01*
X0088500Y0086521D02*
X0090100Y0086521D01*
X0090100Y0084923D02*
X0088500Y0084923D01*
X0088483Y0083324D02*
X0090117Y0083324D01*
X0090835Y0081726D02*
X0087765Y0081726D01*
X0097765Y0081726D02*
X0100835Y0081726D01*
X0100117Y0083324D02*
X0098483Y0083324D01*
X0098500Y0084923D02*
X0100100Y0084923D01*
X0100100Y0086521D02*
X0098500Y0086521D01*
X0098500Y0088120D02*
X0100100Y0088120D01*
X0100100Y0089718D02*
X0098500Y0089718D01*
X0098052Y0091317D02*
X0100548Y0091317D01*
X0099225Y0092915D02*
X0096725Y0092915D01*
X0097627Y0094514D02*
X0087100Y0094514D01*
X0087100Y0096112D02*
X0096028Y0096112D01*
X0094430Y0097711D02*
X0087100Y0097711D01*
X0087100Y0099309D02*
X0092831Y0099309D01*
X0091232Y0100908D02*
X0087100Y0100908D01*
X0087038Y0102506D02*
X0089634Y0102506D01*
X0088035Y0104105D02*
X0085955Y0104105D01*
X0086437Y0105703D02*
X0084357Y0105703D01*
X0084838Y0107302D02*
X0082758Y0107302D01*
X0083240Y0108900D02*
X0081160Y0108900D01*
X0081641Y0110499D02*
X0079561Y0110499D01*
X0080043Y0112097D02*
X0077963Y0112097D01*
X0078444Y0113696D02*
X0076364Y0113696D01*
X0072200Y0118491D02*
X0071568Y0118491D01*
X0071400Y0120090D02*
X0072200Y0120090D01*
X0072200Y0121688D02*
X0071400Y0121688D01*
X0071400Y0123287D02*
X0072200Y0123287D01*
X0072200Y0124885D02*
X0071400Y0124885D01*
X0071082Y0126484D02*
X0072518Y0126484D01*
X0073577Y0128082D02*
X0070023Y0128082D01*
X0063577Y0128082D02*
X0060306Y0128082D01*
X0080023Y0128082D02*
X0083577Y0128082D01*
X0082518Y0126484D02*
X0081082Y0126484D01*
X0081400Y0124885D02*
X0082200Y0124885D01*
X0082200Y0123287D02*
X0081400Y0123287D01*
X0081400Y0121688D02*
X0082200Y0121688D01*
X0082200Y0120090D02*
X0081400Y0120090D01*
X0081568Y0118491D02*
X0082200Y0118491D01*
X0086364Y0113696D02*
X0088444Y0113696D01*
X0087962Y0112097D02*
X0090043Y0112097D01*
X0089561Y0110499D02*
X0091641Y0110499D01*
X0091160Y0108900D02*
X0093240Y0108900D01*
X0092758Y0107302D02*
X0094838Y0107302D01*
X0094357Y0105703D02*
X0096437Y0105703D01*
X0095955Y0104105D02*
X0098035Y0104105D01*
X0097554Y0102506D02*
X0099634Y0102506D01*
X0099152Y0100908D02*
X0101232Y0100908D01*
X0100751Y0099309D02*
X0102831Y0099309D01*
X0102349Y0097711D02*
X0104430Y0097711D01*
X0103948Y0096112D02*
X0106028Y0096112D01*
X0105546Y0094514D02*
X0107627Y0094514D01*
X0106869Y0092915D02*
X0109225Y0092915D01*
X0108052Y0091317D02*
X0110548Y0091317D01*
X0110100Y0089718D02*
X0108500Y0089718D01*
X0108500Y0088120D02*
X0110100Y0088120D01*
X0110100Y0086521D02*
X0108500Y0086521D01*
X0108500Y0084923D02*
X0110100Y0084923D01*
X0110117Y0083324D02*
X0108483Y0083324D01*
X0107765Y0081726D02*
X0110835Y0081726D01*
X0125442Y0080127D02*
X0133158Y0080127D01*
X0133465Y0080000D02*
X0131921Y0080639D01*
X0130739Y0081821D01*
X0130100Y0083365D01*
X0130100Y0090235D01*
X0130739Y0091779D01*
X0131629Y0092669D01*
X0131926Y0093386D01*
X0136926Y0098386D01*
X0137714Y0099174D01*
X0138743Y0099600D01*
X0164857Y0099600D01*
X0165886Y0099174D01*
X0170886Y0094174D01*
X0171674Y0093386D01*
X0171971Y0092669D01*
X0172861Y0091779D01*
X0173500Y0090235D01*
X0173500Y0083365D01*
X0172861Y0081821D01*
X0171679Y0080639D01*
X0170135Y0080000D01*
X0168465Y0080000D01*
X0166921Y0080639D01*
X0165739Y0081821D01*
X0165100Y0083365D01*
X0165100Y0090235D01*
X0165629Y0091512D01*
X0163140Y0094000D01*
X0140460Y0094000D01*
X0137971Y0091512D01*
X0138500Y0090235D01*
X0138500Y0083365D01*
X0137861Y0081821D01*
X0136679Y0080639D01*
X0135135Y0080000D01*
X0133465Y0080000D01*
X0135442Y0080127D02*
X0148158Y0080127D01*
X0148465Y0080000D02*
X0150135Y0080000D01*
X0151679Y0080639D01*
X0152861Y0081821D01*
X0153500Y0083365D01*
X0153500Y0090235D01*
X0152861Y0091779D01*
X0151679Y0092961D01*
X0150135Y0093600D01*
X0148465Y0093600D01*
X0146921Y0092961D01*
X0145739Y0091779D01*
X0145100Y0090235D01*
X0145100Y0083365D01*
X0145739Y0081821D01*
X0146921Y0080639D01*
X0148465Y0080000D01*
X0150442Y0080127D02*
X0153667Y0080127D01*
X0152765Y0081726D02*
X0155266Y0081726D01*
X0155629Y0082088D02*
X0139426Y0065886D01*
X0139000Y0064857D01*
X0139000Y0046243D01*
X0139426Y0045214D01*
X0147200Y0037440D01*
X0147200Y0034895D01*
X0149895Y0032200D01*
X0153705Y0032200D01*
X0156400Y0034895D01*
X0156400Y0038240D01*
X0157200Y0037440D01*
X0157200Y0034895D01*
X0159895Y0032200D01*
X0163705Y0032200D01*
X0166400Y0034895D01*
X0166400Y0038240D01*
X0167200Y0037440D01*
X0167200Y0034895D01*
X0169895Y0032200D01*
X0173705Y0032200D01*
X0176400Y0034895D01*
X0176400Y0038240D01*
X0177200Y0037440D01*
X0177200Y0034895D01*
X0179895Y0032200D01*
X0183705Y0032200D01*
X0186400Y0034895D01*
X0186400Y0038705D01*
X0183705Y0041400D01*
X0181160Y0041400D01*
X0172100Y0050460D01*
X0172100Y0051060D01*
X0172861Y0051821D01*
X0173500Y0053365D01*
X0173500Y0060235D01*
X0172861Y0061779D01*
X0171679Y0062961D01*
X0170135Y0063600D01*
X0168465Y0063600D01*
X0166921Y0062961D01*
X0165739Y0061779D01*
X0165100Y0060235D01*
X0165100Y0053365D01*
X0165739Y0051821D01*
X0166500Y0051060D01*
X0166500Y0048743D01*
X0166926Y0047714D01*
X0173240Y0041400D01*
X0171160Y0041400D01*
X0162100Y0050460D01*
X0162100Y0051060D01*
X0162861Y0051821D01*
X0163500Y0053365D01*
X0163500Y0060235D01*
X0162861Y0061779D01*
X0161679Y0062961D01*
X0160135Y0063600D01*
X0158465Y0063600D01*
X0156921Y0062961D01*
X0155739Y0061779D01*
X0155100Y0060235D01*
X0155100Y0053365D01*
X0155739Y0051821D01*
X0156500Y0051060D01*
X0156500Y0048743D01*
X0156926Y0047714D01*
X0163240Y0041400D01*
X0161160Y0041400D01*
X0152100Y0050460D01*
X0152100Y0051060D01*
X0152861Y0051821D01*
X0153500Y0053365D01*
X0153500Y0060235D01*
X0152861Y0061779D01*
X0151679Y0062961D01*
X0150135Y0063600D01*
X0148465Y0063600D01*
X0146921Y0062961D01*
X0145739Y0061779D01*
X0145100Y0060235D01*
X0145100Y0053365D01*
X0145739Y0051821D01*
X0146500Y0051060D01*
X0146500Y0048743D01*
X0146926Y0047714D01*
X0153240Y0041400D01*
X0151160Y0041400D01*
X0144600Y0047960D01*
X0144600Y0063140D01*
X0160886Y0079426D01*
X0161674Y0080214D01*
X0161971Y0080931D01*
X0162861Y0081821D01*
X0163500Y0083365D01*
X0163500Y0090235D01*
X0162861Y0091779D01*
X0161679Y0092961D01*
X0160135Y0093600D01*
X0158465Y0093600D01*
X0156921Y0092961D01*
X0155739Y0091779D01*
X0155100Y0090235D01*
X0155100Y0083365D01*
X0155629Y0082088D01*
X0155117Y0083324D02*
X0153483Y0083324D01*
X0153500Y0084923D02*
X0155100Y0084923D01*
X0155100Y0086521D02*
X0153500Y0086521D01*
X0153500Y0088120D02*
X0155100Y0088120D01*
X0155100Y0089718D02*
X0153500Y0089718D01*
X0153052Y0091317D02*
X0155548Y0091317D01*
X0156875Y0092915D02*
X0151725Y0092915D01*
X0146875Y0092915D02*
X0139375Y0092915D01*
X0138052Y0091317D02*
X0145548Y0091317D01*
X0145100Y0089718D02*
X0138500Y0089718D01*
X0138500Y0088120D02*
X0145100Y0088120D01*
X0145100Y0086521D02*
X0138500Y0086521D01*
X0138500Y0084923D02*
X0145100Y0084923D01*
X0145117Y0083324D02*
X0138483Y0083324D01*
X0137765Y0081726D02*
X0145835Y0081726D01*
X0152069Y0078529D02*
X0074988Y0078529D01*
X0073390Y0076930D02*
X0150470Y0076930D01*
X0148872Y0075332D02*
X0071791Y0075332D01*
X0070193Y0073733D02*
X0147273Y0073733D01*
X0145675Y0072134D02*
X0068594Y0072134D01*
X0066996Y0070536D02*
X0144076Y0070536D01*
X0142478Y0068937D02*
X0065397Y0068937D01*
X0063799Y0067339D02*
X0140879Y0067339D01*
X0139366Y0065740D02*
X0062200Y0065740D01*
X0060602Y0064142D02*
X0139000Y0064142D01*
X0139000Y0062543D02*
X0137379Y0062543D01*
X0137166Y0062756D02*
X0136606Y0063163D01*
X0135989Y0063478D01*
X0135330Y0063692D01*
X0134646Y0063800D01*
X0134300Y0063800D01*
X0134300Y0056800D01*
X0138700Y0056800D01*
X0138700Y0059746D01*
X0138592Y0060430D01*
X0138378Y0061089D01*
X0138063Y0061706D01*
X0137656Y0062266D01*
X0137166Y0062756D01*
X0134300Y0062543D02*
X0134300Y0062543D01*
X0134300Y0063800D02*
X0133954Y0063800D01*
X0133270Y0063692D01*
X0132611Y0063478D01*
X0131994Y0063163D01*
X0131434Y0062756D01*
X0130944Y0062266D01*
X0130537Y0061706D01*
X0130222Y0061089D01*
X0130008Y0060430D01*
X0129900Y0059746D01*
X0129900Y0056800D01*
X0134300Y0056800D01*
X0134300Y0056800D01*
X0134300Y0056800D01*
X0138700Y0056800D01*
X0138700Y0053854D01*
X0138592Y0053170D01*
X0138378Y0052511D01*
X0138063Y0051894D01*
X0137656Y0051334D01*
X0137166Y0050844D01*
X0136606Y0050437D01*
X0135989Y0050122D01*
X0135330Y0049908D01*
X0134646Y0049800D01*
X0134300Y0049800D01*
X0134300Y0056800D01*
X0134300Y0056800D01*
X0134300Y0056800D01*
X0134300Y0063800D01*
X0131221Y0062543D02*
X0127096Y0062543D01*
X0126679Y0062961D02*
X0125135Y0063600D01*
X0123465Y0063600D01*
X0121921Y0062961D01*
X0120739Y0061779D01*
X0120100Y0060235D01*
X0120100Y0053365D01*
X0120739Y0051821D01*
X0121500Y0051060D01*
X0121500Y0045460D01*
X0120214Y0044174D01*
X0119426Y0043386D01*
X0119000Y0042357D01*
X0119000Y0040505D01*
X0117200Y0038705D01*
X0117200Y0034895D01*
X0119895Y0032200D01*
X0123705Y0032200D01*
X0126400Y0034895D01*
X0126400Y0038705D01*
X0124600Y0040505D01*
X0124600Y0040640D01*
X0126674Y0042714D01*
X0127100Y0043743D01*
X0127100Y0051060D01*
X0127861Y0051821D01*
X0128500Y0053365D01*
X0128500Y0060235D01*
X0127861Y0061779D01*
X0126679Y0062961D01*
X0128206Y0060945D02*
X0130176Y0060945D01*
X0129900Y0059346D02*
X0128500Y0059346D01*
X0128500Y0057748D02*
X0129900Y0057748D01*
X0129900Y0056800D02*
X0129900Y0053854D01*
X0130008Y0053170D01*
X0130222Y0052511D01*
X0130537Y0051894D01*
X0130944Y0051334D01*
X0131434Y0050844D01*
X0131994Y0050437D01*
X0132611Y0050122D01*
X0133270Y0049908D01*
X0133954Y0049800D01*
X0134300Y0049800D01*
X0134300Y0056800D01*
X0129900Y0056800D01*
X0129900Y0056149D02*
X0128500Y0056149D01*
X0128500Y0054551D02*
X0129900Y0054551D01*
X0130079Y0052952D02*
X0128329Y0052952D01*
X0127394Y0051354D02*
X0130929Y0051354D01*
X0134300Y0051354D02*
X0134300Y0051354D01*
X0134300Y0052952D02*
X0134300Y0052952D01*
X0134300Y0054551D02*
X0134300Y0054551D01*
X0134300Y0056149D02*
X0134300Y0056149D01*
X0134300Y0057748D02*
X0134300Y0057748D01*
X0134300Y0059346D02*
X0134300Y0059346D01*
X0134300Y0060945D02*
X0134300Y0060945D01*
X0138424Y0060945D02*
X0139000Y0060945D01*
X0139000Y0059346D02*
X0138700Y0059346D01*
X0138700Y0057748D02*
X0139000Y0057748D01*
X0139000Y0056149D02*
X0138700Y0056149D01*
X0138700Y0054551D02*
X0139000Y0054551D01*
X0139000Y0052952D02*
X0138521Y0052952D01*
X0139000Y0051354D02*
X0137671Y0051354D01*
X0139000Y0049755D02*
X0127100Y0049755D01*
X0127100Y0048157D02*
X0139000Y0048157D01*
X0139000Y0046558D02*
X0127100Y0046558D01*
X0127100Y0044960D02*
X0139680Y0044960D01*
X0141279Y0043361D02*
X0126942Y0043361D01*
X0125723Y0041763D02*
X0142877Y0041763D01*
X0144476Y0040164D02*
X0124941Y0040164D01*
X0126400Y0038566D02*
X0146074Y0038566D01*
X0147200Y0036967D02*
X0126400Y0036967D01*
X0126400Y0035369D02*
X0147200Y0035369D01*
X0148324Y0033770D02*
X0125276Y0033770D01*
X0118324Y0033770D02*
X0115276Y0033770D01*
X0116400Y0034895D02*
X0113705Y0032200D01*
X0109895Y0032200D01*
X0107200Y0034895D01*
X0107200Y0038705D01*
X0109000Y0040505D01*
X0109000Y0042357D01*
X0109426Y0043386D01*
X0110214Y0044174D01*
X0111500Y0045460D01*
X0111500Y0051060D01*
X0110739Y0051821D01*
X0110100Y0053365D01*
X0110100Y0060235D01*
X0110739Y0061779D01*
X0111921Y0062961D01*
X0113465Y0063600D01*
X0115135Y0063600D01*
X0116679Y0062961D01*
X0117861Y0061779D01*
X0118500Y0060235D01*
X0118500Y0053365D01*
X0117861Y0051821D01*
X0117100Y0051060D01*
X0117100Y0043743D01*
X0116674Y0042714D01*
X0114600Y0040640D01*
X0114600Y0040505D01*
X0116400Y0038705D01*
X0116400Y0034895D01*
X0116400Y0035369D02*
X0117200Y0035369D01*
X0117200Y0036967D02*
X0116400Y0036967D01*
X0116400Y0038566D02*
X0117200Y0038566D01*
X0118659Y0040164D02*
X0114941Y0040164D01*
X0115723Y0041763D02*
X0119000Y0041763D01*
X0119416Y0043361D02*
X0116942Y0043361D01*
X0117100Y0044960D02*
X0121000Y0044960D01*
X0121500Y0046558D02*
X0117100Y0046558D01*
X0117100Y0048157D02*
X0121500Y0048157D01*
X0121500Y0049755D02*
X0117100Y0049755D01*
X0117394Y0051354D02*
X0121206Y0051354D01*
X0120271Y0052952D02*
X0118329Y0052952D01*
X0118500Y0054551D02*
X0120100Y0054551D01*
X0120100Y0056149D02*
X0118500Y0056149D01*
X0118500Y0057748D02*
X0120100Y0057748D01*
X0120100Y0059346D02*
X0118500Y0059346D01*
X0118206Y0060945D02*
X0120394Y0060945D01*
X0121504Y0062543D02*
X0117096Y0062543D01*
X0111504Y0062543D02*
X0107096Y0062543D01*
X0106679Y0062961D02*
X0105135Y0063600D01*
X0103465Y0063600D01*
X0101921Y0062961D01*
X0100739Y0061779D01*
X0100100Y0060235D01*
X0100100Y0053365D01*
X0100739Y0051821D01*
X0101500Y0051060D01*
X0101500Y0045460D01*
X0100214Y0044174D01*
X0099426Y0043386D01*
X0099000Y0042357D01*
X0099000Y0040505D01*
X0097200Y0038705D01*
X0097200Y0034895D01*
X0099895Y0032200D01*
X0103705Y0032200D01*
X0106400Y0034895D01*
X0106400Y0038705D01*
X0104600Y0040505D01*
X0104600Y0040640D01*
X0106674Y0042714D01*
X0107100Y0043743D01*
X0107100Y0051060D01*
X0107861Y0051821D01*
X0108500Y0053365D01*
X0108500Y0060235D01*
X0107861Y0061779D01*
X0106679Y0062961D01*
X0108206Y0060945D02*
X0110394Y0060945D01*
X0110100Y0059346D02*
X0108500Y0059346D01*
X0108500Y0057748D02*
X0110100Y0057748D01*
X0110100Y0056149D02*
X0108500Y0056149D01*
X0108500Y0054551D02*
X0110100Y0054551D01*
X0110271Y0052952D02*
X0108329Y0052952D01*
X0107394Y0051354D02*
X0111206Y0051354D01*
X0111500Y0049755D02*
X0107100Y0049755D01*
X0107100Y0048157D02*
X0111500Y0048157D01*
X0111500Y0046558D02*
X0107100Y0046558D01*
X0107100Y0044960D02*
X0111000Y0044960D01*
X0109416Y0043361D02*
X0106942Y0043361D01*
X0105723Y0041763D02*
X0109000Y0041763D01*
X0108659Y0040164D02*
X0104941Y0040164D01*
X0106400Y0038566D02*
X0107200Y0038566D01*
X0107200Y0036967D02*
X0106400Y0036967D01*
X0106400Y0035369D02*
X0107200Y0035369D01*
X0108324Y0033770D02*
X0105276Y0033770D01*
X0098324Y0033770D02*
X0095276Y0033770D01*
X0096400Y0034895D02*
X0093705Y0032200D01*
X0089895Y0032200D01*
X0087200Y0034895D01*
X0087200Y0038705D01*
X0089000Y0040505D01*
X0089000Y0042357D01*
X0089426Y0043386D01*
X0090214Y0044174D01*
X0091500Y0045460D01*
X0091500Y0051060D01*
X0090739Y0051821D01*
X0090100Y0053365D01*
X0090100Y0060235D01*
X0090739Y0061779D01*
X0091921Y0062961D01*
X0093465Y0063600D01*
X0095135Y0063600D01*
X0096679Y0062961D01*
X0097861Y0061779D01*
X0098500Y0060235D01*
X0098500Y0053365D01*
X0097861Y0051821D01*
X0097100Y0051060D01*
X0097100Y0043743D01*
X0096674Y0042714D01*
X0094600Y0040640D01*
X0094600Y0040505D01*
X0096400Y0038705D01*
X0096400Y0034895D01*
X0096400Y0035369D02*
X0097200Y0035369D01*
X0097200Y0036967D02*
X0096400Y0036967D01*
X0096400Y0038566D02*
X0097200Y0038566D01*
X0098659Y0040164D02*
X0094941Y0040164D01*
X0095723Y0041763D02*
X0099000Y0041763D01*
X0099416Y0043361D02*
X0096942Y0043361D01*
X0097100Y0044960D02*
X0101000Y0044960D01*
X0101500Y0046558D02*
X0097100Y0046558D01*
X0097100Y0048157D02*
X0101500Y0048157D01*
X0101500Y0049755D02*
X0097100Y0049755D01*
X0097394Y0051354D02*
X0101206Y0051354D01*
X0100271Y0052952D02*
X0098329Y0052952D01*
X0098500Y0054551D02*
X0100100Y0054551D01*
X0100100Y0056149D02*
X0098500Y0056149D01*
X0098500Y0057748D02*
X0100100Y0057748D01*
X0100100Y0059346D02*
X0098500Y0059346D01*
X0098206Y0060945D02*
X0100394Y0060945D01*
X0101504Y0062543D02*
X0097096Y0062543D01*
X0091504Y0062543D02*
X0087096Y0062543D01*
X0086679Y0062961D02*
X0085135Y0063600D01*
X0083465Y0063600D01*
X0081921Y0062961D01*
X0080739Y0061779D01*
X0080100Y0060235D01*
X0080100Y0053365D01*
X0080739Y0051821D01*
X0081500Y0051060D01*
X0081500Y0050460D01*
X0075214Y0044174D01*
X0074426Y0043386D01*
X0074000Y0042357D01*
X0074000Y0040505D01*
X0072200Y0038705D01*
X0072200Y0034895D01*
X0074895Y0032200D01*
X0078705Y0032200D01*
X0081400Y0034895D01*
X0081400Y0038705D01*
X0079600Y0040505D01*
X0079600Y0040640D01*
X0086674Y0047714D01*
X0087100Y0048743D01*
X0087100Y0051060D01*
X0087861Y0051821D01*
X0088500Y0053365D01*
X0088500Y0060235D01*
X0087861Y0061779D01*
X0086679Y0062961D01*
X0088206Y0060945D02*
X0090394Y0060945D01*
X0090100Y0059346D02*
X0088500Y0059346D01*
X0088500Y0057748D02*
X0090100Y0057748D01*
X0090100Y0056149D02*
X0088500Y0056149D01*
X0088500Y0054551D02*
X0090100Y0054551D01*
X0090271Y0052952D02*
X0088329Y0052952D01*
X0087394Y0051354D02*
X0091206Y0051354D01*
X0091500Y0049755D02*
X0087100Y0049755D01*
X0086857Y0048157D02*
X0091500Y0048157D01*
X0091500Y0046558D02*
X0085518Y0046558D01*
X0083920Y0044960D02*
X0091000Y0044960D01*
X0089416Y0043361D02*
X0082321Y0043361D01*
X0080723Y0041763D02*
X0089000Y0041763D01*
X0088659Y0040164D02*
X0079941Y0040164D01*
X0081400Y0038566D02*
X0087200Y0038566D01*
X0087200Y0036967D02*
X0081400Y0036967D01*
X0081400Y0035369D02*
X0087200Y0035369D01*
X0088324Y0033770D02*
X0080276Y0033770D01*
X0073324Y0033770D02*
X0070276Y0033770D01*
X0071400Y0034895D02*
X0068705Y0032200D01*
X0064895Y0032200D01*
X0062200Y0034895D01*
X0062200Y0038705D01*
X0064000Y0040505D01*
X0064000Y0042357D01*
X0064426Y0043386D01*
X0065214Y0044174D01*
X0071500Y0050460D01*
X0071500Y0051060D01*
X0070739Y0051821D01*
X0070100Y0053365D01*
X0070100Y0060235D01*
X0070739Y0061779D01*
X0071921Y0062961D01*
X0073465Y0063600D01*
X0075135Y0063600D01*
X0076679Y0062961D01*
X0077861Y0061779D01*
X0078500Y0060235D01*
X0078500Y0053365D01*
X0077861Y0051821D01*
X0077100Y0051060D01*
X0077100Y0048743D01*
X0076674Y0047714D01*
X0069600Y0040640D01*
X0069600Y0040505D01*
X0071400Y0038705D01*
X0071400Y0034895D01*
X0071400Y0035369D02*
X0072200Y0035369D01*
X0072200Y0036967D02*
X0071400Y0036967D01*
X0071400Y0038566D02*
X0072200Y0038566D01*
X0073659Y0040164D02*
X0069941Y0040164D01*
X0070723Y0041763D02*
X0074000Y0041763D01*
X0074416Y0043361D02*
X0072321Y0043361D01*
X0073920Y0044960D02*
X0076000Y0044960D01*
X0075518Y0046558D02*
X0077599Y0046558D01*
X0076857Y0048157D02*
X0079197Y0048157D01*
X0080796Y0049755D02*
X0077100Y0049755D01*
X0077394Y0051354D02*
X0081206Y0051354D01*
X0080271Y0052952D02*
X0078329Y0052952D01*
X0078500Y0054551D02*
X0080100Y0054551D01*
X0080100Y0056149D02*
X0078500Y0056149D01*
X0078500Y0057748D02*
X0080100Y0057748D01*
X0080100Y0059346D02*
X0078500Y0059346D01*
X0078206Y0060945D02*
X0080394Y0060945D01*
X0081504Y0062543D02*
X0077096Y0062543D01*
X0071504Y0062543D02*
X0067096Y0062543D01*
X0066679Y0062961D02*
X0065135Y0063600D01*
X0063465Y0063600D01*
X0061921Y0062961D01*
X0060739Y0061779D01*
X0060100Y0060235D01*
X0060100Y0053365D01*
X0060739Y0051821D01*
X0061500Y0051060D01*
X0061500Y0050460D01*
X0055214Y0044174D01*
X0054426Y0043386D01*
X0054000Y0042357D01*
X0054000Y0040505D01*
X0052200Y0038705D01*
X0052200Y0034895D01*
X0054895Y0032200D01*
X0058705Y0032200D01*
X0061400Y0034895D01*
X0061400Y0038705D01*
X0059600Y0040505D01*
X0059600Y0040640D01*
X0066674Y0047714D01*
X0067100Y0048743D01*
X0067100Y0051060D01*
X0067861Y0051821D01*
X0068500Y0053365D01*
X0068500Y0060235D01*
X0067861Y0061779D01*
X0066679Y0062961D01*
X0068206Y0060945D02*
X0070394Y0060945D01*
X0070100Y0059346D02*
X0068500Y0059346D01*
X0068500Y0057748D02*
X0070100Y0057748D01*
X0070100Y0056149D02*
X0068500Y0056149D01*
X0068500Y0054551D02*
X0070100Y0054551D01*
X0070271Y0052952D02*
X0068329Y0052952D01*
X0067394Y0051354D02*
X0071206Y0051354D01*
X0070796Y0049755D02*
X0067100Y0049755D01*
X0066857Y0048157D02*
X0069197Y0048157D01*
X0067599Y0046558D02*
X0065518Y0046558D01*
X0066000Y0044960D02*
X0063920Y0044960D01*
X0064416Y0043361D02*
X0062321Y0043361D01*
X0060723Y0041763D02*
X0064000Y0041763D01*
X0063659Y0040164D02*
X0059941Y0040164D01*
X0061400Y0038566D02*
X0062200Y0038566D01*
X0062200Y0036967D02*
X0061400Y0036967D01*
X0061400Y0035369D02*
X0062200Y0035369D01*
X0063324Y0033770D02*
X0060276Y0033770D01*
X0053324Y0033770D02*
X0050276Y0033770D01*
X0051400Y0035369D02*
X0052200Y0035369D01*
X0052200Y0036967D02*
X0051400Y0036967D01*
X0051400Y0038566D02*
X0052200Y0038566D01*
X0053659Y0040164D02*
X0049941Y0040164D01*
X0050723Y0041763D02*
X0054000Y0041763D01*
X0054416Y0043361D02*
X0052321Y0043361D01*
X0053920Y0044960D02*
X0056000Y0044960D01*
X0055518Y0046558D02*
X0057599Y0046558D01*
X0057117Y0048157D02*
X0059197Y0048157D01*
X0058386Y0049426D02*
X0058386Y0049426D01*
X0058715Y0049755D02*
X0060796Y0049755D01*
X0061206Y0051354D02*
X0059600Y0051354D01*
X0059600Y0052952D02*
X0060271Y0052952D01*
X0060100Y0054551D02*
X0059600Y0054551D01*
X0059600Y0056149D02*
X0060100Y0056149D01*
X0060100Y0057748D02*
X0059600Y0057748D01*
X0059600Y0059346D02*
X0060100Y0059346D01*
X0060394Y0060945D02*
X0059600Y0060945D01*
X0059600Y0062543D02*
X0061504Y0062543D01*
X0044738Y0070536D02*
X0016700Y0070536D01*
X0016700Y0069770D02*
X0013830Y0066900D01*
X0009770Y0066900D01*
X0006900Y0069770D01*
X0006900Y0073830D01*
X0009770Y0076700D01*
X0013830Y0076700D01*
X0016700Y0073830D01*
X0016700Y0069770D01*
X0015867Y0068937D02*
X0043139Y0068937D01*
X0041541Y0067339D02*
X0014269Y0067339D01*
X0009331Y0067339D02*
X0006600Y0067339D01*
X0006600Y0068937D02*
X0007733Y0068937D01*
X0006900Y0070536D02*
X0006600Y0070536D01*
X0006600Y0072134D02*
X0006900Y0072134D01*
X0006900Y0073733D02*
X0006600Y0073733D01*
X0006600Y0075332D02*
X0008402Y0075332D01*
X0006600Y0076930D02*
X0051132Y0076930D01*
X0052730Y0078529D02*
X0006600Y0078529D01*
X0006600Y0080127D02*
X0054329Y0080127D01*
X0053830Y0080650D02*
X0056700Y0083520D01*
X0056700Y0087580D01*
X0053830Y0090450D01*
X0049770Y0090450D01*
X0046900Y0087580D01*
X0046900Y0083520D01*
X0049770Y0080650D01*
X0053830Y0080650D01*
X0054905Y0081726D02*
X0055927Y0081726D01*
X0056504Y0083324D02*
X0057526Y0083324D01*
X0056700Y0084923D02*
X0059124Y0084923D01*
X0060100Y0086521D02*
X0056700Y0086521D01*
X0056160Y0088120D02*
X0060100Y0088120D01*
X0060100Y0089718D02*
X0054562Y0089718D01*
X0049038Y0089718D02*
X0014844Y0089718D01*
X0013912Y0090650D02*
X0011800Y0090650D01*
X0011800Y0085550D01*
X0016900Y0085550D01*
X0016900Y0087662D01*
X0013912Y0090650D01*
X0011800Y0090650D02*
X0009688Y0090650D01*
X0006700Y0087662D01*
X0006700Y0085550D01*
X0011800Y0085550D01*
X0011800Y0085550D01*
X0011800Y0085550D01*
X0016900Y0085550D01*
X0016900Y0083438D01*
X0013912Y0080450D01*
X0011800Y0080450D01*
X0011800Y0085550D01*
X0011800Y0085550D01*
X0011800Y0085550D01*
X0011800Y0090650D01*
X0011800Y0089718D02*
X0011800Y0089718D01*
X0011800Y0088120D02*
X0011800Y0088120D01*
X0011800Y0086521D02*
X0011800Y0086521D01*
X0011800Y0085550D02*
X0006700Y0085550D01*
X0006700Y0083438D01*
X0009688Y0080450D01*
X0011800Y0080450D01*
X0011800Y0085550D01*
X0011800Y0084923D02*
X0011800Y0084923D01*
X0011800Y0083324D02*
X0011800Y0083324D01*
X0016787Y0083324D02*
X0047096Y0083324D01*
X0046900Y0084923D02*
X0016900Y0084923D01*
X0016900Y0086521D02*
X0046900Y0086521D01*
X0047440Y0088120D02*
X0016443Y0088120D01*
X0008756Y0089718D02*
X0006600Y0089718D01*
X0006600Y0088120D02*
X0007157Y0088120D01*
X0006700Y0086521D02*
X0006600Y0086521D01*
X0006600Y0084923D02*
X0006700Y0084923D01*
X0006600Y0083324D02*
X0006813Y0083324D01*
X0006600Y0081726D02*
X0008412Y0081726D01*
X0011800Y0081726D02*
X0011800Y0081726D01*
X0015188Y0081726D02*
X0048695Y0081726D01*
X0048402Y0075332D02*
X0015198Y0075332D01*
X0016700Y0073733D02*
X0046900Y0073733D01*
X0046336Y0072134D02*
X0016700Y0072134D01*
X0006600Y0065740D02*
X0039942Y0065740D01*
X0038344Y0064142D02*
X0006600Y0064142D01*
X0006600Y0062543D02*
X0037700Y0062543D01*
X0034927Y0060961D02*
X0034316Y0061405D01*
X0033643Y0061748D01*
X0032924Y0061982D01*
X0032178Y0062100D01*
X0032000Y0062100D01*
X0032000Y0054500D01*
X0036600Y0054500D01*
X0036600Y0057678D01*
X0036482Y0058424D01*
X0036248Y0059143D01*
X0035905Y0059816D01*
X0035461Y0060427D01*
X0034927Y0060961D01*
X0034943Y0060945D02*
X0037700Y0060945D01*
X0037669Y0059346D02*
X0036144Y0059346D01*
X0036589Y0057748D02*
X0037200Y0057748D01*
X0037200Y0056149D02*
X0036600Y0056149D01*
X0036600Y0054551D02*
X0037200Y0054551D01*
X0036600Y0054100D02*
X0032000Y0054100D01*
X0032000Y0054500D01*
X0031600Y0054500D01*
X0031600Y0062100D01*
X0031422Y0062100D01*
X0030676Y0061982D01*
X0029957Y0061748D01*
X0029284Y0061405D01*
X0028673Y0060961D01*
X0028139Y0060427D01*
X0027695Y0059816D01*
X0027352Y0059143D01*
X0027118Y0058424D01*
X0027000Y0057678D01*
X0027000Y0054500D01*
X0031600Y0054500D01*
X0031600Y0054100D01*
X0032000Y0054100D01*
X0032000Y0046500D01*
X0032178Y0046500D01*
X0032924Y0046618D01*
X0033643Y0046852D01*
X0034316Y0047195D01*
X0034927Y0047639D01*
X0035461Y0048173D01*
X0035905Y0048784D01*
X0036248Y0049457D01*
X0036482Y0050176D01*
X0036600Y0050922D01*
X0036600Y0054100D01*
X0036600Y0052952D02*
X0037200Y0052952D01*
X0037200Y0051354D02*
X0036600Y0051354D01*
X0032000Y0051354D02*
X0031600Y0051354D01*
X0031600Y0052952D02*
X0032000Y0052952D01*
X0031600Y0054100D02*
X0031600Y0046500D01*
X0031422Y0046500D01*
X0030676Y0046618D01*
X0029957Y0046852D01*
X0029284Y0047195D01*
X0028673Y0047639D01*
X0028139Y0048173D01*
X0027695Y0048784D01*
X0027352Y0049457D01*
X0027118Y0050176D01*
X0027000Y0050922D01*
X0027000Y0054100D01*
X0031600Y0054100D01*
X0031600Y0054551D02*
X0032000Y0054551D01*
X0032000Y0056149D02*
X0031600Y0056149D01*
X0031600Y0057748D02*
X0032000Y0057748D01*
X0032000Y0059346D02*
X0031600Y0059346D01*
X0031600Y0060945D02*
X0032000Y0060945D01*
X0028657Y0060945D02*
X0024660Y0060945D01*
X0024406Y0061200D02*
X0022715Y0061900D01*
X0020885Y0061900D01*
X0019194Y0061200D01*
X0017900Y0059906D01*
X0017200Y0058215D01*
X0017200Y0050385D01*
X0017900Y0048694D01*
X0019194Y0047400D01*
X0020885Y0046700D01*
X0022715Y0046700D01*
X0024406Y0047400D01*
X0025700Y0048694D01*
X0026400Y0050385D01*
X0026400Y0058215D01*
X0025700Y0059906D01*
X0024406Y0061200D01*
X0025931Y0059346D02*
X0027456Y0059346D01*
X0027011Y0057748D02*
X0026400Y0057748D01*
X0026400Y0056149D02*
X0027000Y0056149D01*
X0027000Y0054551D02*
X0026400Y0054551D01*
X0026400Y0052952D02*
X0027000Y0052952D01*
X0027000Y0051354D02*
X0026400Y0051354D01*
X0026139Y0049755D02*
X0027255Y0049755D01*
X0028155Y0048157D02*
X0025162Y0048157D01*
X0031054Y0046558D02*
X0006600Y0046558D01*
X0006600Y0044960D02*
X0034162Y0044960D01*
X0033009Y0043361D02*
X0006600Y0043361D01*
X0006600Y0041763D02*
X0032700Y0041763D01*
X0032700Y0040164D02*
X0006600Y0040164D01*
X0006600Y0038566D02*
X0032700Y0038566D01*
X0032700Y0036967D02*
X0028754Y0036967D01*
X0031523Y0035369D02*
X0032700Y0035369D01*
X0014975Y0036967D02*
X0006600Y0036967D01*
X0006600Y0035369D02*
X0012171Y0035369D01*
X0010166Y0033770D02*
X0006600Y0033770D01*
X0006600Y0032172D02*
X0008765Y0032172D01*
X0007675Y0030573D02*
X0006600Y0030573D01*
X0006600Y0028975D02*
X0006628Y0028975D01*
X0036765Y0014588D02*
X0042224Y0014588D01*
X0042000Y0014812D02*
X0044812Y0012000D01*
X0046600Y0012000D01*
X0046600Y0016600D01*
X0047000Y0016600D01*
X0047000Y0017000D01*
X0051600Y0017000D01*
X0051600Y0018788D01*
X0048788Y0021600D01*
X0047000Y0021600D01*
X0047000Y0017000D01*
X0046600Y0017000D01*
X0046600Y0021600D01*
X0044812Y0021600D01*
X0042000Y0018788D01*
X0042000Y0017000D01*
X0046600Y0017000D01*
X0046600Y0016600D01*
X0042000Y0016600D01*
X0042000Y0014812D01*
X0042000Y0016187D02*
X0037535Y0016187D01*
X0037854Y0016848D02*
X0037854Y0016848D01*
X0038600Y0021800D01*
X0038174Y0024628D01*
X0038324Y0024478D01*
X0039478Y0023324D01*
X0040984Y0022700D01*
X0044395Y0022700D01*
X0044895Y0022200D01*
X0048705Y0022200D01*
X0049205Y0022700D01*
X0054395Y0022700D01*
X0054895Y0022200D01*
X0058705Y0022200D01*
X0059205Y0022700D01*
X0064395Y0022700D01*
X0064895Y0022200D01*
X0068705Y0022200D01*
X0069205Y0022700D01*
X0074395Y0022700D01*
X0074895Y0022200D01*
X0078705Y0022200D01*
X0079205Y0022700D01*
X0089395Y0022700D01*
X0089895Y0022200D01*
X0093705Y0022200D01*
X0094205Y0022700D01*
X0099395Y0022700D01*
X0099895Y0022200D01*
X0103705Y0022200D01*
X0104205Y0022700D01*
X0109395Y0022700D01*
X0109895Y0022200D01*
X0113705Y0022200D01*
X0114205Y0022700D01*
X0119395Y0022700D01*
X0119895Y0022200D01*
X0123705Y0022200D01*
X0124205Y0022700D01*
X0149395Y0022700D01*
X0149895Y0022200D01*
X0153705Y0022200D01*
X0154205Y0022700D01*
X0159395Y0022700D01*
X0159895Y0022200D01*
X0163705Y0022200D01*
X0164205Y0022700D01*
X0169395Y0022700D01*
X0169895Y0022200D01*
X0173705Y0022200D01*
X0174205Y0022700D01*
X0179395Y0022700D01*
X0179895Y0022200D01*
X0183705Y0022200D01*
X0184205Y0022700D01*
X0194395Y0022700D01*
X0194895Y0022200D01*
X0198705Y0022200D01*
X0199205Y0022700D01*
X0204395Y0022700D01*
X0204895Y0022200D01*
X0208705Y0022200D01*
X0209205Y0022700D01*
X0214395Y0022700D01*
X0214895Y0022200D01*
X0218705Y0022200D01*
X0219205Y0022700D01*
X0224395Y0022700D01*
X0224895Y0022200D01*
X0228705Y0022200D01*
X0229205Y0022700D01*
X0230116Y0022700D01*
X0231622Y0023324D01*
X0236341Y0028043D01*
X0235188Y0024304D01*
X0235188Y0019296D01*
X0236664Y0014511D01*
X0236664Y0014511D01*
X0239485Y0010373D01*
X0243400Y0007251D01*
X0245058Y0006600D01*
X0028697Y0006600D01*
X0032275Y0008665D01*
X0035681Y0012336D01*
X0037854Y0016848D01*
X0037995Y0017785D02*
X0042000Y0017785D01*
X0042595Y0019384D02*
X0038236Y0019384D01*
X0038477Y0020982D02*
X0044194Y0020982D01*
X0044514Y0022581D02*
X0038482Y0022581D01*
X0038623Y0024179D02*
X0038241Y0024179D01*
X0046600Y0020982D02*
X0047000Y0020982D01*
X0049406Y0020982D02*
X0054194Y0020982D01*
X0054812Y0021600D02*
X0052000Y0018788D01*
X0052000Y0017000D01*
X0056600Y0017000D01*
X0056600Y0021600D01*
X0054812Y0021600D01*
X0054514Y0022581D02*
X0049086Y0022581D01*
X0056600Y0020982D02*
X0057000Y0020982D01*
X0057000Y0021600D02*
X0058788Y0021600D01*
X0061600Y0018788D01*
X0061600Y0017000D01*
X0057000Y0017000D01*
X0057000Y0016600D01*
X0061600Y0016600D01*
X0061600Y0014812D01*
X0058788Y0012000D01*
X0057000Y0012000D01*
X0057000Y0016600D01*
X0056600Y0016600D01*
X0056600Y0012000D01*
X0054812Y0012000D01*
X0052000Y0014812D01*
X0052000Y0016600D01*
X0056600Y0016600D01*
X0056600Y0017000D01*
X0057000Y0017000D01*
X0057000Y0021600D01*
X0059086Y0022581D02*
X0064514Y0022581D01*
X0064812Y0021600D02*
X0062000Y0018788D01*
X0062000Y0017000D01*
X0066600Y0017000D01*
X0066600Y0021600D01*
X0064812Y0021600D01*
X0064194Y0020982D02*
X0059406Y0020982D01*
X0061005Y0019384D02*
X0062595Y0019384D01*
X0062000Y0017785D02*
X0061600Y0017785D01*
X0062000Y0016600D02*
X0062000Y0014812D01*
X0064812Y0012000D01*
X0066600Y0012000D01*
X0066600Y0016600D01*
X0067000Y0016600D01*
X0067000Y0017000D01*
X0071600Y0017000D01*
X0071600Y0018788D01*
X0068788Y0021600D01*
X0067000Y0021600D01*
X0067000Y0017000D01*
X0066600Y0017000D01*
X0066600Y0016600D01*
X0062000Y0016600D01*
X0062000Y0016187D02*
X0061600Y0016187D01*
X0061376Y0014588D02*
X0062224Y0014588D01*
X0063822Y0012990D02*
X0059778Y0012990D01*
X0057000Y0012990D02*
X0056600Y0012990D01*
X0056600Y0014588D02*
X0057000Y0014588D01*
X0057000Y0016187D02*
X0056600Y0016187D01*
X0056600Y0017785D02*
X0057000Y0017785D01*
X0057000Y0019384D02*
X0056600Y0019384D01*
X0052595Y0019384D02*
X0051005Y0019384D01*
X0051600Y0017785D02*
X0052000Y0017785D01*
X0051600Y0016600D02*
X0047000Y0016600D01*
X0047000Y0012000D01*
X0048788Y0012000D01*
X0051600Y0014812D01*
X0051600Y0016600D01*
X0051600Y0016187D02*
X0052000Y0016187D01*
X0052224Y0014588D02*
X0051376Y0014588D01*
X0049778Y0012990D02*
X0053822Y0012990D01*
X0047000Y0012990D02*
X0046600Y0012990D01*
X0046600Y0014588D02*
X0047000Y0014588D01*
X0047000Y0016187D02*
X0046600Y0016187D01*
X0046600Y0017785D02*
X0047000Y0017785D01*
X0047000Y0019384D02*
X0046600Y0019384D01*
X0043822Y0012990D02*
X0035995Y0012990D01*
X0035681Y0012336D02*
X0035681Y0012336D01*
X0034804Y0011391D02*
X0238791Y0011391D01*
X0239485Y0010373D02*
X0239485Y0010373D01*
X0239485Y0010373D01*
X0240213Y0009793D02*
X0033321Y0009793D01*
X0032275Y0008665D02*
X0032275Y0008665D01*
X0031458Y0008194D02*
X0242217Y0008194D01*
X0243400Y0007251D02*
X0243400Y0007251D01*
X0237701Y0012990D02*
X0229778Y0012990D01*
X0228788Y0012000D02*
X0231600Y0014812D01*
X0231600Y0016600D01*
X0227000Y0016600D01*
X0227000Y0017000D01*
X0231600Y0017000D01*
X0231600Y0018788D01*
X0228788Y0021600D01*
X0227000Y0021600D01*
X0227000Y0017000D01*
X0226600Y0017000D01*
X0226600Y0021600D01*
X0224812Y0021600D01*
X0222000Y0018788D01*
X0222000Y0017000D01*
X0226600Y0017000D01*
X0226600Y0016600D01*
X0227000Y0016600D01*
X0227000Y0012000D01*
X0228788Y0012000D01*
X0227000Y0012990D02*
X0226600Y0012990D01*
X0226600Y0012000D02*
X0226600Y0016600D01*
X0222000Y0016600D01*
X0222000Y0014812D01*
X0224812Y0012000D01*
X0226600Y0012000D01*
X0223822Y0012990D02*
X0219778Y0012990D01*
X0218788Y0012000D02*
X0217000Y0012000D01*
X0217000Y0016600D01*
X0217000Y0017000D01*
X0221600Y0017000D01*
X0221600Y0018788D01*
X0218788Y0021600D01*
X0217000Y0021600D01*
X0217000Y0017000D01*
X0216600Y0017000D01*
X0216600Y0021600D01*
X0214812Y0021600D01*
X0212000Y0018788D01*
X0212000Y0017000D01*
X0216600Y0017000D01*
X0216600Y0016600D01*
X0217000Y0016600D01*
X0221600Y0016600D01*
X0221600Y0014812D01*
X0218788Y0012000D01*
X0217000Y0012990D02*
X0216600Y0012990D01*
X0216600Y0012000D02*
X0214812Y0012000D01*
X0212000Y0014812D01*
X0212000Y0016600D01*
X0216600Y0016600D01*
X0216600Y0012000D01*
X0213822Y0012990D02*
X0209778Y0012990D01*
X0208788Y0012000D02*
X0207000Y0012000D01*
X0207000Y0016600D01*
X0207000Y0017000D01*
X0211600Y0017000D01*
X0211600Y0018788D01*
X0208788Y0021600D01*
X0207000Y0021600D01*
X0207000Y0017000D01*
X0206600Y0017000D01*
X0206600Y0021600D01*
X0204812Y0021600D01*
X0202000Y0018788D01*
X0202000Y0017000D01*
X0206600Y0017000D01*
X0206600Y0016600D01*
X0207000Y0016600D01*
X0211600Y0016600D01*
X0211600Y0014812D01*
X0208788Y0012000D01*
X0207000Y0012990D02*
X0206600Y0012990D01*
X0206600Y0012000D02*
X0206600Y0016600D01*
X0202000Y0016600D01*
X0202000Y0014812D01*
X0204812Y0012000D01*
X0206600Y0012000D01*
X0203822Y0012990D02*
X0199778Y0012990D01*
X0198788Y0012000D02*
X0197000Y0012000D01*
X0197000Y0016600D01*
X0197000Y0017000D01*
X0201600Y0017000D01*
X0201600Y0018788D01*
X0198788Y0021600D01*
X0197000Y0021600D01*
X0197000Y0017000D01*
X0196600Y0017000D01*
X0196600Y0021600D01*
X0194812Y0021600D01*
X0192000Y0018788D01*
X0192000Y0017000D01*
X0196600Y0017000D01*
X0196600Y0016600D01*
X0197000Y0016600D01*
X0201600Y0016600D01*
X0201600Y0014812D01*
X0198788Y0012000D01*
X0197000Y0012990D02*
X0196600Y0012990D01*
X0196600Y0012000D02*
X0194812Y0012000D01*
X0192000Y0014812D01*
X0192000Y0016600D01*
X0196600Y0016600D01*
X0196600Y0012000D01*
X0193822Y0012990D02*
X0184778Y0012990D01*
X0183788Y0012000D02*
X0186600Y0014812D01*
X0186600Y0016600D01*
X0182000Y0016600D01*
X0182000Y0017000D01*
X0186600Y0017000D01*
X0186600Y0018788D01*
X0183788Y0021600D01*
X0182000Y0021600D01*
X0182000Y0017000D01*
X0181600Y0017000D01*
X0181600Y0021600D01*
X0179812Y0021600D01*
X0177000Y0018788D01*
X0177000Y0017000D01*
X0181600Y0017000D01*
X0181600Y0016600D01*
X0182000Y0016600D01*
X0182000Y0012000D01*
X0183788Y0012000D01*
X0182000Y0012990D02*
X0181600Y0012990D01*
X0181600Y0012000D02*
X0179812Y0012000D01*
X0177000Y0014812D01*
X0177000Y0016600D01*
X0181600Y0016600D01*
X0181600Y0012000D01*
X0178822Y0012990D02*
X0174778Y0012990D01*
X0173788Y0012000D02*
X0172000Y0012000D01*
X0172000Y0016600D01*
X0172000Y0017000D01*
X0176600Y0017000D01*
X0176600Y0018788D01*
X0173788Y0021600D01*
X0172000Y0021600D01*
X0172000Y0017000D01*
X0171600Y0017000D01*
X0171600Y0021600D01*
X0169812Y0021600D01*
X0167000Y0018788D01*
X0167000Y0017000D01*
X0171600Y0017000D01*
X0171600Y0016600D01*
X0172000Y0016600D01*
X0176600Y0016600D01*
X0176600Y0014812D01*
X0173788Y0012000D01*
X0172000Y0012990D02*
X0171600Y0012990D01*
X0171600Y0012000D02*
X0169812Y0012000D01*
X0167000Y0014812D01*
X0167000Y0016600D01*
X0171600Y0016600D01*
X0171600Y0012000D01*
X0168822Y0012990D02*
X0164778Y0012990D01*
X0163788Y0012000D02*
X0166600Y0014812D01*
X0166600Y0016600D01*
X0162000Y0016600D01*
X0162000Y0017000D01*
X0166600Y0017000D01*
X0166600Y0018788D01*
X0163788Y0021600D01*
X0162000Y0021600D01*
X0162000Y0017000D01*
X0161600Y0017000D01*
X0161600Y0021600D01*
X0159812Y0021600D01*
X0157000Y0018788D01*
X0157000Y0017000D01*
X0161600Y0017000D01*
X0161600Y0016600D01*
X0162000Y0016600D01*
X0162000Y0012000D01*
X0163788Y0012000D01*
X0162000Y0012990D02*
X0161600Y0012990D01*
X0161600Y0012000D02*
X0161600Y0016600D01*
X0157000Y0016600D01*
X0157000Y0014812D01*
X0159812Y0012000D01*
X0161600Y0012000D01*
X0158822Y0012990D02*
X0154778Y0012990D01*
X0153788Y0012000D02*
X0152000Y0012000D01*
X0152000Y0016600D01*
X0152000Y0017000D01*
X0156600Y0017000D01*
X0156600Y0018788D01*
X0153788Y0021600D01*
X0152000Y0021600D01*
X0152000Y0017000D01*
X0151600Y0017000D01*
X0151600Y0021600D01*
X0149812Y0021600D01*
X0147000Y0018788D01*
X0147000Y0017000D01*
X0151600Y0017000D01*
X0151600Y0016600D01*
X0152000Y0016600D01*
X0156600Y0016600D01*
X0156600Y0014812D01*
X0153788Y0012000D01*
X0152000Y0012990D02*
X0151600Y0012990D01*
X0151600Y0012000D02*
X0149812Y0012000D01*
X0147000Y0014812D01*
X0147000Y0016600D01*
X0151600Y0016600D01*
X0151600Y0012000D01*
X0148822Y0012990D02*
X0124778Y0012990D01*
X0123788Y0012000D02*
X0126600Y0014812D01*
X0126600Y0016600D01*
X0122000Y0016600D01*
X0122000Y0017000D01*
X0126600Y0017000D01*
X0126600Y0018788D01*
X0123788Y0021600D01*
X0122000Y0021600D01*
X0122000Y0017000D01*
X0121600Y0017000D01*
X0121600Y0021600D01*
X0119812Y0021600D01*
X0117000Y0018788D01*
X0117000Y0017000D01*
X0121600Y0017000D01*
X0121600Y0016600D01*
X0122000Y0016600D01*
X0122000Y0012000D01*
X0123788Y0012000D01*
X0122000Y0012990D02*
X0121600Y0012990D01*
X0121600Y0012000D02*
X0121600Y0016600D01*
X0117000Y0016600D01*
X0117000Y0014812D01*
X0119812Y0012000D01*
X0121600Y0012000D01*
X0118822Y0012990D02*
X0114778Y0012990D01*
X0113788Y0012000D02*
X0112000Y0012000D01*
X0112000Y0016600D01*
X0112000Y0017000D01*
X0116600Y0017000D01*
X0116600Y0018788D01*
X0113788Y0021600D01*
X0112000Y0021600D01*
X0112000Y0017000D01*
X0111600Y0017000D01*
X0111600Y0021600D01*
X0109812Y0021600D01*
X0107000Y0018788D01*
X0107000Y0017000D01*
X0111600Y0017000D01*
X0111600Y0016600D01*
X0112000Y0016600D01*
X0116600Y0016600D01*
X0116600Y0014812D01*
X0113788Y0012000D01*
X0112000Y0012990D02*
X0111600Y0012990D01*
X0111600Y0012000D02*
X0109812Y0012000D01*
X0107000Y0014812D01*
X0107000Y0016600D01*
X0111600Y0016600D01*
X0111600Y0012000D01*
X0108822Y0012990D02*
X0104778Y0012990D01*
X0103788Y0012000D02*
X0102000Y0012000D01*
X0102000Y0016600D01*
X0102000Y0017000D01*
X0106600Y0017000D01*
X0106600Y0018788D01*
X0103788Y0021600D01*
X0102000Y0021600D01*
X0102000Y0017000D01*
X0101600Y0017000D01*
X0101600Y0021600D01*
X0099812Y0021600D01*
X0097000Y0018788D01*
X0097000Y0017000D01*
X0101600Y0017000D01*
X0101600Y0016600D01*
X0102000Y0016600D01*
X0106600Y0016600D01*
X0106600Y0014812D01*
X0103788Y0012000D01*
X0102000Y0012990D02*
X0101600Y0012990D01*
X0101600Y0012000D02*
X0101600Y0016600D01*
X0097000Y0016600D01*
X0097000Y0014812D01*
X0099812Y0012000D01*
X0101600Y0012000D01*
X0098822Y0012990D02*
X0094778Y0012990D01*
X0093788Y0012000D02*
X0092000Y0012000D01*
X0092000Y0016600D01*
X0092000Y0017000D01*
X0096600Y0017000D01*
X0096600Y0018788D01*
X0093788Y0021600D01*
X0092000Y0021600D01*
X0092000Y0017000D01*
X0091600Y0017000D01*
X0091600Y0021600D01*
X0089812Y0021600D01*
X0087000Y0018788D01*
X0087000Y0017000D01*
X0091600Y0017000D01*
X0091600Y0016600D01*
X0092000Y0016600D01*
X0096600Y0016600D01*
X0096600Y0014812D01*
X0093788Y0012000D01*
X0092000Y0012990D02*
X0091600Y0012990D01*
X0091600Y0012000D02*
X0089812Y0012000D01*
X0087000Y0014812D01*
X0087000Y0016600D01*
X0091600Y0016600D01*
X0091600Y0012000D01*
X0088822Y0012990D02*
X0079778Y0012990D01*
X0078788Y0012000D02*
X0081600Y0014812D01*
X0081600Y0016600D01*
X0077000Y0016600D01*
X0077000Y0017000D01*
X0081600Y0017000D01*
X0081600Y0018788D01*
X0078788Y0021600D01*
X0077000Y0021600D01*
X0077000Y0017000D01*
X0076600Y0017000D01*
X0076600Y0021600D01*
X0074812Y0021600D01*
X0072000Y0018788D01*
X0072000Y0017000D01*
X0076600Y0017000D01*
X0076600Y0016600D01*
X0077000Y0016600D01*
X0077000Y0012000D01*
X0078788Y0012000D01*
X0077000Y0012990D02*
X0076600Y0012990D01*
X0076600Y0012000D02*
X0074812Y0012000D01*
X0072000Y0014812D01*
X0072000Y0016600D01*
X0076600Y0016600D01*
X0076600Y0012000D01*
X0073822Y0012990D02*
X0069778Y0012990D01*
X0068788Y0012000D02*
X0067000Y0012000D01*
X0067000Y0016600D01*
X0071600Y0016600D01*
X0071600Y0014812D01*
X0068788Y0012000D01*
X0067000Y0012990D02*
X0066600Y0012990D01*
X0066600Y0014588D02*
X0067000Y0014588D01*
X0067000Y0016187D02*
X0066600Y0016187D01*
X0066600Y0017785D02*
X0067000Y0017785D01*
X0067000Y0019384D02*
X0066600Y0019384D01*
X0066600Y0020982D02*
X0067000Y0020982D01*
X0069406Y0020982D02*
X0074194Y0020982D01*
X0074514Y0022581D02*
X0069086Y0022581D01*
X0071005Y0019384D02*
X0072595Y0019384D01*
X0072000Y0017785D02*
X0071600Y0017785D01*
X0071600Y0016187D02*
X0072000Y0016187D01*
X0072224Y0014588D02*
X0071376Y0014588D01*
X0076600Y0014588D02*
X0077000Y0014588D01*
X0077000Y0016187D02*
X0076600Y0016187D01*
X0076600Y0017785D02*
X0077000Y0017785D01*
X0077000Y0019384D02*
X0076600Y0019384D01*
X0081005Y0019384D02*
X0087595Y0019384D01*
X0087000Y0017785D02*
X0081600Y0017785D01*
X0081600Y0016187D02*
X0087000Y0016187D01*
X0087224Y0014588D02*
X0081376Y0014588D01*
X0091600Y0014588D02*
X0092000Y0014588D01*
X0092000Y0016187D02*
X0091600Y0016187D01*
X0091600Y0017785D02*
X0092000Y0017785D01*
X0092000Y0019384D02*
X0091600Y0019384D01*
X0096005Y0019384D02*
X0097595Y0019384D01*
X0097000Y0017785D02*
X0096600Y0017785D01*
X0096600Y0016187D02*
X0097000Y0016187D01*
X0097224Y0014588D02*
X0096376Y0014588D01*
X0101600Y0014588D02*
X0102000Y0014588D01*
X0102000Y0016187D02*
X0101600Y0016187D01*
X0101600Y0017785D02*
X0102000Y0017785D01*
X0102000Y0019384D02*
X0101600Y0019384D01*
X0101600Y0020982D02*
X0102000Y0020982D01*
X0104406Y0020982D02*
X0109194Y0020982D01*
X0109514Y0022581D02*
X0104086Y0022581D01*
X0099514Y0022581D02*
X0094086Y0022581D01*
X0094406Y0020982D02*
X0099194Y0020982D01*
X0092000Y0020982D02*
X0091600Y0020982D01*
X0089194Y0020982D02*
X0079406Y0020982D01*
X0079086Y0022581D02*
X0089514Y0022581D01*
X0077000Y0020982D02*
X0076600Y0020982D01*
X0106005Y0019384D02*
X0107595Y0019384D01*
X0107000Y0017785D02*
X0106600Y0017785D01*
X0106600Y0016187D02*
X0107000Y0016187D01*
X0107224Y0014588D02*
X0106376Y0014588D01*
X0111600Y0014588D02*
X0112000Y0014588D01*
X0112000Y0016187D02*
X0111600Y0016187D01*
X0111600Y0017785D02*
X0112000Y0017785D01*
X0112000Y0019384D02*
X0111600Y0019384D01*
X0116005Y0019384D02*
X0117595Y0019384D01*
X0117000Y0017785D02*
X0116600Y0017785D01*
X0116600Y0016187D02*
X0117000Y0016187D01*
X0117224Y0014588D02*
X0116376Y0014588D01*
X0121600Y0014588D02*
X0122000Y0014588D01*
X0122000Y0016187D02*
X0121600Y0016187D01*
X0121600Y0017785D02*
X0122000Y0017785D01*
X0122000Y0019384D02*
X0121600Y0019384D01*
X0121600Y0020982D02*
X0122000Y0020982D01*
X0124406Y0020982D02*
X0149194Y0020982D01*
X0149514Y0022581D02*
X0124086Y0022581D01*
X0119514Y0022581D02*
X0114086Y0022581D01*
X0114406Y0020982D02*
X0119194Y0020982D01*
X0126005Y0019384D02*
X0147595Y0019384D01*
X0147000Y0017785D02*
X0126600Y0017785D01*
X0126600Y0016187D02*
X0147000Y0016187D01*
X0147224Y0014588D02*
X0126376Y0014588D01*
X0112000Y0020982D02*
X0111600Y0020982D01*
X0151600Y0020982D02*
X0152000Y0020982D01*
X0154406Y0020982D02*
X0159194Y0020982D01*
X0159514Y0022581D02*
X0154086Y0022581D01*
X0161600Y0020982D02*
X0162000Y0020982D01*
X0164406Y0020982D02*
X0169194Y0020982D01*
X0169514Y0022581D02*
X0164086Y0022581D01*
X0166005Y0019384D02*
X0167595Y0019384D01*
X0167000Y0017785D02*
X0166600Y0017785D01*
X0166600Y0016187D02*
X0167000Y0016187D01*
X0167224Y0014588D02*
X0166376Y0014588D01*
X0162000Y0014588D02*
X0161600Y0014588D01*
X0161600Y0016187D02*
X0162000Y0016187D01*
X0162000Y0017785D02*
X0161600Y0017785D01*
X0161600Y0019384D02*
X0162000Y0019384D01*
X0157595Y0019384D02*
X0156005Y0019384D01*
X0156600Y0017785D02*
X0157000Y0017785D01*
X0157000Y0016187D02*
X0156600Y0016187D01*
X0156376Y0014588D02*
X0157224Y0014588D01*
X0152000Y0014588D02*
X0151600Y0014588D01*
X0151600Y0016187D02*
X0152000Y0016187D01*
X0152000Y0017785D02*
X0151600Y0017785D01*
X0151600Y0019384D02*
X0152000Y0019384D01*
X0171600Y0019384D02*
X0172000Y0019384D01*
X0172000Y0017785D02*
X0171600Y0017785D01*
X0171600Y0016187D02*
X0172000Y0016187D01*
X0172000Y0014588D02*
X0171600Y0014588D01*
X0176376Y0014588D02*
X0177224Y0014588D01*
X0177000Y0016187D02*
X0176600Y0016187D01*
X0176600Y0017785D02*
X0177000Y0017785D01*
X0177595Y0019384D02*
X0176005Y0019384D01*
X0174406Y0020982D02*
X0179194Y0020982D01*
X0179514Y0022581D02*
X0174086Y0022581D01*
X0172000Y0020982D02*
X0171600Y0020982D01*
X0181600Y0020982D02*
X0182000Y0020982D01*
X0184406Y0020982D02*
X0194194Y0020982D01*
X0194514Y0022581D02*
X0184086Y0022581D01*
X0186005Y0019384D02*
X0192595Y0019384D01*
X0192000Y0017785D02*
X0186600Y0017785D01*
X0186600Y0016187D02*
X0192000Y0016187D01*
X0192224Y0014588D02*
X0186376Y0014588D01*
X0182000Y0014588D02*
X0181600Y0014588D01*
X0181600Y0016187D02*
X0182000Y0016187D01*
X0182000Y0017785D02*
X0181600Y0017785D01*
X0181600Y0019384D02*
X0182000Y0019384D01*
X0196600Y0019384D02*
X0197000Y0019384D01*
X0197000Y0017785D02*
X0196600Y0017785D01*
X0196600Y0016187D02*
X0197000Y0016187D01*
X0197000Y0014588D02*
X0196600Y0014588D01*
X0201376Y0014588D02*
X0202224Y0014588D01*
X0202000Y0016187D02*
X0201600Y0016187D01*
X0201600Y0017785D02*
X0202000Y0017785D01*
X0202595Y0019384D02*
X0201005Y0019384D01*
X0199406Y0020982D02*
X0204194Y0020982D01*
X0204514Y0022581D02*
X0199086Y0022581D01*
X0197000Y0020982D02*
X0196600Y0020982D01*
X0206600Y0020982D02*
X0207000Y0020982D01*
X0209406Y0020982D02*
X0214194Y0020982D01*
X0214514Y0022581D02*
X0209086Y0022581D01*
X0211005Y0019384D02*
X0212595Y0019384D01*
X0212000Y0017785D02*
X0211600Y0017785D01*
X0211600Y0016187D02*
X0212000Y0016187D01*
X0212224Y0014588D02*
X0211376Y0014588D01*
X0207000Y0014588D02*
X0206600Y0014588D01*
X0206600Y0016187D02*
X0207000Y0016187D01*
X0207000Y0017785D02*
X0206600Y0017785D01*
X0206600Y0019384D02*
X0207000Y0019384D01*
X0216600Y0019384D02*
X0217000Y0019384D01*
X0217000Y0017785D02*
X0216600Y0017785D01*
X0216600Y0016187D02*
X0217000Y0016187D01*
X0217000Y0014588D02*
X0216600Y0014588D01*
X0221376Y0014588D02*
X0222224Y0014588D01*
X0222000Y0016187D02*
X0221600Y0016187D01*
X0221600Y0017785D02*
X0222000Y0017785D01*
X0222595Y0019384D02*
X0221005Y0019384D01*
X0219406Y0020982D02*
X0224194Y0020982D01*
X0224514Y0022581D02*
X0219086Y0022581D01*
X0217000Y0020982D02*
X0216600Y0020982D01*
X0226600Y0020982D02*
X0227000Y0020982D01*
X0229406Y0020982D02*
X0235188Y0020982D01*
X0235188Y0022581D02*
X0229086Y0022581D01*
X0232477Y0024179D02*
X0235188Y0024179D01*
X0235642Y0025778D02*
X0234076Y0025778D01*
X0235674Y0027376D02*
X0236135Y0027376D01*
X0223324Y0033770D02*
X0220276Y0033770D01*
X0221400Y0035369D02*
X0222200Y0035369D01*
X0222200Y0036967D02*
X0221400Y0036967D01*
X0213324Y0033770D02*
X0210276Y0033770D01*
X0211400Y0035369D02*
X0212200Y0035369D01*
X0212200Y0036967D02*
X0211400Y0036967D01*
X0203324Y0033770D02*
X0200276Y0033770D01*
X0201400Y0035369D02*
X0202200Y0035369D01*
X0202200Y0036967D02*
X0201400Y0036967D01*
X0193324Y0033770D02*
X0185276Y0033770D01*
X0186400Y0035369D02*
X0192200Y0035369D01*
X0192200Y0036967D02*
X0186400Y0036967D01*
X0186400Y0038566D02*
X0191074Y0038566D01*
X0189476Y0040164D02*
X0184941Y0040164D01*
X0187877Y0041763D02*
X0180797Y0041763D01*
X0179198Y0043361D02*
X0186279Y0043361D01*
X0184680Y0044960D02*
X0177600Y0044960D01*
X0176001Y0046558D02*
X0183082Y0046558D01*
X0181483Y0048157D02*
X0174403Y0048157D01*
X0172804Y0049755D02*
X0179885Y0049755D01*
X0176206Y0051354D02*
X0172394Y0051354D01*
X0173329Y0052952D02*
X0175271Y0052952D01*
X0175100Y0054551D02*
X0173500Y0054551D01*
X0173500Y0056149D02*
X0175100Y0056149D01*
X0175100Y0057748D02*
X0173500Y0057748D01*
X0173500Y0059346D02*
X0175100Y0059346D01*
X0175394Y0060945D02*
X0173206Y0060945D01*
X0172096Y0062543D02*
X0176504Y0062543D01*
X0182096Y0062543D02*
X0186504Y0062543D01*
X0185394Y0060945D02*
X0183206Y0060945D01*
X0183500Y0059346D02*
X0185100Y0059346D01*
X0185100Y0057748D02*
X0183500Y0057748D01*
X0183500Y0056149D02*
X0185100Y0056149D01*
X0185100Y0054551D02*
X0183500Y0054551D01*
X0184607Y0052952D02*
X0185271Y0052952D01*
X0186206Y0051354D02*
X0186206Y0051354D01*
X0187804Y0049755D02*
X0189885Y0049755D01*
X0189403Y0048157D02*
X0191483Y0048157D01*
X0191001Y0046558D02*
X0193082Y0046558D01*
X0192600Y0044960D02*
X0194680Y0044960D01*
X0194198Y0043361D02*
X0196279Y0043361D01*
X0195797Y0041763D02*
X0197877Y0041763D01*
X0202600Y0044960D02*
X0204680Y0044960D01*
X0204198Y0043361D02*
X0206279Y0043361D01*
X0205797Y0041763D02*
X0207877Y0041763D01*
X0212600Y0044960D02*
X0214680Y0044960D01*
X0214198Y0043361D02*
X0216279Y0043361D01*
X0215797Y0041763D02*
X0217877Y0041763D01*
X0222600Y0044960D02*
X0235200Y0044960D01*
X0235200Y0043361D02*
X0224198Y0043361D01*
X0225797Y0041763D02*
X0235200Y0041763D01*
X0235200Y0040164D02*
X0229941Y0040164D01*
X0235798Y0046558D02*
X0221001Y0046558D01*
X0219403Y0048157D02*
X0237359Y0048157D01*
X0238957Y0049755D02*
X0217804Y0049755D01*
X0219300Y0051354D02*
X0219300Y0051354D01*
X0219300Y0052952D02*
X0219300Y0052952D01*
X0219300Y0054551D02*
X0219300Y0054551D01*
X0219300Y0056149D02*
X0219300Y0056149D01*
X0219300Y0057748D02*
X0219300Y0057748D01*
X0219300Y0059346D02*
X0219300Y0059346D01*
X0219300Y0060945D02*
X0219300Y0060945D01*
X0223424Y0060945D02*
X0265701Y0060945D01*
X0265701Y0059346D02*
X0223700Y0059346D01*
X0223700Y0057748D02*
X0265701Y0057748D01*
X0265701Y0056149D02*
X0223700Y0056149D01*
X0223700Y0054551D02*
X0249378Y0054551D01*
X0242154Y0052952D02*
X0223521Y0052952D01*
X0222671Y0051354D02*
X0240556Y0051354D01*
X0245758Y0044960D02*
X0248700Y0044960D01*
X0262731Y0051354D02*
X0265701Y0051354D01*
X0265701Y0052952D02*
X0261814Y0052952D01*
X0259380Y0054551D02*
X0265701Y0054551D01*
X0265701Y0062543D02*
X0222379Y0062543D01*
X0219300Y0062543D02*
X0219300Y0062543D01*
X0216221Y0062543D02*
X0212096Y0062543D01*
X0213206Y0060945D02*
X0215176Y0060945D01*
X0214900Y0059346D02*
X0213500Y0059346D01*
X0213500Y0057748D02*
X0214900Y0057748D01*
X0214900Y0056149D02*
X0213500Y0056149D01*
X0213500Y0054551D02*
X0214900Y0054551D01*
X0215079Y0052952D02*
X0214607Y0052952D01*
X0209885Y0049755D02*
X0207804Y0049755D01*
X0209403Y0048157D02*
X0211483Y0048157D01*
X0211001Y0046558D02*
X0213082Y0046558D01*
X0206206Y0051354D02*
X0206206Y0051354D01*
X0205271Y0052952D02*
X0204607Y0052952D01*
X0205100Y0054551D02*
X0203500Y0054551D01*
X0203500Y0056149D02*
X0205100Y0056149D01*
X0205100Y0057748D02*
X0203500Y0057748D01*
X0203500Y0059346D02*
X0205100Y0059346D01*
X0205394Y0060945D02*
X0203206Y0060945D01*
X0202096Y0062543D02*
X0206504Y0062543D01*
X0196504Y0062543D02*
X0192096Y0062543D01*
X0193206Y0060945D02*
X0195394Y0060945D01*
X0195100Y0059346D02*
X0193500Y0059346D01*
X0193500Y0057748D02*
X0195100Y0057748D01*
X0195100Y0056149D02*
X0193500Y0056149D01*
X0193500Y0054551D02*
X0195100Y0054551D01*
X0195271Y0052952D02*
X0194607Y0052952D01*
X0196206Y0051354D02*
X0196206Y0051354D01*
X0197804Y0049755D02*
X0199885Y0049755D01*
X0199403Y0048157D02*
X0201483Y0048157D01*
X0201001Y0046558D02*
X0203082Y0046558D01*
X0177200Y0036967D02*
X0176400Y0036967D01*
X0176400Y0035369D02*
X0177200Y0035369D01*
X0178324Y0033770D02*
X0175276Y0033770D01*
X0168324Y0033770D02*
X0165276Y0033770D01*
X0166400Y0035369D02*
X0167200Y0035369D01*
X0167200Y0036967D02*
X0166400Y0036967D01*
X0158324Y0033770D02*
X0155276Y0033770D01*
X0156400Y0035369D02*
X0157200Y0035369D01*
X0157200Y0036967D02*
X0156400Y0036967D01*
X0152877Y0041763D02*
X0150797Y0041763D01*
X0151279Y0043361D02*
X0149198Y0043361D01*
X0149680Y0044960D02*
X0147600Y0044960D01*
X0148082Y0046558D02*
X0146001Y0046558D01*
X0146743Y0048157D02*
X0144600Y0048157D01*
X0144600Y0049755D02*
X0146500Y0049755D01*
X0146206Y0051354D02*
X0144600Y0051354D01*
X0144600Y0052952D02*
X0145271Y0052952D01*
X0145100Y0054551D02*
X0144600Y0054551D01*
X0144600Y0056149D02*
X0145100Y0056149D01*
X0145100Y0057748D02*
X0144600Y0057748D01*
X0144600Y0059346D02*
X0145100Y0059346D01*
X0145394Y0060945D02*
X0144600Y0060945D01*
X0144600Y0062543D02*
X0146504Y0062543D01*
X0145602Y0064142D02*
X0249497Y0064142D01*
X0249607Y0064106D02*
X0248810Y0064365D01*
X0248063Y0064746D01*
X0247385Y0065238D01*
X0246792Y0065831D01*
X0246299Y0066509D01*
X0245919Y0067256D01*
X0245660Y0068053D01*
X0245529Y0068881D01*
X0245529Y0068925D01*
X0254004Y0068925D01*
X0254754Y0068925D01*
X0254754Y0069675D01*
X0263229Y0069675D01*
X0263229Y0069719D01*
X0263098Y0070547D01*
X0262839Y0071344D01*
X0262458Y0072091D01*
X0261965Y0072769D01*
X0261373Y0073362D01*
X0260695Y0073854D01*
X0259948Y0074235D01*
X0259151Y0074494D01*
X0258323Y0074625D01*
X0254754Y0074625D01*
X0254754Y0069675D01*
X0254004Y0069675D01*
X0254004Y0074625D01*
X0250435Y0074625D01*
X0249607Y0074494D01*
X0248810Y0074235D01*
X0248063Y0073854D01*
X0247385Y0073362D01*
X0246792Y0072769D01*
X0246299Y0072091D01*
X0245919Y0071344D01*
X0245660Y0070547D01*
X0245529Y0069719D01*
X0245529Y0069675D01*
X0254004Y0069675D01*
X0254004Y0068925D01*
X0254004Y0063975D01*
X0250435Y0063975D01*
X0249607Y0064106D01*
X0246883Y0065740D02*
X0147200Y0065740D01*
X0148799Y0067339D02*
X0245892Y0067339D01*
X0245658Y0070536D02*
X0151996Y0070536D01*
X0150397Y0068937D02*
X0254004Y0068937D01*
X0254754Y0068937D02*
X0265701Y0068937D01*
X0265701Y0067339D02*
X0262866Y0067339D01*
X0262839Y0067256D02*
X0263098Y0068053D01*
X0263229Y0068881D01*
X0263229Y0068925D01*
X0254754Y0068925D01*
X0254754Y0063975D01*
X0258323Y0063975D01*
X0259151Y0064106D01*
X0259948Y0064365D01*
X0260695Y0064746D01*
X0261373Y0065238D01*
X0261965Y0065831D01*
X0262458Y0066509D01*
X0262839Y0067256D01*
X0261875Y0065740D02*
X0265701Y0065740D01*
X0265701Y0064142D02*
X0259261Y0064142D01*
X0254754Y0064142D02*
X0254004Y0064142D01*
X0254004Y0065740D02*
X0254754Y0065740D01*
X0254754Y0067339D02*
X0254004Y0067339D01*
X0254004Y0070536D02*
X0254754Y0070536D01*
X0254754Y0072134D02*
X0254004Y0072134D01*
X0254004Y0073733D02*
X0254754Y0073733D01*
X0260862Y0073733D02*
X0265701Y0073733D01*
X0265701Y0072134D02*
X0262426Y0072134D01*
X0263099Y0070536D02*
X0265701Y0070536D01*
X0265701Y0075332D02*
X0216791Y0075332D01*
X0218390Y0076930D02*
X0265701Y0076930D01*
X0265701Y0078529D02*
X0219988Y0078529D01*
X0221587Y0080127D02*
X0265701Y0080127D01*
X0265701Y0081726D02*
X0222765Y0081726D01*
X0223483Y0083324D02*
X0265701Y0083324D01*
X0265701Y0084923D02*
X0261089Y0084923D01*
X0262430Y0086521D02*
X0265701Y0086521D01*
X0265701Y0088120D02*
X0263029Y0088120D01*
X0263029Y0089718D02*
X0265701Y0089718D01*
X0265701Y0091317D02*
X0262485Y0091317D01*
X0261221Y0092915D02*
X0265701Y0092915D01*
X0265701Y0094514D02*
X0247385Y0094514D01*
X0245786Y0096112D02*
X0265701Y0096112D01*
X0265701Y0097711D02*
X0244188Y0097711D01*
X0242589Y0099309D02*
X0265701Y0099309D01*
X0265701Y0100908D02*
X0256827Y0100908D01*
X0260267Y0102506D02*
X0265701Y0102506D01*
X0265701Y0104105D02*
X0262682Y0104105D01*
X0264166Y0105703D02*
X0265701Y0105703D01*
X0265649Y0107302D02*
X0265701Y0107302D01*
X0246822Y0100908D02*
X0240991Y0100908D01*
X0239392Y0102506D02*
X0243080Y0102506D01*
X0241075Y0104105D02*
X0237794Y0104105D01*
X0239260Y0105703D02*
X0236195Y0105703D01*
X0234596Y0107302D02*
X0238170Y0107302D01*
X0237080Y0108900D02*
X0232998Y0108900D01*
X0231399Y0110499D02*
X0236359Y0110499D01*
X0235866Y0112097D02*
X0229801Y0112097D01*
X0228202Y0113696D02*
X0235373Y0113696D01*
X0235188Y0115294D02*
X0226604Y0115294D01*
X0225005Y0116893D02*
X0235188Y0116893D01*
X0235188Y0118491D02*
X0223407Y0118491D01*
X0221808Y0120090D02*
X0235430Y0120090D01*
X0235923Y0121688D02*
X0221400Y0121688D01*
X0221400Y0123287D02*
X0236416Y0123287D01*
X0237207Y0124885D02*
X0221400Y0124885D01*
X0221082Y0126484D02*
X0238296Y0126484D01*
X0239386Y0128082D02*
X0220707Y0128082D01*
X0219717Y0129681D02*
X0241308Y0129681D01*
X0243312Y0131279D02*
X0218119Y0131279D01*
X0211318Y0126484D02*
X0211082Y0126484D01*
X0211400Y0124885D02*
X0212200Y0124885D01*
X0212200Y0123287D02*
X0211400Y0123287D01*
X0211400Y0121688D02*
X0212200Y0121688D01*
X0212200Y0120090D02*
X0211400Y0120090D01*
X0211400Y0118491D02*
X0212200Y0118491D01*
X0212611Y0116893D02*
X0210989Y0116893D01*
X0211919Y0115294D02*
X0213800Y0115294D01*
X0212100Y0113696D02*
X0216606Y0113696D01*
X0218204Y0112097D02*
X0212100Y0112097D01*
X0212100Y0110499D02*
X0219803Y0110499D01*
X0221401Y0108900D02*
X0212100Y0108900D01*
X0212100Y0107302D02*
X0223000Y0107302D01*
X0224598Y0105703D02*
X0212100Y0105703D01*
X0212100Y0104105D02*
X0226197Y0104105D01*
X0227796Y0102506D02*
X0212100Y0102506D01*
X0212100Y0100908D02*
X0229394Y0100908D01*
X0230993Y0099309D02*
X0212100Y0099309D01*
X0212100Y0097711D02*
X0232591Y0097711D01*
X0234190Y0096112D02*
X0212100Y0096112D01*
X0212100Y0094514D02*
X0235788Y0094514D01*
X0237387Y0092915D02*
X0221725Y0092915D01*
X0223052Y0091317D02*
X0238985Y0091317D01*
X0240584Y0089718D02*
X0223500Y0089718D01*
X0223500Y0088120D02*
X0242182Y0088120D01*
X0243781Y0086521D02*
X0223500Y0086521D01*
X0223500Y0084923D02*
X0247668Y0084923D01*
X0247896Y0073733D02*
X0155193Y0073733D01*
X0156791Y0075332D02*
X0184309Y0075332D01*
X0182710Y0076930D02*
X0158390Y0076930D01*
X0159988Y0078529D02*
X0181589Y0078529D01*
X0181500Y0080127D02*
X0180442Y0080127D01*
X0178158Y0080127D02*
X0170442Y0080127D01*
X0168158Y0080127D02*
X0161587Y0080127D01*
X0162765Y0081726D02*
X0165835Y0081726D01*
X0165117Y0083324D02*
X0163483Y0083324D01*
X0163500Y0084923D02*
X0165100Y0084923D01*
X0165100Y0086521D02*
X0163500Y0086521D01*
X0163500Y0088120D02*
X0165100Y0088120D01*
X0165100Y0089718D02*
X0163500Y0089718D01*
X0163052Y0091317D02*
X0165548Y0091317D01*
X0164225Y0092915D02*
X0161725Y0092915D01*
X0168948Y0096112D02*
X0181500Y0096112D01*
X0181500Y0094514D02*
X0170546Y0094514D01*
X0171869Y0092915D02*
X0176875Y0092915D01*
X0175548Y0091317D02*
X0173052Y0091317D01*
X0173500Y0089718D02*
X0175100Y0089718D01*
X0175100Y0088120D02*
X0173500Y0088120D01*
X0173500Y0086521D02*
X0175100Y0086521D01*
X0175100Y0084923D02*
X0173500Y0084923D01*
X0173483Y0083324D02*
X0175117Y0083324D01*
X0175835Y0081726D02*
X0172765Y0081726D01*
X0187433Y0080127D02*
X0188158Y0080127D01*
X0190442Y0080127D02*
X0198158Y0080127D01*
X0200442Y0080127D02*
X0208158Y0080127D01*
X0210442Y0080127D02*
X0213667Y0080127D01*
X0212765Y0081726D02*
X0215266Y0081726D01*
X0215117Y0083324D02*
X0213483Y0083324D01*
X0213500Y0084923D02*
X0215100Y0084923D01*
X0215100Y0086521D02*
X0213500Y0086521D01*
X0213500Y0088120D02*
X0215100Y0088120D01*
X0215100Y0089718D02*
X0213500Y0089718D01*
X0213052Y0091317D02*
X0215548Y0091317D01*
X0216875Y0092915D02*
X0212100Y0092915D01*
X0206500Y0092915D02*
X0202100Y0092915D01*
X0202100Y0094514D02*
X0206500Y0094514D01*
X0206500Y0096112D02*
X0202100Y0096112D01*
X0202100Y0097711D02*
X0206500Y0097711D01*
X0206500Y0099309D02*
X0202100Y0099309D01*
X0202100Y0100908D02*
X0206500Y0100908D01*
X0206500Y0102506D02*
X0202100Y0102506D01*
X0202100Y0104105D02*
X0206500Y0104105D01*
X0206500Y0105703D02*
X0202100Y0105703D01*
X0202100Y0107302D02*
X0206500Y0107302D01*
X0206500Y0108900D02*
X0202100Y0108900D01*
X0202100Y0110499D02*
X0206500Y0110499D01*
X0206500Y0112097D02*
X0202100Y0112097D01*
X0202100Y0113696D02*
X0205944Y0113696D01*
X0203800Y0115294D02*
X0201919Y0115294D01*
X0202611Y0116893D02*
X0200989Y0116893D01*
X0201400Y0118491D02*
X0202200Y0118491D01*
X0202200Y0120090D02*
X0201400Y0120090D01*
X0201400Y0121688D02*
X0202200Y0121688D01*
X0202200Y0123287D02*
X0201400Y0123287D01*
X0201400Y0124885D02*
X0202200Y0124885D01*
X0202518Y0126484D02*
X0201082Y0126484D01*
X0192518Y0126484D02*
X0191082Y0126484D01*
X0191400Y0124885D02*
X0192200Y0124885D01*
X0192200Y0123287D02*
X0191400Y0123287D01*
X0191400Y0121688D02*
X0192200Y0121688D01*
X0192200Y0120090D02*
X0191400Y0120090D01*
X0191400Y0118491D02*
X0192200Y0118491D01*
X0192611Y0116893D02*
X0190989Y0116893D01*
X0191919Y0115294D02*
X0193800Y0115294D01*
X0192100Y0113696D02*
X0195944Y0113696D01*
X0196500Y0112097D02*
X0192100Y0112097D01*
X0192100Y0110499D02*
X0196500Y0110499D01*
X0196500Y0108900D02*
X0192100Y0108900D01*
X0192100Y0107302D02*
X0196500Y0107302D01*
X0196500Y0105703D02*
X0192100Y0105703D01*
X0192100Y0104105D02*
X0196500Y0104105D01*
X0196500Y0102506D02*
X0192100Y0102506D01*
X0192100Y0100908D02*
X0196500Y0100908D01*
X0196500Y0099309D02*
X0192100Y0099309D01*
X0192100Y0097711D02*
X0196500Y0097711D01*
X0196500Y0096112D02*
X0192100Y0096112D01*
X0192100Y0094514D02*
X0196500Y0094514D01*
X0196500Y0092915D02*
X0192100Y0092915D01*
X0193052Y0091317D02*
X0195548Y0091317D01*
X0195100Y0089718D02*
X0193500Y0089718D01*
X0193500Y0088120D02*
X0195100Y0088120D01*
X0195100Y0086521D02*
X0193500Y0086521D01*
X0193500Y0084923D02*
X0195100Y0084923D01*
X0195117Y0083324D02*
X0193483Y0083324D01*
X0192765Y0081726D02*
X0195835Y0081726D01*
X0202765Y0081726D02*
X0205835Y0081726D01*
X0205117Y0083324D02*
X0203483Y0083324D01*
X0203500Y0084923D02*
X0205100Y0084923D01*
X0205100Y0086521D02*
X0203500Y0086521D01*
X0203500Y0088120D02*
X0205100Y0088120D01*
X0205100Y0089718D02*
X0203500Y0089718D01*
X0203052Y0091317D02*
X0205548Y0091317D01*
X0181500Y0097711D02*
X0167349Y0097711D01*
X0165559Y0099309D02*
X0181500Y0099309D01*
X0181500Y0100908D02*
X0119152Y0100908D01*
X0117554Y0102506D02*
X0181500Y0102506D01*
X0181500Y0104105D02*
X0115955Y0104105D01*
X0114357Y0105703D02*
X0181500Y0105703D01*
X0181500Y0107302D02*
X0112758Y0107302D01*
X0111160Y0108900D02*
X0180740Y0108900D01*
X0179141Y0110499D02*
X0127684Y0110499D01*
X0127332Y0110499D02*
X0126582Y0110499D01*
X0126230Y0110499D02*
X0109561Y0110499D01*
X0107962Y0112097D02*
X0123105Y0112097D01*
X0126582Y0112097D02*
X0127332Y0112097D01*
X0127332Y0113696D02*
X0126582Y0113696D01*
X0126582Y0115294D02*
X0127332Y0115294D01*
X0127332Y0116893D02*
X0126582Y0116893D01*
X0126582Y0118491D02*
X0127332Y0118491D01*
X0132282Y0118491D02*
X0141518Y0118491D01*
X0141518Y0116893D02*
X0132282Y0116893D01*
X0132273Y0115294D02*
X0141518Y0115294D01*
X0141956Y0113696D02*
X0131874Y0113696D01*
X0130810Y0112097D02*
X0143072Y0112097D01*
X0150213Y0112097D02*
X0177543Y0112097D01*
X0175944Y0113696D02*
X0151329Y0113696D01*
X0151768Y0115294D02*
X0163517Y0115294D01*
X0162385Y0116893D02*
X0151768Y0116893D01*
X0151768Y0118491D02*
X0162000Y0118491D01*
X0162000Y0120090D02*
X0151768Y0120090D01*
X0151768Y0121688D02*
X0166600Y0121688D01*
X0167000Y0121688D02*
X0172200Y0121688D01*
X0172200Y0120090D02*
X0171600Y0120090D01*
X0171600Y0118491D02*
X0172200Y0118491D01*
X0172611Y0116893D02*
X0171215Y0116893D01*
X0170083Y0115294D02*
X0173800Y0115294D01*
X0167000Y0115294D02*
X0166600Y0115294D01*
X0166600Y0116893D02*
X0167000Y0116893D01*
X0167000Y0118491D02*
X0166600Y0118491D01*
X0166600Y0120090D02*
X0167000Y0120090D01*
X0171600Y0123287D02*
X0172200Y0123287D01*
X0172200Y0124885D02*
X0171600Y0124885D01*
X0171300Y0126484D02*
X0172518Y0126484D01*
X0162300Y0126484D02*
X0150743Y0126484D01*
X0151336Y0124885D02*
X0162000Y0124885D01*
X0162000Y0123287D02*
X0151768Y0123287D01*
X0142543Y0126484D02*
X0130829Y0126484D01*
X0131884Y0124885D02*
X0141949Y0124885D01*
X0141518Y0123287D02*
X0132276Y0123287D01*
X0132282Y0121688D02*
X0141518Y0121688D01*
X0141518Y0120090D02*
X0132282Y0120090D01*
X0121632Y0120090D02*
X0111400Y0120090D01*
X0111400Y0121688D02*
X0121632Y0121688D01*
X0121639Y0123287D02*
X0111400Y0123287D01*
X0111400Y0124885D02*
X0122031Y0124885D01*
X0123086Y0126484D02*
X0112282Y0126484D01*
X0105481Y0131279D02*
X0029946Y0131279D01*
X0090023Y0128082D02*
X0093577Y0128082D01*
X0092518Y0126484D02*
X0091082Y0126484D01*
X0091400Y0124885D02*
X0092200Y0124885D01*
X0092200Y0123287D02*
X0091400Y0123287D01*
X0091400Y0121688D02*
X0092200Y0121688D01*
X0092200Y0120090D02*
X0091400Y0120090D01*
X0091568Y0118491D02*
X0092200Y0118491D01*
X0106364Y0113696D02*
X0122041Y0113696D01*
X0121642Y0115294D02*
X0109800Y0115294D01*
X0110989Y0116893D02*
X0121632Y0116893D01*
X0121632Y0118491D02*
X0111400Y0118491D01*
X0120751Y0099309D02*
X0138041Y0099309D01*
X0136251Y0097711D02*
X0122349Y0097711D01*
X0123948Y0096112D02*
X0134652Y0096112D01*
X0133054Y0094514D02*
X0125546Y0094514D01*
X0126869Y0092915D02*
X0131731Y0092915D01*
X0130548Y0091317D02*
X0128052Y0091317D01*
X0128500Y0089718D02*
X0130100Y0089718D01*
X0130100Y0088120D02*
X0128500Y0088120D01*
X0128500Y0086521D02*
X0130100Y0086521D01*
X0130100Y0084923D02*
X0128500Y0084923D01*
X0128483Y0083324D02*
X0130117Y0083324D01*
X0130835Y0081726D02*
X0127765Y0081726D01*
X0153594Y0072134D02*
X0246331Y0072134D01*
X0172877Y0041763D02*
X0170797Y0041763D01*
X0171279Y0043361D02*
X0169198Y0043361D01*
X0169680Y0044960D02*
X0167600Y0044960D01*
X0168082Y0046558D02*
X0166001Y0046558D01*
X0166743Y0048157D02*
X0164403Y0048157D01*
X0162804Y0049755D02*
X0166500Y0049755D01*
X0166206Y0051354D02*
X0162394Y0051354D01*
X0163329Y0052952D02*
X0165271Y0052952D01*
X0165100Y0054551D02*
X0163500Y0054551D01*
X0163500Y0056149D02*
X0165100Y0056149D01*
X0165100Y0057748D02*
X0163500Y0057748D01*
X0163500Y0059346D02*
X0165100Y0059346D01*
X0165394Y0060945D02*
X0163206Y0060945D01*
X0162096Y0062543D02*
X0166504Y0062543D01*
X0156504Y0062543D02*
X0152096Y0062543D01*
X0153206Y0060945D02*
X0155394Y0060945D01*
X0155100Y0059346D02*
X0153500Y0059346D01*
X0153500Y0057748D02*
X0155100Y0057748D01*
X0155100Y0056149D02*
X0153500Y0056149D01*
X0153500Y0054551D02*
X0155100Y0054551D01*
X0155271Y0052952D02*
X0153329Y0052952D01*
X0152394Y0051354D02*
X0156206Y0051354D01*
X0156500Y0049755D02*
X0152804Y0049755D01*
X0154403Y0048157D02*
X0156743Y0048157D01*
X0156001Y0046558D02*
X0158082Y0046558D01*
X0157600Y0044960D02*
X0159680Y0044960D01*
X0159198Y0043361D02*
X0161279Y0043361D01*
X0160797Y0041763D02*
X0162877Y0041763D01*
X0226600Y0019384D02*
X0227000Y0019384D01*
X0227000Y0017785D02*
X0226600Y0017785D01*
X0226600Y0016187D02*
X0227000Y0016187D01*
X0227000Y0014588D02*
X0226600Y0014588D01*
X0231376Y0014588D02*
X0236640Y0014588D01*
X0236147Y0016187D02*
X0231600Y0016187D01*
X0231600Y0017785D02*
X0235654Y0017785D01*
X0235188Y0019384D02*
X0231005Y0019384D01*
X0060548Y0091317D02*
X0006600Y0091317D01*
X0006600Y0060945D02*
X0018940Y0060945D01*
X0017669Y0059346D02*
X0006600Y0059346D01*
X0006600Y0057748D02*
X0017200Y0057748D01*
X0017200Y0056149D02*
X0006600Y0056149D01*
X0006600Y0054551D02*
X0017200Y0054551D01*
X0017200Y0052952D02*
X0006600Y0052952D01*
X0006600Y0051354D02*
X0017200Y0051354D01*
X0017461Y0049755D02*
X0006600Y0049755D01*
X0006600Y0048157D02*
X0018438Y0048157D01*
X0031600Y0048157D02*
X0032000Y0048157D01*
X0032000Y0049755D02*
X0031600Y0049755D01*
X0035445Y0048157D02*
X0037359Y0048157D01*
X0037461Y0049755D02*
X0036345Y0049755D01*
X0035760Y0046558D02*
X0032546Y0046558D01*
X0032000Y0046558D02*
X0031600Y0046558D01*
D17*
X0036800Y0041800D02*
X0036800Y0031800D01*
X0041800Y0026800D01*
X0046800Y0026800D01*
X0056800Y0026800D01*
X0066800Y0026800D01*
X0076800Y0026800D01*
X0091800Y0026800D01*
X0101800Y0026800D01*
X0111800Y0026800D01*
X0121800Y0026800D01*
X0151800Y0026800D01*
X0161800Y0026800D01*
X0171800Y0026800D01*
X0181800Y0026800D01*
X0196800Y0026800D01*
X0206800Y0026800D01*
X0216800Y0026800D01*
X0226800Y0026800D01*
X0229300Y0026800D02*
X0239300Y0036800D01*
X0239300Y0044300D01*
X0244615Y0049615D01*
X0254379Y0049615D01*
X0254379Y0088985D02*
X0254064Y0089300D01*
X0246800Y0089300D01*
X0216800Y0119300D01*
X0216800Y0121800D01*
X0216800Y0126800D01*
X0211800Y0131800D01*
X0146800Y0131800D01*
X0146643Y0131643D01*
X0146643Y0119300D01*
X0146800Y0131800D02*
X0111800Y0131800D01*
X0106800Y0126800D01*
X0106800Y0121800D01*
X0064300Y0084300D02*
X0051800Y0071800D01*
X0041800Y0061800D01*
X0041800Y0054300D01*
X0041800Y0046800D01*
X0036800Y0041800D01*
D18*
X0064300Y0084300D02*
X0064300Y0086800D01*
X0226800Y0026800D02*
X0229300Y0026800D01*
D19*
X0226800Y0036800D02*
X0209300Y0054300D01*
X0209300Y0056800D01*
X0199300Y0056800D02*
X0199300Y0054300D01*
X0216800Y0036800D01*
X0206800Y0036800D02*
X0189300Y0054300D01*
X0189300Y0056800D01*
X0179300Y0056800D02*
X0179300Y0054300D01*
X0196800Y0036800D01*
X0181800Y0036800D02*
X0169300Y0049300D01*
X0169300Y0056800D01*
X0159300Y0056800D02*
X0159300Y0049300D01*
X0171800Y0036800D01*
X0161800Y0036800D02*
X0149300Y0049300D01*
X0149300Y0056800D01*
X0141800Y0064300D02*
X0159300Y0081800D01*
X0159300Y0086800D01*
X0169300Y0086800D02*
X0169300Y0091800D01*
X0164300Y0096800D01*
X0139300Y0096800D01*
X0134300Y0091800D01*
X0134300Y0086800D01*
X0124300Y0086800D02*
X0124300Y0091800D01*
X0096800Y0119300D01*
X0096800Y0121800D01*
X0086800Y0121800D02*
X0086800Y0119300D01*
X0114300Y0091800D01*
X0114300Y0086800D01*
X0104300Y0086800D02*
X0104300Y0091800D01*
X0076800Y0119300D01*
X0076800Y0121800D01*
X0066800Y0121800D02*
X0066800Y0119300D01*
X0084300Y0101800D01*
X0084300Y0086800D01*
X0074300Y0086800D02*
X0074300Y0081800D01*
X0056800Y0064300D01*
X0056800Y0051800D01*
X0046800Y0041800D01*
X0046800Y0036800D01*
X0056800Y0036800D02*
X0056800Y0041800D01*
X0064300Y0049300D01*
X0064300Y0056800D01*
X0074300Y0056800D02*
X0074300Y0049300D01*
X0066800Y0041800D01*
X0066800Y0036800D01*
X0076800Y0036800D02*
X0076800Y0041800D01*
X0084300Y0049300D01*
X0084300Y0056800D01*
X0094300Y0056800D02*
X0094300Y0044300D01*
X0091800Y0041800D01*
X0091800Y0036800D01*
X0101800Y0036800D02*
X0101800Y0041800D01*
X0104300Y0044300D01*
X0104300Y0056800D01*
X0114300Y0056800D02*
X0114300Y0044300D01*
X0111800Y0041800D01*
X0111800Y0036800D01*
X0121800Y0036800D02*
X0121800Y0041800D01*
X0124300Y0044300D01*
X0124300Y0056800D01*
X0141800Y0064300D02*
X0141800Y0046800D01*
X0151800Y0036800D01*
X0186800Y0076800D02*
X0184300Y0079300D01*
X0184300Y0109300D01*
X0176800Y0116800D01*
X0176800Y0121800D01*
X0186800Y0121800D02*
X0186800Y0116800D01*
X0189300Y0114300D01*
X0189300Y0086800D01*
X0199300Y0086800D02*
X0199300Y0114300D01*
X0196800Y0116800D01*
X0196800Y0121800D01*
X0206800Y0121800D02*
X0206800Y0116800D01*
X0209300Y0114300D01*
X0209300Y0086800D01*
X0219300Y0086800D02*
X0219300Y0081800D01*
X0214300Y0076800D01*
X0186800Y0076800D01*
M02*
