G75*
%MOIN*%
%OFA0B0*%
%FSLAX25Y25*%
%IPPOS*%
%LPD*%
%AMOC8*
5,1,8,0,0,1.08239X$1,22.5*
%
%ADD10C,0.00000*%
%ADD11C,0.00400*%
%ADD12C,0.00600*%
%ADD13C,0.00500*%
%ADD14C,0.00800*%
%ADD15C,0.00300*%
%ADD16R,0.02400X0.03400*%
%ADD17R,0.03400X0.02400*%
%ADD18C,0.01000*%
D10*
X0006800Y0001000D02*
X0006800Y0230961D01*
X0150501Y0230961D01*
X0150501Y0001000D01*
X0006800Y0001000D01*
X0020501Y0021000D02*
X0020503Y0021158D01*
X0020509Y0021316D01*
X0020519Y0021474D01*
X0020533Y0021632D01*
X0020551Y0021789D01*
X0020572Y0021946D01*
X0020598Y0022102D01*
X0020628Y0022258D01*
X0020661Y0022413D01*
X0020699Y0022566D01*
X0020740Y0022719D01*
X0020785Y0022871D01*
X0020834Y0023022D01*
X0020887Y0023171D01*
X0020943Y0023319D01*
X0021003Y0023465D01*
X0021067Y0023610D01*
X0021135Y0023753D01*
X0021206Y0023895D01*
X0021280Y0024035D01*
X0021358Y0024172D01*
X0021440Y0024308D01*
X0021524Y0024442D01*
X0021613Y0024573D01*
X0021704Y0024702D01*
X0021799Y0024829D01*
X0021896Y0024954D01*
X0021997Y0025076D01*
X0022101Y0025195D01*
X0022208Y0025312D01*
X0022318Y0025426D01*
X0022431Y0025537D01*
X0022546Y0025646D01*
X0022664Y0025751D01*
X0022785Y0025853D01*
X0022908Y0025953D01*
X0023034Y0026049D01*
X0023162Y0026142D01*
X0023292Y0026232D01*
X0023425Y0026318D01*
X0023560Y0026402D01*
X0023696Y0026481D01*
X0023835Y0026558D01*
X0023976Y0026630D01*
X0024118Y0026700D01*
X0024262Y0026765D01*
X0024408Y0026827D01*
X0024555Y0026885D01*
X0024704Y0026940D01*
X0024854Y0026991D01*
X0025005Y0027038D01*
X0025157Y0027081D01*
X0025310Y0027120D01*
X0025465Y0027156D01*
X0025620Y0027187D01*
X0025776Y0027215D01*
X0025932Y0027239D01*
X0026089Y0027259D01*
X0026247Y0027275D01*
X0026404Y0027287D01*
X0026563Y0027295D01*
X0026721Y0027299D01*
X0026879Y0027299D01*
X0027037Y0027295D01*
X0027196Y0027287D01*
X0027353Y0027275D01*
X0027511Y0027259D01*
X0027668Y0027239D01*
X0027824Y0027215D01*
X0027980Y0027187D01*
X0028135Y0027156D01*
X0028290Y0027120D01*
X0028443Y0027081D01*
X0028595Y0027038D01*
X0028746Y0026991D01*
X0028896Y0026940D01*
X0029045Y0026885D01*
X0029192Y0026827D01*
X0029338Y0026765D01*
X0029482Y0026700D01*
X0029624Y0026630D01*
X0029765Y0026558D01*
X0029904Y0026481D01*
X0030040Y0026402D01*
X0030175Y0026318D01*
X0030308Y0026232D01*
X0030438Y0026142D01*
X0030566Y0026049D01*
X0030692Y0025953D01*
X0030815Y0025853D01*
X0030936Y0025751D01*
X0031054Y0025646D01*
X0031169Y0025537D01*
X0031282Y0025426D01*
X0031392Y0025312D01*
X0031499Y0025195D01*
X0031603Y0025076D01*
X0031704Y0024954D01*
X0031801Y0024829D01*
X0031896Y0024702D01*
X0031987Y0024573D01*
X0032076Y0024442D01*
X0032160Y0024308D01*
X0032242Y0024172D01*
X0032320Y0024035D01*
X0032394Y0023895D01*
X0032465Y0023753D01*
X0032533Y0023610D01*
X0032597Y0023465D01*
X0032657Y0023319D01*
X0032713Y0023171D01*
X0032766Y0023022D01*
X0032815Y0022871D01*
X0032860Y0022719D01*
X0032901Y0022566D01*
X0032939Y0022413D01*
X0032972Y0022258D01*
X0033002Y0022102D01*
X0033028Y0021946D01*
X0033049Y0021789D01*
X0033067Y0021632D01*
X0033081Y0021474D01*
X0033091Y0021316D01*
X0033097Y0021158D01*
X0033099Y0021000D01*
X0033097Y0020842D01*
X0033091Y0020684D01*
X0033081Y0020526D01*
X0033067Y0020368D01*
X0033049Y0020211D01*
X0033028Y0020054D01*
X0033002Y0019898D01*
X0032972Y0019742D01*
X0032939Y0019587D01*
X0032901Y0019434D01*
X0032860Y0019281D01*
X0032815Y0019129D01*
X0032766Y0018978D01*
X0032713Y0018829D01*
X0032657Y0018681D01*
X0032597Y0018535D01*
X0032533Y0018390D01*
X0032465Y0018247D01*
X0032394Y0018105D01*
X0032320Y0017965D01*
X0032242Y0017828D01*
X0032160Y0017692D01*
X0032076Y0017558D01*
X0031987Y0017427D01*
X0031896Y0017298D01*
X0031801Y0017171D01*
X0031704Y0017046D01*
X0031603Y0016924D01*
X0031499Y0016805D01*
X0031392Y0016688D01*
X0031282Y0016574D01*
X0031169Y0016463D01*
X0031054Y0016354D01*
X0030936Y0016249D01*
X0030815Y0016147D01*
X0030692Y0016047D01*
X0030566Y0015951D01*
X0030438Y0015858D01*
X0030308Y0015768D01*
X0030175Y0015682D01*
X0030040Y0015598D01*
X0029904Y0015519D01*
X0029765Y0015442D01*
X0029624Y0015370D01*
X0029482Y0015300D01*
X0029338Y0015235D01*
X0029192Y0015173D01*
X0029045Y0015115D01*
X0028896Y0015060D01*
X0028746Y0015009D01*
X0028595Y0014962D01*
X0028443Y0014919D01*
X0028290Y0014880D01*
X0028135Y0014844D01*
X0027980Y0014813D01*
X0027824Y0014785D01*
X0027668Y0014761D01*
X0027511Y0014741D01*
X0027353Y0014725D01*
X0027196Y0014713D01*
X0027037Y0014705D01*
X0026879Y0014701D01*
X0026721Y0014701D01*
X0026563Y0014705D01*
X0026404Y0014713D01*
X0026247Y0014725D01*
X0026089Y0014741D01*
X0025932Y0014761D01*
X0025776Y0014785D01*
X0025620Y0014813D01*
X0025465Y0014844D01*
X0025310Y0014880D01*
X0025157Y0014919D01*
X0025005Y0014962D01*
X0024854Y0015009D01*
X0024704Y0015060D01*
X0024555Y0015115D01*
X0024408Y0015173D01*
X0024262Y0015235D01*
X0024118Y0015300D01*
X0023976Y0015370D01*
X0023835Y0015442D01*
X0023696Y0015519D01*
X0023560Y0015598D01*
X0023425Y0015682D01*
X0023292Y0015768D01*
X0023162Y0015858D01*
X0023034Y0015951D01*
X0022908Y0016047D01*
X0022785Y0016147D01*
X0022664Y0016249D01*
X0022546Y0016354D01*
X0022431Y0016463D01*
X0022318Y0016574D01*
X0022208Y0016688D01*
X0022101Y0016805D01*
X0021997Y0016924D01*
X0021896Y0017046D01*
X0021799Y0017171D01*
X0021704Y0017298D01*
X0021613Y0017427D01*
X0021524Y0017558D01*
X0021440Y0017692D01*
X0021358Y0017828D01*
X0021280Y0017965D01*
X0021206Y0018105D01*
X0021135Y0018247D01*
X0021067Y0018390D01*
X0021003Y0018535D01*
X0020943Y0018681D01*
X0020887Y0018829D01*
X0020834Y0018978D01*
X0020785Y0019129D01*
X0020740Y0019281D01*
X0020699Y0019434D01*
X0020661Y0019587D01*
X0020628Y0019742D01*
X0020598Y0019898D01*
X0020572Y0020054D01*
X0020551Y0020211D01*
X0020533Y0020368D01*
X0020519Y0020526D01*
X0020509Y0020684D01*
X0020503Y0020842D01*
X0020501Y0021000D01*
X0125501Y0211000D02*
X0125503Y0211158D01*
X0125509Y0211316D01*
X0125519Y0211474D01*
X0125533Y0211632D01*
X0125551Y0211789D01*
X0125572Y0211946D01*
X0125598Y0212102D01*
X0125628Y0212258D01*
X0125661Y0212413D01*
X0125699Y0212566D01*
X0125740Y0212719D01*
X0125785Y0212871D01*
X0125834Y0213022D01*
X0125887Y0213171D01*
X0125943Y0213319D01*
X0126003Y0213465D01*
X0126067Y0213610D01*
X0126135Y0213753D01*
X0126206Y0213895D01*
X0126280Y0214035D01*
X0126358Y0214172D01*
X0126440Y0214308D01*
X0126524Y0214442D01*
X0126613Y0214573D01*
X0126704Y0214702D01*
X0126799Y0214829D01*
X0126896Y0214954D01*
X0126997Y0215076D01*
X0127101Y0215195D01*
X0127208Y0215312D01*
X0127318Y0215426D01*
X0127431Y0215537D01*
X0127546Y0215646D01*
X0127664Y0215751D01*
X0127785Y0215853D01*
X0127908Y0215953D01*
X0128034Y0216049D01*
X0128162Y0216142D01*
X0128292Y0216232D01*
X0128425Y0216318D01*
X0128560Y0216402D01*
X0128696Y0216481D01*
X0128835Y0216558D01*
X0128976Y0216630D01*
X0129118Y0216700D01*
X0129262Y0216765D01*
X0129408Y0216827D01*
X0129555Y0216885D01*
X0129704Y0216940D01*
X0129854Y0216991D01*
X0130005Y0217038D01*
X0130157Y0217081D01*
X0130310Y0217120D01*
X0130465Y0217156D01*
X0130620Y0217187D01*
X0130776Y0217215D01*
X0130932Y0217239D01*
X0131089Y0217259D01*
X0131247Y0217275D01*
X0131404Y0217287D01*
X0131563Y0217295D01*
X0131721Y0217299D01*
X0131879Y0217299D01*
X0132037Y0217295D01*
X0132196Y0217287D01*
X0132353Y0217275D01*
X0132511Y0217259D01*
X0132668Y0217239D01*
X0132824Y0217215D01*
X0132980Y0217187D01*
X0133135Y0217156D01*
X0133290Y0217120D01*
X0133443Y0217081D01*
X0133595Y0217038D01*
X0133746Y0216991D01*
X0133896Y0216940D01*
X0134045Y0216885D01*
X0134192Y0216827D01*
X0134338Y0216765D01*
X0134482Y0216700D01*
X0134624Y0216630D01*
X0134765Y0216558D01*
X0134904Y0216481D01*
X0135040Y0216402D01*
X0135175Y0216318D01*
X0135308Y0216232D01*
X0135438Y0216142D01*
X0135566Y0216049D01*
X0135692Y0215953D01*
X0135815Y0215853D01*
X0135936Y0215751D01*
X0136054Y0215646D01*
X0136169Y0215537D01*
X0136282Y0215426D01*
X0136392Y0215312D01*
X0136499Y0215195D01*
X0136603Y0215076D01*
X0136704Y0214954D01*
X0136801Y0214829D01*
X0136896Y0214702D01*
X0136987Y0214573D01*
X0137076Y0214442D01*
X0137160Y0214308D01*
X0137242Y0214172D01*
X0137320Y0214035D01*
X0137394Y0213895D01*
X0137465Y0213753D01*
X0137533Y0213610D01*
X0137597Y0213465D01*
X0137657Y0213319D01*
X0137713Y0213171D01*
X0137766Y0213022D01*
X0137815Y0212871D01*
X0137860Y0212719D01*
X0137901Y0212566D01*
X0137939Y0212413D01*
X0137972Y0212258D01*
X0138002Y0212102D01*
X0138028Y0211946D01*
X0138049Y0211789D01*
X0138067Y0211632D01*
X0138081Y0211474D01*
X0138091Y0211316D01*
X0138097Y0211158D01*
X0138099Y0211000D01*
X0138097Y0210842D01*
X0138091Y0210684D01*
X0138081Y0210526D01*
X0138067Y0210368D01*
X0138049Y0210211D01*
X0138028Y0210054D01*
X0138002Y0209898D01*
X0137972Y0209742D01*
X0137939Y0209587D01*
X0137901Y0209434D01*
X0137860Y0209281D01*
X0137815Y0209129D01*
X0137766Y0208978D01*
X0137713Y0208829D01*
X0137657Y0208681D01*
X0137597Y0208535D01*
X0137533Y0208390D01*
X0137465Y0208247D01*
X0137394Y0208105D01*
X0137320Y0207965D01*
X0137242Y0207828D01*
X0137160Y0207692D01*
X0137076Y0207558D01*
X0136987Y0207427D01*
X0136896Y0207298D01*
X0136801Y0207171D01*
X0136704Y0207046D01*
X0136603Y0206924D01*
X0136499Y0206805D01*
X0136392Y0206688D01*
X0136282Y0206574D01*
X0136169Y0206463D01*
X0136054Y0206354D01*
X0135936Y0206249D01*
X0135815Y0206147D01*
X0135692Y0206047D01*
X0135566Y0205951D01*
X0135438Y0205858D01*
X0135308Y0205768D01*
X0135175Y0205682D01*
X0135040Y0205598D01*
X0134904Y0205519D01*
X0134765Y0205442D01*
X0134624Y0205370D01*
X0134482Y0205300D01*
X0134338Y0205235D01*
X0134192Y0205173D01*
X0134045Y0205115D01*
X0133896Y0205060D01*
X0133746Y0205009D01*
X0133595Y0204962D01*
X0133443Y0204919D01*
X0133290Y0204880D01*
X0133135Y0204844D01*
X0132980Y0204813D01*
X0132824Y0204785D01*
X0132668Y0204761D01*
X0132511Y0204741D01*
X0132353Y0204725D01*
X0132196Y0204713D01*
X0132037Y0204705D01*
X0131879Y0204701D01*
X0131721Y0204701D01*
X0131563Y0204705D01*
X0131404Y0204713D01*
X0131247Y0204725D01*
X0131089Y0204741D01*
X0130932Y0204761D01*
X0130776Y0204785D01*
X0130620Y0204813D01*
X0130465Y0204844D01*
X0130310Y0204880D01*
X0130157Y0204919D01*
X0130005Y0204962D01*
X0129854Y0205009D01*
X0129704Y0205060D01*
X0129555Y0205115D01*
X0129408Y0205173D01*
X0129262Y0205235D01*
X0129118Y0205300D01*
X0128976Y0205370D01*
X0128835Y0205442D01*
X0128696Y0205519D01*
X0128560Y0205598D01*
X0128425Y0205682D01*
X0128292Y0205768D01*
X0128162Y0205858D01*
X0128034Y0205951D01*
X0127908Y0206047D01*
X0127785Y0206147D01*
X0127664Y0206249D01*
X0127546Y0206354D01*
X0127431Y0206463D01*
X0127318Y0206574D01*
X0127208Y0206688D01*
X0127101Y0206805D01*
X0126997Y0206924D01*
X0126896Y0207046D01*
X0126799Y0207171D01*
X0126704Y0207298D01*
X0126613Y0207427D01*
X0126524Y0207558D01*
X0126440Y0207692D01*
X0126358Y0207828D01*
X0126280Y0207965D01*
X0126206Y0208105D01*
X0126135Y0208247D01*
X0126067Y0208390D01*
X0126003Y0208535D01*
X0125943Y0208681D01*
X0125887Y0208829D01*
X0125834Y0208978D01*
X0125785Y0209129D01*
X0125740Y0209281D01*
X0125699Y0209434D01*
X0125661Y0209587D01*
X0125628Y0209742D01*
X0125598Y0209898D01*
X0125572Y0210054D01*
X0125551Y0210211D01*
X0125533Y0210368D01*
X0125519Y0210526D01*
X0125509Y0210684D01*
X0125503Y0210842D01*
X0125501Y0211000D01*
D11*
X0125949Y0188303D02*
X0126550Y0187703D01*
X0124148Y0185301D01*
X0124748Y0184700D01*
X0125949Y0184700D01*
X0126550Y0185301D01*
X0126550Y0187703D01*
X0125949Y0188303D02*
X0124748Y0188303D01*
X0124148Y0187703D01*
X0124148Y0185301D01*
X0122866Y0184700D02*
X0120464Y0184700D01*
X0121665Y0184700D02*
X0121665Y0188303D01*
X0120464Y0187102D01*
X0127831Y0185901D02*
X0129632Y0187102D01*
X0127831Y0185901D02*
X0129632Y0184700D01*
X0127831Y0184700D02*
X0127831Y0188303D01*
X0145497Y0171627D02*
X0145497Y0169225D01*
X0145497Y0167343D02*
X0147298Y0165542D01*
X0147298Y0167944D01*
X0148499Y0169225D02*
X0146097Y0171627D01*
X0145497Y0171627D01*
X0148499Y0169225D02*
X0149100Y0169225D01*
X0149100Y0167343D02*
X0145497Y0167343D01*
X0145497Y0164260D02*
X0145497Y0161858D01*
X0147298Y0161858D01*
X0146698Y0163059D01*
X0146698Y0163660D01*
X0147298Y0164260D01*
X0148499Y0164260D01*
X0149100Y0163660D01*
X0149100Y0162459D01*
X0148499Y0161858D01*
X0148499Y0160577D02*
X0149100Y0159977D01*
X0149100Y0158776D01*
X0148499Y0158175D01*
X0146097Y0158175D01*
X0145497Y0158776D01*
X0145497Y0159977D01*
X0146097Y0160577D01*
X0146097Y0156894D02*
X0145497Y0156294D01*
X0145497Y0154492D01*
X0149100Y0154492D01*
X0149100Y0156294D01*
X0148499Y0156894D01*
X0147899Y0156894D01*
X0147298Y0156294D01*
X0147298Y0154492D01*
X0147298Y0156294D02*
X0146698Y0156894D01*
X0146097Y0156894D01*
X0139298Y0144269D02*
X0139298Y0141200D01*
X0139298Y0139665D02*
X0139298Y0136596D01*
X0136996Y0138898D01*
X0141600Y0138898D01*
X0139298Y0134269D02*
X0139298Y0131200D01*
X0138531Y0129665D02*
X0137763Y0129665D01*
X0136996Y0128898D01*
X0136996Y0127363D01*
X0137763Y0126596D01*
X0139298Y0128131D02*
X0139298Y0128898D01*
X0140065Y0129665D01*
X0140833Y0129665D01*
X0141600Y0128898D01*
X0141600Y0127363D01*
X0140833Y0126596D01*
X0139298Y0128898D02*
X0138531Y0129665D01*
X0137763Y0132735D02*
X0140833Y0132735D01*
X0141600Y0091967D02*
X0141600Y0088898D01*
X0138531Y0091967D01*
X0137763Y0091967D01*
X0136996Y0091200D01*
X0136996Y0089665D01*
X0137763Y0088898D01*
X0141600Y0061967D02*
X0141600Y0058898D01*
X0141600Y0060433D02*
X0136996Y0060433D01*
X0138531Y0058898D01*
X0138510Y0045804D02*
X0141579Y0041200D01*
X0141579Y0045804D01*
X0138510Y0045804D02*
X0138510Y0041200D01*
X0132371Y0045804D02*
X0129302Y0045804D01*
X0130837Y0045804D02*
X0130837Y0041200D01*
X0127767Y0041967D02*
X0127767Y0045804D01*
X0127767Y0041967D02*
X0127000Y0041200D01*
X0125465Y0041200D01*
X0124698Y0041967D01*
X0124698Y0045804D01*
X0123163Y0045037D02*
X0123163Y0041967D01*
X0122396Y0041200D01*
X0120861Y0041200D01*
X0120094Y0041967D01*
X0120094Y0045037D01*
X0120861Y0045804D01*
X0122396Y0045804D01*
X0123163Y0045037D01*
X0113956Y0041200D02*
X0110886Y0041200D01*
X0110886Y0045804D01*
X0088510Y0045804D02*
X0088510Y0041200D01*
X0085441Y0045804D01*
X0085441Y0041200D01*
X0079302Y0041200D02*
X0079302Y0045804D01*
X0076233Y0045804D02*
X0076233Y0041200D01*
X0074698Y0041200D02*
X0073163Y0041200D01*
X0073931Y0041200D02*
X0073931Y0045804D01*
X0074698Y0045804D02*
X0073163Y0045804D01*
X0076233Y0045804D02*
X0079302Y0041200D01*
X0067025Y0041200D02*
X0063956Y0041200D01*
X0063956Y0045804D01*
X0047702Y0074980D02*
X0043098Y0074980D01*
X0047702Y0078049D01*
X0043098Y0078049D01*
X0039583Y0085903D02*
X0040350Y0086670D01*
X0040350Y0088205D01*
X0039583Y0088972D01*
X0038815Y0088972D01*
X0038048Y0088205D01*
X0038048Y0086670D01*
X0037281Y0085903D01*
X0036513Y0085903D01*
X0035746Y0086670D01*
X0035746Y0088205D01*
X0036513Y0088972D01*
X0037281Y0090507D02*
X0037281Y0092042D01*
X0036513Y0091274D02*
X0039583Y0091274D01*
X0040350Y0092042D01*
X0039583Y0093576D02*
X0038048Y0093576D01*
X0037281Y0094344D01*
X0037281Y0095878D01*
X0038048Y0096646D01*
X0038815Y0096646D01*
X0038815Y0093576D01*
X0039583Y0093576D02*
X0040350Y0094344D01*
X0040350Y0095878D01*
X0040350Y0098180D02*
X0040350Y0100482D01*
X0039583Y0101250D01*
X0038048Y0101250D01*
X0037281Y0100482D01*
X0037281Y0098180D01*
X0041885Y0098180D01*
X0044781Y0098564D02*
X0045548Y0098564D01*
X0045548Y0099331D01*
X0044781Y0099331D01*
X0044781Y0098564D01*
X0045548Y0097029D02*
X0047850Y0097029D01*
X0047850Y0098564D02*
X0047083Y0098564D01*
X0047083Y0099331D01*
X0047850Y0099331D01*
X0047850Y0098564D01*
X0045548Y0097029D02*
X0044781Y0096262D01*
X0044781Y0093960D01*
X0047850Y0093960D01*
X0047850Y0092425D02*
X0047850Y0090891D01*
X0047850Y0091658D02*
X0043246Y0091658D01*
X0043246Y0090891D02*
X0043246Y0092425D01*
X0038048Y0102784D02*
X0038048Y0105854D01*
X0038048Y0107388D02*
X0037281Y0108155D01*
X0037281Y0110457D01*
X0035746Y0110457D02*
X0040350Y0110457D01*
X0040350Y0108155D01*
X0039583Y0107388D01*
X0038048Y0107388D01*
X0038048Y0111992D02*
X0039583Y0111992D01*
X0040350Y0112759D01*
X0040350Y0114294D01*
X0039583Y0115061D01*
X0038048Y0115061D01*
X0037281Y0114294D01*
X0037281Y0112759D01*
X0038048Y0111992D01*
X0037281Y0116596D02*
X0039583Y0116596D01*
X0040350Y0117363D01*
X0039583Y0118131D01*
X0040350Y0118898D01*
X0039583Y0119665D01*
X0037281Y0119665D01*
X0037281Y0121200D02*
X0037281Y0123502D01*
X0038048Y0124269D01*
X0040350Y0124269D01*
X0040350Y0121200D02*
X0037281Y0121200D01*
X0043246Y0124653D02*
X0044013Y0123886D01*
X0043246Y0124653D02*
X0043246Y0126188D01*
X0044013Y0126955D01*
X0044781Y0126955D01*
X0047850Y0123886D01*
X0047850Y0126955D01*
X0045548Y0128489D02*
X0045548Y0131559D01*
X0044013Y0133093D02*
X0043246Y0133861D01*
X0043246Y0135395D01*
X0044013Y0136163D01*
X0047083Y0133093D01*
X0047850Y0133861D01*
X0047850Y0135395D01*
X0047083Y0136163D01*
X0044013Y0136163D01*
X0043246Y0137697D02*
X0046315Y0137697D01*
X0047850Y0139232D01*
X0046315Y0140767D01*
X0043246Y0140767D01*
X0040350Y0140383D02*
X0039583Y0139616D01*
X0038048Y0139616D01*
X0037281Y0140383D01*
X0037281Y0142685D01*
X0037281Y0144220D02*
X0039583Y0144220D01*
X0040350Y0144987D01*
X0040350Y0147289D01*
X0037281Y0147289D01*
X0035746Y0148823D02*
X0035746Y0149591D01*
X0040350Y0149591D01*
X0040350Y0150358D02*
X0040350Y0148823D01*
X0042479Y0147672D02*
X0044013Y0149207D01*
X0043246Y0149974D01*
X0042479Y0147672D02*
X0043246Y0146905D01*
X0040350Y0142685D02*
X0040350Y0140383D01*
X0040350Y0142685D02*
X0035746Y0142685D01*
X0038048Y0138081D02*
X0037281Y0137314D01*
X0037281Y0135779D01*
X0038048Y0135012D01*
X0039583Y0135012D01*
X0040350Y0135779D01*
X0040350Y0137314D01*
X0039583Y0138081D01*
X0038048Y0138081D01*
X0038048Y0133477D02*
X0040350Y0133477D01*
X0040350Y0131942D02*
X0038048Y0131942D01*
X0037281Y0132710D01*
X0038048Y0133477D01*
X0038048Y0131942D02*
X0037281Y0131175D01*
X0037281Y0130408D01*
X0040350Y0130408D01*
X0043246Y0130791D02*
X0045548Y0128489D01*
X0047850Y0130791D02*
X0043246Y0130791D01*
X0044013Y0133093D02*
X0047083Y0133093D01*
X0050746Y0129257D02*
X0053815Y0129257D01*
X0055350Y0127722D01*
X0053815Y0126188D01*
X0050746Y0126188D01*
X0050746Y0124653D02*
X0050746Y0121584D01*
X0053048Y0121584D01*
X0052281Y0123118D01*
X0052281Y0123886D01*
X0053048Y0124653D01*
X0054583Y0124653D01*
X0055350Y0123886D01*
X0055350Y0122351D01*
X0054583Y0121584D01*
X0058246Y0124269D02*
X0058246Y0127338D01*
X0059013Y0127338D01*
X0062083Y0124269D01*
X0062850Y0124269D01*
X0062083Y0128873D02*
X0059013Y0128873D01*
X0058246Y0129640D01*
X0058246Y0131175D01*
X0059013Y0131942D01*
X0062083Y0128873D01*
X0062850Y0129640D01*
X0062850Y0131175D01*
X0062083Y0131942D01*
X0059013Y0131942D01*
X0059013Y0133477D02*
X0058246Y0134244D01*
X0058246Y0135779D01*
X0059013Y0136546D01*
X0062083Y0133477D01*
X0062850Y0134244D01*
X0062850Y0135779D01*
X0062083Y0136546D01*
X0059013Y0136546D01*
X0059781Y0138081D02*
X0059781Y0138848D01*
X0060548Y0139616D01*
X0059781Y0140383D01*
X0060548Y0141150D01*
X0062850Y0141150D01*
X0062850Y0139616D02*
X0060548Y0139616D01*
X0059781Y0138081D02*
X0062850Y0138081D01*
X0062850Y0142685D02*
X0059781Y0142685D01*
X0058246Y0144220D01*
X0059781Y0145754D01*
X0062850Y0145754D01*
X0060548Y0145754D02*
X0060548Y0142685D01*
X0053815Y0138465D02*
X0053815Y0135395D01*
X0052281Y0135395D02*
X0052281Y0138465D01*
X0059013Y0133477D02*
X0062083Y0133477D01*
X0062083Y0118131D02*
X0062850Y0118131D01*
X0062850Y0117363D01*
X0062083Y0117363D01*
X0062083Y0118131D01*
X0060548Y0118131D02*
X0060548Y0117363D01*
X0059781Y0117363D01*
X0059781Y0118131D01*
X0060548Y0118131D01*
X0059781Y0115829D02*
X0059781Y0115061D01*
X0061315Y0113527D01*
X0059781Y0113527D02*
X0062850Y0113527D01*
X0061315Y0111992D02*
X0061315Y0108923D01*
X0060548Y0108923D02*
X0059781Y0109690D01*
X0059781Y0111225D01*
X0060548Y0111992D01*
X0061315Y0111992D01*
X0062850Y0111225D02*
X0062850Y0109690D01*
X0062083Y0108923D01*
X0060548Y0108923D01*
X0059781Y0107388D02*
X0062083Y0107388D01*
X0062850Y0106621D01*
X0062083Y0105854D01*
X0062850Y0105086D01*
X0062083Y0104319D01*
X0059781Y0104319D01*
X0060548Y0102784D02*
X0059781Y0102017D01*
X0059781Y0100482D01*
X0060548Y0099715D01*
X0062083Y0099715D01*
X0062850Y0100482D01*
X0062850Y0102017D01*
X0062083Y0102784D01*
X0060548Y0102784D01*
X0060548Y0098180D02*
X0059013Y0098180D01*
X0058246Y0097413D01*
X0058246Y0095111D01*
X0062850Y0095111D01*
X0061315Y0095111D02*
X0061315Y0097413D01*
X0060548Y0098180D01*
X0055350Y0103168D02*
X0055350Y0104703D01*
X0054583Y0105470D01*
X0051513Y0105470D01*
X0050746Y0104703D01*
X0050746Y0103168D01*
X0051513Y0102401D01*
X0054583Y0102401D01*
X0055350Y0103168D01*
X0054583Y0107005D02*
X0055350Y0107772D01*
X0055350Y0110074D01*
X0052281Y0110074D01*
X0052281Y0111608D02*
X0052281Y0113143D01*
X0051513Y0112376D02*
X0054583Y0112376D01*
X0055350Y0113143D01*
X0055350Y0114678D02*
X0054583Y0114678D01*
X0054583Y0115445D01*
X0055350Y0115445D01*
X0055350Y0114678D01*
X0053048Y0114678D02*
X0052281Y0114678D01*
X0052281Y0115445D01*
X0053048Y0115445D01*
X0053048Y0114678D01*
X0047850Y0115445D02*
X0047083Y0114678D01*
X0044013Y0117747D01*
X0047083Y0117747D01*
X0047850Y0116980D01*
X0047850Y0115445D01*
X0047083Y0114678D02*
X0044013Y0114678D01*
X0043246Y0115445D01*
X0043246Y0116980D01*
X0044013Y0117747D01*
X0045548Y0119282D02*
X0045548Y0122351D01*
X0047850Y0113143D02*
X0047850Y0110074D01*
X0047850Y0111608D02*
X0043246Y0111608D01*
X0044781Y0110074D01*
X0047850Y0108539D02*
X0047850Y0105470D01*
X0047850Y0107004D02*
X0043246Y0107004D01*
X0044781Y0105470D01*
X0052281Y0107005D02*
X0054583Y0107005D01*
X0036600Y0072339D02*
X0031996Y0072339D01*
X0031996Y0069269D02*
X0036600Y0072339D01*
X0036600Y0069269D02*
X0031996Y0069269D01*
X0031996Y0067735D02*
X0031996Y0066200D01*
X0031996Y0066967D02*
X0036600Y0066967D01*
X0036600Y0066200D02*
X0036600Y0067735D01*
X0027702Y0074980D02*
X0027702Y0078049D01*
X0027702Y0074980D02*
X0023098Y0074980D01*
X0038048Y0151893D02*
X0037281Y0152660D01*
X0037281Y0154195D01*
X0038048Y0154962D01*
X0038815Y0154962D01*
X0038815Y0151893D01*
X0038048Y0151893D02*
X0039583Y0151893D01*
X0040350Y0152660D01*
X0040350Y0154195D01*
X0045400Y0160927D02*
X0045400Y0163996D01*
X0044302Y0186200D02*
X0046604Y0186200D01*
X0047371Y0186967D01*
X0047371Y0190037D01*
X0046604Y0190804D01*
X0044302Y0190804D01*
X0044302Y0186200D01*
X0042767Y0186200D02*
X0042767Y0190804D01*
X0039698Y0190804D02*
X0039698Y0186200D01*
X0038163Y0186967D02*
X0038163Y0188502D01*
X0036629Y0188502D01*
X0038163Y0190037D02*
X0037396Y0190804D01*
X0035861Y0190804D01*
X0035094Y0190037D01*
X0035094Y0186967D01*
X0035861Y0186200D01*
X0037396Y0186200D01*
X0038163Y0186967D01*
X0039698Y0190804D02*
X0042767Y0186200D01*
X0025069Y0186200D02*
X0025069Y0190804D01*
X0023535Y0187735D02*
X0025069Y0186200D01*
X0023535Y0187735D02*
X0022000Y0186200D01*
X0022000Y0190804D01*
X0020465Y0190037D02*
X0019698Y0190804D01*
X0018163Y0190804D01*
X0017396Y0190037D01*
X0017396Y0189269D01*
X0018163Y0188502D01*
X0019698Y0188502D01*
X0020465Y0187735D01*
X0020465Y0186967D01*
X0019698Y0186200D01*
X0018163Y0186200D01*
X0017396Y0186967D01*
X0061996Y0173477D02*
X0061996Y0170408D01*
X0061996Y0171942D02*
X0066600Y0171942D01*
X0065833Y0168873D02*
X0061996Y0168873D01*
X0061996Y0165804D02*
X0065833Y0165804D01*
X0066600Y0166571D01*
X0066600Y0168106D01*
X0065833Y0168873D01*
X0065833Y0164269D02*
X0062763Y0164269D01*
X0061996Y0163502D01*
X0061996Y0161967D01*
X0062763Y0161200D01*
X0065833Y0161200D01*
X0066600Y0161967D01*
X0066600Y0163502D01*
X0065833Y0164269D01*
X0068163Y0186200D02*
X0067396Y0186967D01*
X0068163Y0186200D02*
X0069698Y0186200D01*
X0070465Y0186967D01*
X0070465Y0188502D01*
X0069698Y0189269D01*
X0068931Y0189269D01*
X0067396Y0188502D01*
X0067396Y0190804D01*
X0070465Y0190804D01*
X0072000Y0190804D02*
X0072000Y0187735D01*
X0073535Y0186200D01*
X0075069Y0187735D01*
X0075069Y0190804D01*
X0085094Y0190037D02*
X0085094Y0186967D01*
X0085861Y0186200D01*
X0087396Y0186200D01*
X0088163Y0186967D01*
X0088163Y0188502D01*
X0086629Y0188502D01*
X0088163Y0190037D02*
X0087396Y0190804D01*
X0085861Y0190804D01*
X0085094Y0190037D01*
X0089698Y0190804D02*
X0089698Y0186200D01*
X0092767Y0186200D02*
X0089698Y0190804D01*
X0092767Y0190804D02*
X0092767Y0186200D01*
X0094302Y0186200D02*
X0096604Y0186200D01*
X0097371Y0186967D01*
X0097371Y0190037D01*
X0096604Y0190804D01*
X0094302Y0190804D01*
X0094302Y0186200D01*
X0085400Y0163996D02*
X0085400Y0160927D01*
X0083866Y0162461D02*
X0086935Y0162461D01*
X0102997Y0154666D02*
X0106600Y0154666D01*
X0105399Y0154666D02*
X0106600Y0156468D01*
X0105399Y0154666D02*
X0104198Y0156468D01*
X0103597Y0153385D02*
X0105999Y0150983D01*
X0106600Y0151584D01*
X0106600Y0152785D01*
X0105999Y0153385D01*
X0103597Y0153385D01*
X0102997Y0152785D01*
X0102997Y0151584D01*
X0103597Y0150983D01*
X0105999Y0150983D01*
X0106600Y0149702D02*
X0106600Y0147300D01*
X0106600Y0148501D02*
X0102997Y0148501D01*
X0104198Y0147300D01*
D12*
X0100300Y0144000D02*
X0100300Y0163000D01*
X0099800Y0163500D01*
X0099800Y0165000D01*
X0099802Y0165060D01*
X0099807Y0165121D01*
X0099816Y0165180D01*
X0099829Y0165239D01*
X0099845Y0165298D01*
X0099865Y0165355D01*
X0099888Y0165410D01*
X0099915Y0165465D01*
X0099944Y0165517D01*
X0099977Y0165568D01*
X0100013Y0165617D01*
X0100051Y0165663D01*
X0100093Y0165707D01*
X0100137Y0165749D01*
X0100183Y0165787D01*
X0100232Y0165823D01*
X0100283Y0165856D01*
X0100335Y0165885D01*
X0100390Y0165912D01*
X0100445Y0165935D01*
X0100502Y0165955D01*
X0100561Y0165971D01*
X0100620Y0165984D01*
X0100679Y0165993D01*
X0100740Y0165998D01*
X0100800Y0166000D01*
X0107800Y0166000D01*
X0107860Y0165998D01*
X0107921Y0165993D01*
X0107980Y0165984D01*
X0108039Y0165971D01*
X0108098Y0165955D01*
X0108155Y0165935D01*
X0108210Y0165912D01*
X0108265Y0165885D01*
X0108317Y0165856D01*
X0108368Y0165823D01*
X0108417Y0165787D01*
X0108463Y0165749D01*
X0108507Y0165707D01*
X0108549Y0165663D01*
X0108587Y0165617D01*
X0108623Y0165568D01*
X0108656Y0165517D01*
X0108685Y0165465D01*
X0108712Y0165410D01*
X0108735Y0165355D01*
X0108755Y0165298D01*
X0108771Y0165239D01*
X0108784Y0165180D01*
X0108793Y0165121D01*
X0108798Y0165060D01*
X0108800Y0165000D01*
X0108800Y0163500D01*
X0108300Y0163000D01*
X0108300Y0144000D01*
X0108800Y0143500D01*
X0108800Y0142000D01*
X0108798Y0141940D01*
X0108793Y0141879D01*
X0108784Y0141820D01*
X0108771Y0141761D01*
X0108755Y0141702D01*
X0108735Y0141645D01*
X0108712Y0141590D01*
X0108685Y0141535D01*
X0108656Y0141483D01*
X0108623Y0141432D01*
X0108587Y0141383D01*
X0108549Y0141337D01*
X0108507Y0141293D01*
X0108463Y0141251D01*
X0108417Y0141213D01*
X0108368Y0141177D01*
X0108317Y0141144D01*
X0108265Y0141115D01*
X0108210Y0141088D01*
X0108155Y0141065D01*
X0108098Y0141045D01*
X0108039Y0141029D01*
X0107980Y0141016D01*
X0107921Y0141007D01*
X0107860Y0141002D01*
X0107800Y0141000D01*
X0100800Y0141000D01*
X0100740Y0141002D01*
X0100679Y0141007D01*
X0100620Y0141016D01*
X0100561Y0141029D01*
X0100502Y0141045D01*
X0100445Y0141065D01*
X0100390Y0141088D01*
X0100335Y0141115D01*
X0100283Y0141144D01*
X0100232Y0141177D01*
X0100183Y0141213D01*
X0100137Y0141251D01*
X0100093Y0141293D01*
X0100051Y0141337D01*
X0100013Y0141383D01*
X0099977Y0141432D01*
X0099944Y0141483D01*
X0099915Y0141535D01*
X0099888Y0141590D01*
X0099865Y0141645D01*
X0099845Y0141702D01*
X0099829Y0141761D01*
X0099816Y0141820D01*
X0099807Y0141879D01*
X0099802Y0141940D01*
X0099800Y0142000D01*
X0099800Y0143500D01*
X0100300Y0144000D01*
X0112300Y0143500D02*
X0112300Y0142000D01*
X0112302Y0141940D01*
X0112307Y0141879D01*
X0112316Y0141820D01*
X0112329Y0141761D01*
X0112345Y0141702D01*
X0112365Y0141645D01*
X0112388Y0141590D01*
X0112415Y0141535D01*
X0112444Y0141483D01*
X0112477Y0141432D01*
X0112513Y0141383D01*
X0112551Y0141337D01*
X0112593Y0141293D01*
X0112637Y0141251D01*
X0112683Y0141213D01*
X0112732Y0141177D01*
X0112783Y0141144D01*
X0112835Y0141115D01*
X0112890Y0141088D01*
X0112945Y0141065D01*
X0113002Y0141045D01*
X0113061Y0141029D01*
X0113120Y0141016D01*
X0113179Y0141007D01*
X0113240Y0141002D01*
X0113300Y0141000D01*
X0120300Y0141000D01*
X0120360Y0141002D01*
X0120421Y0141007D01*
X0120480Y0141016D01*
X0120539Y0141029D01*
X0120598Y0141045D01*
X0120655Y0141065D01*
X0120710Y0141088D01*
X0120765Y0141115D01*
X0120817Y0141144D01*
X0120868Y0141177D01*
X0120917Y0141213D01*
X0120963Y0141251D01*
X0121007Y0141293D01*
X0121049Y0141337D01*
X0121087Y0141383D01*
X0121123Y0141432D01*
X0121156Y0141483D01*
X0121185Y0141535D01*
X0121212Y0141590D01*
X0121235Y0141645D01*
X0121255Y0141702D01*
X0121271Y0141761D01*
X0121284Y0141820D01*
X0121293Y0141879D01*
X0121298Y0141940D01*
X0121300Y0142000D01*
X0121300Y0143500D01*
X0120800Y0144000D01*
X0120800Y0163000D01*
X0121300Y0163500D01*
X0121300Y0165000D01*
X0121298Y0165060D01*
X0121293Y0165121D01*
X0121284Y0165180D01*
X0121271Y0165239D01*
X0121255Y0165298D01*
X0121235Y0165355D01*
X0121212Y0165410D01*
X0121185Y0165465D01*
X0121156Y0165517D01*
X0121123Y0165568D01*
X0121087Y0165617D01*
X0121049Y0165663D01*
X0121007Y0165707D01*
X0120963Y0165749D01*
X0120917Y0165787D01*
X0120868Y0165823D01*
X0120817Y0165856D01*
X0120765Y0165885D01*
X0120710Y0165912D01*
X0120655Y0165935D01*
X0120598Y0165955D01*
X0120539Y0165971D01*
X0120480Y0165984D01*
X0120421Y0165993D01*
X0120360Y0165998D01*
X0120300Y0166000D01*
X0113300Y0166000D01*
X0113240Y0165998D01*
X0113179Y0165993D01*
X0113120Y0165984D01*
X0113061Y0165971D01*
X0113002Y0165955D01*
X0112945Y0165935D01*
X0112890Y0165912D01*
X0112835Y0165885D01*
X0112783Y0165856D01*
X0112732Y0165823D01*
X0112683Y0165787D01*
X0112637Y0165749D01*
X0112593Y0165707D01*
X0112551Y0165663D01*
X0112513Y0165617D01*
X0112477Y0165568D01*
X0112444Y0165517D01*
X0112415Y0165465D01*
X0112388Y0165410D01*
X0112365Y0165355D01*
X0112345Y0165298D01*
X0112329Y0165239D01*
X0112316Y0165180D01*
X0112307Y0165121D01*
X0112302Y0165060D01*
X0112300Y0165000D01*
X0112300Y0163500D01*
X0112800Y0163000D01*
X0112800Y0144000D01*
X0112300Y0143500D01*
X0105814Y0114817D02*
X0105908Y0114698D01*
X0106006Y0114582D01*
X0106106Y0114468D01*
X0106210Y0114357D01*
X0106316Y0114249D01*
X0106424Y0114143D01*
X0106536Y0114041D01*
X0106650Y0113941D01*
X0106766Y0113843D01*
X0106885Y0113749D01*
X0107006Y0113658D01*
X0107130Y0113570D01*
X0107256Y0113485D01*
X0107383Y0113404D01*
X0107513Y0113325D01*
X0107645Y0113250D01*
X0107778Y0113179D01*
X0107914Y0113110D01*
X0108051Y0113045D01*
X0108189Y0112984D01*
X0108330Y0112926D01*
X0108471Y0112872D01*
X0108614Y0112821D01*
X0108758Y0112774D01*
X0108903Y0112730D01*
X0109050Y0112691D01*
X0109197Y0112655D01*
X0109345Y0112622D01*
X0109494Y0112594D01*
X0109644Y0112569D01*
X0109794Y0112548D01*
X0109944Y0112531D01*
X0110096Y0112517D01*
X0110247Y0112508D01*
X0110398Y0112502D01*
X0110550Y0112500D01*
X0105750Y0122100D02*
X0105842Y0122219D01*
X0105936Y0122336D01*
X0106034Y0122450D01*
X0106134Y0122562D01*
X0106238Y0122672D01*
X0106343Y0122778D01*
X0106452Y0122883D01*
X0106563Y0122984D01*
X0106677Y0123082D01*
X0106793Y0123178D01*
X0106911Y0123271D01*
X0107032Y0123360D01*
X0107155Y0123447D01*
X0107280Y0123530D01*
X0107407Y0123611D01*
X0107536Y0123688D01*
X0107667Y0123762D01*
X0107800Y0123833D01*
X0107934Y0123900D01*
X0108070Y0123964D01*
X0108208Y0124024D01*
X0108347Y0124081D01*
X0108488Y0124134D01*
X0108630Y0124184D01*
X0108773Y0124231D01*
X0108917Y0124273D01*
X0109062Y0124313D01*
X0109208Y0124348D01*
X0109355Y0124380D01*
X0109503Y0124408D01*
X0109651Y0124432D01*
X0109800Y0124453D01*
X0109950Y0124470D01*
X0110099Y0124483D01*
X0110249Y0124492D01*
X0110400Y0124498D01*
X0110550Y0124500D01*
X0115286Y0114817D02*
X0115192Y0114698D01*
X0115094Y0114582D01*
X0114994Y0114468D01*
X0114890Y0114357D01*
X0114784Y0114249D01*
X0114676Y0114143D01*
X0114564Y0114041D01*
X0114450Y0113941D01*
X0114334Y0113843D01*
X0114215Y0113749D01*
X0114094Y0113658D01*
X0113970Y0113570D01*
X0113844Y0113485D01*
X0113717Y0113404D01*
X0113587Y0113325D01*
X0113455Y0113250D01*
X0113322Y0113179D01*
X0113186Y0113110D01*
X0113049Y0113045D01*
X0112911Y0112984D01*
X0112770Y0112926D01*
X0112629Y0112872D01*
X0112486Y0112821D01*
X0112342Y0112774D01*
X0112197Y0112730D01*
X0112050Y0112691D01*
X0111903Y0112655D01*
X0111755Y0112622D01*
X0111606Y0112594D01*
X0111456Y0112569D01*
X0111306Y0112548D01*
X0111156Y0112531D01*
X0111004Y0112517D01*
X0110853Y0112508D01*
X0110702Y0112502D01*
X0110550Y0112500D01*
X0115432Y0121987D02*
X0115341Y0122112D01*
X0115247Y0122234D01*
X0115149Y0122353D01*
X0115049Y0122470D01*
X0114945Y0122584D01*
X0114839Y0122696D01*
X0114730Y0122804D01*
X0114618Y0122910D01*
X0114503Y0123013D01*
X0114386Y0123113D01*
X0114266Y0123211D01*
X0114144Y0123304D01*
X0114020Y0123395D01*
X0113893Y0123483D01*
X0113764Y0123567D01*
X0113632Y0123648D01*
X0113499Y0123725D01*
X0113364Y0123799D01*
X0113227Y0123870D01*
X0113088Y0123937D01*
X0112948Y0124000D01*
X0112805Y0124060D01*
X0112662Y0124116D01*
X0112517Y0124168D01*
X0112371Y0124217D01*
X0112223Y0124262D01*
X0112075Y0124303D01*
X0111925Y0124340D01*
X0111775Y0124374D01*
X0111623Y0124403D01*
X0111471Y0124429D01*
X0111319Y0124451D01*
X0111166Y0124468D01*
X0111012Y0124482D01*
X0110858Y0124492D01*
X0110704Y0124498D01*
X0110550Y0124500D01*
X0112800Y0181500D02*
X0114300Y0181500D01*
X0114800Y0182000D01*
X0133800Y0182000D01*
X0134300Y0181500D01*
X0135800Y0181500D01*
X0135860Y0181502D01*
X0135921Y0181507D01*
X0135980Y0181516D01*
X0136039Y0181529D01*
X0136098Y0181545D01*
X0136155Y0181565D01*
X0136210Y0181588D01*
X0136265Y0181615D01*
X0136317Y0181644D01*
X0136368Y0181677D01*
X0136417Y0181713D01*
X0136463Y0181751D01*
X0136507Y0181793D01*
X0136549Y0181837D01*
X0136587Y0181883D01*
X0136623Y0181932D01*
X0136656Y0181983D01*
X0136685Y0182035D01*
X0136712Y0182090D01*
X0136735Y0182145D01*
X0136755Y0182202D01*
X0136771Y0182261D01*
X0136784Y0182320D01*
X0136793Y0182379D01*
X0136798Y0182440D01*
X0136800Y0182500D01*
X0136800Y0189500D01*
X0136798Y0189560D01*
X0136793Y0189621D01*
X0136784Y0189680D01*
X0136771Y0189739D01*
X0136755Y0189798D01*
X0136735Y0189855D01*
X0136712Y0189910D01*
X0136685Y0189965D01*
X0136656Y0190017D01*
X0136623Y0190068D01*
X0136587Y0190117D01*
X0136549Y0190163D01*
X0136507Y0190207D01*
X0136463Y0190249D01*
X0136417Y0190287D01*
X0136368Y0190323D01*
X0136317Y0190356D01*
X0136265Y0190385D01*
X0136210Y0190412D01*
X0136155Y0190435D01*
X0136098Y0190455D01*
X0136039Y0190471D01*
X0135980Y0190484D01*
X0135921Y0190493D01*
X0135860Y0190498D01*
X0135800Y0190500D01*
X0134300Y0190500D01*
X0133800Y0190000D01*
X0114800Y0190000D01*
X0114300Y0190500D01*
X0112800Y0190500D01*
X0112740Y0190498D01*
X0112679Y0190493D01*
X0112620Y0190484D01*
X0112561Y0190471D01*
X0112502Y0190455D01*
X0112445Y0190435D01*
X0112390Y0190412D01*
X0112335Y0190385D01*
X0112283Y0190356D01*
X0112232Y0190323D01*
X0112183Y0190287D01*
X0112137Y0190249D01*
X0112093Y0190207D01*
X0112051Y0190163D01*
X0112013Y0190117D01*
X0111977Y0190068D01*
X0111944Y0190017D01*
X0111915Y0189965D01*
X0111888Y0189910D01*
X0111865Y0189855D01*
X0111845Y0189798D01*
X0111829Y0189739D01*
X0111816Y0189680D01*
X0111807Y0189621D01*
X0111802Y0189560D01*
X0111800Y0189500D01*
X0111800Y0182500D01*
X0111802Y0182440D01*
X0111807Y0182379D01*
X0111816Y0182320D01*
X0111829Y0182261D01*
X0111845Y0182202D01*
X0111865Y0182145D01*
X0111888Y0182090D01*
X0111915Y0182035D01*
X0111944Y0181983D01*
X0111977Y0181932D01*
X0112013Y0181883D01*
X0112051Y0181837D01*
X0112093Y0181793D01*
X0112137Y0181751D01*
X0112183Y0181713D01*
X0112232Y0181677D01*
X0112283Y0181644D01*
X0112335Y0181615D01*
X0112390Y0181588D01*
X0112445Y0181565D01*
X0112502Y0181545D01*
X0112561Y0181529D01*
X0112620Y0181516D01*
X0112679Y0181507D01*
X0112740Y0181502D01*
X0112800Y0181500D01*
X0101800Y0193500D02*
X0061800Y0193500D01*
X0061800Y0194500D01*
X0061800Y0220500D01*
X0068300Y0220500D01*
X0061800Y0220500D02*
X0061800Y0230000D01*
X0101800Y0230000D01*
X0101800Y0220500D01*
X0095300Y0220500D01*
X0101800Y0220500D02*
X0101800Y0194500D01*
X0101800Y0193500D01*
X0101800Y0194500D02*
X0061800Y0194500D01*
X0069800Y0199800D02*
X0069802Y0199889D01*
X0069808Y0199978D01*
X0069818Y0200067D01*
X0069832Y0200155D01*
X0069849Y0200242D01*
X0069871Y0200328D01*
X0069897Y0200414D01*
X0069926Y0200498D01*
X0069959Y0200581D01*
X0069995Y0200662D01*
X0070036Y0200742D01*
X0070079Y0200819D01*
X0070126Y0200895D01*
X0070177Y0200968D01*
X0070230Y0201039D01*
X0070287Y0201108D01*
X0070347Y0201174D01*
X0070410Y0201238D01*
X0070475Y0201298D01*
X0070543Y0201356D01*
X0070614Y0201410D01*
X0070687Y0201461D01*
X0070762Y0201509D01*
X0070839Y0201554D01*
X0070918Y0201595D01*
X0070999Y0201632D01*
X0071081Y0201666D01*
X0071165Y0201697D01*
X0071250Y0201723D01*
X0071336Y0201746D01*
X0071423Y0201764D01*
X0071511Y0201779D01*
X0071600Y0201790D01*
X0071689Y0201797D01*
X0071778Y0201800D01*
X0071867Y0201799D01*
X0071956Y0201794D01*
X0072044Y0201785D01*
X0072133Y0201772D01*
X0072220Y0201755D01*
X0072307Y0201735D01*
X0072393Y0201710D01*
X0072477Y0201682D01*
X0072560Y0201650D01*
X0072642Y0201614D01*
X0072722Y0201575D01*
X0072800Y0201532D01*
X0072876Y0201486D01*
X0072950Y0201436D01*
X0073022Y0201383D01*
X0073091Y0201327D01*
X0073158Y0201268D01*
X0073222Y0201206D01*
X0073283Y0201142D01*
X0073342Y0201074D01*
X0073397Y0201004D01*
X0073449Y0200932D01*
X0073498Y0200857D01*
X0073543Y0200781D01*
X0073585Y0200702D01*
X0073623Y0200622D01*
X0073658Y0200540D01*
X0073689Y0200456D01*
X0073717Y0200371D01*
X0073740Y0200285D01*
X0073760Y0200198D01*
X0073776Y0200111D01*
X0073788Y0200022D01*
X0073796Y0199934D01*
X0073800Y0199845D01*
X0073800Y0199755D01*
X0073796Y0199666D01*
X0073788Y0199578D01*
X0073776Y0199489D01*
X0073760Y0199402D01*
X0073740Y0199315D01*
X0073717Y0199229D01*
X0073689Y0199144D01*
X0073658Y0199060D01*
X0073623Y0198978D01*
X0073585Y0198898D01*
X0073543Y0198819D01*
X0073498Y0198743D01*
X0073449Y0198668D01*
X0073397Y0198596D01*
X0073342Y0198526D01*
X0073283Y0198458D01*
X0073222Y0198394D01*
X0073158Y0198332D01*
X0073091Y0198273D01*
X0073022Y0198217D01*
X0072950Y0198164D01*
X0072876Y0198114D01*
X0072800Y0198068D01*
X0072722Y0198025D01*
X0072642Y0197986D01*
X0072560Y0197950D01*
X0072477Y0197918D01*
X0072393Y0197890D01*
X0072307Y0197865D01*
X0072220Y0197845D01*
X0072133Y0197828D01*
X0072044Y0197815D01*
X0071956Y0197806D01*
X0071867Y0197801D01*
X0071778Y0197800D01*
X0071689Y0197803D01*
X0071600Y0197810D01*
X0071511Y0197821D01*
X0071423Y0197836D01*
X0071336Y0197854D01*
X0071250Y0197877D01*
X0071165Y0197903D01*
X0071081Y0197934D01*
X0070999Y0197968D01*
X0070918Y0198005D01*
X0070839Y0198046D01*
X0070762Y0198091D01*
X0070687Y0198139D01*
X0070614Y0198190D01*
X0070543Y0198244D01*
X0070475Y0198302D01*
X0070410Y0198362D01*
X0070347Y0198426D01*
X0070287Y0198492D01*
X0070230Y0198561D01*
X0070177Y0198632D01*
X0070126Y0198705D01*
X0070079Y0198781D01*
X0070036Y0198858D01*
X0069995Y0198938D01*
X0069959Y0199019D01*
X0069926Y0199102D01*
X0069897Y0199186D01*
X0069871Y0199272D01*
X0069849Y0199358D01*
X0069832Y0199445D01*
X0069818Y0199533D01*
X0069808Y0199622D01*
X0069802Y0199711D01*
X0069800Y0199800D01*
X0075300Y0220500D02*
X0088300Y0220500D01*
X0089800Y0199800D02*
X0089802Y0199889D01*
X0089808Y0199978D01*
X0089818Y0200067D01*
X0089832Y0200155D01*
X0089849Y0200242D01*
X0089871Y0200328D01*
X0089897Y0200414D01*
X0089926Y0200498D01*
X0089959Y0200581D01*
X0089995Y0200662D01*
X0090036Y0200742D01*
X0090079Y0200819D01*
X0090126Y0200895D01*
X0090177Y0200968D01*
X0090230Y0201039D01*
X0090287Y0201108D01*
X0090347Y0201174D01*
X0090410Y0201238D01*
X0090475Y0201298D01*
X0090543Y0201356D01*
X0090614Y0201410D01*
X0090687Y0201461D01*
X0090762Y0201509D01*
X0090839Y0201554D01*
X0090918Y0201595D01*
X0090999Y0201632D01*
X0091081Y0201666D01*
X0091165Y0201697D01*
X0091250Y0201723D01*
X0091336Y0201746D01*
X0091423Y0201764D01*
X0091511Y0201779D01*
X0091600Y0201790D01*
X0091689Y0201797D01*
X0091778Y0201800D01*
X0091867Y0201799D01*
X0091956Y0201794D01*
X0092044Y0201785D01*
X0092133Y0201772D01*
X0092220Y0201755D01*
X0092307Y0201735D01*
X0092393Y0201710D01*
X0092477Y0201682D01*
X0092560Y0201650D01*
X0092642Y0201614D01*
X0092722Y0201575D01*
X0092800Y0201532D01*
X0092876Y0201486D01*
X0092950Y0201436D01*
X0093022Y0201383D01*
X0093091Y0201327D01*
X0093158Y0201268D01*
X0093222Y0201206D01*
X0093283Y0201142D01*
X0093342Y0201074D01*
X0093397Y0201004D01*
X0093449Y0200932D01*
X0093498Y0200857D01*
X0093543Y0200781D01*
X0093585Y0200702D01*
X0093623Y0200622D01*
X0093658Y0200540D01*
X0093689Y0200456D01*
X0093717Y0200371D01*
X0093740Y0200285D01*
X0093760Y0200198D01*
X0093776Y0200111D01*
X0093788Y0200022D01*
X0093796Y0199934D01*
X0093800Y0199845D01*
X0093800Y0199755D01*
X0093796Y0199666D01*
X0093788Y0199578D01*
X0093776Y0199489D01*
X0093760Y0199402D01*
X0093740Y0199315D01*
X0093717Y0199229D01*
X0093689Y0199144D01*
X0093658Y0199060D01*
X0093623Y0198978D01*
X0093585Y0198898D01*
X0093543Y0198819D01*
X0093498Y0198743D01*
X0093449Y0198668D01*
X0093397Y0198596D01*
X0093342Y0198526D01*
X0093283Y0198458D01*
X0093222Y0198394D01*
X0093158Y0198332D01*
X0093091Y0198273D01*
X0093022Y0198217D01*
X0092950Y0198164D01*
X0092876Y0198114D01*
X0092800Y0198068D01*
X0092722Y0198025D01*
X0092642Y0197986D01*
X0092560Y0197950D01*
X0092477Y0197918D01*
X0092393Y0197890D01*
X0092307Y0197865D01*
X0092220Y0197845D01*
X0092133Y0197828D01*
X0092044Y0197815D01*
X0091956Y0197806D01*
X0091867Y0197801D01*
X0091778Y0197800D01*
X0091689Y0197803D01*
X0091600Y0197810D01*
X0091511Y0197821D01*
X0091423Y0197836D01*
X0091336Y0197854D01*
X0091250Y0197877D01*
X0091165Y0197903D01*
X0091081Y0197934D01*
X0090999Y0197968D01*
X0090918Y0198005D01*
X0090839Y0198046D01*
X0090762Y0198091D01*
X0090687Y0198139D01*
X0090614Y0198190D01*
X0090543Y0198244D01*
X0090475Y0198302D01*
X0090410Y0198362D01*
X0090347Y0198426D01*
X0090287Y0198492D01*
X0090230Y0198561D01*
X0090177Y0198632D01*
X0090126Y0198705D01*
X0090079Y0198781D01*
X0090036Y0198858D01*
X0089995Y0198938D01*
X0089959Y0199019D01*
X0089926Y0199102D01*
X0089897Y0199186D01*
X0089871Y0199272D01*
X0089849Y0199358D01*
X0089832Y0199445D01*
X0089818Y0199533D01*
X0089808Y0199622D01*
X0089802Y0199711D01*
X0089800Y0199800D01*
X0051800Y0194500D02*
X0051800Y0193500D01*
X0011800Y0193500D01*
X0011800Y0194500D01*
X0011800Y0220500D01*
X0018300Y0220500D01*
X0011800Y0220500D02*
X0011800Y0230000D01*
X0051800Y0230000D01*
X0051800Y0220500D01*
X0045300Y0220500D01*
X0051800Y0220500D02*
X0051800Y0194500D01*
X0011800Y0194500D01*
X0019800Y0199800D02*
X0019802Y0199889D01*
X0019808Y0199978D01*
X0019818Y0200067D01*
X0019832Y0200155D01*
X0019849Y0200242D01*
X0019871Y0200328D01*
X0019897Y0200414D01*
X0019926Y0200498D01*
X0019959Y0200581D01*
X0019995Y0200662D01*
X0020036Y0200742D01*
X0020079Y0200819D01*
X0020126Y0200895D01*
X0020177Y0200968D01*
X0020230Y0201039D01*
X0020287Y0201108D01*
X0020347Y0201174D01*
X0020410Y0201238D01*
X0020475Y0201298D01*
X0020543Y0201356D01*
X0020614Y0201410D01*
X0020687Y0201461D01*
X0020762Y0201509D01*
X0020839Y0201554D01*
X0020918Y0201595D01*
X0020999Y0201632D01*
X0021081Y0201666D01*
X0021165Y0201697D01*
X0021250Y0201723D01*
X0021336Y0201746D01*
X0021423Y0201764D01*
X0021511Y0201779D01*
X0021600Y0201790D01*
X0021689Y0201797D01*
X0021778Y0201800D01*
X0021867Y0201799D01*
X0021956Y0201794D01*
X0022044Y0201785D01*
X0022133Y0201772D01*
X0022220Y0201755D01*
X0022307Y0201735D01*
X0022393Y0201710D01*
X0022477Y0201682D01*
X0022560Y0201650D01*
X0022642Y0201614D01*
X0022722Y0201575D01*
X0022800Y0201532D01*
X0022876Y0201486D01*
X0022950Y0201436D01*
X0023022Y0201383D01*
X0023091Y0201327D01*
X0023158Y0201268D01*
X0023222Y0201206D01*
X0023283Y0201142D01*
X0023342Y0201074D01*
X0023397Y0201004D01*
X0023449Y0200932D01*
X0023498Y0200857D01*
X0023543Y0200781D01*
X0023585Y0200702D01*
X0023623Y0200622D01*
X0023658Y0200540D01*
X0023689Y0200456D01*
X0023717Y0200371D01*
X0023740Y0200285D01*
X0023760Y0200198D01*
X0023776Y0200111D01*
X0023788Y0200022D01*
X0023796Y0199934D01*
X0023800Y0199845D01*
X0023800Y0199755D01*
X0023796Y0199666D01*
X0023788Y0199578D01*
X0023776Y0199489D01*
X0023760Y0199402D01*
X0023740Y0199315D01*
X0023717Y0199229D01*
X0023689Y0199144D01*
X0023658Y0199060D01*
X0023623Y0198978D01*
X0023585Y0198898D01*
X0023543Y0198819D01*
X0023498Y0198743D01*
X0023449Y0198668D01*
X0023397Y0198596D01*
X0023342Y0198526D01*
X0023283Y0198458D01*
X0023222Y0198394D01*
X0023158Y0198332D01*
X0023091Y0198273D01*
X0023022Y0198217D01*
X0022950Y0198164D01*
X0022876Y0198114D01*
X0022800Y0198068D01*
X0022722Y0198025D01*
X0022642Y0197986D01*
X0022560Y0197950D01*
X0022477Y0197918D01*
X0022393Y0197890D01*
X0022307Y0197865D01*
X0022220Y0197845D01*
X0022133Y0197828D01*
X0022044Y0197815D01*
X0021956Y0197806D01*
X0021867Y0197801D01*
X0021778Y0197800D01*
X0021689Y0197803D01*
X0021600Y0197810D01*
X0021511Y0197821D01*
X0021423Y0197836D01*
X0021336Y0197854D01*
X0021250Y0197877D01*
X0021165Y0197903D01*
X0021081Y0197934D01*
X0020999Y0197968D01*
X0020918Y0198005D01*
X0020839Y0198046D01*
X0020762Y0198091D01*
X0020687Y0198139D01*
X0020614Y0198190D01*
X0020543Y0198244D01*
X0020475Y0198302D01*
X0020410Y0198362D01*
X0020347Y0198426D01*
X0020287Y0198492D01*
X0020230Y0198561D01*
X0020177Y0198632D01*
X0020126Y0198705D01*
X0020079Y0198781D01*
X0020036Y0198858D01*
X0019995Y0198938D01*
X0019959Y0199019D01*
X0019926Y0199102D01*
X0019897Y0199186D01*
X0019871Y0199272D01*
X0019849Y0199358D01*
X0019832Y0199445D01*
X0019818Y0199533D01*
X0019808Y0199622D01*
X0019802Y0199711D01*
X0019800Y0199800D01*
X0025300Y0220500D02*
X0038300Y0220500D01*
X0039800Y0199800D02*
X0039802Y0199889D01*
X0039808Y0199978D01*
X0039818Y0200067D01*
X0039832Y0200155D01*
X0039849Y0200242D01*
X0039871Y0200328D01*
X0039897Y0200414D01*
X0039926Y0200498D01*
X0039959Y0200581D01*
X0039995Y0200662D01*
X0040036Y0200742D01*
X0040079Y0200819D01*
X0040126Y0200895D01*
X0040177Y0200968D01*
X0040230Y0201039D01*
X0040287Y0201108D01*
X0040347Y0201174D01*
X0040410Y0201238D01*
X0040475Y0201298D01*
X0040543Y0201356D01*
X0040614Y0201410D01*
X0040687Y0201461D01*
X0040762Y0201509D01*
X0040839Y0201554D01*
X0040918Y0201595D01*
X0040999Y0201632D01*
X0041081Y0201666D01*
X0041165Y0201697D01*
X0041250Y0201723D01*
X0041336Y0201746D01*
X0041423Y0201764D01*
X0041511Y0201779D01*
X0041600Y0201790D01*
X0041689Y0201797D01*
X0041778Y0201800D01*
X0041867Y0201799D01*
X0041956Y0201794D01*
X0042044Y0201785D01*
X0042133Y0201772D01*
X0042220Y0201755D01*
X0042307Y0201735D01*
X0042393Y0201710D01*
X0042477Y0201682D01*
X0042560Y0201650D01*
X0042642Y0201614D01*
X0042722Y0201575D01*
X0042800Y0201532D01*
X0042876Y0201486D01*
X0042950Y0201436D01*
X0043022Y0201383D01*
X0043091Y0201327D01*
X0043158Y0201268D01*
X0043222Y0201206D01*
X0043283Y0201142D01*
X0043342Y0201074D01*
X0043397Y0201004D01*
X0043449Y0200932D01*
X0043498Y0200857D01*
X0043543Y0200781D01*
X0043585Y0200702D01*
X0043623Y0200622D01*
X0043658Y0200540D01*
X0043689Y0200456D01*
X0043717Y0200371D01*
X0043740Y0200285D01*
X0043760Y0200198D01*
X0043776Y0200111D01*
X0043788Y0200022D01*
X0043796Y0199934D01*
X0043800Y0199845D01*
X0043800Y0199755D01*
X0043796Y0199666D01*
X0043788Y0199578D01*
X0043776Y0199489D01*
X0043760Y0199402D01*
X0043740Y0199315D01*
X0043717Y0199229D01*
X0043689Y0199144D01*
X0043658Y0199060D01*
X0043623Y0198978D01*
X0043585Y0198898D01*
X0043543Y0198819D01*
X0043498Y0198743D01*
X0043449Y0198668D01*
X0043397Y0198596D01*
X0043342Y0198526D01*
X0043283Y0198458D01*
X0043222Y0198394D01*
X0043158Y0198332D01*
X0043091Y0198273D01*
X0043022Y0198217D01*
X0042950Y0198164D01*
X0042876Y0198114D01*
X0042800Y0198068D01*
X0042722Y0198025D01*
X0042642Y0197986D01*
X0042560Y0197950D01*
X0042477Y0197918D01*
X0042393Y0197890D01*
X0042307Y0197865D01*
X0042220Y0197845D01*
X0042133Y0197828D01*
X0042044Y0197815D01*
X0041956Y0197806D01*
X0041867Y0197801D01*
X0041778Y0197800D01*
X0041689Y0197803D01*
X0041600Y0197810D01*
X0041511Y0197821D01*
X0041423Y0197836D01*
X0041336Y0197854D01*
X0041250Y0197877D01*
X0041165Y0197903D01*
X0041081Y0197934D01*
X0040999Y0197968D01*
X0040918Y0198005D01*
X0040839Y0198046D01*
X0040762Y0198091D01*
X0040687Y0198139D01*
X0040614Y0198190D01*
X0040543Y0198244D01*
X0040475Y0198302D01*
X0040410Y0198362D01*
X0040347Y0198426D01*
X0040287Y0198492D01*
X0040230Y0198561D01*
X0040177Y0198632D01*
X0040126Y0198705D01*
X0040079Y0198781D01*
X0040036Y0198858D01*
X0039995Y0198938D01*
X0039959Y0199019D01*
X0039926Y0199102D01*
X0039897Y0199186D01*
X0039871Y0199272D01*
X0039849Y0199358D01*
X0039832Y0199445D01*
X0039818Y0199533D01*
X0039808Y0199622D01*
X0039802Y0199711D01*
X0039800Y0199800D01*
X0118300Y0211000D02*
X0118304Y0211331D01*
X0118316Y0211662D01*
X0118337Y0211993D01*
X0118365Y0212323D01*
X0118402Y0212653D01*
X0118446Y0212981D01*
X0118499Y0213308D01*
X0118559Y0213634D01*
X0118628Y0213958D01*
X0118705Y0214280D01*
X0118789Y0214601D01*
X0118881Y0214919D01*
X0118981Y0215235D01*
X0119089Y0215548D01*
X0119205Y0215859D01*
X0119328Y0216166D01*
X0119458Y0216471D01*
X0119596Y0216772D01*
X0119741Y0217070D01*
X0119894Y0217364D01*
X0120054Y0217654D01*
X0120221Y0217940D01*
X0120394Y0218222D01*
X0120575Y0218500D01*
X0120763Y0218773D01*
X0120957Y0219042D01*
X0121157Y0219306D01*
X0121364Y0219564D01*
X0121578Y0219818D01*
X0121797Y0220066D01*
X0122023Y0220309D01*
X0122254Y0220546D01*
X0122491Y0220777D01*
X0122734Y0221003D01*
X0122982Y0221222D01*
X0123236Y0221436D01*
X0123494Y0221643D01*
X0123758Y0221843D01*
X0124027Y0222037D01*
X0124300Y0222225D01*
X0124578Y0222406D01*
X0124860Y0222579D01*
X0125146Y0222746D01*
X0125436Y0222906D01*
X0125730Y0223059D01*
X0126028Y0223204D01*
X0126329Y0223342D01*
X0126634Y0223472D01*
X0126941Y0223595D01*
X0127252Y0223711D01*
X0127565Y0223819D01*
X0127881Y0223919D01*
X0128199Y0224011D01*
X0128520Y0224095D01*
X0128842Y0224172D01*
X0129166Y0224241D01*
X0129492Y0224301D01*
X0129819Y0224354D01*
X0130147Y0224398D01*
X0130477Y0224435D01*
X0130807Y0224463D01*
X0131138Y0224484D01*
X0131469Y0224496D01*
X0131800Y0224500D01*
X0132131Y0224496D01*
X0132462Y0224484D01*
X0132793Y0224463D01*
X0133123Y0224435D01*
X0133453Y0224398D01*
X0133781Y0224354D01*
X0134108Y0224301D01*
X0134434Y0224241D01*
X0134758Y0224172D01*
X0135080Y0224095D01*
X0135401Y0224011D01*
X0135719Y0223919D01*
X0136035Y0223819D01*
X0136348Y0223711D01*
X0136659Y0223595D01*
X0136966Y0223472D01*
X0137271Y0223342D01*
X0137572Y0223204D01*
X0137870Y0223059D01*
X0138164Y0222906D01*
X0138454Y0222746D01*
X0138740Y0222579D01*
X0139022Y0222406D01*
X0139300Y0222225D01*
X0139573Y0222037D01*
X0139842Y0221843D01*
X0140106Y0221643D01*
X0140364Y0221436D01*
X0140618Y0221222D01*
X0140866Y0221003D01*
X0141109Y0220777D01*
X0141346Y0220546D01*
X0141577Y0220309D01*
X0141803Y0220066D01*
X0142022Y0219818D01*
X0142236Y0219564D01*
X0142443Y0219306D01*
X0142643Y0219042D01*
X0142837Y0218773D01*
X0143025Y0218500D01*
X0143206Y0218222D01*
X0143379Y0217940D01*
X0143546Y0217654D01*
X0143706Y0217364D01*
X0143859Y0217070D01*
X0144004Y0216772D01*
X0144142Y0216471D01*
X0144272Y0216166D01*
X0144395Y0215859D01*
X0144511Y0215548D01*
X0144619Y0215235D01*
X0144719Y0214919D01*
X0144811Y0214601D01*
X0144895Y0214280D01*
X0144972Y0213958D01*
X0145041Y0213634D01*
X0145101Y0213308D01*
X0145154Y0212981D01*
X0145198Y0212653D01*
X0145235Y0212323D01*
X0145263Y0211993D01*
X0145284Y0211662D01*
X0145296Y0211331D01*
X0145300Y0211000D01*
X0145296Y0210669D01*
X0145284Y0210338D01*
X0145263Y0210007D01*
X0145235Y0209677D01*
X0145198Y0209347D01*
X0145154Y0209019D01*
X0145101Y0208692D01*
X0145041Y0208366D01*
X0144972Y0208042D01*
X0144895Y0207720D01*
X0144811Y0207399D01*
X0144719Y0207081D01*
X0144619Y0206765D01*
X0144511Y0206452D01*
X0144395Y0206141D01*
X0144272Y0205834D01*
X0144142Y0205529D01*
X0144004Y0205228D01*
X0143859Y0204930D01*
X0143706Y0204636D01*
X0143546Y0204346D01*
X0143379Y0204060D01*
X0143206Y0203778D01*
X0143025Y0203500D01*
X0142837Y0203227D01*
X0142643Y0202958D01*
X0142443Y0202694D01*
X0142236Y0202436D01*
X0142022Y0202182D01*
X0141803Y0201934D01*
X0141577Y0201691D01*
X0141346Y0201454D01*
X0141109Y0201223D01*
X0140866Y0200997D01*
X0140618Y0200778D01*
X0140364Y0200564D01*
X0140106Y0200357D01*
X0139842Y0200157D01*
X0139573Y0199963D01*
X0139300Y0199775D01*
X0139022Y0199594D01*
X0138740Y0199421D01*
X0138454Y0199254D01*
X0138164Y0199094D01*
X0137870Y0198941D01*
X0137572Y0198796D01*
X0137271Y0198658D01*
X0136966Y0198528D01*
X0136659Y0198405D01*
X0136348Y0198289D01*
X0136035Y0198181D01*
X0135719Y0198081D01*
X0135401Y0197989D01*
X0135080Y0197905D01*
X0134758Y0197828D01*
X0134434Y0197759D01*
X0134108Y0197699D01*
X0133781Y0197646D01*
X0133453Y0197602D01*
X0133123Y0197565D01*
X0132793Y0197537D01*
X0132462Y0197516D01*
X0132131Y0197504D01*
X0131800Y0197500D01*
X0131469Y0197504D01*
X0131138Y0197516D01*
X0130807Y0197537D01*
X0130477Y0197565D01*
X0130147Y0197602D01*
X0129819Y0197646D01*
X0129492Y0197699D01*
X0129166Y0197759D01*
X0128842Y0197828D01*
X0128520Y0197905D01*
X0128199Y0197989D01*
X0127881Y0198081D01*
X0127565Y0198181D01*
X0127252Y0198289D01*
X0126941Y0198405D01*
X0126634Y0198528D01*
X0126329Y0198658D01*
X0126028Y0198796D01*
X0125730Y0198941D01*
X0125436Y0199094D01*
X0125146Y0199254D01*
X0124860Y0199421D01*
X0124578Y0199594D01*
X0124300Y0199775D01*
X0124027Y0199963D01*
X0123758Y0200157D01*
X0123494Y0200357D01*
X0123236Y0200564D01*
X0122982Y0200778D01*
X0122734Y0200997D01*
X0122491Y0201223D01*
X0122254Y0201454D01*
X0122023Y0201691D01*
X0121797Y0201934D01*
X0121578Y0202182D01*
X0121364Y0202436D01*
X0121157Y0202694D01*
X0120957Y0202958D01*
X0120763Y0203227D01*
X0120575Y0203500D01*
X0120394Y0203778D01*
X0120221Y0204060D01*
X0120054Y0204346D01*
X0119894Y0204636D01*
X0119741Y0204930D01*
X0119596Y0205228D01*
X0119458Y0205529D01*
X0119328Y0205834D01*
X0119205Y0206141D01*
X0119089Y0206452D01*
X0118981Y0206765D01*
X0118881Y0207081D01*
X0118789Y0207399D01*
X0118705Y0207720D01*
X0118628Y0208042D01*
X0118559Y0208366D01*
X0118499Y0208692D01*
X0118446Y0209019D01*
X0118402Y0209347D01*
X0118365Y0209677D01*
X0118337Y0210007D01*
X0118316Y0210338D01*
X0118304Y0210669D01*
X0118300Y0211000D01*
X0106800Y0038500D02*
X0146800Y0038500D01*
X0146800Y0037500D01*
X0146800Y0011500D01*
X0140300Y0011500D01*
X0146800Y0011500D02*
X0146800Y0002000D01*
X0106800Y0002000D01*
X0106800Y0011500D01*
X0113300Y0011500D01*
X0106800Y0011500D02*
X0106800Y0037500D01*
X0106800Y0038500D01*
X0106800Y0037500D02*
X0146800Y0037500D01*
X0134800Y0032200D02*
X0134802Y0032289D01*
X0134808Y0032378D01*
X0134818Y0032467D01*
X0134832Y0032555D01*
X0134849Y0032642D01*
X0134871Y0032728D01*
X0134897Y0032814D01*
X0134926Y0032898D01*
X0134959Y0032981D01*
X0134995Y0033062D01*
X0135036Y0033142D01*
X0135079Y0033219D01*
X0135126Y0033295D01*
X0135177Y0033368D01*
X0135230Y0033439D01*
X0135287Y0033508D01*
X0135347Y0033574D01*
X0135410Y0033638D01*
X0135475Y0033698D01*
X0135543Y0033756D01*
X0135614Y0033810D01*
X0135687Y0033861D01*
X0135762Y0033909D01*
X0135839Y0033954D01*
X0135918Y0033995D01*
X0135999Y0034032D01*
X0136081Y0034066D01*
X0136165Y0034097D01*
X0136250Y0034123D01*
X0136336Y0034146D01*
X0136423Y0034164D01*
X0136511Y0034179D01*
X0136600Y0034190D01*
X0136689Y0034197D01*
X0136778Y0034200D01*
X0136867Y0034199D01*
X0136956Y0034194D01*
X0137044Y0034185D01*
X0137133Y0034172D01*
X0137220Y0034155D01*
X0137307Y0034135D01*
X0137393Y0034110D01*
X0137477Y0034082D01*
X0137560Y0034050D01*
X0137642Y0034014D01*
X0137722Y0033975D01*
X0137800Y0033932D01*
X0137876Y0033886D01*
X0137950Y0033836D01*
X0138022Y0033783D01*
X0138091Y0033727D01*
X0138158Y0033668D01*
X0138222Y0033606D01*
X0138283Y0033542D01*
X0138342Y0033474D01*
X0138397Y0033404D01*
X0138449Y0033332D01*
X0138498Y0033257D01*
X0138543Y0033181D01*
X0138585Y0033102D01*
X0138623Y0033022D01*
X0138658Y0032940D01*
X0138689Y0032856D01*
X0138717Y0032771D01*
X0138740Y0032685D01*
X0138760Y0032598D01*
X0138776Y0032511D01*
X0138788Y0032422D01*
X0138796Y0032334D01*
X0138800Y0032245D01*
X0138800Y0032155D01*
X0138796Y0032066D01*
X0138788Y0031978D01*
X0138776Y0031889D01*
X0138760Y0031802D01*
X0138740Y0031715D01*
X0138717Y0031629D01*
X0138689Y0031544D01*
X0138658Y0031460D01*
X0138623Y0031378D01*
X0138585Y0031298D01*
X0138543Y0031219D01*
X0138498Y0031143D01*
X0138449Y0031068D01*
X0138397Y0030996D01*
X0138342Y0030926D01*
X0138283Y0030858D01*
X0138222Y0030794D01*
X0138158Y0030732D01*
X0138091Y0030673D01*
X0138022Y0030617D01*
X0137950Y0030564D01*
X0137876Y0030514D01*
X0137800Y0030468D01*
X0137722Y0030425D01*
X0137642Y0030386D01*
X0137560Y0030350D01*
X0137477Y0030318D01*
X0137393Y0030290D01*
X0137307Y0030265D01*
X0137220Y0030245D01*
X0137133Y0030228D01*
X0137044Y0030215D01*
X0136956Y0030206D01*
X0136867Y0030201D01*
X0136778Y0030200D01*
X0136689Y0030203D01*
X0136600Y0030210D01*
X0136511Y0030221D01*
X0136423Y0030236D01*
X0136336Y0030254D01*
X0136250Y0030277D01*
X0136165Y0030303D01*
X0136081Y0030334D01*
X0135999Y0030368D01*
X0135918Y0030405D01*
X0135839Y0030446D01*
X0135762Y0030491D01*
X0135687Y0030539D01*
X0135614Y0030590D01*
X0135543Y0030644D01*
X0135475Y0030702D01*
X0135410Y0030762D01*
X0135347Y0030826D01*
X0135287Y0030892D01*
X0135230Y0030961D01*
X0135177Y0031032D01*
X0135126Y0031105D01*
X0135079Y0031181D01*
X0135036Y0031258D01*
X0134995Y0031338D01*
X0134959Y0031419D01*
X0134926Y0031502D01*
X0134897Y0031586D01*
X0134871Y0031672D01*
X0134849Y0031758D01*
X0134832Y0031845D01*
X0134818Y0031933D01*
X0134808Y0032022D01*
X0134802Y0032111D01*
X0134800Y0032200D01*
X0133300Y0011500D02*
X0120300Y0011500D01*
X0114800Y0032200D02*
X0114802Y0032289D01*
X0114808Y0032378D01*
X0114818Y0032467D01*
X0114832Y0032555D01*
X0114849Y0032642D01*
X0114871Y0032728D01*
X0114897Y0032814D01*
X0114926Y0032898D01*
X0114959Y0032981D01*
X0114995Y0033062D01*
X0115036Y0033142D01*
X0115079Y0033219D01*
X0115126Y0033295D01*
X0115177Y0033368D01*
X0115230Y0033439D01*
X0115287Y0033508D01*
X0115347Y0033574D01*
X0115410Y0033638D01*
X0115475Y0033698D01*
X0115543Y0033756D01*
X0115614Y0033810D01*
X0115687Y0033861D01*
X0115762Y0033909D01*
X0115839Y0033954D01*
X0115918Y0033995D01*
X0115999Y0034032D01*
X0116081Y0034066D01*
X0116165Y0034097D01*
X0116250Y0034123D01*
X0116336Y0034146D01*
X0116423Y0034164D01*
X0116511Y0034179D01*
X0116600Y0034190D01*
X0116689Y0034197D01*
X0116778Y0034200D01*
X0116867Y0034199D01*
X0116956Y0034194D01*
X0117044Y0034185D01*
X0117133Y0034172D01*
X0117220Y0034155D01*
X0117307Y0034135D01*
X0117393Y0034110D01*
X0117477Y0034082D01*
X0117560Y0034050D01*
X0117642Y0034014D01*
X0117722Y0033975D01*
X0117800Y0033932D01*
X0117876Y0033886D01*
X0117950Y0033836D01*
X0118022Y0033783D01*
X0118091Y0033727D01*
X0118158Y0033668D01*
X0118222Y0033606D01*
X0118283Y0033542D01*
X0118342Y0033474D01*
X0118397Y0033404D01*
X0118449Y0033332D01*
X0118498Y0033257D01*
X0118543Y0033181D01*
X0118585Y0033102D01*
X0118623Y0033022D01*
X0118658Y0032940D01*
X0118689Y0032856D01*
X0118717Y0032771D01*
X0118740Y0032685D01*
X0118760Y0032598D01*
X0118776Y0032511D01*
X0118788Y0032422D01*
X0118796Y0032334D01*
X0118800Y0032245D01*
X0118800Y0032155D01*
X0118796Y0032066D01*
X0118788Y0031978D01*
X0118776Y0031889D01*
X0118760Y0031802D01*
X0118740Y0031715D01*
X0118717Y0031629D01*
X0118689Y0031544D01*
X0118658Y0031460D01*
X0118623Y0031378D01*
X0118585Y0031298D01*
X0118543Y0031219D01*
X0118498Y0031143D01*
X0118449Y0031068D01*
X0118397Y0030996D01*
X0118342Y0030926D01*
X0118283Y0030858D01*
X0118222Y0030794D01*
X0118158Y0030732D01*
X0118091Y0030673D01*
X0118022Y0030617D01*
X0117950Y0030564D01*
X0117876Y0030514D01*
X0117800Y0030468D01*
X0117722Y0030425D01*
X0117642Y0030386D01*
X0117560Y0030350D01*
X0117477Y0030318D01*
X0117393Y0030290D01*
X0117307Y0030265D01*
X0117220Y0030245D01*
X0117133Y0030228D01*
X0117044Y0030215D01*
X0116956Y0030206D01*
X0116867Y0030201D01*
X0116778Y0030200D01*
X0116689Y0030203D01*
X0116600Y0030210D01*
X0116511Y0030221D01*
X0116423Y0030236D01*
X0116336Y0030254D01*
X0116250Y0030277D01*
X0116165Y0030303D01*
X0116081Y0030334D01*
X0115999Y0030368D01*
X0115918Y0030405D01*
X0115839Y0030446D01*
X0115762Y0030491D01*
X0115687Y0030539D01*
X0115614Y0030590D01*
X0115543Y0030644D01*
X0115475Y0030702D01*
X0115410Y0030762D01*
X0115347Y0030826D01*
X0115287Y0030892D01*
X0115230Y0030961D01*
X0115177Y0031032D01*
X0115126Y0031105D01*
X0115079Y0031181D01*
X0115036Y0031258D01*
X0114995Y0031338D01*
X0114959Y0031419D01*
X0114926Y0031502D01*
X0114897Y0031586D01*
X0114871Y0031672D01*
X0114849Y0031758D01*
X0114832Y0031845D01*
X0114818Y0031933D01*
X0114808Y0032022D01*
X0114802Y0032111D01*
X0114800Y0032200D01*
X0096800Y0037500D02*
X0096800Y0011500D01*
X0090300Y0011500D01*
X0083300Y0011500D02*
X0070300Y0011500D01*
X0063300Y0011500D02*
X0056800Y0011500D01*
X0056800Y0002000D01*
X0096800Y0002000D01*
X0096800Y0011500D01*
X0084800Y0032200D02*
X0084802Y0032289D01*
X0084808Y0032378D01*
X0084818Y0032467D01*
X0084832Y0032555D01*
X0084849Y0032642D01*
X0084871Y0032728D01*
X0084897Y0032814D01*
X0084926Y0032898D01*
X0084959Y0032981D01*
X0084995Y0033062D01*
X0085036Y0033142D01*
X0085079Y0033219D01*
X0085126Y0033295D01*
X0085177Y0033368D01*
X0085230Y0033439D01*
X0085287Y0033508D01*
X0085347Y0033574D01*
X0085410Y0033638D01*
X0085475Y0033698D01*
X0085543Y0033756D01*
X0085614Y0033810D01*
X0085687Y0033861D01*
X0085762Y0033909D01*
X0085839Y0033954D01*
X0085918Y0033995D01*
X0085999Y0034032D01*
X0086081Y0034066D01*
X0086165Y0034097D01*
X0086250Y0034123D01*
X0086336Y0034146D01*
X0086423Y0034164D01*
X0086511Y0034179D01*
X0086600Y0034190D01*
X0086689Y0034197D01*
X0086778Y0034200D01*
X0086867Y0034199D01*
X0086956Y0034194D01*
X0087044Y0034185D01*
X0087133Y0034172D01*
X0087220Y0034155D01*
X0087307Y0034135D01*
X0087393Y0034110D01*
X0087477Y0034082D01*
X0087560Y0034050D01*
X0087642Y0034014D01*
X0087722Y0033975D01*
X0087800Y0033932D01*
X0087876Y0033886D01*
X0087950Y0033836D01*
X0088022Y0033783D01*
X0088091Y0033727D01*
X0088158Y0033668D01*
X0088222Y0033606D01*
X0088283Y0033542D01*
X0088342Y0033474D01*
X0088397Y0033404D01*
X0088449Y0033332D01*
X0088498Y0033257D01*
X0088543Y0033181D01*
X0088585Y0033102D01*
X0088623Y0033022D01*
X0088658Y0032940D01*
X0088689Y0032856D01*
X0088717Y0032771D01*
X0088740Y0032685D01*
X0088760Y0032598D01*
X0088776Y0032511D01*
X0088788Y0032422D01*
X0088796Y0032334D01*
X0088800Y0032245D01*
X0088800Y0032155D01*
X0088796Y0032066D01*
X0088788Y0031978D01*
X0088776Y0031889D01*
X0088760Y0031802D01*
X0088740Y0031715D01*
X0088717Y0031629D01*
X0088689Y0031544D01*
X0088658Y0031460D01*
X0088623Y0031378D01*
X0088585Y0031298D01*
X0088543Y0031219D01*
X0088498Y0031143D01*
X0088449Y0031068D01*
X0088397Y0030996D01*
X0088342Y0030926D01*
X0088283Y0030858D01*
X0088222Y0030794D01*
X0088158Y0030732D01*
X0088091Y0030673D01*
X0088022Y0030617D01*
X0087950Y0030564D01*
X0087876Y0030514D01*
X0087800Y0030468D01*
X0087722Y0030425D01*
X0087642Y0030386D01*
X0087560Y0030350D01*
X0087477Y0030318D01*
X0087393Y0030290D01*
X0087307Y0030265D01*
X0087220Y0030245D01*
X0087133Y0030228D01*
X0087044Y0030215D01*
X0086956Y0030206D01*
X0086867Y0030201D01*
X0086778Y0030200D01*
X0086689Y0030203D01*
X0086600Y0030210D01*
X0086511Y0030221D01*
X0086423Y0030236D01*
X0086336Y0030254D01*
X0086250Y0030277D01*
X0086165Y0030303D01*
X0086081Y0030334D01*
X0085999Y0030368D01*
X0085918Y0030405D01*
X0085839Y0030446D01*
X0085762Y0030491D01*
X0085687Y0030539D01*
X0085614Y0030590D01*
X0085543Y0030644D01*
X0085475Y0030702D01*
X0085410Y0030762D01*
X0085347Y0030826D01*
X0085287Y0030892D01*
X0085230Y0030961D01*
X0085177Y0031032D01*
X0085126Y0031105D01*
X0085079Y0031181D01*
X0085036Y0031258D01*
X0084995Y0031338D01*
X0084959Y0031419D01*
X0084926Y0031502D01*
X0084897Y0031586D01*
X0084871Y0031672D01*
X0084849Y0031758D01*
X0084832Y0031845D01*
X0084818Y0031933D01*
X0084808Y0032022D01*
X0084802Y0032111D01*
X0084800Y0032200D01*
X0096800Y0037500D02*
X0096800Y0038500D01*
X0056800Y0038500D01*
X0056800Y0037500D01*
X0056800Y0011500D01*
X0064800Y0032200D02*
X0064802Y0032289D01*
X0064808Y0032378D01*
X0064818Y0032467D01*
X0064832Y0032555D01*
X0064849Y0032642D01*
X0064871Y0032728D01*
X0064897Y0032814D01*
X0064926Y0032898D01*
X0064959Y0032981D01*
X0064995Y0033062D01*
X0065036Y0033142D01*
X0065079Y0033219D01*
X0065126Y0033295D01*
X0065177Y0033368D01*
X0065230Y0033439D01*
X0065287Y0033508D01*
X0065347Y0033574D01*
X0065410Y0033638D01*
X0065475Y0033698D01*
X0065543Y0033756D01*
X0065614Y0033810D01*
X0065687Y0033861D01*
X0065762Y0033909D01*
X0065839Y0033954D01*
X0065918Y0033995D01*
X0065999Y0034032D01*
X0066081Y0034066D01*
X0066165Y0034097D01*
X0066250Y0034123D01*
X0066336Y0034146D01*
X0066423Y0034164D01*
X0066511Y0034179D01*
X0066600Y0034190D01*
X0066689Y0034197D01*
X0066778Y0034200D01*
X0066867Y0034199D01*
X0066956Y0034194D01*
X0067044Y0034185D01*
X0067133Y0034172D01*
X0067220Y0034155D01*
X0067307Y0034135D01*
X0067393Y0034110D01*
X0067477Y0034082D01*
X0067560Y0034050D01*
X0067642Y0034014D01*
X0067722Y0033975D01*
X0067800Y0033932D01*
X0067876Y0033886D01*
X0067950Y0033836D01*
X0068022Y0033783D01*
X0068091Y0033727D01*
X0068158Y0033668D01*
X0068222Y0033606D01*
X0068283Y0033542D01*
X0068342Y0033474D01*
X0068397Y0033404D01*
X0068449Y0033332D01*
X0068498Y0033257D01*
X0068543Y0033181D01*
X0068585Y0033102D01*
X0068623Y0033022D01*
X0068658Y0032940D01*
X0068689Y0032856D01*
X0068717Y0032771D01*
X0068740Y0032685D01*
X0068760Y0032598D01*
X0068776Y0032511D01*
X0068788Y0032422D01*
X0068796Y0032334D01*
X0068800Y0032245D01*
X0068800Y0032155D01*
X0068796Y0032066D01*
X0068788Y0031978D01*
X0068776Y0031889D01*
X0068760Y0031802D01*
X0068740Y0031715D01*
X0068717Y0031629D01*
X0068689Y0031544D01*
X0068658Y0031460D01*
X0068623Y0031378D01*
X0068585Y0031298D01*
X0068543Y0031219D01*
X0068498Y0031143D01*
X0068449Y0031068D01*
X0068397Y0030996D01*
X0068342Y0030926D01*
X0068283Y0030858D01*
X0068222Y0030794D01*
X0068158Y0030732D01*
X0068091Y0030673D01*
X0068022Y0030617D01*
X0067950Y0030564D01*
X0067876Y0030514D01*
X0067800Y0030468D01*
X0067722Y0030425D01*
X0067642Y0030386D01*
X0067560Y0030350D01*
X0067477Y0030318D01*
X0067393Y0030290D01*
X0067307Y0030265D01*
X0067220Y0030245D01*
X0067133Y0030228D01*
X0067044Y0030215D01*
X0066956Y0030206D01*
X0066867Y0030201D01*
X0066778Y0030200D01*
X0066689Y0030203D01*
X0066600Y0030210D01*
X0066511Y0030221D01*
X0066423Y0030236D01*
X0066336Y0030254D01*
X0066250Y0030277D01*
X0066165Y0030303D01*
X0066081Y0030334D01*
X0065999Y0030368D01*
X0065918Y0030405D01*
X0065839Y0030446D01*
X0065762Y0030491D01*
X0065687Y0030539D01*
X0065614Y0030590D01*
X0065543Y0030644D01*
X0065475Y0030702D01*
X0065410Y0030762D01*
X0065347Y0030826D01*
X0065287Y0030892D01*
X0065230Y0030961D01*
X0065177Y0031032D01*
X0065126Y0031105D01*
X0065079Y0031181D01*
X0065036Y0031258D01*
X0064995Y0031338D01*
X0064959Y0031419D01*
X0064926Y0031502D01*
X0064897Y0031586D01*
X0064871Y0031672D01*
X0064849Y0031758D01*
X0064832Y0031845D01*
X0064818Y0031933D01*
X0064808Y0032022D01*
X0064802Y0032111D01*
X0064800Y0032200D01*
X0056800Y0037500D02*
X0096800Y0037500D01*
X0013300Y0021000D02*
X0013304Y0021331D01*
X0013316Y0021662D01*
X0013337Y0021993D01*
X0013365Y0022323D01*
X0013402Y0022653D01*
X0013446Y0022981D01*
X0013499Y0023308D01*
X0013559Y0023634D01*
X0013628Y0023958D01*
X0013705Y0024280D01*
X0013789Y0024601D01*
X0013881Y0024919D01*
X0013981Y0025235D01*
X0014089Y0025548D01*
X0014205Y0025859D01*
X0014328Y0026166D01*
X0014458Y0026471D01*
X0014596Y0026772D01*
X0014741Y0027070D01*
X0014894Y0027364D01*
X0015054Y0027654D01*
X0015221Y0027940D01*
X0015394Y0028222D01*
X0015575Y0028500D01*
X0015763Y0028773D01*
X0015957Y0029042D01*
X0016157Y0029306D01*
X0016364Y0029564D01*
X0016578Y0029818D01*
X0016797Y0030066D01*
X0017023Y0030309D01*
X0017254Y0030546D01*
X0017491Y0030777D01*
X0017734Y0031003D01*
X0017982Y0031222D01*
X0018236Y0031436D01*
X0018494Y0031643D01*
X0018758Y0031843D01*
X0019027Y0032037D01*
X0019300Y0032225D01*
X0019578Y0032406D01*
X0019860Y0032579D01*
X0020146Y0032746D01*
X0020436Y0032906D01*
X0020730Y0033059D01*
X0021028Y0033204D01*
X0021329Y0033342D01*
X0021634Y0033472D01*
X0021941Y0033595D01*
X0022252Y0033711D01*
X0022565Y0033819D01*
X0022881Y0033919D01*
X0023199Y0034011D01*
X0023520Y0034095D01*
X0023842Y0034172D01*
X0024166Y0034241D01*
X0024492Y0034301D01*
X0024819Y0034354D01*
X0025147Y0034398D01*
X0025477Y0034435D01*
X0025807Y0034463D01*
X0026138Y0034484D01*
X0026469Y0034496D01*
X0026800Y0034500D01*
X0027131Y0034496D01*
X0027462Y0034484D01*
X0027793Y0034463D01*
X0028123Y0034435D01*
X0028453Y0034398D01*
X0028781Y0034354D01*
X0029108Y0034301D01*
X0029434Y0034241D01*
X0029758Y0034172D01*
X0030080Y0034095D01*
X0030401Y0034011D01*
X0030719Y0033919D01*
X0031035Y0033819D01*
X0031348Y0033711D01*
X0031659Y0033595D01*
X0031966Y0033472D01*
X0032271Y0033342D01*
X0032572Y0033204D01*
X0032870Y0033059D01*
X0033164Y0032906D01*
X0033454Y0032746D01*
X0033740Y0032579D01*
X0034022Y0032406D01*
X0034300Y0032225D01*
X0034573Y0032037D01*
X0034842Y0031843D01*
X0035106Y0031643D01*
X0035364Y0031436D01*
X0035618Y0031222D01*
X0035866Y0031003D01*
X0036109Y0030777D01*
X0036346Y0030546D01*
X0036577Y0030309D01*
X0036803Y0030066D01*
X0037022Y0029818D01*
X0037236Y0029564D01*
X0037443Y0029306D01*
X0037643Y0029042D01*
X0037837Y0028773D01*
X0038025Y0028500D01*
X0038206Y0028222D01*
X0038379Y0027940D01*
X0038546Y0027654D01*
X0038706Y0027364D01*
X0038859Y0027070D01*
X0039004Y0026772D01*
X0039142Y0026471D01*
X0039272Y0026166D01*
X0039395Y0025859D01*
X0039511Y0025548D01*
X0039619Y0025235D01*
X0039719Y0024919D01*
X0039811Y0024601D01*
X0039895Y0024280D01*
X0039972Y0023958D01*
X0040041Y0023634D01*
X0040101Y0023308D01*
X0040154Y0022981D01*
X0040198Y0022653D01*
X0040235Y0022323D01*
X0040263Y0021993D01*
X0040284Y0021662D01*
X0040296Y0021331D01*
X0040300Y0021000D01*
X0040296Y0020669D01*
X0040284Y0020338D01*
X0040263Y0020007D01*
X0040235Y0019677D01*
X0040198Y0019347D01*
X0040154Y0019019D01*
X0040101Y0018692D01*
X0040041Y0018366D01*
X0039972Y0018042D01*
X0039895Y0017720D01*
X0039811Y0017399D01*
X0039719Y0017081D01*
X0039619Y0016765D01*
X0039511Y0016452D01*
X0039395Y0016141D01*
X0039272Y0015834D01*
X0039142Y0015529D01*
X0039004Y0015228D01*
X0038859Y0014930D01*
X0038706Y0014636D01*
X0038546Y0014346D01*
X0038379Y0014060D01*
X0038206Y0013778D01*
X0038025Y0013500D01*
X0037837Y0013227D01*
X0037643Y0012958D01*
X0037443Y0012694D01*
X0037236Y0012436D01*
X0037022Y0012182D01*
X0036803Y0011934D01*
X0036577Y0011691D01*
X0036346Y0011454D01*
X0036109Y0011223D01*
X0035866Y0010997D01*
X0035618Y0010778D01*
X0035364Y0010564D01*
X0035106Y0010357D01*
X0034842Y0010157D01*
X0034573Y0009963D01*
X0034300Y0009775D01*
X0034022Y0009594D01*
X0033740Y0009421D01*
X0033454Y0009254D01*
X0033164Y0009094D01*
X0032870Y0008941D01*
X0032572Y0008796D01*
X0032271Y0008658D01*
X0031966Y0008528D01*
X0031659Y0008405D01*
X0031348Y0008289D01*
X0031035Y0008181D01*
X0030719Y0008081D01*
X0030401Y0007989D01*
X0030080Y0007905D01*
X0029758Y0007828D01*
X0029434Y0007759D01*
X0029108Y0007699D01*
X0028781Y0007646D01*
X0028453Y0007602D01*
X0028123Y0007565D01*
X0027793Y0007537D01*
X0027462Y0007516D01*
X0027131Y0007504D01*
X0026800Y0007500D01*
X0026469Y0007504D01*
X0026138Y0007516D01*
X0025807Y0007537D01*
X0025477Y0007565D01*
X0025147Y0007602D01*
X0024819Y0007646D01*
X0024492Y0007699D01*
X0024166Y0007759D01*
X0023842Y0007828D01*
X0023520Y0007905D01*
X0023199Y0007989D01*
X0022881Y0008081D01*
X0022565Y0008181D01*
X0022252Y0008289D01*
X0021941Y0008405D01*
X0021634Y0008528D01*
X0021329Y0008658D01*
X0021028Y0008796D01*
X0020730Y0008941D01*
X0020436Y0009094D01*
X0020146Y0009254D01*
X0019860Y0009421D01*
X0019578Y0009594D01*
X0019300Y0009775D01*
X0019027Y0009963D01*
X0018758Y0010157D01*
X0018494Y0010357D01*
X0018236Y0010564D01*
X0017982Y0010778D01*
X0017734Y0010997D01*
X0017491Y0011223D01*
X0017254Y0011454D01*
X0017023Y0011691D01*
X0016797Y0011934D01*
X0016578Y0012182D01*
X0016364Y0012436D01*
X0016157Y0012694D01*
X0015957Y0012958D01*
X0015763Y0013227D01*
X0015575Y0013500D01*
X0015394Y0013778D01*
X0015221Y0014060D01*
X0015054Y0014346D01*
X0014894Y0014636D01*
X0014741Y0014930D01*
X0014596Y0015228D01*
X0014458Y0015529D01*
X0014328Y0015834D01*
X0014205Y0016141D01*
X0014089Y0016452D01*
X0013981Y0016765D01*
X0013881Y0017081D01*
X0013789Y0017399D01*
X0013705Y0017720D01*
X0013628Y0018042D01*
X0013559Y0018366D01*
X0013499Y0018692D01*
X0013446Y0019019D01*
X0013402Y0019347D01*
X0013365Y0019677D01*
X0013337Y0020007D01*
X0013316Y0020338D01*
X0013304Y0020669D01*
X0013300Y0021000D01*
D13*
X0015560Y0061000D02*
X0015560Y0179110D01*
X0094300Y0179110D01*
X0094300Y0061000D01*
X0015560Y0061000D01*
X0063551Y0008754D02*
X0062050Y0007253D01*
X0062050Y0004250D01*
X0062050Y0006502D02*
X0065053Y0006502D01*
X0065053Y0007253D02*
X0063551Y0008754D01*
X0065053Y0007253D02*
X0065053Y0004250D01*
X0066654Y0005001D02*
X0067405Y0004250D01*
X0068906Y0004250D01*
X0069656Y0005001D01*
X0071258Y0003499D02*
X0074260Y0003499D01*
X0075862Y0004250D02*
X0077363Y0004250D01*
X0076612Y0004250D02*
X0076612Y0008754D01*
X0075862Y0008754D02*
X0077363Y0008754D01*
X0078931Y0008754D02*
X0081934Y0004250D01*
X0081934Y0008754D01*
X0078931Y0008754D02*
X0078931Y0004250D01*
X0069656Y0008003D02*
X0068906Y0008754D01*
X0067405Y0008754D01*
X0066654Y0008003D01*
X0066654Y0005001D01*
X0112050Y0004250D02*
X0112050Y0007253D01*
X0113551Y0008754D01*
X0115053Y0007253D01*
X0115053Y0004250D01*
X0116654Y0005001D02*
X0117405Y0004250D01*
X0118906Y0004250D01*
X0119656Y0005001D01*
X0121258Y0003499D02*
X0124260Y0003499D01*
X0125862Y0005001D02*
X0126612Y0004250D01*
X0128114Y0004250D01*
X0128864Y0005001D01*
X0128864Y0008003D01*
X0128114Y0008754D01*
X0126612Y0008754D01*
X0125862Y0008003D01*
X0125862Y0005001D01*
X0130466Y0005001D02*
X0131216Y0004250D01*
X0132718Y0004250D01*
X0133468Y0005001D01*
X0133468Y0008754D01*
X0135070Y0008754D02*
X0138072Y0008754D01*
X0136571Y0008754D02*
X0136571Y0004250D01*
X0130466Y0005001D02*
X0130466Y0008754D01*
X0119656Y0008003D02*
X0118906Y0008754D01*
X0117405Y0008754D01*
X0116654Y0008003D01*
X0116654Y0005001D01*
X0115053Y0006502D02*
X0112050Y0006502D01*
X0118300Y0120250D02*
X0121303Y0120250D01*
X0118300Y0120250D02*
X0118300Y0124754D01*
X0122904Y0124754D02*
X0122904Y0120250D01*
X0125906Y0120250D01*
X0124405Y0122502D02*
X0122904Y0122502D01*
X0122904Y0124754D02*
X0125906Y0124754D01*
X0127508Y0124754D02*
X0127508Y0120250D01*
X0129760Y0120250D01*
X0130510Y0121001D01*
X0130510Y0124003D01*
X0129760Y0124754D01*
X0127508Y0124754D01*
X0132112Y0123253D02*
X0133613Y0124754D01*
X0133613Y0120250D01*
X0132112Y0120250D02*
X0135114Y0120250D01*
X0137800Y0153048D02*
X0137800Y0154627D01*
X0137800Y0162373D02*
X0137800Y0164627D01*
X0143300Y0155254D02*
X0143101Y0155101D01*
X0142899Y0154953D01*
X0142694Y0154810D01*
X0142485Y0154672D01*
X0142273Y0154539D01*
X0142058Y0154411D01*
X0141840Y0154289D01*
X0141619Y0154171D01*
X0141395Y0154059D01*
X0141169Y0153952D01*
X0140940Y0153851D01*
X0140709Y0153755D01*
X0140475Y0153664D01*
X0140240Y0153579D01*
X0140002Y0153500D01*
X0139763Y0153427D01*
X0139522Y0153359D01*
X0139280Y0153297D01*
X0139036Y0153241D01*
X0138790Y0153190D01*
X0138544Y0153146D01*
X0138297Y0153107D01*
X0138049Y0153075D01*
X0137800Y0153048D01*
X0143300Y0155254D02*
X0143300Y0171746D01*
X0137800Y0172373D02*
X0137800Y0173952D01*
X0143300Y0171746D02*
X0143098Y0171901D01*
X0142893Y0172051D01*
X0142684Y0172197D01*
X0142471Y0172337D01*
X0142255Y0172471D01*
X0142036Y0172601D01*
X0141814Y0172725D01*
X0141589Y0172844D01*
X0141361Y0172957D01*
X0141131Y0173065D01*
X0140898Y0173167D01*
X0140662Y0173264D01*
X0140424Y0173355D01*
X0140185Y0173440D01*
X0139943Y0173519D01*
X0139699Y0173592D01*
X0139454Y0173659D01*
X0139207Y0173720D01*
X0138958Y0173776D01*
X0138708Y0173825D01*
X0138458Y0173868D01*
X0138206Y0173905D01*
X0137953Y0173936D01*
X0137700Y0173961D01*
X0137446Y0173980D01*
X0137192Y0173993D01*
X0136938Y0173999D01*
X0136683Y0173999D01*
X0136429Y0173993D01*
X0136174Y0173981D01*
X0135921Y0173963D01*
X0135667Y0173939D01*
X0135415Y0173908D01*
X0135163Y0173872D01*
X0134912Y0173829D01*
X0134662Y0173780D01*
X0134414Y0173725D01*
X0134167Y0173664D01*
X0133921Y0173598D01*
X0133677Y0173525D01*
X0133435Y0173446D01*
X0133195Y0173362D01*
X0132957Y0173271D01*
X0132721Y0173175D01*
X0132488Y0173074D01*
X0132257Y0172966D01*
X0132029Y0172854D01*
X0131804Y0172735D01*
X0131582Y0172611D01*
X0131362Y0172482D01*
X0131146Y0172348D01*
X0130933Y0172208D01*
X0130724Y0172063D01*
X0130518Y0171914D01*
X0130316Y0171759D01*
X0130118Y0171599D01*
X0129924Y0171435D01*
X0129733Y0171266D01*
X0129547Y0171093D01*
X0129365Y0170915D01*
X0129188Y0170732D01*
X0129015Y0170546D01*
X0128846Y0170355D01*
X0128682Y0170160D01*
X0128523Y0169961D01*
X0128369Y0169759D01*
X0128220Y0169553D01*
X0128076Y0169343D01*
X0127937Y0169130D01*
X0127803Y0168913D01*
X0127674Y0168694D01*
X0127551Y0168471D01*
X0127434Y0168245D01*
X0127321Y0168017D01*
X0127215Y0167786D01*
X0127113Y0167552D01*
X0127018Y0167316D01*
X0126929Y0167078D01*
X0126845Y0166838D01*
X0126767Y0166596D01*
X0126799Y0164149D02*
X0127550Y0163398D01*
X0127550Y0161897D01*
X0126799Y0161146D01*
X0127550Y0159545D02*
X0126049Y0158043D01*
X0126049Y0158794D02*
X0126049Y0156542D01*
X0127550Y0156542D02*
X0123046Y0156542D01*
X0123046Y0158794D01*
X0123797Y0159545D01*
X0125298Y0159545D01*
X0126049Y0158794D01*
X0125298Y0162647D02*
X0125298Y0163398D01*
X0126049Y0164149D01*
X0126799Y0164149D01*
X0125298Y0163398D02*
X0124547Y0164149D01*
X0123797Y0164149D01*
X0123046Y0163398D01*
X0123046Y0161897D01*
X0123797Y0161146D01*
X0126767Y0160404D02*
X0126845Y0160160D01*
X0126930Y0159918D01*
X0127020Y0159679D01*
X0127116Y0159441D01*
X0127218Y0159206D01*
X0127326Y0158973D01*
X0127439Y0158743D01*
X0127558Y0158516D01*
X0127682Y0158292D01*
X0127812Y0158071D01*
X0127947Y0157854D01*
X0128088Y0157639D01*
X0128234Y0157428D01*
X0128384Y0157221D01*
X0128540Y0157018D01*
X0128701Y0156818D01*
X0128866Y0156622D01*
X0129036Y0156431D01*
X0129211Y0156243D01*
X0129391Y0156060D01*
X0129574Y0155882D01*
X0129763Y0155707D01*
X0129955Y0155538D01*
X0130151Y0155373D01*
X0130352Y0155213D01*
X0130556Y0155059D01*
X0130764Y0154909D01*
X0130975Y0154764D01*
X0131190Y0154624D01*
X0131408Y0154490D01*
X0131630Y0154361D01*
X0131854Y0154238D01*
X0132082Y0154120D01*
X0132312Y0154007D01*
X0132545Y0153901D01*
X0132781Y0153800D01*
X0133019Y0153704D01*
X0133259Y0153615D01*
X0133501Y0153532D01*
X0133746Y0153454D01*
X0133992Y0153383D01*
X0134240Y0153317D01*
X0134489Y0153258D01*
X0134739Y0153204D01*
X0134991Y0153157D01*
X0135244Y0153116D01*
X0135498Y0153081D01*
X0135753Y0153052D01*
X0136008Y0153030D01*
X0136264Y0153014D01*
X0136520Y0153004D01*
X0136776Y0153000D01*
X0137033Y0153003D01*
X0137289Y0153011D01*
X0137545Y0153026D01*
X0137800Y0153048D01*
X0093947Y0223250D02*
X0095449Y0224751D01*
X0095449Y0227754D01*
X0092446Y0227754D02*
X0092446Y0224751D01*
X0093947Y0223250D01*
X0090845Y0224001D02*
X0090094Y0223250D01*
X0088593Y0223250D01*
X0087842Y0224001D01*
X0087842Y0225502D02*
X0089343Y0226253D01*
X0090094Y0226253D01*
X0090845Y0225502D01*
X0090845Y0224001D01*
X0090845Y0227754D02*
X0087842Y0227754D01*
X0087842Y0225502D01*
X0045449Y0223250D02*
X0045449Y0227754D01*
X0043947Y0224751D02*
X0045449Y0223250D01*
X0043947Y0224751D02*
X0042446Y0223250D01*
X0042446Y0227754D01*
X0040845Y0227003D02*
X0040094Y0227754D01*
X0038593Y0227754D01*
X0037842Y0227003D01*
X0037842Y0226253D01*
X0038593Y0225502D01*
X0040094Y0225502D01*
X0040845Y0224751D01*
X0040845Y0224001D01*
X0040094Y0223250D01*
X0038593Y0223250D01*
X0037842Y0224001D01*
D14*
X0125501Y0149228D02*
X0147154Y0149228D01*
X0147154Y0052772D01*
X0125501Y0052772D01*
X0125501Y0149228D01*
X0125107Y0211000D02*
X0125109Y0211164D01*
X0125115Y0211328D01*
X0125125Y0211492D01*
X0125139Y0211656D01*
X0125157Y0211819D01*
X0125179Y0211982D01*
X0125206Y0212144D01*
X0125236Y0212306D01*
X0125270Y0212466D01*
X0125308Y0212626D01*
X0125349Y0212785D01*
X0125395Y0212943D01*
X0125445Y0213099D01*
X0125498Y0213255D01*
X0125555Y0213409D01*
X0125616Y0213561D01*
X0125681Y0213712D01*
X0125750Y0213862D01*
X0125822Y0214009D01*
X0125897Y0214155D01*
X0125977Y0214299D01*
X0126059Y0214441D01*
X0126145Y0214581D01*
X0126235Y0214718D01*
X0126328Y0214854D01*
X0126424Y0214987D01*
X0126524Y0215118D01*
X0126626Y0215246D01*
X0126732Y0215372D01*
X0126841Y0215495D01*
X0126953Y0215615D01*
X0127067Y0215733D01*
X0127185Y0215847D01*
X0127305Y0215959D01*
X0127428Y0216068D01*
X0127554Y0216174D01*
X0127682Y0216276D01*
X0127813Y0216376D01*
X0127946Y0216472D01*
X0128082Y0216565D01*
X0128219Y0216655D01*
X0128359Y0216741D01*
X0128501Y0216823D01*
X0128645Y0216903D01*
X0128791Y0216978D01*
X0128938Y0217050D01*
X0129088Y0217119D01*
X0129239Y0217184D01*
X0129391Y0217245D01*
X0129545Y0217302D01*
X0129701Y0217355D01*
X0129857Y0217405D01*
X0130015Y0217451D01*
X0130174Y0217492D01*
X0130334Y0217530D01*
X0130494Y0217564D01*
X0130656Y0217594D01*
X0130818Y0217621D01*
X0130981Y0217643D01*
X0131144Y0217661D01*
X0131308Y0217675D01*
X0131472Y0217685D01*
X0131636Y0217691D01*
X0131800Y0217693D01*
X0131964Y0217691D01*
X0132128Y0217685D01*
X0132292Y0217675D01*
X0132456Y0217661D01*
X0132619Y0217643D01*
X0132782Y0217621D01*
X0132944Y0217594D01*
X0133106Y0217564D01*
X0133266Y0217530D01*
X0133426Y0217492D01*
X0133585Y0217451D01*
X0133743Y0217405D01*
X0133899Y0217355D01*
X0134055Y0217302D01*
X0134209Y0217245D01*
X0134361Y0217184D01*
X0134512Y0217119D01*
X0134662Y0217050D01*
X0134809Y0216978D01*
X0134955Y0216903D01*
X0135099Y0216823D01*
X0135241Y0216741D01*
X0135381Y0216655D01*
X0135518Y0216565D01*
X0135654Y0216472D01*
X0135787Y0216376D01*
X0135918Y0216276D01*
X0136046Y0216174D01*
X0136172Y0216068D01*
X0136295Y0215959D01*
X0136415Y0215847D01*
X0136533Y0215733D01*
X0136647Y0215615D01*
X0136759Y0215495D01*
X0136868Y0215372D01*
X0136974Y0215246D01*
X0137076Y0215118D01*
X0137176Y0214987D01*
X0137272Y0214854D01*
X0137365Y0214718D01*
X0137455Y0214581D01*
X0137541Y0214441D01*
X0137623Y0214299D01*
X0137703Y0214155D01*
X0137778Y0214009D01*
X0137850Y0213862D01*
X0137919Y0213712D01*
X0137984Y0213561D01*
X0138045Y0213409D01*
X0138102Y0213255D01*
X0138155Y0213099D01*
X0138205Y0212943D01*
X0138251Y0212785D01*
X0138292Y0212626D01*
X0138330Y0212466D01*
X0138364Y0212306D01*
X0138394Y0212144D01*
X0138421Y0211982D01*
X0138443Y0211819D01*
X0138461Y0211656D01*
X0138475Y0211492D01*
X0138485Y0211328D01*
X0138491Y0211164D01*
X0138493Y0211000D01*
X0138491Y0210836D01*
X0138485Y0210672D01*
X0138475Y0210508D01*
X0138461Y0210344D01*
X0138443Y0210181D01*
X0138421Y0210018D01*
X0138394Y0209856D01*
X0138364Y0209694D01*
X0138330Y0209534D01*
X0138292Y0209374D01*
X0138251Y0209215D01*
X0138205Y0209057D01*
X0138155Y0208901D01*
X0138102Y0208745D01*
X0138045Y0208591D01*
X0137984Y0208439D01*
X0137919Y0208288D01*
X0137850Y0208138D01*
X0137778Y0207991D01*
X0137703Y0207845D01*
X0137623Y0207701D01*
X0137541Y0207559D01*
X0137455Y0207419D01*
X0137365Y0207282D01*
X0137272Y0207146D01*
X0137176Y0207013D01*
X0137076Y0206882D01*
X0136974Y0206754D01*
X0136868Y0206628D01*
X0136759Y0206505D01*
X0136647Y0206385D01*
X0136533Y0206267D01*
X0136415Y0206153D01*
X0136295Y0206041D01*
X0136172Y0205932D01*
X0136046Y0205826D01*
X0135918Y0205724D01*
X0135787Y0205624D01*
X0135654Y0205528D01*
X0135518Y0205435D01*
X0135381Y0205345D01*
X0135241Y0205259D01*
X0135099Y0205177D01*
X0134955Y0205097D01*
X0134809Y0205022D01*
X0134662Y0204950D01*
X0134512Y0204881D01*
X0134361Y0204816D01*
X0134209Y0204755D01*
X0134055Y0204698D01*
X0133899Y0204645D01*
X0133743Y0204595D01*
X0133585Y0204549D01*
X0133426Y0204508D01*
X0133266Y0204470D01*
X0133106Y0204436D01*
X0132944Y0204406D01*
X0132782Y0204379D01*
X0132619Y0204357D01*
X0132456Y0204339D01*
X0132292Y0204325D01*
X0132128Y0204315D01*
X0131964Y0204309D01*
X0131800Y0204307D01*
X0131636Y0204309D01*
X0131472Y0204315D01*
X0131308Y0204325D01*
X0131144Y0204339D01*
X0130981Y0204357D01*
X0130818Y0204379D01*
X0130656Y0204406D01*
X0130494Y0204436D01*
X0130334Y0204470D01*
X0130174Y0204508D01*
X0130015Y0204549D01*
X0129857Y0204595D01*
X0129701Y0204645D01*
X0129545Y0204698D01*
X0129391Y0204755D01*
X0129239Y0204816D01*
X0129088Y0204881D01*
X0128938Y0204950D01*
X0128791Y0205022D01*
X0128645Y0205097D01*
X0128501Y0205177D01*
X0128359Y0205259D01*
X0128219Y0205345D01*
X0128082Y0205435D01*
X0127946Y0205528D01*
X0127813Y0205624D01*
X0127682Y0205724D01*
X0127554Y0205826D01*
X0127428Y0205932D01*
X0127305Y0206041D01*
X0127185Y0206153D01*
X0127067Y0206267D01*
X0126953Y0206385D01*
X0126841Y0206505D01*
X0126732Y0206628D01*
X0126626Y0206754D01*
X0126524Y0206882D01*
X0126424Y0207013D01*
X0126328Y0207146D01*
X0126235Y0207282D01*
X0126145Y0207419D01*
X0126059Y0207559D01*
X0125977Y0207701D01*
X0125897Y0207845D01*
X0125822Y0207991D01*
X0125750Y0208138D01*
X0125681Y0208288D01*
X0125616Y0208439D01*
X0125555Y0208591D01*
X0125498Y0208745D01*
X0125445Y0208901D01*
X0125395Y0209057D01*
X0125349Y0209215D01*
X0125308Y0209374D01*
X0125270Y0209534D01*
X0125236Y0209694D01*
X0125206Y0209856D01*
X0125179Y0210018D01*
X0125157Y0210181D01*
X0125139Y0210344D01*
X0125125Y0210508D01*
X0125115Y0210672D01*
X0125109Y0210836D01*
X0125107Y0211000D01*
X0020107Y0021000D02*
X0020109Y0021164D01*
X0020115Y0021328D01*
X0020125Y0021492D01*
X0020139Y0021656D01*
X0020157Y0021819D01*
X0020179Y0021982D01*
X0020206Y0022144D01*
X0020236Y0022306D01*
X0020270Y0022466D01*
X0020308Y0022626D01*
X0020349Y0022785D01*
X0020395Y0022943D01*
X0020445Y0023099D01*
X0020498Y0023255D01*
X0020555Y0023409D01*
X0020616Y0023561D01*
X0020681Y0023712D01*
X0020750Y0023862D01*
X0020822Y0024009D01*
X0020897Y0024155D01*
X0020977Y0024299D01*
X0021059Y0024441D01*
X0021145Y0024581D01*
X0021235Y0024718D01*
X0021328Y0024854D01*
X0021424Y0024987D01*
X0021524Y0025118D01*
X0021626Y0025246D01*
X0021732Y0025372D01*
X0021841Y0025495D01*
X0021953Y0025615D01*
X0022067Y0025733D01*
X0022185Y0025847D01*
X0022305Y0025959D01*
X0022428Y0026068D01*
X0022554Y0026174D01*
X0022682Y0026276D01*
X0022813Y0026376D01*
X0022946Y0026472D01*
X0023082Y0026565D01*
X0023219Y0026655D01*
X0023359Y0026741D01*
X0023501Y0026823D01*
X0023645Y0026903D01*
X0023791Y0026978D01*
X0023938Y0027050D01*
X0024088Y0027119D01*
X0024239Y0027184D01*
X0024391Y0027245D01*
X0024545Y0027302D01*
X0024701Y0027355D01*
X0024857Y0027405D01*
X0025015Y0027451D01*
X0025174Y0027492D01*
X0025334Y0027530D01*
X0025494Y0027564D01*
X0025656Y0027594D01*
X0025818Y0027621D01*
X0025981Y0027643D01*
X0026144Y0027661D01*
X0026308Y0027675D01*
X0026472Y0027685D01*
X0026636Y0027691D01*
X0026800Y0027693D01*
X0026964Y0027691D01*
X0027128Y0027685D01*
X0027292Y0027675D01*
X0027456Y0027661D01*
X0027619Y0027643D01*
X0027782Y0027621D01*
X0027944Y0027594D01*
X0028106Y0027564D01*
X0028266Y0027530D01*
X0028426Y0027492D01*
X0028585Y0027451D01*
X0028743Y0027405D01*
X0028899Y0027355D01*
X0029055Y0027302D01*
X0029209Y0027245D01*
X0029361Y0027184D01*
X0029512Y0027119D01*
X0029662Y0027050D01*
X0029809Y0026978D01*
X0029955Y0026903D01*
X0030099Y0026823D01*
X0030241Y0026741D01*
X0030381Y0026655D01*
X0030518Y0026565D01*
X0030654Y0026472D01*
X0030787Y0026376D01*
X0030918Y0026276D01*
X0031046Y0026174D01*
X0031172Y0026068D01*
X0031295Y0025959D01*
X0031415Y0025847D01*
X0031533Y0025733D01*
X0031647Y0025615D01*
X0031759Y0025495D01*
X0031868Y0025372D01*
X0031974Y0025246D01*
X0032076Y0025118D01*
X0032176Y0024987D01*
X0032272Y0024854D01*
X0032365Y0024718D01*
X0032455Y0024581D01*
X0032541Y0024441D01*
X0032623Y0024299D01*
X0032703Y0024155D01*
X0032778Y0024009D01*
X0032850Y0023862D01*
X0032919Y0023712D01*
X0032984Y0023561D01*
X0033045Y0023409D01*
X0033102Y0023255D01*
X0033155Y0023099D01*
X0033205Y0022943D01*
X0033251Y0022785D01*
X0033292Y0022626D01*
X0033330Y0022466D01*
X0033364Y0022306D01*
X0033394Y0022144D01*
X0033421Y0021982D01*
X0033443Y0021819D01*
X0033461Y0021656D01*
X0033475Y0021492D01*
X0033485Y0021328D01*
X0033491Y0021164D01*
X0033493Y0021000D01*
X0033491Y0020836D01*
X0033485Y0020672D01*
X0033475Y0020508D01*
X0033461Y0020344D01*
X0033443Y0020181D01*
X0033421Y0020018D01*
X0033394Y0019856D01*
X0033364Y0019694D01*
X0033330Y0019534D01*
X0033292Y0019374D01*
X0033251Y0019215D01*
X0033205Y0019057D01*
X0033155Y0018901D01*
X0033102Y0018745D01*
X0033045Y0018591D01*
X0032984Y0018439D01*
X0032919Y0018288D01*
X0032850Y0018138D01*
X0032778Y0017991D01*
X0032703Y0017845D01*
X0032623Y0017701D01*
X0032541Y0017559D01*
X0032455Y0017419D01*
X0032365Y0017282D01*
X0032272Y0017146D01*
X0032176Y0017013D01*
X0032076Y0016882D01*
X0031974Y0016754D01*
X0031868Y0016628D01*
X0031759Y0016505D01*
X0031647Y0016385D01*
X0031533Y0016267D01*
X0031415Y0016153D01*
X0031295Y0016041D01*
X0031172Y0015932D01*
X0031046Y0015826D01*
X0030918Y0015724D01*
X0030787Y0015624D01*
X0030654Y0015528D01*
X0030518Y0015435D01*
X0030381Y0015345D01*
X0030241Y0015259D01*
X0030099Y0015177D01*
X0029955Y0015097D01*
X0029809Y0015022D01*
X0029662Y0014950D01*
X0029512Y0014881D01*
X0029361Y0014816D01*
X0029209Y0014755D01*
X0029055Y0014698D01*
X0028899Y0014645D01*
X0028743Y0014595D01*
X0028585Y0014549D01*
X0028426Y0014508D01*
X0028266Y0014470D01*
X0028106Y0014436D01*
X0027944Y0014406D01*
X0027782Y0014379D01*
X0027619Y0014357D01*
X0027456Y0014339D01*
X0027292Y0014325D01*
X0027128Y0014315D01*
X0026964Y0014309D01*
X0026800Y0014307D01*
X0026636Y0014309D01*
X0026472Y0014315D01*
X0026308Y0014325D01*
X0026144Y0014339D01*
X0025981Y0014357D01*
X0025818Y0014379D01*
X0025656Y0014406D01*
X0025494Y0014436D01*
X0025334Y0014470D01*
X0025174Y0014508D01*
X0025015Y0014549D01*
X0024857Y0014595D01*
X0024701Y0014645D01*
X0024545Y0014698D01*
X0024391Y0014755D01*
X0024239Y0014816D01*
X0024088Y0014881D01*
X0023938Y0014950D01*
X0023791Y0015022D01*
X0023645Y0015097D01*
X0023501Y0015177D01*
X0023359Y0015259D01*
X0023219Y0015345D01*
X0023082Y0015435D01*
X0022946Y0015528D01*
X0022813Y0015624D01*
X0022682Y0015724D01*
X0022554Y0015826D01*
X0022428Y0015932D01*
X0022305Y0016041D01*
X0022185Y0016153D01*
X0022067Y0016267D01*
X0021953Y0016385D01*
X0021841Y0016505D01*
X0021732Y0016628D01*
X0021626Y0016754D01*
X0021524Y0016882D01*
X0021424Y0017013D01*
X0021328Y0017146D01*
X0021235Y0017282D01*
X0021145Y0017419D01*
X0021059Y0017559D01*
X0020977Y0017701D01*
X0020897Y0017845D01*
X0020822Y0017991D01*
X0020750Y0018138D01*
X0020681Y0018288D01*
X0020616Y0018439D01*
X0020555Y0018591D01*
X0020498Y0018745D01*
X0020445Y0018901D01*
X0020395Y0019057D01*
X0020349Y0019215D01*
X0020308Y0019374D01*
X0020270Y0019534D01*
X0020236Y0019694D01*
X0020206Y0019856D01*
X0020179Y0020018D01*
X0020157Y0020181D01*
X0020139Y0020344D01*
X0020125Y0020508D01*
X0020115Y0020672D01*
X0020109Y0020836D01*
X0020107Y0021000D01*
D15*
X0120447Y0054267D02*
X0121064Y0053650D01*
X0123533Y0053650D01*
X0124150Y0054267D01*
X0124150Y0055502D01*
X0123533Y0056119D01*
X0121064Y0056119D01*
X0120447Y0055502D01*
X0120447Y0054267D01*
X0120447Y0057333D02*
X0121681Y0058568D01*
X0120447Y0059802D01*
X0124150Y0059802D01*
X0124150Y0061016D02*
X0120447Y0061016D01*
X0120447Y0062868D01*
X0121064Y0063485D01*
X0122298Y0063485D01*
X0122916Y0062868D01*
X0122916Y0061016D01*
X0122916Y0062251D02*
X0124150Y0063485D01*
X0123533Y0064699D02*
X0124150Y0065317D01*
X0124150Y0066551D01*
X0123533Y0067168D01*
X0121064Y0067168D01*
X0120447Y0066551D01*
X0120447Y0065317D01*
X0121064Y0064699D01*
X0123533Y0064699D01*
X0124150Y0068383D02*
X0120447Y0068383D01*
X0124150Y0070851D01*
X0120447Y0070851D01*
X0122298Y0072066D02*
X0122298Y0074534D01*
X0121064Y0075749D02*
X0123533Y0075749D01*
X0124150Y0076366D01*
X0124150Y0077600D01*
X0123533Y0078218D01*
X0122298Y0078218D01*
X0122298Y0076983D01*
X0121064Y0075749D02*
X0120447Y0076366D01*
X0120447Y0077600D01*
X0121064Y0078218D01*
X0121064Y0079432D02*
X0120447Y0080049D01*
X0120447Y0081284D01*
X0121064Y0081901D01*
X0121681Y0081901D01*
X0122298Y0081284D01*
X0122916Y0081901D01*
X0123533Y0081901D01*
X0124150Y0081284D01*
X0124150Y0080049D01*
X0123533Y0079432D01*
X0122298Y0080666D02*
X0122298Y0081284D01*
X0120447Y0083115D02*
X0121681Y0084350D01*
X0120447Y0085584D01*
X0124150Y0085584D01*
X0124150Y0086798D02*
X0124150Y0088650D01*
X0123533Y0089267D01*
X0122916Y0089267D01*
X0122298Y0088650D01*
X0122298Y0086798D01*
X0120447Y0086798D02*
X0120447Y0088650D01*
X0121064Y0089267D01*
X0121681Y0089267D01*
X0122298Y0088650D01*
X0122298Y0090481D02*
X0122298Y0092950D01*
X0121064Y0094165D02*
X0120447Y0094782D01*
X0120447Y0096016D01*
X0121064Y0096633D01*
X0121681Y0096633D01*
X0124150Y0094165D01*
X0124150Y0096633D01*
X0123533Y0097848D02*
X0121064Y0100317D01*
X0123533Y0100317D01*
X0124150Y0099699D01*
X0124150Y0098465D01*
X0123533Y0097848D01*
X0121064Y0097848D01*
X0120447Y0098465D01*
X0120447Y0099699D01*
X0121064Y0100317D01*
X0121064Y0101531D02*
X0120447Y0102148D01*
X0120447Y0103382D01*
X0121064Y0104000D01*
X0121681Y0104000D01*
X0124150Y0101531D01*
X0124150Y0104000D01*
X0124150Y0105214D02*
X0120447Y0105214D01*
X0120447Y0107066D01*
X0121064Y0107683D01*
X0122298Y0107683D01*
X0122916Y0107066D01*
X0122916Y0105214D01*
X0124150Y0086798D02*
X0120447Y0086798D01*
X0120447Y0083115D02*
X0124150Y0083115D01*
X0124150Y0057333D02*
X0120447Y0057333D01*
D16*
X0116800Y0139300D03*
X0104300Y0139300D03*
X0104300Y0167700D03*
X0116800Y0167700D03*
D17*
X0110100Y0186000D03*
X0138500Y0186000D03*
D18*
X0110550Y0126500D02*
X0110358Y0126498D01*
X0110166Y0126491D01*
X0109974Y0126479D01*
X0109782Y0126463D01*
X0109591Y0126442D01*
X0109401Y0126417D01*
X0109211Y0126387D01*
X0109022Y0126353D01*
X0108834Y0126314D01*
X0108647Y0126270D01*
X0108461Y0126222D01*
X0108276Y0126170D01*
X0108092Y0126113D01*
X0107910Y0126052D01*
X0107730Y0125986D01*
X0107551Y0125916D01*
X0107373Y0125842D01*
X0107198Y0125764D01*
X0107024Y0125681D01*
X0106853Y0125594D01*
X0106684Y0125504D01*
X0106517Y0125409D01*
X0106352Y0125310D01*
X0106189Y0125207D01*
X0106030Y0125100D01*
X0105872Y0124990D01*
X0105718Y0124876D01*
X0105566Y0124758D01*
X0105417Y0124636D01*
X0105271Y0124511D01*
X0105129Y0124383D01*
X0104989Y0124251D01*
X0104852Y0124116D01*
X0104719Y0123977D01*
X0104589Y0123836D01*
X0104463Y0123691D01*
X0104340Y0123543D01*
X0104221Y0123393D01*
X0104105Y0123239D01*
X0103993Y0123083D01*
X0103885Y0122924D01*
X0103780Y0122763D01*
X0103680Y0122599D01*
X0103584Y0122433D01*
X0103491Y0122265D01*
X0103604Y0114531D02*
X0103703Y0114362D01*
X0103807Y0114196D01*
X0103914Y0114032D01*
X0104025Y0113871D01*
X0104140Y0113713D01*
X0104259Y0113558D01*
X0104382Y0113405D01*
X0104508Y0113256D01*
X0104638Y0113110D01*
X0104772Y0112967D01*
X0104909Y0112827D01*
X0105049Y0112691D01*
X0105193Y0112558D01*
X0105340Y0112429D01*
X0105490Y0112303D01*
X0105643Y0112182D01*
X0105799Y0112063D01*
X0105958Y0111949D01*
X0106119Y0111839D01*
X0106284Y0111733D01*
X0106450Y0111630D01*
X0106620Y0111532D01*
X0106791Y0111438D01*
X0106965Y0111348D01*
X0107141Y0111263D01*
X0107319Y0111181D01*
X0107499Y0111105D01*
X0107681Y0111032D01*
X0107864Y0110964D01*
X0108049Y0110901D01*
X0108236Y0110842D01*
X0108424Y0110788D01*
X0108613Y0110738D01*
X0108803Y0110693D01*
X0108995Y0110653D01*
X0109187Y0110617D01*
X0109380Y0110586D01*
X0109574Y0110560D01*
X0109769Y0110538D01*
X0109964Y0110522D01*
X0110159Y0110510D01*
X0110355Y0110502D01*
X0110550Y0110500D01*
X0110743Y0110502D01*
X0110936Y0110509D01*
X0111128Y0110521D01*
X0111321Y0110537D01*
X0111513Y0110558D01*
X0111704Y0110584D01*
X0111894Y0110614D01*
X0112084Y0110649D01*
X0112273Y0110688D01*
X0112461Y0110732D01*
X0112648Y0110780D01*
X0112834Y0110833D01*
X0113018Y0110890D01*
X0113201Y0110952D01*
X0113382Y0111018D01*
X0113562Y0111089D01*
X0113740Y0111163D01*
X0113916Y0111242D01*
X0114090Y0111326D01*
X0114262Y0111413D01*
X0114432Y0111505D01*
X0114599Y0111601D01*
X0114765Y0111700D01*
X0114928Y0111804D01*
X0115088Y0111911D01*
X0115245Y0112023D01*
X0115400Y0112138D01*
X0115552Y0112257D01*
X0115701Y0112379D01*
X0115848Y0112505D01*
X0115991Y0112635D01*
X0116131Y0112768D01*
X0116267Y0112904D01*
X0116401Y0113044D01*
X0116530Y0113186D01*
X0116657Y0113332D01*
X0116696Y0123622D02*
X0116569Y0123770D01*
X0116439Y0123915D01*
X0116306Y0124056D01*
X0116169Y0124195D01*
X0116029Y0124330D01*
X0115885Y0124461D01*
X0115738Y0124589D01*
X0115589Y0124714D01*
X0115436Y0124835D01*
X0115281Y0124952D01*
X0115122Y0125065D01*
X0114961Y0125174D01*
X0114797Y0125279D01*
X0114631Y0125381D01*
X0114462Y0125478D01*
X0114292Y0125571D01*
X0114118Y0125660D01*
X0113943Y0125745D01*
X0113766Y0125825D01*
X0113587Y0125901D01*
X0113406Y0125973D01*
X0113223Y0126040D01*
X0113039Y0126103D01*
X0112853Y0126161D01*
X0112666Y0126215D01*
X0112478Y0126264D01*
X0112288Y0126309D01*
X0112098Y0126349D01*
X0111906Y0126384D01*
X0111714Y0126415D01*
X0111521Y0126441D01*
X0111327Y0126462D01*
X0111133Y0126479D01*
X0110939Y0126491D01*
X0110745Y0126498D01*
X0110550Y0126500D01*
M02*
