%
M48
M72
T01C0.0315
T02C0.0320
T03C0.0394
T04C0.0470
T05C0.1260
%
T01
X2540Y6600
X4540Y6600
X4540Y17372
X8540Y17320
T02
X10430Y18600
X10430Y17350
X11680Y17350
X12930Y16350
X13680Y15850
X13680Y16850
X14430Y18600
X11680Y13350
X11555Y11850
X10555Y11850
X10430Y13350
T03
X13180Y6100
X13180Y9100
X13180Y13100
X13180Y14100
T04
X2180Y21350
X4180Y21350
X7180Y21350
X9180Y21350
X6680Y1850
X8680Y1850
X11680Y1850
X13680Y1850
T05
X2680Y2100
X13180Y21100
M30
