G75*
%MOIN*%
%OFA0B0*%
%FSLAX25Y25*%
%IPPOS*%
%LPD*%
%AMOC8*
5,1,8,0,0,1.08239X$1,22.5*
%
%ADD10C,0.00000*%
%ADD11C,0.07050*%
%ADD12C,0.07000*%
%ADD13OC8,0.05200*%
%ADD14OC8,0.06600*%
%ADD15C,0.01600*%
%ADD16C,0.20000*%
%ADD17C,0.02400*%
D10*
X0006800Y0001000D02*
X0006800Y0230961D01*
X0150501Y0230961D01*
X0150501Y0001000D01*
X0006800Y0001000D01*
X0020501Y0021000D02*
X0020503Y0021158D01*
X0020509Y0021316D01*
X0020519Y0021474D01*
X0020533Y0021632D01*
X0020551Y0021789D01*
X0020572Y0021946D01*
X0020598Y0022102D01*
X0020628Y0022258D01*
X0020661Y0022413D01*
X0020699Y0022566D01*
X0020740Y0022719D01*
X0020785Y0022871D01*
X0020834Y0023022D01*
X0020887Y0023171D01*
X0020943Y0023319D01*
X0021003Y0023465D01*
X0021067Y0023610D01*
X0021135Y0023753D01*
X0021206Y0023895D01*
X0021280Y0024035D01*
X0021358Y0024172D01*
X0021440Y0024308D01*
X0021524Y0024442D01*
X0021613Y0024573D01*
X0021704Y0024702D01*
X0021799Y0024829D01*
X0021896Y0024954D01*
X0021997Y0025076D01*
X0022101Y0025195D01*
X0022208Y0025312D01*
X0022318Y0025426D01*
X0022431Y0025537D01*
X0022546Y0025646D01*
X0022664Y0025751D01*
X0022785Y0025853D01*
X0022908Y0025953D01*
X0023034Y0026049D01*
X0023162Y0026142D01*
X0023292Y0026232D01*
X0023425Y0026318D01*
X0023560Y0026402D01*
X0023696Y0026481D01*
X0023835Y0026558D01*
X0023976Y0026630D01*
X0024118Y0026700D01*
X0024262Y0026765D01*
X0024408Y0026827D01*
X0024555Y0026885D01*
X0024704Y0026940D01*
X0024854Y0026991D01*
X0025005Y0027038D01*
X0025157Y0027081D01*
X0025310Y0027120D01*
X0025465Y0027156D01*
X0025620Y0027187D01*
X0025776Y0027215D01*
X0025932Y0027239D01*
X0026089Y0027259D01*
X0026247Y0027275D01*
X0026404Y0027287D01*
X0026563Y0027295D01*
X0026721Y0027299D01*
X0026879Y0027299D01*
X0027037Y0027295D01*
X0027196Y0027287D01*
X0027353Y0027275D01*
X0027511Y0027259D01*
X0027668Y0027239D01*
X0027824Y0027215D01*
X0027980Y0027187D01*
X0028135Y0027156D01*
X0028290Y0027120D01*
X0028443Y0027081D01*
X0028595Y0027038D01*
X0028746Y0026991D01*
X0028896Y0026940D01*
X0029045Y0026885D01*
X0029192Y0026827D01*
X0029338Y0026765D01*
X0029482Y0026700D01*
X0029624Y0026630D01*
X0029765Y0026558D01*
X0029904Y0026481D01*
X0030040Y0026402D01*
X0030175Y0026318D01*
X0030308Y0026232D01*
X0030438Y0026142D01*
X0030566Y0026049D01*
X0030692Y0025953D01*
X0030815Y0025853D01*
X0030936Y0025751D01*
X0031054Y0025646D01*
X0031169Y0025537D01*
X0031282Y0025426D01*
X0031392Y0025312D01*
X0031499Y0025195D01*
X0031603Y0025076D01*
X0031704Y0024954D01*
X0031801Y0024829D01*
X0031896Y0024702D01*
X0031987Y0024573D01*
X0032076Y0024442D01*
X0032160Y0024308D01*
X0032242Y0024172D01*
X0032320Y0024035D01*
X0032394Y0023895D01*
X0032465Y0023753D01*
X0032533Y0023610D01*
X0032597Y0023465D01*
X0032657Y0023319D01*
X0032713Y0023171D01*
X0032766Y0023022D01*
X0032815Y0022871D01*
X0032860Y0022719D01*
X0032901Y0022566D01*
X0032939Y0022413D01*
X0032972Y0022258D01*
X0033002Y0022102D01*
X0033028Y0021946D01*
X0033049Y0021789D01*
X0033067Y0021632D01*
X0033081Y0021474D01*
X0033091Y0021316D01*
X0033097Y0021158D01*
X0033099Y0021000D01*
X0033097Y0020842D01*
X0033091Y0020684D01*
X0033081Y0020526D01*
X0033067Y0020368D01*
X0033049Y0020211D01*
X0033028Y0020054D01*
X0033002Y0019898D01*
X0032972Y0019742D01*
X0032939Y0019587D01*
X0032901Y0019434D01*
X0032860Y0019281D01*
X0032815Y0019129D01*
X0032766Y0018978D01*
X0032713Y0018829D01*
X0032657Y0018681D01*
X0032597Y0018535D01*
X0032533Y0018390D01*
X0032465Y0018247D01*
X0032394Y0018105D01*
X0032320Y0017965D01*
X0032242Y0017828D01*
X0032160Y0017692D01*
X0032076Y0017558D01*
X0031987Y0017427D01*
X0031896Y0017298D01*
X0031801Y0017171D01*
X0031704Y0017046D01*
X0031603Y0016924D01*
X0031499Y0016805D01*
X0031392Y0016688D01*
X0031282Y0016574D01*
X0031169Y0016463D01*
X0031054Y0016354D01*
X0030936Y0016249D01*
X0030815Y0016147D01*
X0030692Y0016047D01*
X0030566Y0015951D01*
X0030438Y0015858D01*
X0030308Y0015768D01*
X0030175Y0015682D01*
X0030040Y0015598D01*
X0029904Y0015519D01*
X0029765Y0015442D01*
X0029624Y0015370D01*
X0029482Y0015300D01*
X0029338Y0015235D01*
X0029192Y0015173D01*
X0029045Y0015115D01*
X0028896Y0015060D01*
X0028746Y0015009D01*
X0028595Y0014962D01*
X0028443Y0014919D01*
X0028290Y0014880D01*
X0028135Y0014844D01*
X0027980Y0014813D01*
X0027824Y0014785D01*
X0027668Y0014761D01*
X0027511Y0014741D01*
X0027353Y0014725D01*
X0027196Y0014713D01*
X0027037Y0014705D01*
X0026879Y0014701D01*
X0026721Y0014701D01*
X0026563Y0014705D01*
X0026404Y0014713D01*
X0026247Y0014725D01*
X0026089Y0014741D01*
X0025932Y0014761D01*
X0025776Y0014785D01*
X0025620Y0014813D01*
X0025465Y0014844D01*
X0025310Y0014880D01*
X0025157Y0014919D01*
X0025005Y0014962D01*
X0024854Y0015009D01*
X0024704Y0015060D01*
X0024555Y0015115D01*
X0024408Y0015173D01*
X0024262Y0015235D01*
X0024118Y0015300D01*
X0023976Y0015370D01*
X0023835Y0015442D01*
X0023696Y0015519D01*
X0023560Y0015598D01*
X0023425Y0015682D01*
X0023292Y0015768D01*
X0023162Y0015858D01*
X0023034Y0015951D01*
X0022908Y0016047D01*
X0022785Y0016147D01*
X0022664Y0016249D01*
X0022546Y0016354D01*
X0022431Y0016463D01*
X0022318Y0016574D01*
X0022208Y0016688D01*
X0022101Y0016805D01*
X0021997Y0016924D01*
X0021896Y0017046D01*
X0021799Y0017171D01*
X0021704Y0017298D01*
X0021613Y0017427D01*
X0021524Y0017558D01*
X0021440Y0017692D01*
X0021358Y0017828D01*
X0021280Y0017965D01*
X0021206Y0018105D01*
X0021135Y0018247D01*
X0021067Y0018390D01*
X0021003Y0018535D01*
X0020943Y0018681D01*
X0020887Y0018829D01*
X0020834Y0018978D01*
X0020785Y0019129D01*
X0020740Y0019281D01*
X0020699Y0019434D01*
X0020661Y0019587D01*
X0020628Y0019742D01*
X0020598Y0019898D01*
X0020572Y0020054D01*
X0020551Y0020211D01*
X0020533Y0020368D01*
X0020519Y0020526D01*
X0020509Y0020684D01*
X0020503Y0020842D01*
X0020501Y0021000D01*
X0125501Y0211000D02*
X0125503Y0211158D01*
X0125509Y0211316D01*
X0125519Y0211474D01*
X0125533Y0211632D01*
X0125551Y0211789D01*
X0125572Y0211946D01*
X0125598Y0212102D01*
X0125628Y0212258D01*
X0125661Y0212413D01*
X0125699Y0212566D01*
X0125740Y0212719D01*
X0125785Y0212871D01*
X0125834Y0213022D01*
X0125887Y0213171D01*
X0125943Y0213319D01*
X0126003Y0213465D01*
X0126067Y0213610D01*
X0126135Y0213753D01*
X0126206Y0213895D01*
X0126280Y0214035D01*
X0126358Y0214172D01*
X0126440Y0214308D01*
X0126524Y0214442D01*
X0126613Y0214573D01*
X0126704Y0214702D01*
X0126799Y0214829D01*
X0126896Y0214954D01*
X0126997Y0215076D01*
X0127101Y0215195D01*
X0127208Y0215312D01*
X0127318Y0215426D01*
X0127431Y0215537D01*
X0127546Y0215646D01*
X0127664Y0215751D01*
X0127785Y0215853D01*
X0127908Y0215953D01*
X0128034Y0216049D01*
X0128162Y0216142D01*
X0128292Y0216232D01*
X0128425Y0216318D01*
X0128560Y0216402D01*
X0128696Y0216481D01*
X0128835Y0216558D01*
X0128976Y0216630D01*
X0129118Y0216700D01*
X0129262Y0216765D01*
X0129408Y0216827D01*
X0129555Y0216885D01*
X0129704Y0216940D01*
X0129854Y0216991D01*
X0130005Y0217038D01*
X0130157Y0217081D01*
X0130310Y0217120D01*
X0130465Y0217156D01*
X0130620Y0217187D01*
X0130776Y0217215D01*
X0130932Y0217239D01*
X0131089Y0217259D01*
X0131247Y0217275D01*
X0131404Y0217287D01*
X0131563Y0217295D01*
X0131721Y0217299D01*
X0131879Y0217299D01*
X0132037Y0217295D01*
X0132196Y0217287D01*
X0132353Y0217275D01*
X0132511Y0217259D01*
X0132668Y0217239D01*
X0132824Y0217215D01*
X0132980Y0217187D01*
X0133135Y0217156D01*
X0133290Y0217120D01*
X0133443Y0217081D01*
X0133595Y0217038D01*
X0133746Y0216991D01*
X0133896Y0216940D01*
X0134045Y0216885D01*
X0134192Y0216827D01*
X0134338Y0216765D01*
X0134482Y0216700D01*
X0134624Y0216630D01*
X0134765Y0216558D01*
X0134904Y0216481D01*
X0135040Y0216402D01*
X0135175Y0216318D01*
X0135308Y0216232D01*
X0135438Y0216142D01*
X0135566Y0216049D01*
X0135692Y0215953D01*
X0135815Y0215853D01*
X0135936Y0215751D01*
X0136054Y0215646D01*
X0136169Y0215537D01*
X0136282Y0215426D01*
X0136392Y0215312D01*
X0136499Y0215195D01*
X0136603Y0215076D01*
X0136704Y0214954D01*
X0136801Y0214829D01*
X0136896Y0214702D01*
X0136987Y0214573D01*
X0137076Y0214442D01*
X0137160Y0214308D01*
X0137242Y0214172D01*
X0137320Y0214035D01*
X0137394Y0213895D01*
X0137465Y0213753D01*
X0137533Y0213610D01*
X0137597Y0213465D01*
X0137657Y0213319D01*
X0137713Y0213171D01*
X0137766Y0213022D01*
X0137815Y0212871D01*
X0137860Y0212719D01*
X0137901Y0212566D01*
X0137939Y0212413D01*
X0137972Y0212258D01*
X0138002Y0212102D01*
X0138028Y0211946D01*
X0138049Y0211789D01*
X0138067Y0211632D01*
X0138081Y0211474D01*
X0138091Y0211316D01*
X0138097Y0211158D01*
X0138099Y0211000D01*
X0138097Y0210842D01*
X0138091Y0210684D01*
X0138081Y0210526D01*
X0138067Y0210368D01*
X0138049Y0210211D01*
X0138028Y0210054D01*
X0138002Y0209898D01*
X0137972Y0209742D01*
X0137939Y0209587D01*
X0137901Y0209434D01*
X0137860Y0209281D01*
X0137815Y0209129D01*
X0137766Y0208978D01*
X0137713Y0208829D01*
X0137657Y0208681D01*
X0137597Y0208535D01*
X0137533Y0208390D01*
X0137465Y0208247D01*
X0137394Y0208105D01*
X0137320Y0207965D01*
X0137242Y0207828D01*
X0137160Y0207692D01*
X0137076Y0207558D01*
X0136987Y0207427D01*
X0136896Y0207298D01*
X0136801Y0207171D01*
X0136704Y0207046D01*
X0136603Y0206924D01*
X0136499Y0206805D01*
X0136392Y0206688D01*
X0136282Y0206574D01*
X0136169Y0206463D01*
X0136054Y0206354D01*
X0135936Y0206249D01*
X0135815Y0206147D01*
X0135692Y0206047D01*
X0135566Y0205951D01*
X0135438Y0205858D01*
X0135308Y0205768D01*
X0135175Y0205682D01*
X0135040Y0205598D01*
X0134904Y0205519D01*
X0134765Y0205442D01*
X0134624Y0205370D01*
X0134482Y0205300D01*
X0134338Y0205235D01*
X0134192Y0205173D01*
X0134045Y0205115D01*
X0133896Y0205060D01*
X0133746Y0205009D01*
X0133595Y0204962D01*
X0133443Y0204919D01*
X0133290Y0204880D01*
X0133135Y0204844D01*
X0132980Y0204813D01*
X0132824Y0204785D01*
X0132668Y0204761D01*
X0132511Y0204741D01*
X0132353Y0204725D01*
X0132196Y0204713D01*
X0132037Y0204705D01*
X0131879Y0204701D01*
X0131721Y0204701D01*
X0131563Y0204705D01*
X0131404Y0204713D01*
X0131247Y0204725D01*
X0131089Y0204741D01*
X0130932Y0204761D01*
X0130776Y0204785D01*
X0130620Y0204813D01*
X0130465Y0204844D01*
X0130310Y0204880D01*
X0130157Y0204919D01*
X0130005Y0204962D01*
X0129854Y0205009D01*
X0129704Y0205060D01*
X0129555Y0205115D01*
X0129408Y0205173D01*
X0129262Y0205235D01*
X0129118Y0205300D01*
X0128976Y0205370D01*
X0128835Y0205442D01*
X0128696Y0205519D01*
X0128560Y0205598D01*
X0128425Y0205682D01*
X0128292Y0205768D01*
X0128162Y0205858D01*
X0128034Y0205951D01*
X0127908Y0206047D01*
X0127785Y0206147D01*
X0127664Y0206249D01*
X0127546Y0206354D01*
X0127431Y0206463D01*
X0127318Y0206574D01*
X0127208Y0206688D01*
X0127101Y0206805D01*
X0126997Y0206924D01*
X0126896Y0207046D01*
X0126799Y0207171D01*
X0126704Y0207298D01*
X0126613Y0207427D01*
X0126524Y0207558D01*
X0126440Y0207692D01*
X0126358Y0207828D01*
X0126280Y0207965D01*
X0126206Y0208105D01*
X0126135Y0208247D01*
X0126067Y0208390D01*
X0126003Y0208535D01*
X0125943Y0208681D01*
X0125887Y0208829D01*
X0125834Y0208978D01*
X0125785Y0209129D01*
X0125740Y0209281D01*
X0125699Y0209434D01*
X0125661Y0209587D01*
X0125628Y0209742D01*
X0125598Y0209898D01*
X0125572Y0210054D01*
X0125551Y0210211D01*
X0125533Y0210368D01*
X0125519Y0210526D01*
X0125509Y0210684D01*
X0125503Y0210842D01*
X0125501Y0211000D01*
D11*
X0091800Y0209975D02*
X0091800Y0217025D01*
X0071800Y0217025D02*
X0071800Y0209975D01*
X0041800Y0209975D02*
X0041800Y0217025D01*
X0021800Y0217025D02*
X0021800Y0209975D01*
X0066800Y0022025D02*
X0066800Y0014975D01*
X0086800Y0014975D02*
X0086800Y0022025D01*
X0116800Y0022025D02*
X0116800Y0014975D01*
X0136800Y0014975D02*
X0136800Y0022025D01*
D12*
X0131800Y0061000D03*
X0131800Y0091000D03*
X0131800Y0131000D03*
X0131800Y0141000D03*
X0085402Y0173205D03*
X0045402Y0173717D03*
X0045402Y0066000D03*
X0025402Y0066000D03*
D13*
X0105550Y0118500D03*
X0115550Y0118500D03*
X0136800Y0158500D03*
X0136800Y0168500D03*
X0129300Y0163500D03*
D14*
X0116800Y0173500D03*
X0104300Y0173500D03*
X0104300Y0186000D03*
X0104300Y0133500D03*
X0116800Y0133500D03*
X0144300Y0186000D03*
D15*
X0144300Y0186000D01*
X0144300Y0191100D01*
X0145701Y0191100D01*
X0145701Y0201578D01*
X0145681Y0201536D01*
X0145681Y0201536D01*
X0142275Y0197865D01*
X0142275Y0197865D01*
X0142275Y0197865D01*
X0137938Y0195361D01*
X0137938Y0195361D01*
X0133055Y0194247D01*
X0133055Y0194247D01*
X0128062Y0194621D01*
X0128062Y0194621D01*
X0123400Y0196451D01*
X0123400Y0196451D01*
X0119485Y0199573D01*
X0119485Y0199573D01*
X0119485Y0199573D01*
X0116664Y0203711D01*
X0116664Y0203711D01*
X0115188Y0208496D01*
X0115188Y0213504D01*
X0116664Y0218289D01*
X0116664Y0218289D01*
X0119485Y0222427D01*
X0119485Y0222427D01*
X0123400Y0225549D01*
X0123400Y0225549D01*
X0124958Y0226161D01*
X0011600Y0226161D01*
X0011600Y0126000D01*
X0102750Y0126000D01*
X0102750Y0128600D01*
X0102270Y0128600D01*
X0099400Y0131470D01*
X0099400Y0131940D01*
X0025207Y0206134D01*
X0024703Y0205630D01*
X0022819Y0204850D01*
X0020781Y0204850D01*
X0018897Y0205630D01*
X0017455Y0207072D01*
X0016675Y0208956D01*
X0016675Y0218044D01*
X0017455Y0219928D01*
X0018897Y0221370D01*
X0020781Y0222150D01*
X0022819Y0222150D01*
X0024703Y0221370D01*
X0026145Y0219928D01*
X0026925Y0218044D01*
X0026925Y0212335D01*
X0101565Y0137695D01*
X0102270Y0138400D01*
X0106330Y0138400D01*
X0109200Y0135530D01*
X0109200Y0131470D01*
X0108350Y0130620D01*
X0108350Y0126000D01*
X0112750Y0126000D01*
X0112750Y0130620D01*
X0111900Y0131470D01*
X0111900Y0135530D01*
X0114770Y0138400D01*
X0118830Y0138400D01*
X0121700Y0135530D01*
X0121700Y0131470D01*
X0118830Y0128600D01*
X0118350Y0128600D01*
X0118350Y0126000D01*
X0130544Y0126000D01*
X0128911Y0126676D01*
X0127476Y0128111D01*
X0126700Y0129986D01*
X0126700Y0132014D01*
X0126737Y0132103D01*
X0089125Y0169715D01*
X0088291Y0168881D01*
X0086417Y0168105D01*
X0084388Y0168105D01*
X0082513Y0168881D01*
X0081079Y0170316D01*
X0080302Y0172190D01*
X0080302Y0174219D01*
X0080339Y0174308D01*
X0069426Y0185221D01*
X0069000Y0186250D01*
X0069000Y0205588D01*
X0068897Y0205630D01*
X0067455Y0207072D01*
X0066675Y0208956D01*
X0066675Y0218044D01*
X0067455Y0219928D01*
X0068897Y0221370D01*
X0070781Y0222150D01*
X0072819Y0222150D01*
X0074703Y0221370D01*
X0076145Y0219928D01*
X0076925Y0218044D01*
X0076925Y0208956D01*
X0076145Y0207072D01*
X0074703Y0205630D01*
X0074600Y0205588D01*
X0074600Y0187967D01*
X0084299Y0178268D01*
X0084388Y0178305D01*
X0086417Y0178305D01*
X0088291Y0177528D01*
X0089726Y0176094D01*
X0089763Y0176005D01*
X0090152Y0176005D01*
X0091181Y0175578D01*
X0126700Y0140060D01*
X0126700Y0142014D01*
X0127476Y0143889D01*
X0128911Y0145324D01*
X0130786Y0146100D01*
X0132814Y0146100D01*
X0132903Y0146063D01*
X0134000Y0147160D01*
X0134000Y0155360D01*
X0132600Y0156760D01*
X0132600Y0160240D01*
X0135060Y0162700D01*
X0138540Y0162700D01*
X0141000Y0160240D01*
X0141000Y0156760D01*
X0139600Y0155360D01*
X0139600Y0145443D01*
X0139174Y0144414D01*
X0136863Y0142103D01*
X0136900Y0142014D01*
X0136900Y0139986D01*
X0136124Y0138111D01*
X0134689Y0136676D01*
X0133056Y0136000D01*
X0134689Y0135324D01*
X0136124Y0133889D01*
X0136900Y0132014D01*
X0136900Y0129986D01*
X0136124Y0128111D01*
X0134689Y0126676D01*
X0133056Y0126000D01*
X0145701Y0126000D01*
X0145701Y0180900D01*
X0144300Y0180900D01*
X0144300Y0186000D01*
X0144300Y0186000D01*
X0144300Y0186000D01*
X0139200Y0186000D01*
X0139200Y0188112D01*
X0142188Y0191100D01*
X0144300Y0191100D01*
X0144300Y0186000D01*
X0144300Y0180900D01*
X0142188Y0180900D01*
X0139200Y0183888D01*
X0139200Y0186000D01*
X0144300Y0186000D01*
X0144300Y0186427D02*
X0144300Y0186427D01*
X0144300Y0184829D02*
X0144300Y0184829D01*
X0144300Y0183230D02*
X0144300Y0183230D01*
X0144300Y0181632D02*
X0144300Y0181632D01*
X0145701Y0180033D02*
X0107100Y0180033D01*
X0107100Y0178435D02*
X0114522Y0178435D01*
X0114688Y0178600D02*
X0111700Y0175612D01*
X0111700Y0173500D01*
X0116800Y0173500D01*
X0116800Y0173500D01*
X0116800Y0178600D01*
X0118912Y0178600D01*
X0121900Y0175612D01*
X0121900Y0173500D01*
X0116800Y0173500D01*
X0116800Y0173500D01*
X0116800Y0173500D01*
X0116800Y0178600D01*
X0114688Y0178600D01*
X0112924Y0176836D02*
X0107893Y0176836D01*
X0107100Y0177630D02*
X0107100Y0181870D01*
X0109200Y0183970D01*
X0109200Y0188030D01*
X0106330Y0190900D01*
X0102270Y0190900D01*
X0099400Y0188030D01*
X0099400Y0183970D01*
X0101500Y0181870D01*
X0101500Y0177630D01*
X0099400Y0175530D01*
X0099400Y0171470D01*
X0101500Y0169370D01*
X0101500Y0167943D01*
X0101926Y0166914D01*
X0107714Y0161126D01*
X0108743Y0160700D01*
X0126160Y0160700D01*
X0127560Y0159300D01*
X0131040Y0159300D01*
X0133500Y0161760D01*
X0133500Y0165240D01*
X0131040Y0167700D01*
X0127560Y0167700D01*
X0126160Y0166300D01*
X0110460Y0166300D01*
X0107245Y0169515D01*
X0109200Y0171470D01*
X0109200Y0175530D01*
X0107100Y0177630D01*
X0109200Y0175238D02*
X0111700Y0175238D01*
X0111700Y0173639D02*
X0109200Y0173639D01*
X0109200Y0172041D02*
X0111700Y0172041D01*
X0111700Y0171388D02*
X0114688Y0168400D01*
X0116800Y0168400D01*
X0118912Y0168400D01*
X0121900Y0171388D01*
X0121900Y0173500D01*
X0116800Y0173500D01*
X0116800Y0168400D01*
X0116800Y0173500D01*
X0116800Y0173500D01*
X0111700Y0173500D01*
X0111700Y0171388D01*
X0112645Y0170442D02*
X0108172Y0170442D01*
X0107916Y0168844D02*
X0114244Y0168844D01*
X0116800Y0168844D02*
X0116800Y0168844D01*
X0116800Y0170442D02*
X0116800Y0170442D01*
X0116800Y0172041D02*
X0116800Y0172041D01*
X0116800Y0173639D02*
X0116800Y0173639D01*
X0116800Y0175238D02*
X0116800Y0175238D01*
X0116800Y0176836D02*
X0116800Y0176836D01*
X0116800Y0178435D02*
X0116800Y0178435D01*
X0119078Y0178435D02*
X0145701Y0178435D01*
X0145701Y0176836D02*
X0120676Y0176836D01*
X0121900Y0175238D02*
X0145701Y0175238D01*
X0145701Y0173639D02*
X0121900Y0173639D01*
X0121900Y0172041D02*
X0134118Y0172041D01*
X0134977Y0172900D02*
X0132400Y0170323D01*
X0132400Y0168500D01*
X0136800Y0168500D01*
X0136800Y0168500D01*
X0136800Y0172900D01*
X0138623Y0172900D01*
X0141200Y0170323D01*
X0141200Y0168500D01*
X0136800Y0168500D01*
X0136800Y0168500D01*
X0136800Y0168500D01*
X0136800Y0172900D01*
X0134977Y0172900D01*
X0132520Y0170442D02*
X0120955Y0170442D01*
X0119356Y0168844D02*
X0132400Y0168844D01*
X0132400Y0168500D02*
X0132400Y0166677D01*
X0134977Y0164100D01*
X0136800Y0164100D01*
X0138623Y0164100D01*
X0141200Y0166677D01*
X0141200Y0168500D01*
X0136800Y0168500D01*
X0136800Y0164100D01*
X0136800Y0168500D01*
X0136800Y0168500D01*
X0132400Y0168500D01*
X0132400Y0167245D02*
X0131495Y0167245D01*
X0133093Y0165647D02*
X0133431Y0165647D01*
X0133500Y0164048D02*
X0145701Y0164048D01*
X0145701Y0162450D02*
X0138790Y0162450D01*
X0140389Y0160851D02*
X0145701Y0160851D01*
X0145701Y0159253D02*
X0141000Y0159253D01*
X0141000Y0157654D02*
X0145701Y0157654D01*
X0145701Y0156056D02*
X0140295Y0156056D01*
X0139600Y0154457D02*
X0145701Y0154457D01*
X0145701Y0152859D02*
X0139600Y0152859D01*
X0139600Y0151260D02*
X0145701Y0151260D01*
X0145701Y0149662D02*
X0139600Y0149662D01*
X0139600Y0148063D02*
X0145701Y0148063D01*
X0145701Y0146465D02*
X0139600Y0146465D01*
X0139361Y0144866D02*
X0145701Y0144866D01*
X0145701Y0143268D02*
X0138027Y0143268D01*
X0136900Y0141669D02*
X0145701Y0141669D01*
X0145701Y0140070D02*
X0136900Y0140070D01*
X0136273Y0138472D02*
X0145701Y0138472D01*
X0145701Y0136873D02*
X0134886Y0136873D01*
X0134738Y0135275D02*
X0145701Y0135275D01*
X0145701Y0133676D02*
X0136212Y0133676D01*
X0136874Y0132078D02*
X0145701Y0132078D01*
X0145701Y0130479D02*
X0136900Y0130479D01*
X0136442Y0128881D02*
X0145701Y0128881D01*
X0145701Y0127282D02*
X0135295Y0127282D01*
X0128305Y0127282D02*
X0118350Y0127282D01*
X0119111Y0128881D02*
X0127158Y0128881D01*
X0126700Y0130479D02*
X0120709Y0130479D01*
X0121700Y0132078D02*
X0126726Y0132078D01*
X0125164Y0133676D02*
X0121700Y0133676D01*
X0121700Y0135275D02*
X0123565Y0135275D01*
X0121967Y0136873D02*
X0120356Y0136873D01*
X0120368Y0138472D02*
X0100788Y0138472D01*
X0099189Y0140070D02*
X0118770Y0140070D01*
X0117171Y0141669D02*
X0097591Y0141669D01*
X0095992Y0143268D02*
X0115573Y0143268D01*
X0113974Y0144866D02*
X0094394Y0144866D01*
X0092795Y0146465D02*
X0112376Y0146465D01*
X0110777Y0148063D02*
X0091197Y0148063D01*
X0089598Y0149662D02*
X0109179Y0149662D01*
X0107580Y0151260D02*
X0088000Y0151260D01*
X0086401Y0152859D02*
X0105982Y0152859D01*
X0104383Y0154457D02*
X0084803Y0154457D01*
X0083204Y0156056D02*
X0102785Y0156056D01*
X0101186Y0157654D02*
X0081606Y0157654D01*
X0080007Y0159253D02*
X0099588Y0159253D01*
X0097989Y0160851D02*
X0078409Y0160851D01*
X0076810Y0162450D02*
X0096391Y0162450D01*
X0094792Y0164048D02*
X0075212Y0164048D01*
X0073613Y0165647D02*
X0093194Y0165647D01*
X0091595Y0167245D02*
X0072015Y0167245D01*
X0070416Y0168844D02*
X0082604Y0168844D01*
X0081026Y0170442D02*
X0068818Y0170442D01*
X0067219Y0172041D02*
X0080364Y0172041D01*
X0080302Y0173639D02*
X0065621Y0173639D01*
X0064022Y0175238D02*
X0079410Y0175238D01*
X0077811Y0176836D02*
X0062424Y0176836D01*
X0060825Y0178435D02*
X0076213Y0178435D01*
X0074614Y0180033D02*
X0059227Y0180033D01*
X0057628Y0181632D02*
X0073016Y0181632D01*
X0071417Y0183230D02*
X0056029Y0183230D01*
X0054431Y0184829D02*
X0069818Y0184829D01*
X0069000Y0186427D02*
X0052832Y0186427D01*
X0051234Y0188026D02*
X0069000Y0188026D01*
X0069000Y0189624D02*
X0049635Y0189624D01*
X0048037Y0191223D02*
X0069000Y0191223D01*
X0069000Y0192821D02*
X0046438Y0192821D01*
X0044840Y0194420D02*
X0069000Y0194420D01*
X0069000Y0196018D02*
X0043241Y0196018D01*
X0041643Y0197617D02*
X0069000Y0197617D01*
X0069000Y0199215D02*
X0040044Y0199215D01*
X0038446Y0200814D02*
X0069000Y0200814D01*
X0069000Y0202412D02*
X0036847Y0202412D01*
X0035249Y0204011D02*
X0069000Y0204011D01*
X0068947Y0205609D02*
X0044851Y0205609D01*
X0044591Y0205421D02*
X0045269Y0205913D01*
X0045862Y0206506D01*
X0046354Y0207184D01*
X0046735Y0207931D01*
X0046994Y0208728D01*
X0047125Y0209556D01*
X0047125Y0213125D01*
X0042175Y0213125D01*
X0042175Y0213875D01*
X0041425Y0213875D01*
X0041425Y0222350D01*
X0041381Y0222350D01*
X0040553Y0222219D01*
X0039756Y0221960D01*
X0039009Y0221579D01*
X0038331Y0221087D01*
X0037738Y0220494D01*
X0037246Y0219816D01*
X0036865Y0219069D01*
X0036606Y0218272D01*
X0036475Y0217444D01*
X0036475Y0213875D01*
X0041425Y0213875D01*
X0041425Y0213125D01*
X0036475Y0213125D01*
X0036475Y0209556D01*
X0036606Y0208728D01*
X0036865Y0207931D01*
X0037246Y0207184D01*
X0037738Y0206506D01*
X0038331Y0205913D01*
X0039009Y0205421D01*
X0039756Y0205040D01*
X0040553Y0204781D01*
X0041381Y0204650D01*
X0041425Y0204650D01*
X0041425Y0213125D01*
X0042175Y0213125D01*
X0042175Y0204650D01*
X0042219Y0204650D01*
X0043047Y0204781D01*
X0043844Y0205040D01*
X0044591Y0205421D01*
X0046366Y0207208D02*
X0067399Y0207208D01*
X0066737Y0208806D02*
X0047006Y0208806D01*
X0047125Y0210405D02*
X0066675Y0210405D01*
X0066675Y0212003D02*
X0047125Y0212003D01*
X0047125Y0213875D02*
X0047125Y0217444D01*
X0046994Y0218272D01*
X0046735Y0219069D01*
X0046354Y0219816D01*
X0045862Y0220494D01*
X0045269Y0221087D01*
X0044591Y0221579D01*
X0043844Y0221960D01*
X0043047Y0222219D01*
X0042219Y0222350D01*
X0042175Y0222350D01*
X0042175Y0213875D01*
X0047125Y0213875D01*
X0047125Y0215201D02*
X0066675Y0215201D01*
X0066675Y0216799D02*
X0047125Y0216799D01*
X0046953Y0218398D02*
X0066821Y0218398D01*
X0067523Y0219996D02*
X0046223Y0219996D01*
X0044561Y0221595D02*
X0069440Y0221595D01*
X0074160Y0221595D02*
X0089039Y0221595D01*
X0089009Y0221579D02*
X0088331Y0221087D01*
X0087738Y0220494D01*
X0087246Y0219816D01*
X0086865Y0219069D01*
X0086606Y0218272D01*
X0086475Y0217444D01*
X0086475Y0213875D01*
X0091425Y0213875D01*
X0091425Y0222350D01*
X0091381Y0222350D01*
X0090553Y0222219D01*
X0089756Y0221960D01*
X0089009Y0221579D01*
X0087377Y0219996D02*
X0076077Y0219996D01*
X0076779Y0218398D02*
X0086647Y0218398D01*
X0086475Y0216799D02*
X0076925Y0216799D01*
X0076925Y0215201D02*
X0086475Y0215201D01*
X0086475Y0213125D02*
X0086475Y0209556D01*
X0086606Y0208728D01*
X0086865Y0207931D01*
X0087246Y0207184D01*
X0087738Y0206506D01*
X0088331Y0205913D01*
X0089009Y0205421D01*
X0089756Y0205040D01*
X0090553Y0204781D01*
X0091381Y0204650D01*
X0091425Y0204650D01*
X0091425Y0213125D01*
X0086475Y0213125D01*
X0086475Y0212003D02*
X0076925Y0212003D01*
X0076925Y0210405D02*
X0086475Y0210405D01*
X0086594Y0208806D02*
X0076863Y0208806D01*
X0076201Y0207208D02*
X0087233Y0207208D01*
X0088749Y0205609D02*
X0074653Y0205609D01*
X0074600Y0204011D02*
X0116571Y0204011D01*
X0116078Y0205609D02*
X0094851Y0205609D01*
X0094591Y0205421D02*
X0095269Y0205913D01*
X0095862Y0206506D01*
X0096354Y0207184D01*
X0096735Y0207931D01*
X0096994Y0208728D01*
X0097125Y0209556D01*
X0097125Y0213125D01*
X0092175Y0213125D01*
X0092175Y0213875D01*
X0091425Y0213875D01*
X0091425Y0213125D01*
X0092175Y0213125D01*
X0092175Y0204650D01*
X0092219Y0204650D01*
X0093047Y0204781D01*
X0093844Y0205040D01*
X0094591Y0205421D01*
X0092175Y0205609D02*
X0091425Y0205609D01*
X0091425Y0207208D02*
X0092175Y0207208D01*
X0092175Y0208806D02*
X0091425Y0208806D01*
X0091425Y0210405D02*
X0092175Y0210405D01*
X0092175Y0212003D02*
X0091425Y0212003D01*
X0091425Y0213602D02*
X0076925Y0213602D01*
X0074600Y0202412D02*
X0117549Y0202412D01*
X0118639Y0200814D02*
X0074600Y0200814D01*
X0074600Y0199215D02*
X0119933Y0199215D01*
X0121938Y0197617D02*
X0074600Y0197617D01*
X0074600Y0196018D02*
X0124502Y0196018D01*
X0130748Y0194420D02*
X0074600Y0194420D01*
X0074600Y0192821D02*
X0145701Y0192821D01*
X0145701Y0191223D02*
X0074600Y0191223D01*
X0074600Y0189624D02*
X0100995Y0189624D01*
X0099400Y0188026D02*
X0074600Y0188026D01*
X0076140Y0186427D02*
X0099400Y0186427D01*
X0099400Y0184829D02*
X0077738Y0184829D01*
X0079337Y0183230D02*
X0100140Y0183230D01*
X0101500Y0181632D02*
X0080935Y0181632D01*
X0082534Y0180033D02*
X0101500Y0180033D01*
X0101500Y0178435D02*
X0084132Y0178435D01*
X0088983Y0176836D02*
X0100707Y0176836D01*
X0099400Y0175238D02*
X0091522Y0175238D01*
X0093121Y0173639D02*
X0099400Y0173639D01*
X0099400Y0172041D02*
X0094719Y0172041D01*
X0096318Y0170442D02*
X0100428Y0170442D01*
X0101500Y0168844D02*
X0097916Y0168844D01*
X0099515Y0167245D02*
X0101789Y0167245D01*
X0101113Y0165647D02*
X0103194Y0165647D01*
X0102712Y0164048D02*
X0104792Y0164048D01*
X0104310Y0162450D02*
X0106391Y0162450D01*
X0105909Y0160851D02*
X0108378Y0160851D01*
X0107507Y0159253D02*
X0132600Y0159253D01*
X0132591Y0160851D02*
X0133211Y0160851D01*
X0133500Y0162450D02*
X0134810Y0162450D01*
X0136800Y0165647D02*
X0136800Y0165647D01*
X0136800Y0167245D02*
X0136800Y0167245D01*
X0136800Y0168844D02*
X0136800Y0168844D01*
X0136800Y0170442D02*
X0136800Y0170442D01*
X0136800Y0172041D02*
X0136800Y0172041D01*
X0139482Y0172041D02*
X0145701Y0172041D01*
X0145701Y0170442D02*
X0141080Y0170442D01*
X0141200Y0168844D02*
X0145701Y0168844D01*
X0145701Y0167245D02*
X0141200Y0167245D01*
X0140169Y0165647D02*
X0145701Y0165647D01*
X0134000Y0154457D02*
X0112303Y0154457D01*
X0113901Y0152859D02*
X0134000Y0152859D01*
X0134000Y0151260D02*
X0115500Y0151260D01*
X0117098Y0149662D02*
X0134000Y0149662D01*
X0134000Y0148063D02*
X0118697Y0148063D01*
X0120295Y0146465D02*
X0133305Y0146465D01*
X0128454Y0144866D02*
X0121894Y0144866D01*
X0123492Y0143268D02*
X0127219Y0143268D01*
X0126700Y0141669D02*
X0125091Y0141669D01*
X0126689Y0140070D02*
X0126700Y0140070D01*
X0133305Y0156056D02*
X0110704Y0156056D01*
X0109106Y0157654D02*
X0132600Y0157654D01*
X0127105Y0167245D02*
X0109515Y0167245D01*
X0107100Y0181632D02*
X0141456Y0181632D01*
X0139857Y0183230D02*
X0108460Y0183230D01*
X0109200Y0184829D02*
X0139200Y0184829D01*
X0139200Y0186427D02*
X0109200Y0186427D01*
X0109200Y0188026D02*
X0139200Y0188026D01*
X0140712Y0189624D02*
X0107605Y0189624D01*
X0115585Y0207208D02*
X0096366Y0207208D01*
X0097006Y0208806D02*
X0115188Y0208806D01*
X0115188Y0210405D02*
X0097125Y0210405D01*
X0097125Y0212003D02*
X0115188Y0212003D01*
X0115218Y0213602D02*
X0092175Y0213602D01*
X0092175Y0213875D02*
X0097125Y0213875D01*
X0097125Y0217444D01*
X0096994Y0218272D01*
X0096735Y0219069D01*
X0096354Y0219816D01*
X0095862Y0220494D01*
X0095269Y0221087D01*
X0094591Y0221579D01*
X0093844Y0221960D01*
X0093047Y0222219D01*
X0092219Y0222350D01*
X0092175Y0222350D01*
X0092175Y0213875D01*
X0092175Y0215201D02*
X0091425Y0215201D01*
X0091425Y0216799D02*
X0092175Y0216799D01*
X0092175Y0218398D02*
X0091425Y0218398D01*
X0091425Y0219996D02*
X0092175Y0219996D01*
X0092175Y0221595D02*
X0091425Y0221595D01*
X0094561Y0221595D02*
X0118917Y0221595D01*
X0117827Y0219996D02*
X0096223Y0219996D01*
X0096953Y0218398D02*
X0116738Y0218398D01*
X0116204Y0216799D02*
X0097125Y0216799D01*
X0097125Y0215201D02*
X0115711Y0215201D01*
X0120445Y0223193D02*
X0011600Y0223193D01*
X0011600Y0221595D02*
X0019440Y0221595D01*
X0017523Y0219996D02*
X0011600Y0219996D01*
X0011600Y0218398D02*
X0016821Y0218398D01*
X0016675Y0216799D02*
X0011600Y0216799D01*
X0011600Y0215201D02*
X0016675Y0215201D01*
X0016675Y0213602D02*
X0011600Y0213602D01*
X0011600Y0212003D02*
X0016675Y0212003D01*
X0016675Y0210405D02*
X0011600Y0210405D01*
X0011600Y0208806D02*
X0016737Y0208806D01*
X0017399Y0207208D02*
X0011600Y0207208D01*
X0011600Y0205609D02*
X0018947Y0205609D01*
X0024653Y0205609D02*
X0025731Y0205609D01*
X0027329Y0204011D02*
X0011600Y0204011D01*
X0011600Y0202412D02*
X0028928Y0202412D01*
X0030526Y0200814D02*
X0011600Y0200814D01*
X0011600Y0199215D02*
X0032125Y0199215D01*
X0033723Y0197617D02*
X0011600Y0197617D01*
X0011600Y0196018D02*
X0035322Y0196018D01*
X0036920Y0194420D02*
X0011600Y0194420D01*
X0011600Y0192821D02*
X0038519Y0192821D01*
X0040117Y0191223D02*
X0011600Y0191223D01*
X0011600Y0189624D02*
X0041716Y0189624D01*
X0043314Y0188026D02*
X0011600Y0188026D01*
X0011600Y0186427D02*
X0044913Y0186427D01*
X0046511Y0184829D02*
X0011600Y0184829D01*
X0011600Y0183230D02*
X0048110Y0183230D01*
X0049708Y0181632D02*
X0011600Y0181632D01*
X0011600Y0180033D02*
X0051307Y0180033D01*
X0052905Y0178435D02*
X0047817Y0178435D01*
X0048180Y0178249D02*
X0047437Y0178628D01*
X0046643Y0178886D01*
X0045819Y0179017D01*
X0045402Y0179017D01*
X0044985Y0179017D01*
X0044161Y0178886D01*
X0043368Y0178628D01*
X0042625Y0178249D01*
X0041950Y0177759D01*
X0041360Y0177169D01*
X0040869Y0176494D01*
X0040491Y0175751D01*
X0040233Y0174958D01*
X0040102Y0174134D01*
X0040102Y0173717D01*
X0045402Y0173717D01*
X0045402Y0179017D01*
X0045402Y0173717D01*
X0045402Y0173717D01*
X0045402Y0173716D01*
X0045402Y0173716D01*
X0045402Y0168417D01*
X0044985Y0168417D01*
X0044161Y0168547D01*
X0043368Y0168805D01*
X0042625Y0169184D01*
X0041950Y0169674D01*
X0041360Y0170264D01*
X0040869Y0170939D01*
X0040491Y0171682D01*
X0040233Y0172475D01*
X0040102Y0173299D01*
X0040102Y0173716D01*
X0045402Y0173716D01*
X0045402Y0168417D01*
X0045819Y0168417D01*
X0046643Y0168547D01*
X0047437Y0168805D01*
X0048180Y0169184D01*
X0048855Y0169674D01*
X0049445Y0170264D01*
X0049935Y0170939D01*
X0050314Y0171682D01*
X0050572Y0172475D01*
X0050702Y0173299D01*
X0050702Y0173716D01*
X0045402Y0173716D01*
X0045402Y0173717D01*
X0050702Y0173717D01*
X0050702Y0174134D01*
X0050572Y0174958D01*
X0050314Y0175751D01*
X0049935Y0176494D01*
X0049445Y0177169D01*
X0048855Y0177759D01*
X0048180Y0178249D01*
X0049687Y0176836D02*
X0054504Y0176836D01*
X0056102Y0175238D02*
X0050481Y0175238D01*
X0050702Y0173639D02*
X0057701Y0173639D01*
X0059299Y0172041D02*
X0050431Y0172041D01*
X0049575Y0170442D02*
X0060898Y0170442D01*
X0062497Y0168844D02*
X0047513Y0168844D01*
X0045402Y0168844D02*
X0045402Y0168844D01*
X0045402Y0170442D02*
X0045402Y0170442D01*
X0045402Y0172041D02*
X0045402Y0172041D01*
X0045402Y0173639D02*
X0045402Y0173639D01*
X0045402Y0175238D02*
X0045402Y0175238D01*
X0045402Y0176836D02*
X0045402Y0176836D01*
X0045402Y0178435D02*
X0045402Y0178435D01*
X0042988Y0178435D02*
X0011600Y0178435D01*
X0011600Y0176836D02*
X0041118Y0176836D01*
X0040324Y0175238D02*
X0011600Y0175238D01*
X0011600Y0173639D02*
X0040102Y0173639D01*
X0040374Y0172041D02*
X0011600Y0172041D01*
X0011600Y0170442D02*
X0041230Y0170442D01*
X0043292Y0168844D02*
X0011600Y0168844D01*
X0011600Y0167245D02*
X0064095Y0167245D01*
X0065694Y0165647D02*
X0011600Y0165647D01*
X0011600Y0164048D02*
X0067292Y0164048D01*
X0068891Y0162450D02*
X0011600Y0162450D01*
X0011600Y0160851D02*
X0070489Y0160851D01*
X0072088Y0159253D02*
X0011600Y0159253D01*
X0011600Y0157654D02*
X0073686Y0157654D01*
X0075285Y0156056D02*
X0011600Y0156056D01*
X0011600Y0154457D02*
X0076883Y0154457D01*
X0078482Y0152859D02*
X0011600Y0152859D01*
X0011600Y0151260D02*
X0080080Y0151260D01*
X0081679Y0149662D02*
X0011600Y0149662D01*
X0011600Y0148063D02*
X0083277Y0148063D01*
X0084876Y0146465D02*
X0011600Y0146465D01*
X0011600Y0144866D02*
X0086474Y0144866D01*
X0088073Y0143268D02*
X0011600Y0143268D01*
X0011600Y0141669D02*
X0089671Y0141669D01*
X0091270Y0140070D02*
X0011600Y0140070D01*
X0011600Y0138472D02*
X0092868Y0138472D01*
X0094467Y0136873D02*
X0011600Y0136873D01*
X0011600Y0135275D02*
X0096065Y0135275D01*
X0097664Y0133676D02*
X0011600Y0133676D01*
X0011600Y0132078D02*
X0099262Y0132078D01*
X0100391Y0130479D02*
X0011600Y0130479D01*
X0011600Y0128881D02*
X0101989Y0128881D01*
X0102750Y0127282D02*
X0011600Y0127282D01*
X0033650Y0205609D02*
X0038749Y0205609D01*
X0037233Y0207208D02*
X0032052Y0207208D01*
X0030453Y0208806D02*
X0036594Y0208806D01*
X0036475Y0210405D02*
X0028855Y0210405D01*
X0027256Y0212003D02*
X0036475Y0212003D01*
X0036475Y0215201D02*
X0026925Y0215201D01*
X0026925Y0216799D02*
X0036475Y0216799D01*
X0036647Y0218398D02*
X0026779Y0218398D01*
X0026077Y0219996D02*
X0037377Y0219996D01*
X0039039Y0221595D02*
X0024160Y0221595D01*
X0026925Y0213602D02*
X0041425Y0213602D01*
X0042175Y0213602D02*
X0066675Y0213602D01*
X0042175Y0212003D02*
X0041425Y0212003D01*
X0041425Y0210405D02*
X0042175Y0210405D01*
X0042175Y0208806D02*
X0041425Y0208806D01*
X0041425Y0207208D02*
X0042175Y0207208D01*
X0042175Y0205609D02*
X0041425Y0205609D01*
X0041425Y0215201D02*
X0042175Y0215201D01*
X0042175Y0216799D02*
X0041425Y0216799D01*
X0041425Y0218398D02*
X0042175Y0218398D01*
X0042175Y0219996D02*
X0041425Y0219996D01*
X0041425Y0221595D02*
X0042175Y0221595D01*
X0011600Y0224792D02*
X0122450Y0224792D01*
X0139076Y0196018D02*
X0145701Y0196018D01*
X0145701Y0194420D02*
X0133813Y0194420D01*
X0141844Y0197617D02*
X0145701Y0197617D01*
X0145701Y0199215D02*
X0143527Y0199215D01*
X0145011Y0200814D02*
X0145701Y0200814D01*
X0144300Y0189624D02*
X0144300Y0189624D01*
X0144300Y0188026D02*
X0144300Y0188026D01*
X0113244Y0136873D02*
X0107856Y0136873D01*
X0109200Y0135275D02*
X0111900Y0135275D01*
X0111900Y0133676D02*
X0109200Y0133676D01*
X0109200Y0132078D02*
X0111900Y0132078D01*
X0112750Y0130479D02*
X0108350Y0130479D01*
X0108350Y0128881D02*
X0112750Y0128881D01*
X0112750Y0127282D02*
X0108350Y0127282D01*
X0089997Y0168844D02*
X0088201Y0168844D01*
D16*
X0066800Y0091000D02*
X0041800Y0091000D01*
X0025402Y0074602D01*
X0025402Y0066000D01*
X0066800Y0091000D02*
X0066800Y0018500D01*
X0066800Y0091000D02*
X0131800Y0091000D01*
X0131800Y0061000D02*
X0116800Y0046000D01*
X0116800Y0018500D01*
D17*
X0115550Y0118500D02*
X0115550Y0132250D01*
X0116800Y0133500D01*
X0105550Y0132250D02*
X0105550Y0118500D01*
X0105550Y0132250D02*
X0104300Y0133500D01*
X0101800Y0133500D01*
X0021800Y0213500D01*
X0071800Y0213500D02*
X0071800Y0186807D01*
X0085402Y0173205D01*
X0089595Y0173205D01*
X0131800Y0131000D01*
X0131800Y0141000D02*
X0136800Y0146000D01*
X0136800Y0158500D01*
X0129300Y0163500D02*
X0109300Y0163500D01*
X0104300Y0168500D01*
X0104300Y0173500D01*
X0104300Y0186000D01*
M02*
